<svg width="307" height="40" viewBox="0 0 307 40" fill="none" xmlns="http://www.w3.org/2000/svg">
<rect x="1.5" y="1.5" width="127" height="37" rx="18.5" fill="#00CC55" stroke="#5CEB8C" stroke-width="3"/>
<rect x="178.5" y="1.5" width="127" height="37" rx="18.5" fill="#327AFF" stroke="#63CBFF" stroke-width="3"/>
<path d="M39.8188 24H37.8066L37.8193 22.5146H39.8188C40.3182 22.5146 40.7393 22.4025 41.082 22.1782C41.4248 21.9497 41.6829 21.6175 41.8564 21.1816C42.0342 20.7458 42.123 20.2189 42.123 19.6011V19.1504C42.123 18.6764 42.0723 18.2596 41.9707 17.8999C41.8734 17.5402 41.7274 17.2376 41.5327 16.9922C41.3381 16.7467 41.099 16.5627 40.8154 16.4399C40.5319 16.313 40.2061 16.2495 39.8379 16.2495H37.7686V14.7578H39.8379C40.4557 14.7578 41.0207 14.8636 41.5327 15.0752C42.049 15.2826 42.4954 15.5809 42.8721 15.9702C43.2487 16.3595 43.5386 16.825 43.7417 17.3667C43.9491 17.9041 44.0527 18.5029 44.0527 19.1631V19.6011C44.0527 20.257 43.9491 20.8558 43.7417 21.3975C43.5386 21.9391 43.2487 22.4046 42.8721 22.7939C42.4997 23.179 42.0532 23.4774 41.5327 23.689C41.0164 23.8963 40.4451 24 39.8188 24ZM38.8857 14.7578V24H36.9814V14.7578H38.8857ZM45.0303 20.6357V20.5024C45.0303 19.9989 45.1022 19.5355 45.2461 19.1123C45.39 18.6849 45.5994 18.3146 45.8745 18.0015C46.1496 17.6883 46.4881 17.445 46.8901 17.2715C47.2922 17.0938 47.7534 17.0049 48.2739 17.0049C48.7944 17.0049 49.2578 17.0938 49.6641 17.2715C50.0703 17.445 50.411 17.6883 50.686 18.0015C50.9653 18.3146 51.1769 18.6849 51.3208 19.1123C51.4647 19.5355 51.5366 19.9989 51.5366 20.5024V20.6357C51.5366 21.1351 51.4647 21.5985 51.3208 22.0259C51.1769 22.4491 50.9653 22.8193 50.686 23.1367C50.411 23.4499 50.0724 23.6932 49.6704 23.8667C49.2684 24.0402 48.8071 24.127 48.2866 24.127C47.7661 24.127 47.3027 24.0402 46.8965 23.8667C46.4945 23.6932 46.1538 23.4499 45.8745 23.1367C45.5994 22.8193 45.39 22.4491 45.2461 22.0259C45.1022 21.5985 45.0303 21.1351 45.0303 20.6357ZM46.8584 20.5024V20.6357C46.8584 20.9235 46.8838 21.1922 46.9346 21.4419C46.9854 21.6916 47.0658 21.9116 47.1758 22.1021C47.29 22.2882 47.4382 22.4342 47.6201 22.54C47.8021 22.6458 48.0243 22.6987 48.2866 22.6987C48.5405 22.6987 48.7585 22.6458 48.9404 22.54C49.1224 22.4342 49.2684 22.2882 49.3784 22.1021C49.4884 21.9116 49.5688 21.6916 49.6196 21.4419C49.6746 21.1922 49.7021 20.9235 49.7021 20.6357V20.5024C49.7021 20.2231 49.6746 19.9608 49.6196 19.7153C49.5688 19.4657 49.4863 19.2456 49.3721 19.0552C49.262 18.8605 49.116 18.7082 48.9341 18.5981C48.7521 18.4881 48.5321 18.4331 48.2739 18.4331C48.0158 18.4331 47.7957 18.4881 47.6138 18.5981C47.436 18.7082 47.29 18.8605 47.1758 19.0552C47.0658 19.2456 46.9854 19.4657 46.9346 19.7153C46.8838 19.9608 46.8584 20.2231 46.8584 20.5024ZM54.6216 22.2227L56.0498 17.1318H57.2114L56.8369 19.1313L55.4087 24H54.4375L54.6216 22.2227ZM53.8979 17.1318L54.9199 22.2163L55.0151 24H53.8726L52.1333 17.1318H53.8979ZM58.519 22.1338L59.5156 17.1318H61.2866L59.5474 24H58.4111L58.519 22.1338ZM57.3701 17.1318L58.792 22.1846L58.9888 24H58.0112L56.583 19.1377L56.2212 17.1318H57.3701ZM63.9971 18.5981V24H62.1689V17.1318H63.8828L63.9971 18.5981ZM63.7305 20.3247H63.2354C63.2354 19.8169 63.3009 19.3599 63.4321 18.9536C63.5633 18.5431 63.7474 18.194 63.9844 17.9062C64.2214 17.6143 64.5028 17.3921 64.8286 17.2397C65.1587 17.0832 65.5269 17.0049 65.9331 17.0049C66.2547 17.0049 66.5488 17.0514 66.8154 17.1445C67.082 17.2376 67.3105 17.3857 67.501 17.5889C67.6956 17.792 67.8438 18.0607 67.9453 18.395C68.0511 18.7293 68.104 19.1377 68.104 19.6201V24H66.2632V19.6138C66.2632 19.3091 66.2209 19.0721 66.1362 18.9028C66.0516 18.7336 65.9268 18.6151 65.7617 18.5474C65.6009 18.4754 65.402 18.4395 65.165 18.4395C64.9196 18.4395 64.7059 18.4881 64.5239 18.5854C64.3462 18.6828 64.1981 18.8182 64.0796 18.9917C63.9653 19.161 63.8786 19.3599 63.8193 19.5884C63.7601 19.8169 63.7305 20.0623 63.7305 20.3247ZM71.4238 14.25V24H69.5894V14.25H71.4238ZM72.6426 20.6357V20.5024C72.6426 19.9989 72.7145 19.5355 72.8584 19.1123C73.0023 18.6849 73.2118 18.3146 73.4868 18.0015C73.7619 17.6883 74.1004 17.445 74.5024 17.2715C74.9045 17.0938 75.3657 17.0049 75.8862 17.0049C76.4067 17.0049 76.8701 17.0938 77.2764 17.2715C77.6826 17.445 78.0233 17.6883 78.2983 18.0015C78.5776 18.3146 78.7892 18.6849 78.9331 19.1123C79.077 19.5355 79.1489 19.9989 79.1489 20.5024V20.6357C79.1489 21.1351 79.077 21.5985 78.9331 22.0259C78.7892 22.4491 78.5776 22.8193 78.2983 23.1367C78.0233 23.4499 77.6847 23.6932 77.2827 23.8667C76.8807 24.0402 76.4194 24.127 75.8989 24.127C75.3784 24.127 74.915 24.0402 74.5088 23.8667C74.1068 23.6932 73.7661 23.4499 73.4868 23.1367C73.2118 22.8193 73.0023 22.4491 72.8584 22.0259C72.7145 21.5985 72.6426 21.1351 72.6426 20.6357ZM74.4707 20.5024V20.6357C74.4707 20.9235 74.4961 21.1922 74.5469 21.4419C74.5977 21.6916 74.6781 21.9116 74.7881 22.1021C74.9023 22.2882 75.0505 22.4342 75.2324 22.54C75.4144 22.6458 75.6366 22.6987 75.8989 22.6987C76.1528 22.6987 76.3708 22.6458 76.5527 22.54C76.7347 22.4342 76.8807 22.2882 76.9907 22.1021C77.1007 21.9116 77.1812 21.6916 77.2319 21.4419C77.2869 21.1922 77.3145 20.9235 77.3145 20.6357V20.5024C77.3145 20.2231 77.2869 19.9608 77.2319 19.7153C77.1812 19.4657 77.0986 19.2456 76.9844 19.0552C76.8743 18.8605 76.7284 18.7082 76.5464 18.5981C76.3644 18.4881 76.1444 18.4331 75.8862 18.4331C75.6281 18.4331 75.408 18.4881 75.2261 18.5981C75.0483 18.7082 74.9023 18.8605 74.7881 19.0552C74.6781 19.2456 74.5977 19.4657 74.5469 19.7153C74.4961 19.9608 74.4707 20.2231 74.4707 20.5024ZM83.9795 22.4512V19.3916C83.9795 19.1715 83.9435 18.9832 83.8716 18.8267C83.7996 18.6659 83.6875 18.541 83.5352 18.4521C83.387 18.3633 83.1945 18.3188 82.9575 18.3188C82.7544 18.3188 82.5788 18.3548 82.4307 18.4268C82.2826 18.4945 82.1683 18.5939 82.0879 18.7251C82.0075 18.8521 81.9673 19.0023 81.9673 19.1758H80.1392C80.1392 18.8838 80.2069 18.6066 80.3423 18.3442C80.4777 18.0819 80.6745 17.8512 80.9326 17.6523C81.1908 17.4492 81.4976 17.2905 81.853 17.1763C82.2127 17.062 82.6147 17.0049 83.0591 17.0049C83.5923 17.0049 84.0662 17.0938 84.481 17.2715C84.8957 17.4492 85.2215 17.7158 85.4585 18.0713C85.6997 18.4268 85.8203 18.8711 85.8203 19.4043V22.3433C85.8203 22.7199 85.8436 23.0288 85.8901 23.27C85.9367 23.507 86.0044 23.7144 86.0933 23.8921V24H84.2461C84.1572 23.8138 84.0895 23.5811 84.043 23.3018C84.0007 23.0182 83.9795 22.7347 83.9795 22.4512ZM84.2207 19.8169L84.2334 20.8516H83.2114C82.9702 20.8516 82.7607 20.8791 82.583 20.9341C82.4053 20.9891 82.2593 21.0674 82.145 21.1689C82.0308 21.2663 81.9461 21.3805 81.8911 21.5117C81.8403 21.6429 81.8149 21.7868 81.8149 21.9434C81.8149 22.0999 81.8509 22.2417 81.9229 22.3687C81.9948 22.4914 82.0985 22.5887 82.2339 22.6606C82.3693 22.7284 82.528 22.7622 82.71 22.7622C82.985 22.7622 83.2241 22.7072 83.4272 22.5972C83.6304 22.4871 83.7869 22.3517 83.897 22.1909C84.0112 22.0301 84.0705 21.8778 84.0747 21.7339L84.5571 22.5083C84.4894 22.6818 84.3963 22.8617 84.2778 23.0479C84.1636 23.234 84.0176 23.4097 83.8398 23.5747C83.6621 23.7355 83.4484 23.8688 83.1987 23.9746C82.9491 24.0762 82.6528 24.127 82.3101 24.127C81.8742 24.127 81.4785 24.0402 81.123 23.8667C80.7718 23.689 80.4925 23.4456 80.2852 23.1367C80.082 22.8236 79.9805 22.4681 79.9805 22.0703C79.9805 21.7106 80.0482 21.3911 80.1836 21.1118C80.319 20.8325 80.5179 20.5977 80.7803 20.4072C81.0469 20.2126 81.3791 20.0666 81.7769 19.9692C82.1746 19.8677 82.6359 19.8169 83.1606 19.8169H84.2207ZM91.2856 22.502V14.25H93.1265V24H91.4697L91.2856 22.502ZM86.9438 20.6484V20.5151C86.9438 19.9904 87.0031 19.5143 87.1216 19.0869C87.2401 18.6553 87.4136 18.285 87.6421 17.9761C87.8706 17.6672 88.152 17.4281 88.4863 17.2588C88.8206 17.0895 89.2015 17.0049 89.6289 17.0049C90.0309 17.0049 90.3822 17.0895 90.6826 17.2588C90.9873 17.4281 91.2454 17.6693 91.457 17.9824C91.6729 18.2913 91.8464 18.6574 91.9775 19.0806C92.1087 19.4995 92.2039 19.9587 92.2632 20.458V20.75C92.2039 21.2282 92.1087 21.6725 91.9775 22.083C91.8464 22.4935 91.6729 22.8532 91.457 23.1621C91.2454 23.4668 90.9873 23.7038 90.6826 23.873C90.3779 24.0423 90.0225 24.127 89.6162 24.127C89.1888 24.127 88.8079 24.0402 88.4736 23.8667C88.1436 23.6932 87.8643 23.4499 87.6357 23.1367C87.4115 22.8236 87.2401 22.4554 87.1216 22.0322C87.0031 21.609 86.9438 21.1478 86.9438 20.6484ZM88.772 20.5151V20.6484C88.772 20.932 88.7931 21.1965 88.8354 21.4419C88.882 21.6873 88.9561 21.9053 89.0576 22.0957C89.1634 22.2819 89.2988 22.4279 89.4639 22.5337C89.6331 22.6353 89.8384 22.686 90.0796 22.686C90.3927 22.686 90.6509 22.6162 90.854 22.4766C91.0571 22.3327 91.2116 22.1359 91.3174 21.8862C91.4274 21.6366 91.4909 21.3488 91.5078 21.0229V20.1914C91.4951 19.9248 91.457 19.6857 91.3936 19.4741C91.3343 19.2583 91.2454 19.0742 91.127 18.9219C91.0127 18.7695 90.8688 18.651 90.6953 18.5664C90.526 18.4818 90.325 18.4395 90.0923 18.4395C89.8553 18.4395 89.6522 18.4945 89.4829 18.6045C89.3136 18.7103 89.1761 18.8563 89.0703 19.0425C88.9688 19.2287 88.8926 19.4487 88.8418 19.7026C88.7952 19.9523 88.772 20.2231 88.772 20.5151Z" fill="#F7F7F7"/>
<path d="M218.749 20.9341H220.646C220.608 21.5562 220.437 22.1084 220.132 22.5908C219.832 23.0732 219.411 23.4499 218.869 23.7207C218.332 23.9915 217.684 24.127 216.927 24.127C216.334 24.127 215.803 24.0254 215.333 23.8223C214.864 23.6149 214.462 23.3187 214.127 22.9336C213.797 22.5485 213.546 22.083 213.372 21.5371C213.199 20.9912 213.112 20.3797 213.112 19.7026V19.0615C213.112 18.3844 213.201 17.7729 213.378 17.2271C213.56 16.6769 213.819 16.2093 214.153 15.8242C214.491 15.4391 214.896 15.1429 215.365 14.9355C215.835 14.7282 216.36 14.6245 216.939 14.6245C217.71 14.6245 218.359 14.7642 218.888 15.0435C219.421 15.3228 219.834 15.7078 220.126 16.1987C220.422 16.6896 220.6 17.2482 220.659 17.8745H218.755C218.734 17.5021 218.66 17.1868 218.533 16.9287C218.406 16.6663 218.213 16.4696 217.955 16.3384C217.701 16.203 217.363 16.1353 216.939 16.1353C216.622 16.1353 216.345 16.1945 216.108 16.313C215.871 16.4315 215.672 16.6113 215.511 16.8525C215.35 17.0938 215.23 17.3984 215.149 17.7666C215.073 18.1305 215.035 18.5579 215.035 19.0488V19.7026C215.035 20.1808 215.071 20.6019 215.143 20.9658C215.215 21.3255 215.325 21.6302 215.473 21.8799C215.625 22.1253 215.82 22.3115 216.057 22.4385C216.298 22.5612 216.588 22.6226 216.927 22.6226C217.325 22.6226 217.653 22.5591 217.911 22.4321C218.169 22.3052 218.366 22.1169 218.501 21.8672C218.641 21.6175 218.723 21.3065 218.749 20.9341ZM221.491 20.6357V20.5024C221.491 19.9989 221.563 19.5355 221.707 19.1123C221.85 18.6849 222.06 18.3146 222.335 18.0015C222.61 17.6883 222.949 17.445 223.351 17.2715C223.753 17.0938 224.214 17.0049 224.734 17.0049C225.255 17.0049 225.718 17.0938 226.125 17.2715C226.531 17.445 226.871 17.6883 227.146 18.0015C227.426 18.3146 227.637 18.6849 227.781 19.1123C227.925 19.5355 227.997 19.9989 227.997 20.5024V20.6357C227.997 21.1351 227.925 21.5985 227.781 22.0259C227.637 22.4491 227.426 22.8193 227.146 23.1367C226.871 23.4499 226.533 23.6932 226.131 23.8667C225.729 24.0402 225.268 24.127 224.747 24.127C224.227 24.127 223.763 24.0402 223.357 23.8667C222.955 23.6932 222.614 23.4499 222.335 23.1367C222.06 22.8193 221.85 22.4491 221.707 22.0259C221.563 21.5985 221.491 21.1351 221.491 20.6357ZM223.319 20.5024V20.6357C223.319 20.9235 223.344 21.1922 223.395 21.4419C223.446 21.6916 223.526 21.9116 223.636 22.1021C223.75 22.2882 223.899 22.4342 224.081 22.54C224.263 22.6458 224.485 22.6987 224.747 22.6987C225.001 22.6987 225.219 22.6458 225.401 22.54C225.583 22.4342 225.729 22.2882 225.839 22.1021C225.949 21.9116 226.029 21.6916 226.08 21.4419C226.135 21.1922 226.163 20.9235 226.163 20.6357V20.5024C226.163 20.2231 226.135 19.9608 226.08 19.7153C226.029 19.4657 225.947 19.2456 225.833 19.0552C225.722 18.8605 225.576 18.7082 225.395 18.5981C225.213 18.4881 224.993 18.4331 224.734 18.4331C224.476 18.4331 224.256 18.4881 224.074 18.5981C223.896 18.7082 223.75 18.8605 223.636 19.0552C223.526 19.2456 223.446 19.4657 223.395 19.7153C223.344 19.9608 223.319 20.2231 223.319 20.5024ZM230.911 18.5981V24H229.083V17.1318H230.796L230.911 18.5981ZM230.644 20.3247H230.149C230.149 19.8169 230.215 19.3599 230.346 18.9536C230.477 18.5431 230.661 18.194 230.898 17.9062C231.135 17.6143 231.416 17.3921 231.742 17.2397C232.072 17.0832 232.44 17.0049 232.847 17.0049C233.168 17.0049 233.462 17.0514 233.729 17.1445C233.996 17.2376 234.224 17.3857 234.415 17.5889C234.609 17.792 234.757 18.0607 234.859 18.395C234.965 18.7293 235.018 19.1377 235.018 19.6201V24H233.177V19.6138C233.177 19.3091 233.134 19.0721 233.05 18.9028C232.965 18.7336 232.84 18.6151 232.675 18.5474C232.514 18.4754 232.316 18.4395 232.079 18.4395C231.833 18.4395 231.619 18.4881 231.438 18.5854C231.26 18.6828 231.112 18.8182 230.993 18.9917C230.879 19.161 230.792 19.3599 230.733 19.5884C230.674 19.8169 230.644 20.0623 230.644 20.3247ZM239.772 17.1318V18.4268H235.773V17.1318H239.772ZM236.763 15.437H238.591V21.9307C238.591 22.1296 238.617 22.2819 238.667 22.3877C238.722 22.4935 238.803 22.5675 238.909 22.6099C239.014 22.6479 239.148 22.667 239.309 22.667C239.423 22.667 239.524 22.6628 239.613 22.6543C239.706 22.6416 239.785 22.6289 239.848 22.6162L239.854 23.9619C239.698 24.0127 239.529 24.0529 239.347 24.0825C239.165 24.1121 238.964 24.127 238.744 24.127C238.342 24.127 237.99 24.0614 237.69 23.9302C237.394 23.7948 237.165 23.5789 237.004 23.2827C236.844 22.9865 236.763 22.5972 236.763 22.1147V15.437ZM244.52 22.4512V19.3916C244.52 19.1715 244.484 18.9832 244.412 18.8267C244.34 18.6659 244.228 18.541 244.076 18.4521C243.928 18.3633 243.735 18.3188 243.498 18.3188C243.295 18.3188 243.119 18.3548 242.971 18.4268C242.823 18.4945 242.709 18.5939 242.628 18.7251C242.548 18.8521 242.508 19.0023 242.508 19.1758H240.68C240.68 18.8838 240.747 18.6066 240.883 18.3442C241.018 18.0819 241.215 17.8512 241.473 17.6523C241.731 17.4492 242.038 17.2905 242.394 17.1763C242.753 17.062 243.155 17.0049 243.6 17.0049C244.133 17.0049 244.607 17.0938 245.021 17.2715C245.436 17.4492 245.762 17.7158 245.999 18.0713C246.24 18.4268 246.361 18.8711 246.361 19.4043V22.3433C246.361 22.7199 246.384 23.0288 246.431 23.27C246.477 23.507 246.545 23.7144 246.634 23.8921V24H244.787C244.698 23.8138 244.63 23.5811 244.583 23.3018C244.541 23.0182 244.52 22.7347 244.52 22.4512ZM244.761 19.8169L244.774 20.8516H243.752C243.511 20.8516 243.301 20.8791 243.124 20.9341C242.946 20.9891 242.8 21.0674 242.686 21.1689C242.571 21.2663 242.487 21.3805 242.432 21.5117C242.381 21.6429 242.355 21.7868 242.355 21.9434C242.355 22.0999 242.391 22.2417 242.463 22.3687C242.535 22.4914 242.639 22.5887 242.774 22.6606C242.91 22.7284 243.069 22.7622 243.25 22.7622C243.526 22.7622 243.765 22.7072 243.968 22.5972C244.171 22.4871 244.327 22.3517 244.438 22.1909C244.552 22.0301 244.611 21.8778 244.615 21.7339L245.098 22.5083C245.03 22.6818 244.937 22.8617 244.818 23.0479C244.704 23.234 244.558 23.4097 244.38 23.5747C244.203 23.7355 243.989 23.8688 243.739 23.9746C243.49 24.0762 243.193 24.127 242.851 24.127C242.415 24.127 242.019 24.0402 241.664 23.8667C241.312 23.689 241.033 23.4456 240.826 23.1367C240.623 22.8236 240.521 22.4681 240.521 22.0703C240.521 21.7106 240.589 21.3911 240.724 21.1118C240.86 20.8325 241.058 20.5977 241.321 20.4072C241.587 20.2126 241.92 20.0666 242.317 19.9692C242.715 19.8677 243.176 19.8169 243.701 19.8169H244.761ZM250.607 22.6987C250.832 22.6987 251.031 22.6564 251.204 22.5718C251.378 22.4829 251.513 22.3602 251.61 22.2036C251.712 22.0428 251.765 21.8545 251.769 21.6387H253.489C253.485 22.1211 253.356 22.5506 253.102 22.9272C252.848 23.2996 252.507 23.5938 252.08 23.8096C251.653 24.0212 251.174 24.127 250.646 24.127C250.112 24.127 249.647 24.0381 249.249 23.8604C248.855 23.6826 248.528 23.4372 248.265 23.124C248.003 22.8066 247.806 22.4385 247.675 22.0195C247.544 21.5964 247.478 21.1436 247.478 20.6611V20.4771C247.478 19.9904 247.544 19.5376 247.675 19.1187C247.806 18.6955 248.003 18.3273 248.265 18.0142C248.528 17.6968 248.855 17.4492 249.249 17.2715C249.643 17.0938 250.104 17.0049 250.633 17.0049C251.196 17.0049 251.689 17.1128 252.112 17.3286C252.539 17.5444 252.874 17.8534 253.115 18.2554C253.36 18.6532 253.485 19.125 253.489 19.6709H251.769C251.765 19.4424 251.716 19.235 251.623 19.0488C251.534 18.8626 251.403 18.7145 251.229 18.6045C251.06 18.4902 250.851 18.4331 250.601 18.4331C250.334 18.4331 250.117 18.4902 249.947 18.6045C249.778 18.7145 249.647 18.8669 249.554 19.0615C249.461 19.252 249.395 19.4699 249.357 19.7153C249.323 19.9565 249.306 20.2104 249.306 20.4771V20.6611C249.306 20.9277 249.323 21.1838 249.357 21.4292C249.391 21.6746 249.454 21.8926 249.547 22.083C249.645 22.2734 249.778 22.4237 249.947 22.5337C250.117 22.6437 250.337 22.6987 250.607 22.6987ZM257.914 17.1318V18.4268H253.915V17.1318H257.914ZM254.905 15.437H256.733V21.9307C256.733 22.1296 256.758 22.2819 256.809 22.3877C256.864 22.4935 256.944 22.5675 257.05 22.6099C257.156 22.6479 257.289 22.667 257.45 22.667C257.564 22.667 257.666 22.6628 257.755 22.6543C257.848 22.6416 257.926 22.6289 257.99 22.6162L257.996 23.9619C257.84 24.0127 257.67 24.0529 257.488 24.0825C257.306 24.1121 257.105 24.127 256.885 24.127C256.483 24.127 256.132 24.0614 255.832 23.9302C255.535 23.7948 255.307 23.5789 255.146 23.2827C254.985 22.9865 254.905 22.5972 254.905 22.1147V15.437ZM269.542 20.166L265.474 18.7124V17.0049L271.002 19.3281V20.5532L269.542 20.166ZM265.474 21.3848L269.549 19.8994L271.002 19.5503V20.769L265.474 23.0923V21.3848Z" fill="#F7F7F7"/>
</svg>
