<svg width="500" height="1000" viewBox="0 0 500 1000" fill="none" xmlns="http://www.w3.org/2000/svg">
<rect width="500" height="1000" fill="white"/>
<rect y="187.5" width="50" height="625" fill="#FFE797"/>
<line x1="85" y1="244.75" x2="439" y2="244.75" stroke="black" stroke-width="3"/>
<path d="M93.592 207.712C94.672 207.712 95.576 207.848 96.304 208.12C97.032 208.392 97.724 208.792 98.38 209.32L97.216 210.676C96.696 210.236 96.144 209.924 95.56 209.74C94.984 209.548 94.38 209.452 93.748 209.452C92.844 209.452 92.008 209.668 91.24 210.1C90.472 210.524 89.852 211.232 89.38 212.224C88.916 213.208 88.684 214.544 88.684 216.232C88.684 217.872 88.904 219.188 89.344 220.18C89.792 221.172 90.396 221.888 91.156 222.328C91.916 222.768 92.764 222.988 93.7 222.988C94.628 222.988 95.388 222.848 95.98 222.568C96.58 222.288 97.1 221.968 97.54 221.608L98.62 222.976C98.116 223.464 97.46 223.888 96.652 224.248C95.844 224.6 94.852 224.776 93.676 224.776C92.34 224.776 91.128 224.448 90.04 223.792C88.96 223.136 88.104 222.176 87.472 220.912C86.84 219.64 86.524 218.08 86.524 216.232C86.524 214.376 86.844 212.816 87.484 211.552C88.132 210.288 88.992 209.332 90.064 208.684C91.144 208.036 92.32 207.712 93.592 207.712ZM108.693 217.888V222.64H106.809V217.888H102.153V216.196H106.809V211.408H108.693V216.196H118.809V211.408H120.693V216.196H125.409V217.888H120.693V222.64H118.809V217.888H108.693Z" fill="black"/>
<line x1="85" y1="444.75" x2="439" y2="444.75" stroke="black" stroke-width="3"/>
<path d="M96.916 407.976V419.016C96.916 419.704 96.824 420.392 96.64 421.08C96.464 421.76 96.16 422.38 95.728 422.94C95.304 423.492 94.728 423.936 94 424.272C93.272 424.608 92.364 424.776 91.276 424.776C90.468 424.776 89.672 424.648 88.888 424.392C88.112 424.136 87.396 423.764 86.74 423.276L87.664 421.896C88.384 422.344 89.04 422.648 89.632 422.808C90.224 422.96 90.764 423.036 91.252 423.036C92.404 423.036 93.288 422.668 93.904 421.932C94.528 421.196 94.84 420.184 94.84 418.896V409.68H89.944V407.976H96.916ZM112.267 419.928C112.267 420.872 112.031 421.712 111.559 422.448C111.087 423.176 110.403 423.748 109.507 424.164C108.611 424.572 107.519 424.776 106.231 424.776C105.023 424.776 103.927 424.592 102.943 424.224C101.967 423.856 101.131 423.336 100.435 422.664L101.671 421.272C102.247 421.808 102.907 422.236 103.651 422.556C104.395 422.868 105.267 423.024 106.267 423.024C106.939 423.024 107.567 422.916 108.151 422.7C108.735 422.476 109.207 422.14 109.567 421.692C109.927 421.236 110.107 420.66 110.107 419.964C110.107 419.428 110.003 418.972 109.795 418.596C109.587 418.22 109.219 417.888 108.691 417.6C108.163 417.304 107.427 417.016 106.483 416.736C105.395 416.416 104.451 416.056 103.651 415.656C102.859 415.248 102.243 414.748 101.803 414.156C101.371 413.564 101.155 412.832 101.155 411.96C101.155 411.136 101.383 410.404 101.839 409.764C102.295 409.124 102.923 408.624 103.723 408.264C104.531 407.896 105.459 407.712 106.507 407.712C107.651 407.712 108.643 407.876 109.483 408.204C110.331 408.524 111.099 408.988 111.787 409.596L110.563 410.952C109.971 410.424 109.335 410.044 108.655 409.812C107.975 409.572 107.283 409.452 106.579 409.452C105.979 409.452 105.427 409.544 104.923 409.728C104.427 409.904 104.027 410.172 103.723 410.532C103.427 410.884 103.279 411.336 103.279 411.888C103.279 412.36 103.407 412.768 103.663 413.112C103.919 413.456 104.351 413.772 104.959 414.06C105.567 414.34 106.395 414.636 107.443 414.948C108.299 415.196 109.091 415.508 109.819 415.884C110.555 416.252 111.147 416.756 111.595 417.396C112.043 418.028 112.267 418.872 112.267 419.928Z" fill="black"/>
<line x1="85" y1="344.75" x2="439" y2="344.75" stroke="black" stroke-width="3"/>
<path d="M93.592 307.712C94.672 307.712 95.576 307.848 96.304 308.12C97.032 308.392 97.724 308.792 98.38 309.32L97.216 310.676C96.696 310.236 96.144 309.924 95.56 309.74C94.984 309.548 94.38 309.452 93.748 309.452C92.844 309.452 92.008 309.668 91.24 310.1C90.472 310.524 89.852 311.232 89.38 312.224C88.916 313.208 88.684 314.544 88.684 316.232C88.684 317.872 88.904 319.188 89.344 320.18C89.792 321.172 90.396 321.888 91.156 322.328C91.916 322.768 92.764 322.988 93.7 322.988C94.628 322.988 95.388 322.848 95.98 322.568C96.58 322.288 97.1 321.968 97.54 321.608L98.62 322.976C98.116 323.464 97.46 323.888 96.652 324.248C95.844 324.6 94.852 324.776 93.676 324.776C92.34 324.776 91.128 324.448 90.04 323.792C88.96 323.136 88.104 322.176 87.472 320.912C86.84 319.64 86.524 318.08 86.524 316.232C86.524 314.376 86.844 312.816 87.484 311.552C88.132 310.288 88.992 309.332 90.064 308.684C91.144 308.036 92.32 307.712 93.592 307.712Z" fill="black"/>
<line x1="85" y1="544.75" x2="439" y2="544.75" stroke="black" stroke-width="3"/>
<path d="M95.32 524.5V516.664H89.08V524.5H87.004V507.976H89.08V514.96H95.32V507.976H97.396V524.5H95.32ZM107.587 509.764V524.5H105.511V509.764H100.351V507.976H112.819L112.603 509.764H107.587ZM126.513 507.976L127.449 524.5H125.445L124.929 515.872C124.905 515.288 124.881 514.696 124.857 514.096C124.833 513.496 124.817 512.92 124.809 512.368C124.801 511.816 124.797 511.324 124.797 510.892C124.797 510.46 124.797 510.124 124.797 509.884L122.013 521.536H119.925L116.937 509.884C116.945 510.116 116.953 510.46 116.961 510.916C116.969 511.364 116.973 511.872 116.973 512.44C116.981 513.008 116.977 513.592 116.961 514.192C116.953 514.784 116.937 515.336 116.913 515.848L116.469 524.5H114.513L115.449 507.976H118.353L121.029 519.292L123.585 507.976H126.513ZM131.424 524.5V507.976H133.512V522.64H141.048L140.808 524.5H131.424Z" fill="black"/>
<line x1="85" y1="633.5" x2="439" y2="633.5" stroke="black" stroke-width="3"/>
<path d="M93.592 596.462C94.672 596.462 95.576 596.598 96.304 596.87C97.032 597.142 97.724 597.542 98.38 598.07L97.216 599.426C96.696 598.986 96.144 598.674 95.56 598.49C94.984 598.298 94.38 598.202 93.748 598.202C92.844 598.202 92.008 598.418 91.24 598.85C90.472 599.274 89.852 599.982 89.38 600.974C88.916 601.958 88.684 603.294 88.684 604.982C88.684 606.622 88.904 607.938 89.344 608.93C89.792 609.922 90.396 610.638 91.156 611.078C91.916 611.518 92.764 611.738 93.7 611.738C94.628 611.738 95.388 611.598 95.98 611.318C96.58 611.038 97.1 610.718 97.54 610.358L98.62 611.726C98.116 612.214 97.46 612.638 96.652 612.998C95.844 613.35 94.852 613.526 93.676 613.526C92.34 613.526 91.128 613.198 90.04 612.542C88.96 611.886 88.104 610.926 87.472 609.662C86.84 608.39 86.524 606.83 86.524 604.982C86.524 603.126 86.844 601.566 87.484 600.302C88.132 599.038 88.992 598.082 90.064 597.434C91.144 596.786 92.32 596.462 93.592 596.462ZM112.267 608.678C112.267 609.622 112.031 610.462 111.559 611.198C111.087 611.926 110.403 612.498 109.507 612.914C108.611 613.322 107.519 613.526 106.231 613.526C105.023 613.526 103.927 613.342 102.943 612.974C101.967 612.606 101.131 612.086 100.435 611.414L101.671 610.022C102.247 610.558 102.907 610.986 103.651 611.306C104.395 611.618 105.267 611.774 106.267 611.774C106.939 611.774 107.567 611.666 108.151 611.45C108.735 611.226 109.207 610.89 109.567 610.442C109.927 609.986 110.107 609.41 110.107 608.714C110.107 608.178 110.003 607.722 109.795 607.346C109.587 606.97 109.219 606.638 108.691 606.35C108.163 606.054 107.427 605.766 106.483 605.486C105.395 605.166 104.451 604.806 103.651 604.406C102.859 603.998 102.243 603.498 101.803 602.906C101.371 602.314 101.155 601.582 101.155 600.71C101.155 599.886 101.383 599.154 101.839 598.514C102.295 597.874 102.923 597.374 103.723 597.014C104.531 596.646 105.459 596.462 106.507 596.462C107.651 596.462 108.643 596.626 109.483 596.954C110.331 597.274 111.099 597.738 111.787 598.346L110.563 599.702C109.971 599.174 109.335 598.794 108.655 598.562C107.975 598.322 107.283 598.202 106.579 598.202C105.979 598.202 105.427 598.294 104.923 598.478C104.427 598.654 104.027 598.922 103.723 599.282C103.427 599.634 103.279 600.086 103.279 600.638C103.279 601.11 103.407 601.518 103.663 601.862C103.919 602.206 104.351 602.522 104.959 602.81C105.567 603.09 106.395 603.386 107.443 603.698C108.299 603.946 109.091 604.258 109.819 604.634C110.555 605.002 111.147 605.506 111.595 606.146C112.043 606.778 112.267 607.622 112.267 608.678ZM126.657 608.678C126.657 609.622 126.421 610.462 125.949 611.198C125.477 611.926 124.793 612.498 123.897 612.914C123.001 613.322 121.909 613.526 120.621 613.526C119.413 613.526 118.317 613.342 117.333 612.974C116.357 612.606 115.521 612.086 114.825 611.414L116.061 610.022C116.637 610.558 117.297 610.986 118.041 611.306C118.785 611.618 119.657 611.774 120.657 611.774C121.329 611.774 121.957 611.666 122.541 611.45C123.125 611.226 123.597 610.89 123.957 610.442C124.317 609.986 124.497 609.41 124.497 608.714C124.497 608.178 124.393 607.722 124.185 607.346C123.977 606.97 123.609 606.638 123.081 606.35C122.553 606.054 121.817 605.766 120.873 605.486C119.785 605.166 118.841 604.806 118.041 604.406C117.249 603.998 116.633 603.498 116.193 602.906C115.761 602.314 115.545 601.582 115.545 600.71C115.545 599.886 115.773 599.154 116.229 598.514C116.685 597.874 117.313 597.374 118.113 597.014C118.921 596.646 119.849 596.462 120.897 596.462C122.041 596.462 123.033 596.626 123.873 596.954C124.721 597.274 125.489 597.738 126.177 598.346L124.953 599.702C124.361 599.174 123.725 598.794 123.045 598.562C122.365 598.322 121.673 598.202 120.969 598.202C120.369 598.202 119.817 598.294 119.313 598.478C118.817 598.654 118.417 598.922 118.113 599.282C117.817 599.634 117.669 600.086 117.669 600.638C117.669 601.11 117.797 601.518 118.053 601.862C118.309 602.206 118.741 602.522 119.349 602.81C119.957 603.09 120.785 603.386 121.833 603.698C122.689 603.946 123.481 604.258 124.209 604.634C124.945 605.002 125.537 605.506 125.985 606.146C126.433 606.778 126.657 607.622 126.657 608.678Z" fill="black"/>
<line x1="85" y1="833.5" x2="439" y2="833.5" stroke="black" stroke-width="3"/>
<path d="M88.252 813.25V796.726H90.34V811.39H97.876L97.636 813.25H88.252ZM103.387 807.646C103.427 808.622 103.615 809.422 103.951 810.046C104.287 810.662 104.731 811.118 105.283 811.414C105.835 811.702 106.435 811.846 107.083 811.846C107.731 811.846 108.315 811.75 108.835 811.558C109.363 811.366 109.903 811.082 110.455 810.706L111.403 812.038C110.811 812.502 110.135 812.866 109.375 813.13C108.623 813.394 107.851 813.526 107.059 813.526C105.835 813.526 104.791 813.25 103.927 812.698C103.063 812.146 102.403 811.378 101.947 810.394C101.499 809.402 101.275 808.254 101.275 806.95C101.275 805.67 101.503 804.534 101.959 803.542C102.415 802.55 103.055 801.77 103.879 801.202C104.703 800.634 105.675 800.35 106.795 800.35C107.859 800.35 108.775 800.602 109.543 801.106C110.311 801.602 110.899 802.314 111.307 803.242C111.723 804.162 111.931 805.262 111.931 806.542C111.931 806.758 111.927 806.962 111.919 807.154C111.911 807.338 111.899 807.502 111.883 807.646H103.387ZM106.819 802.006C105.883 802.006 105.099 802.338 104.467 803.002C103.843 803.666 103.487 804.694 103.399 806.086H109.987C109.963 804.734 109.667 803.718 109.099 803.038C108.531 802.35 107.771 802.006 106.819 802.006ZM136.236 800.35C137.356 800.35 138.248 800.622 138.912 801.166C139.584 801.71 140.068 802.478 140.364 803.47C140.66 804.454 140.808 805.606 140.808 806.926C140.808 808.198 140.628 809.334 140.268 810.334C139.916 811.326 139.38 812.106 138.66 812.674C137.94 813.242 137.032 813.526 135.936 813.526C134.552 813.526 133.44 813.038 132.6 812.062V818.086L130.584 818.338V800.614H132.3L132.468 802.378C132.932 801.73 133.484 801.23 134.124 800.878C134.772 800.526 135.476 800.35 136.236 800.35ZM135.756 801.97C135.06 801.97 134.444 802.182 133.908 802.606C133.38 803.022 132.944 803.486 132.6 803.998V810.262C132.928 810.75 133.34 811.138 133.836 811.426C134.34 811.706 134.892 811.846 135.492 811.846C136.54 811.846 137.328 811.446 137.856 810.646C138.384 809.846 138.648 808.602 138.648 806.914C138.648 805.81 138.544 804.894 138.336 804.166C138.128 803.43 137.812 802.882 137.388 802.522C136.964 802.154 136.42 801.97 135.756 801.97ZM149.895 795.526V810.13C149.895 810.754 150.087 811.198 150.471 811.462C150.863 811.718 151.367 811.846 151.983 811.846C152.367 811.846 152.731 811.806 153.075 811.726C153.419 811.646 153.763 811.538 154.107 811.402L154.647 812.878C154.303 813.046 153.875 813.194 153.363 813.322C152.859 813.458 152.287 813.526 151.647 813.526C150.527 813.526 149.619 813.218 148.923 812.602C148.227 811.978 147.879 811.118 147.879 810.022V797.122H144.003V795.526H149.895ZM161.381 800.614V809.566C161.381 810.398 161.553 810.998 161.897 811.366C162.241 811.734 162.777 811.918 163.505 811.918C164.201 811.918 164.857 811.722 165.473 811.33C166.097 810.93 166.581 810.458 166.925 809.914V800.614H168.941V813.25H167.225L167.057 811.546C166.561 812.186 165.949 812.678 165.221 813.022C164.493 813.358 163.757 813.526 163.013 813.526C161.789 813.526 160.873 813.202 160.265 812.554C159.665 811.898 159.365 810.982 159.365 809.806V800.614H161.381ZM178.052 811.858C179.02 811.858 179.784 811.678 180.344 811.318C180.912 810.95 181.196 810.462 181.196 809.854C181.196 809.47 181.124 809.138 180.98 808.858C180.844 808.578 180.56 808.326 180.128 808.102C179.696 807.878 179.032 807.654 178.136 807.43C177.264 807.214 176.504 806.966 175.856 806.686C175.216 806.398 174.716 806.026 174.356 805.57C174.004 805.114 173.828 804.522 173.828 803.794C173.828 803.082 174.028 802.47 174.428 801.958C174.836 801.438 175.4 801.042 176.12 800.77C176.84 800.49 177.676 800.35 178.628 800.35C179.644 800.35 180.528 800.486 181.28 800.758C182.04 801.022 182.684 801.35 183.212 801.742L182.324 803.11C181.844 802.782 181.316 802.514 180.74 802.306C180.164 802.09 179.468 801.982 178.652 801.982C177.66 801.982 176.956 802.138 176.54 802.45C176.124 802.754 175.916 803.15 175.916 803.638C175.916 804.006 176.016 804.314 176.216 804.562C176.424 804.802 176.772 805.022 177.26 805.222C177.748 805.414 178.42 805.626 179.276 805.858C180.1 806.074 180.816 806.334 181.424 806.638C182.04 806.942 182.52 807.342 182.864 807.838C183.208 808.334 183.38 808.974 183.38 809.758C183.38 810.654 183.124 811.382 182.612 811.942C182.1 812.494 181.436 812.898 180.62 813.154C179.812 813.402 178.956 813.526 178.052 813.526C176.908 813.526 175.932 813.362 175.124 813.034C174.324 812.698 173.652 812.294 173.108 811.822L174.26 810.49C174.756 810.898 175.324 811.23 175.964 811.486C176.612 811.734 177.308 811.858 178.052 811.858ZM204.553 802.258C205.017 801.65 205.549 801.182 206.149 800.854C206.757 800.518 207.425 800.35 208.153 800.35C209.281 800.35 210.193 800.622 210.889 801.166C211.585 801.71 212.093 802.478 212.413 803.47C212.733 804.454 212.893 805.606 212.893 806.926C212.893 808.198 212.701 809.334 212.317 810.334C211.933 811.326 211.369 812.106 210.625 812.674C209.889 813.242 208.977 813.526 207.889 813.526C206.425 813.526 205.277 812.998 204.445 811.942L204.301 813.25H202.537V795.526L204.553 795.274V802.258ZM207.409 811.894C208.465 811.894 209.277 811.486 209.845 810.67C210.413 809.854 210.697 808.602 210.697 806.914C210.697 805.81 210.585 804.894 210.361 804.166C210.137 803.43 209.801 802.882 209.353 802.522C208.913 802.154 208.369 801.97 207.721 801.97C207.017 801.97 206.397 802.182 205.861 802.606C205.333 803.022 204.897 803.486 204.553 803.998V810.262C204.881 810.758 205.293 811.154 205.789 811.45C206.293 811.746 206.833 811.894 207.409 811.894ZM218.512 807.646C218.552 808.622 218.74 809.422 219.076 810.046C219.412 810.662 219.856 811.118 220.408 811.414C220.96 811.702 221.56 811.846 222.208 811.846C222.856 811.846 223.44 811.75 223.96 811.558C224.488 811.366 225.028 811.082 225.58 810.706L226.528 812.038C225.936 812.502 225.26 812.866 224.5 813.13C223.748 813.394 222.976 813.526 222.184 813.526C220.96 813.526 219.916 813.25 219.052 812.698C218.188 812.146 217.528 811.378 217.072 810.394C216.624 809.402 216.4 808.254 216.4 806.95C216.4 805.67 216.628 804.534 217.084 803.542C217.54 802.55 218.18 801.77 219.004 801.202C219.828 800.634 220.8 800.35 221.92 800.35C222.984 800.35 223.9 800.602 224.668 801.106C225.436 801.602 226.024 802.314 226.432 803.242C226.848 804.162 227.056 805.262 227.056 806.542C227.056 806.758 227.052 806.962 227.044 807.154C227.036 807.338 227.024 807.502 227.008 807.646H218.512ZM221.944 802.006C221.008 802.006 220.224 802.338 219.592 803.002C218.968 803.666 218.612 804.694 218.524 806.086H225.112C225.088 804.734 224.792 803.718 224.224 803.038C223.656 802.35 222.896 802.006 221.944 802.006ZM240.366 810.49C240.366 810.994 240.45 811.362 240.618 811.594C240.786 811.826 241.046 811.998 241.398 812.11L240.906 813.526C240.362 813.454 239.886 813.282 239.478 813.01C239.07 812.73 238.774 812.31 238.59 811.75C238.134 812.334 237.566 812.778 236.886 813.082C236.206 813.378 235.454 813.526 234.63 813.526C233.366 813.526 232.37 813.17 231.642 812.458C230.914 811.746 230.55 810.802 230.55 809.626C230.55 808.322 231.058 807.322 232.074 806.626C233.09 805.93 234.558 805.582 236.478 805.582H238.338V804.526C238.338 803.614 238.07 802.97 237.534 802.594C237.006 802.21 236.27 802.018 235.326 802.018C234.91 802.018 234.422 802.07 233.862 802.174C233.302 802.27 232.694 802.434 232.038 802.666L231.51 801.142C232.286 800.854 233.014 800.65 233.694 800.53C234.374 800.41 235.022 800.35 235.638 800.35C237.214 800.35 238.394 800.718 239.178 801.454C239.97 802.182 240.366 803.174 240.366 804.43V810.49ZM235.146 811.99C235.77 811.99 236.366 811.834 236.934 811.522C237.502 811.202 237.97 810.762 238.338 810.202V806.95H236.514C235.122 806.95 234.138 807.19 233.562 807.67C232.994 808.15 232.71 808.794 232.71 809.602C232.71 810.386 232.91 810.982 233.31 811.39C233.718 811.79 234.33 811.99 235.146 811.99ZM247.725 800.614V809.566C247.725 810.398 247.897 810.998 248.241 811.366C248.585 811.734 249.121 811.918 249.849 811.918C250.545 811.918 251.201 811.722 251.817 811.33C252.441 810.93 252.925 810.458 253.269 809.914V800.614H255.285V813.25H253.569L253.401 811.546C252.905 812.186 252.293 812.678 251.565 813.022C250.837 813.358 250.101 813.526 249.357 813.526C248.133 813.526 247.217 813.202 246.609 812.554C246.009 811.898 245.709 810.982 245.709 809.806V800.614H247.725Z" fill="black"/>
<line x1="85" y1="733.5" x2="439" y2="733.5" stroke="black" stroke-width="3"/>
<path d="M96.136 701.826C96.136 700.97 95.968 700.294 95.632 699.798C95.296 699.294 94.836 698.934 94.252 698.718C93.668 698.494 93 698.382 92.248 698.382H89.86V705.438H92.164C92.94 705.438 93.624 705.334 94.216 705.126C94.808 704.91 95.276 704.542 95.62 704.022C95.964 703.494 96.136 702.762 96.136 701.826ZM98.368 701.802C98.368 703.09 98.092 704.122 97.54 704.898C96.996 705.674 96.244 706.238 95.284 706.59C94.324 706.942 93.22 707.118 91.972 707.118H89.86V713.25H87.772V696.726H91.996C93.964 696.726 95.516 697.142 96.652 697.974C97.796 698.798 98.368 700.074 98.368 701.802ZM112.315 700.614L107.875 713.334C107.579 714.19 107.203 714.974 106.747 715.686C106.299 716.398 105.711 716.986 104.983 717.45C104.263 717.922 103.347 718.214 102.235 718.326L101.923 716.718C102.795 716.574 103.483 716.354 103.987 716.058C104.491 715.762 104.887 715.382 105.175 714.918C105.471 714.454 105.731 713.898 105.955 713.25H105.283L100.867 700.614H103.027L106.651 711.714L110.227 700.614H112.315ZM126.225 712.614C125.793 712.902 125.269 713.126 124.653 713.286C124.037 713.446 123.433 713.526 122.841 713.526C121.481 713.526 120.433 713.17 119.697 712.458C118.961 711.746 118.593 710.83 118.593 709.71V702.174H115.689V700.614H118.593V697.746L120.609 697.506V700.614H124.977L124.737 702.174H120.609V709.686C120.609 710.39 120.793 710.926 121.161 711.294C121.537 711.662 122.157 711.846 123.021 711.846C123.493 711.846 123.929 711.79 124.329 711.678C124.729 711.566 125.101 711.422 125.445 711.246L126.225 712.614ZM132.6 695.334V702.342C133.096 701.678 133.704 701.182 134.424 700.854C135.152 700.518 135.888 700.35 136.632 700.35C137.864 700.35 138.764 700.678 139.332 701.334C139.9 701.99 140.184 702.902 140.184 704.07V713.25H138.168V704.118C138.168 703.358 137.992 702.806 137.64 702.462C137.288 702.11 136.736 701.934 135.984 701.934C135.504 701.934 135.048 702.042 134.616 702.258C134.184 702.474 133.796 702.742 133.452 703.062C133.108 703.382 132.824 703.71 132.6 704.046V713.25H130.584V695.55L132.6 695.334ZM149.787 700.35C150.979 700.35 151.975 700.622 152.775 701.166C153.583 701.702 154.187 702.462 154.587 703.446C154.995 704.43 155.199 705.59 155.199 706.926C155.199 708.214 154.991 709.354 154.575 710.346C154.159 711.338 153.547 712.118 152.739 712.686C151.939 713.246 150.947 713.526 149.763 713.526C148.579 713.526 147.583 713.254 146.775 712.71C145.967 712.166 145.355 711.402 144.939 710.418C144.531 709.426 144.326 708.27 144.326 706.95C144.326 705.646 144.535 704.498 144.951 703.506C145.367 702.514 145.979 701.742 146.787 701.19C147.603 700.63 148.603 700.35 149.787 700.35ZM149.787 701.994C148.699 701.994 147.875 702.398 147.315 703.206C146.763 704.006 146.487 705.254 146.487 706.95C146.487 708.614 146.759 709.85 147.303 710.658C147.855 711.466 148.675 711.87 149.763 711.87C150.851 711.87 151.667 711.466 152.211 710.658C152.763 709.85 153.039 708.606 153.039 706.926C153.039 705.246 152.767 704.006 152.223 703.206C151.679 702.398 150.867 701.994 149.787 701.994ZM159.365 713.25V700.614H161.081L161.237 702.366C161.749 701.718 162.389 701.222 163.157 700.878C163.933 700.526 164.685 700.35 165.413 700.35C166.653 700.35 167.553 700.678 168.113 701.334C168.681 701.99 168.965 702.902 168.965 704.07V713.25H166.949V705.558C166.949 704.694 166.901 703.998 166.805 703.47C166.709 702.934 166.509 702.546 166.205 702.306C165.901 702.058 165.429 701.934 164.789 701.934C164.293 701.934 163.825 702.042 163.385 702.258C162.953 702.474 162.565 702.746 162.221 703.074C161.885 703.394 161.605 703.718 161.381 704.046V713.25H159.365Z" fill="black"/>
<line x1="85" y1="933.5" x2="439" y2="933.5" stroke="black" stroke-width="3"/>
<path d="M88.252 913.25V896.726H90.34V911.39H97.876L97.636 913.25H88.252ZM103.387 907.646C103.427 908.622 103.615 909.422 103.951 910.046C104.287 910.662 104.731 911.118 105.283 911.414C105.835 911.702 106.435 911.846 107.083 911.846C107.731 911.846 108.315 911.75 108.835 911.558C109.363 911.366 109.903 911.082 110.455 910.706L111.403 912.038C110.811 912.502 110.135 912.866 109.375 913.13C108.623 913.394 107.851 913.526 107.059 913.526C105.835 913.526 104.791 913.25 103.927 912.698C103.063 912.146 102.403 911.378 101.947 910.394C101.499 909.402 101.275 908.254 101.275 906.95C101.275 905.67 101.503 904.534 101.959 903.542C102.415 902.55 103.055 901.77 103.879 901.202C104.703 900.634 105.675 900.35 106.795 900.35C107.859 900.35 108.775 900.602 109.543 901.106C110.311 901.602 110.899 902.314 111.307 903.242C111.723 904.162 111.931 905.262 111.931 906.542C111.931 906.758 111.927 906.962 111.919 907.154C111.911 907.338 111.899 907.502 111.883 907.646H103.387ZM106.819 902.006C105.883 902.006 105.099 902.338 104.467 903.002C103.843 903.666 103.487 904.694 103.399 906.086H109.987C109.963 904.734 109.667 903.718 109.099 903.038C108.531 902.35 107.771 902.006 106.819 902.006ZM136.236 900.35C137.356 900.35 138.248 900.622 138.912 901.166C139.584 901.71 140.068 902.478 140.364 903.47C140.66 904.454 140.808 905.606 140.808 906.926C140.808 908.198 140.628 909.334 140.268 910.334C139.916 911.326 139.38 912.106 138.66 912.674C137.94 913.242 137.032 913.526 135.936 913.526C134.552 913.526 133.44 913.038 132.6 912.062V918.086L130.584 918.338V900.614H132.3L132.468 902.378C132.932 901.73 133.484 901.23 134.124 900.878C134.772 900.526 135.476 900.35 136.236 900.35ZM135.756 901.97C135.06 901.97 134.444 902.182 133.908 902.606C133.38 903.022 132.944 903.486 132.6 903.998V910.262C132.928 910.75 133.34 911.138 133.836 911.426C134.34 911.706 134.892 911.846 135.492 911.846C136.54 911.846 137.328 911.446 137.856 910.646C138.384 909.846 138.648 908.602 138.648 906.914C138.648 905.81 138.544 904.894 138.336 904.166C138.128 903.43 137.812 902.882 137.388 902.522C136.964 902.154 136.42 901.97 135.756 901.97ZM149.895 895.526V910.13C149.895 910.754 150.087 911.198 150.471 911.462C150.863 911.718 151.367 911.846 151.983 911.846C152.367 911.846 152.731 911.806 153.075 911.726C153.419 911.646 153.763 911.538 154.107 911.402L154.647 912.878C154.303 913.046 153.875 913.194 153.363 913.322C152.859 913.458 152.287 913.526 151.647 913.526C150.527 913.526 149.619 913.218 148.923 912.602C148.227 911.978 147.879 911.118 147.879 910.022V897.122H144.003V895.526H149.895ZM161.381 900.614V909.566C161.381 910.398 161.553 910.998 161.897 911.366C162.241 911.734 162.777 911.918 163.505 911.918C164.201 911.918 164.857 911.722 165.473 911.33C166.097 910.93 166.581 910.458 166.925 909.914V900.614H168.941V913.25H167.225L167.057 911.546C166.561 912.186 165.949 912.678 165.221 913.022C164.493 913.358 163.757 913.526 163.013 913.526C161.789 913.526 160.873 913.202 160.265 912.554C159.665 911.898 159.365 910.982 159.365 909.806V900.614H161.381ZM178.052 911.858C179.02 911.858 179.784 911.678 180.344 911.318C180.912 910.95 181.196 910.462 181.196 909.854C181.196 909.47 181.124 909.138 180.98 908.858C180.844 908.578 180.56 908.326 180.128 908.102C179.696 907.878 179.032 907.654 178.136 907.43C177.264 907.214 176.504 906.966 175.856 906.686C175.216 906.398 174.716 906.026 174.356 905.57C174.004 905.114 173.828 904.522 173.828 903.794C173.828 903.082 174.028 902.47 174.428 901.958C174.836 901.438 175.4 901.042 176.12 900.77C176.84 900.49 177.676 900.35 178.628 900.35C179.644 900.35 180.528 900.486 181.28 900.758C182.04 901.022 182.684 901.35 183.212 901.742L182.324 903.11C181.844 902.782 181.316 902.514 180.74 902.306C180.164 902.09 179.468 901.982 178.652 901.982C177.66 901.982 176.956 902.138 176.54 902.45C176.124 902.754 175.916 903.15 175.916 903.638C175.916 904.006 176.016 904.314 176.216 904.562C176.424 904.802 176.772 905.022 177.26 905.222C177.748 905.414 178.42 905.626 179.276 905.858C180.1 906.074 180.816 906.334 181.424 906.638C182.04 906.942 182.52 907.342 182.864 907.838C183.208 908.334 183.38 908.974 183.38 909.758C183.38 910.654 183.124 911.382 182.612 911.942C182.1 912.494 181.436 912.898 180.62 913.154C179.812 913.402 178.956 913.526 178.052 913.526C176.908 913.526 175.932 913.362 175.124 913.034C174.324 912.698 173.652 912.294 173.108 911.822L174.26 910.49C174.756 910.898 175.324 911.23 175.964 911.486C176.612 911.734 177.308 911.858 178.052 911.858ZM210.001 895.274C210.681 895.274 211.297 895.334 211.849 895.454C212.401 895.574 212.925 895.742 213.421 895.958L212.773 897.458C212.365 897.282 211.933 897.15 211.477 897.062C211.021 896.974 210.549 896.93 210.061 896.93C209.181 896.93 208.517 897.102 208.069 897.446C207.629 897.79 207.409 898.318 207.409 899.03V901.598H211.693L211.477 903.182H207.409V913.25H205.393V903.182H202.381V901.598H205.393V899.078C205.393 898.294 205.593 897.618 205.993 897.05C206.401 896.482 206.953 896.046 207.649 895.742C208.345 895.43 209.129 895.274 210.001 895.274ZM221.74 900.35C222.932 900.35 223.928 900.622 224.728 901.166C225.536 901.702 226.14 902.462 226.54 903.446C226.948 904.43 227.152 905.59 227.152 906.926C227.152 908.214 226.944 909.354 226.528 910.346C226.112 911.338 225.5 912.118 224.692 912.686C223.892 913.246 222.9 913.526 221.716 913.526C220.532 913.526 219.536 913.254 218.728 912.71C217.92 912.166 217.308 911.402 216.892 910.418C216.484 909.426 216.28 908.27 216.28 906.95C216.28 905.646 216.488 904.498 216.904 903.506C217.32 902.514 217.932 901.742 218.74 901.19C219.556 900.63 220.556 900.35 221.74 900.35ZM221.74 901.994C220.652 901.994 219.828 902.398 219.268 903.206C218.716 904.006 218.44 905.254 218.44 906.95C218.44 908.614 218.712 909.85 219.256 910.658C219.808 911.466 220.628 911.87 221.716 911.87C222.804 911.87 223.62 911.466 224.164 910.658C224.716 909.85 224.992 908.606 224.992 906.926C224.992 905.246 224.72 904.006 224.176 903.206C223.632 902.398 222.82 901.994 221.74 901.994ZM231.438 913.25V911.702H233.406V902.162H231.438V900.614H234.942L235.314 903.602C235.802 902.562 236.394 901.758 237.09 901.19C237.786 900.622 238.706 900.338 239.85 900.338C240.202 900.338 240.514 900.366 240.786 900.422C241.066 900.47 241.35 900.534 241.638 900.614L241.05 902.414C240.786 902.342 240.546 902.29 240.33 902.258C240.114 902.218 239.866 902.198 239.586 902.198C238.618 902.198 237.786 902.542 237.09 903.23C236.394 903.918 235.838 904.958 235.422 906.35V911.702H237.99V913.25H231.438ZM239.694 904.886V902.138L239.898 900.614H241.638L241.35 904.886H239.694ZM255.741 912.614C255.309 912.902 254.785 913.126 254.169 913.286C253.553 913.446 252.949 913.526 252.357 913.526C250.997 913.526 249.949 913.17 249.213 912.458C248.477 911.746 248.109 910.83 248.109 909.71V902.174H245.205V900.614H248.109V897.746L250.125 897.506V900.614H254.493L254.253 902.174H250.125V909.686C250.125 910.39 250.309 910.926 250.677 911.294C251.053 911.662 251.673 911.846 252.537 911.846C253.009 911.846 253.445 911.79 253.845 911.678C254.245 911.566 254.617 911.422 254.961 911.246L255.741 912.614Z" fill="black"/>
<path d="M31.668 113.75V83.758H38.752L41.696 94.384L42.708 98.524H42.892L43.904 94.384L46.848 83.758H53.932V113.75H48.228V104.458C48.228 103.63 48.2587 102.603 48.32 101.376C48.3813 100.119 48.458 98.8153 48.55 97.466C48.642 96.1167 48.734 94.8287 48.826 93.602C48.9487 92.3753 49.0407 91.3633 49.102 90.566H48.964L46.664 98.57L44.364 105.792H41.052L38.706 98.57L36.544 90.566H36.406C36.4673 91.3633 36.544 92.3753 36.636 93.602C36.7587 94.8287 36.866 96.1167 36.958 97.466C37.05 98.8153 37.1267 100.119 37.188 101.376C37.2493 102.603 37.28 103.63 37.28 104.458V113.75H31.668ZM71.762 114.302C69.4007 114.302 67.254 113.842 65.322 112.922C63.4207 111.971 61.9027 110.607 60.768 108.828C59.664 107.019 59.112 104.857 59.112 102.342C59.112 99.858 59.6794 97.7267 60.814 95.948C61.9487 94.1387 63.4207 92.7587 65.23 91.808C67.0394 90.8573 68.956 90.382 70.98 90.382C73.3414 90.382 75.3194 90.8727 76.914 91.854C78.5087 92.8047 79.7047 94.108 80.502 95.764C81.33 97.3893 81.744 99.2447 81.744 101.33C81.744 101.943 81.698 102.541 81.606 103.124C81.5447 103.676 81.4834 104.09 81.422 104.366H64.126V99.812H76.868L75.81 101.1C75.81 99.26 75.4114 97.88 74.614 96.96C73.8474 96.0093 72.7127 95.534 71.21 95.534C70.106 95.534 69.14 95.7793 68.312 96.27C67.484 96.7607 66.84 97.512 66.38 98.524C65.92 99.536 65.69 100.809 65.69 102.342C65.69 103.906 65.966 105.194 66.518 106.206C67.07 107.187 67.8674 107.923 68.91 108.414C69.9527 108.905 71.21 109.15 72.682 109.15C73.7247 109.15 74.706 109.012 75.626 108.736C76.5767 108.46 77.558 108.061 78.57 107.54L80.824 111.634C79.5054 112.462 78.0487 113.121 76.454 113.612C74.8594 114.072 73.2954 114.302 71.762 114.302ZM97.7801 114.302C95.7561 114.302 93.7474 113.965 91.7541 113.29C89.7607 112.585 88.0434 111.757 86.6021 110.806L89.5001 106.574C90.8801 107.463 92.3367 108.138 93.8701 108.598C95.4341 109.058 97.0441 109.288 98.7001 109.288C99.9574 109.288 100.877 109.104 101.46 108.736C102.043 108.337 102.334 107.877 102.334 107.356C102.334 107.019 102.242 106.743 102.058 106.528C101.905 106.283 101.613 106.068 101.184 105.884C100.785 105.669 100.218 105.47 99.4821 105.286C98.7767 105.102 97.8567 104.887 96.7221 104.642C93.6247 103.967 91.4014 103.047 90.0521 101.882C88.7027 100.717 88.0281 99.26 88.0281 97.512C88.0281 95.3653 88.9634 93.648 90.8341 92.36C92.7047 91.0413 95.2654 90.382 98.5161 90.382C100.571 90.382 102.426 90.7193 104.082 91.394C105.769 92.038 107.21 92.7433 108.406 93.51L105.37 97.558C104.235 96.8527 103.024 96.316 101.736 95.948C100.448 95.58 99.1754 95.396 97.9181 95.396C97.2127 95.396 96.6301 95.4727 96.1701 95.626C95.7101 95.7487 95.3574 95.9633 95.1121 96.27C94.8667 96.546 94.7441 96.8527 94.7441 97.19C94.7441 97.8033 95.1427 98.2633 95.9401 98.57C96.7374 98.846 98.1021 99.1987 100.034 99.628C102.365 100.149 104.189 100.747 105.508 101.422C106.827 102.097 107.731 102.879 108.222 103.768C108.743 104.627 109.004 105.685 109.004 106.942C109.004 108.322 108.575 109.564 107.716 110.668C106.888 111.772 105.631 112.661 103.944 113.336C102.288 113.98 100.233 114.302 97.7801 114.302ZM152.944 114.302C150.92 114.302 148.911 113.965 146.918 113.29C144.925 112.585 143.207 111.757 141.766 110.806L144.664 106.574C146.044 107.463 147.501 108.138 149.034 108.598C150.598 109.058 152.208 109.288 153.864 109.288C155.121 109.288 156.041 109.104 156.624 108.736C157.207 108.337 157.498 107.877 157.498 107.356C157.498 107.019 157.406 106.743 157.222 106.528C157.069 106.283 156.777 106.068 156.348 105.884C155.949 105.669 155.382 105.47 154.646 105.286C153.941 105.102 153.021 104.887 151.886 104.642C148.789 103.967 146.565 103.047 145.216 101.882C143.867 100.717 143.192 99.26 143.192 97.512C143.192 95.3653 144.127 93.648 145.998 92.36C147.869 91.0413 150.429 90.382 153.68 90.382C155.735 90.382 157.59 90.7193 159.246 91.394C160.933 92.038 162.374 92.7433 163.57 93.51L160.534 97.558C159.399 96.8527 158.188 96.316 156.9 95.948C155.612 95.58 154.339 95.396 153.082 95.396C152.377 95.396 151.794 95.4727 151.334 95.626C150.874 95.7487 150.521 95.9633 150.276 96.27C150.031 96.546 149.908 96.8527 149.908 97.19C149.908 97.8033 150.307 98.2633 151.104 98.57C151.901 98.846 153.266 99.1987 155.198 99.628C157.529 100.149 159.353 100.747 160.672 101.422C161.991 102.097 162.895 102.879 163.386 103.768C163.907 104.627 164.168 105.685 164.168 106.942C164.168 108.322 163.739 109.564 162.88 110.668C162.052 111.772 160.795 112.661 159.108 113.336C157.452 113.98 155.397 114.302 152.944 114.302ZM170.406 113.75V81.504H177.168V100.134H177.352L185.724 90.934H193.13L177.168 108V113.75H170.406ZM186.506 113.75L179.882 103.4L183.746 99.214L193.82 113.75H186.506ZM207.28 113.75V96.224H198.08V90.934H214.042V113.75H207.28ZM210.362 87.346C209.074 87.346 208.001 86.978 207.142 86.242C206.284 85.4753 205.854 84.4787 205.854 83.252C205.854 81.9947 206.284 80.9827 207.142 80.216C208.001 79.4187 209.074 79.02 210.362 79.02C211.681 79.02 212.754 79.4187 213.582 80.216C214.441 80.9827 214.87 81.9947 214.87 83.252C214.87 84.4787 214.441 85.4753 213.582 86.242C212.754 86.978 211.681 87.346 210.362 87.346ZM240.244 114.302C237.392 114.302 235.23 113.443 233.758 111.726C232.286 110.009 231.55 107.709 231.55 104.826V86.84H224.42V81.55H238.312V105.102C238.312 106.513 238.696 107.494 239.462 108.046C240.229 108.567 241.072 108.828 241.992 108.828C242.544 108.828 243.096 108.767 243.648 108.644C244.231 108.521 244.875 108.337 245.58 108.092L247.052 113.06C245.887 113.428 244.814 113.719 243.832 113.934C242.882 114.179 241.686 114.302 240.244 114.302ZM267.826 114.302C264.974 114.302 262.812 113.443 261.34 111.726C259.868 110.009 259.132 107.709 259.132 104.826V86.84H252.002V81.55H265.894V105.102C265.894 106.513 266.278 107.494 267.044 108.046C267.811 108.567 268.654 108.828 269.574 108.828C270.126 108.828 270.678 108.767 271.23 108.644C271.813 108.521 272.457 108.337 273.162 108.092L274.634 113.06C273.469 113.428 272.396 113.719 271.414 113.934C270.464 114.179 269.268 114.302 267.826 114.302ZM290.854 114.302C288.83 114.302 286.822 113.965 284.828 113.29C282.835 112.585 281.118 111.757 279.676 110.806L282.574 106.574C283.954 107.463 285.411 108.138 286.944 108.598C288.508 109.058 290.118 109.288 291.774 109.288C293.032 109.288 293.952 109.104 294.534 108.736C295.117 108.337 295.408 107.877 295.408 107.356C295.408 107.019 295.316 106.743 295.132 106.528C294.979 106.283 294.688 106.068 294.258 105.884C293.86 105.669 293.292 105.47 292.556 105.286C291.851 105.102 290.931 104.887 289.796 104.642C286.699 103.967 284.476 103.047 283.126 101.882C281.777 100.717 281.102 99.26 281.102 97.512C281.102 95.3653 282.038 93.648 283.908 92.36C285.779 91.0413 288.34 90.382 291.59 90.382C293.645 90.382 295.5 90.7193 297.156 91.394C298.843 92.038 300.284 92.7433 301.48 93.51L298.444 97.558C297.31 96.8527 296.098 96.316 294.81 95.948C293.522 95.58 292.25 95.396 290.992 95.396C290.287 95.396 289.704 95.4727 289.244 95.626C288.784 95.7487 288.432 95.9633 288.186 96.27C287.941 96.546 287.818 96.8527 287.818 97.19C287.818 97.8033 288.217 98.2633 289.014 98.57C289.812 98.846 291.176 99.1987 293.108 99.628C295.439 100.149 297.264 100.747 298.582 101.422C299.901 102.097 300.806 102.879 301.296 103.768C301.818 104.627 302.078 105.685 302.078 106.942C302.078 108.322 301.649 109.564 300.79 110.668C299.962 111.772 298.705 112.661 297.018 113.336C295.362 113.98 293.308 114.302 290.854 114.302Z" fill="black"/>
</svg>
