<svg width="468" height="760" viewBox="0 0 468 760" fill="none" xmlns="http://www.w3.org/2000/svg">
<g filter="url(#filter0_d_2_150)">
<rect x="4" width="460" height="200" rx="6" fill="#FDFDFD"/>
<rect x="4.5" y="0.5" width="459" height="199" rx="5.5" stroke="#D9D9D9"/>
</g>
<path d="M44.184 179H41.976L41.4 171.536C41.16 168.608 41.024 166.36 40.992 164.792L37.416 177.128H35.28L31.512 164.768C31.512 166.768 31.408 169.08 31.2 171.704L30.648 179H28.488L29.856 162.464H32.928L36.408 174.488L39.72 162.464H42.816L44.184 179ZM53.0237 179.072C52.5277 180.544 51.8317 181.704 50.9357 182.552C50.0557 183.416 48.7917 183.936 47.1437 184.112L46.9037 182.384C47.7357 182.24 48.3997 182.032 48.8957 181.76C49.3917 181.488 49.7837 181.136 50.0717 180.704C50.3757 180.288 50.6557 179.72 50.9117 179H50.1677L45.9197 166.352H48.2717L51.6557 177.392L54.9677 166.352H57.2477L53.0237 179.072ZM71.9318 166.064C73.5478 166.064 74.7318 166.64 75.4838 167.792C76.2358 168.944 76.6118 170.568 76.6118 172.664C76.6118 174.648 76.1798 176.248 75.3158 177.464C74.4518 178.68 73.2278 179.288 71.6438 179.288C70.2358 179.288 69.1318 178.808 68.3318 177.848V183.848L66.1238 184.112V166.352H68.0198L68.1878 168.056C68.6518 167.416 69.2118 166.928 69.8678 166.592C70.5238 166.24 71.2118 166.064 71.9318 166.064ZM71.1158 177.488C73.1958 177.488 74.2358 175.88 74.2358 172.664C74.2358 169.432 73.2838 167.816 71.3798 167.816C70.7558 167.816 70.1878 168 69.6758 168.368C69.1638 168.736 68.7158 169.208 68.3318 169.784V175.952C68.6518 176.448 69.0518 176.832 69.5318 177.104C70.0118 177.36 70.5398 177.488 71.1158 177.488ZM85.8698 166.064C86.3178 166.064 86.7338 166.112 87.1178 166.208L86.7098 168.368C86.3258 168.272 85.9578 168.224 85.6058 168.224C84.8218 168.224 84.1898 168.512 83.7098 169.088C83.2298 169.664 82.8538 170.56 82.5818 171.776V179H80.3738V166.352H82.2698L82.4858 168.92C82.8218 167.976 83.2778 167.264 83.8538 166.784C84.4298 166.304 85.1018 166.064 85.8698 166.064ZM93.657 166.064C95.433 166.064 96.809 166.656 97.785 167.84C98.777 169.024 99.273 170.632 99.273 172.664C99.273 173.976 99.049 175.136 98.601 176.144C98.153 177.136 97.505 177.912 96.657 178.472C95.809 179.016 94.801 179.288 93.633 179.288C91.857 179.288 90.473 178.696 89.481 177.512C88.489 176.328 87.993 174.72 87.993 172.688C87.993 171.376 88.217 170.224 88.665 169.232C89.113 168.224 89.761 167.448 90.609 166.904C91.457 166.344 92.473 166.064 93.657 166.064ZM93.657 167.84C91.465 167.84 90.369 169.456 90.369 172.688C90.369 175.904 91.457 177.512 93.633 177.512C95.809 177.512 96.897 175.896 96.897 172.664C96.897 169.448 95.817 167.84 93.657 167.84ZM105.081 178.232C105.081 179.4 104.937 180.336 104.649 181.04C104.361 181.744 103.937 182.312 103.377 182.744C102.833 183.192 102.065 183.64 101.073 184.088L100.425 182.48C101.049 182.192 101.529 181.904 101.865 181.616C102.201 181.344 102.449 180.952 102.609 180.44C102.785 179.944 102.873 179.256 102.873 178.376V166.352H105.081V178.232ZM103.977 160.28C104.441 160.28 104.817 160.424 105.105 160.712C105.393 161 105.537 161.36 105.537 161.792C105.537 162.224 105.393 162.584 105.105 162.872C104.817 163.144 104.441 163.28 103.977 163.28C103.529 163.28 103.161 163.144 102.873 162.872C102.585 162.584 102.441 162.224 102.441 161.792C102.441 161.36 102.585 161 102.873 160.712C103.161 160.424 103.529 160.28 103.977 160.28ZM119.199 172.304C119.199 172.672 119.183 173.048 119.151 173.432H111.087C111.183 174.824 111.535 175.848 112.143 176.504C112.751 177.16 113.535 177.488 114.495 177.488C115.103 177.488 115.663 177.4 116.175 177.224C116.687 177.048 117.223 176.768 117.783 176.384L118.743 177.704C117.399 178.76 115.927 179.288 114.327 179.288C112.567 179.288 111.191 178.712 110.199 177.56C109.223 176.408 108.735 174.824 108.735 172.808C108.735 171.496 108.943 170.336 109.359 169.328C109.791 168.304 110.399 167.504 111.183 166.928C111.983 166.352 112.919 166.064 113.991 166.064C115.671 166.064 116.959 166.616 117.855 167.72C118.751 168.824 119.199 170.352 119.199 172.304ZM117.015 171.656C117.015 170.408 116.767 169.456 116.271 168.8C115.775 168.144 115.031 167.816 114.039 167.816C112.231 167.816 111.247 169.144 111.087 171.8H117.015V171.656ZM127.333 166.064C128.085 166.064 128.773 166.176 129.397 166.4C130.021 166.608 130.621 166.952 131.197 167.432L130.141 168.824C129.693 168.504 129.253 168.272 128.821 168.128C128.405 167.968 127.941 167.888 127.429 167.888C126.405 167.888 125.605 168.296 125.029 169.112C124.469 169.928 124.189 171.136 124.189 172.736C124.189 174.336 124.469 175.52 125.029 176.288C125.589 177.04 126.389 177.416 127.429 177.416C127.925 177.416 128.381 177.344 128.797 177.2C129.213 177.04 129.677 176.792 130.189 176.456L131.197 177.896C130.045 178.824 128.757 179.288 127.333 179.288C125.621 179.288 124.269 178.712 123.277 177.56C122.301 176.408 121.813 174.816 121.813 172.784C121.813 171.44 122.037 170.264 122.485 169.256C122.933 168.248 123.565 167.464 124.381 166.904C125.213 166.344 126.197 166.064 127.333 166.064ZM140.57 178.424C139.738 179 138.794 179.288 137.738 179.288C136.666 179.288 135.826 178.984 135.218 178.376C134.626 177.752 134.33 176.856 134.33 175.688V168.056H132.122V166.352H134.33V163.496L136.538 163.232V166.352H139.538L139.298 168.056H136.538V175.592C136.538 176.248 136.65 176.728 136.874 177.032C137.114 177.32 137.506 177.464 138.05 177.464C138.546 177.464 139.106 177.296 139.73 176.96L140.57 178.424Z" fill="#262626"/>
<g filter="url(#filter1_d_2_150)">
<rect x="4" y="234" width="460" height="200" rx="6" fill="#FDFDFD"/>
<rect x="4.5" y="234.5" width="459" height="199" rx="5.5" stroke="#D9D9D9"/>
</g>
<path d="M44.184 413H41.976L41.4 405.536C41.16 402.608 41.024 400.36 40.992 398.792L37.416 411.128H35.28L31.512 398.768C31.512 400.768 31.408 403.08 31.2 405.704L30.648 413H28.488L29.856 396.464H32.928L36.408 408.488L39.72 396.464H42.816L44.184 413ZM53.0237 413.072C52.5277 414.544 51.8317 415.704 50.9357 416.552C50.0557 417.416 48.7917 417.936 47.1437 418.112L46.9037 416.384C47.7357 416.24 48.3997 416.032 48.8957 415.76C49.3917 415.488 49.7837 415.136 50.0717 414.704C50.3757 414.288 50.6557 413.72 50.9117 413H50.1677L45.9197 400.352H48.2717L51.6557 411.392L54.9677 400.352H57.2477L53.0237 413.072ZM71.9318 400.064C73.5478 400.064 74.7318 400.64 75.4838 401.792C76.2358 402.944 76.6118 404.568 76.6118 406.664C76.6118 408.648 76.1798 410.248 75.3158 411.464C74.4518 412.68 73.2278 413.288 71.6438 413.288C70.2358 413.288 69.1318 412.808 68.3318 411.848V417.848L66.1238 418.112V400.352H68.0198L68.1878 402.056C68.6518 401.416 69.2118 400.928 69.8678 400.592C70.5238 400.24 71.2118 400.064 71.9318 400.064ZM71.1158 411.488C73.1958 411.488 74.2358 409.88 74.2358 406.664C74.2358 403.432 73.2838 401.816 71.3798 401.816C70.7558 401.816 70.1878 402 69.6758 402.368C69.1638 402.736 68.7158 403.208 68.3318 403.784V409.952C68.6518 410.448 69.0518 410.832 69.5318 411.104C70.0118 411.36 70.5398 411.488 71.1158 411.488ZM85.8698 400.064C86.3178 400.064 86.7338 400.112 87.1178 400.208L86.7098 402.368C86.3258 402.272 85.9578 402.224 85.6058 402.224C84.8218 402.224 84.1898 402.512 83.7098 403.088C83.2298 403.664 82.8538 404.56 82.5818 405.776V413H80.3738V400.352H82.2698L82.4858 402.92C82.8218 401.976 83.2778 401.264 83.8538 400.784C84.4298 400.304 85.1018 400.064 85.8698 400.064ZM93.657 400.064C95.433 400.064 96.809 400.656 97.785 401.84C98.777 403.024 99.273 404.632 99.273 406.664C99.273 407.976 99.049 409.136 98.601 410.144C98.153 411.136 97.505 411.912 96.657 412.472C95.809 413.016 94.801 413.288 93.633 413.288C91.857 413.288 90.473 412.696 89.481 411.512C88.489 410.328 87.993 408.72 87.993 406.688C87.993 405.376 88.217 404.224 88.665 403.232C89.113 402.224 89.761 401.448 90.609 400.904C91.457 400.344 92.473 400.064 93.657 400.064ZM93.657 401.84C91.465 401.84 90.369 403.456 90.369 406.688C90.369 409.904 91.457 411.512 93.633 411.512C95.809 411.512 96.897 409.896 96.897 406.664C96.897 403.448 95.817 401.84 93.657 401.84ZM105.081 412.232C105.081 413.4 104.937 414.336 104.649 415.04C104.361 415.744 103.937 416.312 103.377 416.744C102.833 417.192 102.065 417.64 101.073 418.088L100.425 416.48C101.049 416.192 101.529 415.904 101.865 415.616C102.201 415.344 102.449 414.952 102.609 414.44C102.785 413.944 102.873 413.256 102.873 412.376V400.352H105.081V412.232ZM103.977 394.28C104.441 394.28 104.817 394.424 105.105 394.712C105.393 395 105.537 395.36 105.537 395.792C105.537 396.224 105.393 396.584 105.105 396.872C104.817 397.144 104.441 397.28 103.977 397.28C103.529 397.28 103.161 397.144 102.873 396.872C102.585 396.584 102.441 396.224 102.441 395.792C102.441 395.36 102.585 395 102.873 394.712C103.161 394.424 103.529 394.28 103.977 394.28ZM119.199 406.304C119.199 406.672 119.183 407.048 119.151 407.432H111.087C111.183 408.824 111.535 409.848 112.143 410.504C112.751 411.16 113.535 411.488 114.495 411.488C115.103 411.488 115.663 411.4 116.175 411.224C116.687 411.048 117.223 410.768 117.783 410.384L118.743 411.704C117.399 412.76 115.927 413.288 114.327 413.288C112.567 413.288 111.191 412.712 110.199 411.56C109.223 410.408 108.735 408.824 108.735 406.808C108.735 405.496 108.943 404.336 109.359 403.328C109.791 402.304 110.399 401.504 111.183 400.928C111.983 400.352 112.919 400.064 113.991 400.064C115.671 400.064 116.959 400.616 117.855 401.72C118.751 402.824 119.199 404.352 119.199 406.304ZM117.015 405.656C117.015 404.408 116.767 403.456 116.271 402.8C115.775 402.144 115.031 401.816 114.039 401.816C112.231 401.816 111.247 403.144 111.087 405.8H117.015V405.656ZM127.333 400.064C128.085 400.064 128.773 400.176 129.397 400.4C130.021 400.608 130.621 400.952 131.197 401.432L130.141 402.824C129.693 402.504 129.253 402.272 128.821 402.128C128.405 401.968 127.941 401.888 127.429 401.888C126.405 401.888 125.605 402.296 125.029 403.112C124.469 403.928 124.189 405.136 124.189 406.736C124.189 408.336 124.469 409.52 125.029 410.288C125.589 411.04 126.389 411.416 127.429 411.416C127.925 411.416 128.381 411.344 128.797 411.2C129.213 411.04 129.677 410.792 130.189 410.456L131.197 411.896C130.045 412.824 128.757 413.288 127.333 413.288C125.621 413.288 124.269 412.712 123.277 411.56C122.301 410.408 121.813 408.816 121.813 406.784C121.813 405.44 122.037 404.264 122.485 403.256C122.933 402.248 123.565 401.464 124.381 400.904C125.213 400.344 126.197 400.064 127.333 400.064ZM140.57 412.424C139.738 413 138.794 413.288 137.738 413.288C136.666 413.288 135.826 412.984 135.218 412.376C134.626 411.752 134.33 410.856 134.33 409.688V402.056H132.122V400.352H134.33V397.496L136.538 397.232V400.352H139.538L139.298 402.056H136.538V409.592C136.538 410.248 136.65 410.728 136.874 411.032C137.114 411.32 137.506 411.464 138.05 411.464C138.546 411.464 139.106 411.296 139.73 410.96L140.57 412.424Z" fill="#262626"/>
<g filter="url(#filter2_d_2_150)">
<rect x="4" y="468" width="460" height="200" rx="6" fill="#FDFDFD"/>
<rect x="4.5" y="468.5" width="459" height="199" rx="5.5" stroke="#D9D9D9"/>
</g>
<path d="M44.184 647H41.976L41.4 639.536C41.16 636.608 41.024 634.36 40.992 632.792L37.416 645.128H35.28L31.512 632.768C31.512 634.768 31.408 637.08 31.2 639.704L30.648 647H28.488L29.856 630.464H32.928L36.408 642.488L39.72 630.464H42.816L44.184 647ZM53.0237 647.072C52.5277 648.544 51.8317 649.704 50.9357 650.552C50.0557 651.416 48.7917 651.936 47.1437 652.112L46.9037 650.384C47.7357 650.24 48.3997 650.032 48.8957 649.76C49.3917 649.488 49.7837 649.136 50.0717 648.704C50.3757 648.288 50.6557 647.72 50.9117 647H50.1677L45.9197 634.352H48.2717L51.6557 645.392L54.9677 634.352H57.2477L53.0237 647.072ZM71.9318 634.064C73.5478 634.064 74.7318 634.64 75.4838 635.792C76.2358 636.944 76.6118 638.568 76.6118 640.664C76.6118 642.648 76.1798 644.248 75.3158 645.464C74.4518 646.68 73.2278 647.288 71.6438 647.288C70.2358 647.288 69.1318 646.808 68.3318 645.848V651.848L66.1238 652.112V634.352H68.0198L68.1878 636.056C68.6518 635.416 69.2118 634.928 69.8678 634.592C70.5238 634.24 71.2118 634.064 71.9318 634.064ZM71.1158 645.488C73.1958 645.488 74.2358 643.88 74.2358 640.664C74.2358 637.432 73.2838 635.816 71.3798 635.816C70.7558 635.816 70.1878 636 69.6758 636.368C69.1638 636.736 68.7158 637.208 68.3318 637.784V643.952C68.6518 644.448 69.0518 644.832 69.5318 645.104C70.0118 645.36 70.5398 645.488 71.1158 645.488ZM85.8698 634.064C86.3178 634.064 86.7338 634.112 87.1178 634.208L86.7098 636.368C86.3258 636.272 85.9578 636.224 85.6058 636.224C84.8218 636.224 84.1898 636.512 83.7098 637.088C83.2298 637.664 82.8538 638.56 82.5818 639.776V647H80.3738V634.352H82.2698L82.4858 636.92C82.8218 635.976 83.2778 635.264 83.8538 634.784C84.4298 634.304 85.1018 634.064 85.8698 634.064ZM93.657 634.064C95.433 634.064 96.809 634.656 97.785 635.84C98.777 637.024 99.273 638.632 99.273 640.664C99.273 641.976 99.049 643.136 98.601 644.144C98.153 645.136 97.505 645.912 96.657 646.472C95.809 647.016 94.801 647.288 93.633 647.288C91.857 647.288 90.473 646.696 89.481 645.512C88.489 644.328 87.993 642.72 87.993 640.688C87.993 639.376 88.217 638.224 88.665 637.232C89.113 636.224 89.761 635.448 90.609 634.904C91.457 634.344 92.473 634.064 93.657 634.064ZM93.657 635.84C91.465 635.84 90.369 637.456 90.369 640.688C90.369 643.904 91.457 645.512 93.633 645.512C95.809 645.512 96.897 643.896 96.897 640.664C96.897 637.448 95.817 635.84 93.657 635.84ZM105.081 646.232C105.081 647.4 104.937 648.336 104.649 649.04C104.361 649.744 103.937 650.312 103.377 650.744C102.833 651.192 102.065 651.64 101.073 652.088L100.425 650.48C101.049 650.192 101.529 649.904 101.865 649.616C102.201 649.344 102.449 648.952 102.609 648.44C102.785 647.944 102.873 647.256 102.873 646.376V634.352H105.081V646.232ZM103.977 628.28C104.441 628.28 104.817 628.424 105.105 628.712C105.393 629 105.537 629.36 105.537 629.792C105.537 630.224 105.393 630.584 105.105 630.872C104.817 631.144 104.441 631.28 103.977 631.28C103.529 631.28 103.161 631.144 102.873 630.872C102.585 630.584 102.441 630.224 102.441 629.792C102.441 629.36 102.585 629 102.873 628.712C103.161 628.424 103.529 628.28 103.977 628.28ZM119.199 640.304C119.199 640.672 119.183 641.048 119.151 641.432H111.087C111.183 642.824 111.535 643.848 112.143 644.504C112.751 645.16 113.535 645.488 114.495 645.488C115.103 645.488 115.663 645.4 116.175 645.224C116.687 645.048 117.223 644.768 117.783 644.384L118.743 645.704C117.399 646.76 115.927 647.288 114.327 647.288C112.567 647.288 111.191 646.712 110.199 645.56C109.223 644.408 108.735 642.824 108.735 640.808C108.735 639.496 108.943 638.336 109.359 637.328C109.791 636.304 110.399 635.504 111.183 634.928C111.983 634.352 112.919 634.064 113.991 634.064C115.671 634.064 116.959 634.616 117.855 635.72C118.751 636.824 119.199 638.352 119.199 640.304ZM117.015 639.656C117.015 638.408 116.767 637.456 116.271 636.8C115.775 636.144 115.031 635.816 114.039 635.816C112.231 635.816 111.247 637.144 111.087 639.8H117.015V639.656ZM127.333 634.064C128.085 634.064 128.773 634.176 129.397 634.4C130.021 634.608 130.621 634.952 131.197 635.432L130.141 636.824C129.693 636.504 129.253 636.272 128.821 636.128C128.405 635.968 127.941 635.888 127.429 635.888C126.405 635.888 125.605 636.296 125.029 637.112C124.469 637.928 124.189 639.136 124.189 640.736C124.189 642.336 124.469 643.52 125.029 644.288C125.589 645.04 126.389 645.416 127.429 645.416C127.925 645.416 128.381 645.344 128.797 645.2C129.213 645.04 129.677 644.792 130.189 644.456L131.197 645.896C130.045 646.824 128.757 647.288 127.333 647.288C125.621 647.288 124.269 646.712 123.277 645.56C122.301 644.408 121.813 642.816 121.813 640.784C121.813 639.44 122.037 638.264 122.485 637.256C122.933 636.248 123.565 635.464 124.381 634.904C125.213 634.344 126.197 634.064 127.333 634.064ZM140.57 646.424C139.738 647 138.794 647.288 137.738 647.288C136.666 647.288 135.826 646.984 135.218 646.376C134.626 645.752 134.33 644.856 134.33 643.688V636.056H132.122V634.352H134.33V631.496L136.538 631.232V634.352H139.538L139.298 636.056H136.538V643.592C136.538 644.248 136.65 644.728 136.874 645.032C137.114 645.32 137.506 645.464 138.05 645.464C138.546 645.464 139.106 645.296 139.73 644.96L140.57 646.424Z" fill="#262626"/>
<defs>
<filter id="filter0_d_2_150" x="0" y="0" width="468" height="208" filterUnits="userSpaceOnUse" color-interpolation-filters="sRGB">
<feFlood flood-opacity="0" result="BackgroundImageFix"/>
<feColorMatrix in="SourceAlpha" type="matrix" values="0 0 0 0 0 0 0 0 0 0 0 0 0 0 0 0 0 0 127 0" result="hardAlpha"/>
<feOffset dy="4"/>
<feGaussianBlur stdDeviation="2"/>
<feComposite in2="hardAlpha" operator="out"/>
<feColorMatrix type="matrix" values="0 0 0 0 0 0 0 0 0 0 0 0 0 0 0 0 0 0 0.25 0"/>
<feBlend mode="normal" in2="BackgroundImageFix" result="effect1_dropShadow_2_150"/>
<feBlend mode="normal" in="SourceGraphic" in2="effect1_dropShadow_2_150" result="shape"/>
</filter>
<filter id="filter1_d_2_150" x="0" y="234" width="468" height="208" filterUnits="userSpaceOnUse" color-interpolation-filters="sRGB">
<feFlood flood-opacity="0" result="BackgroundImageFix"/>
<feColorMatrix in="SourceAlpha" type="matrix" values="0 0 0 0 0 0 0 0 0 0 0 0 0 0 0 0 0 0 127 0" result="hardAlpha"/>
<feOffset dy="4"/>
<feGaussianBlur stdDeviation="2"/>
<feComposite in2="hardAlpha" operator="out"/>
<feColorMatrix type="matrix" values="0 0 0 0 0 0 0 0 0 0 0 0 0 0 0 0 0 0 0.25 0"/>
<feBlend mode="normal" in2="BackgroundImageFix" result="effect1_dropShadow_2_150"/>
<feBlend mode="normal" in="SourceGraphic" in2="effect1_dropShadow_2_150" result="shape"/>
</filter>
<filter id="filter2_d_2_150" x="0" y="468" width="468" height="208" filterUnits="userSpaceOnUse" color-interpolation-filters="sRGB">
<feFlood flood-opacity="0" result="BackgroundImageFix"/>
<feColorMatrix in="SourceAlpha" type="matrix" values="0 0 0 0 0 0 0 0 0 0 0 0 0 0 0 0 0 0 127 0" result="hardAlpha"/>
<feOffset dy="4"/>
<feGaussianBlur stdDeviation="2"/>
<feComposite in2="hardAlpha" operator="out"/>
<feColorMatrix type="matrix" values="0 0 0 0 0 0 0 0 0 0 0 0 0 0 0 0 0 0 0.25 0"/>
<feBlend mode="normal" in2="BackgroundImageFix" result="effect1_dropShadow_2_150"/>
<feBlend mode="normal" in="SourceGraphic" in2="effect1_dropShadow_2_150" result="shape"/>
</filter>
</defs>
</svg>
