<svg width="130" height="40" viewBox="0 0 130 40" fill="none" xmlns="http://www.w3.org/2000/svg">
<rect x="1" y="1" width="128" height="38" rx="19" fill="#327AFF" stroke="#63CBFF" stroke-width="2"/>
<path d="M48.5469 19.9438H46.1729L46.1602 18.6362H48.1533C48.5046 18.6362 48.7923 18.5918 49.0166 18.5029C49.2409 18.4098 49.408 18.2765 49.5181 18.103C49.6323 17.9253 49.6895 17.7095 49.6895 17.4556C49.6895 17.1678 49.6344 16.9351 49.5244 16.7573C49.4186 16.5796 49.2515 16.4505 49.0229 16.3701C48.7987 16.2897 48.5088 16.2495 48.1533 16.2495H46.833V24H44.9287V14.7578H48.1533C48.6908 14.7578 49.1711 14.8086 49.5942 14.9102C50.0216 15.0117 50.3835 15.1662 50.6797 15.3735C50.9759 15.5809 51.2023 15.8433 51.3589 16.1606C51.5155 16.4738 51.5938 16.8462 51.5938 17.2778C51.5938 17.6587 51.507 18.0099 51.3335 18.3315C51.1642 18.6532 50.8955 18.9155 50.5273 19.1187C50.1634 19.3218 49.6873 19.4339 49.0991 19.4551L48.5469 19.9438ZM48.4644 24H45.6523L46.395 22.5146H48.4644C48.7987 22.5146 49.0716 22.4618 49.2832 22.356C49.4948 22.2459 49.6514 22.0978 49.7529 21.9116C49.8545 21.7254 49.9053 21.5117 49.9053 21.2705C49.9053 20.9997 49.8587 20.7648 49.7656 20.5659C49.6768 20.367 49.5329 20.2147 49.334 20.1089C49.1351 19.9989 48.8727 19.9438 48.5469 19.9438H46.7124L46.7251 18.6362H49.0103L49.4482 19.1504C50.0111 19.1419 50.4639 19.2414 50.8066 19.4487C51.1536 19.6519 51.4054 19.9163 51.562 20.2422C51.7228 20.568 51.8032 20.9172 51.8032 21.2896C51.8032 21.882 51.6742 22.3813 51.416 22.7876C51.1579 23.1896 50.7791 23.4922 50.2798 23.6953C49.7847 23.8984 49.1795 24 48.4644 24ZM52.8252 20.6357V20.5024C52.8252 19.9989 52.8971 19.5355 53.041 19.1123C53.1849 18.6849 53.3944 18.3146 53.6694 18.0015C53.9445 17.6883 54.283 17.445 54.6851 17.2715C55.0871 17.0938 55.5483 17.0049 56.0688 17.0049C56.5894 17.0049 57.0527 17.0938 57.459 17.2715C57.8652 17.445 58.2059 17.6883 58.481 18.0015C58.7603 18.3146 58.9718 18.6849 59.1157 19.1123C59.2596 19.5355 59.3315 19.9989 59.3315 20.5024V20.6357C59.3315 21.1351 59.2596 21.5985 59.1157 22.0259C58.9718 22.4491 58.7603 22.8193 58.481 23.1367C58.2059 23.4499 57.8674 23.6932 57.4653 23.8667C57.0633 24.0402 56.6021 24.127 56.0815 24.127C55.561 24.127 55.0977 24.0402 54.6914 23.8667C54.2894 23.6932 53.9487 23.4499 53.6694 23.1367C53.3944 22.8193 53.1849 22.4491 53.041 22.0259C52.8971 21.5985 52.8252 21.1351 52.8252 20.6357ZM54.6533 20.5024V20.6357C54.6533 20.9235 54.6787 21.1922 54.7295 21.4419C54.7803 21.6916 54.8607 21.9116 54.9707 22.1021C55.085 22.2882 55.2331 22.4342 55.415 22.54C55.597 22.6458 55.8192 22.6987 56.0815 22.6987C56.3354 22.6987 56.5534 22.6458 56.7354 22.54C56.9173 22.4342 57.0633 22.2882 57.1733 22.1021C57.2834 21.9116 57.3638 21.6916 57.4146 21.4419C57.4696 21.1922 57.4971 20.9235 57.4971 20.6357V20.5024C57.4971 20.2231 57.4696 19.9608 57.4146 19.7153C57.3638 19.4657 57.2812 19.2456 57.167 19.0552C57.057 18.8605 56.911 18.7082 56.729 18.5981C56.547 18.4881 56.327 18.4331 56.0688 18.4331C55.8107 18.4331 55.5907 18.4881 55.4087 18.5981C55.231 18.7082 55.085 18.8605 54.9707 19.0552C54.8607 19.2456 54.7803 19.4657 54.7295 19.7153C54.6787 19.9608 54.6533 20.2231 54.6533 20.5024ZM64.5176 22.356V17.1318H66.3457V24H64.6255L64.5176 22.356ZM64.7207 20.9468L65.2603 20.9341C65.2603 21.3911 65.2074 21.8164 65.1016 22.21C64.9958 22.5993 64.8371 22.9378 64.6255 23.2256C64.4139 23.5091 64.1473 23.7313 63.8257 23.8921C63.5041 24.0487 63.1253 24.127 62.6895 24.127C62.3551 24.127 62.0462 24.0804 61.7627 23.9873C61.4834 23.89 61.2422 23.7397 61.0391 23.5366C60.8402 23.3293 60.6836 23.0648 60.5693 22.7432C60.4593 22.4173 60.4043 22.0259 60.4043 21.5688V17.1318H62.2324V21.5815C62.2324 21.7847 62.2557 21.9561 62.3022 22.0957C62.353 22.2354 62.4229 22.3496 62.5117 22.4385C62.6006 22.5273 62.7043 22.5908 62.8228 22.6289C62.9455 22.667 63.0809 22.686 63.229 22.686C63.6056 22.686 63.9019 22.6099 64.1177 22.4575C64.3377 22.3052 64.4922 22.0978 64.5811 21.8354C64.6742 21.5688 64.7207 21.2726 64.7207 20.9468ZM71.1064 17.1318V18.4268H67.1074V17.1318H71.1064ZM68.0977 15.437H69.9258V21.9307C69.9258 22.1296 69.9512 22.2819 70.002 22.3877C70.057 22.4935 70.1374 22.5675 70.2432 22.6099C70.349 22.6479 70.4823 22.667 70.6431 22.667C70.7573 22.667 70.8589 22.6628 70.9478 22.6543C71.0409 22.6416 71.1191 22.6289 71.1826 22.6162L71.189 23.9619C71.0324 24.0127 70.8631 24.0529 70.6812 24.0825C70.4992 24.1121 70.2982 24.127 70.0781 24.127C69.6761 24.127 69.3249 24.0614 69.0244 23.9302C68.7282 23.7948 68.4997 23.5789 68.3389 23.2827C68.1781 22.9865 68.0977 22.5972 68.0977 22.1147V15.437ZM71.6904 20.6357V20.5024C71.6904 19.9989 71.7624 19.5355 71.9062 19.1123C72.0501 18.6849 72.2596 18.3146 72.5347 18.0015C72.8097 17.6883 73.1483 17.445 73.5503 17.2715C73.9523 17.0938 74.4136 17.0049 74.9341 17.0049C75.4546 17.0049 75.918 17.0938 76.3242 17.2715C76.7305 17.445 77.0711 17.6883 77.3462 18.0015C77.6255 18.3146 77.8371 18.6849 77.981 19.1123C78.1248 19.5355 78.1968 19.9989 78.1968 20.5024V20.6357C78.1968 21.1351 78.1248 21.5985 77.981 22.0259C77.8371 22.4491 77.6255 22.8193 77.3462 23.1367C77.0711 23.4499 76.7326 23.6932 76.3306 23.8667C75.9285 24.0402 75.4673 24.127 74.9468 24.127C74.4263 24.127 73.9629 24.0402 73.5566 23.8667C73.1546 23.6932 72.814 23.4499 72.5347 23.1367C72.2596 22.8193 72.0501 22.4491 71.9062 22.0259C71.7624 21.5985 71.6904 21.1351 71.6904 20.6357ZM73.5186 20.5024V20.6357C73.5186 20.9235 73.5439 21.1922 73.5947 21.4419C73.6455 21.6916 73.7259 21.9116 73.8359 22.1021C73.9502 22.2882 74.0983 22.4342 74.2803 22.54C74.4622 22.6458 74.6844 22.6987 74.9468 22.6987C75.2007 22.6987 75.4186 22.6458 75.6006 22.54C75.7826 22.4342 75.9285 22.2882 76.0386 22.1021C76.1486 21.9116 76.229 21.6916 76.2798 21.4419C76.3348 21.1922 76.3623 20.9235 76.3623 20.6357V20.5024C76.3623 20.2231 76.3348 19.9608 76.2798 19.7153C76.229 19.4657 76.1465 19.2456 76.0322 19.0552C75.9222 18.8605 75.7762 18.7082 75.5942 18.5981C75.4123 18.4881 75.1922 18.4331 74.9341 18.4331C74.6759 18.4331 74.4559 18.4881 74.2739 18.5981C74.0962 18.7082 73.9502 18.8605 73.8359 19.0552C73.7259 19.2456 73.6455 19.4657 73.5947 19.7153C73.5439 19.9608 73.5186 20.2231 73.5186 20.5024ZM81.1104 18.5981V24H79.2822V17.1318H80.9961L81.1104 18.5981ZM80.8438 20.3247H80.3486C80.3486 19.8169 80.4142 19.3599 80.5454 18.9536C80.6766 18.5431 80.8607 18.194 81.0977 17.9062C81.3346 17.6143 81.616 17.3921 81.9419 17.2397C82.272 17.0832 82.6401 17.0049 83.0464 17.0049C83.368 17.0049 83.6621 17.0514 83.9287 17.1445C84.1953 17.2376 84.4238 17.3857 84.6143 17.5889C84.8089 17.792 84.957 18.0607 85.0586 18.395C85.1644 18.7293 85.2173 19.1377 85.2173 19.6201V24H83.3765V19.6138C83.3765 19.3091 83.3341 19.0721 83.2495 18.9028C83.1649 18.7336 83.04 18.6151 82.875 18.5474C82.7142 18.4754 82.5153 18.4395 82.2783 18.4395C82.0329 18.4395 81.8192 18.4881 81.6372 18.5854C81.4595 18.6828 81.3114 18.8182 81.1929 18.9917C81.0786 19.161 80.9919 19.3599 80.9326 19.5884C80.8734 19.8169 80.8438 20.0623 80.8438 20.3247Z" fill="#F7F7F7"/>
</svg>
