<svg width="307" height="30" viewBox="0 0 307 30" fill="none" xmlns="http://www.w3.org/2000/svg">
<rect x="1" y="1" width="128" height="28" rx="14" fill="#00CC55" stroke="#5CEB8C" stroke-width="2"/>
<rect x="178" y="1" width="128" height="28" rx="14" fill="#327AFF" stroke="#63CBFF" stroke-width="2"/>
<path d="M39.8188 19H37.8066L37.8193 17.5146H39.8188C40.3182 17.5146 40.7393 17.4025 41.082 17.1782C41.4248 16.9497 41.6829 16.6175 41.8564 16.1816C42.0342 15.7458 42.123 15.2189 42.123 14.6011V14.1504C42.123 13.6764 42.0723 13.2596 41.9707 12.8999C41.8734 12.5402 41.7274 12.2376 41.5327 11.9922C41.3381 11.7467 41.099 11.5627 40.8154 11.4399C40.5319 11.313 40.2061 11.2495 39.8379 11.2495H37.7686V9.75781H39.8379C40.4557 9.75781 41.0207 9.86361 41.5327 10.0752C42.049 10.2826 42.4954 10.5809 42.8721 10.9702C43.2487 11.3595 43.5386 11.825 43.7417 12.3667C43.9491 12.9041 44.0527 13.5029 44.0527 14.1631V14.6011C44.0527 15.257 43.9491 15.8558 43.7417 16.3975C43.5386 16.9391 43.2487 17.4046 42.8721 17.7939C42.4997 18.179 42.0532 18.4774 41.5327 18.689C41.0164 18.8963 40.4451 19 39.8188 19ZM38.8857 9.75781V19H36.9814V9.75781H38.8857ZM45.0303 15.6357V15.5024C45.0303 14.9989 45.1022 14.5355 45.2461 14.1123C45.39 13.6849 45.5994 13.3146 45.8745 13.0015C46.1496 12.6883 46.4881 12.445 46.8901 12.2715C47.2922 12.0938 47.7534 12.0049 48.2739 12.0049C48.7944 12.0049 49.2578 12.0938 49.6641 12.2715C50.0703 12.445 50.411 12.6883 50.686 13.0015C50.9653 13.3146 51.1769 13.6849 51.3208 14.1123C51.4647 14.5355 51.5366 14.9989 51.5366 15.5024V15.6357C51.5366 16.1351 51.4647 16.5985 51.3208 17.0259C51.1769 17.4491 50.9653 17.8193 50.686 18.1367C50.411 18.4499 50.0724 18.6932 49.6704 18.8667C49.2684 19.0402 48.8071 19.127 48.2866 19.127C47.7661 19.127 47.3027 19.0402 46.8965 18.8667C46.4945 18.6932 46.1538 18.4499 45.8745 18.1367C45.5994 17.8193 45.39 17.4491 45.2461 17.0259C45.1022 16.5985 45.0303 16.1351 45.0303 15.6357ZM46.8584 15.5024V15.6357C46.8584 15.9235 46.8838 16.1922 46.9346 16.4419C46.9854 16.6916 47.0658 16.9116 47.1758 17.1021C47.29 17.2882 47.4382 17.4342 47.6201 17.54C47.8021 17.6458 48.0243 17.6987 48.2866 17.6987C48.5405 17.6987 48.7585 17.6458 48.9404 17.54C49.1224 17.4342 49.2684 17.2882 49.3784 17.1021C49.4884 16.9116 49.5688 16.6916 49.6196 16.4419C49.6746 16.1922 49.7021 15.9235 49.7021 15.6357V15.5024C49.7021 15.2231 49.6746 14.9608 49.6196 14.7153C49.5688 14.4657 49.4863 14.2456 49.3721 14.0552C49.262 13.8605 49.116 13.7082 48.9341 13.5981C48.7521 13.4881 48.5321 13.4331 48.2739 13.4331C48.0158 13.4331 47.7957 13.4881 47.6138 13.5981C47.436 13.7082 47.29 13.8605 47.1758 14.0552C47.0658 14.2456 46.9854 14.4657 46.9346 14.7153C46.8838 14.9608 46.8584 15.2231 46.8584 15.5024ZM54.6216 17.2227L56.0498 12.1318H57.2114L56.8369 14.1313L55.4087 19H54.4375L54.6216 17.2227ZM53.8979 12.1318L54.9199 17.2163L55.0151 19H53.8726L52.1333 12.1318H53.8979ZM58.519 17.1338L59.5156 12.1318H61.2866L59.5474 19H58.4111L58.519 17.1338ZM57.3701 12.1318L58.792 17.1846L58.9888 19H58.0112L56.583 14.1377L56.2212 12.1318H57.3701ZM63.9971 13.5981V19H62.1689V12.1318H63.8828L63.9971 13.5981ZM63.7305 15.3247H63.2354C63.2354 14.8169 63.3009 14.3599 63.4321 13.9536C63.5633 13.5431 63.7474 13.194 63.9844 12.9062C64.2214 12.6143 64.5028 12.3921 64.8286 12.2397C65.1587 12.0832 65.5269 12.0049 65.9331 12.0049C66.2547 12.0049 66.5488 12.0514 66.8154 12.1445C67.082 12.2376 67.3105 12.3857 67.501 12.5889C67.6956 12.792 67.8438 13.0607 67.9453 13.395C68.0511 13.7293 68.104 14.1377 68.104 14.6201V19H66.2632V14.6138C66.2632 14.3091 66.2209 14.0721 66.1362 13.9028C66.0516 13.7336 65.9268 13.6151 65.7617 13.5474C65.6009 13.4754 65.402 13.4395 65.165 13.4395C64.9196 13.4395 64.7059 13.4881 64.5239 13.5854C64.3462 13.6828 64.1981 13.8182 64.0796 13.9917C63.9653 14.161 63.8786 14.3599 63.8193 14.5884C63.7601 14.8169 63.7305 15.0623 63.7305 15.3247ZM71.4238 9.25V19H69.5894V9.25H71.4238ZM72.6426 15.6357V15.5024C72.6426 14.9989 72.7145 14.5355 72.8584 14.1123C73.0023 13.6849 73.2118 13.3146 73.4868 13.0015C73.7619 12.6883 74.1004 12.445 74.5024 12.2715C74.9045 12.0938 75.3657 12.0049 75.8862 12.0049C76.4067 12.0049 76.8701 12.0938 77.2764 12.2715C77.6826 12.445 78.0233 12.6883 78.2983 13.0015C78.5776 13.3146 78.7892 13.6849 78.9331 14.1123C79.077 14.5355 79.1489 14.9989 79.1489 15.5024V15.6357C79.1489 16.1351 79.077 16.5985 78.9331 17.0259C78.7892 17.4491 78.5776 17.8193 78.2983 18.1367C78.0233 18.4499 77.6847 18.6932 77.2827 18.8667C76.8807 19.0402 76.4194 19.127 75.8989 19.127C75.3784 19.127 74.915 19.0402 74.5088 18.8667C74.1068 18.6932 73.7661 18.4499 73.4868 18.1367C73.2118 17.8193 73.0023 17.4491 72.8584 17.0259C72.7145 16.5985 72.6426 16.1351 72.6426 15.6357ZM74.4707 15.5024V15.6357C74.4707 15.9235 74.4961 16.1922 74.5469 16.4419C74.5977 16.6916 74.6781 16.9116 74.7881 17.1021C74.9023 17.2882 75.0505 17.4342 75.2324 17.54C75.4144 17.6458 75.6366 17.6987 75.8989 17.6987C76.1528 17.6987 76.3708 17.6458 76.5527 17.54C76.7347 17.4342 76.8807 17.2882 76.9907 17.1021C77.1007 16.9116 77.1812 16.6916 77.2319 16.4419C77.2869 16.1922 77.3145 15.9235 77.3145 15.6357V15.5024C77.3145 15.2231 77.2869 14.9608 77.2319 14.7153C77.1812 14.4657 77.0986 14.2456 76.9844 14.0552C76.8743 13.8605 76.7284 13.7082 76.5464 13.5981C76.3644 13.4881 76.1444 13.4331 75.8862 13.4331C75.6281 13.4331 75.408 13.4881 75.2261 13.5981C75.0483 13.7082 74.9023 13.8605 74.7881 14.0552C74.6781 14.2456 74.5977 14.4657 74.5469 14.7153C74.4961 14.9608 74.4707 15.2231 74.4707 15.5024ZM83.9795 17.4512V14.3916C83.9795 14.1715 83.9435 13.9832 83.8716 13.8267C83.7996 13.6659 83.6875 13.541 83.5352 13.4521C83.387 13.3633 83.1945 13.3188 82.9575 13.3188C82.7544 13.3188 82.5788 13.3548 82.4307 13.4268C82.2826 13.4945 82.1683 13.5939 82.0879 13.7251C82.0075 13.8521 81.9673 14.0023 81.9673 14.1758H80.1392C80.1392 13.8838 80.2069 13.6066 80.3423 13.3442C80.4777 13.0819 80.6745 12.8512 80.9326 12.6523C81.1908 12.4492 81.4976 12.2905 81.853 12.1763C82.2127 12.062 82.6147 12.0049 83.0591 12.0049C83.5923 12.0049 84.0662 12.0938 84.481 12.2715C84.8957 12.4492 85.2215 12.7158 85.4585 13.0713C85.6997 13.4268 85.8203 13.8711 85.8203 14.4043V17.3433C85.8203 17.7199 85.8436 18.0288 85.8901 18.27C85.9367 18.507 86.0044 18.7144 86.0933 18.8921V19H84.2461C84.1572 18.8138 84.0895 18.5811 84.043 18.3018C84.0007 18.0182 83.9795 17.7347 83.9795 17.4512ZM84.2207 14.8169L84.2334 15.8516H83.2114C82.9702 15.8516 82.7607 15.8791 82.583 15.9341C82.4053 15.9891 82.2593 16.0674 82.145 16.1689C82.0308 16.2663 81.9461 16.3805 81.8911 16.5117C81.8403 16.6429 81.8149 16.7868 81.8149 16.9434C81.8149 17.0999 81.8509 17.2417 81.9229 17.3687C81.9948 17.4914 82.0985 17.5887 82.2339 17.6606C82.3693 17.7284 82.528 17.7622 82.71 17.7622C82.985 17.7622 83.2241 17.7072 83.4272 17.5972C83.6304 17.4871 83.7869 17.3517 83.897 17.1909C84.0112 17.0301 84.0705 16.8778 84.0747 16.7339L84.5571 17.5083C84.4894 17.6818 84.3963 17.8617 84.2778 18.0479C84.1636 18.234 84.0176 18.4097 83.8398 18.5747C83.6621 18.7355 83.4484 18.8688 83.1987 18.9746C82.9491 19.0762 82.6528 19.127 82.3101 19.127C81.8742 19.127 81.4785 19.0402 81.123 18.8667C80.7718 18.689 80.4925 18.4456 80.2852 18.1367C80.082 17.8236 79.9805 17.4681 79.9805 17.0703C79.9805 16.7106 80.0482 16.3911 80.1836 16.1118C80.319 15.8325 80.5179 15.5977 80.7803 15.4072C81.0469 15.2126 81.3791 15.0666 81.7769 14.9692C82.1746 14.8677 82.6359 14.8169 83.1606 14.8169H84.2207ZM91.2856 17.502V9.25H93.1265V19H91.4697L91.2856 17.502ZM86.9438 15.6484V15.5151C86.9438 14.9904 87.0031 14.5143 87.1216 14.0869C87.2401 13.6553 87.4136 13.285 87.6421 12.9761C87.8706 12.6672 88.152 12.4281 88.4863 12.2588C88.8206 12.0895 89.2015 12.0049 89.6289 12.0049C90.0309 12.0049 90.3822 12.0895 90.6826 12.2588C90.9873 12.4281 91.2454 12.6693 91.457 12.9824C91.6729 13.2913 91.8464 13.6574 91.9775 14.0806C92.1087 14.4995 92.2039 14.9587 92.2632 15.458V15.75C92.2039 16.2282 92.1087 16.6725 91.9775 17.083C91.8464 17.4935 91.6729 17.8532 91.457 18.1621C91.2454 18.4668 90.9873 18.7038 90.6826 18.873C90.3779 19.0423 90.0225 19.127 89.6162 19.127C89.1888 19.127 88.8079 19.0402 88.4736 18.8667C88.1436 18.6932 87.8643 18.4499 87.6357 18.1367C87.4115 17.8236 87.2401 17.4554 87.1216 17.0322C87.0031 16.609 86.9438 16.1478 86.9438 15.6484ZM88.772 15.5151V15.6484C88.772 15.932 88.7931 16.1965 88.8354 16.4419C88.882 16.6873 88.9561 16.9053 89.0576 17.0957C89.1634 17.2819 89.2988 17.4279 89.4639 17.5337C89.6331 17.6353 89.8384 17.686 90.0796 17.686C90.3927 17.686 90.6509 17.6162 90.854 17.4766C91.0571 17.3327 91.2116 17.1359 91.3174 16.8862C91.4274 16.6366 91.4909 16.3488 91.5078 16.0229V15.1914C91.4951 14.9248 91.457 14.6857 91.3936 14.4741C91.3343 14.2583 91.2454 14.0742 91.127 13.9219C91.0127 13.7695 90.8688 13.651 90.6953 13.5664C90.526 13.4818 90.325 13.4395 90.0923 13.4395C89.8553 13.4395 89.6522 13.4945 89.4829 13.6045C89.3136 13.7103 89.1761 13.8563 89.0703 14.0425C88.9688 14.2287 88.8926 14.4487 88.8418 14.7026C88.7952 14.9523 88.772 15.2231 88.772 15.5151Z" fill="#F7F7F7"/>
<path d="M218.749 15.9341H220.646C220.608 16.5562 220.437 17.1084 220.132 17.5908C219.832 18.0732 219.411 18.4499 218.869 18.7207C218.332 18.9915 217.684 19.127 216.927 19.127C216.334 19.127 215.803 19.0254 215.333 18.8223C214.864 18.6149 214.462 18.3187 214.127 17.9336C213.797 17.5485 213.546 17.083 213.372 16.5371C213.199 15.9912 213.112 15.3797 213.112 14.7026V14.0615C213.112 13.3844 213.201 12.7729 213.378 12.2271C213.56 11.6769 213.819 11.2093 214.153 10.8242C214.491 10.4391 214.896 10.1429 215.365 9.93555C215.835 9.72819 216.36 9.62451 216.939 9.62451C217.71 9.62451 218.359 9.76416 218.888 10.0435C219.421 10.3228 219.834 10.7078 220.126 11.1987C220.422 11.6896 220.6 12.2482 220.659 12.8745H218.755C218.734 12.5021 218.66 12.1868 218.533 11.9287C218.406 11.6663 218.213 11.4696 217.955 11.3384C217.701 11.203 217.363 11.1353 216.939 11.1353C216.622 11.1353 216.345 11.1945 216.108 11.313C215.871 11.4315 215.672 11.6113 215.511 11.8525C215.35 12.0938 215.23 12.3984 215.149 12.7666C215.073 13.1305 215.035 13.5579 215.035 14.0488V14.7026C215.035 15.1808 215.071 15.6019 215.143 15.9658C215.215 16.3255 215.325 16.6302 215.473 16.8799C215.625 17.1253 215.82 17.3115 216.057 17.4385C216.298 17.5612 216.588 17.6226 216.927 17.6226C217.325 17.6226 217.653 17.5591 217.911 17.4321C218.169 17.3052 218.366 17.1169 218.501 16.8672C218.641 16.6175 218.723 16.3065 218.749 15.9341ZM221.491 15.6357V15.5024C221.491 14.9989 221.563 14.5355 221.707 14.1123C221.85 13.6849 222.06 13.3146 222.335 13.0015C222.61 12.6883 222.949 12.445 223.351 12.2715C223.753 12.0938 224.214 12.0049 224.734 12.0049C225.255 12.0049 225.718 12.0938 226.125 12.2715C226.531 12.445 226.871 12.6883 227.146 13.0015C227.426 13.3146 227.637 13.6849 227.781 14.1123C227.925 14.5355 227.997 14.9989 227.997 15.5024V15.6357C227.997 16.1351 227.925 16.5985 227.781 17.0259C227.637 17.4491 227.426 17.8193 227.146 18.1367C226.871 18.4499 226.533 18.6932 226.131 18.8667C225.729 19.0402 225.268 19.127 224.747 19.127C224.227 19.127 223.763 19.0402 223.357 18.8667C222.955 18.6932 222.614 18.4499 222.335 18.1367C222.06 17.8193 221.85 17.4491 221.707 17.0259C221.563 16.5985 221.491 16.1351 221.491 15.6357ZM223.319 15.5024V15.6357C223.319 15.9235 223.344 16.1922 223.395 16.4419C223.446 16.6916 223.526 16.9116 223.636 17.1021C223.75 17.2882 223.899 17.4342 224.081 17.54C224.263 17.6458 224.485 17.6987 224.747 17.6987C225.001 17.6987 225.219 17.6458 225.401 17.54C225.583 17.4342 225.729 17.2882 225.839 17.1021C225.949 16.9116 226.029 16.6916 226.08 16.4419C226.135 16.1922 226.163 15.9235 226.163 15.6357V15.5024C226.163 15.2231 226.135 14.9608 226.08 14.7153C226.029 14.4657 225.947 14.2456 225.833 14.0552C225.722 13.8605 225.576 13.7082 225.395 13.5981C225.213 13.4881 224.993 13.4331 224.734 13.4331C224.476 13.4331 224.256 13.4881 224.074 13.5981C223.896 13.7082 223.75 13.8605 223.636 14.0552C223.526 14.2456 223.446 14.4657 223.395 14.7153C223.344 14.9608 223.319 15.2231 223.319 15.5024ZM230.911 13.5981V19H229.083V12.1318H230.796L230.911 13.5981ZM230.644 15.3247H230.149C230.149 14.8169 230.215 14.3599 230.346 13.9536C230.477 13.5431 230.661 13.194 230.898 12.9062C231.135 12.6143 231.416 12.3921 231.742 12.2397C232.072 12.0832 232.44 12.0049 232.847 12.0049C233.168 12.0049 233.462 12.0514 233.729 12.1445C233.996 12.2376 234.224 12.3857 234.415 12.5889C234.609 12.792 234.757 13.0607 234.859 13.395C234.965 13.7293 235.018 14.1377 235.018 14.6201V19H233.177V14.6138C233.177 14.3091 233.134 14.0721 233.05 13.9028C232.965 13.7336 232.84 13.6151 232.675 13.5474C232.514 13.4754 232.316 13.4395 232.079 13.4395C231.833 13.4395 231.619 13.4881 231.438 13.5854C231.26 13.6828 231.112 13.8182 230.993 13.9917C230.879 14.161 230.792 14.3599 230.733 14.5884C230.674 14.8169 230.644 15.0623 230.644 15.3247ZM239.772 12.1318V13.4268H235.773V12.1318H239.772ZM236.763 10.437H238.591V16.9307C238.591 17.1296 238.617 17.2819 238.667 17.3877C238.722 17.4935 238.803 17.5675 238.909 17.6099C239.014 17.6479 239.148 17.667 239.309 17.667C239.423 17.667 239.524 17.6628 239.613 17.6543C239.706 17.6416 239.785 17.6289 239.848 17.6162L239.854 18.9619C239.698 19.0127 239.529 19.0529 239.347 19.0825C239.165 19.1121 238.964 19.127 238.744 19.127C238.342 19.127 237.99 19.0614 237.69 18.9302C237.394 18.7948 237.165 18.5789 237.004 18.2827C236.844 17.9865 236.763 17.5972 236.763 17.1147V10.437ZM244.52 17.4512V14.3916C244.52 14.1715 244.484 13.9832 244.412 13.8267C244.34 13.6659 244.228 13.541 244.076 13.4521C243.928 13.3633 243.735 13.3188 243.498 13.3188C243.295 13.3188 243.119 13.3548 242.971 13.4268C242.823 13.4945 242.709 13.5939 242.628 13.7251C242.548 13.8521 242.508 14.0023 242.508 14.1758H240.68C240.68 13.8838 240.747 13.6066 240.883 13.3442C241.018 13.0819 241.215 12.8512 241.473 12.6523C241.731 12.4492 242.038 12.2905 242.394 12.1763C242.753 12.062 243.155 12.0049 243.6 12.0049C244.133 12.0049 244.607 12.0938 245.021 12.2715C245.436 12.4492 245.762 12.7158 245.999 13.0713C246.24 13.4268 246.361 13.8711 246.361 14.4043V17.3433C246.361 17.7199 246.384 18.0288 246.431 18.27C246.477 18.507 246.545 18.7144 246.634 18.8921V19H244.787C244.698 18.8138 244.63 18.5811 244.583 18.3018C244.541 18.0182 244.52 17.7347 244.52 17.4512ZM244.761 14.8169L244.774 15.8516H243.752C243.511 15.8516 243.301 15.8791 243.124 15.9341C242.946 15.9891 242.8 16.0674 242.686 16.1689C242.571 16.2663 242.487 16.3805 242.432 16.5117C242.381 16.6429 242.355 16.7868 242.355 16.9434C242.355 17.0999 242.391 17.2417 242.463 17.3687C242.535 17.4914 242.639 17.5887 242.774 17.6606C242.91 17.7284 243.069 17.7622 243.25 17.7622C243.526 17.7622 243.765 17.7072 243.968 17.5972C244.171 17.4871 244.327 17.3517 244.438 17.1909C244.552 17.0301 244.611 16.8778 244.615 16.7339L245.098 17.5083C245.03 17.6818 244.937 17.8617 244.818 18.0479C244.704 18.234 244.558 18.4097 244.38 18.5747C244.203 18.7355 243.989 18.8688 243.739 18.9746C243.49 19.0762 243.193 19.127 242.851 19.127C242.415 19.127 242.019 19.0402 241.664 18.8667C241.312 18.689 241.033 18.4456 240.826 18.1367C240.623 17.8236 240.521 17.4681 240.521 17.0703C240.521 16.7106 240.589 16.3911 240.724 16.1118C240.86 15.8325 241.058 15.5977 241.321 15.4072C241.587 15.2126 241.92 15.0666 242.317 14.9692C242.715 14.8677 243.176 14.8169 243.701 14.8169H244.761ZM250.607 17.6987C250.832 17.6987 251.031 17.6564 251.204 17.5718C251.378 17.4829 251.513 17.3602 251.61 17.2036C251.712 17.0428 251.765 16.8545 251.769 16.6387H253.489C253.485 17.1211 253.356 17.5506 253.102 17.9272C252.848 18.2996 252.507 18.5938 252.08 18.8096C251.653 19.0212 251.174 19.127 250.646 19.127C250.112 19.127 249.647 19.0381 249.249 18.8604C248.855 18.6826 248.528 18.4372 248.265 18.124C248.003 17.8066 247.806 17.4385 247.675 17.0195C247.544 16.5964 247.478 16.1436 247.478 15.6611V15.4771C247.478 14.9904 247.544 14.5376 247.675 14.1187C247.806 13.6955 248.003 13.3273 248.265 13.0142C248.528 12.6968 248.855 12.4492 249.249 12.2715C249.643 12.0938 250.104 12.0049 250.633 12.0049C251.196 12.0049 251.689 12.1128 252.112 12.3286C252.539 12.5444 252.874 12.8534 253.115 13.2554C253.36 13.6532 253.485 14.125 253.489 14.6709H251.769C251.765 14.4424 251.716 14.235 251.623 14.0488C251.534 13.8626 251.403 13.7145 251.229 13.6045C251.06 13.4902 250.851 13.4331 250.601 13.4331C250.334 13.4331 250.117 13.4902 249.947 13.6045C249.778 13.7145 249.647 13.8669 249.554 14.0615C249.461 14.252 249.395 14.4699 249.357 14.7153C249.323 14.9565 249.306 15.2104 249.306 15.4771V15.6611C249.306 15.9277 249.323 16.1838 249.357 16.4292C249.391 16.6746 249.454 16.8926 249.547 17.083C249.645 17.2734 249.778 17.4237 249.947 17.5337C250.117 17.6437 250.337 17.6987 250.607 17.6987ZM257.914 12.1318V13.4268H253.915V12.1318H257.914ZM254.905 10.437H256.733V16.9307C256.733 17.1296 256.758 17.2819 256.809 17.3877C256.864 17.4935 256.944 17.5675 257.05 17.6099C257.156 17.6479 257.289 17.667 257.45 17.667C257.564 17.667 257.666 17.6628 257.755 17.6543C257.848 17.6416 257.926 17.6289 257.99 17.6162L257.996 18.9619C257.84 19.0127 257.67 19.0529 257.488 19.0825C257.306 19.1121 257.105 19.127 256.885 19.127C256.483 19.127 256.132 19.0614 255.832 18.9302C255.535 18.7948 255.307 18.5789 255.146 18.2827C254.985 17.9865 254.905 17.5972 254.905 17.1147V10.437ZM269.542 15.166L265.474 13.7124V12.0049L271.002 14.3281V15.5532L269.542 15.166ZM265.474 16.3848L269.549 14.8994L271.002 14.5503V15.769L265.474 18.0923V16.3848Z" fill="#F7F7F7"/>
</svg>
