<svg width="500" height="1000" viewBox="0 0 500 1000" fill="none" xmlns="http://www.w3.org/2000/svg">
<rect width="500" height="1000" fill="white"/>
<rect y="187.5" width="50" height="625" fill="#FFE797"/>
<line x1="85" y1="244.75" x2="439" y2="244.75" stroke="black" stroke-width="3"/>
<path d="M97.876 219.928C97.876 220.872 97.64 221.712 97.168 222.448C96.696 223.176 96.012 223.748 95.116 224.164C94.22 224.572 93.128 224.776 91.84 224.776C90.632 224.776 89.536 224.592 88.552 224.224C87.576 223.856 86.74 223.336 86.044 222.664L87.28 221.272C87.856 221.808 88.516 222.236 89.26 222.556C90.004 222.868 90.876 223.024 91.876 223.024C92.548 223.024 93.176 222.916 93.76 222.7C94.344 222.476 94.816 222.14 95.176 221.692C95.536 221.236 95.716 220.66 95.716 219.964C95.716 219.428 95.612 218.972 95.404 218.596C95.196 218.22 94.828 217.888 94.3 217.6C93.772 217.304 93.036 217.016 92.092 216.736C91.004 216.416 90.06 216.056 89.26 215.656C88.468 215.248 87.852 214.748 87.412 214.156C86.98 213.564 86.764 212.832 86.764 211.96C86.764 211.136 86.992 210.404 87.448 209.764C87.904 209.124 88.532 208.624 89.332 208.264C90.14 207.896 91.068 207.712 92.116 207.712C93.26 207.712 94.252 207.876 95.092 208.204C95.94 208.524 96.708 208.988 97.396 209.596L96.172 210.952C95.58 210.424 94.944 210.044 94.264 209.812C93.584 209.572 92.892 209.452 92.188 209.452C91.588 209.452 91.036 209.544 90.532 209.728C90.036 209.904 89.636 210.172 89.332 210.532C89.036 210.884 88.888 211.336 88.888 211.888C88.888 212.36 89.016 212.768 89.272 213.112C89.528 213.456 89.96 213.772 90.568 214.06C91.176 214.34 92.004 214.636 93.052 214.948C93.908 215.196 94.7 215.508 95.428 215.884C96.164 216.252 96.756 216.756 97.204 217.396C97.652 218.028 97.876 218.872 97.876 219.928ZM106.615 211.6C107.807 211.6 108.803 211.872 109.603 212.416C110.411 212.952 111.015 213.712 111.415 214.696C111.823 215.68 112.027 216.84 112.027 218.176C112.027 219.464 111.819 220.604 111.403 221.596C110.987 222.588 110.375 223.368 109.567 223.936C108.767 224.496 107.775 224.776 106.591 224.776C105.407 224.776 104.411 224.504 103.603 223.96C102.795 223.416 102.183 222.652 101.767 221.668C101.359 220.676 101.155 219.52 101.155 218.2C101.155 216.896 101.363 215.748 101.779 214.756C102.195 213.764 102.807 212.992 103.615 212.44C104.431 211.88 105.431 211.6 106.615 211.6ZM106.615 213.244C105.527 213.244 104.703 213.648 104.143 214.456C103.591 215.256 103.315 216.504 103.315 218.2C103.315 219.864 103.587 221.1 104.131 221.908C104.683 222.716 105.503 223.12 106.591 223.12C107.679 223.12 108.495 222.716 109.039 221.908C109.591 221.1 109.867 219.856 109.867 218.176C109.867 216.496 109.595 215.256 109.051 214.456C108.507 213.648 107.695 213.244 106.615 213.244ZM124.521 211.6C124.929 211.6 125.317 211.688 125.685 211.864C126.061 212.04 126.369 212.38 126.609 212.884C126.849 213.388 126.969 214.124 126.969 215.092V224.5H125.097V215.416C125.097 214.624 125.049 214.052 124.953 213.7C124.857 213.348 124.581 213.172 124.125 213.172C123.749 213.172 123.373 213.292 122.997 213.532C122.629 213.764 122.269 214.148 121.917 214.684V224.5H120.033V215.416C120.033 214.624 119.985 214.052 119.889 213.7C119.793 213.348 119.517 213.172 119.061 213.172C118.669 213.172 118.289 213.292 117.921 213.532C117.561 213.764 117.205 214.148 116.853 214.684V224.5H114.993V211.864H116.577L116.697 213.328C117.041 212.84 117.425 212.432 117.849 212.104C118.281 211.768 118.813 211.6 119.445 211.6C119.925 211.6 120.377 211.716 120.801 211.948C121.225 212.172 121.537 212.612 121.737 213.268C122.081 212.772 122.469 212.372 122.901 212.068C123.333 211.756 123.873 211.6 124.521 211.6ZM132.168 218.896C132.208 219.872 132.396 220.672 132.732 221.296C133.068 221.912 133.512 222.368 134.064 222.664C134.616 222.952 135.216 223.096 135.864 223.096C136.512 223.096 137.096 223 137.616 222.808C138.144 222.616 138.684 222.332 139.236 221.956L140.184 223.288C139.592 223.752 138.916 224.116 138.156 224.38C137.404 224.644 136.632 224.776 135.84 224.776C134.616 224.776 133.572 224.5 132.708 223.948C131.844 223.396 131.184 222.628 130.728 221.644C130.28 220.652 130.056 219.504 130.056 218.2C130.056 216.92 130.284 215.784 130.74 214.792C131.196 213.8 131.836 213.02 132.66 212.452C133.484 211.884 134.456 211.6 135.576 211.6C136.64 211.6 137.556 211.852 138.324 212.356C139.092 212.852 139.68 213.564 140.088 214.492C140.504 215.412 140.712 216.512 140.712 217.792C140.712 218.008 140.708 218.212 140.7 218.404C140.692 218.588 140.68 218.752 140.664 218.896H132.168ZM135.6 213.256C134.664 213.256 133.88 213.588 133.248 214.252C132.624 214.916 132.268 215.944 132.18 217.336H138.768C138.744 215.984 138.448 214.968 137.88 214.288C137.312 213.6 136.552 213.256 135.6 213.256ZM155.007 223.864C154.575 224.152 154.051 224.376 153.435 224.536C152.819 224.696 152.215 224.776 151.623 224.776C150.263 224.776 149.215 224.42 148.479 223.708C147.743 222.996 147.375 222.08 147.375 220.96V213.424H144.471V211.864H147.375V208.996L149.391 208.756V211.864H153.759L153.519 213.424H149.391V220.936C149.391 221.64 149.575 222.176 149.943 222.544C150.319 222.912 150.939 223.096 151.803 223.096C152.275 223.096 152.711 223.04 153.111 222.928C153.511 222.816 153.883 222.672 154.227 222.496L155.007 223.864ZM161.381 206.584V213.592C161.877 212.928 162.485 212.432 163.205 212.104C163.933 211.768 164.669 211.6 165.413 211.6C166.645 211.6 167.545 211.928 168.113 212.584C168.681 213.24 168.965 214.152 168.965 215.32V224.5H166.949V215.368C166.949 214.608 166.773 214.056 166.421 213.712C166.069 213.36 165.517 213.184 164.765 213.184C164.285 213.184 163.829 213.292 163.397 213.508C162.965 213.724 162.577 213.992 162.233 214.312C161.889 214.632 161.605 214.96 161.381 215.296V224.5H159.365V206.8L161.381 206.584ZM180.152 211.864V222.904H183.716V224.5H174.236V222.904H178.136V213.46H174.356V211.864H180.152ZM178.544 205.948C178.992 205.948 179.348 206.084 179.612 206.356C179.884 206.628 180.02 206.96 180.02 207.352C180.02 207.76 179.884 208.104 179.612 208.384C179.348 208.656 178.992 208.792 178.544 208.792C178.12 208.792 177.772 208.656 177.5 208.384C177.228 208.104 177.092 207.76 177.092 207.352C177.092 206.96 177.228 206.628 177.5 206.356C177.772 206.084 178.12 205.948 178.544 205.948ZM188.146 224.5V211.864H189.862L190.018 213.616C190.53 212.968 191.17 212.472 191.938 212.128C192.714 211.776 193.466 211.6 194.194 211.6C195.434 211.6 196.334 211.928 196.894 212.584C197.462 213.24 197.746 214.152 197.746 215.32V224.5H195.73V216.808C195.73 215.944 195.682 215.248 195.586 214.72C195.49 214.184 195.29 213.796 194.986 213.556C194.682 213.308 194.21 213.184 193.57 213.184C193.074 213.184 192.606 213.292 192.166 213.508C191.734 213.724 191.346 213.996 191.002 214.324C190.666 214.644 190.386 214.968 190.162 215.296V224.5H188.146ZM212.809 210.52L213.433 212.416C212.897 212.584 212.325 212.688 211.717 212.728C211.109 212.768 210.449 212.788 209.737 212.788C210.465 213.124 211.013 213.56 211.381 214.096C211.749 214.624 211.933 215.248 211.933 215.968C211.933 216.8 211.745 217.54 211.369 218.188C210.993 218.836 210.449 219.344 209.737 219.712C209.033 220.08 208.181 220.264 207.181 220.264C206.757 220.264 206.401 220.244 206.113 220.204C205.833 220.164 205.561 220.104 205.297 220.024C205.105 220.152 204.945 220.328 204.817 220.552C204.697 220.776 204.637 221.008 204.637 221.248C204.637 221.552 204.757 221.804 204.997 222.004C205.237 222.204 205.681 222.304 206.329 222.304H208.609C209.457 222.304 210.217 222.456 210.889 222.76C211.569 223.064 212.101 223.472 212.485 223.984C212.877 224.496 213.073 225.08 213.073 225.736C213.073 226.976 212.545 227.928 211.489 228.592C210.441 229.256 208.957 229.588 207.037 229.588C205.693 229.588 204.633 229.448 203.857 229.168C203.081 228.896 202.525 228.476 202.189 227.908C201.861 227.348 201.697 226.64 201.697 225.784H203.521C203.521 226.272 203.617 226.676 203.809 226.996C204.001 227.316 204.349 227.552 204.853 227.704C205.357 227.864 206.081 227.944 207.025 227.944C207.953 227.944 208.709 227.864 209.293 227.704C209.885 227.552 210.321 227.32 210.601 227.008C210.889 226.704 211.033 226.324 211.033 225.868C211.033 225.268 210.761 224.816 210.217 224.512C209.673 224.208 208.993 224.056 208.177 224.056H205.921C204.833 224.056 204.029 223.816 203.509 223.336C202.997 222.856 202.741 222.304 202.741 221.68C202.741 221.272 202.857 220.876 203.089 220.492C203.329 220.108 203.677 219.768 204.133 219.472C203.405 219.088 202.869 218.612 202.525 218.044C202.181 217.476 202.009 216.788 202.009 215.98C202.009 215.124 202.221 214.368 202.645 213.712C203.069 213.048 203.661 212.528 204.421 212.152C205.181 211.776 206.057 211.588 207.049 211.588C208.113 211.58 208.977 211.536 209.641 211.456C210.305 211.368 210.873 211.244 211.345 211.084C211.825 210.924 212.313 210.736 212.809 210.52ZM207.049 213.064C206.033 213.064 205.281 213.34 204.793 213.892C204.313 214.436 204.073 215.132 204.073 215.98C204.073 216.836 204.321 217.54 204.817 218.092C205.313 218.644 206.073 218.92 207.097 218.92C207.993 218.92 208.673 218.66 209.137 218.14C209.609 217.62 209.845 216.896 209.845 215.968C209.845 215.016 209.609 214.296 209.137 213.808C208.673 213.312 207.977 213.064 207.049 213.064Z" fill="black"/>
<line x1="85" y1="444.75" x2="439" y2="444.75" stroke="black" stroke-width="3"/>
<path d="M97.876 419.928C97.876 420.872 97.64 421.712 97.168 422.448C96.696 423.176 96.012 423.748 95.116 424.164C94.22 424.572 93.128 424.776 91.84 424.776C90.632 424.776 89.536 424.592 88.552 424.224C87.576 423.856 86.74 423.336 86.044 422.664L87.28 421.272C87.856 421.808 88.516 422.236 89.26 422.556C90.004 422.868 90.876 423.024 91.876 423.024C92.548 423.024 93.176 422.916 93.76 422.7C94.344 422.476 94.816 422.14 95.176 421.692C95.536 421.236 95.716 420.66 95.716 419.964C95.716 419.428 95.612 418.972 95.404 418.596C95.196 418.22 94.828 417.888 94.3 417.6C93.772 417.304 93.036 417.016 92.092 416.736C91.004 416.416 90.06 416.056 89.26 415.656C88.468 415.248 87.852 414.748 87.412 414.156C86.98 413.564 86.764 412.832 86.764 411.96C86.764 411.136 86.992 410.404 87.448 409.764C87.904 409.124 88.532 408.624 89.332 408.264C90.14 407.896 91.068 407.712 92.116 407.712C93.26 407.712 94.252 407.876 95.092 408.204C95.94 408.524 96.708 408.988 97.396 409.596L96.172 410.952C95.58 410.424 94.944 410.044 94.264 409.812C93.584 409.572 92.892 409.452 92.188 409.452C91.588 409.452 91.036 409.544 90.532 409.728C90.036 409.904 89.636 410.172 89.332 410.532C89.036 410.884 88.888 411.336 88.888 411.888C88.888 412.36 89.016 412.768 89.272 413.112C89.528 413.456 89.96 413.772 90.568 414.06C91.176 414.34 92.004 414.636 93.052 414.948C93.908 415.196 94.7 415.508 95.428 415.884C96.164 416.252 96.756 416.756 97.204 417.396C97.652 418.028 97.876 418.872 97.876 419.928ZM106.615 411.6C107.807 411.6 108.803 411.872 109.603 412.416C110.411 412.952 111.015 413.712 111.415 414.696C111.823 415.68 112.027 416.84 112.027 418.176C112.027 419.464 111.819 420.604 111.403 421.596C110.987 422.588 110.375 423.368 109.567 423.936C108.767 424.496 107.775 424.776 106.591 424.776C105.407 424.776 104.411 424.504 103.603 423.96C102.795 423.416 102.183 422.652 101.767 421.668C101.359 420.676 101.155 419.52 101.155 418.2C101.155 416.896 101.363 415.748 101.779 414.756C102.195 413.764 102.807 412.992 103.615 412.44C104.431 411.88 105.431 411.6 106.615 411.6ZM106.615 413.244C105.527 413.244 104.703 413.648 104.143 414.456C103.591 415.256 103.315 416.504 103.315 418.2C103.315 419.864 103.587 421.1 104.131 421.908C104.683 422.716 105.503 423.12 106.591 423.12C107.679 423.12 108.495 422.716 109.039 421.908C109.591 421.1 109.867 419.856 109.867 418.176C109.867 416.496 109.595 415.256 109.051 414.456C108.507 413.648 107.695 413.244 106.615 413.244ZM124.521 411.6C124.929 411.6 125.317 411.688 125.685 411.864C126.061 412.04 126.369 412.38 126.609 412.884C126.849 413.388 126.969 414.124 126.969 415.092V424.5H125.097V415.416C125.097 414.624 125.049 414.052 124.953 413.7C124.857 413.348 124.581 413.172 124.125 413.172C123.749 413.172 123.373 413.292 122.997 413.532C122.629 413.764 122.269 414.148 121.917 414.684V424.5H120.033V415.416C120.033 414.624 119.985 414.052 119.889 413.7C119.793 413.348 119.517 413.172 119.061 413.172C118.669 413.172 118.289 413.292 117.921 413.532C117.561 413.764 117.205 414.148 116.853 414.684V424.5H114.993V411.864H116.577L116.697 413.328C117.041 412.84 117.425 412.432 117.849 412.104C118.281 411.768 118.813 411.6 119.445 411.6C119.925 411.6 120.377 411.716 120.801 411.948C121.225 412.172 121.537 412.612 121.737 413.268C122.081 412.772 122.469 412.372 122.901 412.068C123.333 411.756 123.873 411.6 124.521 411.6ZM132.168 418.896C132.208 419.872 132.396 420.672 132.732 421.296C133.068 421.912 133.512 422.368 134.064 422.664C134.616 422.952 135.216 423.096 135.864 423.096C136.512 423.096 137.096 423 137.616 422.808C138.144 422.616 138.684 422.332 139.236 421.956L140.184 423.288C139.592 423.752 138.916 424.116 138.156 424.38C137.404 424.644 136.632 424.776 135.84 424.776C134.616 424.776 133.572 424.5 132.708 423.948C131.844 423.396 131.184 422.628 130.728 421.644C130.28 420.652 130.056 419.504 130.056 418.2C130.056 416.92 130.284 415.784 130.74 414.792C131.196 413.8 131.836 413.02 132.66 412.452C133.484 411.884 134.456 411.6 135.576 411.6C136.64 411.6 137.556 411.852 138.324 412.356C139.092 412.852 139.68 413.564 140.088 414.492C140.504 415.412 140.712 416.512 140.712 417.792C140.712 418.008 140.708 418.212 140.7 418.404C140.692 418.588 140.68 418.752 140.664 418.896H132.168ZM135.6 413.256C134.664 413.256 133.88 413.588 133.248 414.252C132.624 414.916 132.268 415.944 132.18 417.336H138.768C138.744 415.984 138.448 414.968 137.88 414.288C137.312 413.6 136.552 413.256 135.6 413.256ZM155.007 423.864C154.575 424.152 154.051 424.376 153.435 424.536C152.819 424.696 152.215 424.776 151.623 424.776C150.263 424.776 149.215 424.42 148.479 423.708C147.743 422.996 147.375 422.08 147.375 420.96V413.424H144.471V411.864H147.375V408.996L149.391 408.756V411.864H153.759L153.519 413.424H149.391V420.936C149.391 421.64 149.575 422.176 149.943 422.544C150.319 422.912 150.939 423.096 151.803 423.096C152.275 423.096 152.711 423.04 153.111 422.928C153.511 422.816 153.883 422.672 154.227 422.496L155.007 423.864ZM161.381 406.584V413.592C161.877 412.928 162.485 412.432 163.205 412.104C163.933 411.768 164.669 411.6 165.413 411.6C166.645 411.6 167.545 411.928 168.113 412.584C168.681 413.24 168.965 414.152 168.965 415.32V424.5H166.949V415.368C166.949 414.608 166.773 414.056 166.421 413.712C166.069 413.36 165.517 413.184 164.765 413.184C164.285 413.184 163.829 413.292 163.397 413.508C162.965 413.724 162.577 413.992 162.233 414.312C161.889 414.632 161.605 414.96 161.381 415.296V424.5H159.365V406.8L161.381 406.584ZM180.152 411.864V422.904H183.716V424.5H174.236V422.904H178.136V413.46H174.356V411.864H180.152ZM178.544 405.948C178.992 405.948 179.348 406.084 179.612 406.356C179.884 406.628 180.02 406.96 180.02 407.352C180.02 407.76 179.884 408.104 179.612 408.384C179.348 408.656 178.992 408.792 178.544 408.792C178.12 408.792 177.772 408.656 177.5 408.384C177.228 408.104 177.092 407.76 177.092 407.352C177.092 406.96 177.228 406.628 177.5 406.356C177.772 406.084 178.12 405.948 178.544 405.948ZM188.146 424.5V411.864H189.862L190.018 413.616C190.53 412.968 191.17 412.472 191.938 412.128C192.714 411.776 193.466 411.6 194.194 411.6C195.434 411.6 196.334 411.928 196.894 412.584C197.462 413.24 197.746 414.152 197.746 415.32V424.5H195.73V416.808C195.73 415.944 195.682 415.248 195.586 414.72C195.49 414.184 195.29 413.796 194.986 413.556C194.682 413.308 194.21 413.184 193.57 413.184C193.074 413.184 192.606 413.292 192.166 413.508C191.734 413.724 191.346 413.996 191.002 414.324C190.666 414.644 190.386 414.968 190.162 415.296V424.5H188.146ZM212.809 410.52L213.433 412.416C212.897 412.584 212.325 412.688 211.717 412.728C211.109 412.768 210.449 412.788 209.737 412.788C210.465 413.124 211.013 413.56 211.381 414.096C211.749 414.624 211.933 415.248 211.933 415.968C211.933 416.8 211.745 417.54 211.369 418.188C210.993 418.836 210.449 419.344 209.737 419.712C209.033 420.08 208.181 420.264 207.181 420.264C206.757 420.264 206.401 420.244 206.113 420.204C205.833 420.164 205.561 420.104 205.297 420.024C205.105 420.152 204.945 420.328 204.817 420.552C204.697 420.776 204.637 421.008 204.637 421.248C204.637 421.552 204.757 421.804 204.997 422.004C205.237 422.204 205.681 422.304 206.329 422.304H208.609C209.457 422.304 210.217 422.456 210.889 422.76C211.569 423.064 212.101 423.472 212.485 423.984C212.877 424.496 213.073 425.08 213.073 425.736C213.073 426.976 212.545 427.928 211.489 428.592C210.441 429.256 208.957 429.588 207.037 429.588C205.693 429.588 204.633 429.448 203.857 429.168C203.081 428.896 202.525 428.476 202.189 427.908C201.861 427.348 201.697 426.64 201.697 425.784H203.521C203.521 426.272 203.617 426.676 203.809 426.996C204.001 427.316 204.349 427.552 204.853 427.704C205.357 427.864 206.081 427.944 207.025 427.944C207.953 427.944 208.709 427.864 209.293 427.704C209.885 427.552 210.321 427.32 210.601 427.008C210.889 426.704 211.033 426.324 211.033 425.868C211.033 425.268 210.761 424.816 210.217 424.512C209.673 424.208 208.993 424.056 208.177 424.056H205.921C204.833 424.056 204.029 423.816 203.509 423.336C202.997 422.856 202.741 422.304 202.741 421.68C202.741 421.272 202.857 420.876 203.089 420.492C203.329 420.108 203.677 419.768 204.133 419.472C203.405 419.088 202.869 418.612 202.525 418.044C202.181 417.476 202.009 416.788 202.009 415.98C202.009 415.124 202.221 414.368 202.645 413.712C203.069 413.048 203.661 412.528 204.421 412.152C205.181 411.776 206.057 411.588 207.049 411.588C208.113 411.58 208.977 411.536 209.641 411.456C210.305 411.368 210.873 411.244 211.345 411.084C211.825 410.924 212.313 410.736 212.809 410.52ZM207.049 413.064C206.033 413.064 205.281 413.34 204.793 413.892C204.313 414.436 204.073 415.132 204.073 415.98C204.073 416.836 204.321 417.54 204.817 418.092C205.313 418.644 206.073 418.92 207.097 418.92C207.993 418.92 208.673 418.66 209.137 418.14C209.609 417.62 209.845 416.896 209.845 415.968C209.845 415.016 209.609 414.296 209.137 413.808C208.673 413.312 207.977 413.064 207.049 413.064Z" fill="black"/>
<line x1="85" y1="344.75" x2="439" y2="344.75" stroke="black" stroke-width="3"/>
<path d="M97.876 319.928C97.876 320.872 97.64 321.712 97.168 322.448C96.696 323.176 96.012 323.748 95.116 324.164C94.22 324.572 93.128 324.776 91.84 324.776C90.632 324.776 89.536 324.592 88.552 324.224C87.576 323.856 86.74 323.336 86.044 322.664L87.28 321.272C87.856 321.808 88.516 322.236 89.26 322.556C90.004 322.868 90.876 323.024 91.876 323.024C92.548 323.024 93.176 322.916 93.76 322.7C94.344 322.476 94.816 322.14 95.176 321.692C95.536 321.236 95.716 320.66 95.716 319.964C95.716 319.428 95.612 318.972 95.404 318.596C95.196 318.22 94.828 317.888 94.3 317.6C93.772 317.304 93.036 317.016 92.092 316.736C91.004 316.416 90.06 316.056 89.26 315.656C88.468 315.248 87.852 314.748 87.412 314.156C86.98 313.564 86.764 312.832 86.764 311.96C86.764 311.136 86.992 310.404 87.448 309.764C87.904 309.124 88.532 308.624 89.332 308.264C90.14 307.896 91.068 307.712 92.116 307.712C93.26 307.712 94.252 307.876 95.092 308.204C95.94 308.524 96.708 308.988 97.396 309.596L96.172 310.952C95.58 310.424 94.944 310.044 94.264 309.812C93.584 309.572 92.892 309.452 92.188 309.452C91.588 309.452 91.036 309.544 90.532 309.728C90.036 309.904 89.636 310.172 89.332 310.532C89.036 310.884 88.888 311.336 88.888 311.888C88.888 312.36 89.016 312.768 89.272 313.112C89.528 313.456 89.96 313.772 90.568 314.06C91.176 314.34 92.004 314.636 93.052 314.948C93.908 315.196 94.7 315.508 95.428 315.884C96.164 316.252 96.756 316.756 97.204 317.396C97.652 318.028 97.876 318.872 97.876 319.928ZM106.615 311.6C107.807 311.6 108.803 311.872 109.603 312.416C110.411 312.952 111.015 313.712 111.415 314.696C111.823 315.68 112.027 316.84 112.027 318.176C112.027 319.464 111.819 320.604 111.403 321.596C110.987 322.588 110.375 323.368 109.567 323.936C108.767 324.496 107.775 324.776 106.591 324.776C105.407 324.776 104.411 324.504 103.603 323.96C102.795 323.416 102.183 322.652 101.767 321.668C101.359 320.676 101.155 319.52 101.155 318.2C101.155 316.896 101.363 315.748 101.779 314.756C102.195 313.764 102.807 312.992 103.615 312.44C104.431 311.88 105.431 311.6 106.615 311.6ZM106.615 313.244C105.527 313.244 104.703 313.648 104.143 314.456C103.591 315.256 103.315 316.504 103.315 318.2C103.315 319.864 103.587 321.1 104.131 321.908C104.683 322.716 105.503 323.12 106.591 323.12C107.679 323.12 108.495 322.716 109.039 321.908C109.591 321.1 109.867 319.856 109.867 318.176C109.867 316.496 109.595 315.256 109.051 314.456C108.507 313.648 107.695 313.244 106.615 313.244ZM124.521 311.6C124.929 311.6 125.317 311.688 125.685 311.864C126.061 312.04 126.369 312.38 126.609 312.884C126.849 313.388 126.969 314.124 126.969 315.092V324.5H125.097V315.416C125.097 314.624 125.049 314.052 124.953 313.7C124.857 313.348 124.581 313.172 124.125 313.172C123.749 313.172 123.373 313.292 122.997 313.532C122.629 313.764 122.269 314.148 121.917 314.684V324.5H120.033V315.416C120.033 314.624 119.985 314.052 119.889 313.7C119.793 313.348 119.517 313.172 119.061 313.172C118.669 313.172 118.289 313.292 117.921 313.532C117.561 313.764 117.205 314.148 116.853 314.684V324.5H114.993V311.864H116.577L116.697 313.328C117.041 312.84 117.425 312.432 117.849 312.104C118.281 311.768 118.813 311.6 119.445 311.6C119.925 311.6 120.377 311.716 120.801 311.948C121.225 312.172 121.537 312.612 121.737 313.268C122.081 312.772 122.469 312.372 122.901 312.068C123.333 311.756 123.873 311.6 124.521 311.6ZM132.168 318.896C132.208 319.872 132.396 320.672 132.732 321.296C133.068 321.912 133.512 322.368 134.064 322.664C134.616 322.952 135.216 323.096 135.864 323.096C136.512 323.096 137.096 323 137.616 322.808C138.144 322.616 138.684 322.332 139.236 321.956L140.184 323.288C139.592 323.752 138.916 324.116 138.156 324.38C137.404 324.644 136.632 324.776 135.84 324.776C134.616 324.776 133.572 324.5 132.708 323.948C131.844 323.396 131.184 322.628 130.728 321.644C130.28 320.652 130.056 319.504 130.056 318.2C130.056 316.92 130.284 315.784 130.74 314.792C131.196 313.8 131.836 313.02 132.66 312.452C133.484 311.884 134.456 311.6 135.576 311.6C136.64 311.6 137.556 311.852 138.324 312.356C139.092 312.852 139.68 313.564 140.088 314.492C140.504 315.412 140.712 316.512 140.712 317.792C140.712 318.008 140.708 318.212 140.7 318.404C140.692 318.588 140.68 318.752 140.664 318.896H132.168ZM135.6 313.256C134.664 313.256 133.88 313.588 133.248 314.252C132.624 314.916 132.268 315.944 132.18 317.336H138.768C138.744 315.984 138.448 314.968 137.88 314.288C137.312 313.6 136.552 313.256 135.6 313.256ZM155.007 323.864C154.575 324.152 154.051 324.376 153.435 324.536C152.819 324.696 152.215 324.776 151.623 324.776C150.263 324.776 149.215 324.42 148.479 323.708C147.743 322.996 147.375 322.08 147.375 320.96V313.424H144.471V311.864H147.375V308.996L149.391 308.756V311.864H153.759L153.519 313.424H149.391V320.936C149.391 321.64 149.575 322.176 149.943 322.544C150.319 322.912 150.939 323.096 151.803 323.096C152.275 323.096 152.711 323.04 153.111 322.928C153.511 322.816 153.883 322.672 154.227 322.496L155.007 323.864ZM161.381 306.584V313.592C161.877 312.928 162.485 312.432 163.205 312.104C163.933 311.768 164.669 311.6 165.413 311.6C166.645 311.6 167.545 311.928 168.113 312.584C168.681 313.24 168.965 314.152 168.965 315.32V324.5H166.949V315.368C166.949 314.608 166.773 314.056 166.421 313.712C166.069 313.36 165.517 313.184 164.765 313.184C164.285 313.184 163.829 313.292 163.397 313.508C162.965 313.724 162.577 313.992 162.233 314.312C161.889 314.632 161.605 314.96 161.381 315.296V324.5H159.365V306.8L161.381 306.584ZM180.152 311.864V322.904H183.716V324.5H174.236V322.904H178.136V313.46H174.356V311.864H180.152ZM178.544 305.948C178.992 305.948 179.348 306.084 179.612 306.356C179.884 306.628 180.02 306.96 180.02 307.352C180.02 307.76 179.884 308.104 179.612 308.384C179.348 308.656 178.992 308.792 178.544 308.792C178.12 308.792 177.772 308.656 177.5 308.384C177.228 308.104 177.092 307.76 177.092 307.352C177.092 306.96 177.228 306.628 177.5 306.356C177.772 306.084 178.12 305.948 178.544 305.948ZM188.146 324.5V311.864H189.862L190.018 313.616C190.53 312.968 191.17 312.472 191.938 312.128C192.714 311.776 193.466 311.6 194.194 311.6C195.434 311.6 196.334 311.928 196.894 312.584C197.462 313.24 197.746 314.152 197.746 315.32V324.5H195.73V316.808C195.73 315.944 195.682 315.248 195.586 314.72C195.49 314.184 195.29 313.796 194.986 313.556C194.682 313.308 194.21 313.184 193.57 313.184C193.074 313.184 192.606 313.292 192.166 313.508C191.734 313.724 191.346 313.996 191.002 314.324C190.666 314.644 190.386 314.968 190.162 315.296V324.5H188.146ZM212.809 310.52L213.433 312.416C212.897 312.584 212.325 312.688 211.717 312.728C211.109 312.768 210.449 312.788 209.737 312.788C210.465 313.124 211.013 313.56 211.381 314.096C211.749 314.624 211.933 315.248 211.933 315.968C211.933 316.8 211.745 317.54 211.369 318.188C210.993 318.836 210.449 319.344 209.737 319.712C209.033 320.08 208.181 320.264 207.181 320.264C206.757 320.264 206.401 320.244 206.113 320.204C205.833 320.164 205.561 320.104 205.297 320.024C205.105 320.152 204.945 320.328 204.817 320.552C204.697 320.776 204.637 321.008 204.637 321.248C204.637 321.552 204.757 321.804 204.997 322.004C205.237 322.204 205.681 322.304 206.329 322.304H208.609C209.457 322.304 210.217 322.456 210.889 322.76C211.569 323.064 212.101 323.472 212.485 323.984C212.877 324.496 213.073 325.08 213.073 325.736C213.073 326.976 212.545 327.928 211.489 328.592C210.441 329.256 208.957 329.588 207.037 329.588C205.693 329.588 204.633 329.448 203.857 329.168C203.081 328.896 202.525 328.476 202.189 327.908C201.861 327.348 201.697 326.64 201.697 325.784H203.521C203.521 326.272 203.617 326.676 203.809 326.996C204.001 327.316 204.349 327.552 204.853 327.704C205.357 327.864 206.081 327.944 207.025 327.944C207.953 327.944 208.709 327.864 209.293 327.704C209.885 327.552 210.321 327.32 210.601 327.008C210.889 326.704 211.033 326.324 211.033 325.868C211.033 325.268 210.761 324.816 210.217 324.512C209.673 324.208 208.993 324.056 208.177 324.056H205.921C204.833 324.056 204.029 323.816 203.509 323.336C202.997 322.856 202.741 322.304 202.741 321.68C202.741 321.272 202.857 320.876 203.089 320.492C203.329 320.108 203.677 319.768 204.133 319.472C203.405 319.088 202.869 318.612 202.525 318.044C202.181 317.476 202.009 316.788 202.009 315.98C202.009 315.124 202.221 314.368 202.645 313.712C203.069 313.048 203.661 312.528 204.421 312.152C205.181 311.776 206.057 311.588 207.049 311.588C208.113 311.58 208.977 311.536 209.641 311.456C210.305 311.368 210.873 311.244 211.345 311.084C211.825 310.924 212.313 310.736 212.809 310.52ZM207.049 313.064C206.033 313.064 205.281 313.34 204.793 313.892C204.313 314.436 204.073 315.132 204.073 315.98C204.073 316.836 204.321 317.54 204.817 318.092C205.313 318.644 206.073 318.92 207.097 318.92C207.993 318.92 208.673 318.66 209.137 318.14C209.609 317.62 209.845 316.896 209.845 315.968C209.845 315.016 209.609 314.296 209.137 313.808C208.673 313.312 207.977 313.064 207.049 313.064Z" fill="black"/>
<line x1="85" y1="544.75" x2="439" y2="544.75" stroke="black" stroke-width="3"/>
<path d="M97.876 519.928C97.876 520.872 97.64 521.712 97.168 522.448C96.696 523.176 96.012 523.748 95.116 524.164C94.22 524.572 93.128 524.776 91.84 524.776C90.632 524.776 89.536 524.592 88.552 524.224C87.576 523.856 86.74 523.336 86.044 522.664L87.28 521.272C87.856 521.808 88.516 522.236 89.26 522.556C90.004 522.868 90.876 523.024 91.876 523.024C92.548 523.024 93.176 522.916 93.76 522.7C94.344 522.476 94.816 522.14 95.176 521.692C95.536 521.236 95.716 520.66 95.716 519.964C95.716 519.428 95.612 518.972 95.404 518.596C95.196 518.22 94.828 517.888 94.3 517.6C93.772 517.304 93.036 517.016 92.092 516.736C91.004 516.416 90.06 516.056 89.26 515.656C88.468 515.248 87.852 514.748 87.412 514.156C86.98 513.564 86.764 512.832 86.764 511.96C86.764 511.136 86.992 510.404 87.448 509.764C87.904 509.124 88.532 508.624 89.332 508.264C90.14 507.896 91.068 507.712 92.116 507.712C93.26 507.712 94.252 507.876 95.092 508.204C95.94 508.524 96.708 508.988 97.396 509.596L96.172 510.952C95.58 510.424 94.944 510.044 94.264 509.812C93.584 509.572 92.892 509.452 92.188 509.452C91.588 509.452 91.036 509.544 90.532 509.728C90.036 509.904 89.636 510.172 89.332 510.532C89.036 510.884 88.888 511.336 88.888 511.888C88.888 512.36 89.016 512.768 89.272 513.112C89.528 513.456 89.96 513.772 90.568 514.06C91.176 514.34 92.004 514.636 93.052 514.948C93.908 515.196 94.7 515.508 95.428 515.884C96.164 516.252 96.756 516.756 97.204 517.396C97.652 518.028 97.876 518.872 97.876 519.928ZM106.615 511.6C107.807 511.6 108.803 511.872 109.603 512.416C110.411 512.952 111.015 513.712 111.415 514.696C111.823 515.68 112.027 516.84 112.027 518.176C112.027 519.464 111.819 520.604 111.403 521.596C110.987 522.588 110.375 523.368 109.567 523.936C108.767 524.496 107.775 524.776 106.591 524.776C105.407 524.776 104.411 524.504 103.603 523.96C102.795 523.416 102.183 522.652 101.767 521.668C101.359 520.676 101.155 519.52 101.155 518.2C101.155 516.896 101.363 515.748 101.779 514.756C102.195 513.764 102.807 512.992 103.615 512.44C104.431 511.88 105.431 511.6 106.615 511.6ZM106.615 513.244C105.527 513.244 104.703 513.648 104.143 514.456C103.591 515.256 103.315 516.504 103.315 518.2C103.315 519.864 103.587 521.1 104.131 521.908C104.683 522.716 105.503 523.12 106.591 523.12C107.679 523.12 108.495 522.716 109.039 521.908C109.591 521.1 109.867 519.856 109.867 518.176C109.867 516.496 109.595 515.256 109.051 514.456C108.507 513.648 107.695 513.244 106.615 513.244ZM124.521 511.6C124.929 511.6 125.317 511.688 125.685 511.864C126.061 512.04 126.369 512.38 126.609 512.884C126.849 513.388 126.969 514.124 126.969 515.092V524.5H125.097V515.416C125.097 514.624 125.049 514.052 124.953 513.7C124.857 513.348 124.581 513.172 124.125 513.172C123.749 513.172 123.373 513.292 122.997 513.532C122.629 513.764 122.269 514.148 121.917 514.684V524.5H120.033V515.416C120.033 514.624 119.985 514.052 119.889 513.7C119.793 513.348 119.517 513.172 119.061 513.172C118.669 513.172 118.289 513.292 117.921 513.532C117.561 513.764 117.205 514.148 116.853 514.684V524.5H114.993V511.864H116.577L116.697 513.328C117.041 512.84 117.425 512.432 117.849 512.104C118.281 511.768 118.813 511.6 119.445 511.6C119.925 511.6 120.377 511.716 120.801 511.948C121.225 512.172 121.537 512.612 121.737 513.268C122.081 512.772 122.469 512.372 122.901 512.068C123.333 511.756 123.873 511.6 124.521 511.6ZM132.168 518.896C132.208 519.872 132.396 520.672 132.732 521.296C133.068 521.912 133.512 522.368 134.064 522.664C134.616 522.952 135.216 523.096 135.864 523.096C136.512 523.096 137.096 523 137.616 522.808C138.144 522.616 138.684 522.332 139.236 521.956L140.184 523.288C139.592 523.752 138.916 524.116 138.156 524.38C137.404 524.644 136.632 524.776 135.84 524.776C134.616 524.776 133.572 524.5 132.708 523.948C131.844 523.396 131.184 522.628 130.728 521.644C130.28 520.652 130.056 519.504 130.056 518.2C130.056 516.92 130.284 515.784 130.74 514.792C131.196 513.8 131.836 513.02 132.66 512.452C133.484 511.884 134.456 511.6 135.576 511.6C136.64 511.6 137.556 511.852 138.324 512.356C139.092 512.852 139.68 513.564 140.088 514.492C140.504 515.412 140.712 516.512 140.712 517.792C140.712 518.008 140.708 518.212 140.7 518.404C140.692 518.588 140.68 518.752 140.664 518.896H132.168ZM135.6 513.256C134.664 513.256 133.88 513.588 133.248 514.252C132.624 514.916 132.268 515.944 132.18 517.336H138.768C138.744 515.984 138.448 514.968 137.88 514.288C137.312 513.6 136.552 513.256 135.6 513.256ZM155.007 523.864C154.575 524.152 154.051 524.376 153.435 524.536C152.819 524.696 152.215 524.776 151.623 524.776C150.263 524.776 149.215 524.42 148.479 523.708C147.743 522.996 147.375 522.08 147.375 520.96V513.424H144.471V511.864H147.375V508.996L149.391 508.756V511.864H153.759L153.519 513.424H149.391V520.936C149.391 521.64 149.575 522.176 149.943 522.544C150.319 522.912 150.939 523.096 151.803 523.096C152.275 523.096 152.711 523.04 153.111 522.928C153.511 522.816 153.883 522.672 154.227 522.496L155.007 523.864ZM161.381 506.584V513.592C161.877 512.928 162.485 512.432 163.205 512.104C163.933 511.768 164.669 511.6 165.413 511.6C166.645 511.6 167.545 511.928 168.113 512.584C168.681 513.24 168.965 514.152 168.965 515.32V524.5H166.949V515.368C166.949 514.608 166.773 514.056 166.421 513.712C166.069 513.36 165.517 513.184 164.765 513.184C164.285 513.184 163.829 513.292 163.397 513.508C162.965 513.724 162.577 513.992 162.233 514.312C161.889 514.632 161.605 514.96 161.381 515.296V524.5H159.365V506.8L161.381 506.584ZM180.152 511.864V522.904H183.716V524.5H174.236V522.904H178.136V513.46H174.356V511.864H180.152ZM178.544 505.948C178.992 505.948 179.348 506.084 179.612 506.356C179.884 506.628 180.02 506.96 180.02 507.352C180.02 507.76 179.884 508.104 179.612 508.384C179.348 508.656 178.992 508.792 178.544 508.792C178.12 508.792 177.772 508.656 177.5 508.384C177.228 508.104 177.092 507.76 177.092 507.352C177.092 506.96 177.228 506.628 177.5 506.356C177.772 506.084 178.12 505.948 178.544 505.948ZM188.146 524.5V511.864H189.862L190.018 513.616C190.53 512.968 191.17 512.472 191.938 512.128C192.714 511.776 193.466 511.6 194.194 511.6C195.434 511.6 196.334 511.928 196.894 512.584C197.462 513.24 197.746 514.152 197.746 515.32V524.5H195.73V516.808C195.73 515.944 195.682 515.248 195.586 514.72C195.49 514.184 195.29 513.796 194.986 513.556C194.682 513.308 194.21 513.184 193.57 513.184C193.074 513.184 192.606 513.292 192.166 513.508C191.734 513.724 191.346 513.996 191.002 514.324C190.666 514.644 190.386 514.968 190.162 515.296V524.5H188.146ZM212.809 510.52L213.433 512.416C212.897 512.584 212.325 512.688 211.717 512.728C211.109 512.768 210.449 512.788 209.737 512.788C210.465 513.124 211.013 513.56 211.381 514.096C211.749 514.624 211.933 515.248 211.933 515.968C211.933 516.8 211.745 517.54 211.369 518.188C210.993 518.836 210.449 519.344 209.737 519.712C209.033 520.08 208.181 520.264 207.181 520.264C206.757 520.264 206.401 520.244 206.113 520.204C205.833 520.164 205.561 520.104 205.297 520.024C205.105 520.152 204.945 520.328 204.817 520.552C204.697 520.776 204.637 521.008 204.637 521.248C204.637 521.552 204.757 521.804 204.997 522.004C205.237 522.204 205.681 522.304 206.329 522.304H208.609C209.457 522.304 210.217 522.456 210.889 522.76C211.569 523.064 212.101 523.472 212.485 523.984C212.877 524.496 213.073 525.08 213.073 525.736C213.073 526.976 212.545 527.928 211.489 528.592C210.441 529.256 208.957 529.588 207.037 529.588C205.693 529.588 204.633 529.448 203.857 529.168C203.081 528.896 202.525 528.476 202.189 527.908C201.861 527.348 201.697 526.64 201.697 525.784H203.521C203.521 526.272 203.617 526.676 203.809 526.996C204.001 527.316 204.349 527.552 204.853 527.704C205.357 527.864 206.081 527.944 207.025 527.944C207.953 527.944 208.709 527.864 209.293 527.704C209.885 527.552 210.321 527.32 210.601 527.008C210.889 526.704 211.033 526.324 211.033 525.868C211.033 525.268 210.761 524.816 210.217 524.512C209.673 524.208 208.993 524.056 208.177 524.056H205.921C204.833 524.056 204.029 523.816 203.509 523.336C202.997 522.856 202.741 522.304 202.741 521.68C202.741 521.272 202.857 520.876 203.089 520.492C203.329 520.108 203.677 519.768 204.133 519.472C203.405 519.088 202.869 518.612 202.525 518.044C202.181 517.476 202.009 516.788 202.009 515.98C202.009 515.124 202.221 514.368 202.645 513.712C203.069 513.048 203.661 512.528 204.421 512.152C205.181 511.776 206.057 511.588 207.049 511.588C208.113 511.58 208.977 511.536 209.641 511.456C210.305 511.368 210.873 511.244 211.345 511.084C211.825 510.924 212.313 510.736 212.809 510.52ZM207.049 513.064C206.033 513.064 205.281 513.34 204.793 513.892C204.313 514.436 204.073 515.132 204.073 515.98C204.073 516.836 204.321 517.54 204.817 518.092C205.313 518.644 206.073 518.92 207.097 518.92C207.993 518.92 208.673 518.66 209.137 518.14C209.609 517.62 209.845 516.896 209.845 515.968C209.845 515.016 209.609 514.296 209.137 513.808C208.673 513.312 207.977 513.064 207.049 513.064Z" fill="black"/>
<line x1="85" y1="633.5" x2="439" y2="633.5" stroke="black" stroke-width="3"/>
<path d="M97.876 608.678C97.876 609.622 97.64 610.462 97.168 611.198C96.696 611.926 96.012 612.498 95.116 612.914C94.22 613.322 93.128 613.526 91.84 613.526C90.632 613.526 89.536 613.342 88.552 612.974C87.576 612.606 86.74 612.086 86.044 611.414L87.28 610.022C87.856 610.558 88.516 610.986 89.26 611.306C90.004 611.618 90.876 611.774 91.876 611.774C92.548 611.774 93.176 611.666 93.76 611.45C94.344 611.226 94.816 610.89 95.176 610.442C95.536 609.986 95.716 609.41 95.716 608.714C95.716 608.178 95.612 607.722 95.404 607.346C95.196 606.97 94.828 606.638 94.3 606.35C93.772 606.054 93.036 605.766 92.092 605.486C91.004 605.166 90.06 604.806 89.26 604.406C88.468 603.998 87.852 603.498 87.412 602.906C86.98 602.314 86.764 601.582 86.764 600.71C86.764 599.886 86.992 599.154 87.448 598.514C87.904 597.874 88.532 597.374 89.332 597.014C90.14 596.646 91.068 596.462 92.116 596.462C93.26 596.462 94.252 596.626 95.092 596.954C95.94 597.274 96.708 597.738 97.396 598.346L96.172 599.702C95.58 599.174 94.944 598.794 94.264 598.562C93.584 598.322 92.892 598.202 92.188 598.202C91.588 598.202 91.036 598.294 90.532 598.478C90.036 598.654 89.636 598.922 89.332 599.282C89.036 599.634 88.888 600.086 88.888 600.638C88.888 601.11 89.016 601.518 89.272 601.862C89.528 602.206 89.96 602.522 90.568 602.81C91.176 603.09 92.004 603.386 93.052 603.698C93.908 603.946 94.7 604.258 95.428 604.634C96.164 605.002 96.756 605.506 97.204 606.146C97.652 606.778 97.876 607.622 97.876 608.678ZM106.615 600.35C107.807 600.35 108.803 600.622 109.603 601.166C110.411 601.702 111.015 602.462 111.415 603.446C111.823 604.43 112.027 605.59 112.027 606.926C112.027 608.214 111.819 609.354 111.403 610.346C110.987 611.338 110.375 612.118 109.567 612.686C108.767 613.246 107.775 613.526 106.591 613.526C105.407 613.526 104.411 613.254 103.603 612.71C102.795 612.166 102.183 611.402 101.767 610.418C101.359 609.426 101.155 608.27 101.155 606.95C101.155 605.646 101.363 604.498 101.779 603.506C102.195 602.514 102.807 601.742 103.615 601.19C104.431 600.63 105.431 600.35 106.615 600.35ZM106.615 601.994C105.527 601.994 104.703 602.398 104.143 603.206C103.591 604.006 103.315 605.254 103.315 606.95C103.315 608.614 103.587 609.85 104.131 610.658C104.683 611.466 105.503 611.87 106.591 611.87C107.679 611.87 108.495 611.466 109.039 610.658C109.591 609.85 109.867 608.606 109.867 606.926C109.867 605.246 109.595 604.006 109.051 603.206C108.507 602.398 107.695 601.994 106.615 601.994ZM124.521 600.35C124.929 600.35 125.317 600.438 125.685 600.614C126.061 600.79 126.369 601.13 126.609 601.634C126.849 602.138 126.969 602.874 126.969 603.842V613.25H125.097V604.166C125.097 603.374 125.049 602.802 124.953 602.45C124.857 602.098 124.581 601.922 124.125 601.922C123.749 601.922 123.373 602.042 122.997 602.282C122.629 602.514 122.269 602.898 121.917 603.434V613.25H120.033V604.166C120.033 603.374 119.985 602.802 119.889 602.45C119.793 602.098 119.517 601.922 119.061 601.922C118.669 601.922 118.289 602.042 117.921 602.282C117.561 602.514 117.205 602.898 116.853 603.434V613.25H114.993V600.614H116.577L116.697 602.078C117.041 601.59 117.425 601.182 117.849 600.854C118.281 600.518 118.813 600.35 119.445 600.35C119.925 600.35 120.377 600.466 120.801 600.698C121.225 600.922 121.537 601.362 121.737 602.018C122.081 601.522 122.469 601.122 122.901 600.818C123.333 600.506 123.873 600.35 124.521 600.35ZM132.168 607.646C132.208 608.622 132.396 609.422 132.732 610.046C133.068 610.662 133.512 611.118 134.064 611.414C134.616 611.702 135.216 611.846 135.864 611.846C136.512 611.846 137.096 611.75 137.616 611.558C138.144 611.366 138.684 611.082 139.236 610.706L140.184 612.038C139.592 612.502 138.916 612.866 138.156 613.13C137.404 613.394 136.632 613.526 135.84 613.526C134.616 613.526 133.572 613.25 132.708 612.698C131.844 612.146 131.184 611.378 130.728 610.394C130.28 609.402 130.056 608.254 130.056 606.95C130.056 605.67 130.284 604.534 130.74 603.542C131.196 602.55 131.836 601.77 132.66 601.202C133.484 600.634 134.456 600.35 135.576 600.35C136.64 600.35 137.556 600.602 138.324 601.106C139.092 601.602 139.68 602.314 140.088 603.242C140.504 604.162 140.712 605.262 140.712 606.542C140.712 606.758 140.708 606.962 140.7 607.154C140.692 607.338 140.68 607.502 140.664 607.646H132.168ZM135.6 602.006C134.664 602.006 133.88 602.338 133.248 603.002C132.624 603.666 132.268 604.694 132.18 606.086H138.768C138.744 604.734 138.448 603.718 137.88 603.038C137.312 602.35 136.552 602.006 135.6 602.006ZM155.007 612.614C154.575 612.902 154.051 613.126 153.435 613.286C152.819 613.446 152.215 613.526 151.623 613.526C150.263 613.526 149.215 613.17 148.479 612.458C147.743 611.746 147.375 610.83 147.375 609.71V602.174H144.471V600.614H147.375V597.746L149.391 597.506V600.614H153.759L153.519 602.174H149.391V609.686C149.391 610.39 149.575 610.926 149.943 611.294C150.319 611.662 150.939 611.846 151.803 611.846C152.275 611.846 152.711 611.79 153.111 611.678C153.511 611.566 153.883 611.422 154.227 611.246L155.007 612.614ZM161.381 595.334V602.342C161.877 601.678 162.485 601.182 163.205 600.854C163.933 600.518 164.669 600.35 165.413 600.35C166.645 600.35 167.545 600.678 168.113 601.334C168.681 601.99 168.965 602.902 168.965 604.07V613.25H166.949V604.118C166.949 603.358 166.773 602.806 166.421 602.462C166.069 602.11 165.517 601.934 164.765 601.934C164.285 601.934 163.829 602.042 163.397 602.258C162.965 602.474 162.577 602.742 162.233 603.062C161.889 603.382 161.605 603.71 161.381 604.046V613.25H159.365V595.55L161.381 595.334ZM180.152 600.614V611.654H183.716V613.25H174.236V611.654H178.136V602.21H174.356V600.614H180.152ZM178.544 594.698C178.992 594.698 179.348 594.834 179.612 595.106C179.884 595.378 180.02 595.71 180.02 596.102C180.02 596.51 179.884 596.854 179.612 597.134C179.348 597.406 178.992 597.542 178.544 597.542C178.12 597.542 177.772 597.406 177.5 597.134C177.228 596.854 177.092 596.51 177.092 596.102C177.092 595.71 177.228 595.378 177.5 595.106C177.772 594.834 178.12 594.698 178.544 594.698ZM188.146 613.25V600.614H189.862L190.018 602.366C190.53 601.718 191.17 601.222 191.938 600.878C192.714 600.526 193.466 600.35 194.194 600.35C195.434 600.35 196.334 600.678 196.894 601.334C197.462 601.99 197.746 602.902 197.746 604.07V613.25H195.73V605.558C195.73 604.694 195.682 603.998 195.586 603.47C195.49 602.934 195.29 602.546 194.986 602.306C194.682 602.058 194.21 601.934 193.57 601.934C193.074 601.934 192.606 602.042 192.166 602.258C191.734 602.474 191.346 602.746 191.002 603.074C190.666 603.394 190.386 603.718 190.162 604.046V613.25H188.146ZM212.809 599.27L213.433 601.166C212.897 601.334 212.325 601.438 211.717 601.478C211.109 601.518 210.449 601.538 209.737 601.538C210.465 601.874 211.013 602.31 211.381 602.846C211.749 603.374 211.933 603.998 211.933 604.718C211.933 605.55 211.745 606.29 211.369 606.938C210.993 607.586 210.449 608.094 209.737 608.462C209.033 608.83 208.181 609.014 207.181 609.014C206.757 609.014 206.401 608.994 206.113 608.954C205.833 608.914 205.561 608.854 205.297 608.774C205.105 608.902 204.945 609.078 204.817 609.302C204.697 609.526 204.637 609.758 204.637 609.998C204.637 610.302 204.757 610.554 204.997 610.754C205.237 610.954 205.681 611.054 206.329 611.054H208.609C209.457 611.054 210.217 611.206 210.889 611.51C211.569 611.814 212.101 612.222 212.485 612.734C212.877 613.246 213.073 613.83 213.073 614.486C213.073 615.726 212.545 616.678 211.489 617.342C210.441 618.006 208.957 618.338 207.037 618.338C205.693 618.338 204.633 618.198 203.857 617.918C203.081 617.646 202.525 617.226 202.189 616.658C201.861 616.098 201.697 615.39 201.697 614.534H203.521C203.521 615.022 203.617 615.426 203.809 615.746C204.001 616.066 204.349 616.302 204.853 616.454C205.357 616.614 206.081 616.694 207.025 616.694C207.953 616.694 208.709 616.614 209.293 616.454C209.885 616.302 210.321 616.07 210.601 615.758C210.889 615.454 211.033 615.074 211.033 614.618C211.033 614.018 210.761 613.566 210.217 613.262C209.673 612.958 208.993 612.806 208.177 612.806H205.921C204.833 612.806 204.029 612.566 203.509 612.086C202.997 611.606 202.741 611.054 202.741 610.43C202.741 610.022 202.857 609.626 203.089 609.242C203.329 608.858 203.677 608.518 204.133 608.222C203.405 607.838 202.869 607.362 202.525 606.794C202.181 606.226 202.009 605.538 202.009 604.73C202.009 603.874 202.221 603.118 202.645 602.462C203.069 601.798 203.661 601.278 204.421 600.902C205.181 600.526 206.057 600.338 207.049 600.338C208.113 600.33 208.977 600.286 209.641 600.206C210.305 600.118 210.873 599.994 211.345 599.834C211.825 599.674 212.313 599.486 212.809 599.27ZM207.049 601.814C206.033 601.814 205.281 602.09 204.793 602.642C204.313 603.186 204.073 603.882 204.073 604.73C204.073 605.586 204.321 606.29 204.817 606.842C205.313 607.394 206.073 607.67 207.097 607.67C207.993 607.67 208.673 607.41 209.137 606.89C209.609 606.37 209.845 605.646 209.845 604.718C209.845 603.766 209.609 603.046 209.137 602.558C208.673 602.062 207.977 601.814 207.049 601.814Z" fill="black"/>
<line x1="85" y1="833.5" x2="439" y2="833.5" stroke="black" stroke-width="3"/>
<path d="M97.876 808.678C97.876 809.622 97.64 810.462 97.168 811.198C96.696 811.926 96.012 812.498 95.116 812.914C94.22 813.322 93.128 813.526 91.84 813.526C90.632 813.526 89.536 813.342 88.552 812.974C87.576 812.606 86.74 812.086 86.044 811.414L87.28 810.022C87.856 810.558 88.516 810.986 89.26 811.306C90.004 811.618 90.876 811.774 91.876 811.774C92.548 811.774 93.176 811.666 93.76 811.45C94.344 811.226 94.816 810.89 95.176 810.442C95.536 809.986 95.716 809.41 95.716 808.714C95.716 808.178 95.612 807.722 95.404 807.346C95.196 806.97 94.828 806.638 94.3 806.35C93.772 806.054 93.036 805.766 92.092 805.486C91.004 805.166 90.06 804.806 89.26 804.406C88.468 803.998 87.852 803.498 87.412 802.906C86.98 802.314 86.764 801.582 86.764 800.71C86.764 799.886 86.992 799.154 87.448 798.514C87.904 797.874 88.532 797.374 89.332 797.014C90.14 796.646 91.068 796.462 92.116 796.462C93.26 796.462 94.252 796.626 95.092 796.954C95.94 797.274 96.708 797.738 97.396 798.346L96.172 799.702C95.58 799.174 94.944 798.794 94.264 798.562C93.584 798.322 92.892 798.202 92.188 798.202C91.588 798.202 91.036 798.294 90.532 798.478C90.036 798.654 89.636 798.922 89.332 799.282C89.036 799.634 88.888 800.086 88.888 800.638C88.888 801.11 89.016 801.518 89.272 801.862C89.528 802.206 89.96 802.522 90.568 802.81C91.176 803.09 92.004 803.386 93.052 803.698C93.908 803.946 94.7 804.258 95.428 804.634C96.164 805.002 96.756 805.506 97.204 806.146C97.652 806.778 97.876 807.622 97.876 808.678ZM106.615 800.35C107.807 800.35 108.803 800.622 109.603 801.166C110.411 801.702 111.015 802.462 111.415 803.446C111.823 804.43 112.027 805.59 112.027 806.926C112.027 808.214 111.819 809.354 111.403 810.346C110.987 811.338 110.375 812.118 109.567 812.686C108.767 813.246 107.775 813.526 106.591 813.526C105.407 813.526 104.411 813.254 103.603 812.71C102.795 812.166 102.183 811.402 101.767 810.418C101.359 809.426 101.155 808.27 101.155 806.95C101.155 805.646 101.363 804.498 101.779 803.506C102.195 802.514 102.807 801.742 103.615 801.19C104.431 800.63 105.431 800.35 106.615 800.35ZM106.615 801.994C105.527 801.994 104.703 802.398 104.143 803.206C103.591 804.006 103.315 805.254 103.315 806.95C103.315 808.614 103.587 809.85 104.131 810.658C104.683 811.466 105.503 811.87 106.591 811.87C107.679 811.87 108.495 811.466 109.039 810.658C109.591 809.85 109.867 808.606 109.867 806.926C109.867 805.246 109.595 804.006 109.051 803.206C108.507 802.398 107.695 801.994 106.615 801.994ZM124.521 800.35C124.929 800.35 125.317 800.438 125.685 800.614C126.061 800.79 126.369 801.13 126.609 801.634C126.849 802.138 126.969 802.874 126.969 803.842V813.25H125.097V804.166C125.097 803.374 125.049 802.802 124.953 802.45C124.857 802.098 124.581 801.922 124.125 801.922C123.749 801.922 123.373 802.042 122.997 802.282C122.629 802.514 122.269 802.898 121.917 803.434V813.25H120.033V804.166C120.033 803.374 119.985 802.802 119.889 802.45C119.793 802.098 119.517 801.922 119.061 801.922C118.669 801.922 118.289 802.042 117.921 802.282C117.561 802.514 117.205 802.898 116.853 803.434V813.25H114.993V800.614H116.577L116.697 802.078C117.041 801.59 117.425 801.182 117.849 800.854C118.281 800.518 118.813 800.35 119.445 800.35C119.925 800.35 120.377 800.466 120.801 800.698C121.225 800.922 121.537 801.362 121.737 802.018C122.081 801.522 122.469 801.122 122.901 800.818C123.333 800.506 123.873 800.35 124.521 800.35ZM132.168 807.646C132.208 808.622 132.396 809.422 132.732 810.046C133.068 810.662 133.512 811.118 134.064 811.414C134.616 811.702 135.216 811.846 135.864 811.846C136.512 811.846 137.096 811.75 137.616 811.558C138.144 811.366 138.684 811.082 139.236 810.706L140.184 812.038C139.592 812.502 138.916 812.866 138.156 813.13C137.404 813.394 136.632 813.526 135.84 813.526C134.616 813.526 133.572 813.25 132.708 812.698C131.844 812.146 131.184 811.378 130.728 810.394C130.28 809.402 130.056 808.254 130.056 806.95C130.056 805.67 130.284 804.534 130.74 803.542C131.196 802.55 131.836 801.77 132.66 801.202C133.484 800.634 134.456 800.35 135.576 800.35C136.64 800.35 137.556 800.602 138.324 801.106C139.092 801.602 139.68 802.314 140.088 803.242C140.504 804.162 140.712 805.262 140.712 806.542C140.712 806.758 140.708 806.962 140.7 807.154C140.692 807.338 140.68 807.502 140.664 807.646H132.168ZM135.6 802.006C134.664 802.006 133.88 802.338 133.248 803.002C132.624 803.666 132.268 804.694 132.18 806.086H138.768C138.744 804.734 138.448 803.718 137.88 803.038C137.312 802.35 136.552 802.006 135.6 802.006ZM155.007 812.614C154.575 812.902 154.051 813.126 153.435 813.286C152.819 813.446 152.215 813.526 151.623 813.526C150.263 813.526 149.215 813.17 148.479 812.458C147.743 811.746 147.375 810.83 147.375 809.71V802.174H144.471V800.614H147.375V797.746L149.391 797.506V800.614H153.759L153.519 802.174H149.391V809.686C149.391 810.39 149.575 810.926 149.943 811.294C150.319 811.662 150.939 811.846 151.803 811.846C152.275 811.846 152.711 811.79 153.111 811.678C153.511 811.566 153.883 811.422 154.227 811.246L155.007 812.614ZM161.381 795.334V802.342C161.877 801.678 162.485 801.182 163.205 800.854C163.933 800.518 164.669 800.35 165.413 800.35C166.645 800.35 167.545 800.678 168.113 801.334C168.681 801.99 168.965 802.902 168.965 804.07V813.25H166.949V804.118C166.949 803.358 166.773 802.806 166.421 802.462C166.069 802.11 165.517 801.934 164.765 801.934C164.285 801.934 163.829 802.042 163.397 802.258C162.965 802.474 162.577 802.742 162.233 803.062C161.889 803.382 161.605 803.71 161.381 804.046V813.25H159.365V795.55L161.381 795.334ZM180.152 800.614V811.654H183.716V813.25H174.236V811.654H178.136V802.21H174.356V800.614H180.152ZM178.544 794.698C178.992 794.698 179.348 794.834 179.612 795.106C179.884 795.378 180.02 795.71 180.02 796.102C180.02 796.51 179.884 796.854 179.612 797.134C179.348 797.406 178.992 797.542 178.544 797.542C178.12 797.542 177.772 797.406 177.5 797.134C177.228 796.854 177.092 796.51 177.092 796.102C177.092 795.71 177.228 795.378 177.5 795.106C177.772 794.834 178.12 794.698 178.544 794.698ZM188.146 813.25V800.614H189.862L190.018 802.366C190.53 801.718 191.17 801.222 191.938 800.878C192.714 800.526 193.466 800.35 194.194 800.35C195.434 800.35 196.334 800.678 196.894 801.334C197.462 801.99 197.746 802.902 197.746 804.07V813.25H195.73V805.558C195.73 804.694 195.682 803.998 195.586 803.47C195.49 802.934 195.29 802.546 194.986 802.306C194.682 802.058 194.21 801.934 193.57 801.934C193.074 801.934 192.606 802.042 192.166 802.258C191.734 802.474 191.346 802.746 191.002 803.074C190.666 803.394 190.386 803.718 190.162 804.046V813.25H188.146ZM212.809 799.27L213.433 801.166C212.897 801.334 212.325 801.438 211.717 801.478C211.109 801.518 210.449 801.538 209.737 801.538C210.465 801.874 211.013 802.31 211.381 802.846C211.749 803.374 211.933 803.998 211.933 804.718C211.933 805.55 211.745 806.29 211.369 806.938C210.993 807.586 210.449 808.094 209.737 808.462C209.033 808.83 208.181 809.014 207.181 809.014C206.757 809.014 206.401 808.994 206.113 808.954C205.833 808.914 205.561 808.854 205.297 808.774C205.105 808.902 204.945 809.078 204.817 809.302C204.697 809.526 204.637 809.758 204.637 809.998C204.637 810.302 204.757 810.554 204.997 810.754C205.237 810.954 205.681 811.054 206.329 811.054H208.609C209.457 811.054 210.217 811.206 210.889 811.51C211.569 811.814 212.101 812.222 212.485 812.734C212.877 813.246 213.073 813.83 213.073 814.486C213.073 815.726 212.545 816.678 211.489 817.342C210.441 818.006 208.957 818.338 207.037 818.338C205.693 818.338 204.633 818.198 203.857 817.918C203.081 817.646 202.525 817.226 202.189 816.658C201.861 816.098 201.697 815.39 201.697 814.534H203.521C203.521 815.022 203.617 815.426 203.809 815.746C204.001 816.066 204.349 816.302 204.853 816.454C205.357 816.614 206.081 816.694 207.025 816.694C207.953 816.694 208.709 816.614 209.293 816.454C209.885 816.302 210.321 816.07 210.601 815.758C210.889 815.454 211.033 815.074 211.033 814.618C211.033 814.018 210.761 813.566 210.217 813.262C209.673 812.958 208.993 812.806 208.177 812.806H205.921C204.833 812.806 204.029 812.566 203.509 812.086C202.997 811.606 202.741 811.054 202.741 810.43C202.741 810.022 202.857 809.626 203.089 809.242C203.329 808.858 203.677 808.518 204.133 808.222C203.405 807.838 202.869 807.362 202.525 806.794C202.181 806.226 202.009 805.538 202.009 804.73C202.009 803.874 202.221 803.118 202.645 802.462C203.069 801.798 203.661 801.278 204.421 800.902C205.181 800.526 206.057 800.338 207.049 800.338C208.113 800.33 208.977 800.286 209.641 800.206C210.305 800.118 210.873 799.994 211.345 799.834C211.825 799.674 212.313 799.486 212.809 799.27ZM207.049 801.814C206.033 801.814 205.281 802.09 204.793 802.642C204.313 803.186 204.073 803.882 204.073 804.73C204.073 805.586 204.321 806.29 204.817 806.842C205.313 807.394 206.073 807.67 207.097 807.67C207.993 807.67 208.673 807.41 209.137 806.89C209.609 806.37 209.845 805.646 209.845 804.718C209.845 803.766 209.609 803.046 209.137 802.558C208.673 802.062 207.977 801.814 207.049 801.814Z" fill="black"/>
<line x1="85" y1="733.5" x2="439" y2="733.5" stroke="black" stroke-width="3"/>
<path d="M97.876 708.678C97.876 709.622 97.64 710.462 97.168 711.198C96.696 711.926 96.012 712.498 95.116 712.914C94.22 713.322 93.128 713.526 91.84 713.526C90.632 713.526 89.536 713.342 88.552 712.974C87.576 712.606 86.74 712.086 86.044 711.414L87.28 710.022C87.856 710.558 88.516 710.986 89.26 711.306C90.004 711.618 90.876 711.774 91.876 711.774C92.548 711.774 93.176 711.666 93.76 711.45C94.344 711.226 94.816 710.89 95.176 710.442C95.536 709.986 95.716 709.41 95.716 708.714C95.716 708.178 95.612 707.722 95.404 707.346C95.196 706.97 94.828 706.638 94.3 706.35C93.772 706.054 93.036 705.766 92.092 705.486C91.004 705.166 90.06 704.806 89.26 704.406C88.468 703.998 87.852 703.498 87.412 702.906C86.98 702.314 86.764 701.582 86.764 700.71C86.764 699.886 86.992 699.154 87.448 698.514C87.904 697.874 88.532 697.374 89.332 697.014C90.14 696.646 91.068 696.462 92.116 696.462C93.26 696.462 94.252 696.626 95.092 696.954C95.94 697.274 96.708 697.738 97.396 698.346L96.172 699.702C95.58 699.174 94.944 698.794 94.264 698.562C93.584 698.322 92.892 698.202 92.188 698.202C91.588 698.202 91.036 698.294 90.532 698.478C90.036 698.654 89.636 698.922 89.332 699.282C89.036 699.634 88.888 700.086 88.888 700.638C88.888 701.11 89.016 701.518 89.272 701.862C89.528 702.206 89.96 702.522 90.568 702.81C91.176 703.09 92.004 703.386 93.052 703.698C93.908 703.946 94.7 704.258 95.428 704.634C96.164 705.002 96.756 705.506 97.204 706.146C97.652 706.778 97.876 707.622 97.876 708.678ZM106.615 700.35C107.807 700.35 108.803 700.622 109.603 701.166C110.411 701.702 111.015 702.462 111.415 703.446C111.823 704.43 112.027 705.59 112.027 706.926C112.027 708.214 111.819 709.354 111.403 710.346C110.987 711.338 110.375 712.118 109.567 712.686C108.767 713.246 107.775 713.526 106.591 713.526C105.407 713.526 104.411 713.254 103.603 712.71C102.795 712.166 102.183 711.402 101.767 710.418C101.359 709.426 101.155 708.27 101.155 706.95C101.155 705.646 101.363 704.498 101.779 703.506C102.195 702.514 102.807 701.742 103.615 701.19C104.431 700.63 105.431 700.35 106.615 700.35ZM106.615 701.994C105.527 701.994 104.703 702.398 104.143 703.206C103.591 704.006 103.315 705.254 103.315 706.95C103.315 708.614 103.587 709.85 104.131 710.658C104.683 711.466 105.503 711.87 106.591 711.87C107.679 711.87 108.495 711.466 109.039 710.658C109.591 709.85 109.867 708.606 109.867 706.926C109.867 705.246 109.595 704.006 109.051 703.206C108.507 702.398 107.695 701.994 106.615 701.994ZM124.521 700.35C124.929 700.35 125.317 700.438 125.685 700.614C126.061 700.79 126.369 701.13 126.609 701.634C126.849 702.138 126.969 702.874 126.969 703.842V713.25H125.097V704.166C125.097 703.374 125.049 702.802 124.953 702.45C124.857 702.098 124.581 701.922 124.125 701.922C123.749 701.922 123.373 702.042 122.997 702.282C122.629 702.514 122.269 702.898 121.917 703.434V713.25H120.033V704.166C120.033 703.374 119.985 702.802 119.889 702.45C119.793 702.098 119.517 701.922 119.061 701.922C118.669 701.922 118.289 702.042 117.921 702.282C117.561 702.514 117.205 702.898 116.853 703.434V713.25H114.993V700.614H116.577L116.697 702.078C117.041 701.59 117.425 701.182 117.849 700.854C118.281 700.518 118.813 700.35 119.445 700.35C119.925 700.35 120.377 700.466 120.801 700.698C121.225 700.922 121.537 701.362 121.737 702.018C122.081 701.522 122.469 701.122 122.901 700.818C123.333 700.506 123.873 700.35 124.521 700.35ZM132.168 707.646C132.208 708.622 132.396 709.422 132.732 710.046C133.068 710.662 133.512 711.118 134.064 711.414C134.616 711.702 135.216 711.846 135.864 711.846C136.512 711.846 137.096 711.75 137.616 711.558C138.144 711.366 138.684 711.082 139.236 710.706L140.184 712.038C139.592 712.502 138.916 712.866 138.156 713.13C137.404 713.394 136.632 713.526 135.84 713.526C134.616 713.526 133.572 713.25 132.708 712.698C131.844 712.146 131.184 711.378 130.728 710.394C130.28 709.402 130.056 708.254 130.056 706.95C130.056 705.67 130.284 704.534 130.74 703.542C131.196 702.55 131.836 701.77 132.66 701.202C133.484 700.634 134.456 700.35 135.576 700.35C136.64 700.35 137.556 700.602 138.324 701.106C139.092 701.602 139.68 702.314 140.088 703.242C140.504 704.162 140.712 705.262 140.712 706.542C140.712 706.758 140.708 706.962 140.7 707.154C140.692 707.338 140.68 707.502 140.664 707.646H132.168ZM135.6 702.006C134.664 702.006 133.88 702.338 133.248 703.002C132.624 703.666 132.268 704.694 132.18 706.086H138.768C138.744 704.734 138.448 703.718 137.88 703.038C137.312 702.35 136.552 702.006 135.6 702.006ZM155.007 712.614C154.575 712.902 154.051 713.126 153.435 713.286C152.819 713.446 152.215 713.526 151.623 713.526C150.263 713.526 149.215 713.17 148.479 712.458C147.743 711.746 147.375 710.83 147.375 709.71V702.174H144.471V700.614H147.375V697.746L149.391 697.506V700.614H153.759L153.519 702.174H149.391V709.686C149.391 710.39 149.575 710.926 149.943 711.294C150.319 711.662 150.939 711.846 151.803 711.846C152.275 711.846 152.711 711.79 153.111 711.678C153.511 711.566 153.883 711.422 154.227 711.246L155.007 712.614ZM161.381 695.334V702.342C161.877 701.678 162.485 701.182 163.205 700.854C163.933 700.518 164.669 700.35 165.413 700.35C166.645 700.35 167.545 700.678 168.113 701.334C168.681 701.99 168.965 702.902 168.965 704.07V713.25H166.949V704.118C166.949 703.358 166.773 702.806 166.421 702.462C166.069 702.11 165.517 701.934 164.765 701.934C164.285 701.934 163.829 702.042 163.397 702.258C162.965 702.474 162.577 702.742 162.233 703.062C161.889 703.382 161.605 703.71 161.381 704.046V713.25H159.365V695.55L161.381 695.334ZM180.152 700.614V711.654H183.716V713.25H174.236V711.654H178.136V702.21H174.356V700.614H180.152ZM178.544 694.698C178.992 694.698 179.348 694.834 179.612 695.106C179.884 695.378 180.02 695.71 180.02 696.102C180.02 696.51 179.884 696.854 179.612 697.134C179.348 697.406 178.992 697.542 178.544 697.542C178.12 697.542 177.772 697.406 177.5 697.134C177.228 696.854 177.092 696.51 177.092 696.102C177.092 695.71 177.228 695.378 177.5 695.106C177.772 694.834 178.12 694.698 178.544 694.698ZM188.146 713.25V700.614H189.862L190.018 702.366C190.53 701.718 191.17 701.222 191.938 700.878C192.714 700.526 193.466 700.35 194.194 700.35C195.434 700.35 196.334 700.678 196.894 701.334C197.462 701.99 197.746 702.902 197.746 704.07V713.25H195.73V705.558C195.73 704.694 195.682 703.998 195.586 703.47C195.49 702.934 195.29 702.546 194.986 702.306C194.682 702.058 194.21 701.934 193.57 701.934C193.074 701.934 192.606 702.042 192.166 702.258C191.734 702.474 191.346 702.746 191.002 703.074C190.666 703.394 190.386 703.718 190.162 704.046V713.25H188.146ZM212.809 699.27L213.433 701.166C212.897 701.334 212.325 701.438 211.717 701.478C211.109 701.518 210.449 701.538 209.737 701.538C210.465 701.874 211.013 702.31 211.381 702.846C211.749 703.374 211.933 703.998 211.933 704.718C211.933 705.55 211.745 706.29 211.369 706.938C210.993 707.586 210.449 708.094 209.737 708.462C209.033 708.83 208.181 709.014 207.181 709.014C206.757 709.014 206.401 708.994 206.113 708.954C205.833 708.914 205.561 708.854 205.297 708.774C205.105 708.902 204.945 709.078 204.817 709.302C204.697 709.526 204.637 709.758 204.637 709.998C204.637 710.302 204.757 710.554 204.997 710.754C205.237 710.954 205.681 711.054 206.329 711.054H208.609C209.457 711.054 210.217 711.206 210.889 711.51C211.569 711.814 212.101 712.222 212.485 712.734C212.877 713.246 213.073 713.83 213.073 714.486C213.073 715.726 212.545 716.678 211.489 717.342C210.441 718.006 208.957 718.338 207.037 718.338C205.693 718.338 204.633 718.198 203.857 717.918C203.081 717.646 202.525 717.226 202.189 716.658C201.861 716.098 201.697 715.39 201.697 714.534H203.521C203.521 715.022 203.617 715.426 203.809 715.746C204.001 716.066 204.349 716.302 204.853 716.454C205.357 716.614 206.081 716.694 207.025 716.694C207.953 716.694 208.709 716.614 209.293 716.454C209.885 716.302 210.321 716.07 210.601 715.758C210.889 715.454 211.033 715.074 211.033 714.618C211.033 714.018 210.761 713.566 210.217 713.262C209.673 712.958 208.993 712.806 208.177 712.806H205.921C204.833 712.806 204.029 712.566 203.509 712.086C202.997 711.606 202.741 711.054 202.741 710.43C202.741 710.022 202.857 709.626 203.089 709.242C203.329 708.858 203.677 708.518 204.133 708.222C203.405 707.838 202.869 707.362 202.525 706.794C202.181 706.226 202.009 705.538 202.009 704.73C202.009 703.874 202.221 703.118 202.645 702.462C203.069 701.798 203.661 701.278 204.421 700.902C205.181 700.526 206.057 700.338 207.049 700.338C208.113 700.33 208.977 700.286 209.641 700.206C210.305 700.118 210.873 699.994 211.345 699.834C211.825 699.674 212.313 699.486 212.809 699.27ZM207.049 701.814C206.033 701.814 205.281 702.09 204.793 702.642C204.313 703.186 204.073 703.882 204.073 704.73C204.073 705.586 204.321 706.29 204.817 706.842C205.313 707.394 206.073 707.67 207.097 707.67C207.993 707.67 208.673 707.41 209.137 706.89C209.609 706.37 209.845 705.646 209.845 704.718C209.845 703.766 209.609 703.046 209.137 702.558C208.673 702.062 207.977 701.814 207.049 701.814Z" fill="black"/>
<line x1="85" y1="933.5" x2="439" y2="933.5" stroke="black" stroke-width="3"/>
<path d="M97.876 908.678C97.876 909.622 97.64 910.462 97.168 911.198C96.696 911.926 96.012 912.498 95.116 912.914C94.22 913.322 93.128 913.526 91.84 913.526C90.632 913.526 89.536 913.342 88.552 912.974C87.576 912.606 86.74 912.086 86.044 911.414L87.28 910.022C87.856 910.558 88.516 910.986 89.26 911.306C90.004 911.618 90.876 911.774 91.876 911.774C92.548 911.774 93.176 911.666 93.76 911.45C94.344 911.226 94.816 910.89 95.176 910.442C95.536 909.986 95.716 909.41 95.716 908.714C95.716 908.178 95.612 907.722 95.404 907.346C95.196 906.97 94.828 906.638 94.3 906.35C93.772 906.054 93.036 905.766 92.092 905.486C91.004 905.166 90.06 904.806 89.26 904.406C88.468 903.998 87.852 903.498 87.412 902.906C86.98 902.314 86.764 901.582 86.764 900.71C86.764 899.886 86.992 899.154 87.448 898.514C87.904 897.874 88.532 897.374 89.332 897.014C90.14 896.646 91.068 896.462 92.116 896.462C93.26 896.462 94.252 896.626 95.092 896.954C95.94 897.274 96.708 897.738 97.396 898.346L96.172 899.702C95.58 899.174 94.944 898.794 94.264 898.562C93.584 898.322 92.892 898.202 92.188 898.202C91.588 898.202 91.036 898.294 90.532 898.478C90.036 898.654 89.636 898.922 89.332 899.282C89.036 899.634 88.888 900.086 88.888 900.638C88.888 901.11 89.016 901.518 89.272 901.862C89.528 902.206 89.96 902.522 90.568 902.81C91.176 903.09 92.004 903.386 93.052 903.698C93.908 903.946 94.7 904.258 95.428 904.634C96.164 905.002 96.756 905.506 97.204 906.146C97.652 906.778 97.876 907.622 97.876 908.678ZM106.615 900.35C107.807 900.35 108.803 900.622 109.603 901.166C110.411 901.702 111.015 902.462 111.415 903.446C111.823 904.43 112.027 905.59 112.027 906.926C112.027 908.214 111.819 909.354 111.403 910.346C110.987 911.338 110.375 912.118 109.567 912.686C108.767 913.246 107.775 913.526 106.591 913.526C105.407 913.526 104.411 913.254 103.603 912.71C102.795 912.166 102.183 911.402 101.767 910.418C101.359 909.426 101.155 908.27 101.155 906.95C101.155 905.646 101.363 904.498 101.779 903.506C102.195 902.514 102.807 901.742 103.615 901.19C104.431 900.63 105.431 900.35 106.615 900.35ZM106.615 901.994C105.527 901.994 104.703 902.398 104.143 903.206C103.591 904.006 103.315 905.254 103.315 906.95C103.315 908.614 103.587 909.85 104.131 910.658C104.683 911.466 105.503 911.87 106.591 911.87C107.679 911.87 108.495 911.466 109.039 910.658C109.591 909.85 109.867 908.606 109.867 906.926C109.867 905.246 109.595 904.006 109.051 903.206C108.507 902.398 107.695 901.994 106.615 901.994ZM124.521 900.35C124.929 900.35 125.317 900.438 125.685 900.614C126.061 900.79 126.369 901.13 126.609 901.634C126.849 902.138 126.969 902.874 126.969 903.842V913.25H125.097V904.166C125.097 903.374 125.049 902.802 124.953 902.45C124.857 902.098 124.581 901.922 124.125 901.922C123.749 901.922 123.373 902.042 122.997 902.282C122.629 902.514 122.269 902.898 121.917 903.434V913.25H120.033V904.166C120.033 903.374 119.985 902.802 119.889 902.45C119.793 902.098 119.517 901.922 119.061 901.922C118.669 901.922 118.289 902.042 117.921 902.282C117.561 902.514 117.205 902.898 116.853 903.434V913.25H114.993V900.614H116.577L116.697 902.078C117.041 901.59 117.425 901.182 117.849 900.854C118.281 900.518 118.813 900.35 119.445 900.35C119.925 900.35 120.377 900.466 120.801 900.698C121.225 900.922 121.537 901.362 121.737 902.018C122.081 901.522 122.469 901.122 122.901 900.818C123.333 900.506 123.873 900.35 124.521 900.35ZM132.168 907.646C132.208 908.622 132.396 909.422 132.732 910.046C133.068 910.662 133.512 911.118 134.064 911.414C134.616 911.702 135.216 911.846 135.864 911.846C136.512 911.846 137.096 911.75 137.616 911.558C138.144 911.366 138.684 911.082 139.236 910.706L140.184 912.038C139.592 912.502 138.916 912.866 138.156 913.13C137.404 913.394 136.632 913.526 135.84 913.526C134.616 913.526 133.572 913.25 132.708 912.698C131.844 912.146 131.184 911.378 130.728 910.394C130.28 909.402 130.056 908.254 130.056 906.95C130.056 905.67 130.284 904.534 130.74 903.542C131.196 902.55 131.836 901.77 132.66 901.202C133.484 900.634 134.456 900.35 135.576 900.35C136.64 900.35 137.556 900.602 138.324 901.106C139.092 901.602 139.68 902.314 140.088 903.242C140.504 904.162 140.712 905.262 140.712 906.542C140.712 906.758 140.708 906.962 140.7 907.154C140.692 907.338 140.68 907.502 140.664 907.646H132.168ZM135.6 902.006C134.664 902.006 133.88 902.338 133.248 903.002C132.624 903.666 132.268 904.694 132.18 906.086H138.768C138.744 904.734 138.448 903.718 137.88 903.038C137.312 902.35 136.552 902.006 135.6 902.006ZM155.007 912.614C154.575 912.902 154.051 913.126 153.435 913.286C152.819 913.446 152.215 913.526 151.623 913.526C150.263 913.526 149.215 913.17 148.479 912.458C147.743 911.746 147.375 910.83 147.375 909.71V902.174H144.471V900.614H147.375V897.746L149.391 897.506V900.614H153.759L153.519 902.174H149.391V909.686C149.391 910.39 149.575 910.926 149.943 911.294C150.319 911.662 150.939 911.846 151.803 911.846C152.275 911.846 152.711 911.79 153.111 911.678C153.511 911.566 153.883 911.422 154.227 911.246L155.007 912.614ZM161.381 895.334V902.342C161.877 901.678 162.485 901.182 163.205 900.854C163.933 900.518 164.669 900.35 165.413 900.35C166.645 900.35 167.545 900.678 168.113 901.334C168.681 901.99 168.965 902.902 168.965 904.07V913.25H166.949V904.118C166.949 903.358 166.773 902.806 166.421 902.462C166.069 902.11 165.517 901.934 164.765 901.934C164.285 901.934 163.829 902.042 163.397 902.258C162.965 902.474 162.577 902.742 162.233 903.062C161.889 903.382 161.605 903.71 161.381 904.046V913.25H159.365V895.55L161.381 895.334ZM180.152 900.614V911.654H183.716V913.25H174.236V911.654H178.136V902.21H174.356V900.614H180.152ZM178.544 894.698C178.992 894.698 179.348 894.834 179.612 895.106C179.884 895.378 180.02 895.71 180.02 896.102C180.02 896.51 179.884 896.854 179.612 897.134C179.348 897.406 178.992 897.542 178.544 897.542C178.12 897.542 177.772 897.406 177.5 897.134C177.228 896.854 177.092 896.51 177.092 896.102C177.092 895.71 177.228 895.378 177.5 895.106C177.772 894.834 178.12 894.698 178.544 894.698ZM188.146 913.25V900.614H189.862L190.018 902.366C190.53 901.718 191.17 901.222 191.938 900.878C192.714 900.526 193.466 900.35 194.194 900.35C195.434 900.35 196.334 900.678 196.894 901.334C197.462 901.99 197.746 902.902 197.746 904.07V913.25H195.73V905.558C195.73 904.694 195.682 903.998 195.586 903.47C195.49 902.934 195.29 902.546 194.986 902.306C194.682 902.058 194.21 901.934 193.57 901.934C193.074 901.934 192.606 902.042 192.166 902.258C191.734 902.474 191.346 902.746 191.002 903.074C190.666 903.394 190.386 903.718 190.162 904.046V913.25H188.146ZM212.809 899.27L213.433 901.166C212.897 901.334 212.325 901.438 211.717 901.478C211.109 901.518 210.449 901.538 209.737 901.538C210.465 901.874 211.013 902.31 211.381 902.846C211.749 903.374 211.933 903.998 211.933 904.718C211.933 905.55 211.745 906.29 211.369 906.938C210.993 907.586 210.449 908.094 209.737 908.462C209.033 908.83 208.181 909.014 207.181 909.014C206.757 909.014 206.401 908.994 206.113 908.954C205.833 908.914 205.561 908.854 205.297 908.774C205.105 908.902 204.945 909.078 204.817 909.302C204.697 909.526 204.637 909.758 204.637 909.998C204.637 910.302 204.757 910.554 204.997 910.754C205.237 910.954 205.681 911.054 206.329 911.054H208.609C209.457 911.054 210.217 911.206 210.889 911.51C211.569 911.814 212.101 912.222 212.485 912.734C212.877 913.246 213.073 913.83 213.073 914.486C213.073 915.726 212.545 916.678 211.489 917.342C210.441 918.006 208.957 918.338 207.037 918.338C205.693 918.338 204.633 918.198 203.857 917.918C203.081 917.646 202.525 917.226 202.189 916.658C201.861 916.098 201.697 915.39 201.697 914.534H203.521C203.521 915.022 203.617 915.426 203.809 915.746C204.001 916.066 204.349 916.302 204.853 916.454C205.357 916.614 206.081 916.694 207.025 916.694C207.953 916.694 208.709 916.614 209.293 916.454C209.885 916.302 210.321 916.07 210.601 915.758C210.889 915.454 211.033 915.074 211.033 914.618C211.033 914.018 210.761 913.566 210.217 913.262C209.673 912.958 208.993 912.806 208.177 912.806H205.921C204.833 912.806 204.029 912.566 203.509 912.086C202.997 911.606 202.741 911.054 202.741 910.43C202.741 910.022 202.857 909.626 203.089 909.242C203.329 908.858 203.677 908.518 204.133 908.222C203.405 907.838 202.869 907.362 202.525 906.794C202.181 906.226 202.009 905.538 202.009 904.73C202.009 903.874 202.221 903.118 202.645 902.462C203.069 901.798 203.661 901.278 204.421 900.902C205.181 900.526 206.057 900.338 207.049 900.338C208.113 900.33 208.977 900.286 209.641 900.206C210.305 900.118 210.873 899.994 211.345 899.834C211.825 899.674 212.313 899.486 212.809 899.27ZM207.049 901.814C206.033 901.814 205.281 902.09 204.793 902.642C204.313 903.186 204.073 903.882 204.073 904.73C204.073 905.586 204.321 906.29 204.817 906.842C205.313 907.394 206.073 907.67 207.097 907.67C207.993 907.67 208.673 907.41 209.137 906.89C209.609 906.37 209.845 905.646 209.845 904.718C209.845 903.766 209.609 903.046 209.137 902.558C208.673 902.062 207.977 901.814 207.049 901.814Z" fill="black"/>
<path d="M39.396 113.75V89.462H30.426V83.758H55.174V89.462H46.204V113.75H39.396ZM69.37 113.75V96.224H60.17V90.934H76.132V113.75H69.37ZM72.452 87.346C71.164 87.346 70.0907 86.978 69.232 86.242C68.3734 85.4753 67.944 84.4787 67.944 83.252C67.944 81.9947 68.3734 80.9827 69.232 80.216C70.0907 79.4187 71.164 79.02 72.452 79.02C73.7707 79.02 74.844 79.4187 75.672 80.216C76.5307 80.9827 76.96 81.9947 76.96 83.252C76.96 84.4787 76.5307 85.4753 75.672 86.242C74.844 86.978 73.7707 87.346 72.452 87.346ZM102.012 114.302C99.5894 114.302 97.6574 113.888 96.2161 113.06C94.8054 112.201 93.7781 111.021 93.1341 109.518C92.4901 108.015 92.1681 106.267 92.1681 104.274V96.224H86.4641V91.21L92.4901 90.934L93.3641 83.942H98.9301V90.934H108.59V96.224H98.9301V104.228C98.9301 105.363 99.0987 106.283 99.4361 106.988C99.7734 107.693 100.295 108.215 101 108.552C101.705 108.859 102.61 109.012 103.714 109.012C104.603 109.012 105.416 108.935 106.152 108.782C106.888 108.629 107.593 108.429 108.268 108.184L109.464 113.06C108.452 113.367 107.333 113.643 106.106 113.888C104.91 114.164 103.545 114.302 102.012 114.302ZM129.916 114.302C127.064 114.302 124.902 113.443 123.43 111.726C121.958 110.009 121.222 107.709 121.222 104.826V86.84H114.092V81.55H127.984V105.102C127.984 106.513 128.367 107.494 129.134 108.046C129.901 108.567 130.744 108.828 131.664 108.828C132.216 108.828 132.768 108.767 133.32 108.644C133.903 108.521 134.547 108.337 135.252 108.092L136.724 113.06C135.559 113.428 134.485 113.719 133.504 113.934C132.553 114.179 131.357 114.302 129.916 114.302ZM154.508 114.302C152.147 114.302 150 113.842 148.068 112.922C146.167 111.971 144.649 110.607 143.514 108.828C142.41 107.019 141.858 104.857 141.858 102.342C141.858 99.858 142.425 97.7267 143.56 95.948C144.695 94.1387 146.167 92.7587 147.976 91.808C149.785 90.8573 151.702 90.382 153.726 90.382C156.087 90.382 158.065 90.8727 159.66 91.854C161.255 92.8047 162.451 94.108 163.248 95.764C164.076 97.3893 164.49 99.2447 164.49 101.33C164.49 101.943 164.444 102.541 164.352 103.124C164.291 103.676 164.229 104.09 164.168 104.366H146.872V99.812H159.614L158.556 101.1C158.556 99.26 158.157 97.88 157.36 96.96C156.593 96.0093 155.459 95.534 153.956 95.534C152.852 95.534 151.886 95.7793 151.058 96.27C150.23 96.7607 149.586 97.512 149.126 98.524C148.666 99.536 148.436 100.809 148.436 102.342C148.436 103.906 148.712 105.194 149.264 106.206C149.816 107.187 150.613 107.923 151.656 108.414C152.699 108.905 153.956 109.15 155.428 109.15C156.471 109.15 157.452 109.012 158.372 108.736C159.323 108.46 160.304 108.061 161.316 107.54L163.57 111.634C162.251 112.462 160.795 113.121 159.2 113.612C157.605 114.072 156.041 114.302 154.508 114.302Z" fill="black"/>
</svg>
