<svg width="1000" height="500" viewBox="0 0 1000 500" fill="none" xmlns="http://www.w3.org/2000/svg">
<rect width="1000" height="500" fill="white"/>
<rect x="950" width="50" height="500" fill="#FFE797"/>
<line x1="437" y1="151.5" x2="791" y2="151.5" stroke="black" stroke-width="3"/>
<path d="M449.876 133.428C449.876 134.372 449.64 135.212 449.168 135.948C448.696 136.676 448.012 137.248 447.116 137.664C446.22 138.072 445.128 138.276 443.84 138.276C442.632 138.276 441.536 138.092 440.552 137.724C439.576 137.356 438.74 136.836 438.044 136.164L439.28 134.772C439.856 135.308 440.516 135.736 441.26 136.056C442.004 136.368 442.876 136.524 443.876 136.524C444.548 136.524 445.176 136.416 445.76 136.2C446.344 135.976 446.816 135.64 447.176 135.192C447.536 134.736 447.716 134.16 447.716 133.464C447.716 132.928 447.612 132.472 447.404 132.096C447.196 131.72 446.828 131.388 446.3 131.1C445.772 130.804 445.036 130.516 444.092 130.236C443.004 129.916 442.06 129.556 441.26 129.156C440.468 128.748 439.852 128.248 439.412 127.656C438.98 127.064 438.764 126.332 438.764 125.46C438.764 124.636 438.992 123.904 439.448 123.264C439.904 122.624 440.532 122.124 441.332 121.764C442.14 121.396 443.068 121.212 444.116 121.212C445.26 121.212 446.252 121.376 447.092 121.704C447.94 122.024 448.708 122.488 449.396 123.096L448.172 124.452C447.58 123.924 446.944 123.544 446.264 123.312C445.584 123.072 444.892 122.952 444.188 122.952C443.588 122.952 443.036 123.044 442.532 123.228C442.036 123.404 441.636 123.672 441.332 124.032C441.036 124.384 440.888 124.836 440.888 125.388C440.888 125.86 441.016 126.268 441.272 126.612C441.528 126.956 441.96 127.272 442.568 127.56C443.176 127.84 444.004 128.136 445.052 128.448C445.908 128.696 446.7 129.008 447.428 129.384C448.164 129.752 448.756 130.256 449.204 130.896C449.652 131.528 449.876 132.372 449.876 133.428ZM458.615 125.1C459.807 125.1 460.803 125.372 461.603 125.916C462.411 126.452 463.015 127.212 463.415 128.196C463.823 129.18 464.027 130.34 464.027 131.676C464.027 132.964 463.819 134.104 463.403 135.096C462.987 136.088 462.375 136.868 461.567 137.436C460.767 137.996 459.775 138.276 458.591 138.276C457.407 138.276 456.411 138.004 455.603 137.46C454.795 136.916 454.183 136.152 453.767 135.168C453.359 134.176 453.155 133.02 453.155 131.7C453.155 130.396 453.363 129.248 453.779 128.256C454.195 127.264 454.807 126.492 455.615 125.94C456.431 125.38 457.431 125.1 458.615 125.1ZM458.615 126.744C457.527 126.744 456.703 127.148 456.143 127.956C455.591 128.756 455.315 130.004 455.315 131.7C455.315 133.364 455.587 134.6 456.131 135.408C456.683 136.216 457.503 136.62 458.591 136.62C459.679 136.62 460.495 136.216 461.039 135.408C461.591 134.6 461.867 133.356 461.867 131.676C461.867 129.996 461.595 128.756 461.051 127.956C460.507 127.148 459.695 126.744 458.615 126.744ZM476.521 125.1C476.929 125.1 477.317 125.188 477.685 125.364C478.061 125.54 478.369 125.88 478.609 126.384C478.849 126.888 478.969 127.624 478.969 128.592V138H477.097V128.916C477.097 128.124 477.049 127.552 476.953 127.2C476.857 126.848 476.581 126.672 476.125 126.672C475.749 126.672 475.373 126.792 474.997 127.032C474.629 127.264 474.269 127.648 473.917 128.184V138H472.033V128.916C472.033 128.124 471.985 127.552 471.889 127.2C471.793 126.848 471.517 126.672 471.061 126.672C470.669 126.672 470.289 126.792 469.921 127.032C469.561 127.264 469.205 127.648 468.853 128.184V138H466.993V125.364H468.577L468.697 126.828C469.041 126.34 469.425 125.932 469.849 125.604C470.281 125.268 470.813 125.1 471.445 125.1C471.925 125.1 472.377 125.216 472.801 125.448C473.225 125.672 473.537 126.112 473.737 126.768C474.081 126.272 474.469 125.872 474.901 125.568C475.333 125.256 475.873 125.1 476.521 125.1ZM484.168 132.396C484.208 133.372 484.396 134.172 484.732 134.796C485.068 135.412 485.512 135.868 486.064 136.164C486.616 136.452 487.216 136.596 487.864 136.596C488.512 136.596 489.096 136.5 489.616 136.308C490.144 136.116 490.684 135.832 491.236 135.456L492.184 136.788C491.592 137.252 490.916 137.616 490.156 137.88C489.404 138.144 488.632 138.276 487.84 138.276C486.616 138.276 485.572 138 484.708 137.448C483.844 136.896 483.184 136.128 482.728 135.144C482.28 134.152 482.056 133.004 482.056 131.7C482.056 130.42 482.284 129.284 482.74 128.292C483.196 127.3 483.836 126.52 484.66 125.952C485.484 125.384 486.456 125.1 487.576 125.1C488.64 125.1 489.556 125.352 490.324 125.856C491.092 126.352 491.68 127.064 492.088 127.992C492.504 128.912 492.712 130.012 492.712 131.292C492.712 131.508 492.708 131.712 492.7 131.904C492.692 132.088 492.68 132.252 492.664 132.396H484.168ZM487.6 126.756C486.664 126.756 485.88 127.088 485.248 127.752C484.624 128.416 484.268 129.444 484.18 130.836H490.768C490.744 129.484 490.448 128.468 489.88 127.788C489.312 127.1 488.552 126.756 487.6 126.756ZM507.007 137.364C506.575 137.652 506.051 137.876 505.435 138.036C504.819 138.196 504.215 138.276 503.623 138.276C502.263 138.276 501.215 137.92 500.479 137.208C499.743 136.496 499.375 135.58 499.375 134.46V126.924H496.471V125.364H499.375V122.496L501.391 122.256V125.364H505.759L505.519 126.924H501.391V134.436C501.391 135.14 501.575 135.676 501.943 136.044C502.319 136.412 502.939 136.596 503.803 136.596C504.275 136.596 504.711 136.54 505.111 136.428C505.511 136.316 505.883 136.172 506.227 135.996L507.007 137.364ZM513.381 120.084V127.092C513.877 126.428 514.485 125.932 515.205 125.604C515.933 125.268 516.669 125.1 517.413 125.1C518.645 125.1 519.545 125.428 520.113 126.084C520.681 126.74 520.965 127.652 520.965 128.82V138H518.949V128.868C518.949 128.108 518.773 127.556 518.421 127.212C518.069 126.86 517.517 126.684 516.765 126.684C516.285 126.684 515.829 126.792 515.397 127.008C514.965 127.224 514.577 127.492 514.233 127.812C513.889 128.132 513.605 128.46 513.381 128.796V138H511.365V120.3L513.381 120.084ZM532.152 125.364V136.404H535.716V138H526.236V136.404H530.136V126.96H526.356V125.364H532.152ZM530.544 119.448C530.992 119.448 531.348 119.584 531.612 119.856C531.884 120.128 532.02 120.46 532.02 120.852C532.02 121.26 531.884 121.604 531.612 121.884C531.348 122.156 530.992 122.292 530.544 122.292C530.12 122.292 529.772 122.156 529.5 121.884C529.228 121.604 529.092 121.26 529.092 120.852C529.092 120.46 529.228 120.128 529.5 119.856C529.772 119.584 530.12 119.448 530.544 119.448ZM540.146 138V125.364H541.862L542.018 127.116C542.53 126.468 543.17 125.972 543.938 125.628C544.714 125.276 545.466 125.1 546.194 125.1C547.434 125.1 548.334 125.428 548.894 126.084C549.462 126.74 549.746 127.652 549.746 128.82V138H547.73V130.308C547.73 129.444 547.682 128.748 547.586 128.22C547.49 127.684 547.29 127.296 546.986 127.056C546.682 126.808 546.21 126.684 545.57 126.684C545.074 126.684 544.606 126.792 544.166 127.008C543.734 127.224 543.346 127.496 543.002 127.824C542.666 128.144 542.386 128.468 542.162 128.796V138H540.146ZM564.809 124.02L565.433 125.916C564.897 126.084 564.325 126.188 563.717 126.228C563.109 126.268 562.449 126.288 561.737 126.288C562.465 126.624 563.013 127.06 563.381 127.596C563.749 128.124 563.933 128.748 563.933 129.468C563.933 130.3 563.745 131.04 563.369 131.688C562.993 132.336 562.449 132.844 561.737 133.212C561.033 133.58 560.181 133.764 559.181 133.764C558.757 133.764 558.401 133.744 558.113 133.704C557.833 133.664 557.561 133.604 557.297 133.524C557.105 133.652 556.945 133.828 556.817 134.052C556.697 134.276 556.637 134.508 556.637 134.748C556.637 135.052 556.757 135.304 556.997 135.504C557.237 135.704 557.681 135.804 558.329 135.804H560.609C561.457 135.804 562.217 135.956 562.889 136.26C563.569 136.564 564.101 136.972 564.485 137.484C564.877 137.996 565.073 138.58 565.073 139.236C565.073 140.476 564.545 141.428 563.489 142.092C562.441 142.756 560.957 143.088 559.037 143.088C557.693 143.088 556.633 142.948 555.857 142.668C555.081 142.396 554.525 141.976 554.189 141.408C553.861 140.848 553.697 140.14 553.697 139.284H555.521C555.521 139.772 555.617 140.176 555.809 140.496C556.001 140.816 556.349 141.052 556.853 141.204C557.357 141.364 558.081 141.444 559.025 141.444C559.953 141.444 560.709 141.364 561.293 141.204C561.885 141.052 562.321 140.82 562.601 140.508C562.889 140.204 563.033 139.824 563.033 139.368C563.033 138.768 562.761 138.316 562.217 138.012C561.673 137.708 560.993 137.556 560.177 137.556H557.921C556.833 137.556 556.029 137.316 555.509 136.836C554.997 136.356 554.741 135.804 554.741 135.18C554.741 134.772 554.857 134.376 555.089 133.992C555.329 133.608 555.677 133.268 556.133 132.972C555.405 132.588 554.869 132.112 554.525 131.544C554.181 130.976 554.009 130.288 554.009 129.48C554.009 128.624 554.221 127.868 554.645 127.212C555.069 126.548 555.661 126.028 556.421 125.652C557.181 125.276 558.057 125.088 559.049 125.088C560.113 125.08 560.977 125.036 561.641 124.956C562.305 124.868 562.873 124.744 563.345 124.584C563.825 124.424 564.313 124.236 564.809 124.02ZM559.049 126.564C558.033 126.564 557.281 126.84 556.793 127.392C556.313 127.936 556.073 128.632 556.073 129.48C556.073 130.336 556.321 131.04 556.817 131.592C557.313 132.144 558.073 132.42 559.097 132.42C559.993 132.42 560.673 132.16 561.137 131.64C561.609 131.12 561.845 130.396 561.845 129.468C561.845 128.516 561.609 127.796 561.137 127.308C560.673 126.812 559.977 126.564 559.049 126.564Z" fill="black"/>
<line x1="437" y1="391.5" x2="791" y2="391.5" stroke="black" stroke-width="3"/>
<path d="M449.876 373.428C449.876 374.372 449.64 375.212 449.168 375.948C448.696 376.676 448.012 377.248 447.116 377.664C446.22 378.072 445.128 378.276 443.84 378.276C442.632 378.276 441.536 378.092 440.552 377.724C439.576 377.356 438.74 376.836 438.044 376.164L439.28 374.772C439.856 375.308 440.516 375.736 441.26 376.056C442.004 376.368 442.876 376.524 443.876 376.524C444.548 376.524 445.176 376.416 445.76 376.2C446.344 375.976 446.816 375.64 447.176 375.192C447.536 374.736 447.716 374.16 447.716 373.464C447.716 372.928 447.612 372.472 447.404 372.096C447.196 371.72 446.828 371.388 446.3 371.1C445.772 370.804 445.036 370.516 444.092 370.236C443.004 369.916 442.06 369.556 441.26 369.156C440.468 368.748 439.852 368.248 439.412 367.656C438.98 367.064 438.764 366.332 438.764 365.46C438.764 364.636 438.992 363.904 439.448 363.264C439.904 362.624 440.532 362.124 441.332 361.764C442.14 361.396 443.068 361.212 444.116 361.212C445.26 361.212 446.252 361.376 447.092 361.704C447.94 362.024 448.708 362.488 449.396 363.096L448.172 364.452C447.58 363.924 446.944 363.544 446.264 363.312C445.584 363.072 444.892 362.952 444.188 362.952C443.588 362.952 443.036 363.044 442.532 363.228C442.036 363.404 441.636 363.672 441.332 364.032C441.036 364.384 440.888 364.836 440.888 365.388C440.888 365.86 441.016 366.268 441.272 366.612C441.528 366.956 441.96 367.272 442.568 367.56C443.176 367.84 444.004 368.136 445.052 368.448C445.908 368.696 446.7 369.008 447.428 369.384C448.164 369.752 448.756 370.256 449.204 370.896C449.652 371.528 449.876 372.372 449.876 373.428ZM458.615 365.1C459.807 365.1 460.803 365.372 461.603 365.916C462.411 366.452 463.015 367.212 463.415 368.196C463.823 369.18 464.027 370.34 464.027 371.676C464.027 372.964 463.819 374.104 463.403 375.096C462.987 376.088 462.375 376.868 461.567 377.436C460.767 377.996 459.775 378.276 458.591 378.276C457.407 378.276 456.411 378.004 455.603 377.46C454.795 376.916 454.183 376.152 453.767 375.168C453.359 374.176 453.155 373.02 453.155 371.7C453.155 370.396 453.363 369.248 453.779 368.256C454.195 367.264 454.807 366.492 455.615 365.94C456.431 365.38 457.431 365.1 458.615 365.1ZM458.615 366.744C457.527 366.744 456.703 367.148 456.143 367.956C455.591 368.756 455.315 370.004 455.315 371.7C455.315 373.364 455.587 374.6 456.131 375.408C456.683 376.216 457.503 376.62 458.591 376.62C459.679 376.62 460.495 376.216 461.039 375.408C461.591 374.6 461.867 373.356 461.867 371.676C461.867 369.996 461.595 368.756 461.051 367.956C460.507 367.148 459.695 366.744 458.615 366.744ZM476.521 365.1C476.929 365.1 477.317 365.188 477.685 365.364C478.061 365.54 478.369 365.88 478.609 366.384C478.849 366.888 478.969 367.624 478.969 368.592V378H477.097V368.916C477.097 368.124 477.049 367.552 476.953 367.2C476.857 366.848 476.581 366.672 476.125 366.672C475.749 366.672 475.373 366.792 474.997 367.032C474.629 367.264 474.269 367.648 473.917 368.184V378H472.033V368.916C472.033 368.124 471.985 367.552 471.889 367.2C471.793 366.848 471.517 366.672 471.061 366.672C470.669 366.672 470.289 366.792 469.921 367.032C469.561 367.264 469.205 367.648 468.853 368.184V378H466.993V365.364H468.577L468.697 366.828C469.041 366.34 469.425 365.932 469.849 365.604C470.281 365.268 470.813 365.1 471.445 365.1C471.925 365.1 472.377 365.216 472.801 365.448C473.225 365.672 473.537 366.112 473.737 366.768C474.081 366.272 474.469 365.872 474.901 365.568C475.333 365.256 475.873 365.1 476.521 365.1ZM484.168 372.396C484.208 373.372 484.396 374.172 484.732 374.796C485.068 375.412 485.512 375.868 486.064 376.164C486.616 376.452 487.216 376.596 487.864 376.596C488.512 376.596 489.096 376.5 489.616 376.308C490.144 376.116 490.684 375.832 491.236 375.456L492.184 376.788C491.592 377.252 490.916 377.616 490.156 377.88C489.404 378.144 488.632 378.276 487.84 378.276C486.616 378.276 485.572 378 484.708 377.448C483.844 376.896 483.184 376.128 482.728 375.144C482.28 374.152 482.056 373.004 482.056 371.7C482.056 370.42 482.284 369.284 482.74 368.292C483.196 367.3 483.836 366.52 484.66 365.952C485.484 365.384 486.456 365.1 487.576 365.1C488.64 365.1 489.556 365.352 490.324 365.856C491.092 366.352 491.68 367.064 492.088 367.992C492.504 368.912 492.712 370.012 492.712 371.292C492.712 371.508 492.708 371.712 492.7 371.904C492.692 372.088 492.68 372.252 492.664 372.396H484.168ZM487.6 366.756C486.664 366.756 485.88 367.088 485.248 367.752C484.624 368.416 484.268 369.444 484.18 370.836H490.768C490.744 369.484 490.448 368.468 489.88 367.788C489.312 367.1 488.552 366.756 487.6 366.756ZM507.007 377.364C506.575 377.652 506.051 377.876 505.435 378.036C504.819 378.196 504.215 378.276 503.623 378.276C502.263 378.276 501.215 377.92 500.479 377.208C499.743 376.496 499.375 375.58 499.375 374.46V366.924H496.471V365.364H499.375V362.496L501.391 362.256V365.364H505.759L505.519 366.924H501.391V374.436C501.391 375.14 501.575 375.676 501.943 376.044C502.319 376.412 502.939 376.596 503.803 376.596C504.275 376.596 504.711 376.54 505.111 376.428C505.511 376.316 505.883 376.172 506.227 375.996L507.007 377.364ZM513.381 360.084V367.092C513.877 366.428 514.485 365.932 515.205 365.604C515.933 365.268 516.669 365.1 517.413 365.1C518.645 365.1 519.545 365.428 520.113 366.084C520.681 366.74 520.965 367.652 520.965 368.82V378H518.949V368.868C518.949 368.108 518.773 367.556 518.421 367.212C518.069 366.86 517.517 366.684 516.765 366.684C516.285 366.684 515.829 366.792 515.397 367.008C514.965 367.224 514.577 367.492 514.233 367.812C513.889 368.132 513.605 368.46 513.381 368.796V378H511.365V360.3L513.381 360.084ZM532.152 365.364V376.404H535.716V378H526.236V376.404H530.136V366.96H526.356V365.364H532.152ZM530.544 359.448C530.992 359.448 531.348 359.584 531.612 359.856C531.884 360.128 532.02 360.46 532.02 360.852C532.02 361.26 531.884 361.604 531.612 361.884C531.348 362.156 530.992 362.292 530.544 362.292C530.12 362.292 529.772 362.156 529.5 361.884C529.228 361.604 529.092 361.26 529.092 360.852C529.092 360.46 529.228 360.128 529.5 359.856C529.772 359.584 530.12 359.448 530.544 359.448ZM540.146 378V365.364H541.862L542.018 367.116C542.53 366.468 543.17 365.972 543.938 365.628C544.714 365.276 545.466 365.1 546.194 365.1C547.434 365.1 548.334 365.428 548.894 366.084C549.462 366.74 549.746 367.652 549.746 368.82V378H547.73V370.308C547.73 369.444 547.682 368.748 547.586 368.22C547.49 367.684 547.29 367.296 546.986 367.056C546.682 366.808 546.21 366.684 545.57 366.684C545.074 366.684 544.606 366.792 544.166 367.008C543.734 367.224 543.346 367.496 543.002 367.824C542.666 368.144 542.386 368.468 542.162 368.796V378H540.146ZM564.809 364.02L565.433 365.916C564.897 366.084 564.325 366.188 563.717 366.228C563.109 366.268 562.449 366.288 561.737 366.288C562.465 366.624 563.013 367.06 563.381 367.596C563.749 368.124 563.933 368.748 563.933 369.468C563.933 370.3 563.745 371.04 563.369 371.688C562.993 372.336 562.449 372.844 561.737 373.212C561.033 373.58 560.181 373.764 559.181 373.764C558.757 373.764 558.401 373.744 558.113 373.704C557.833 373.664 557.561 373.604 557.297 373.524C557.105 373.652 556.945 373.828 556.817 374.052C556.697 374.276 556.637 374.508 556.637 374.748C556.637 375.052 556.757 375.304 556.997 375.504C557.237 375.704 557.681 375.804 558.329 375.804H560.609C561.457 375.804 562.217 375.956 562.889 376.26C563.569 376.564 564.101 376.972 564.485 377.484C564.877 377.996 565.073 378.58 565.073 379.236C565.073 380.476 564.545 381.428 563.489 382.092C562.441 382.756 560.957 383.088 559.037 383.088C557.693 383.088 556.633 382.948 555.857 382.668C555.081 382.396 554.525 381.976 554.189 381.408C553.861 380.848 553.697 380.14 553.697 379.284H555.521C555.521 379.772 555.617 380.176 555.809 380.496C556.001 380.816 556.349 381.052 556.853 381.204C557.357 381.364 558.081 381.444 559.025 381.444C559.953 381.444 560.709 381.364 561.293 381.204C561.885 381.052 562.321 380.82 562.601 380.508C562.889 380.204 563.033 379.824 563.033 379.368C563.033 378.768 562.761 378.316 562.217 378.012C561.673 377.708 560.993 377.556 560.177 377.556H557.921C556.833 377.556 556.029 377.316 555.509 376.836C554.997 376.356 554.741 375.804 554.741 375.18C554.741 374.772 554.857 374.376 555.089 373.992C555.329 373.608 555.677 373.268 556.133 372.972C555.405 372.588 554.869 372.112 554.525 371.544C554.181 370.976 554.009 370.288 554.009 369.48C554.009 368.624 554.221 367.868 554.645 367.212C555.069 366.548 555.661 366.028 556.421 365.652C557.181 365.276 558.057 365.088 559.049 365.088C560.113 365.08 560.977 365.036 561.641 364.956C562.305 364.868 562.873 364.744 563.345 364.584C563.825 364.424 564.313 364.236 564.809 364.02ZM559.049 366.564C558.033 366.564 557.281 366.84 556.793 367.392C556.313 367.936 556.073 368.632 556.073 369.48C556.073 370.336 556.321 371.04 556.817 371.592C557.313 372.144 558.073 372.42 559.097 372.42C559.993 372.42 560.673 372.16 561.137 371.64C561.609 371.12 561.845 370.396 561.845 369.468C561.845 368.516 561.609 367.796 561.137 367.308C560.673 366.812 559.977 366.564 559.049 366.564Z" fill="black"/>
<line x1="437" y1="311.5" x2="791" y2="311.5" stroke="black" stroke-width="3"/>
<path d="M449.876 293.428C449.876 294.372 449.64 295.212 449.168 295.948C448.696 296.676 448.012 297.248 447.116 297.664C446.22 298.072 445.128 298.276 443.84 298.276C442.632 298.276 441.536 298.092 440.552 297.724C439.576 297.356 438.74 296.836 438.044 296.164L439.28 294.772C439.856 295.308 440.516 295.736 441.26 296.056C442.004 296.368 442.876 296.524 443.876 296.524C444.548 296.524 445.176 296.416 445.76 296.2C446.344 295.976 446.816 295.64 447.176 295.192C447.536 294.736 447.716 294.16 447.716 293.464C447.716 292.928 447.612 292.472 447.404 292.096C447.196 291.72 446.828 291.388 446.3 291.1C445.772 290.804 445.036 290.516 444.092 290.236C443.004 289.916 442.06 289.556 441.26 289.156C440.468 288.748 439.852 288.248 439.412 287.656C438.98 287.064 438.764 286.332 438.764 285.46C438.764 284.636 438.992 283.904 439.448 283.264C439.904 282.624 440.532 282.124 441.332 281.764C442.14 281.396 443.068 281.212 444.116 281.212C445.26 281.212 446.252 281.376 447.092 281.704C447.94 282.024 448.708 282.488 449.396 283.096L448.172 284.452C447.58 283.924 446.944 283.544 446.264 283.312C445.584 283.072 444.892 282.952 444.188 282.952C443.588 282.952 443.036 283.044 442.532 283.228C442.036 283.404 441.636 283.672 441.332 284.032C441.036 284.384 440.888 284.836 440.888 285.388C440.888 285.86 441.016 286.268 441.272 286.612C441.528 286.956 441.96 287.272 442.568 287.56C443.176 287.84 444.004 288.136 445.052 288.448C445.908 288.696 446.7 289.008 447.428 289.384C448.164 289.752 448.756 290.256 449.204 290.896C449.652 291.528 449.876 292.372 449.876 293.428ZM458.615 285.1C459.807 285.1 460.803 285.372 461.603 285.916C462.411 286.452 463.015 287.212 463.415 288.196C463.823 289.18 464.027 290.34 464.027 291.676C464.027 292.964 463.819 294.104 463.403 295.096C462.987 296.088 462.375 296.868 461.567 297.436C460.767 297.996 459.775 298.276 458.591 298.276C457.407 298.276 456.411 298.004 455.603 297.46C454.795 296.916 454.183 296.152 453.767 295.168C453.359 294.176 453.155 293.02 453.155 291.7C453.155 290.396 453.363 289.248 453.779 288.256C454.195 287.264 454.807 286.492 455.615 285.94C456.431 285.38 457.431 285.1 458.615 285.1ZM458.615 286.744C457.527 286.744 456.703 287.148 456.143 287.956C455.591 288.756 455.315 290.004 455.315 291.7C455.315 293.364 455.587 294.6 456.131 295.408C456.683 296.216 457.503 296.62 458.591 296.62C459.679 296.62 460.495 296.216 461.039 295.408C461.591 294.6 461.867 293.356 461.867 291.676C461.867 289.996 461.595 288.756 461.051 287.956C460.507 287.148 459.695 286.744 458.615 286.744ZM476.521 285.1C476.929 285.1 477.317 285.188 477.685 285.364C478.061 285.54 478.369 285.88 478.609 286.384C478.849 286.888 478.969 287.624 478.969 288.592V298H477.097V288.916C477.097 288.124 477.049 287.552 476.953 287.2C476.857 286.848 476.581 286.672 476.125 286.672C475.749 286.672 475.373 286.792 474.997 287.032C474.629 287.264 474.269 287.648 473.917 288.184V298H472.033V288.916C472.033 288.124 471.985 287.552 471.889 287.2C471.793 286.848 471.517 286.672 471.061 286.672C470.669 286.672 470.289 286.792 469.921 287.032C469.561 287.264 469.205 287.648 468.853 288.184V298H466.993V285.364H468.577L468.697 286.828C469.041 286.34 469.425 285.932 469.849 285.604C470.281 285.268 470.813 285.1 471.445 285.1C471.925 285.1 472.377 285.216 472.801 285.448C473.225 285.672 473.537 286.112 473.737 286.768C474.081 286.272 474.469 285.872 474.901 285.568C475.333 285.256 475.873 285.1 476.521 285.1ZM484.168 292.396C484.208 293.372 484.396 294.172 484.732 294.796C485.068 295.412 485.512 295.868 486.064 296.164C486.616 296.452 487.216 296.596 487.864 296.596C488.512 296.596 489.096 296.5 489.616 296.308C490.144 296.116 490.684 295.832 491.236 295.456L492.184 296.788C491.592 297.252 490.916 297.616 490.156 297.88C489.404 298.144 488.632 298.276 487.84 298.276C486.616 298.276 485.572 298 484.708 297.448C483.844 296.896 483.184 296.128 482.728 295.144C482.28 294.152 482.056 293.004 482.056 291.7C482.056 290.42 482.284 289.284 482.74 288.292C483.196 287.3 483.836 286.52 484.66 285.952C485.484 285.384 486.456 285.1 487.576 285.1C488.64 285.1 489.556 285.352 490.324 285.856C491.092 286.352 491.68 287.064 492.088 287.992C492.504 288.912 492.712 290.012 492.712 291.292C492.712 291.508 492.708 291.712 492.7 291.904C492.692 292.088 492.68 292.252 492.664 292.396H484.168ZM487.6 286.756C486.664 286.756 485.88 287.088 485.248 287.752C484.624 288.416 484.268 289.444 484.18 290.836H490.768C490.744 289.484 490.448 288.468 489.88 287.788C489.312 287.1 488.552 286.756 487.6 286.756ZM507.007 297.364C506.575 297.652 506.051 297.876 505.435 298.036C504.819 298.196 504.215 298.276 503.623 298.276C502.263 298.276 501.215 297.92 500.479 297.208C499.743 296.496 499.375 295.58 499.375 294.46V286.924H496.471V285.364H499.375V282.496L501.391 282.256V285.364H505.759L505.519 286.924H501.391V294.436C501.391 295.14 501.575 295.676 501.943 296.044C502.319 296.412 502.939 296.596 503.803 296.596C504.275 296.596 504.711 296.54 505.111 296.428C505.511 296.316 505.883 296.172 506.227 295.996L507.007 297.364ZM513.381 280.084V287.092C513.877 286.428 514.485 285.932 515.205 285.604C515.933 285.268 516.669 285.1 517.413 285.1C518.645 285.1 519.545 285.428 520.113 286.084C520.681 286.74 520.965 287.652 520.965 288.82V298H518.949V288.868C518.949 288.108 518.773 287.556 518.421 287.212C518.069 286.86 517.517 286.684 516.765 286.684C516.285 286.684 515.829 286.792 515.397 287.008C514.965 287.224 514.577 287.492 514.233 287.812C513.889 288.132 513.605 288.46 513.381 288.796V298H511.365V280.3L513.381 280.084ZM532.152 285.364V296.404H535.716V298H526.236V296.404H530.136V286.96H526.356V285.364H532.152ZM530.544 279.448C530.992 279.448 531.348 279.584 531.612 279.856C531.884 280.128 532.02 280.46 532.02 280.852C532.02 281.26 531.884 281.604 531.612 281.884C531.348 282.156 530.992 282.292 530.544 282.292C530.12 282.292 529.772 282.156 529.5 281.884C529.228 281.604 529.092 281.26 529.092 280.852C529.092 280.46 529.228 280.128 529.5 279.856C529.772 279.584 530.12 279.448 530.544 279.448ZM540.146 298V285.364H541.862L542.018 287.116C542.53 286.468 543.17 285.972 543.938 285.628C544.714 285.276 545.466 285.1 546.194 285.1C547.434 285.1 548.334 285.428 548.894 286.084C549.462 286.74 549.746 287.652 549.746 288.82V298H547.73V290.308C547.73 289.444 547.682 288.748 547.586 288.22C547.49 287.684 547.29 287.296 546.986 287.056C546.682 286.808 546.21 286.684 545.57 286.684C545.074 286.684 544.606 286.792 544.166 287.008C543.734 287.224 543.346 287.496 543.002 287.824C542.666 288.144 542.386 288.468 542.162 288.796V298H540.146ZM564.809 284.02L565.433 285.916C564.897 286.084 564.325 286.188 563.717 286.228C563.109 286.268 562.449 286.288 561.737 286.288C562.465 286.624 563.013 287.06 563.381 287.596C563.749 288.124 563.933 288.748 563.933 289.468C563.933 290.3 563.745 291.04 563.369 291.688C562.993 292.336 562.449 292.844 561.737 293.212C561.033 293.58 560.181 293.764 559.181 293.764C558.757 293.764 558.401 293.744 558.113 293.704C557.833 293.664 557.561 293.604 557.297 293.524C557.105 293.652 556.945 293.828 556.817 294.052C556.697 294.276 556.637 294.508 556.637 294.748C556.637 295.052 556.757 295.304 556.997 295.504C557.237 295.704 557.681 295.804 558.329 295.804H560.609C561.457 295.804 562.217 295.956 562.889 296.26C563.569 296.564 564.101 296.972 564.485 297.484C564.877 297.996 565.073 298.58 565.073 299.236C565.073 300.476 564.545 301.428 563.489 302.092C562.441 302.756 560.957 303.088 559.037 303.088C557.693 303.088 556.633 302.948 555.857 302.668C555.081 302.396 554.525 301.976 554.189 301.408C553.861 300.848 553.697 300.14 553.697 299.284H555.521C555.521 299.772 555.617 300.176 555.809 300.496C556.001 300.816 556.349 301.052 556.853 301.204C557.357 301.364 558.081 301.444 559.025 301.444C559.953 301.444 560.709 301.364 561.293 301.204C561.885 301.052 562.321 300.82 562.601 300.508C562.889 300.204 563.033 299.824 563.033 299.368C563.033 298.768 562.761 298.316 562.217 298.012C561.673 297.708 560.993 297.556 560.177 297.556H557.921C556.833 297.556 556.029 297.316 555.509 296.836C554.997 296.356 554.741 295.804 554.741 295.18C554.741 294.772 554.857 294.376 555.089 293.992C555.329 293.608 555.677 293.268 556.133 292.972C555.405 292.588 554.869 292.112 554.525 291.544C554.181 290.976 554.009 290.288 554.009 289.48C554.009 288.624 554.221 287.868 554.645 287.212C555.069 286.548 555.661 286.028 556.421 285.652C557.181 285.276 558.057 285.088 559.049 285.088C560.113 285.08 560.977 285.036 561.641 284.956C562.305 284.868 562.873 284.744 563.345 284.584C563.825 284.424 564.313 284.236 564.809 284.02ZM559.049 286.564C558.033 286.564 557.281 286.84 556.793 287.392C556.313 287.936 556.073 288.632 556.073 289.48C556.073 290.336 556.321 291.04 556.817 291.592C557.313 292.144 558.073 292.42 559.097 292.42C559.993 292.42 560.673 292.16 561.137 291.64C561.609 291.12 561.845 290.396 561.845 289.468C561.845 288.516 561.609 287.796 561.137 287.308C560.673 286.812 559.977 286.564 559.049 286.564Z" fill="black"/>
<line x1="437" y1="231.5" x2="791" y2="231.5" stroke="black" stroke-width="3"/>
<path d="M449.876 213.428C449.876 214.372 449.64 215.212 449.168 215.948C448.696 216.676 448.012 217.248 447.116 217.664C446.22 218.072 445.128 218.276 443.84 218.276C442.632 218.276 441.536 218.092 440.552 217.724C439.576 217.356 438.74 216.836 438.044 216.164L439.28 214.772C439.856 215.308 440.516 215.736 441.26 216.056C442.004 216.368 442.876 216.524 443.876 216.524C444.548 216.524 445.176 216.416 445.76 216.2C446.344 215.976 446.816 215.64 447.176 215.192C447.536 214.736 447.716 214.16 447.716 213.464C447.716 212.928 447.612 212.472 447.404 212.096C447.196 211.72 446.828 211.388 446.3 211.1C445.772 210.804 445.036 210.516 444.092 210.236C443.004 209.916 442.06 209.556 441.26 209.156C440.468 208.748 439.852 208.248 439.412 207.656C438.98 207.064 438.764 206.332 438.764 205.46C438.764 204.636 438.992 203.904 439.448 203.264C439.904 202.624 440.532 202.124 441.332 201.764C442.14 201.396 443.068 201.212 444.116 201.212C445.26 201.212 446.252 201.376 447.092 201.704C447.94 202.024 448.708 202.488 449.396 203.096L448.172 204.452C447.58 203.924 446.944 203.544 446.264 203.312C445.584 203.072 444.892 202.952 444.188 202.952C443.588 202.952 443.036 203.044 442.532 203.228C442.036 203.404 441.636 203.672 441.332 204.032C441.036 204.384 440.888 204.836 440.888 205.388C440.888 205.86 441.016 206.268 441.272 206.612C441.528 206.956 441.96 207.272 442.568 207.56C443.176 207.84 444.004 208.136 445.052 208.448C445.908 208.696 446.7 209.008 447.428 209.384C448.164 209.752 448.756 210.256 449.204 210.896C449.652 211.528 449.876 212.372 449.876 213.428ZM458.615 205.1C459.807 205.1 460.803 205.372 461.603 205.916C462.411 206.452 463.015 207.212 463.415 208.196C463.823 209.18 464.027 210.34 464.027 211.676C464.027 212.964 463.819 214.104 463.403 215.096C462.987 216.088 462.375 216.868 461.567 217.436C460.767 217.996 459.775 218.276 458.591 218.276C457.407 218.276 456.411 218.004 455.603 217.46C454.795 216.916 454.183 216.152 453.767 215.168C453.359 214.176 453.155 213.02 453.155 211.7C453.155 210.396 453.363 209.248 453.779 208.256C454.195 207.264 454.807 206.492 455.615 205.94C456.431 205.38 457.431 205.1 458.615 205.1ZM458.615 206.744C457.527 206.744 456.703 207.148 456.143 207.956C455.591 208.756 455.315 210.004 455.315 211.7C455.315 213.364 455.587 214.6 456.131 215.408C456.683 216.216 457.503 216.62 458.591 216.62C459.679 216.62 460.495 216.216 461.039 215.408C461.591 214.6 461.867 213.356 461.867 211.676C461.867 209.996 461.595 208.756 461.051 207.956C460.507 207.148 459.695 206.744 458.615 206.744ZM476.521 205.1C476.929 205.1 477.317 205.188 477.685 205.364C478.061 205.54 478.369 205.88 478.609 206.384C478.849 206.888 478.969 207.624 478.969 208.592V218H477.097V208.916C477.097 208.124 477.049 207.552 476.953 207.2C476.857 206.848 476.581 206.672 476.125 206.672C475.749 206.672 475.373 206.792 474.997 207.032C474.629 207.264 474.269 207.648 473.917 208.184V218H472.033V208.916C472.033 208.124 471.985 207.552 471.889 207.2C471.793 206.848 471.517 206.672 471.061 206.672C470.669 206.672 470.289 206.792 469.921 207.032C469.561 207.264 469.205 207.648 468.853 208.184V218H466.993V205.364H468.577L468.697 206.828C469.041 206.34 469.425 205.932 469.849 205.604C470.281 205.268 470.813 205.1 471.445 205.1C471.925 205.1 472.377 205.216 472.801 205.448C473.225 205.672 473.537 206.112 473.737 206.768C474.081 206.272 474.469 205.872 474.901 205.568C475.333 205.256 475.873 205.1 476.521 205.1ZM484.168 212.396C484.208 213.372 484.396 214.172 484.732 214.796C485.068 215.412 485.512 215.868 486.064 216.164C486.616 216.452 487.216 216.596 487.864 216.596C488.512 216.596 489.096 216.5 489.616 216.308C490.144 216.116 490.684 215.832 491.236 215.456L492.184 216.788C491.592 217.252 490.916 217.616 490.156 217.88C489.404 218.144 488.632 218.276 487.84 218.276C486.616 218.276 485.572 218 484.708 217.448C483.844 216.896 483.184 216.128 482.728 215.144C482.28 214.152 482.056 213.004 482.056 211.7C482.056 210.42 482.284 209.284 482.74 208.292C483.196 207.3 483.836 206.52 484.66 205.952C485.484 205.384 486.456 205.1 487.576 205.1C488.64 205.1 489.556 205.352 490.324 205.856C491.092 206.352 491.68 207.064 492.088 207.992C492.504 208.912 492.712 210.012 492.712 211.292C492.712 211.508 492.708 211.712 492.7 211.904C492.692 212.088 492.68 212.252 492.664 212.396H484.168ZM487.6 206.756C486.664 206.756 485.88 207.088 485.248 207.752C484.624 208.416 484.268 209.444 484.18 210.836H490.768C490.744 209.484 490.448 208.468 489.88 207.788C489.312 207.1 488.552 206.756 487.6 206.756ZM507.007 217.364C506.575 217.652 506.051 217.876 505.435 218.036C504.819 218.196 504.215 218.276 503.623 218.276C502.263 218.276 501.215 217.92 500.479 217.208C499.743 216.496 499.375 215.58 499.375 214.46V206.924H496.471V205.364H499.375V202.496L501.391 202.256V205.364H505.759L505.519 206.924H501.391V214.436C501.391 215.14 501.575 215.676 501.943 216.044C502.319 216.412 502.939 216.596 503.803 216.596C504.275 216.596 504.711 216.54 505.111 216.428C505.511 216.316 505.883 216.172 506.227 215.996L507.007 217.364ZM513.381 200.084V207.092C513.877 206.428 514.485 205.932 515.205 205.604C515.933 205.268 516.669 205.1 517.413 205.1C518.645 205.1 519.545 205.428 520.113 206.084C520.681 206.74 520.965 207.652 520.965 208.82V218H518.949V208.868C518.949 208.108 518.773 207.556 518.421 207.212C518.069 206.86 517.517 206.684 516.765 206.684C516.285 206.684 515.829 206.792 515.397 207.008C514.965 207.224 514.577 207.492 514.233 207.812C513.889 208.132 513.605 208.46 513.381 208.796V218H511.365V200.3L513.381 200.084ZM532.152 205.364V216.404H535.716V218H526.236V216.404H530.136V206.96H526.356V205.364H532.152ZM530.544 199.448C530.992 199.448 531.348 199.584 531.612 199.856C531.884 200.128 532.02 200.46 532.02 200.852C532.02 201.26 531.884 201.604 531.612 201.884C531.348 202.156 530.992 202.292 530.544 202.292C530.12 202.292 529.772 202.156 529.5 201.884C529.228 201.604 529.092 201.26 529.092 200.852C529.092 200.46 529.228 200.128 529.5 199.856C529.772 199.584 530.12 199.448 530.544 199.448ZM540.146 218V205.364H541.862L542.018 207.116C542.53 206.468 543.17 205.972 543.938 205.628C544.714 205.276 545.466 205.1 546.194 205.1C547.434 205.1 548.334 205.428 548.894 206.084C549.462 206.74 549.746 207.652 549.746 208.82V218H547.73V210.308C547.73 209.444 547.682 208.748 547.586 208.22C547.49 207.684 547.29 207.296 546.986 207.056C546.682 206.808 546.21 206.684 545.57 206.684C545.074 206.684 544.606 206.792 544.166 207.008C543.734 207.224 543.346 207.496 543.002 207.824C542.666 208.144 542.386 208.468 542.162 208.796V218H540.146ZM564.809 204.02L565.433 205.916C564.897 206.084 564.325 206.188 563.717 206.228C563.109 206.268 562.449 206.288 561.737 206.288C562.465 206.624 563.013 207.06 563.381 207.596C563.749 208.124 563.933 208.748 563.933 209.468C563.933 210.3 563.745 211.04 563.369 211.688C562.993 212.336 562.449 212.844 561.737 213.212C561.033 213.58 560.181 213.764 559.181 213.764C558.757 213.764 558.401 213.744 558.113 213.704C557.833 213.664 557.561 213.604 557.297 213.524C557.105 213.652 556.945 213.828 556.817 214.052C556.697 214.276 556.637 214.508 556.637 214.748C556.637 215.052 556.757 215.304 556.997 215.504C557.237 215.704 557.681 215.804 558.329 215.804H560.609C561.457 215.804 562.217 215.956 562.889 216.26C563.569 216.564 564.101 216.972 564.485 217.484C564.877 217.996 565.073 218.58 565.073 219.236C565.073 220.476 564.545 221.428 563.489 222.092C562.441 222.756 560.957 223.088 559.037 223.088C557.693 223.088 556.633 222.948 555.857 222.668C555.081 222.396 554.525 221.976 554.189 221.408C553.861 220.848 553.697 220.14 553.697 219.284H555.521C555.521 219.772 555.617 220.176 555.809 220.496C556.001 220.816 556.349 221.052 556.853 221.204C557.357 221.364 558.081 221.444 559.025 221.444C559.953 221.444 560.709 221.364 561.293 221.204C561.885 221.052 562.321 220.82 562.601 220.508C562.889 220.204 563.033 219.824 563.033 219.368C563.033 218.768 562.761 218.316 562.217 218.012C561.673 217.708 560.993 217.556 560.177 217.556H557.921C556.833 217.556 556.029 217.316 555.509 216.836C554.997 216.356 554.741 215.804 554.741 215.18C554.741 214.772 554.857 214.376 555.089 213.992C555.329 213.608 555.677 213.268 556.133 212.972C555.405 212.588 554.869 212.112 554.525 211.544C554.181 210.976 554.009 210.288 554.009 209.48C554.009 208.624 554.221 207.868 554.645 207.212C555.069 206.548 555.661 206.028 556.421 205.652C557.181 205.276 558.057 205.088 559.049 205.088C560.113 205.08 560.977 205.036 561.641 204.956C562.305 204.868 562.873 204.744 563.345 204.584C563.825 204.424 564.313 204.236 564.809 204.02ZM559.049 206.564C558.033 206.564 557.281 206.84 556.793 207.392C556.313 207.936 556.073 208.632 556.073 209.48C556.073 210.336 556.321 211.04 556.817 211.592C557.313 212.144 558.073 212.42 559.097 212.42C559.993 212.42 560.673 212.16 561.137 211.64C561.609 211.12 561.845 210.396 561.845 209.468C561.845 208.516 561.609 207.796 561.137 207.308C560.673 206.812 559.977 206.564 559.049 206.564Z" fill="black"/>
<line x1="41" y1="151.5" x2="395" y2="151.5" stroke="black" stroke-width="3"/>
<path d="M53.876 133.428C53.876 134.372 53.64 135.212 53.168 135.948C52.696 136.676 52.012 137.248 51.116 137.664C50.22 138.072 49.128 138.276 47.84 138.276C46.632 138.276 45.536 138.092 44.552 137.724C43.576 137.356 42.74 136.836 42.044 136.164L43.28 134.772C43.856 135.308 44.516 135.736 45.26 136.056C46.004 136.368 46.876 136.524 47.876 136.524C48.548 136.524 49.176 136.416 49.76 136.2C50.344 135.976 50.816 135.64 51.176 135.192C51.536 134.736 51.716 134.16 51.716 133.464C51.716 132.928 51.612 132.472 51.404 132.096C51.196 131.72 50.828 131.388 50.3 131.1C49.772 130.804 49.036 130.516 48.092 130.236C47.004 129.916 46.06 129.556 45.26 129.156C44.468 128.748 43.852 128.248 43.412 127.656C42.98 127.064 42.764 126.332 42.764 125.46C42.764 124.636 42.992 123.904 43.448 123.264C43.904 122.624 44.532 122.124 45.332 121.764C46.14 121.396 47.068 121.212 48.116 121.212C49.26 121.212 50.252 121.376 51.092 121.704C51.94 122.024 52.708 122.488 53.396 123.096L52.172 124.452C51.58 123.924 50.944 123.544 50.264 123.312C49.584 123.072 48.892 122.952 48.188 122.952C47.588 122.952 47.036 123.044 46.532 123.228C46.036 123.404 45.636 123.672 45.332 124.032C45.036 124.384 44.888 124.836 44.888 125.388C44.888 125.86 45.016 126.268 45.272 126.612C45.528 126.956 45.96 127.272 46.568 127.56C47.176 127.84 48.004 128.136 49.052 128.448C49.908 128.696 50.7 129.008 51.428 129.384C52.164 129.752 52.756 130.256 53.204 130.896C53.652 131.528 53.876 132.372 53.876 133.428ZM62.6146 125.1C63.8066 125.1 64.8026 125.372 65.6026 125.916C66.4106 126.452 67.0146 127.212 67.4146 128.196C67.8226 129.18 68.0266 130.34 68.0266 131.676C68.0266 132.964 67.8186 134.104 67.4026 135.096C66.9866 136.088 66.3746 136.868 65.5666 137.436C64.7666 137.996 63.7746 138.276 62.5906 138.276C61.4066 138.276 60.4106 138.004 59.6026 137.46C58.7946 136.916 58.1826 136.152 57.7666 135.168C57.3586 134.176 57.1546 133.02 57.1546 131.7C57.1546 130.396 57.3626 129.248 57.7786 128.256C58.1946 127.264 58.8066 126.492 59.6146 125.94C60.4306 125.38 61.4306 125.1 62.6146 125.1ZM62.6146 126.744C61.5266 126.744 60.7026 127.148 60.1426 127.956C59.5906 128.756 59.3146 130.004 59.3146 131.7C59.3146 133.364 59.5866 134.6 60.1306 135.408C60.6826 136.216 61.5026 136.62 62.5906 136.62C63.6786 136.62 64.4946 136.216 65.0386 135.408C65.5906 134.6 65.8666 133.356 65.8666 131.676C65.8666 129.996 65.5946 128.756 65.0506 127.956C64.5066 127.148 63.6946 126.744 62.6146 126.744ZM80.5213 125.1C80.9293 125.1 81.3173 125.188 81.6853 125.364C82.0613 125.54 82.3693 125.88 82.6093 126.384C82.8493 126.888 82.9693 127.624 82.9693 128.592V138H81.0973V128.916C81.0973 128.124 81.0493 127.552 80.9533 127.2C80.8573 126.848 80.5813 126.672 80.1253 126.672C79.7493 126.672 79.3733 126.792 78.9973 127.032C78.6293 127.264 78.2693 127.648 77.9173 128.184V138H76.0333V128.916C76.0333 128.124 75.9853 127.552 75.8893 127.2C75.7933 126.848 75.5173 126.672 75.0613 126.672C74.6693 126.672 74.2893 126.792 73.9213 127.032C73.5613 127.264 73.2053 127.648 72.8533 128.184V138H70.9933V125.364H72.5773L72.6973 126.828C73.0413 126.34 73.4253 125.932 73.8493 125.604C74.2813 125.268 74.8133 125.1 75.4453 125.1C75.9253 125.1 76.3773 125.216 76.8013 125.448C77.2253 125.672 77.5373 126.112 77.7373 126.768C78.0813 126.272 78.4693 125.872 78.9013 125.568C79.3333 125.256 79.8733 125.1 80.5213 125.1ZM88.1679 132.396C88.2079 133.372 88.3959 134.172 88.7319 134.796C89.0679 135.412 89.5119 135.868 90.0639 136.164C90.6159 136.452 91.2159 136.596 91.8639 136.596C92.5119 136.596 93.0959 136.5 93.6159 136.308C94.1439 136.116 94.6839 135.832 95.2359 135.456L96.1839 136.788C95.5919 137.252 94.9159 137.616 94.1559 137.88C93.4039 138.144 92.6319 138.276 91.8399 138.276C90.6159 138.276 89.5719 138 88.7079 137.448C87.8439 136.896 87.1839 136.128 86.7279 135.144C86.2799 134.152 86.0559 133.004 86.0559 131.7C86.0559 130.42 86.2839 129.284 86.7399 128.292C87.1959 127.3 87.8359 126.52 88.6599 125.952C89.4839 125.384 90.4559 125.1 91.5759 125.1C92.6399 125.1 93.5559 125.352 94.3239 125.856C95.0919 126.352 95.6799 127.064 96.0879 127.992C96.5039 128.912 96.7119 130.012 96.7119 131.292C96.7119 131.508 96.7079 131.712 96.6999 131.904C96.6919 132.088 96.6799 132.252 96.6639 132.396H88.1679ZM91.5999 126.756C90.6639 126.756 89.8799 127.088 89.2479 127.752C88.6239 128.416 88.2679 129.444 88.1799 130.836H94.7679C94.7439 129.484 94.4479 128.468 93.8799 127.788C93.3119 127.1 92.5519 126.756 91.5999 126.756ZM111.007 137.364C110.575 137.652 110.051 137.876 109.435 138.036C108.819 138.196 108.215 138.276 107.623 138.276C106.263 138.276 105.215 137.92 104.479 137.208C103.743 136.496 103.375 135.58 103.375 134.46V126.924H100.471V125.364H103.375V122.496L105.391 122.256V125.364H109.759L109.519 126.924H105.391V134.436C105.391 135.14 105.575 135.676 105.943 136.044C106.319 136.412 106.939 136.596 107.803 136.596C108.275 136.596 108.711 136.54 109.111 136.428C109.511 136.316 109.883 136.172 110.227 135.996L111.007 137.364ZM117.381 120.084V127.092C117.877 126.428 118.485 125.932 119.205 125.604C119.933 125.268 120.669 125.1 121.413 125.1C122.645 125.1 123.545 125.428 124.113 126.084C124.681 126.74 124.965 127.652 124.965 128.82V138H122.949V128.868C122.949 128.108 122.773 127.556 122.421 127.212C122.069 126.86 121.517 126.684 120.765 126.684C120.285 126.684 119.829 126.792 119.397 127.008C118.965 127.224 118.577 127.492 118.233 127.812C117.889 128.132 117.605 128.46 117.381 128.796V138H115.365V120.3L117.381 120.084ZM136.152 125.364V136.404H139.716V138H130.236V136.404H134.136V126.96H130.356V125.364H136.152ZM134.544 119.448C134.992 119.448 135.348 119.584 135.612 119.856C135.884 120.128 136.02 120.46 136.02 120.852C136.02 121.26 135.884 121.604 135.612 121.884C135.348 122.156 134.992 122.292 134.544 122.292C134.12 122.292 133.772 122.156 133.5 121.884C133.228 121.604 133.092 121.26 133.092 120.852C133.092 120.46 133.228 120.128 133.5 119.856C133.772 119.584 134.12 119.448 134.544 119.448ZM144.146 138V125.364H145.862L146.018 127.116C146.53 126.468 147.17 125.972 147.938 125.628C148.714 125.276 149.466 125.1 150.194 125.1C151.434 125.1 152.334 125.428 152.894 126.084C153.462 126.74 153.746 127.652 153.746 128.82V138H151.73V130.308C151.73 129.444 151.682 128.748 151.586 128.22C151.49 127.684 151.29 127.296 150.986 127.056C150.682 126.808 150.21 126.684 149.57 126.684C149.074 126.684 148.606 126.792 148.166 127.008C147.734 127.224 147.346 127.496 147.002 127.824C146.666 128.144 146.386 128.468 146.162 128.796V138H144.146ZM168.809 124.02L169.433 125.916C168.897 126.084 168.325 126.188 167.717 126.228C167.109 126.268 166.449 126.288 165.737 126.288C166.465 126.624 167.013 127.06 167.381 127.596C167.749 128.124 167.933 128.748 167.933 129.468C167.933 130.3 167.745 131.04 167.369 131.688C166.993 132.336 166.449 132.844 165.737 133.212C165.033 133.58 164.181 133.764 163.181 133.764C162.757 133.764 162.401 133.744 162.113 133.704C161.833 133.664 161.561 133.604 161.297 133.524C161.105 133.652 160.945 133.828 160.817 134.052C160.697 134.276 160.637 134.508 160.637 134.748C160.637 135.052 160.757 135.304 160.997 135.504C161.237 135.704 161.681 135.804 162.329 135.804H164.609C165.457 135.804 166.217 135.956 166.889 136.26C167.569 136.564 168.101 136.972 168.485 137.484C168.877 137.996 169.073 138.58 169.073 139.236C169.073 140.476 168.545 141.428 167.489 142.092C166.441 142.756 164.957 143.088 163.037 143.088C161.693 143.088 160.633 142.948 159.857 142.668C159.081 142.396 158.525 141.976 158.189 141.408C157.861 140.848 157.697 140.14 157.697 139.284H159.521C159.521 139.772 159.617 140.176 159.809 140.496C160.001 140.816 160.349 141.052 160.853 141.204C161.357 141.364 162.081 141.444 163.025 141.444C163.953 141.444 164.709 141.364 165.293 141.204C165.885 141.052 166.321 140.82 166.601 140.508C166.889 140.204 167.033 139.824 167.033 139.368C167.033 138.768 166.761 138.316 166.217 138.012C165.673 137.708 164.993 137.556 164.177 137.556H161.921C160.833 137.556 160.029 137.316 159.509 136.836C158.997 136.356 158.741 135.804 158.741 135.18C158.741 134.772 158.857 134.376 159.089 133.992C159.329 133.608 159.677 133.268 160.133 132.972C159.405 132.588 158.869 132.112 158.525 131.544C158.181 130.976 158.009 130.288 158.009 129.48C158.009 128.624 158.221 127.868 158.645 127.212C159.069 126.548 159.661 126.028 160.421 125.652C161.181 125.276 162.057 125.088 163.049 125.088C164.113 125.08 164.977 125.036 165.641 124.956C166.305 124.868 166.873 124.744 167.345 124.584C167.825 124.424 168.313 124.236 168.809 124.02ZM163.049 126.564C162.033 126.564 161.281 126.84 160.793 127.392C160.313 127.936 160.073 128.632 160.073 129.48C160.073 130.336 160.321 131.04 160.817 131.592C161.313 132.144 162.073 132.42 163.097 132.42C163.993 132.42 164.673 132.16 165.137 131.64C165.609 131.12 165.845 130.396 165.845 129.468C165.845 128.516 165.609 127.796 165.137 127.308C164.673 126.812 163.977 126.564 163.049 126.564Z" fill="black"/>
<line x1="41" y1="391.5" x2="395" y2="391.5" stroke="black" stroke-width="3"/>
<path d="M53.876 373.428C53.876 374.372 53.64 375.212 53.168 375.948C52.696 376.676 52.012 377.248 51.116 377.664C50.22 378.072 49.128 378.276 47.84 378.276C46.632 378.276 45.536 378.092 44.552 377.724C43.576 377.356 42.74 376.836 42.044 376.164L43.28 374.772C43.856 375.308 44.516 375.736 45.26 376.056C46.004 376.368 46.876 376.524 47.876 376.524C48.548 376.524 49.176 376.416 49.76 376.2C50.344 375.976 50.816 375.64 51.176 375.192C51.536 374.736 51.716 374.16 51.716 373.464C51.716 372.928 51.612 372.472 51.404 372.096C51.196 371.72 50.828 371.388 50.3 371.1C49.772 370.804 49.036 370.516 48.092 370.236C47.004 369.916 46.06 369.556 45.26 369.156C44.468 368.748 43.852 368.248 43.412 367.656C42.98 367.064 42.764 366.332 42.764 365.46C42.764 364.636 42.992 363.904 43.448 363.264C43.904 362.624 44.532 362.124 45.332 361.764C46.14 361.396 47.068 361.212 48.116 361.212C49.26 361.212 50.252 361.376 51.092 361.704C51.94 362.024 52.708 362.488 53.396 363.096L52.172 364.452C51.58 363.924 50.944 363.544 50.264 363.312C49.584 363.072 48.892 362.952 48.188 362.952C47.588 362.952 47.036 363.044 46.532 363.228C46.036 363.404 45.636 363.672 45.332 364.032C45.036 364.384 44.888 364.836 44.888 365.388C44.888 365.86 45.016 366.268 45.272 366.612C45.528 366.956 45.96 367.272 46.568 367.56C47.176 367.84 48.004 368.136 49.052 368.448C49.908 368.696 50.7 369.008 51.428 369.384C52.164 369.752 52.756 370.256 53.204 370.896C53.652 371.528 53.876 372.372 53.876 373.428ZM62.6146 365.1C63.8066 365.1 64.8026 365.372 65.6026 365.916C66.4106 366.452 67.0146 367.212 67.4146 368.196C67.8226 369.18 68.0266 370.34 68.0266 371.676C68.0266 372.964 67.8186 374.104 67.4026 375.096C66.9866 376.088 66.3746 376.868 65.5666 377.436C64.7666 377.996 63.7746 378.276 62.5906 378.276C61.4066 378.276 60.4106 378.004 59.6026 377.46C58.7946 376.916 58.1826 376.152 57.7666 375.168C57.3586 374.176 57.1546 373.02 57.1546 371.7C57.1546 370.396 57.3626 369.248 57.7786 368.256C58.1946 367.264 58.8066 366.492 59.6146 365.94C60.4306 365.38 61.4306 365.1 62.6146 365.1ZM62.6146 366.744C61.5266 366.744 60.7026 367.148 60.1426 367.956C59.5906 368.756 59.3146 370.004 59.3146 371.7C59.3146 373.364 59.5866 374.6 60.1306 375.408C60.6826 376.216 61.5026 376.62 62.5906 376.62C63.6786 376.62 64.4946 376.216 65.0386 375.408C65.5906 374.6 65.8666 373.356 65.8666 371.676C65.8666 369.996 65.5946 368.756 65.0506 367.956C64.5066 367.148 63.6946 366.744 62.6146 366.744ZM80.5213 365.1C80.9293 365.1 81.3173 365.188 81.6853 365.364C82.0613 365.54 82.3693 365.88 82.6093 366.384C82.8493 366.888 82.9693 367.624 82.9693 368.592V378H81.0973V368.916C81.0973 368.124 81.0493 367.552 80.9533 367.2C80.8573 366.848 80.5813 366.672 80.1253 366.672C79.7493 366.672 79.3733 366.792 78.9973 367.032C78.6293 367.264 78.2693 367.648 77.9173 368.184V378H76.0333V368.916C76.0333 368.124 75.9853 367.552 75.8893 367.2C75.7933 366.848 75.5173 366.672 75.0613 366.672C74.6693 366.672 74.2893 366.792 73.9213 367.032C73.5613 367.264 73.2053 367.648 72.8533 368.184V378H70.9933V365.364H72.5773L72.6973 366.828C73.0413 366.34 73.4253 365.932 73.8493 365.604C74.2813 365.268 74.8133 365.1 75.4453 365.1C75.9253 365.1 76.3773 365.216 76.8013 365.448C77.2253 365.672 77.5373 366.112 77.7373 366.768C78.0813 366.272 78.4693 365.872 78.9013 365.568C79.3333 365.256 79.8733 365.1 80.5213 365.1ZM88.1679 372.396C88.2079 373.372 88.3959 374.172 88.7319 374.796C89.0679 375.412 89.5119 375.868 90.0639 376.164C90.6159 376.452 91.2159 376.596 91.8639 376.596C92.5119 376.596 93.0959 376.5 93.6159 376.308C94.1439 376.116 94.6839 375.832 95.2359 375.456L96.1839 376.788C95.5919 377.252 94.9159 377.616 94.1559 377.88C93.4039 378.144 92.6319 378.276 91.8399 378.276C90.6159 378.276 89.5719 378 88.7079 377.448C87.8439 376.896 87.1839 376.128 86.7279 375.144C86.2799 374.152 86.0559 373.004 86.0559 371.7C86.0559 370.42 86.2839 369.284 86.7399 368.292C87.1959 367.3 87.8359 366.52 88.6599 365.952C89.4839 365.384 90.4559 365.1 91.5759 365.1C92.6399 365.1 93.5559 365.352 94.3239 365.856C95.0919 366.352 95.6799 367.064 96.0879 367.992C96.5039 368.912 96.7119 370.012 96.7119 371.292C96.7119 371.508 96.7079 371.712 96.6999 371.904C96.6919 372.088 96.6799 372.252 96.6639 372.396H88.1679ZM91.5999 366.756C90.6639 366.756 89.8799 367.088 89.2479 367.752C88.6239 368.416 88.2679 369.444 88.1799 370.836H94.7679C94.7439 369.484 94.4479 368.468 93.8799 367.788C93.3119 367.1 92.5519 366.756 91.5999 366.756ZM111.007 377.364C110.575 377.652 110.051 377.876 109.435 378.036C108.819 378.196 108.215 378.276 107.623 378.276C106.263 378.276 105.215 377.92 104.479 377.208C103.743 376.496 103.375 375.58 103.375 374.46V366.924H100.471V365.364H103.375V362.496L105.391 362.256V365.364H109.759L109.519 366.924H105.391V374.436C105.391 375.14 105.575 375.676 105.943 376.044C106.319 376.412 106.939 376.596 107.803 376.596C108.275 376.596 108.711 376.54 109.111 376.428C109.511 376.316 109.883 376.172 110.227 375.996L111.007 377.364ZM117.381 360.084V367.092C117.877 366.428 118.485 365.932 119.205 365.604C119.933 365.268 120.669 365.1 121.413 365.1C122.645 365.1 123.545 365.428 124.113 366.084C124.681 366.74 124.965 367.652 124.965 368.82V378H122.949V368.868C122.949 368.108 122.773 367.556 122.421 367.212C122.069 366.86 121.517 366.684 120.765 366.684C120.285 366.684 119.829 366.792 119.397 367.008C118.965 367.224 118.577 367.492 118.233 367.812C117.889 368.132 117.605 368.46 117.381 368.796V378H115.365V360.3L117.381 360.084ZM136.152 365.364V376.404H139.716V378H130.236V376.404H134.136V366.96H130.356V365.364H136.152ZM134.544 359.448C134.992 359.448 135.348 359.584 135.612 359.856C135.884 360.128 136.02 360.46 136.02 360.852C136.02 361.26 135.884 361.604 135.612 361.884C135.348 362.156 134.992 362.292 134.544 362.292C134.12 362.292 133.772 362.156 133.5 361.884C133.228 361.604 133.092 361.26 133.092 360.852C133.092 360.46 133.228 360.128 133.5 359.856C133.772 359.584 134.12 359.448 134.544 359.448ZM144.146 378V365.364H145.862L146.018 367.116C146.53 366.468 147.17 365.972 147.938 365.628C148.714 365.276 149.466 365.1 150.194 365.1C151.434 365.1 152.334 365.428 152.894 366.084C153.462 366.74 153.746 367.652 153.746 368.82V378H151.73V370.308C151.73 369.444 151.682 368.748 151.586 368.22C151.49 367.684 151.29 367.296 150.986 367.056C150.682 366.808 150.21 366.684 149.57 366.684C149.074 366.684 148.606 366.792 148.166 367.008C147.734 367.224 147.346 367.496 147.002 367.824C146.666 368.144 146.386 368.468 146.162 368.796V378H144.146ZM168.809 364.02L169.433 365.916C168.897 366.084 168.325 366.188 167.717 366.228C167.109 366.268 166.449 366.288 165.737 366.288C166.465 366.624 167.013 367.06 167.381 367.596C167.749 368.124 167.933 368.748 167.933 369.468C167.933 370.3 167.745 371.04 167.369 371.688C166.993 372.336 166.449 372.844 165.737 373.212C165.033 373.58 164.181 373.764 163.181 373.764C162.757 373.764 162.401 373.744 162.113 373.704C161.833 373.664 161.561 373.604 161.297 373.524C161.105 373.652 160.945 373.828 160.817 374.052C160.697 374.276 160.637 374.508 160.637 374.748C160.637 375.052 160.757 375.304 160.997 375.504C161.237 375.704 161.681 375.804 162.329 375.804H164.609C165.457 375.804 166.217 375.956 166.889 376.26C167.569 376.564 168.101 376.972 168.485 377.484C168.877 377.996 169.073 378.58 169.073 379.236C169.073 380.476 168.545 381.428 167.489 382.092C166.441 382.756 164.957 383.088 163.037 383.088C161.693 383.088 160.633 382.948 159.857 382.668C159.081 382.396 158.525 381.976 158.189 381.408C157.861 380.848 157.697 380.14 157.697 379.284H159.521C159.521 379.772 159.617 380.176 159.809 380.496C160.001 380.816 160.349 381.052 160.853 381.204C161.357 381.364 162.081 381.444 163.025 381.444C163.953 381.444 164.709 381.364 165.293 381.204C165.885 381.052 166.321 380.82 166.601 380.508C166.889 380.204 167.033 379.824 167.033 379.368C167.033 378.768 166.761 378.316 166.217 378.012C165.673 377.708 164.993 377.556 164.177 377.556H161.921C160.833 377.556 160.029 377.316 159.509 376.836C158.997 376.356 158.741 375.804 158.741 375.18C158.741 374.772 158.857 374.376 159.089 373.992C159.329 373.608 159.677 373.268 160.133 372.972C159.405 372.588 158.869 372.112 158.525 371.544C158.181 370.976 158.009 370.288 158.009 369.48C158.009 368.624 158.221 367.868 158.645 367.212C159.069 366.548 159.661 366.028 160.421 365.652C161.181 365.276 162.057 365.088 163.049 365.088C164.113 365.08 164.977 365.036 165.641 364.956C166.305 364.868 166.873 364.744 167.345 364.584C167.825 364.424 168.313 364.236 168.809 364.02ZM163.049 366.564C162.033 366.564 161.281 366.84 160.793 367.392C160.313 367.936 160.073 368.632 160.073 369.48C160.073 370.336 160.321 371.04 160.817 371.592C161.313 372.144 162.073 372.42 163.097 372.42C163.993 372.42 164.673 372.16 165.137 371.64C165.609 371.12 165.845 370.396 165.845 369.468C165.845 368.516 165.609 367.796 165.137 367.308C164.673 366.812 163.977 366.564 163.049 366.564Z" fill="black"/>
<line x1="41" y1="311.5" x2="395" y2="311.5" stroke="black" stroke-width="3"/>
<path d="M53.876 293.428C53.876 294.372 53.64 295.212 53.168 295.948C52.696 296.676 52.012 297.248 51.116 297.664C50.22 298.072 49.128 298.276 47.84 298.276C46.632 298.276 45.536 298.092 44.552 297.724C43.576 297.356 42.74 296.836 42.044 296.164L43.28 294.772C43.856 295.308 44.516 295.736 45.26 296.056C46.004 296.368 46.876 296.524 47.876 296.524C48.548 296.524 49.176 296.416 49.76 296.2C50.344 295.976 50.816 295.64 51.176 295.192C51.536 294.736 51.716 294.16 51.716 293.464C51.716 292.928 51.612 292.472 51.404 292.096C51.196 291.72 50.828 291.388 50.3 291.1C49.772 290.804 49.036 290.516 48.092 290.236C47.004 289.916 46.06 289.556 45.26 289.156C44.468 288.748 43.852 288.248 43.412 287.656C42.98 287.064 42.764 286.332 42.764 285.46C42.764 284.636 42.992 283.904 43.448 283.264C43.904 282.624 44.532 282.124 45.332 281.764C46.14 281.396 47.068 281.212 48.116 281.212C49.26 281.212 50.252 281.376 51.092 281.704C51.94 282.024 52.708 282.488 53.396 283.096L52.172 284.452C51.58 283.924 50.944 283.544 50.264 283.312C49.584 283.072 48.892 282.952 48.188 282.952C47.588 282.952 47.036 283.044 46.532 283.228C46.036 283.404 45.636 283.672 45.332 284.032C45.036 284.384 44.888 284.836 44.888 285.388C44.888 285.86 45.016 286.268 45.272 286.612C45.528 286.956 45.96 287.272 46.568 287.56C47.176 287.84 48.004 288.136 49.052 288.448C49.908 288.696 50.7 289.008 51.428 289.384C52.164 289.752 52.756 290.256 53.204 290.896C53.652 291.528 53.876 292.372 53.876 293.428ZM62.6146 285.1C63.8066 285.1 64.8026 285.372 65.6026 285.916C66.4106 286.452 67.0146 287.212 67.4146 288.196C67.8226 289.18 68.0266 290.34 68.0266 291.676C68.0266 292.964 67.8186 294.104 67.4026 295.096C66.9866 296.088 66.3746 296.868 65.5666 297.436C64.7666 297.996 63.7746 298.276 62.5906 298.276C61.4066 298.276 60.4106 298.004 59.6026 297.46C58.7946 296.916 58.1826 296.152 57.7666 295.168C57.3586 294.176 57.1546 293.02 57.1546 291.7C57.1546 290.396 57.3626 289.248 57.7786 288.256C58.1946 287.264 58.8066 286.492 59.6146 285.94C60.4306 285.38 61.4306 285.1 62.6146 285.1ZM62.6146 286.744C61.5266 286.744 60.7026 287.148 60.1426 287.956C59.5906 288.756 59.3146 290.004 59.3146 291.7C59.3146 293.364 59.5866 294.6 60.1306 295.408C60.6826 296.216 61.5026 296.62 62.5906 296.62C63.6786 296.62 64.4946 296.216 65.0386 295.408C65.5906 294.6 65.8666 293.356 65.8666 291.676C65.8666 289.996 65.5946 288.756 65.0506 287.956C64.5066 287.148 63.6946 286.744 62.6146 286.744ZM80.5213 285.1C80.9293 285.1 81.3173 285.188 81.6853 285.364C82.0613 285.54 82.3693 285.88 82.6093 286.384C82.8493 286.888 82.9693 287.624 82.9693 288.592V298H81.0973V288.916C81.0973 288.124 81.0493 287.552 80.9533 287.2C80.8573 286.848 80.5813 286.672 80.1253 286.672C79.7493 286.672 79.3733 286.792 78.9973 287.032C78.6293 287.264 78.2693 287.648 77.9173 288.184V298H76.0333V288.916C76.0333 288.124 75.9853 287.552 75.8893 287.2C75.7933 286.848 75.5173 286.672 75.0613 286.672C74.6693 286.672 74.2893 286.792 73.9213 287.032C73.5613 287.264 73.2053 287.648 72.8533 288.184V298H70.9933V285.364H72.5773L72.6973 286.828C73.0413 286.34 73.4253 285.932 73.8493 285.604C74.2813 285.268 74.8133 285.1 75.4453 285.1C75.9253 285.1 76.3773 285.216 76.8013 285.448C77.2253 285.672 77.5373 286.112 77.7373 286.768C78.0813 286.272 78.4693 285.872 78.9013 285.568C79.3333 285.256 79.8733 285.1 80.5213 285.1ZM88.1679 292.396C88.2079 293.372 88.3959 294.172 88.7319 294.796C89.0679 295.412 89.5119 295.868 90.0639 296.164C90.6159 296.452 91.2159 296.596 91.8639 296.596C92.5119 296.596 93.0959 296.5 93.6159 296.308C94.1439 296.116 94.6839 295.832 95.2359 295.456L96.1839 296.788C95.5919 297.252 94.9159 297.616 94.1559 297.88C93.4039 298.144 92.6319 298.276 91.8399 298.276C90.6159 298.276 89.5719 298 88.7079 297.448C87.8439 296.896 87.1839 296.128 86.7279 295.144C86.2799 294.152 86.0559 293.004 86.0559 291.7C86.0559 290.42 86.2839 289.284 86.7399 288.292C87.1959 287.3 87.8359 286.52 88.6599 285.952C89.4839 285.384 90.4559 285.1 91.5759 285.1C92.6399 285.1 93.5559 285.352 94.3239 285.856C95.0919 286.352 95.6799 287.064 96.0879 287.992C96.5039 288.912 96.7119 290.012 96.7119 291.292C96.7119 291.508 96.7079 291.712 96.6999 291.904C96.6919 292.088 96.6799 292.252 96.6639 292.396H88.1679ZM91.5999 286.756C90.6639 286.756 89.8799 287.088 89.2479 287.752C88.6239 288.416 88.2679 289.444 88.1799 290.836H94.7679C94.7439 289.484 94.4479 288.468 93.8799 287.788C93.3119 287.1 92.5519 286.756 91.5999 286.756ZM111.007 297.364C110.575 297.652 110.051 297.876 109.435 298.036C108.819 298.196 108.215 298.276 107.623 298.276C106.263 298.276 105.215 297.92 104.479 297.208C103.743 296.496 103.375 295.58 103.375 294.46V286.924H100.471V285.364H103.375V282.496L105.391 282.256V285.364H109.759L109.519 286.924H105.391V294.436C105.391 295.14 105.575 295.676 105.943 296.044C106.319 296.412 106.939 296.596 107.803 296.596C108.275 296.596 108.711 296.54 109.111 296.428C109.511 296.316 109.883 296.172 110.227 295.996L111.007 297.364ZM117.381 280.084V287.092C117.877 286.428 118.485 285.932 119.205 285.604C119.933 285.268 120.669 285.1 121.413 285.1C122.645 285.1 123.545 285.428 124.113 286.084C124.681 286.74 124.965 287.652 124.965 288.82V298H122.949V288.868C122.949 288.108 122.773 287.556 122.421 287.212C122.069 286.86 121.517 286.684 120.765 286.684C120.285 286.684 119.829 286.792 119.397 287.008C118.965 287.224 118.577 287.492 118.233 287.812C117.889 288.132 117.605 288.46 117.381 288.796V298H115.365V280.3L117.381 280.084ZM136.152 285.364V296.404H139.716V298H130.236V296.404H134.136V286.96H130.356V285.364H136.152ZM134.544 279.448C134.992 279.448 135.348 279.584 135.612 279.856C135.884 280.128 136.02 280.46 136.02 280.852C136.02 281.26 135.884 281.604 135.612 281.884C135.348 282.156 134.992 282.292 134.544 282.292C134.12 282.292 133.772 282.156 133.5 281.884C133.228 281.604 133.092 281.26 133.092 280.852C133.092 280.46 133.228 280.128 133.5 279.856C133.772 279.584 134.12 279.448 134.544 279.448ZM144.146 298V285.364H145.862L146.018 287.116C146.53 286.468 147.17 285.972 147.938 285.628C148.714 285.276 149.466 285.1 150.194 285.1C151.434 285.1 152.334 285.428 152.894 286.084C153.462 286.74 153.746 287.652 153.746 288.82V298H151.73V290.308C151.73 289.444 151.682 288.748 151.586 288.22C151.49 287.684 151.29 287.296 150.986 287.056C150.682 286.808 150.21 286.684 149.57 286.684C149.074 286.684 148.606 286.792 148.166 287.008C147.734 287.224 147.346 287.496 147.002 287.824C146.666 288.144 146.386 288.468 146.162 288.796V298H144.146ZM168.809 284.02L169.433 285.916C168.897 286.084 168.325 286.188 167.717 286.228C167.109 286.268 166.449 286.288 165.737 286.288C166.465 286.624 167.013 287.06 167.381 287.596C167.749 288.124 167.933 288.748 167.933 289.468C167.933 290.3 167.745 291.04 167.369 291.688C166.993 292.336 166.449 292.844 165.737 293.212C165.033 293.58 164.181 293.764 163.181 293.764C162.757 293.764 162.401 293.744 162.113 293.704C161.833 293.664 161.561 293.604 161.297 293.524C161.105 293.652 160.945 293.828 160.817 294.052C160.697 294.276 160.637 294.508 160.637 294.748C160.637 295.052 160.757 295.304 160.997 295.504C161.237 295.704 161.681 295.804 162.329 295.804H164.609C165.457 295.804 166.217 295.956 166.889 296.26C167.569 296.564 168.101 296.972 168.485 297.484C168.877 297.996 169.073 298.58 169.073 299.236C169.073 300.476 168.545 301.428 167.489 302.092C166.441 302.756 164.957 303.088 163.037 303.088C161.693 303.088 160.633 302.948 159.857 302.668C159.081 302.396 158.525 301.976 158.189 301.408C157.861 300.848 157.697 300.14 157.697 299.284H159.521C159.521 299.772 159.617 300.176 159.809 300.496C160.001 300.816 160.349 301.052 160.853 301.204C161.357 301.364 162.081 301.444 163.025 301.444C163.953 301.444 164.709 301.364 165.293 301.204C165.885 301.052 166.321 300.82 166.601 300.508C166.889 300.204 167.033 299.824 167.033 299.368C167.033 298.768 166.761 298.316 166.217 298.012C165.673 297.708 164.993 297.556 164.177 297.556H161.921C160.833 297.556 160.029 297.316 159.509 296.836C158.997 296.356 158.741 295.804 158.741 295.18C158.741 294.772 158.857 294.376 159.089 293.992C159.329 293.608 159.677 293.268 160.133 292.972C159.405 292.588 158.869 292.112 158.525 291.544C158.181 290.976 158.009 290.288 158.009 289.48C158.009 288.624 158.221 287.868 158.645 287.212C159.069 286.548 159.661 286.028 160.421 285.652C161.181 285.276 162.057 285.088 163.049 285.088C164.113 285.08 164.977 285.036 165.641 284.956C166.305 284.868 166.873 284.744 167.345 284.584C167.825 284.424 168.313 284.236 168.809 284.02ZM163.049 286.564C162.033 286.564 161.281 286.84 160.793 287.392C160.313 287.936 160.073 288.632 160.073 289.48C160.073 290.336 160.321 291.04 160.817 291.592C161.313 292.144 162.073 292.42 163.097 292.42C163.993 292.42 164.673 292.16 165.137 291.64C165.609 291.12 165.845 290.396 165.845 289.468C165.845 288.516 165.609 287.796 165.137 287.308C164.673 286.812 163.977 286.564 163.049 286.564Z" fill="black"/>
<line x1="41" y1="231.5" x2="395" y2="231.5" stroke="black" stroke-width="3"/>
<path d="M53.876 213.428C53.876 214.372 53.64 215.212 53.168 215.948C52.696 216.676 52.012 217.248 51.116 217.664C50.22 218.072 49.128 218.276 47.84 218.276C46.632 218.276 45.536 218.092 44.552 217.724C43.576 217.356 42.74 216.836 42.044 216.164L43.28 214.772C43.856 215.308 44.516 215.736 45.26 216.056C46.004 216.368 46.876 216.524 47.876 216.524C48.548 216.524 49.176 216.416 49.76 216.2C50.344 215.976 50.816 215.64 51.176 215.192C51.536 214.736 51.716 214.16 51.716 213.464C51.716 212.928 51.612 212.472 51.404 212.096C51.196 211.72 50.828 211.388 50.3 211.1C49.772 210.804 49.036 210.516 48.092 210.236C47.004 209.916 46.06 209.556 45.26 209.156C44.468 208.748 43.852 208.248 43.412 207.656C42.98 207.064 42.764 206.332 42.764 205.46C42.764 204.636 42.992 203.904 43.448 203.264C43.904 202.624 44.532 202.124 45.332 201.764C46.14 201.396 47.068 201.212 48.116 201.212C49.26 201.212 50.252 201.376 51.092 201.704C51.94 202.024 52.708 202.488 53.396 203.096L52.172 204.452C51.58 203.924 50.944 203.544 50.264 203.312C49.584 203.072 48.892 202.952 48.188 202.952C47.588 202.952 47.036 203.044 46.532 203.228C46.036 203.404 45.636 203.672 45.332 204.032C45.036 204.384 44.888 204.836 44.888 205.388C44.888 205.86 45.016 206.268 45.272 206.612C45.528 206.956 45.96 207.272 46.568 207.56C47.176 207.84 48.004 208.136 49.052 208.448C49.908 208.696 50.7 209.008 51.428 209.384C52.164 209.752 52.756 210.256 53.204 210.896C53.652 211.528 53.876 212.372 53.876 213.428ZM62.6146 205.1C63.8066 205.1 64.8026 205.372 65.6026 205.916C66.4106 206.452 67.0146 207.212 67.4146 208.196C67.8226 209.18 68.0266 210.34 68.0266 211.676C68.0266 212.964 67.8186 214.104 67.4026 215.096C66.9866 216.088 66.3746 216.868 65.5666 217.436C64.7666 217.996 63.7746 218.276 62.5906 218.276C61.4066 218.276 60.4106 218.004 59.6026 217.46C58.7946 216.916 58.1826 216.152 57.7666 215.168C57.3586 214.176 57.1546 213.02 57.1546 211.7C57.1546 210.396 57.3626 209.248 57.7786 208.256C58.1946 207.264 58.8066 206.492 59.6146 205.94C60.4306 205.38 61.4306 205.1 62.6146 205.1ZM62.6146 206.744C61.5266 206.744 60.7026 207.148 60.1426 207.956C59.5906 208.756 59.3146 210.004 59.3146 211.7C59.3146 213.364 59.5866 214.6 60.1306 215.408C60.6826 216.216 61.5026 216.62 62.5906 216.62C63.6786 216.62 64.4946 216.216 65.0386 215.408C65.5906 214.6 65.8666 213.356 65.8666 211.676C65.8666 209.996 65.5946 208.756 65.0506 207.956C64.5066 207.148 63.6946 206.744 62.6146 206.744ZM80.5213 205.1C80.9293 205.1 81.3173 205.188 81.6853 205.364C82.0613 205.54 82.3693 205.88 82.6093 206.384C82.8493 206.888 82.9693 207.624 82.9693 208.592V218H81.0973V208.916C81.0973 208.124 81.0493 207.552 80.9533 207.2C80.8573 206.848 80.5813 206.672 80.1253 206.672C79.7493 206.672 79.3733 206.792 78.9973 207.032C78.6293 207.264 78.2693 207.648 77.9173 208.184V218H76.0333V208.916C76.0333 208.124 75.9853 207.552 75.8893 207.2C75.7933 206.848 75.5173 206.672 75.0613 206.672C74.6693 206.672 74.2893 206.792 73.9213 207.032C73.5613 207.264 73.2053 207.648 72.8533 208.184V218H70.9933V205.364H72.5773L72.6973 206.828C73.0413 206.34 73.4253 205.932 73.8493 205.604C74.2813 205.268 74.8133 205.1 75.4453 205.1C75.9253 205.1 76.3773 205.216 76.8013 205.448C77.2253 205.672 77.5373 206.112 77.7373 206.768C78.0813 206.272 78.4693 205.872 78.9013 205.568C79.3333 205.256 79.8733 205.1 80.5213 205.1ZM88.1679 212.396C88.2079 213.372 88.3959 214.172 88.7319 214.796C89.0679 215.412 89.5119 215.868 90.0639 216.164C90.6159 216.452 91.2159 216.596 91.8639 216.596C92.5119 216.596 93.0959 216.5 93.6159 216.308C94.1439 216.116 94.6839 215.832 95.2359 215.456L96.1839 216.788C95.5919 217.252 94.9159 217.616 94.1559 217.88C93.4039 218.144 92.6319 218.276 91.8399 218.276C90.6159 218.276 89.5719 218 88.7079 217.448C87.8439 216.896 87.1839 216.128 86.7279 215.144C86.2799 214.152 86.0559 213.004 86.0559 211.7C86.0559 210.42 86.2839 209.284 86.7399 208.292C87.1959 207.3 87.8359 206.52 88.6599 205.952C89.4839 205.384 90.4559 205.1 91.5759 205.1C92.6399 205.1 93.5559 205.352 94.3239 205.856C95.0919 206.352 95.6799 207.064 96.0879 207.992C96.5039 208.912 96.7119 210.012 96.7119 211.292C96.7119 211.508 96.7079 211.712 96.6999 211.904C96.6919 212.088 96.6799 212.252 96.6639 212.396H88.1679ZM91.5999 206.756C90.6639 206.756 89.8799 207.088 89.2479 207.752C88.6239 208.416 88.2679 209.444 88.1799 210.836H94.7679C94.7439 209.484 94.4479 208.468 93.8799 207.788C93.3119 207.1 92.5519 206.756 91.5999 206.756ZM111.007 217.364C110.575 217.652 110.051 217.876 109.435 218.036C108.819 218.196 108.215 218.276 107.623 218.276C106.263 218.276 105.215 217.92 104.479 217.208C103.743 216.496 103.375 215.58 103.375 214.46V206.924H100.471V205.364H103.375V202.496L105.391 202.256V205.364H109.759L109.519 206.924H105.391V214.436C105.391 215.14 105.575 215.676 105.943 216.044C106.319 216.412 106.939 216.596 107.803 216.596C108.275 216.596 108.711 216.54 109.111 216.428C109.511 216.316 109.883 216.172 110.227 215.996L111.007 217.364ZM117.381 200.084V207.092C117.877 206.428 118.485 205.932 119.205 205.604C119.933 205.268 120.669 205.1 121.413 205.1C122.645 205.1 123.545 205.428 124.113 206.084C124.681 206.74 124.965 207.652 124.965 208.82V218H122.949V208.868C122.949 208.108 122.773 207.556 122.421 207.212C122.069 206.86 121.517 206.684 120.765 206.684C120.285 206.684 119.829 206.792 119.397 207.008C118.965 207.224 118.577 207.492 118.233 207.812C117.889 208.132 117.605 208.46 117.381 208.796V218H115.365V200.3L117.381 200.084ZM136.152 205.364V216.404H139.716V218H130.236V216.404H134.136V206.96H130.356V205.364H136.152ZM134.544 199.448C134.992 199.448 135.348 199.584 135.612 199.856C135.884 200.128 136.02 200.46 136.02 200.852C136.02 201.26 135.884 201.604 135.612 201.884C135.348 202.156 134.992 202.292 134.544 202.292C134.12 202.292 133.772 202.156 133.5 201.884C133.228 201.604 133.092 201.26 133.092 200.852C133.092 200.46 133.228 200.128 133.5 199.856C133.772 199.584 134.12 199.448 134.544 199.448ZM144.146 218V205.364H145.862L146.018 207.116C146.53 206.468 147.17 205.972 147.938 205.628C148.714 205.276 149.466 205.1 150.194 205.1C151.434 205.1 152.334 205.428 152.894 206.084C153.462 206.74 153.746 207.652 153.746 208.82V218H151.73V210.308C151.73 209.444 151.682 208.748 151.586 208.22C151.49 207.684 151.29 207.296 150.986 207.056C150.682 206.808 150.21 206.684 149.57 206.684C149.074 206.684 148.606 206.792 148.166 207.008C147.734 207.224 147.346 207.496 147.002 207.824C146.666 208.144 146.386 208.468 146.162 208.796V218H144.146ZM168.809 204.02L169.433 205.916C168.897 206.084 168.325 206.188 167.717 206.228C167.109 206.268 166.449 206.288 165.737 206.288C166.465 206.624 167.013 207.06 167.381 207.596C167.749 208.124 167.933 208.748 167.933 209.468C167.933 210.3 167.745 211.04 167.369 211.688C166.993 212.336 166.449 212.844 165.737 213.212C165.033 213.58 164.181 213.764 163.181 213.764C162.757 213.764 162.401 213.744 162.113 213.704C161.833 213.664 161.561 213.604 161.297 213.524C161.105 213.652 160.945 213.828 160.817 214.052C160.697 214.276 160.637 214.508 160.637 214.748C160.637 215.052 160.757 215.304 160.997 215.504C161.237 215.704 161.681 215.804 162.329 215.804H164.609C165.457 215.804 166.217 215.956 166.889 216.26C167.569 216.564 168.101 216.972 168.485 217.484C168.877 217.996 169.073 218.58 169.073 219.236C169.073 220.476 168.545 221.428 167.489 222.092C166.441 222.756 164.957 223.088 163.037 223.088C161.693 223.088 160.633 222.948 159.857 222.668C159.081 222.396 158.525 221.976 158.189 221.408C157.861 220.848 157.697 220.14 157.697 219.284H159.521C159.521 219.772 159.617 220.176 159.809 220.496C160.001 220.816 160.349 221.052 160.853 221.204C161.357 221.364 162.081 221.444 163.025 221.444C163.953 221.444 164.709 221.364 165.293 221.204C165.885 221.052 166.321 220.82 166.601 220.508C166.889 220.204 167.033 219.824 167.033 219.368C167.033 218.768 166.761 218.316 166.217 218.012C165.673 217.708 164.993 217.556 164.177 217.556H161.921C160.833 217.556 160.029 217.316 159.509 216.836C158.997 216.356 158.741 215.804 158.741 215.18C158.741 214.772 158.857 214.376 159.089 213.992C159.329 213.608 159.677 213.268 160.133 212.972C159.405 212.588 158.869 212.112 158.525 211.544C158.181 210.976 158.009 210.288 158.009 209.48C158.009 208.624 158.221 207.868 158.645 207.212C159.069 206.548 159.661 206.028 160.421 205.652C161.181 205.276 162.057 205.088 163.049 205.088C164.113 205.08 164.977 205.036 165.641 204.956C166.305 204.868 166.873 204.744 167.345 204.584C167.825 204.424 168.313 204.236 168.809 204.02ZM163.049 206.564C162.033 206.564 161.281 206.84 160.793 207.392C160.313 207.936 160.073 208.632 160.073 209.48C160.073 210.336 160.321 211.04 160.817 211.592C161.313 212.144 162.073 212.42 163.097 212.42C163.993 212.42 164.673 212.16 165.137 211.64C165.609 211.12 165.845 210.396 165.845 209.468C165.845 208.516 165.609 207.796 165.137 207.308C164.673 206.812 163.977 206.564 163.049 206.564Z" fill="black"/>
<path d="M35.396 61V36.712H26.426V31.008H51.174V36.712H42.204V61H35.396ZM65.37 61V43.474H56.17V38.184H72.132V61H65.37ZM68.452 34.596C67.164 34.596 66.0907 34.228 65.232 33.492C64.3734 32.7253 63.944 31.7287 63.944 30.502C63.944 29.2447 64.3734 28.2327 65.232 27.466C66.0907 26.6687 67.164 26.27 68.452 26.27C69.7707 26.27 70.844 26.6687 71.672 27.466C72.5307 28.2327 72.96 29.2447 72.96 30.502C72.96 31.7287 72.5307 32.7253 71.672 33.492C70.844 34.228 69.7707 34.596 68.452 34.596ZM98.0121 61.552C95.5894 61.552 93.6574 61.138 92.2161 60.31C90.8054 59.4513 89.7781 58.2707 89.1341 56.768C88.4901 55.2653 88.1681 53.5173 88.1681 51.524V43.474H82.4641V38.46L88.4901 38.184L89.3641 31.192H94.9301V38.184H104.59V43.474H94.9301V51.478C94.9301 52.6127 95.0987 53.5327 95.4361 54.238C95.7734 54.9433 96.2947 55.4647 97.0001 55.802C97.7054 56.1087 98.6101 56.262 99.7141 56.262C100.603 56.262 101.416 56.1853 102.152 56.032C102.888 55.8787 103.593 55.6793 104.268 55.434L105.464 60.31C104.452 60.6167 103.333 60.8927 102.106 61.138C100.91 61.414 99.5454 61.552 98.0121 61.552ZM125.916 61.552C123.064 61.552 120.902 60.6933 119.43 58.976C117.958 57.2587 117.222 54.9587 117.222 52.076V34.09H110.092V28.8H123.984V52.352C123.984 53.7627 124.367 54.744 125.134 55.296C125.901 55.8173 126.744 56.078 127.664 56.078C128.216 56.078 128.768 56.0167 129.32 55.894C129.903 55.7713 130.547 55.5873 131.252 55.342L132.724 60.31C131.559 60.678 130.485 60.9693 129.504 61.184C128.553 61.4293 127.357 61.552 125.916 61.552ZM150.508 61.552C148.147 61.552 146 61.092 144.068 60.172C142.167 59.2213 140.649 57.8567 139.514 56.078C138.41 54.2687 137.858 52.1067 137.858 49.592C137.858 47.108 138.425 44.9767 139.56 43.198C140.695 41.3887 142.167 40.0087 143.976 39.058C145.785 38.1073 147.702 37.632 149.726 37.632C152.087 37.632 154.065 38.1227 155.66 39.104C157.255 40.0547 158.451 41.358 159.248 43.014C160.076 44.6393 160.49 46.4947 160.49 48.58C160.49 49.1933 160.444 49.7913 160.352 50.374C160.291 50.926 160.229 51.34 160.168 51.616H142.872V47.062H155.614L154.556 48.35C154.556 46.51 154.157 45.13 153.36 44.21C152.593 43.2593 151.459 42.784 149.956 42.784C148.852 42.784 147.886 43.0293 147.058 43.52C146.23 44.0107 145.586 44.762 145.126 45.774C144.666 46.786 144.436 48.0587 144.436 49.592C144.436 51.156 144.712 52.444 145.264 53.456C145.816 54.4373 146.613 55.1733 147.656 55.664C148.699 56.1547 149.956 56.4 151.428 56.4C152.471 56.4 153.452 56.262 154.372 55.986C155.323 55.71 156.304 55.3113 157.316 54.79L159.57 58.884C158.251 59.712 156.795 60.3713 155.2 60.862C153.605 61.322 152.041 61.552 150.508 61.552Z" fill="black"/>
</svg>
