<svg width="354" height="47" viewBox="0 0 354 47" fill="none" xmlns="http://www.w3.org/2000/svg">
<line y1="45.5" x2="354" y2="45.5" stroke="black" stroke-width="3"/>
<path d="M12.876 27.428C12.876 28.372 12.64 29.212 12.168 29.948C11.696 30.676 11.012 31.248 10.116 31.664C9.22 32.072 8.128 32.276 6.84 32.276C5.632 32.276 4.536 32.092 3.552 31.724C2.576 31.356 1.74 30.836 1.044 30.164L2.28 28.772C2.856 29.308 3.516 29.736 4.26 30.056C5.004 30.368 5.876 30.524 6.876 30.524C7.548 30.524 8.176 30.416 8.76 30.2C9.344 29.976 9.816 29.64 10.176 29.192C10.536 28.736 10.716 28.16 10.716 27.464C10.716 26.928 10.612 26.472 10.404 26.096C10.196 25.72 9.828 25.388 9.3 25.1C8.772 24.804 8.036 24.516 7.092 24.236C6.004 23.916 5.06 23.556 4.26 23.156C3.468 22.748 2.852 22.248 2.412 21.656C1.98 21.064 1.764 20.332 1.764 19.46C1.764 18.636 1.992 17.904 2.448 17.264C2.904 16.624 3.532 16.124 4.332 15.764C5.14 15.396 6.068 15.212 7.116 15.212C8.26 15.212 9.252 15.376 10.092 15.704C10.94 16.024 11.708 16.488 12.396 17.096L11.172 18.452C10.58 17.924 9.944 17.544 9.264 17.312C8.584 17.072 7.892 16.952 7.188 16.952C6.588 16.952 6.036 17.044 5.532 17.228C5.036 17.404 4.636 17.672 4.332 18.032C4.036 18.384 3.888 18.836 3.888 19.388C3.888 19.86 4.016 20.268 4.272 20.612C4.528 20.956 4.96 21.272 5.568 21.56C6.176 21.84 7.004 22.136 8.052 22.448C8.908 22.696 9.7 23.008 10.428 23.384C11.164 23.752 11.756 24.256 12.204 24.896C12.652 25.528 12.876 26.372 12.876 27.428ZM21.6146 19.1C22.8066 19.1 23.8026 19.372 24.6026 19.916C25.4106 20.452 26.0146 21.212 26.4146 22.196C26.8226 23.18 27.0266 24.34 27.0266 25.676C27.0266 26.964 26.8186 28.104 26.4026 29.096C25.9866 30.088 25.3746 30.868 24.5666 31.436C23.7666 31.996 22.7746 32.276 21.5906 32.276C20.4066 32.276 19.4106 32.004 18.6026 31.46C17.7946 30.916 17.1826 30.152 16.7666 29.168C16.3586 28.176 16.1546 27.02 16.1546 25.7C16.1546 24.396 16.3626 23.248 16.7786 22.256C17.1946 21.264 17.8066 20.492 18.6146 19.94C19.4306 19.38 20.4306 19.1 21.6146 19.1ZM21.6146 20.744C20.5266 20.744 19.7026 21.148 19.1426 21.956C18.5906 22.756 18.3146 24.004 18.3146 25.7C18.3146 27.364 18.5866 28.6 19.1306 29.408C19.6826 30.216 20.5026 30.62 21.5906 30.62C22.6786 30.62 23.4946 30.216 24.0386 29.408C24.5906 28.6 24.8666 27.356 24.8666 25.676C24.8666 23.996 24.5946 22.756 24.0506 21.956C23.5066 21.148 22.6946 20.744 21.6146 20.744ZM39.5213 19.1C39.9293 19.1 40.3173 19.188 40.6853 19.364C41.0613 19.54 41.3693 19.88 41.6093 20.384C41.8493 20.888 41.9693 21.624 41.9693 22.592V32H40.0973V22.916C40.0973 22.124 40.0493 21.552 39.9533 21.2C39.8573 20.848 39.5813 20.672 39.1253 20.672C38.7493 20.672 38.3733 20.792 37.9973 21.032C37.6293 21.264 37.2693 21.648 36.9173 22.184V32H35.0333V22.916C35.0333 22.124 34.9853 21.552 34.8893 21.2C34.7933 20.848 34.5173 20.672 34.0613 20.672C33.6693 20.672 33.2893 20.792 32.9213 21.032C32.5613 21.264 32.2053 21.648 31.8533 22.184V32H29.9933V19.364H31.5773L31.6973 20.828C32.0413 20.34 32.4253 19.932 32.8493 19.604C33.2813 19.268 33.8133 19.1 34.4453 19.1C34.9253 19.1 35.3773 19.216 35.8013 19.448C36.2253 19.672 36.5373 20.112 36.7373 20.768C37.0813 20.272 37.4693 19.872 37.9013 19.568C38.3333 19.256 38.8733 19.1 39.5213 19.1ZM47.1679 26.396C47.2079 27.372 47.3959 28.172 47.7319 28.796C48.0679 29.412 48.5119 29.868 49.0639 30.164C49.6159 30.452 50.2159 30.596 50.8639 30.596C51.5119 30.596 52.0959 30.5 52.6159 30.308C53.1439 30.116 53.6839 29.832 54.2359 29.456L55.1839 30.788C54.5919 31.252 53.9159 31.616 53.1559 31.88C52.4039 32.144 51.6319 32.276 50.8399 32.276C49.6159 32.276 48.5719 32 47.7079 31.448C46.8439 30.896 46.1839 30.128 45.7279 29.144C45.2799 28.152 45.0559 27.004 45.0559 25.7C45.0559 24.42 45.2839 23.284 45.7399 22.292C46.1959 21.3 46.8359 20.52 47.6599 19.952C48.4839 19.384 49.4559 19.1 50.5759 19.1C51.6399 19.1 52.5559 19.352 53.3239 19.856C54.0919 20.352 54.6799 21.064 55.0879 21.992C55.5039 22.912 55.7119 24.012 55.7119 25.292C55.7119 25.508 55.7079 25.712 55.6999 25.904C55.6919 26.088 55.6799 26.252 55.6639 26.396H47.1679ZM50.5999 20.756C49.6639 20.756 48.8799 21.088 48.2479 21.752C47.6239 22.416 47.2679 23.444 47.1799 24.836H53.7679C53.7439 23.484 53.4479 22.468 52.8799 21.788C52.3119 21.1 51.5519 20.756 50.5999 20.756ZM70.0065 31.364C69.5745 31.652 69.0505 31.876 68.4345 32.036C67.8185 32.196 67.2145 32.276 66.6225 32.276C65.2625 32.276 64.2145 31.92 63.4785 31.208C62.7425 30.496 62.3745 29.58 62.3745 28.46V20.924H59.4705V19.364H62.3745V16.496L64.3905 16.256V19.364H68.7585L68.5185 20.924H64.3905V28.436C64.3905 29.14 64.5745 29.676 64.9425 30.044C65.3185 30.412 65.9385 30.596 66.8025 30.596C67.2745 30.596 67.7105 30.54 68.1105 30.428C68.5105 30.316 68.8825 30.172 69.2265 29.996L70.0065 31.364ZM76.3811 14.084V21.092C76.8771 20.428 77.4851 19.932 78.2051 19.604C78.9331 19.268 79.6691 19.1 80.4131 19.1C81.6451 19.1 82.5451 19.428 83.1131 20.084C83.6811 20.74 83.9651 21.652 83.9651 22.82V32H81.9491V22.868C81.9491 22.108 81.7731 21.556 81.4211 21.212C81.0691 20.86 80.5171 20.684 79.7651 20.684C79.2851 20.684 78.8291 20.792 78.3971 21.008C77.9651 21.224 77.5771 21.492 77.2331 21.812C76.8891 22.132 76.6051 22.46 76.3811 22.796V32H74.3651V14.3L76.3811 14.084ZM95.1518 19.364V30.404H98.7158V32H89.2358V30.404H93.1358V20.96H89.3558V19.364H95.1518ZM93.5438 13.448C93.9918 13.448 94.3478 13.584 94.6118 13.856C94.8838 14.128 95.0198 14.46 95.0198 14.852C95.0198 15.26 94.8838 15.604 94.6118 15.884C94.3478 16.156 93.9918 16.292 93.5438 16.292C93.1198 16.292 92.7718 16.156 92.4998 15.884C92.2278 15.604 92.0918 15.26 92.0918 14.852C92.0918 14.46 92.2278 14.128 92.4998 13.856C92.7718 13.584 93.1198 13.448 93.5438 13.448ZM103.146 32V19.364H104.862L105.018 21.116C105.53 20.468 106.17 19.972 106.938 19.628C107.714 19.276 108.466 19.1 109.194 19.1C110.434 19.1 111.334 19.428 111.894 20.084C112.462 20.74 112.746 21.652 112.746 22.82V32H110.73V24.308C110.73 23.444 110.682 22.748 110.586 22.22C110.49 21.684 110.29 21.296 109.986 21.056C109.682 20.808 109.21 20.684 108.57 20.684C108.074 20.684 107.606 20.792 107.166 21.008C106.734 21.224 106.346 21.496 106.002 21.824C105.666 22.144 105.386 22.468 105.162 22.796V32H103.146ZM127.809 18.02L128.433 19.916C127.897 20.084 127.325 20.188 126.717 20.228C126.109 20.268 125.449 20.288 124.737 20.288C125.465 20.624 126.013 21.06 126.381 21.596C126.749 22.124 126.933 22.748 126.933 23.468C126.933 24.3 126.745 25.04 126.369 25.688C125.993 26.336 125.449 26.844 124.737 27.212C124.033 27.58 123.181 27.764 122.181 27.764C121.757 27.764 121.401 27.744 121.113 27.704C120.833 27.664 120.561 27.604 120.297 27.524C120.105 27.652 119.945 27.828 119.817 28.052C119.697 28.276 119.637 28.508 119.637 28.748C119.637 29.052 119.757 29.304 119.997 29.504C120.237 29.704 120.681 29.804 121.329 29.804H123.609C124.457 29.804 125.217 29.956 125.889 30.26C126.569 30.564 127.101 30.972 127.485 31.484C127.877 31.996 128.073 32.58 128.073 33.236C128.073 34.476 127.545 35.428 126.489 36.092C125.441 36.756 123.957 37.088 122.037 37.088C120.693 37.088 119.633 36.948 118.857 36.668C118.081 36.396 117.525 35.976 117.189 35.408C116.861 34.848 116.697 34.14 116.697 33.284H118.521C118.521 33.772 118.617 34.176 118.809 34.496C119.001 34.816 119.349 35.052 119.853 35.204C120.357 35.364 121.081 35.444 122.025 35.444C122.953 35.444 123.709 35.364 124.293 35.204C124.885 35.052 125.321 34.82 125.601 34.508C125.889 34.204 126.033 33.824 126.033 33.368C126.033 32.768 125.761 32.316 125.217 32.012C124.673 31.708 123.993 31.556 123.177 31.556H120.921C119.833 31.556 119.029 31.316 118.509 30.836C117.997 30.356 117.741 29.804 117.741 29.18C117.741 28.772 117.857 28.376 118.089 27.992C118.329 27.608 118.677 27.268 119.133 26.972C118.405 26.588 117.869 26.112 117.525 25.544C117.181 24.976 117.009 24.288 117.009 23.48C117.009 22.624 117.221 21.868 117.645 21.212C118.069 20.548 118.661 20.028 119.421 19.652C120.181 19.276 121.057 19.088 122.049 19.088C123.113 19.08 123.977 19.036 124.641 18.956C125.305 18.868 125.873 18.744 126.345 18.584C126.825 18.424 127.313 18.236 127.809 18.02ZM122.049 20.564C121.033 20.564 120.281 20.84 119.793 21.392C119.313 21.936 119.073 22.632 119.073 23.48C119.073 24.336 119.321 25.04 119.817 25.592C120.313 26.144 121.073 26.42 122.097 26.42C122.993 26.42 123.673 26.16 124.137 25.64C124.609 25.12 124.845 24.396 124.845 23.468C124.845 22.516 124.609 21.796 124.137 21.308C123.673 20.812 122.977 20.564 122.049 20.564Z" fill="black"/>
</svg>
