<svg width="1000" height="500" viewBox="0 0 1000 500" fill="none" xmlns="http://www.w3.org/2000/svg">
<rect width="1000" height="500" fill="white"/>
<rect y="94" width="50" height="344" fill="#FFE797"/>
<line x1="550" y1="151.5" x2="904" y2="151.5" stroke="black" stroke-width="3"/>
<path d="M562.876 133.428C562.876 134.372 562.64 135.212 562.168 135.948C561.696 136.676 561.012 137.248 560.116 137.664C559.22 138.072 558.128 138.276 556.84 138.276C555.632 138.276 554.536 138.092 553.552 137.724C552.576 137.356 551.74 136.836 551.044 136.164L552.28 134.772C552.856 135.308 553.516 135.736 554.26 136.056C555.004 136.368 555.876 136.524 556.876 136.524C557.548 136.524 558.176 136.416 558.76 136.2C559.344 135.976 559.816 135.64 560.176 135.192C560.536 134.736 560.716 134.16 560.716 133.464C560.716 132.928 560.612 132.472 560.404 132.096C560.196 131.72 559.828 131.388 559.3 131.1C558.772 130.804 558.036 130.516 557.092 130.236C556.004 129.916 555.06 129.556 554.26 129.156C553.468 128.748 552.852 128.248 552.412 127.656C551.98 127.064 551.764 126.332 551.764 125.46C551.764 124.636 551.992 123.904 552.448 123.264C552.904 122.624 553.532 122.124 554.332 121.764C555.14 121.396 556.068 121.212 557.116 121.212C558.26 121.212 559.252 121.376 560.092 121.704C560.94 122.024 561.708 122.488 562.396 123.096L561.172 124.452C560.58 123.924 559.944 123.544 559.264 123.312C558.584 123.072 557.892 122.952 557.188 122.952C556.588 122.952 556.036 123.044 555.532 123.228C555.036 123.404 554.636 123.672 554.332 124.032C554.036 124.384 553.888 124.836 553.888 125.388C553.888 125.86 554.016 126.268 554.272 126.612C554.528 126.956 554.96 127.272 555.568 127.56C556.176 127.84 557.004 128.136 558.052 128.448C558.908 128.696 559.7 129.008 560.428 129.384C561.164 129.752 561.756 130.256 562.204 130.896C562.652 131.528 562.876 132.372 562.876 133.428ZM571.615 125.1C572.807 125.1 573.803 125.372 574.603 125.916C575.411 126.452 576.015 127.212 576.415 128.196C576.823 129.18 577.027 130.34 577.027 131.676C577.027 132.964 576.819 134.104 576.403 135.096C575.987 136.088 575.375 136.868 574.567 137.436C573.767 137.996 572.775 138.276 571.591 138.276C570.407 138.276 569.411 138.004 568.603 137.46C567.795 136.916 567.183 136.152 566.767 135.168C566.359 134.176 566.155 133.02 566.155 131.7C566.155 130.396 566.363 129.248 566.779 128.256C567.195 127.264 567.807 126.492 568.615 125.94C569.431 125.38 570.431 125.1 571.615 125.1ZM571.615 126.744C570.527 126.744 569.703 127.148 569.143 127.956C568.591 128.756 568.315 130.004 568.315 131.7C568.315 133.364 568.587 134.6 569.131 135.408C569.683 136.216 570.503 136.62 571.591 136.62C572.679 136.62 573.495 136.216 574.039 135.408C574.591 134.6 574.867 133.356 574.867 131.676C574.867 129.996 574.595 128.756 574.051 127.956C573.507 127.148 572.695 126.744 571.615 126.744ZM589.521 125.1C589.929 125.1 590.317 125.188 590.685 125.364C591.061 125.54 591.369 125.88 591.609 126.384C591.849 126.888 591.969 127.624 591.969 128.592V138H590.097V128.916C590.097 128.124 590.049 127.552 589.953 127.2C589.857 126.848 589.581 126.672 589.125 126.672C588.749 126.672 588.373 126.792 587.997 127.032C587.629 127.264 587.269 127.648 586.917 128.184V138H585.033V128.916C585.033 128.124 584.985 127.552 584.889 127.2C584.793 126.848 584.517 126.672 584.061 126.672C583.669 126.672 583.289 126.792 582.921 127.032C582.561 127.264 582.205 127.648 581.853 128.184V138H579.993V125.364H581.577L581.697 126.828C582.041 126.34 582.425 125.932 582.849 125.604C583.281 125.268 583.813 125.1 584.445 125.1C584.925 125.1 585.377 125.216 585.801 125.448C586.225 125.672 586.537 126.112 586.737 126.768C587.081 126.272 587.469 125.872 587.901 125.568C588.333 125.256 588.873 125.1 589.521 125.1ZM597.168 132.396C597.208 133.372 597.396 134.172 597.732 134.796C598.068 135.412 598.512 135.868 599.064 136.164C599.616 136.452 600.216 136.596 600.864 136.596C601.512 136.596 602.096 136.5 602.616 136.308C603.144 136.116 603.684 135.832 604.236 135.456L605.184 136.788C604.592 137.252 603.916 137.616 603.156 137.88C602.404 138.144 601.632 138.276 600.84 138.276C599.616 138.276 598.572 138 597.708 137.448C596.844 136.896 596.184 136.128 595.728 135.144C595.28 134.152 595.056 133.004 595.056 131.7C595.056 130.42 595.284 129.284 595.74 128.292C596.196 127.3 596.836 126.52 597.66 125.952C598.484 125.384 599.456 125.1 600.576 125.1C601.64 125.1 602.556 125.352 603.324 125.856C604.092 126.352 604.68 127.064 605.088 127.992C605.504 128.912 605.712 130.012 605.712 131.292C605.712 131.508 605.708 131.712 605.7 131.904C605.692 132.088 605.68 132.252 605.664 132.396H597.168ZM600.6 126.756C599.664 126.756 598.88 127.088 598.248 127.752C597.624 128.416 597.268 129.444 597.18 130.836H603.768C603.744 129.484 603.448 128.468 602.88 127.788C602.312 127.1 601.552 126.756 600.6 126.756ZM620.007 137.364C619.575 137.652 619.051 137.876 618.435 138.036C617.819 138.196 617.215 138.276 616.623 138.276C615.263 138.276 614.215 137.92 613.479 137.208C612.743 136.496 612.375 135.58 612.375 134.46V126.924H609.471V125.364H612.375V122.496L614.391 122.256V125.364H618.759L618.519 126.924H614.391V134.436C614.391 135.14 614.575 135.676 614.943 136.044C615.319 136.412 615.939 136.596 616.803 136.596C617.275 136.596 617.711 136.54 618.111 136.428C618.511 136.316 618.883 136.172 619.227 135.996L620.007 137.364ZM626.381 120.084V127.092C626.877 126.428 627.485 125.932 628.205 125.604C628.933 125.268 629.669 125.1 630.413 125.1C631.645 125.1 632.545 125.428 633.113 126.084C633.681 126.74 633.965 127.652 633.965 128.82V138H631.949V128.868C631.949 128.108 631.773 127.556 631.421 127.212C631.069 126.86 630.517 126.684 629.765 126.684C629.285 126.684 628.829 126.792 628.397 127.008C627.965 127.224 627.577 127.492 627.233 127.812C626.889 128.132 626.605 128.46 626.381 128.796V138H624.365V120.3L626.381 120.084ZM645.152 125.364V136.404H648.716V138H639.236V136.404H643.136V126.96H639.356V125.364H645.152ZM643.544 119.448C643.992 119.448 644.348 119.584 644.612 119.856C644.884 120.128 645.02 120.46 645.02 120.852C645.02 121.26 644.884 121.604 644.612 121.884C644.348 122.156 643.992 122.292 643.544 122.292C643.12 122.292 642.772 122.156 642.5 121.884C642.228 121.604 642.092 121.26 642.092 120.852C642.092 120.46 642.228 120.128 642.5 119.856C642.772 119.584 643.12 119.448 643.544 119.448ZM653.146 138V125.364H654.862L655.018 127.116C655.53 126.468 656.17 125.972 656.938 125.628C657.714 125.276 658.466 125.1 659.194 125.1C660.434 125.1 661.334 125.428 661.894 126.084C662.462 126.74 662.746 127.652 662.746 128.82V138H660.73V130.308C660.73 129.444 660.682 128.748 660.586 128.22C660.49 127.684 660.29 127.296 659.986 127.056C659.682 126.808 659.21 126.684 658.57 126.684C658.074 126.684 657.606 126.792 657.166 127.008C656.734 127.224 656.346 127.496 656.002 127.824C655.666 128.144 655.386 128.468 655.162 128.796V138H653.146ZM677.809 124.02L678.433 125.916C677.897 126.084 677.325 126.188 676.717 126.228C676.109 126.268 675.449 126.288 674.737 126.288C675.465 126.624 676.013 127.06 676.381 127.596C676.749 128.124 676.933 128.748 676.933 129.468C676.933 130.3 676.745 131.04 676.369 131.688C675.993 132.336 675.449 132.844 674.737 133.212C674.033 133.58 673.181 133.764 672.181 133.764C671.757 133.764 671.401 133.744 671.113 133.704C670.833 133.664 670.561 133.604 670.297 133.524C670.105 133.652 669.945 133.828 669.817 134.052C669.697 134.276 669.637 134.508 669.637 134.748C669.637 135.052 669.757 135.304 669.997 135.504C670.237 135.704 670.681 135.804 671.329 135.804H673.609C674.457 135.804 675.217 135.956 675.889 136.26C676.569 136.564 677.101 136.972 677.485 137.484C677.877 137.996 678.073 138.58 678.073 139.236C678.073 140.476 677.545 141.428 676.489 142.092C675.441 142.756 673.957 143.088 672.037 143.088C670.693 143.088 669.633 142.948 668.857 142.668C668.081 142.396 667.525 141.976 667.189 141.408C666.861 140.848 666.697 140.14 666.697 139.284H668.521C668.521 139.772 668.617 140.176 668.809 140.496C669.001 140.816 669.349 141.052 669.853 141.204C670.357 141.364 671.081 141.444 672.025 141.444C672.953 141.444 673.709 141.364 674.293 141.204C674.885 141.052 675.321 140.82 675.601 140.508C675.889 140.204 676.033 139.824 676.033 139.368C676.033 138.768 675.761 138.316 675.217 138.012C674.673 137.708 673.993 137.556 673.177 137.556H670.921C669.833 137.556 669.029 137.316 668.509 136.836C667.997 136.356 667.741 135.804 667.741 135.18C667.741 134.772 667.857 134.376 668.089 133.992C668.329 133.608 668.677 133.268 669.133 132.972C668.405 132.588 667.869 132.112 667.525 131.544C667.181 130.976 667.009 130.288 667.009 129.48C667.009 128.624 667.221 127.868 667.645 127.212C668.069 126.548 668.661 126.028 669.421 125.652C670.181 125.276 671.057 125.088 672.049 125.088C673.113 125.08 673.977 125.036 674.641 124.956C675.305 124.868 675.873 124.744 676.345 124.584C676.825 124.424 677.313 124.236 677.809 124.02ZM672.049 126.564C671.033 126.564 670.281 126.84 669.793 127.392C669.313 127.936 669.073 128.632 669.073 129.48C669.073 130.336 669.321 131.04 669.817 131.592C670.313 132.144 671.073 132.42 672.097 132.42C672.993 132.42 673.673 132.16 674.137 131.64C674.609 131.12 674.845 130.396 674.845 129.468C674.845 128.516 674.609 127.796 674.137 127.308C673.673 126.812 672.977 126.564 672.049 126.564Z" fill="black"/>
<line x1="550" y1="391.5" x2="904" y2="391.5" stroke="black" stroke-width="3"/>
<path d="M562.876 373.428C562.876 374.372 562.64 375.212 562.168 375.948C561.696 376.676 561.012 377.248 560.116 377.664C559.22 378.072 558.128 378.276 556.84 378.276C555.632 378.276 554.536 378.092 553.552 377.724C552.576 377.356 551.74 376.836 551.044 376.164L552.28 374.772C552.856 375.308 553.516 375.736 554.26 376.056C555.004 376.368 555.876 376.524 556.876 376.524C557.548 376.524 558.176 376.416 558.76 376.2C559.344 375.976 559.816 375.64 560.176 375.192C560.536 374.736 560.716 374.16 560.716 373.464C560.716 372.928 560.612 372.472 560.404 372.096C560.196 371.72 559.828 371.388 559.3 371.1C558.772 370.804 558.036 370.516 557.092 370.236C556.004 369.916 555.06 369.556 554.26 369.156C553.468 368.748 552.852 368.248 552.412 367.656C551.98 367.064 551.764 366.332 551.764 365.46C551.764 364.636 551.992 363.904 552.448 363.264C552.904 362.624 553.532 362.124 554.332 361.764C555.14 361.396 556.068 361.212 557.116 361.212C558.26 361.212 559.252 361.376 560.092 361.704C560.94 362.024 561.708 362.488 562.396 363.096L561.172 364.452C560.58 363.924 559.944 363.544 559.264 363.312C558.584 363.072 557.892 362.952 557.188 362.952C556.588 362.952 556.036 363.044 555.532 363.228C555.036 363.404 554.636 363.672 554.332 364.032C554.036 364.384 553.888 364.836 553.888 365.388C553.888 365.86 554.016 366.268 554.272 366.612C554.528 366.956 554.96 367.272 555.568 367.56C556.176 367.84 557.004 368.136 558.052 368.448C558.908 368.696 559.7 369.008 560.428 369.384C561.164 369.752 561.756 370.256 562.204 370.896C562.652 371.528 562.876 372.372 562.876 373.428ZM571.615 365.1C572.807 365.1 573.803 365.372 574.603 365.916C575.411 366.452 576.015 367.212 576.415 368.196C576.823 369.18 577.027 370.34 577.027 371.676C577.027 372.964 576.819 374.104 576.403 375.096C575.987 376.088 575.375 376.868 574.567 377.436C573.767 377.996 572.775 378.276 571.591 378.276C570.407 378.276 569.411 378.004 568.603 377.46C567.795 376.916 567.183 376.152 566.767 375.168C566.359 374.176 566.155 373.02 566.155 371.7C566.155 370.396 566.363 369.248 566.779 368.256C567.195 367.264 567.807 366.492 568.615 365.94C569.431 365.38 570.431 365.1 571.615 365.1ZM571.615 366.744C570.527 366.744 569.703 367.148 569.143 367.956C568.591 368.756 568.315 370.004 568.315 371.7C568.315 373.364 568.587 374.6 569.131 375.408C569.683 376.216 570.503 376.62 571.591 376.62C572.679 376.62 573.495 376.216 574.039 375.408C574.591 374.6 574.867 373.356 574.867 371.676C574.867 369.996 574.595 368.756 574.051 367.956C573.507 367.148 572.695 366.744 571.615 366.744ZM589.521 365.1C589.929 365.1 590.317 365.188 590.685 365.364C591.061 365.54 591.369 365.88 591.609 366.384C591.849 366.888 591.969 367.624 591.969 368.592V378H590.097V368.916C590.097 368.124 590.049 367.552 589.953 367.2C589.857 366.848 589.581 366.672 589.125 366.672C588.749 366.672 588.373 366.792 587.997 367.032C587.629 367.264 587.269 367.648 586.917 368.184V378H585.033V368.916C585.033 368.124 584.985 367.552 584.889 367.2C584.793 366.848 584.517 366.672 584.061 366.672C583.669 366.672 583.289 366.792 582.921 367.032C582.561 367.264 582.205 367.648 581.853 368.184V378H579.993V365.364H581.577L581.697 366.828C582.041 366.34 582.425 365.932 582.849 365.604C583.281 365.268 583.813 365.1 584.445 365.1C584.925 365.1 585.377 365.216 585.801 365.448C586.225 365.672 586.537 366.112 586.737 366.768C587.081 366.272 587.469 365.872 587.901 365.568C588.333 365.256 588.873 365.1 589.521 365.1ZM597.168 372.396C597.208 373.372 597.396 374.172 597.732 374.796C598.068 375.412 598.512 375.868 599.064 376.164C599.616 376.452 600.216 376.596 600.864 376.596C601.512 376.596 602.096 376.5 602.616 376.308C603.144 376.116 603.684 375.832 604.236 375.456L605.184 376.788C604.592 377.252 603.916 377.616 603.156 377.88C602.404 378.144 601.632 378.276 600.84 378.276C599.616 378.276 598.572 378 597.708 377.448C596.844 376.896 596.184 376.128 595.728 375.144C595.28 374.152 595.056 373.004 595.056 371.7C595.056 370.42 595.284 369.284 595.74 368.292C596.196 367.3 596.836 366.52 597.66 365.952C598.484 365.384 599.456 365.1 600.576 365.1C601.64 365.1 602.556 365.352 603.324 365.856C604.092 366.352 604.68 367.064 605.088 367.992C605.504 368.912 605.712 370.012 605.712 371.292C605.712 371.508 605.708 371.712 605.7 371.904C605.692 372.088 605.68 372.252 605.664 372.396H597.168ZM600.6 366.756C599.664 366.756 598.88 367.088 598.248 367.752C597.624 368.416 597.268 369.444 597.18 370.836H603.768C603.744 369.484 603.448 368.468 602.88 367.788C602.312 367.1 601.552 366.756 600.6 366.756ZM620.007 377.364C619.575 377.652 619.051 377.876 618.435 378.036C617.819 378.196 617.215 378.276 616.623 378.276C615.263 378.276 614.215 377.92 613.479 377.208C612.743 376.496 612.375 375.58 612.375 374.46V366.924H609.471V365.364H612.375V362.496L614.391 362.256V365.364H618.759L618.519 366.924H614.391V374.436C614.391 375.14 614.575 375.676 614.943 376.044C615.319 376.412 615.939 376.596 616.803 376.596C617.275 376.596 617.711 376.54 618.111 376.428C618.511 376.316 618.883 376.172 619.227 375.996L620.007 377.364ZM626.381 360.084V367.092C626.877 366.428 627.485 365.932 628.205 365.604C628.933 365.268 629.669 365.1 630.413 365.1C631.645 365.1 632.545 365.428 633.113 366.084C633.681 366.74 633.965 367.652 633.965 368.82V378H631.949V368.868C631.949 368.108 631.773 367.556 631.421 367.212C631.069 366.86 630.517 366.684 629.765 366.684C629.285 366.684 628.829 366.792 628.397 367.008C627.965 367.224 627.577 367.492 627.233 367.812C626.889 368.132 626.605 368.46 626.381 368.796V378H624.365V360.3L626.381 360.084ZM645.152 365.364V376.404H648.716V378H639.236V376.404H643.136V366.96H639.356V365.364H645.152ZM643.544 359.448C643.992 359.448 644.348 359.584 644.612 359.856C644.884 360.128 645.02 360.46 645.02 360.852C645.02 361.26 644.884 361.604 644.612 361.884C644.348 362.156 643.992 362.292 643.544 362.292C643.12 362.292 642.772 362.156 642.5 361.884C642.228 361.604 642.092 361.26 642.092 360.852C642.092 360.46 642.228 360.128 642.5 359.856C642.772 359.584 643.12 359.448 643.544 359.448ZM653.146 378V365.364H654.862L655.018 367.116C655.53 366.468 656.17 365.972 656.938 365.628C657.714 365.276 658.466 365.1 659.194 365.1C660.434 365.1 661.334 365.428 661.894 366.084C662.462 366.74 662.746 367.652 662.746 368.82V378H660.73V370.308C660.73 369.444 660.682 368.748 660.586 368.22C660.49 367.684 660.29 367.296 659.986 367.056C659.682 366.808 659.21 366.684 658.57 366.684C658.074 366.684 657.606 366.792 657.166 367.008C656.734 367.224 656.346 367.496 656.002 367.824C655.666 368.144 655.386 368.468 655.162 368.796V378H653.146ZM677.809 364.02L678.433 365.916C677.897 366.084 677.325 366.188 676.717 366.228C676.109 366.268 675.449 366.288 674.737 366.288C675.465 366.624 676.013 367.06 676.381 367.596C676.749 368.124 676.933 368.748 676.933 369.468C676.933 370.3 676.745 371.04 676.369 371.688C675.993 372.336 675.449 372.844 674.737 373.212C674.033 373.58 673.181 373.764 672.181 373.764C671.757 373.764 671.401 373.744 671.113 373.704C670.833 373.664 670.561 373.604 670.297 373.524C670.105 373.652 669.945 373.828 669.817 374.052C669.697 374.276 669.637 374.508 669.637 374.748C669.637 375.052 669.757 375.304 669.997 375.504C670.237 375.704 670.681 375.804 671.329 375.804H673.609C674.457 375.804 675.217 375.956 675.889 376.26C676.569 376.564 677.101 376.972 677.485 377.484C677.877 377.996 678.073 378.58 678.073 379.236C678.073 380.476 677.545 381.428 676.489 382.092C675.441 382.756 673.957 383.088 672.037 383.088C670.693 383.088 669.633 382.948 668.857 382.668C668.081 382.396 667.525 381.976 667.189 381.408C666.861 380.848 666.697 380.14 666.697 379.284H668.521C668.521 379.772 668.617 380.176 668.809 380.496C669.001 380.816 669.349 381.052 669.853 381.204C670.357 381.364 671.081 381.444 672.025 381.444C672.953 381.444 673.709 381.364 674.293 381.204C674.885 381.052 675.321 380.82 675.601 380.508C675.889 380.204 676.033 379.824 676.033 379.368C676.033 378.768 675.761 378.316 675.217 378.012C674.673 377.708 673.993 377.556 673.177 377.556H670.921C669.833 377.556 669.029 377.316 668.509 376.836C667.997 376.356 667.741 375.804 667.741 375.18C667.741 374.772 667.857 374.376 668.089 373.992C668.329 373.608 668.677 373.268 669.133 372.972C668.405 372.588 667.869 372.112 667.525 371.544C667.181 370.976 667.009 370.288 667.009 369.48C667.009 368.624 667.221 367.868 667.645 367.212C668.069 366.548 668.661 366.028 669.421 365.652C670.181 365.276 671.057 365.088 672.049 365.088C673.113 365.08 673.977 365.036 674.641 364.956C675.305 364.868 675.873 364.744 676.345 364.584C676.825 364.424 677.313 364.236 677.809 364.02ZM672.049 366.564C671.033 366.564 670.281 366.84 669.793 367.392C669.313 367.936 669.073 368.632 669.073 369.48C669.073 370.336 669.321 371.04 669.817 371.592C670.313 372.144 671.073 372.42 672.097 372.42C672.993 372.42 673.673 372.16 674.137 371.64C674.609 371.12 674.845 370.396 674.845 369.468C674.845 368.516 674.609 367.796 674.137 367.308C673.673 366.812 672.977 366.564 672.049 366.564Z" fill="black"/>
<line x1="550" y1="311.5" x2="904" y2="311.5" stroke="black" stroke-width="3"/>
<path d="M562.876 293.428C562.876 294.372 562.64 295.212 562.168 295.948C561.696 296.676 561.012 297.248 560.116 297.664C559.22 298.072 558.128 298.276 556.84 298.276C555.632 298.276 554.536 298.092 553.552 297.724C552.576 297.356 551.74 296.836 551.044 296.164L552.28 294.772C552.856 295.308 553.516 295.736 554.26 296.056C555.004 296.368 555.876 296.524 556.876 296.524C557.548 296.524 558.176 296.416 558.76 296.2C559.344 295.976 559.816 295.64 560.176 295.192C560.536 294.736 560.716 294.16 560.716 293.464C560.716 292.928 560.612 292.472 560.404 292.096C560.196 291.72 559.828 291.388 559.3 291.1C558.772 290.804 558.036 290.516 557.092 290.236C556.004 289.916 555.06 289.556 554.26 289.156C553.468 288.748 552.852 288.248 552.412 287.656C551.98 287.064 551.764 286.332 551.764 285.46C551.764 284.636 551.992 283.904 552.448 283.264C552.904 282.624 553.532 282.124 554.332 281.764C555.14 281.396 556.068 281.212 557.116 281.212C558.26 281.212 559.252 281.376 560.092 281.704C560.94 282.024 561.708 282.488 562.396 283.096L561.172 284.452C560.58 283.924 559.944 283.544 559.264 283.312C558.584 283.072 557.892 282.952 557.188 282.952C556.588 282.952 556.036 283.044 555.532 283.228C555.036 283.404 554.636 283.672 554.332 284.032C554.036 284.384 553.888 284.836 553.888 285.388C553.888 285.86 554.016 286.268 554.272 286.612C554.528 286.956 554.96 287.272 555.568 287.56C556.176 287.84 557.004 288.136 558.052 288.448C558.908 288.696 559.7 289.008 560.428 289.384C561.164 289.752 561.756 290.256 562.204 290.896C562.652 291.528 562.876 292.372 562.876 293.428ZM571.615 285.1C572.807 285.1 573.803 285.372 574.603 285.916C575.411 286.452 576.015 287.212 576.415 288.196C576.823 289.18 577.027 290.34 577.027 291.676C577.027 292.964 576.819 294.104 576.403 295.096C575.987 296.088 575.375 296.868 574.567 297.436C573.767 297.996 572.775 298.276 571.591 298.276C570.407 298.276 569.411 298.004 568.603 297.46C567.795 296.916 567.183 296.152 566.767 295.168C566.359 294.176 566.155 293.02 566.155 291.7C566.155 290.396 566.363 289.248 566.779 288.256C567.195 287.264 567.807 286.492 568.615 285.94C569.431 285.38 570.431 285.1 571.615 285.1ZM571.615 286.744C570.527 286.744 569.703 287.148 569.143 287.956C568.591 288.756 568.315 290.004 568.315 291.7C568.315 293.364 568.587 294.6 569.131 295.408C569.683 296.216 570.503 296.62 571.591 296.62C572.679 296.62 573.495 296.216 574.039 295.408C574.591 294.6 574.867 293.356 574.867 291.676C574.867 289.996 574.595 288.756 574.051 287.956C573.507 287.148 572.695 286.744 571.615 286.744ZM589.521 285.1C589.929 285.1 590.317 285.188 590.685 285.364C591.061 285.54 591.369 285.88 591.609 286.384C591.849 286.888 591.969 287.624 591.969 288.592V298H590.097V288.916C590.097 288.124 590.049 287.552 589.953 287.2C589.857 286.848 589.581 286.672 589.125 286.672C588.749 286.672 588.373 286.792 587.997 287.032C587.629 287.264 587.269 287.648 586.917 288.184V298H585.033V288.916C585.033 288.124 584.985 287.552 584.889 287.2C584.793 286.848 584.517 286.672 584.061 286.672C583.669 286.672 583.289 286.792 582.921 287.032C582.561 287.264 582.205 287.648 581.853 288.184V298H579.993V285.364H581.577L581.697 286.828C582.041 286.34 582.425 285.932 582.849 285.604C583.281 285.268 583.813 285.1 584.445 285.1C584.925 285.1 585.377 285.216 585.801 285.448C586.225 285.672 586.537 286.112 586.737 286.768C587.081 286.272 587.469 285.872 587.901 285.568C588.333 285.256 588.873 285.1 589.521 285.1ZM597.168 292.396C597.208 293.372 597.396 294.172 597.732 294.796C598.068 295.412 598.512 295.868 599.064 296.164C599.616 296.452 600.216 296.596 600.864 296.596C601.512 296.596 602.096 296.5 602.616 296.308C603.144 296.116 603.684 295.832 604.236 295.456L605.184 296.788C604.592 297.252 603.916 297.616 603.156 297.88C602.404 298.144 601.632 298.276 600.84 298.276C599.616 298.276 598.572 298 597.708 297.448C596.844 296.896 596.184 296.128 595.728 295.144C595.28 294.152 595.056 293.004 595.056 291.7C595.056 290.42 595.284 289.284 595.74 288.292C596.196 287.3 596.836 286.52 597.66 285.952C598.484 285.384 599.456 285.1 600.576 285.1C601.64 285.1 602.556 285.352 603.324 285.856C604.092 286.352 604.68 287.064 605.088 287.992C605.504 288.912 605.712 290.012 605.712 291.292C605.712 291.508 605.708 291.712 605.7 291.904C605.692 292.088 605.68 292.252 605.664 292.396H597.168ZM600.6 286.756C599.664 286.756 598.88 287.088 598.248 287.752C597.624 288.416 597.268 289.444 597.18 290.836H603.768C603.744 289.484 603.448 288.468 602.88 287.788C602.312 287.1 601.552 286.756 600.6 286.756ZM620.007 297.364C619.575 297.652 619.051 297.876 618.435 298.036C617.819 298.196 617.215 298.276 616.623 298.276C615.263 298.276 614.215 297.92 613.479 297.208C612.743 296.496 612.375 295.58 612.375 294.46V286.924H609.471V285.364H612.375V282.496L614.391 282.256V285.364H618.759L618.519 286.924H614.391V294.436C614.391 295.14 614.575 295.676 614.943 296.044C615.319 296.412 615.939 296.596 616.803 296.596C617.275 296.596 617.711 296.54 618.111 296.428C618.511 296.316 618.883 296.172 619.227 295.996L620.007 297.364ZM626.381 280.084V287.092C626.877 286.428 627.485 285.932 628.205 285.604C628.933 285.268 629.669 285.1 630.413 285.1C631.645 285.1 632.545 285.428 633.113 286.084C633.681 286.74 633.965 287.652 633.965 288.82V298H631.949V288.868C631.949 288.108 631.773 287.556 631.421 287.212C631.069 286.86 630.517 286.684 629.765 286.684C629.285 286.684 628.829 286.792 628.397 287.008C627.965 287.224 627.577 287.492 627.233 287.812C626.889 288.132 626.605 288.46 626.381 288.796V298H624.365V280.3L626.381 280.084ZM645.152 285.364V296.404H648.716V298H639.236V296.404H643.136V286.96H639.356V285.364H645.152ZM643.544 279.448C643.992 279.448 644.348 279.584 644.612 279.856C644.884 280.128 645.02 280.46 645.02 280.852C645.02 281.26 644.884 281.604 644.612 281.884C644.348 282.156 643.992 282.292 643.544 282.292C643.12 282.292 642.772 282.156 642.5 281.884C642.228 281.604 642.092 281.26 642.092 280.852C642.092 280.46 642.228 280.128 642.5 279.856C642.772 279.584 643.12 279.448 643.544 279.448ZM653.146 298V285.364H654.862L655.018 287.116C655.53 286.468 656.17 285.972 656.938 285.628C657.714 285.276 658.466 285.1 659.194 285.1C660.434 285.1 661.334 285.428 661.894 286.084C662.462 286.74 662.746 287.652 662.746 288.82V298H660.73V290.308C660.73 289.444 660.682 288.748 660.586 288.22C660.49 287.684 660.29 287.296 659.986 287.056C659.682 286.808 659.21 286.684 658.57 286.684C658.074 286.684 657.606 286.792 657.166 287.008C656.734 287.224 656.346 287.496 656.002 287.824C655.666 288.144 655.386 288.468 655.162 288.796V298H653.146ZM677.809 284.02L678.433 285.916C677.897 286.084 677.325 286.188 676.717 286.228C676.109 286.268 675.449 286.288 674.737 286.288C675.465 286.624 676.013 287.06 676.381 287.596C676.749 288.124 676.933 288.748 676.933 289.468C676.933 290.3 676.745 291.04 676.369 291.688C675.993 292.336 675.449 292.844 674.737 293.212C674.033 293.58 673.181 293.764 672.181 293.764C671.757 293.764 671.401 293.744 671.113 293.704C670.833 293.664 670.561 293.604 670.297 293.524C670.105 293.652 669.945 293.828 669.817 294.052C669.697 294.276 669.637 294.508 669.637 294.748C669.637 295.052 669.757 295.304 669.997 295.504C670.237 295.704 670.681 295.804 671.329 295.804H673.609C674.457 295.804 675.217 295.956 675.889 296.26C676.569 296.564 677.101 296.972 677.485 297.484C677.877 297.996 678.073 298.58 678.073 299.236C678.073 300.476 677.545 301.428 676.489 302.092C675.441 302.756 673.957 303.088 672.037 303.088C670.693 303.088 669.633 302.948 668.857 302.668C668.081 302.396 667.525 301.976 667.189 301.408C666.861 300.848 666.697 300.14 666.697 299.284H668.521C668.521 299.772 668.617 300.176 668.809 300.496C669.001 300.816 669.349 301.052 669.853 301.204C670.357 301.364 671.081 301.444 672.025 301.444C672.953 301.444 673.709 301.364 674.293 301.204C674.885 301.052 675.321 300.82 675.601 300.508C675.889 300.204 676.033 299.824 676.033 299.368C676.033 298.768 675.761 298.316 675.217 298.012C674.673 297.708 673.993 297.556 673.177 297.556H670.921C669.833 297.556 669.029 297.316 668.509 296.836C667.997 296.356 667.741 295.804 667.741 295.18C667.741 294.772 667.857 294.376 668.089 293.992C668.329 293.608 668.677 293.268 669.133 292.972C668.405 292.588 667.869 292.112 667.525 291.544C667.181 290.976 667.009 290.288 667.009 289.48C667.009 288.624 667.221 287.868 667.645 287.212C668.069 286.548 668.661 286.028 669.421 285.652C670.181 285.276 671.057 285.088 672.049 285.088C673.113 285.08 673.977 285.036 674.641 284.956C675.305 284.868 675.873 284.744 676.345 284.584C676.825 284.424 677.313 284.236 677.809 284.02ZM672.049 286.564C671.033 286.564 670.281 286.84 669.793 287.392C669.313 287.936 669.073 288.632 669.073 289.48C669.073 290.336 669.321 291.04 669.817 291.592C670.313 292.144 671.073 292.42 672.097 292.42C672.993 292.42 673.673 292.16 674.137 291.64C674.609 291.12 674.845 290.396 674.845 289.468C674.845 288.516 674.609 287.796 674.137 287.308C673.673 286.812 672.977 286.564 672.049 286.564Z" fill="black"/>
<line x1="550" y1="231.5" x2="904" y2="231.5" stroke="black" stroke-width="3"/>
<path d="M562.876 213.428C562.876 214.372 562.64 215.212 562.168 215.948C561.696 216.676 561.012 217.248 560.116 217.664C559.22 218.072 558.128 218.276 556.84 218.276C555.632 218.276 554.536 218.092 553.552 217.724C552.576 217.356 551.74 216.836 551.044 216.164L552.28 214.772C552.856 215.308 553.516 215.736 554.26 216.056C555.004 216.368 555.876 216.524 556.876 216.524C557.548 216.524 558.176 216.416 558.76 216.2C559.344 215.976 559.816 215.64 560.176 215.192C560.536 214.736 560.716 214.16 560.716 213.464C560.716 212.928 560.612 212.472 560.404 212.096C560.196 211.72 559.828 211.388 559.3 211.1C558.772 210.804 558.036 210.516 557.092 210.236C556.004 209.916 555.06 209.556 554.26 209.156C553.468 208.748 552.852 208.248 552.412 207.656C551.98 207.064 551.764 206.332 551.764 205.46C551.764 204.636 551.992 203.904 552.448 203.264C552.904 202.624 553.532 202.124 554.332 201.764C555.14 201.396 556.068 201.212 557.116 201.212C558.26 201.212 559.252 201.376 560.092 201.704C560.94 202.024 561.708 202.488 562.396 203.096L561.172 204.452C560.58 203.924 559.944 203.544 559.264 203.312C558.584 203.072 557.892 202.952 557.188 202.952C556.588 202.952 556.036 203.044 555.532 203.228C555.036 203.404 554.636 203.672 554.332 204.032C554.036 204.384 553.888 204.836 553.888 205.388C553.888 205.86 554.016 206.268 554.272 206.612C554.528 206.956 554.96 207.272 555.568 207.56C556.176 207.84 557.004 208.136 558.052 208.448C558.908 208.696 559.7 209.008 560.428 209.384C561.164 209.752 561.756 210.256 562.204 210.896C562.652 211.528 562.876 212.372 562.876 213.428ZM571.615 205.1C572.807 205.1 573.803 205.372 574.603 205.916C575.411 206.452 576.015 207.212 576.415 208.196C576.823 209.18 577.027 210.34 577.027 211.676C577.027 212.964 576.819 214.104 576.403 215.096C575.987 216.088 575.375 216.868 574.567 217.436C573.767 217.996 572.775 218.276 571.591 218.276C570.407 218.276 569.411 218.004 568.603 217.46C567.795 216.916 567.183 216.152 566.767 215.168C566.359 214.176 566.155 213.02 566.155 211.7C566.155 210.396 566.363 209.248 566.779 208.256C567.195 207.264 567.807 206.492 568.615 205.94C569.431 205.38 570.431 205.1 571.615 205.1ZM571.615 206.744C570.527 206.744 569.703 207.148 569.143 207.956C568.591 208.756 568.315 210.004 568.315 211.7C568.315 213.364 568.587 214.6 569.131 215.408C569.683 216.216 570.503 216.62 571.591 216.62C572.679 216.62 573.495 216.216 574.039 215.408C574.591 214.6 574.867 213.356 574.867 211.676C574.867 209.996 574.595 208.756 574.051 207.956C573.507 207.148 572.695 206.744 571.615 206.744ZM589.521 205.1C589.929 205.1 590.317 205.188 590.685 205.364C591.061 205.54 591.369 205.88 591.609 206.384C591.849 206.888 591.969 207.624 591.969 208.592V218H590.097V208.916C590.097 208.124 590.049 207.552 589.953 207.2C589.857 206.848 589.581 206.672 589.125 206.672C588.749 206.672 588.373 206.792 587.997 207.032C587.629 207.264 587.269 207.648 586.917 208.184V218H585.033V208.916C585.033 208.124 584.985 207.552 584.889 207.2C584.793 206.848 584.517 206.672 584.061 206.672C583.669 206.672 583.289 206.792 582.921 207.032C582.561 207.264 582.205 207.648 581.853 208.184V218H579.993V205.364H581.577L581.697 206.828C582.041 206.34 582.425 205.932 582.849 205.604C583.281 205.268 583.813 205.1 584.445 205.1C584.925 205.1 585.377 205.216 585.801 205.448C586.225 205.672 586.537 206.112 586.737 206.768C587.081 206.272 587.469 205.872 587.901 205.568C588.333 205.256 588.873 205.1 589.521 205.1ZM597.168 212.396C597.208 213.372 597.396 214.172 597.732 214.796C598.068 215.412 598.512 215.868 599.064 216.164C599.616 216.452 600.216 216.596 600.864 216.596C601.512 216.596 602.096 216.5 602.616 216.308C603.144 216.116 603.684 215.832 604.236 215.456L605.184 216.788C604.592 217.252 603.916 217.616 603.156 217.88C602.404 218.144 601.632 218.276 600.84 218.276C599.616 218.276 598.572 218 597.708 217.448C596.844 216.896 596.184 216.128 595.728 215.144C595.28 214.152 595.056 213.004 595.056 211.7C595.056 210.42 595.284 209.284 595.74 208.292C596.196 207.3 596.836 206.52 597.66 205.952C598.484 205.384 599.456 205.1 600.576 205.1C601.64 205.1 602.556 205.352 603.324 205.856C604.092 206.352 604.68 207.064 605.088 207.992C605.504 208.912 605.712 210.012 605.712 211.292C605.712 211.508 605.708 211.712 605.7 211.904C605.692 212.088 605.68 212.252 605.664 212.396H597.168ZM600.6 206.756C599.664 206.756 598.88 207.088 598.248 207.752C597.624 208.416 597.268 209.444 597.18 210.836H603.768C603.744 209.484 603.448 208.468 602.88 207.788C602.312 207.1 601.552 206.756 600.6 206.756ZM620.007 217.364C619.575 217.652 619.051 217.876 618.435 218.036C617.819 218.196 617.215 218.276 616.623 218.276C615.263 218.276 614.215 217.92 613.479 217.208C612.743 216.496 612.375 215.58 612.375 214.46V206.924H609.471V205.364H612.375V202.496L614.391 202.256V205.364H618.759L618.519 206.924H614.391V214.436C614.391 215.14 614.575 215.676 614.943 216.044C615.319 216.412 615.939 216.596 616.803 216.596C617.275 216.596 617.711 216.54 618.111 216.428C618.511 216.316 618.883 216.172 619.227 215.996L620.007 217.364ZM626.381 200.084V207.092C626.877 206.428 627.485 205.932 628.205 205.604C628.933 205.268 629.669 205.1 630.413 205.1C631.645 205.1 632.545 205.428 633.113 206.084C633.681 206.74 633.965 207.652 633.965 208.82V218H631.949V208.868C631.949 208.108 631.773 207.556 631.421 207.212C631.069 206.86 630.517 206.684 629.765 206.684C629.285 206.684 628.829 206.792 628.397 207.008C627.965 207.224 627.577 207.492 627.233 207.812C626.889 208.132 626.605 208.46 626.381 208.796V218H624.365V200.3L626.381 200.084ZM645.152 205.364V216.404H648.716V218H639.236V216.404H643.136V206.96H639.356V205.364H645.152ZM643.544 199.448C643.992 199.448 644.348 199.584 644.612 199.856C644.884 200.128 645.02 200.46 645.02 200.852C645.02 201.26 644.884 201.604 644.612 201.884C644.348 202.156 643.992 202.292 643.544 202.292C643.12 202.292 642.772 202.156 642.5 201.884C642.228 201.604 642.092 201.26 642.092 200.852C642.092 200.46 642.228 200.128 642.5 199.856C642.772 199.584 643.12 199.448 643.544 199.448ZM653.146 218V205.364H654.862L655.018 207.116C655.53 206.468 656.17 205.972 656.938 205.628C657.714 205.276 658.466 205.1 659.194 205.1C660.434 205.1 661.334 205.428 661.894 206.084C662.462 206.74 662.746 207.652 662.746 208.82V218H660.73V210.308C660.73 209.444 660.682 208.748 660.586 208.22C660.49 207.684 660.29 207.296 659.986 207.056C659.682 206.808 659.21 206.684 658.57 206.684C658.074 206.684 657.606 206.792 657.166 207.008C656.734 207.224 656.346 207.496 656.002 207.824C655.666 208.144 655.386 208.468 655.162 208.796V218H653.146ZM677.809 204.02L678.433 205.916C677.897 206.084 677.325 206.188 676.717 206.228C676.109 206.268 675.449 206.288 674.737 206.288C675.465 206.624 676.013 207.06 676.381 207.596C676.749 208.124 676.933 208.748 676.933 209.468C676.933 210.3 676.745 211.04 676.369 211.688C675.993 212.336 675.449 212.844 674.737 213.212C674.033 213.58 673.181 213.764 672.181 213.764C671.757 213.764 671.401 213.744 671.113 213.704C670.833 213.664 670.561 213.604 670.297 213.524C670.105 213.652 669.945 213.828 669.817 214.052C669.697 214.276 669.637 214.508 669.637 214.748C669.637 215.052 669.757 215.304 669.997 215.504C670.237 215.704 670.681 215.804 671.329 215.804H673.609C674.457 215.804 675.217 215.956 675.889 216.26C676.569 216.564 677.101 216.972 677.485 217.484C677.877 217.996 678.073 218.58 678.073 219.236C678.073 220.476 677.545 221.428 676.489 222.092C675.441 222.756 673.957 223.088 672.037 223.088C670.693 223.088 669.633 222.948 668.857 222.668C668.081 222.396 667.525 221.976 667.189 221.408C666.861 220.848 666.697 220.14 666.697 219.284H668.521C668.521 219.772 668.617 220.176 668.809 220.496C669.001 220.816 669.349 221.052 669.853 221.204C670.357 221.364 671.081 221.444 672.025 221.444C672.953 221.444 673.709 221.364 674.293 221.204C674.885 221.052 675.321 220.82 675.601 220.508C675.889 220.204 676.033 219.824 676.033 219.368C676.033 218.768 675.761 218.316 675.217 218.012C674.673 217.708 673.993 217.556 673.177 217.556H670.921C669.833 217.556 669.029 217.316 668.509 216.836C667.997 216.356 667.741 215.804 667.741 215.18C667.741 214.772 667.857 214.376 668.089 213.992C668.329 213.608 668.677 213.268 669.133 212.972C668.405 212.588 667.869 212.112 667.525 211.544C667.181 210.976 667.009 210.288 667.009 209.48C667.009 208.624 667.221 207.868 667.645 207.212C668.069 206.548 668.661 206.028 669.421 205.652C670.181 205.276 671.057 205.088 672.049 205.088C673.113 205.08 673.977 205.036 674.641 204.956C675.305 204.868 675.873 204.744 676.345 204.584C676.825 204.424 677.313 204.236 677.809 204.02ZM672.049 206.564C671.033 206.564 670.281 206.84 669.793 207.392C669.313 207.936 669.073 208.632 669.073 209.48C669.073 210.336 669.321 211.04 669.817 211.592C670.313 212.144 671.073 212.42 672.097 212.42C672.993 212.42 673.673 212.16 674.137 211.64C674.609 211.12 674.845 210.396 674.845 209.468C674.845 208.516 674.609 207.796 674.137 207.308C673.673 206.812 672.977 206.564 672.049 206.564Z" fill="black"/>
<line x1="154" y1="151.5" x2="508" y2="151.5" stroke="black" stroke-width="3"/>
<path d="M166.876 133.428C166.876 134.372 166.64 135.212 166.168 135.948C165.696 136.676 165.012 137.248 164.116 137.664C163.22 138.072 162.128 138.276 160.84 138.276C159.632 138.276 158.536 138.092 157.552 137.724C156.576 137.356 155.74 136.836 155.044 136.164L156.28 134.772C156.856 135.308 157.516 135.736 158.26 136.056C159.004 136.368 159.876 136.524 160.876 136.524C161.548 136.524 162.176 136.416 162.76 136.2C163.344 135.976 163.816 135.64 164.176 135.192C164.536 134.736 164.716 134.16 164.716 133.464C164.716 132.928 164.612 132.472 164.404 132.096C164.196 131.72 163.828 131.388 163.3 131.1C162.772 130.804 162.036 130.516 161.092 130.236C160.004 129.916 159.06 129.556 158.26 129.156C157.468 128.748 156.852 128.248 156.412 127.656C155.98 127.064 155.764 126.332 155.764 125.46C155.764 124.636 155.992 123.904 156.448 123.264C156.904 122.624 157.532 122.124 158.332 121.764C159.14 121.396 160.068 121.212 161.116 121.212C162.26 121.212 163.252 121.376 164.092 121.704C164.94 122.024 165.708 122.488 166.396 123.096L165.172 124.452C164.58 123.924 163.944 123.544 163.264 123.312C162.584 123.072 161.892 122.952 161.188 122.952C160.588 122.952 160.036 123.044 159.532 123.228C159.036 123.404 158.636 123.672 158.332 124.032C158.036 124.384 157.888 124.836 157.888 125.388C157.888 125.86 158.016 126.268 158.272 126.612C158.528 126.956 158.96 127.272 159.568 127.56C160.176 127.84 161.004 128.136 162.052 128.448C162.908 128.696 163.7 129.008 164.428 129.384C165.164 129.752 165.756 130.256 166.204 130.896C166.652 131.528 166.876 132.372 166.876 133.428ZM175.615 125.1C176.807 125.1 177.803 125.372 178.603 125.916C179.411 126.452 180.015 127.212 180.415 128.196C180.823 129.18 181.027 130.34 181.027 131.676C181.027 132.964 180.819 134.104 180.403 135.096C179.987 136.088 179.375 136.868 178.567 137.436C177.767 137.996 176.775 138.276 175.591 138.276C174.407 138.276 173.411 138.004 172.603 137.46C171.795 136.916 171.183 136.152 170.767 135.168C170.359 134.176 170.155 133.02 170.155 131.7C170.155 130.396 170.363 129.248 170.779 128.256C171.195 127.264 171.807 126.492 172.615 125.94C173.431 125.38 174.431 125.1 175.615 125.1ZM175.615 126.744C174.527 126.744 173.703 127.148 173.143 127.956C172.591 128.756 172.315 130.004 172.315 131.7C172.315 133.364 172.587 134.6 173.131 135.408C173.683 136.216 174.503 136.62 175.591 136.62C176.679 136.62 177.495 136.216 178.039 135.408C178.591 134.6 178.867 133.356 178.867 131.676C178.867 129.996 178.595 128.756 178.051 127.956C177.507 127.148 176.695 126.744 175.615 126.744ZM193.521 125.1C193.929 125.1 194.317 125.188 194.685 125.364C195.061 125.54 195.369 125.88 195.609 126.384C195.849 126.888 195.969 127.624 195.969 128.592V138H194.097V128.916C194.097 128.124 194.049 127.552 193.953 127.2C193.857 126.848 193.581 126.672 193.125 126.672C192.749 126.672 192.373 126.792 191.997 127.032C191.629 127.264 191.269 127.648 190.917 128.184V138H189.033V128.916C189.033 128.124 188.985 127.552 188.889 127.2C188.793 126.848 188.517 126.672 188.061 126.672C187.669 126.672 187.289 126.792 186.921 127.032C186.561 127.264 186.205 127.648 185.853 128.184V138H183.993V125.364H185.577L185.697 126.828C186.041 126.34 186.425 125.932 186.849 125.604C187.281 125.268 187.813 125.1 188.445 125.1C188.925 125.1 189.377 125.216 189.801 125.448C190.225 125.672 190.537 126.112 190.737 126.768C191.081 126.272 191.469 125.872 191.901 125.568C192.333 125.256 192.873 125.1 193.521 125.1ZM201.168 132.396C201.208 133.372 201.396 134.172 201.732 134.796C202.068 135.412 202.512 135.868 203.064 136.164C203.616 136.452 204.216 136.596 204.864 136.596C205.512 136.596 206.096 136.5 206.616 136.308C207.144 136.116 207.684 135.832 208.236 135.456L209.184 136.788C208.592 137.252 207.916 137.616 207.156 137.88C206.404 138.144 205.632 138.276 204.84 138.276C203.616 138.276 202.572 138 201.708 137.448C200.844 136.896 200.184 136.128 199.728 135.144C199.28 134.152 199.056 133.004 199.056 131.7C199.056 130.42 199.284 129.284 199.74 128.292C200.196 127.3 200.836 126.52 201.66 125.952C202.484 125.384 203.456 125.1 204.576 125.1C205.64 125.1 206.556 125.352 207.324 125.856C208.092 126.352 208.68 127.064 209.088 127.992C209.504 128.912 209.712 130.012 209.712 131.292C209.712 131.508 209.708 131.712 209.7 131.904C209.692 132.088 209.68 132.252 209.664 132.396H201.168ZM204.6 126.756C203.664 126.756 202.88 127.088 202.248 127.752C201.624 128.416 201.268 129.444 201.18 130.836H207.768C207.744 129.484 207.448 128.468 206.88 127.788C206.312 127.1 205.552 126.756 204.6 126.756ZM224.007 137.364C223.575 137.652 223.051 137.876 222.435 138.036C221.819 138.196 221.215 138.276 220.623 138.276C219.263 138.276 218.215 137.92 217.479 137.208C216.743 136.496 216.375 135.58 216.375 134.46V126.924H213.471V125.364H216.375V122.496L218.391 122.256V125.364H222.759L222.519 126.924H218.391V134.436C218.391 135.14 218.575 135.676 218.943 136.044C219.319 136.412 219.939 136.596 220.803 136.596C221.275 136.596 221.711 136.54 222.111 136.428C222.511 136.316 222.883 136.172 223.227 135.996L224.007 137.364ZM230.381 120.084V127.092C230.877 126.428 231.485 125.932 232.205 125.604C232.933 125.268 233.669 125.1 234.413 125.1C235.645 125.1 236.545 125.428 237.113 126.084C237.681 126.74 237.965 127.652 237.965 128.82V138H235.949V128.868C235.949 128.108 235.773 127.556 235.421 127.212C235.069 126.86 234.517 126.684 233.765 126.684C233.285 126.684 232.829 126.792 232.397 127.008C231.965 127.224 231.577 127.492 231.233 127.812C230.889 128.132 230.605 128.46 230.381 128.796V138H228.365V120.3L230.381 120.084ZM249.152 125.364V136.404H252.716V138H243.236V136.404H247.136V126.96H243.356V125.364H249.152ZM247.544 119.448C247.992 119.448 248.348 119.584 248.612 119.856C248.884 120.128 249.02 120.46 249.02 120.852C249.02 121.26 248.884 121.604 248.612 121.884C248.348 122.156 247.992 122.292 247.544 122.292C247.12 122.292 246.772 122.156 246.5 121.884C246.228 121.604 246.092 121.26 246.092 120.852C246.092 120.46 246.228 120.128 246.5 119.856C246.772 119.584 247.12 119.448 247.544 119.448ZM257.146 138V125.364H258.862L259.018 127.116C259.53 126.468 260.17 125.972 260.938 125.628C261.714 125.276 262.466 125.1 263.194 125.1C264.434 125.1 265.334 125.428 265.894 126.084C266.462 126.74 266.746 127.652 266.746 128.82V138H264.73V130.308C264.73 129.444 264.682 128.748 264.586 128.22C264.49 127.684 264.29 127.296 263.986 127.056C263.682 126.808 263.21 126.684 262.57 126.684C262.074 126.684 261.606 126.792 261.166 127.008C260.734 127.224 260.346 127.496 260.002 127.824C259.666 128.144 259.386 128.468 259.162 128.796V138H257.146ZM281.809 124.02L282.433 125.916C281.897 126.084 281.325 126.188 280.717 126.228C280.109 126.268 279.449 126.288 278.737 126.288C279.465 126.624 280.013 127.06 280.381 127.596C280.749 128.124 280.933 128.748 280.933 129.468C280.933 130.3 280.745 131.04 280.369 131.688C279.993 132.336 279.449 132.844 278.737 133.212C278.033 133.58 277.181 133.764 276.181 133.764C275.757 133.764 275.401 133.744 275.113 133.704C274.833 133.664 274.561 133.604 274.297 133.524C274.105 133.652 273.945 133.828 273.817 134.052C273.697 134.276 273.637 134.508 273.637 134.748C273.637 135.052 273.757 135.304 273.997 135.504C274.237 135.704 274.681 135.804 275.329 135.804H277.609C278.457 135.804 279.217 135.956 279.889 136.26C280.569 136.564 281.101 136.972 281.485 137.484C281.877 137.996 282.073 138.58 282.073 139.236C282.073 140.476 281.545 141.428 280.489 142.092C279.441 142.756 277.957 143.088 276.037 143.088C274.693 143.088 273.633 142.948 272.857 142.668C272.081 142.396 271.525 141.976 271.189 141.408C270.861 140.848 270.697 140.14 270.697 139.284H272.521C272.521 139.772 272.617 140.176 272.809 140.496C273.001 140.816 273.349 141.052 273.853 141.204C274.357 141.364 275.081 141.444 276.025 141.444C276.953 141.444 277.709 141.364 278.293 141.204C278.885 141.052 279.321 140.82 279.601 140.508C279.889 140.204 280.033 139.824 280.033 139.368C280.033 138.768 279.761 138.316 279.217 138.012C278.673 137.708 277.993 137.556 277.177 137.556H274.921C273.833 137.556 273.029 137.316 272.509 136.836C271.997 136.356 271.741 135.804 271.741 135.18C271.741 134.772 271.857 134.376 272.089 133.992C272.329 133.608 272.677 133.268 273.133 132.972C272.405 132.588 271.869 132.112 271.525 131.544C271.181 130.976 271.009 130.288 271.009 129.48C271.009 128.624 271.221 127.868 271.645 127.212C272.069 126.548 272.661 126.028 273.421 125.652C274.181 125.276 275.057 125.088 276.049 125.088C277.113 125.08 277.977 125.036 278.641 124.956C279.305 124.868 279.873 124.744 280.345 124.584C280.825 124.424 281.313 124.236 281.809 124.02ZM276.049 126.564C275.033 126.564 274.281 126.84 273.793 127.392C273.313 127.936 273.073 128.632 273.073 129.48C273.073 130.336 273.321 131.04 273.817 131.592C274.313 132.144 275.073 132.42 276.097 132.42C276.993 132.42 277.673 132.16 278.137 131.64C278.609 131.12 278.845 130.396 278.845 129.468C278.845 128.516 278.609 127.796 278.137 127.308C277.673 126.812 276.977 126.564 276.049 126.564Z" fill="black"/>
<line x1="154" y1="391.5" x2="508" y2="391.5" stroke="black" stroke-width="3"/>
<path d="M166.876 373.428C166.876 374.372 166.64 375.212 166.168 375.948C165.696 376.676 165.012 377.248 164.116 377.664C163.22 378.072 162.128 378.276 160.84 378.276C159.632 378.276 158.536 378.092 157.552 377.724C156.576 377.356 155.74 376.836 155.044 376.164L156.28 374.772C156.856 375.308 157.516 375.736 158.26 376.056C159.004 376.368 159.876 376.524 160.876 376.524C161.548 376.524 162.176 376.416 162.76 376.2C163.344 375.976 163.816 375.64 164.176 375.192C164.536 374.736 164.716 374.16 164.716 373.464C164.716 372.928 164.612 372.472 164.404 372.096C164.196 371.72 163.828 371.388 163.3 371.1C162.772 370.804 162.036 370.516 161.092 370.236C160.004 369.916 159.06 369.556 158.26 369.156C157.468 368.748 156.852 368.248 156.412 367.656C155.98 367.064 155.764 366.332 155.764 365.46C155.764 364.636 155.992 363.904 156.448 363.264C156.904 362.624 157.532 362.124 158.332 361.764C159.14 361.396 160.068 361.212 161.116 361.212C162.26 361.212 163.252 361.376 164.092 361.704C164.94 362.024 165.708 362.488 166.396 363.096L165.172 364.452C164.58 363.924 163.944 363.544 163.264 363.312C162.584 363.072 161.892 362.952 161.188 362.952C160.588 362.952 160.036 363.044 159.532 363.228C159.036 363.404 158.636 363.672 158.332 364.032C158.036 364.384 157.888 364.836 157.888 365.388C157.888 365.86 158.016 366.268 158.272 366.612C158.528 366.956 158.96 367.272 159.568 367.56C160.176 367.84 161.004 368.136 162.052 368.448C162.908 368.696 163.7 369.008 164.428 369.384C165.164 369.752 165.756 370.256 166.204 370.896C166.652 371.528 166.876 372.372 166.876 373.428ZM175.615 365.1C176.807 365.1 177.803 365.372 178.603 365.916C179.411 366.452 180.015 367.212 180.415 368.196C180.823 369.18 181.027 370.34 181.027 371.676C181.027 372.964 180.819 374.104 180.403 375.096C179.987 376.088 179.375 376.868 178.567 377.436C177.767 377.996 176.775 378.276 175.591 378.276C174.407 378.276 173.411 378.004 172.603 377.46C171.795 376.916 171.183 376.152 170.767 375.168C170.359 374.176 170.155 373.02 170.155 371.7C170.155 370.396 170.363 369.248 170.779 368.256C171.195 367.264 171.807 366.492 172.615 365.94C173.431 365.38 174.431 365.1 175.615 365.1ZM175.615 366.744C174.527 366.744 173.703 367.148 173.143 367.956C172.591 368.756 172.315 370.004 172.315 371.7C172.315 373.364 172.587 374.6 173.131 375.408C173.683 376.216 174.503 376.62 175.591 376.62C176.679 376.62 177.495 376.216 178.039 375.408C178.591 374.6 178.867 373.356 178.867 371.676C178.867 369.996 178.595 368.756 178.051 367.956C177.507 367.148 176.695 366.744 175.615 366.744ZM193.521 365.1C193.929 365.1 194.317 365.188 194.685 365.364C195.061 365.54 195.369 365.88 195.609 366.384C195.849 366.888 195.969 367.624 195.969 368.592V378H194.097V368.916C194.097 368.124 194.049 367.552 193.953 367.2C193.857 366.848 193.581 366.672 193.125 366.672C192.749 366.672 192.373 366.792 191.997 367.032C191.629 367.264 191.269 367.648 190.917 368.184V378H189.033V368.916C189.033 368.124 188.985 367.552 188.889 367.2C188.793 366.848 188.517 366.672 188.061 366.672C187.669 366.672 187.289 366.792 186.921 367.032C186.561 367.264 186.205 367.648 185.853 368.184V378H183.993V365.364H185.577L185.697 366.828C186.041 366.34 186.425 365.932 186.849 365.604C187.281 365.268 187.813 365.1 188.445 365.1C188.925 365.1 189.377 365.216 189.801 365.448C190.225 365.672 190.537 366.112 190.737 366.768C191.081 366.272 191.469 365.872 191.901 365.568C192.333 365.256 192.873 365.1 193.521 365.1ZM201.168 372.396C201.208 373.372 201.396 374.172 201.732 374.796C202.068 375.412 202.512 375.868 203.064 376.164C203.616 376.452 204.216 376.596 204.864 376.596C205.512 376.596 206.096 376.5 206.616 376.308C207.144 376.116 207.684 375.832 208.236 375.456L209.184 376.788C208.592 377.252 207.916 377.616 207.156 377.88C206.404 378.144 205.632 378.276 204.84 378.276C203.616 378.276 202.572 378 201.708 377.448C200.844 376.896 200.184 376.128 199.728 375.144C199.28 374.152 199.056 373.004 199.056 371.7C199.056 370.42 199.284 369.284 199.74 368.292C200.196 367.3 200.836 366.52 201.66 365.952C202.484 365.384 203.456 365.1 204.576 365.1C205.64 365.1 206.556 365.352 207.324 365.856C208.092 366.352 208.68 367.064 209.088 367.992C209.504 368.912 209.712 370.012 209.712 371.292C209.712 371.508 209.708 371.712 209.7 371.904C209.692 372.088 209.68 372.252 209.664 372.396H201.168ZM204.6 366.756C203.664 366.756 202.88 367.088 202.248 367.752C201.624 368.416 201.268 369.444 201.18 370.836H207.768C207.744 369.484 207.448 368.468 206.88 367.788C206.312 367.1 205.552 366.756 204.6 366.756ZM224.007 377.364C223.575 377.652 223.051 377.876 222.435 378.036C221.819 378.196 221.215 378.276 220.623 378.276C219.263 378.276 218.215 377.92 217.479 377.208C216.743 376.496 216.375 375.58 216.375 374.46V366.924H213.471V365.364H216.375V362.496L218.391 362.256V365.364H222.759L222.519 366.924H218.391V374.436C218.391 375.14 218.575 375.676 218.943 376.044C219.319 376.412 219.939 376.596 220.803 376.596C221.275 376.596 221.711 376.54 222.111 376.428C222.511 376.316 222.883 376.172 223.227 375.996L224.007 377.364ZM230.381 360.084V367.092C230.877 366.428 231.485 365.932 232.205 365.604C232.933 365.268 233.669 365.1 234.413 365.1C235.645 365.1 236.545 365.428 237.113 366.084C237.681 366.74 237.965 367.652 237.965 368.82V378H235.949V368.868C235.949 368.108 235.773 367.556 235.421 367.212C235.069 366.86 234.517 366.684 233.765 366.684C233.285 366.684 232.829 366.792 232.397 367.008C231.965 367.224 231.577 367.492 231.233 367.812C230.889 368.132 230.605 368.46 230.381 368.796V378H228.365V360.3L230.381 360.084ZM249.152 365.364V376.404H252.716V378H243.236V376.404H247.136V366.96H243.356V365.364H249.152ZM247.544 359.448C247.992 359.448 248.348 359.584 248.612 359.856C248.884 360.128 249.02 360.46 249.02 360.852C249.02 361.26 248.884 361.604 248.612 361.884C248.348 362.156 247.992 362.292 247.544 362.292C247.12 362.292 246.772 362.156 246.5 361.884C246.228 361.604 246.092 361.26 246.092 360.852C246.092 360.46 246.228 360.128 246.5 359.856C246.772 359.584 247.12 359.448 247.544 359.448ZM257.146 378V365.364H258.862L259.018 367.116C259.53 366.468 260.17 365.972 260.938 365.628C261.714 365.276 262.466 365.1 263.194 365.1C264.434 365.1 265.334 365.428 265.894 366.084C266.462 366.74 266.746 367.652 266.746 368.82V378H264.73V370.308C264.73 369.444 264.682 368.748 264.586 368.22C264.49 367.684 264.29 367.296 263.986 367.056C263.682 366.808 263.21 366.684 262.57 366.684C262.074 366.684 261.606 366.792 261.166 367.008C260.734 367.224 260.346 367.496 260.002 367.824C259.666 368.144 259.386 368.468 259.162 368.796V378H257.146ZM281.809 364.02L282.433 365.916C281.897 366.084 281.325 366.188 280.717 366.228C280.109 366.268 279.449 366.288 278.737 366.288C279.465 366.624 280.013 367.06 280.381 367.596C280.749 368.124 280.933 368.748 280.933 369.468C280.933 370.3 280.745 371.04 280.369 371.688C279.993 372.336 279.449 372.844 278.737 373.212C278.033 373.58 277.181 373.764 276.181 373.764C275.757 373.764 275.401 373.744 275.113 373.704C274.833 373.664 274.561 373.604 274.297 373.524C274.105 373.652 273.945 373.828 273.817 374.052C273.697 374.276 273.637 374.508 273.637 374.748C273.637 375.052 273.757 375.304 273.997 375.504C274.237 375.704 274.681 375.804 275.329 375.804H277.609C278.457 375.804 279.217 375.956 279.889 376.26C280.569 376.564 281.101 376.972 281.485 377.484C281.877 377.996 282.073 378.58 282.073 379.236C282.073 380.476 281.545 381.428 280.489 382.092C279.441 382.756 277.957 383.088 276.037 383.088C274.693 383.088 273.633 382.948 272.857 382.668C272.081 382.396 271.525 381.976 271.189 381.408C270.861 380.848 270.697 380.14 270.697 379.284H272.521C272.521 379.772 272.617 380.176 272.809 380.496C273.001 380.816 273.349 381.052 273.853 381.204C274.357 381.364 275.081 381.444 276.025 381.444C276.953 381.444 277.709 381.364 278.293 381.204C278.885 381.052 279.321 380.82 279.601 380.508C279.889 380.204 280.033 379.824 280.033 379.368C280.033 378.768 279.761 378.316 279.217 378.012C278.673 377.708 277.993 377.556 277.177 377.556H274.921C273.833 377.556 273.029 377.316 272.509 376.836C271.997 376.356 271.741 375.804 271.741 375.18C271.741 374.772 271.857 374.376 272.089 373.992C272.329 373.608 272.677 373.268 273.133 372.972C272.405 372.588 271.869 372.112 271.525 371.544C271.181 370.976 271.009 370.288 271.009 369.48C271.009 368.624 271.221 367.868 271.645 367.212C272.069 366.548 272.661 366.028 273.421 365.652C274.181 365.276 275.057 365.088 276.049 365.088C277.113 365.08 277.977 365.036 278.641 364.956C279.305 364.868 279.873 364.744 280.345 364.584C280.825 364.424 281.313 364.236 281.809 364.02ZM276.049 366.564C275.033 366.564 274.281 366.84 273.793 367.392C273.313 367.936 273.073 368.632 273.073 369.48C273.073 370.336 273.321 371.04 273.817 371.592C274.313 372.144 275.073 372.42 276.097 372.42C276.993 372.42 277.673 372.16 278.137 371.64C278.609 371.12 278.845 370.396 278.845 369.468C278.845 368.516 278.609 367.796 278.137 367.308C277.673 366.812 276.977 366.564 276.049 366.564Z" fill="black"/>
<line x1="154" y1="311.5" x2="508" y2="311.5" stroke="black" stroke-width="3"/>
<path d="M166.876 293.428C166.876 294.372 166.64 295.212 166.168 295.948C165.696 296.676 165.012 297.248 164.116 297.664C163.22 298.072 162.128 298.276 160.84 298.276C159.632 298.276 158.536 298.092 157.552 297.724C156.576 297.356 155.74 296.836 155.044 296.164L156.28 294.772C156.856 295.308 157.516 295.736 158.26 296.056C159.004 296.368 159.876 296.524 160.876 296.524C161.548 296.524 162.176 296.416 162.76 296.2C163.344 295.976 163.816 295.64 164.176 295.192C164.536 294.736 164.716 294.16 164.716 293.464C164.716 292.928 164.612 292.472 164.404 292.096C164.196 291.72 163.828 291.388 163.3 291.1C162.772 290.804 162.036 290.516 161.092 290.236C160.004 289.916 159.06 289.556 158.26 289.156C157.468 288.748 156.852 288.248 156.412 287.656C155.98 287.064 155.764 286.332 155.764 285.46C155.764 284.636 155.992 283.904 156.448 283.264C156.904 282.624 157.532 282.124 158.332 281.764C159.14 281.396 160.068 281.212 161.116 281.212C162.26 281.212 163.252 281.376 164.092 281.704C164.94 282.024 165.708 282.488 166.396 283.096L165.172 284.452C164.58 283.924 163.944 283.544 163.264 283.312C162.584 283.072 161.892 282.952 161.188 282.952C160.588 282.952 160.036 283.044 159.532 283.228C159.036 283.404 158.636 283.672 158.332 284.032C158.036 284.384 157.888 284.836 157.888 285.388C157.888 285.86 158.016 286.268 158.272 286.612C158.528 286.956 158.96 287.272 159.568 287.56C160.176 287.84 161.004 288.136 162.052 288.448C162.908 288.696 163.7 289.008 164.428 289.384C165.164 289.752 165.756 290.256 166.204 290.896C166.652 291.528 166.876 292.372 166.876 293.428ZM175.615 285.1C176.807 285.1 177.803 285.372 178.603 285.916C179.411 286.452 180.015 287.212 180.415 288.196C180.823 289.18 181.027 290.34 181.027 291.676C181.027 292.964 180.819 294.104 180.403 295.096C179.987 296.088 179.375 296.868 178.567 297.436C177.767 297.996 176.775 298.276 175.591 298.276C174.407 298.276 173.411 298.004 172.603 297.46C171.795 296.916 171.183 296.152 170.767 295.168C170.359 294.176 170.155 293.02 170.155 291.7C170.155 290.396 170.363 289.248 170.779 288.256C171.195 287.264 171.807 286.492 172.615 285.94C173.431 285.38 174.431 285.1 175.615 285.1ZM175.615 286.744C174.527 286.744 173.703 287.148 173.143 287.956C172.591 288.756 172.315 290.004 172.315 291.7C172.315 293.364 172.587 294.6 173.131 295.408C173.683 296.216 174.503 296.62 175.591 296.62C176.679 296.62 177.495 296.216 178.039 295.408C178.591 294.6 178.867 293.356 178.867 291.676C178.867 289.996 178.595 288.756 178.051 287.956C177.507 287.148 176.695 286.744 175.615 286.744ZM193.521 285.1C193.929 285.1 194.317 285.188 194.685 285.364C195.061 285.54 195.369 285.88 195.609 286.384C195.849 286.888 195.969 287.624 195.969 288.592V298H194.097V288.916C194.097 288.124 194.049 287.552 193.953 287.2C193.857 286.848 193.581 286.672 193.125 286.672C192.749 286.672 192.373 286.792 191.997 287.032C191.629 287.264 191.269 287.648 190.917 288.184V298H189.033V288.916C189.033 288.124 188.985 287.552 188.889 287.2C188.793 286.848 188.517 286.672 188.061 286.672C187.669 286.672 187.289 286.792 186.921 287.032C186.561 287.264 186.205 287.648 185.853 288.184V298H183.993V285.364H185.577L185.697 286.828C186.041 286.34 186.425 285.932 186.849 285.604C187.281 285.268 187.813 285.1 188.445 285.1C188.925 285.1 189.377 285.216 189.801 285.448C190.225 285.672 190.537 286.112 190.737 286.768C191.081 286.272 191.469 285.872 191.901 285.568C192.333 285.256 192.873 285.1 193.521 285.1ZM201.168 292.396C201.208 293.372 201.396 294.172 201.732 294.796C202.068 295.412 202.512 295.868 203.064 296.164C203.616 296.452 204.216 296.596 204.864 296.596C205.512 296.596 206.096 296.5 206.616 296.308C207.144 296.116 207.684 295.832 208.236 295.456L209.184 296.788C208.592 297.252 207.916 297.616 207.156 297.88C206.404 298.144 205.632 298.276 204.84 298.276C203.616 298.276 202.572 298 201.708 297.448C200.844 296.896 200.184 296.128 199.728 295.144C199.28 294.152 199.056 293.004 199.056 291.7C199.056 290.42 199.284 289.284 199.74 288.292C200.196 287.3 200.836 286.52 201.66 285.952C202.484 285.384 203.456 285.1 204.576 285.1C205.64 285.1 206.556 285.352 207.324 285.856C208.092 286.352 208.68 287.064 209.088 287.992C209.504 288.912 209.712 290.012 209.712 291.292C209.712 291.508 209.708 291.712 209.7 291.904C209.692 292.088 209.68 292.252 209.664 292.396H201.168ZM204.6 286.756C203.664 286.756 202.88 287.088 202.248 287.752C201.624 288.416 201.268 289.444 201.18 290.836H207.768C207.744 289.484 207.448 288.468 206.88 287.788C206.312 287.1 205.552 286.756 204.6 286.756ZM224.007 297.364C223.575 297.652 223.051 297.876 222.435 298.036C221.819 298.196 221.215 298.276 220.623 298.276C219.263 298.276 218.215 297.92 217.479 297.208C216.743 296.496 216.375 295.58 216.375 294.46V286.924H213.471V285.364H216.375V282.496L218.391 282.256V285.364H222.759L222.519 286.924H218.391V294.436C218.391 295.14 218.575 295.676 218.943 296.044C219.319 296.412 219.939 296.596 220.803 296.596C221.275 296.596 221.711 296.54 222.111 296.428C222.511 296.316 222.883 296.172 223.227 295.996L224.007 297.364ZM230.381 280.084V287.092C230.877 286.428 231.485 285.932 232.205 285.604C232.933 285.268 233.669 285.1 234.413 285.1C235.645 285.1 236.545 285.428 237.113 286.084C237.681 286.74 237.965 287.652 237.965 288.82V298H235.949V288.868C235.949 288.108 235.773 287.556 235.421 287.212C235.069 286.86 234.517 286.684 233.765 286.684C233.285 286.684 232.829 286.792 232.397 287.008C231.965 287.224 231.577 287.492 231.233 287.812C230.889 288.132 230.605 288.46 230.381 288.796V298H228.365V280.3L230.381 280.084ZM249.152 285.364V296.404H252.716V298H243.236V296.404H247.136V286.96H243.356V285.364H249.152ZM247.544 279.448C247.992 279.448 248.348 279.584 248.612 279.856C248.884 280.128 249.02 280.46 249.02 280.852C249.02 281.26 248.884 281.604 248.612 281.884C248.348 282.156 247.992 282.292 247.544 282.292C247.12 282.292 246.772 282.156 246.5 281.884C246.228 281.604 246.092 281.26 246.092 280.852C246.092 280.46 246.228 280.128 246.5 279.856C246.772 279.584 247.12 279.448 247.544 279.448ZM257.146 298V285.364H258.862L259.018 287.116C259.53 286.468 260.17 285.972 260.938 285.628C261.714 285.276 262.466 285.1 263.194 285.1C264.434 285.1 265.334 285.428 265.894 286.084C266.462 286.74 266.746 287.652 266.746 288.82V298H264.73V290.308C264.73 289.444 264.682 288.748 264.586 288.22C264.49 287.684 264.29 287.296 263.986 287.056C263.682 286.808 263.21 286.684 262.57 286.684C262.074 286.684 261.606 286.792 261.166 287.008C260.734 287.224 260.346 287.496 260.002 287.824C259.666 288.144 259.386 288.468 259.162 288.796V298H257.146ZM281.809 284.02L282.433 285.916C281.897 286.084 281.325 286.188 280.717 286.228C280.109 286.268 279.449 286.288 278.737 286.288C279.465 286.624 280.013 287.06 280.381 287.596C280.749 288.124 280.933 288.748 280.933 289.468C280.933 290.3 280.745 291.04 280.369 291.688C279.993 292.336 279.449 292.844 278.737 293.212C278.033 293.58 277.181 293.764 276.181 293.764C275.757 293.764 275.401 293.744 275.113 293.704C274.833 293.664 274.561 293.604 274.297 293.524C274.105 293.652 273.945 293.828 273.817 294.052C273.697 294.276 273.637 294.508 273.637 294.748C273.637 295.052 273.757 295.304 273.997 295.504C274.237 295.704 274.681 295.804 275.329 295.804H277.609C278.457 295.804 279.217 295.956 279.889 296.26C280.569 296.564 281.101 296.972 281.485 297.484C281.877 297.996 282.073 298.58 282.073 299.236C282.073 300.476 281.545 301.428 280.489 302.092C279.441 302.756 277.957 303.088 276.037 303.088C274.693 303.088 273.633 302.948 272.857 302.668C272.081 302.396 271.525 301.976 271.189 301.408C270.861 300.848 270.697 300.14 270.697 299.284H272.521C272.521 299.772 272.617 300.176 272.809 300.496C273.001 300.816 273.349 301.052 273.853 301.204C274.357 301.364 275.081 301.444 276.025 301.444C276.953 301.444 277.709 301.364 278.293 301.204C278.885 301.052 279.321 300.82 279.601 300.508C279.889 300.204 280.033 299.824 280.033 299.368C280.033 298.768 279.761 298.316 279.217 298.012C278.673 297.708 277.993 297.556 277.177 297.556H274.921C273.833 297.556 273.029 297.316 272.509 296.836C271.997 296.356 271.741 295.804 271.741 295.18C271.741 294.772 271.857 294.376 272.089 293.992C272.329 293.608 272.677 293.268 273.133 292.972C272.405 292.588 271.869 292.112 271.525 291.544C271.181 290.976 271.009 290.288 271.009 289.48C271.009 288.624 271.221 287.868 271.645 287.212C272.069 286.548 272.661 286.028 273.421 285.652C274.181 285.276 275.057 285.088 276.049 285.088C277.113 285.08 277.977 285.036 278.641 284.956C279.305 284.868 279.873 284.744 280.345 284.584C280.825 284.424 281.313 284.236 281.809 284.02ZM276.049 286.564C275.033 286.564 274.281 286.84 273.793 287.392C273.313 287.936 273.073 288.632 273.073 289.48C273.073 290.336 273.321 291.04 273.817 291.592C274.313 292.144 275.073 292.42 276.097 292.42C276.993 292.42 277.673 292.16 278.137 291.64C278.609 291.12 278.845 290.396 278.845 289.468C278.845 288.516 278.609 287.796 278.137 287.308C277.673 286.812 276.977 286.564 276.049 286.564Z" fill="black"/>
<line x1="154" y1="231.5" x2="508" y2="231.5" stroke="black" stroke-width="3"/>
<path d="M166.876 213.428C166.876 214.372 166.64 215.212 166.168 215.948C165.696 216.676 165.012 217.248 164.116 217.664C163.22 218.072 162.128 218.276 160.84 218.276C159.632 218.276 158.536 218.092 157.552 217.724C156.576 217.356 155.74 216.836 155.044 216.164L156.28 214.772C156.856 215.308 157.516 215.736 158.26 216.056C159.004 216.368 159.876 216.524 160.876 216.524C161.548 216.524 162.176 216.416 162.76 216.2C163.344 215.976 163.816 215.64 164.176 215.192C164.536 214.736 164.716 214.16 164.716 213.464C164.716 212.928 164.612 212.472 164.404 212.096C164.196 211.72 163.828 211.388 163.3 211.1C162.772 210.804 162.036 210.516 161.092 210.236C160.004 209.916 159.06 209.556 158.26 209.156C157.468 208.748 156.852 208.248 156.412 207.656C155.98 207.064 155.764 206.332 155.764 205.46C155.764 204.636 155.992 203.904 156.448 203.264C156.904 202.624 157.532 202.124 158.332 201.764C159.14 201.396 160.068 201.212 161.116 201.212C162.26 201.212 163.252 201.376 164.092 201.704C164.94 202.024 165.708 202.488 166.396 203.096L165.172 204.452C164.58 203.924 163.944 203.544 163.264 203.312C162.584 203.072 161.892 202.952 161.188 202.952C160.588 202.952 160.036 203.044 159.532 203.228C159.036 203.404 158.636 203.672 158.332 204.032C158.036 204.384 157.888 204.836 157.888 205.388C157.888 205.86 158.016 206.268 158.272 206.612C158.528 206.956 158.96 207.272 159.568 207.56C160.176 207.84 161.004 208.136 162.052 208.448C162.908 208.696 163.7 209.008 164.428 209.384C165.164 209.752 165.756 210.256 166.204 210.896C166.652 211.528 166.876 212.372 166.876 213.428ZM175.615 205.1C176.807 205.1 177.803 205.372 178.603 205.916C179.411 206.452 180.015 207.212 180.415 208.196C180.823 209.18 181.027 210.34 181.027 211.676C181.027 212.964 180.819 214.104 180.403 215.096C179.987 216.088 179.375 216.868 178.567 217.436C177.767 217.996 176.775 218.276 175.591 218.276C174.407 218.276 173.411 218.004 172.603 217.46C171.795 216.916 171.183 216.152 170.767 215.168C170.359 214.176 170.155 213.02 170.155 211.7C170.155 210.396 170.363 209.248 170.779 208.256C171.195 207.264 171.807 206.492 172.615 205.94C173.431 205.38 174.431 205.1 175.615 205.1ZM175.615 206.744C174.527 206.744 173.703 207.148 173.143 207.956C172.591 208.756 172.315 210.004 172.315 211.7C172.315 213.364 172.587 214.6 173.131 215.408C173.683 216.216 174.503 216.62 175.591 216.62C176.679 216.62 177.495 216.216 178.039 215.408C178.591 214.6 178.867 213.356 178.867 211.676C178.867 209.996 178.595 208.756 178.051 207.956C177.507 207.148 176.695 206.744 175.615 206.744ZM193.521 205.1C193.929 205.1 194.317 205.188 194.685 205.364C195.061 205.54 195.369 205.88 195.609 206.384C195.849 206.888 195.969 207.624 195.969 208.592V218H194.097V208.916C194.097 208.124 194.049 207.552 193.953 207.2C193.857 206.848 193.581 206.672 193.125 206.672C192.749 206.672 192.373 206.792 191.997 207.032C191.629 207.264 191.269 207.648 190.917 208.184V218H189.033V208.916C189.033 208.124 188.985 207.552 188.889 207.2C188.793 206.848 188.517 206.672 188.061 206.672C187.669 206.672 187.289 206.792 186.921 207.032C186.561 207.264 186.205 207.648 185.853 208.184V218H183.993V205.364H185.577L185.697 206.828C186.041 206.34 186.425 205.932 186.849 205.604C187.281 205.268 187.813 205.1 188.445 205.1C188.925 205.1 189.377 205.216 189.801 205.448C190.225 205.672 190.537 206.112 190.737 206.768C191.081 206.272 191.469 205.872 191.901 205.568C192.333 205.256 192.873 205.1 193.521 205.1ZM201.168 212.396C201.208 213.372 201.396 214.172 201.732 214.796C202.068 215.412 202.512 215.868 203.064 216.164C203.616 216.452 204.216 216.596 204.864 216.596C205.512 216.596 206.096 216.5 206.616 216.308C207.144 216.116 207.684 215.832 208.236 215.456L209.184 216.788C208.592 217.252 207.916 217.616 207.156 217.88C206.404 218.144 205.632 218.276 204.84 218.276C203.616 218.276 202.572 218 201.708 217.448C200.844 216.896 200.184 216.128 199.728 215.144C199.28 214.152 199.056 213.004 199.056 211.7C199.056 210.42 199.284 209.284 199.74 208.292C200.196 207.3 200.836 206.52 201.66 205.952C202.484 205.384 203.456 205.1 204.576 205.1C205.64 205.1 206.556 205.352 207.324 205.856C208.092 206.352 208.68 207.064 209.088 207.992C209.504 208.912 209.712 210.012 209.712 211.292C209.712 211.508 209.708 211.712 209.7 211.904C209.692 212.088 209.68 212.252 209.664 212.396H201.168ZM204.6 206.756C203.664 206.756 202.88 207.088 202.248 207.752C201.624 208.416 201.268 209.444 201.18 210.836H207.768C207.744 209.484 207.448 208.468 206.88 207.788C206.312 207.1 205.552 206.756 204.6 206.756ZM224.007 217.364C223.575 217.652 223.051 217.876 222.435 218.036C221.819 218.196 221.215 218.276 220.623 218.276C219.263 218.276 218.215 217.92 217.479 217.208C216.743 216.496 216.375 215.58 216.375 214.46V206.924H213.471V205.364H216.375V202.496L218.391 202.256V205.364H222.759L222.519 206.924H218.391V214.436C218.391 215.14 218.575 215.676 218.943 216.044C219.319 216.412 219.939 216.596 220.803 216.596C221.275 216.596 221.711 216.54 222.111 216.428C222.511 216.316 222.883 216.172 223.227 215.996L224.007 217.364ZM230.381 200.084V207.092C230.877 206.428 231.485 205.932 232.205 205.604C232.933 205.268 233.669 205.1 234.413 205.1C235.645 205.1 236.545 205.428 237.113 206.084C237.681 206.74 237.965 207.652 237.965 208.82V218H235.949V208.868C235.949 208.108 235.773 207.556 235.421 207.212C235.069 206.86 234.517 206.684 233.765 206.684C233.285 206.684 232.829 206.792 232.397 207.008C231.965 207.224 231.577 207.492 231.233 207.812C230.889 208.132 230.605 208.46 230.381 208.796V218H228.365V200.3L230.381 200.084ZM249.152 205.364V216.404H252.716V218H243.236V216.404H247.136V206.96H243.356V205.364H249.152ZM247.544 199.448C247.992 199.448 248.348 199.584 248.612 199.856C248.884 200.128 249.02 200.46 249.02 200.852C249.02 201.26 248.884 201.604 248.612 201.884C248.348 202.156 247.992 202.292 247.544 202.292C247.12 202.292 246.772 202.156 246.5 201.884C246.228 201.604 246.092 201.26 246.092 200.852C246.092 200.46 246.228 200.128 246.5 199.856C246.772 199.584 247.12 199.448 247.544 199.448ZM257.146 218V205.364H258.862L259.018 207.116C259.53 206.468 260.17 205.972 260.938 205.628C261.714 205.276 262.466 205.1 263.194 205.1C264.434 205.1 265.334 205.428 265.894 206.084C266.462 206.74 266.746 207.652 266.746 208.82V218H264.73V210.308C264.73 209.444 264.682 208.748 264.586 208.22C264.49 207.684 264.29 207.296 263.986 207.056C263.682 206.808 263.21 206.684 262.57 206.684C262.074 206.684 261.606 206.792 261.166 207.008C260.734 207.224 260.346 207.496 260.002 207.824C259.666 208.144 259.386 208.468 259.162 208.796V218H257.146ZM281.809 204.02L282.433 205.916C281.897 206.084 281.325 206.188 280.717 206.228C280.109 206.268 279.449 206.288 278.737 206.288C279.465 206.624 280.013 207.06 280.381 207.596C280.749 208.124 280.933 208.748 280.933 209.468C280.933 210.3 280.745 211.04 280.369 211.688C279.993 212.336 279.449 212.844 278.737 213.212C278.033 213.58 277.181 213.764 276.181 213.764C275.757 213.764 275.401 213.744 275.113 213.704C274.833 213.664 274.561 213.604 274.297 213.524C274.105 213.652 273.945 213.828 273.817 214.052C273.697 214.276 273.637 214.508 273.637 214.748C273.637 215.052 273.757 215.304 273.997 215.504C274.237 215.704 274.681 215.804 275.329 215.804H277.609C278.457 215.804 279.217 215.956 279.889 216.26C280.569 216.564 281.101 216.972 281.485 217.484C281.877 217.996 282.073 218.58 282.073 219.236C282.073 220.476 281.545 221.428 280.489 222.092C279.441 222.756 277.957 223.088 276.037 223.088C274.693 223.088 273.633 222.948 272.857 222.668C272.081 222.396 271.525 221.976 271.189 221.408C270.861 220.848 270.697 220.14 270.697 219.284H272.521C272.521 219.772 272.617 220.176 272.809 220.496C273.001 220.816 273.349 221.052 273.853 221.204C274.357 221.364 275.081 221.444 276.025 221.444C276.953 221.444 277.709 221.364 278.293 221.204C278.885 221.052 279.321 220.82 279.601 220.508C279.889 220.204 280.033 219.824 280.033 219.368C280.033 218.768 279.761 218.316 279.217 218.012C278.673 217.708 277.993 217.556 277.177 217.556H274.921C273.833 217.556 273.029 217.316 272.509 216.836C271.997 216.356 271.741 215.804 271.741 215.18C271.741 214.772 271.857 214.376 272.089 213.992C272.329 213.608 272.677 213.268 273.133 212.972C272.405 212.588 271.869 212.112 271.525 211.544C271.181 210.976 271.009 210.288 271.009 209.48C271.009 208.624 271.221 207.868 271.645 207.212C272.069 206.548 272.661 206.028 273.421 205.652C274.181 205.276 275.057 205.088 276.049 205.088C277.113 205.08 277.977 205.036 278.641 204.956C279.305 204.868 279.873 204.744 280.345 204.584C280.825 204.424 281.313 204.236 281.809 204.02ZM276.049 206.564C275.033 206.564 274.281 206.84 273.793 207.392C273.313 207.936 273.073 208.632 273.073 209.48C273.073 210.336 273.321 211.04 273.817 211.592C274.313 212.144 275.073 212.42 276.097 212.42C276.993 212.42 277.673 212.16 278.137 211.64C278.609 211.12 278.845 210.396 278.845 209.468C278.845 208.516 278.609 207.796 278.137 207.308C277.673 206.812 276.977 206.564 276.049 206.564Z" fill="black"/>
<path d="M35.396 61V36.712H26.426V31.008H51.174V36.712H42.204V61H35.396ZM65.37 61V43.474H56.17V38.184H72.132V61H65.37ZM68.452 34.596C67.164 34.596 66.0907 34.228 65.232 33.492C64.3734 32.7253 63.944 31.7287 63.944 30.502C63.944 29.2447 64.3734 28.2327 65.232 27.466C66.0907 26.6687 67.164 26.27 68.452 26.27C69.7707 26.27 70.844 26.6687 71.672 27.466C72.5307 28.2327 72.96 29.2447 72.96 30.502C72.96 31.7287 72.5307 32.7253 71.672 33.492C70.844 34.228 69.7707 34.596 68.452 34.596ZM98.0121 61.552C95.5894 61.552 93.6574 61.138 92.2161 60.31C90.8054 59.4513 89.7781 58.2707 89.1341 56.768C88.4901 55.2653 88.1681 53.5173 88.1681 51.524V43.474H82.4641V38.46L88.4901 38.184L89.3641 31.192H94.9301V38.184H104.59V43.474H94.9301V51.478C94.9301 52.6127 95.0987 53.5327 95.4361 54.238C95.7734 54.9433 96.2947 55.4647 97.0001 55.802C97.7054 56.1087 98.6101 56.262 99.7141 56.262C100.603 56.262 101.416 56.1853 102.152 56.032C102.888 55.8787 103.593 55.6793 104.268 55.434L105.464 60.31C104.452 60.6167 103.333 60.8927 102.106 61.138C100.91 61.414 99.5454 61.552 98.0121 61.552ZM125.916 61.552C123.064 61.552 120.902 60.6933 119.43 58.976C117.958 57.2587 117.222 54.9587 117.222 52.076V34.09H110.092V28.8H123.984V52.352C123.984 53.7627 124.367 54.744 125.134 55.296C125.901 55.8173 126.744 56.078 127.664 56.078C128.216 56.078 128.768 56.0167 129.32 55.894C129.903 55.7713 130.547 55.5873 131.252 55.342L132.724 60.31C131.559 60.678 130.485 60.9693 129.504 61.184C128.553 61.4293 127.357 61.552 125.916 61.552ZM150.508 61.552C148.147 61.552 146 61.092 144.068 60.172C142.167 59.2213 140.649 57.8567 139.514 56.078C138.41 54.2687 137.858 52.1067 137.858 49.592C137.858 47.108 138.425 44.9767 139.56 43.198C140.695 41.3887 142.167 40.0087 143.976 39.058C145.785 38.1073 147.702 37.632 149.726 37.632C152.087 37.632 154.065 38.1227 155.66 39.104C157.255 40.0547 158.451 41.358 159.248 43.014C160.076 44.6393 160.49 46.4947 160.49 48.58C160.49 49.1933 160.444 49.7913 160.352 50.374C160.291 50.926 160.229 51.34 160.168 51.616H142.872V47.062H155.614L154.556 48.35C154.556 46.51 154.157 45.13 153.36 44.21C152.593 43.2593 151.459 42.784 149.956 42.784C148.852 42.784 147.886 43.0293 147.058 43.52C146.23 44.0107 145.586 44.762 145.126 45.774C144.666 46.786 144.436 48.0587 144.436 49.592C144.436 51.156 144.712 52.444 145.264 53.456C145.816 54.4373 146.613 55.1733 147.656 55.664C148.699 56.1547 149.956 56.4 151.428 56.4C152.471 56.4 153.452 56.262 154.372 55.986C155.323 55.71 156.304 55.3113 157.316 54.79L159.57 58.884C158.251 59.712 156.795 60.3713 155.2 60.862C153.605 61.322 152.041 61.552 150.508 61.552Z" fill="black"/>
</svg>
