<svg width="500" height="1000" viewBox="0 0 500 1000" fill="none" xmlns="http://www.w3.org/2000/svg">
<rect width="500" height="1000" fill="white"/>
<g filter="url(#filter0_d_31_631)">
<rect x="20" y="240" width="460" height="200" rx="6" fill="#FDFDFD"/>
<rect x="20.5" y="240.5" width="459" height="199" rx="5.5" stroke="#D9D9D9"/>
</g>
<path d="M60.184 419H57.976L57.4 411.536C57.16 408.608 57.024 406.36 56.992 404.792L53.416 417.128H51.28L47.512 404.768C47.512 406.768 47.408 409.08 47.2 411.704L46.648 419H44.488L45.856 402.464H48.928L52.408 414.488L55.72 402.464H58.816L60.184 419ZM69.0237 419.072C68.5277 420.544 67.8317 421.704 66.9357 422.552C66.0557 423.416 64.7917 423.936 63.1437 424.112L62.9037 422.384C63.7357 422.24 64.3997 422.032 64.8957 421.76C65.3917 421.488 65.7837 421.136 66.0717 420.704C66.3757 420.288 66.6557 419.72 66.9117 419H66.1677L61.9197 406.352H64.2717L67.6557 417.392L70.9677 406.352H73.2477L69.0237 419.072ZM87.9318 406.064C89.5478 406.064 90.7318 406.64 91.4838 407.792C92.2358 408.944 92.6118 410.568 92.6118 412.664C92.6118 414.648 92.1798 416.248 91.3158 417.464C90.4518 418.68 89.2278 419.288 87.6438 419.288C86.2358 419.288 85.1318 418.808 84.3318 417.848V423.848L82.1238 424.112V406.352H84.0198L84.1878 408.056C84.6518 407.416 85.2118 406.928 85.8678 406.592C86.5238 406.24 87.2118 406.064 87.9318 406.064ZM87.1158 417.488C89.1958 417.488 90.2358 415.88 90.2358 412.664C90.2358 409.432 89.2838 407.816 87.3798 407.816C86.7558 407.816 86.1878 408 85.6758 408.368C85.1638 408.736 84.7158 409.208 84.3318 409.784V415.952C84.6518 416.448 85.0518 416.832 85.5318 417.104C86.0118 417.36 86.5398 417.488 87.1158 417.488ZM101.87 406.064C102.318 406.064 102.734 406.112 103.118 406.208L102.71 408.368C102.326 408.272 101.958 408.224 101.606 408.224C100.822 408.224 100.19 408.512 99.7098 409.088C99.2298 409.664 98.8538 410.56 98.5818 411.776V419H96.3738V406.352H98.2698L98.4858 408.92C98.8218 407.976 99.2778 407.264 99.8538 406.784C100.43 406.304 101.102 406.064 101.87 406.064ZM109.657 406.064C111.433 406.064 112.809 406.656 113.785 407.84C114.777 409.024 115.273 410.632 115.273 412.664C115.273 413.976 115.049 415.136 114.601 416.144C114.153 417.136 113.505 417.912 112.657 418.472C111.809 419.016 110.801 419.288 109.633 419.288C107.857 419.288 106.473 418.696 105.481 417.512C104.489 416.328 103.993 414.72 103.993 412.688C103.993 411.376 104.217 410.224 104.665 409.232C105.113 408.224 105.761 407.448 106.609 406.904C107.457 406.344 108.473 406.064 109.657 406.064ZM109.657 407.84C107.465 407.84 106.369 409.456 106.369 412.688C106.369 415.904 107.457 417.512 109.633 417.512C111.809 417.512 112.897 415.896 112.897 412.664C112.897 409.448 111.817 407.84 109.657 407.84ZM121.081 418.232C121.081 419.4 120.937 420.336 120.649 421.04C120.361 421.744 119.937 422.312 119.377 422.744C118.833 423.192 118.065 423.64 117.073 424.088L116.425 422.48C117.049 422.192 117.529 421.904 117.865 421.616C118.201 421.344 118.449 420.952 118.609 420.44C118.785 419.944 118.873 419.256 118.873 418.376V406.352H121.081V418.232ZM119.977 400.28C120.441 400.28 120.817 400.424 121.105 400.712C121.393 401 121.537 401.36 121.537 401.792C121.537 402.224 121.393 402.584 121.105 402.872C120.817 403.144 120.441 403.28 119.977 403.28C119.529 403.28 119.161 403.144 118.873 402.872C118.585 402.584 118.441 402.224 118.441 401.792C118.441 401.36 118.585 401 118.873 400.712C119.161 400.424 119.529 400.28 119.977 400.28ZM135.199 412.304C135.199 412.672 135.183 413.048 135.151 413.432H127.087C127.183 414.824 127.535 415.848 128.143 416.504C128.751 417.16 129.535 417.488 130.495 417.488C131.103 417.488 131.663 417.4 132.175 417.224C132.687 417.048 133.223 416.768 133.783 416.384L134.743 417.704C133.399 418.76 131.927 419.288 130.327 419.288C128.567 419.288 127.191 418.712 126.199 417.56C125.223 416.408 124.735 414.824 124.735 412.808C124.735 411.496 124.943 410.336 125.359 409.328C125.791 408.304 126.399 407.504 127.183 406.928C127.983 406.352 128.919 406.064 129.991 406.064C131.671 406.064 132.959 406.616 133.855 407.72C134.751 408.824 135.199 410.352 135.199 412.304ZM133.015 411.656C133.015 410.408 132.767 409.456 132.271 408.8C131.775 408.144 131.031 407.816 130.039 407.816C128.231 407.816 127.247 409.144 127.087 411.8H133.015V411.656ZM143.333 406.064C144.085 406.064 144.773 406.176 145.397 406.4C146.021 406.608 146.621 406.952 147.197 407.432L146.141 408.824C145.693 408.504 145.253 408.272 144.821 408.128C144.405 407.968 143.941 407.888 143.429 407.888C142.405 407.888 141.605 408.296 141.029 409.112C140.469 409.928 140.189 411.136 140.189 412.736C140.189 414.336 140.469 415.52 141.029 416.288C141.589 417.04 142.389 417.416 143.429 417.416C143.925 417.416 144.381 417.344 144.797 417.2C145.213 417.04 145.677 416.792 146.189 416.456L147.197 417.896C146.045 418.824 144.757 419.288 143.333 419.288C141.621 419.288 140.269 418.712 139.277 417.56C138.301 416.408 137.813 414.816 137.813 412.784C137.813 411.44 138.037 410.264 138.485 409.256C138.933 408.248 139.565 407.464 140.381 406.904C141.213 406.344 142.197 406.064 143.333 406.064ZM156.57 418.424C155.738 419 154.794 419.288 153.738 419.288C152.666 419.288 151.826 418.984 151.218 418.376C150.626 417.752 150.33 416.856 150.33 415.688V408.056H148.122V406.352H150.33V403.496L152.538 403.232V406.352H155.538L155.298 408.056H152.538V415.592C152.538 416.248 152.65 416.728 152.874 417.032C153.114 417.32 153.506 417.464 154.05 417.464C154.546 417.464 155.106 417.296 155.73 416.96L156.57 418.424Z" fill="#262626"/>
<g filter="url(#filter1_d_31_631)">
<rect x="20" y="474" width="460" height="200" rx="6" fill="#FDFDFD"/>
<rect x="20.5" y="474.5" width="459" height="199" rx="5.5" stroke="#D9D9D9"/>
</g>
<path d="M60.184 653H57.976L57.4 645.536C57.16 642.608 57.024 640.36 56.992 638.792L53.416 651.128H51.28L47.512 638.768C47.512 640.768 47.408 643.08 47.2 645.704L46.648 653H44.488L45.856 636.464H48.928L52.408 648.488L55.72 636.464H58.816L60.184 653ZM69.0237 653.072C68.5277 654.544 67.8317 655.704 66.9357 656.552C66.0557 657.416 64.7917 657.936 63.1437 658.112L62.9037 656.384C63.7357 656.24 64.3997 656.032 64.8957 655.76C65.3917 655.488 65.7837 655.136 66.0717 654.704C66.3757 654.288 66.6557 653.72 66.9117 653H66.1677L61.9197 640.352H64.2717L67.6557 651.392L70.9677 640.352H73.2477L69.0237 653.072ZM87.9318 640.064C89.5478 640.064 90.7318 640.64 91.4838 641.792C92.2358 642.944 92.6118 644.568 92.6118 646.664C92.6118 648.648 92.1798 650.248 91.3158 651.464C90.4518 652.68 89.2278 653.288 87.6438 653.288C86.2358 653.288 85.1318 652.808 84.3318 651.848V657.848L82.1238 658.112V640.352H84.0198L84.1878 642.056C84.6518 641.416 85.2118 640.928 85.8678 640.592C86.5238 640.24 87.2118 640.064 87.9318 640.064ZM87.1158 651.488C89.1958 651.488 90.2358 649.88 90.2358 646.664C90.2358 643.432 89.2838 641.816 87.3798 641.816C86.7558 641.816 86.1878 642 85.6758 642.368C85.1638 642.736 84.7158 643.208 84.3318 643.784V649.952C84.6518 650.448 85.0518 650.832 85.5318 651.104C86.0118 651.36 86.5398 651.488 87.1158 651.488ZM101.87 640.064C102.318 640.064 102.734 640.112 103.118 640.208L102.71 642.368C102.326 642.272 101.958 642.224 101.606 642.224C100.822 642.224 100.19 642.512 99.7098 643.088C99.2298 643.664 98.8538 644.56 98.5818 645.776V653H96.3738V640.352H98.2698L98.4858 642.92C98.8218 641.976 99.2778 641.264 99.8538 640.784C100.43 640.304 101.102 640.064 101.87 640.064ZM109.657 640.064C111.433 640.064 112.809 640.656 113.785 641.84C114.777 643.024 115.273 644.632 115.273 646.664C115.273 647.976 115.049 649.136 114.601 650.144C114.153 651.136 113.505 651.912 112.657 652.472C111.809 653.016 110.801 653.288 109.633 653.288C107.857 653.288 106.473 652.696 105.481 651.512C104.489 650.328 103.993 648.72 103.993 646.688C103.993 645.376 104.217 644.224 104.665 643.232C105.113 642.224 105.761 641.448 106.609 640.904C107.457 640.344 108.473 640.064 109.657 640.064ZM109.657 641.84C107.465 641.84 106.369 643.456 106.369 646.688C106.369 649.904 107.457 651.512 109.633 651.512C111.809 651.512 112.897 649.896 112.897 646.664C112.897 643.448 111.817 641.84 109.657 641.84ZM121.081 652.232C121.081 653.4 120.937 654.336 120.649 655.04C120.361 655.744 119.937 656.312 119.377 656.744C118.833 657.192 118.065 657.64 117.073 658.088L116.425 656.48C117.049 656.192 117.529 655.904 117.865 655.616C118.201 655.344 118.449 654.952 118.609 654.44C118.785 653.944 118.873 653.256 118.873 652.376V640.352H121.081V652.232ZM119.977 634.28C120.441 634.28 120.817 634.424 121.105 634.712C121.393 635 121.537 635.36 121.537 635.792C121.537 636.224 121.393 636.584 121.105 636.872C120.817 637.144 120.441 637.28 119.977 637.28C119.529 637.28 119.161 637.144 118.873 636.872C118.585 636.584 118.441 636.224 118.441 635.792C118.441 635.36 118.585 635 118.873 634.712C119.161 634.424 119.529 634.28 119.977 634.28ZM135.199 646.304C135.199 646.672 135.183 647.048 135.151 647.432H127.087C127.183 648.824 127.535 649.848 128.143 650.504C128.751 651.16 129.535 651.488 130.495 651.488C131.103 651.488 131.663 651.4 132.175 651.224C132.687 651.048 133.223 650.768 133.783 650.384L134.743 651.704C133.399 652.76 131.927 653.288 130.327 653.288C128.567 653.288 127.191 652.712 126.199 651.56C125.223 650.408 124.735 648.824 124.735 646.808C124.735 645.496 124.943 644.336 125.359 643.328C125.791 642.304 126.399 641.504 127.183 640.928C127.983 640.352 128.919 640.064 129.991 640.064C131.671 640.064 132.959 640.616 133.855 641.72C134.751 642.824 135.199 644.352 135.199 646.304ZM133.015 645.656C133.015 644.408 132.767 643.456 132.271 642.8C131.775 642.144 131.031 641.816 130.039 641.816C128.231 641.816 127.247 643.144 127.087 645.8H133.015V645.656ZM143.333 640.064C144.085 640.064 144.773 640.176 145.397 640.4C146.021 640.608 146.621 640.952 147.197 641.432L146.141 642.824C145.693 642.504 145.253 642.272 144.821 642.128C144.405 641.968 143.941 641.888 143.429 641.888C142.405 641.888 141.605 642.296 141.029 643.112C140.469 643.928 140.189 645.136 140.189 646.736C140.189 648.336 140.469 649.52 141.029 650.288C141.589 651.04 142.389 651.416 143.429 651.416C143.925 651.416 144.381 651.344 144.797 651.2C145.213 651.04 145.677 650.792 146.189 650.456L147.197 651.896C146.045 652.824 144.757 653.288 143.333 653.288C141.621 653.288 140.269 652.712 139.277 651.56C138.301 650.408 137.813 648.816 137.813 646.784C137.813 645.44 138.037 644.264 138.485 643.256C138.933 642.248 139.565 641.464 140.381 640.904C141.213 640.344 142.197 640.064 143.333 640.064ZM156.57 652.424C155.738 653 154.794 653.288 153.738 653.288C152.666 653.288 151.826 652.984 151.218 652.376C150.626 651.752 150.33 650.856 150.33 649.688V642.056H148.122V640.352H150.33V637.496L152.538 637.232V640.352H155.538L155.298 642.056H152.538V649.592C152.538 650.248 152.65 650.728 152.874 651.032C153.114 651.32 153.506 651.464 154.05 651.464C154.546 651.464 155.106 651.296 155.73 650.96L156.57 652.424Z" fill="#262626"/>
<g filter="url(#filter2_d_31_631)">
<rect x="20" y="708" width="460" height="200" rx="6" fill="#FDFDFD"/>
<rect x="20.5" y="708.5" width="459" height="199" rx="5.5" stroke="#D9D9D9"/>
</g>
<path d="M60.184 887H57.976L57.4 879.536C57.16 876.608 57.024 874.36 56.992 872.792L53.416 885.128H51.28L47.512 872.768C47.512 874.768 47.408 877.08 47.2 879.704L46.648 887H44.488L45.856 870.464H48.928L52.408 882.488L55.72 870.464H58.816L60.184 887ZM69.0237 887.072C68.5277 888.544 67.8317 889.704 66.9357 890.552C66.0557 891.416 64.7917 891.936 63.1437 892.112L62.9037 890.384C63.7357 890.24 64.3997 890.032 64.8957 889.76C65.3917 889.488 65.7837 889.136 66.0717 888.704C66.3757 888.288 66.6557 887.72 66.9117 887H66.1677L61.9197 874.352H64.2717L67.6557 885.392L70.9677 874.352H73.2477L69.0237 887.072ZM87.9318 874.064C89.5478 874.064 90.7318 874.64 91.4838 875.792C92.2358 876.944 92.6118 878.568 92.6118 880.664C92.6118 882.648 92.1798 884.248 91.3158 885.464C90.4518 886.68 89.2278 887.288 87.6438 887.288C86.2358 887.288 85.1318 886.808 84.3318 885.848V891.848L82.1238 892.112V874.352H84.0198L84.1878 876.056C84.6518 875.416 85.2118 874.928 85.8678 874.592C86.5238 874.24 87.2118 874.064 87.9318 874.064ZM87.1158 885.488C89.1958 885.488 90.2358 883.88 90.2358 880.664C90.2358 877.432 89.2838 875.816 87.3798 875.816C86.7558 875.816 86.1878 876 85.6758 876.368C85.1638 876.736 84.7158 877.208 84.3318 877.784V883.952C84.6518 884.448 85.0518 884.832 85.5318 885.104C86.0118 885.36 86.5398 885.488 87.1158 885.488ZM101.87 874.064C102.318 874.064 102.734 874.112 103.118 874.208L102.71 876.368C102.326 876.272 101.958 876.224 101.606 876.224C100.822 876.224 100.19 876.512 99.7098 877.088C99.2298 877.664 98.8538 878.56 98.5818 879.776V887H96.3738V874.352H98.2698L98.4858 876.92C98.8218 875.976 99.2778 875.264 99.8538 874.784C100.43 874.304 101.102 874.064 101.87 874.064ZM109.657 874.064C111.433 874.064 112.809 874.656 113.785 875.84C114.777 877.024 115.273 878.632 115.273 880.664C115.273 881.976 115.049 883.136 114.601 884.144C114.153 885.136 113.505 885.912 112.657 886.472C111.809 887.016 110.801 887.288 109.633 887.288C107.857 887.288 106.473 886.696 105.481 885.512C104.489 884.328 103.993 882.72 103.993 880.688C103.993 879.376 104.217 878.224 104.665 877.232C105.113 876.224 105.761 875.448 106.609 874.904C107.457 874.344 108.473 874.064 109.657 874.064ZM109.657 875.84C107.465 875.84 106.369 877.456 106.369 880.688C106.369 883.904 107.457 885.512 109.633 885.512C111.809 885.512 112.897 883.896 112.897 880.664C112.897 877.448 111.817 875.84 109.657 875.84ZM121.081 886.232C121.081 887.4 120.937 888.336 120.649 889.04C120.361 889.744 119.937 890.312 119.377 890.744C118.833 891.192 118.065 891.64 117.073 892.088L116.425 890.48C117.049 890.192 117.529 889.904 117.865 889.616C118.201 889.344 118.449 888.952 118.609 888.44C118.785 887.944 118.873 887.256 118.873 886.376V874.352H121.081V886.232ZM119.977 868.28C120.441 868.28 120.817 868.424 121.105 868.712C121.393 869 121.537 869.36 121.537 869.792C121.537 870.224 121.393 870.584 121.105 870.872C120.817 871.144 120.441 871.28 119.977 871.28C119.529 871.28 119.161 871.144 118.873 870.872C118.585 870.584 118.441 870.224 118.441 869.792C118.441 869.36 118.585 869 118.873 868.712C119.161 868.424 119.529 868.28 119.977 868.28ZM135.199 880.304C135.199 880.672 135.183 881.048 135.151 881.432H127.087C127.183 882.824 127.535 883.848 128.143 884.504C128.751 885.16 129.535 885.488 130.495 885.488C131.103 885.488 131.663 885.4 132.175 885.224C132.687 885.048 133.223 884.768 133.783 884.384L134.743 885.704C133.399 886.76 131.927 887.288 130.327 887.288C128.567 887.288 127.191 886.712 126.199 885.56C125.223 884.408 124.735 882.824 124.735 880.808C124.735 879.496 124.943 878.336 125.359 877.328C125.791 876.304 126.399 875.504 127.183 874.928C127.983 874.352 128.919 874.064 129.991 874.064C131.671 874.064 132.959 874.616 133.855 875.72C134.751 876.824 135.199 878.352 135.199 880.304ZM133.015 879.656C133.015 878.408 132.767 877.456 132.271 876.8C131.775 876.144 131.031 875.816 130.039 875.816C128.231 875.816 127.247 877.144 127.087 879.8H133.015V879.656ZM143.333 874.064C144.085 874.064 144.773 874.176 145.397 874.4C146.021 874.608 146.621 874.952 147.197 875.432L146.141 876.824C145.693 876.504 145.253 876.272 144.821 876.128C144.405 875.968 143.941 875.888 143.429 875.888C142.405 875.888 141.605 876.296 141.029 877.112C140.469 877.928 140.189 879.136 140.189 880.736C140.189 882.336 140.469 883.52 141.029 884.288C141.589 885.04 142.389 885.416 143.429 885.416C143.925 885.416 144.381 885.344 144.797 885.2C145.213 885.04 145.677 884.792 146.189 884.456L147.197 885.896C146.045 886.824 144.757 887.288 143.333 887.288C141.621 887.288 140.269 886.712 139.277 885.56C138.301 884.408 137.813 882.816 137.813 880.784C137.813 879.44 138.037 878.264 138.485 877.256C138.933 876.248 139.565 875.464 140.381 874.904C141.213 874.344 142.197 874.064 143.333 874.064ZM156.57 886.424C155.738 887 154.794 887.288 153.738 887.288C152.666 887.288 151.826 886.984 151.218 886.376C150.626 885.752 150.33 884.856 150.33 883.688V876.056H148.122V874.352H150.33V871.496L152.538 871.232V874.352H155.538L155.298 876.056H152.538V883.592C152.538 884.248 152.65 884.728 152.874 885.032C153.114 885.32 153.506 885.464 154.05 885.464C154.546 885.464 155.106 885.296 155.73 884.96L156.57 886.424Z" fill="#262626"/>
<path d="M32.922 72V42.008H39.684V66.296H53.024V72H32.922ZM68.37 72V54.474H59.17V49.184H75.132V72H68.37ZM71.452 45.596C70.164 45.596 69.0907 45.228 68.232 44.492C67.3734 43.7253 66.944 42.7287 66.944 41.502C66.944 40.2447 67.3734 39.2327 68.232 38.466C69.0907 37.6687 70.164 37.27 71.452 37.27C72.7707 37.27 73.844 37.6687 74.672 38.466C75.5307 39.2327 75.96 40.2447 75.96 41.502C75.96 42.7287 75.5307 43.7253 74.672 44.492C73.844 45.228 72.7707 45.596 71.452 45.596ZM96.7801 72.552C94.7561 72.552 92.7474 72.2147 90.7541 71.54C88.7607 70.8347 87.0434 70.0067 85.6021 69.056L88.5001 64.824C89.8801 65.7133 91.3367 66.388 92.8701 66.848C94.4341 67.308 96.0441 67.538 97.7001 67.538C98.9574 67.538 99.8774 67.354 100.46 66.986C101.043 66.5873 101.334 66.1273 101.334 65.606C101.334 65.2687 101.242 64.9927 101.058 64.778C100.905 64.5327 100.613 64.318 100.184 64.134C99.7854 63.9193 99.2181 63.72 98.4821 63.536C97.7767 63.352 96.8567 63.1373 95.7221 62.892C92.6247 62.2173 90.4014 61.2973 89.0521 60.132C87.7027 58.9667 87.0281 57.51 87.0281 55.762C87.0281 53.6153 87.9634 51.898 89.8341 50.61C91.7047 49.2913 94.2654 48.632 97.5161 48.632C99.5707 48.632 101.426 48.9693 103.082 49.644C104.769 50.288 106.21 50.9933 107.406 51.76L104.37 55.808C103.235 55.1027 102.024 54.566 100.736 54.198C99.4481 53.83 98.1754 53.646 96.9181 53.646C96.2127 53.646 95.6301 53.7227 95.1701 53.876C94.7101 53.9987 94.3574 54.2133 94.1121 54.52C93.8667 54.796 93.7441 55.1027 93.7441 55.44C93.7441 56.0533 94.1427 56.5133 94.9401 56.82C95.7374 57.096 97.1021 57.4487 99.0341 57.878C101.365 58.3993 103.189 58.9973 104.508 59.672C105.827 60.3467 106.731 61.1287 107.222 62.018C107.743 62.8767 108.004 63.9347 108.004 65.192C108.004 66.572 107.575 67.814 106.716 68.918C105.888 70.022 104.631 70.9113 102.944 71.586C101.288 72.23 99.2334 72.552 96.7801 72.552ZM128.594 72.552C126.171 72.552 124.239 72.138 122.798 71.31C121.387 70.4513 120.36 69.2707 119.716 67.768C119.072 66.2653 118.75 64.5173 118.75 62.524V54.474H113.046V49.46L119.072 49.184L119.946 42.192H125.512V49.184H135.172V54.474H125.512V62.478C125.512 63.6127 125.681 64.5327 126.018 65.238C126.355 65.9433 126.877 66.4647 127.582 66.802C128.287 67.1087 129.192 67.262 130.296 67.262C131.185 67.262 131.998 67.1853 132.734 67.032C133.47 66.8787 134.175 66.6793 134.85 66.434L136.046 71.31C135.034 71.6167 133.915 71.8927 132.688 72.138C131.492 72.414 130.127 72.552 128.594 72.552ZM179.71 72.552C177.717 72.552 175.831 72.092 174.052 71.172C172.273 70.2213 170.832 68.8567 169.728 67.078C168.624 65.2687 168.072 63.1067 168.072 60.592C168.072 58.0773 168.624 55.9307 169.728 54.152C170.832 52.3427 172.273 50.978 174.052 50.058C175.831 49.1073 177.717 48.632 179.71 48.632C181.703 48.632 183.589 49.1073 185.368 50.058C187.147 50.978 188.588 52.3427 189.692 54.152C190.796 55.9307 191.348 58.0773 191.348 60.592C191.348 63.1067 190.796 65.2687 189.692 67.078C188.588 68.8567 187.147 70.2213 185.368 71.172C183.589 72.092 181.703 72.552 179.71 72.552ZM179.71 67.078C180.753 67.078 181.611 66.8173 182.286 66.296C182.991 65.7747 183.513 65.0233 183.85 64.042C184.218 63.0607 184.402 61.9107 184.402 60.592C184.402 59.2733 184.218 58.1233 183.85 57.142C183.513 56.1607 182.991 55.4093 182.286 54.888C181.611 54.3667 180.753 54.106 179.71 54.106C178.667 54.106 177.793 54.3667 177.088 54.888C176.413 55.4093 175.892 56.1607 175.524 57.142C175.187 58.1233 175.018 59.2733 175.018 60.592C175.018 61.9107 175.187 63.0607 175.524 64.042C175.892 65.0233 176.413 65.7747 177.088 66.296C177.793 66.8173 178.667 67.078 179.71 67.078ZM203.29 72V48.586C203.29 46.838 203.643 45.2587 204.348 43.848C205.084 42.4067 206.188 41.272 207.66 40.444C209.163 39.616 211.11 39.202 213.502 39.202C214.821 39.202 216.063 39.34 217.228 39.616C218.394 39.8613 219.452 40.1373 220.402 40.444L219.114 45.412C218.378 45.136 217.612 44.9213 216.814 44.768C216.048 44.6147 215.22 44.538 214.33 44.538C212.889 44.538 211.816 44.86 211.11 45.504C210.405 46.148 210.052 47.16 210.052 48.54V72H203.29ZM197.264 54.474V49.46L203.52 49.184H217.918V54.474H197.264ZM262.272 72.552C260.248 72.552 258.24 72.2147 256.246 71.54C254.253 70.8347 252.536 70.0067 251.094 69.056L253.992 64.824C255.372 65.7133 256.829 66.388 258.362 66.848C259.926 67.308 261.536 67.538 263.192 67.538C264.45 67.538 265.37 67.354 265.952 66.986C266.535 66.5873 266.826 66.1273 266.826 65.606C266.826 65.2687 266.734 64.9927 266.55 64.778C266.397 64.5327 266.106 64.318 265.676 64.134C265.278 63.9193 264.71 63.72 263.974 63.536C263.269 63.352 262.349 63.1373 261.214 62.892C258.117 62.2173 255.894 61.2973 254.544 60.132C253.195 58.9667 252.52 57.51 252.52 55.762C252.52 53.6153 253.456 51.898 255.326 50.61C257.197 49.2913 259.758 48.632 263.008 48.632C265.063 48.632 266.918 48.9693 268.574 49.644C270.261 50.288 271.702 50.9933 272.898 51.76L269.862 55.808C268.728 55.1027 267.516 54.566 266.228 54.198C264.94 53.83 263.668 53.646 262.41 53.646C261.705 53.646 261.122 53.7227 260.662 53.876C260.202 53.9987 259.85 54.2133 259.604 54.52C259.359 54.796 259.236 55.1027 259.236 55.44C259.236 56.0533 259.635 56.5133 260.432 56.82C261.23 57.096 262.594 57.4487 264.526 57.878C266.857 58.3993 268.682 58.9973 270 59.672C271.319 60.3467 272.224 61.1287 272.714 62.018C273.236 62.8767 273.496 63.9347 273.496 65.192C273.496 66.572 273.067 67.814 272.208 68.918C271.38 70.022 270.123 70.9113 268.436 71.586C266.78 72.23 264.726 72.552 262.272 72.552ZM290.038 72.552C288.045 72.552 286.159 72.092 284.38 71.172C282.602 70.2213 281.16 68.8567 280.056 67.078C278.952 65.2687 278.4 63.1067 278.4 60.592C278.4 58.0773 278.952 55.9307 280.056 54.152C281.16 52.3427 282.602 50.978 284.38 50.058C286.159 49.1073 288.045 48.632 290.038 48.632C292.032 48.632 293.918 49.1073 295.696 50.058C297.475 50.978 298.916 52.3427 300.02 54.152C301.124 55.9307 301.676 58.0773 301.676 60.592C301.676 63.1067 301.124 65.2687 300.02 67.078C298.916 68.8567 297.475 70.2213 295.696 71.172C293.918 72.092 292.032 72.552 290.038 72.552ZM290.038 67.078C291.081 67.078 291.94 66.8173 292.614 66.296C293.32 65.7747 293.841 65.0233 294.178 64.042C294.546 63.0607 294.73 61.9107 294.73 60.592C294.73 59.2733 294.546 58.1233 294.178 57.142C293.841 56.1607 293.32 55.4093 292.614 54.888C291.94 54.3667 291.081 54.106 290.038 54.106C288.996 54.106 288.122 54.3667 287.416 54.888C286.742 55.4093 286.22 56.1607 285.852 57.142C285.515 58.1233 285.346 59.2733 285.346 60.592C285.346 61.9107 285.515 63.0607 285.852 64.042C286.22 65.0233 286.742 65.7747 287.416 66.296C288.122 66.8173 288.996 67.078 290.038 67.078ZM305.43 72V49.184H310.536L310.996 51.99H311.18C311.61 51.07 312.208 50.288 312.974 49.644C313.741 48.9693 314.784 48.632 316.102 48.632C317.084 48.632 317.927 48.954 318.632 49.598C319.338 50.2113 319.813 51.1313 320.058 52.358C320.488 51.3153 321.101 50.4413 321.898 49.736C322.726 49 323.8 48.632 325.118 48.632C326.744 48.632 328.001 49.2913 328.89 50.61C329.78 51.9287 330.224 53.7227 330.224 55.992V72H323.784V56.452C323.784 55.072 323.37 54.382 322.542 54.382C322.113 54.382 321.73 54.566 321.392 54.934C321.086 55.2713 320.779 55.8233 320.472 56.59V72H315.182V56.452C315.182 55.7467 315.075 55.2253 314.86 54.888C314.646 54.5507 314.324 54.382 313.894 54.382C313.465 54.382 313.097 54.566 312.79 54.934C312.484 55.2713 312.177 55.8233 311.87 56.59V72H305.43ZM346.582 72.552C344.221 72.552 342.074 72.092 340.142 71.172C338.241 70.2213 336.723 68.8567 335.588 67.078C334.484 65.2687 333.932 63.1067 333.932 60.592C333.932 58.108 334.5 55.9767 335.634 54.198C336.769 52.3887 338.241 51.0087 340.05 50.058C341.86 49.1073 343.776 48.632 345.8 48.632C348.162 48.632 350.14 49.1227 351.734 50.104C353.329 51.0547 354.525 52.358 355.322 54.014C356.15 55.6393 356.564 57.4947 356.564 59.58C356.564 60.1933 356.518 60.7913 356.426 61.374C356.365 61.926 356.304 62.34 356.242 62.616H338.946V58.062H351.688L350.63 59.35C350.63 57.51 350.232 56.13 349.434 55.21C348.668 54.2593 347.533 53.784 346.03 53.784C344.926 53.784 343.96 54.0293 343.132 54.52C342.304 55.0107 341.66 55.762 341.2 56.774C340.74 57.786 340.51 59.0587 340.51 60.592C340.51 62.156 340.786 63.444 341.338 64.456C341.89 65.4373 342.688 66.1733 343.73 66.664C344.773 67.1547 346.03 67.4 347.502 67.4C348.545 67.4 349.526 67.262 350.446 66.986C351.397 66.71 352.378 66.3113 353.39 65.79L355.644 69.884C354.326 70.712 352.869 71.3713 351.274 71.862C349.68 72.322 348.116 72.552 346.582 72.552ZM41.8 130.552C39.8067 130.552 37.9207 130.092 36.142 129.172C34.3633 128.221 32.922 126.857 31.818 125.078C30.714 123.269 30.162 121.107 30.162 118.592C30.162 116.077 30.714 113.931 31.818 112.152C32.922 110.343 34.3633 108.978 36.142 108.058C37.9207 107.107 39.8067 106.632 41.8 106.632C43.7933 106.632 45.6793 107.107 47.458 108.058C49.2367 108.978 50.678 110.343 51.782 112.152C52.886 113.931 53.438 116.077 53.438 118.592C53.438 121.107 52.886 123.269 51.782 125.078C50.678 126.857 49.2367 128.221 47.458 129.172C45.6793 130.092 43.7933 130.552 41.8 130.552ZM41.8 125.078C42.8427 125.078 43.7013 124.817 44.376 124.296C45.0813 123.775 45.6027 123.023 45.94 122.042C46.308 121.061 46.492 119.911 46.492 118.592C46.492 117.273 46.308 116.123 45.94 115.142C45.6027 114.161 45.0813 113.409 44.376 112.888C43.7013 112.367 42.8427 112.106 41.8 112.106C40.7573 112.106 39.8833 112.367 39.178 112.888C38.5033 113.409 37.982 114.161 37.614 115.142C37.2767 116.123 37.108 117.273 37.108 118.592C37.108 119.911 37.2767 121.061 37.614 122.042C37.982 123.023 38.5033 123.775 39.178 124.296C39.8833 124.817 40.7573 125.078 41.8 125.078ZM65.38 130V106.586C65.38 104.838 65.7327 103.259 66.438 101.848C67.174 100.407 68.278 99.272 69.75 98.444C71.2527 97.616 73.2 97.202 75.592 97.202C76.9107 97.202 78.1527 97.34 79.318 97.616C80.4834 97.8613 81.5414 98.1373 82.492 98.444L81.204 103.412C80.468 103.136 79.7014 102.921 78.904 102.768C78.1374 102.615 77.3094 102.538 76.42 102.538C74.9787 102.538 73.9054 102.86 73.2 103.504C72.4947 104.148 72.142 105.16 72.142 106.54V130H65.38ZM59.354 112.474V107.46L65.61 107.184H80.008V112.474H59.354ZM112.356 130V107.184H117.462L117.922 109.99H118.106C118.535 109.07 119.133 108.288 119.9 107.644C120.667 106.969 121.709 106.632 123.028 106.632C124.009 106.632 124.853 106.954 125.558 107.598C126.263 108.211 126.739 109.131 126.984 110.358C127.413 109.315 128.027 108.441 128.824 107.736C129.652 107 130.725 106.632 132.044 106.632C133.669 106.632 134.927 107.291 135.816 108.61C136.705 109.929 137.15 111.723 137.15 113.992V130H130.71V114.452C130.71 113.072 130.296 112.382 129.468 112.382C129.039 112.382 128.655 112.566 128.318 112.934C128.011 113.271 127.705 113.823 127.398 114.59V130H122.108V114.452C122.108 113.747 122.001 113.225 121.786 112.888C121.571 112.551 121.249 112.382 120.82 112.382C120.391 112.382 120.023 112.566 119.716 112.934C119.409 113.271 119.103 113.823 118.796 114.59V130H112.356ZM144.906 138.924C144.231 138.924 143.603 138.878 143.02 138.786C142.437 138.694 141.901 138.587 141.41 138.464L142.606 133.312C142.913 133.404 143.219 133.465 143.526 133.496C143.833 133.557 144.124 133.588 144.4 133.588C145.719 133.588 146.746 133.297 147.482 132.714C148.249 132.162 148.816 131.457 149.184 130.598L149.644 129.402L139.754 107.184H146.47L150.288 116.982C150.717 118.055 151.116 119.175 151.484 120.34C151.852 121.475 152.22 122.64 152.588 123.836H152.772C153.079 122.701 153.416 121.551 153.784 120.386C154.152 119.221 154.505 118.086 154.842 116.982L158.2 107.184H164.594L155.578 130.23C154.873 132.131 154.045 133.726 153.094 135.014C152.174 136.302 151.055 137.268 149.736 137.912C148.448 138.587 146.838 138.924 144.906 138.924ZM31.312 196.464V165.184H36.832L37.338 167.484H37.476C38.4267 166.656 39.4847 165.981 40.65 165.46C41.846 164.908 43.0573 164.632 44.284 164.632C46.1853 164.632 47.8107 165.107 49.16 166.058C50.54 167.009 51.598 168.358 52.334 170.106C53.07 171.854 53.438 173.893 53.438 176.224C53.438 178.831 52.9627 181.054 52.012 182.894C51.092 184.734 49.8807 186.145 48.378 187.126C46.8753 188.077 45.2653 188.552 43.548 188.552C42.536 188.552 41.5393 188.337 40.558 187.908C39.6073 187.479 38.7333 186.865 37.936 186.068H37.752L38.074 189.794V196.464H31.312ZM41.984 183.032C42.8427 183.032 43.6093 182.802 44.284 182.342C44.9587 181.882 45.4953 181.161 45.894 180.18C46.2927 179.168 46.492 177.88 46.492 176.316C46.492 174.936 46.3387 173.801 46.032 172.912C45.7253 171.992 45.2653 171.302 44.652 170.842C44.0693 170.382 43.2873 170.152 42.306 170.152C41.57 170.152 40.8493 170.321 40.144 170.658C39.4693 170.965 38.7793 171.501 38.074 172.268V181.514C38.718 182.035 39.3773 182.419 40.052 182.664C40.7573 182.909 41.4013 183.032 41.984 183.032ZM60.918 188V165.184H66.438L66.99 170.152H67.128C68.2627 168.281 69.6274 166.901 71.222 166.012C72.8474 165.092 74.5647 164.632 76.374 164.632C77.386 164.632 78.1987 164.709 78.812 164.862C79.456 165.015 80.1154 165.245 80.79 165.552L79.41 171.21C78.7047 170.995 78.0607 170.842 77.478 170.75C76.926 170.627 76.2207 170.566 75.362 170.566C73.9514 170.566 72.556 170.98 71.176 171.808C69.8267 172.636 68.6614 174.077 67.68 176.132V188H60.918ZM96.9641 188.552C94.9707 188.552 93.0847 188.092 91.3061 187.172C89.5274 186.221 88.0861 184.857 86.9821 183.078C85.8781 181.269 85.3261 179.107 85.3261 176.592C85.3261 174.077 85.8781 171.931 86.9821 170.152C88.0861 168.343 89.5274 166.978 91.3061 166.058C93.0847 165.107 94.9707 164.632 96.9641 164.632C98.9574 164.632 100.843 165.107 102.622 166.058C104.401 166.978 105.842 168.343 106.946 170.152C108.05 171.931 108.602 174.077 108.602 176.592C108.602 179.107 108.05 181.269 106.946 183.078C105.842 184.857 104.401 186.221 102.622 187.172C100.843 188.092 98.9574 188.552 96.9641 188.552ZM96.9641 183.078C98.0067 183.078 98.8654 182.817 99.5401 182.296C100.245 181.775 100.767 181.023 101.104 180.042C101.472 179.061 101.656 177.911 101.656 176.592C101.656 175.273 101.472 174.123 101.104 173.142C100.767 172.161 100.245 171.409 99.5401 170.888C98.8654 170.367 98.0067 170.106 96.9641 170.106C95.9214 170.106 95.0474 170.367 94.3421 170.888C93.6674 171.409 93.1461 172.161 92.7781 173.142C92.4407 174.123 92.2721 175.273 92.2721 176.592C92.2721 177.911 92.4407 179.061 92.7781 180.042C93.1461 181.023 93.6674 181.775 94.3421 182.296C95.0474 182.817 95.9214 183.078 96.9641 183.078ZM119.716 197.016C118.305 197.016 117.017 196.863 115.852 196.556C114.717 196.28 113.659 195.912 112.678 195.452L114.656 190.622C115.576 191.021 116.404 191.297 117.14 191.45C117.907 191.634 118.627 191.726 119.302 191.726C120.406 191.726 121.265 191.542 121.878 191.174C122.491 190.837 122.921 190.315 123.166 189.61C123.411 188.905 123.534 188 123.534 186.896V170.474H114.334V165.184H130.296V186.62C130.296 188.031 130.127 189.349 129.79 190.576C129.453 191.833 128.885 192.937 128.088 193.888C127.291 194.869 126.202 195.636 124.822 196.188C123.473 196.74 121.771 197.016 119.716 197.016ZM126.616 161.596C125.328 161.596 124.255 161.228 123.396 160.492C122.537 159.725 122.108 158.729 122.108 157.502C122.108 156.245 122.537 155.233 123.396 154.466C124.255 153.669 125.328 153.27 126.616 153.27C127.935 153.27 129.008 153.669 129.836 154.466C130.695 155.233 131.124 156.245 131.124 157.502C131.124 158.729 130.695 159.725 129.836 160.492C129.008 161.228 127.935 161.596 126.616 161.596ZM153.508 188.552C151.147 188.552 149 188.092 147.068 187.172C145.167 186.221 143.649 184.857 142.514 183.078C141.41 181.269 140.858 179.107 140.858 176.592C140.858 174.108 141.425 171.977 142.56 170.198C143.695 168.389 145.167 167.009 146.976 166.058C148.785 165.107 150.702 164.632 152.726 164.632C155.087 164.632 157.065 165.123 158.66 166.104C160.255 167.055 161.451 168.358 162.248 170.014C163.076 171.639 163.49 173.495 163.49 175.58C163.49 176.193 163.444 176.791 163.352 177.374C163.291 177.926 163.229 178.34 163.168 178.616H145.872V174.062H158.614L157.556 175.35C157.556 173.51 157.157 172.13 156.36 171.21C155.593 170.259 154.459 169.784 152.956 169.784C151.852 169.784 150.886 170.029 150.058 170.52C149.23 171.011 148.586 171.762 148.126 172.774C147.666 173.786 147.436 175.059 147.436 176.592C147.436 178.156 147.712 179.444 148.264 180.456C148.816 181.437 149.613 182.173 150.656 182.664C151.699 183.155 152.956 183.4 154.428 183.4C155.471 183.4 156.452 183.262 157.372 182.986C158.323 182.71 159.304 182.311 160.316 181.79L162.57 185.884C161.251 186.712 159.795 187.371 158.2 187.862C156.605 188.322 155.041 188.552 153.508 188.552ZM181.688 188.552C179.296 188.552 177.134 188.092 175.202 187.172C173.301 186.221 171.783 184.857 170.648 183.078C169.544 181.269 168.992 179.107 168.992 176.592C168.992 174.077 169.605 171.931 170.832 170.152C172.059 168.343 173.669 166.978 175.662 166.058C177.686 165.107 179.863 164.632 182.194 164.632C184.003 164.632 185.644 164.923 187.116 165.506C188.588 166.058 189.799 166.794 190.75 167.714L187.622 171.9C186.733 171.287 185.874 170.842 185.046 170.566C184.249 170.259 183.421 170.106 182.562 170.106C181.274 170.106 180.124 170.367 179.112 170.888C178.1 171.409 177.318 172.161 176.766 173.142C176.214 174.123 175.938 175.273 175.938 176.592C175.938 177.911 176.199 179.061 176.72 180.042C177.272 181.023 178.023 181.775 178.974 182.296C179.955 182.817 181.075 183.078 182.332 183.078C183.528 183.078 184.617 182.863 185.598 182.434C186.61 182.005 187.53 181.499 188.358 180.916L191.072 185.194C189.723 186.329 188.205 187.172 186.518 187.724C184.862 188.276 183.252 188.552 181.688 188.552ZM211.34 188.552C208.918 188.552 206.986 188.138 205.544 187.31C204.134 186.451 203.106 185.271 202.462 183.768C201.818 182.265 201.496 180.517 201.496 178.524V170.474H195.792V165.46L201.818 165.184L202.692 158.192H208.258V165.184H217.918V170.474H208.258V178.478C208.258 179.613 208.427 180.533 208.764 181.238C209.102 181.943 209.623 182.465 210.328 182.802C211.034 183.109 211.938 183.262 213.042 183.262C213.932 183.262 214.744 183.185 215.48 183.032C216.216 182.879 216.922 182.679 217.596 182.434L218.792 187.31C217.78 187.617 216.661 187.893 215.434 188.138C214.238 188.414 212.874 188.552 211.34 188.552ZM234.69 188.552C232.666 188.552 230.658 188.215 228.664 187.54C226.671 186.835 224.954 186.007 223.512 185.056L226.41 180.824C227.79 181.713 229.247 182.388 230.78 182.848C232.344 183.308 233.954 183.538 235.61 183.538C236.868 183.538 237.788 183.354 238.37 182.986C238.953 182.587 239.244 182.127 239.244 181.606C239.244 181.269 239.152 180.993 238.968 180.778C238.815 180.533 238.524 180.318 238.094 180.134C237.696 179.919 237.128 179.72 236.392 179.536C235.687 179.352 234.767 179.137 233.632 178.892C230.535 178.217 228.312 177.297 226.962 176.132C225.613 174.967 224.938 173.51 224.938 171.762C224.938 169.615 225.874 167.898 227.744 166.61C229.615 165.291 232.176 164.632 235.426 164.632C237.481 164.632 239.336 164.969 240.992 165.644C242.679 166.288 244.12 166.993 245.316 167.76L242.28 171.808C241.146 171.103 239.934 170.566 238.646 170.198C237.358 169.83 236.086 169.646 234.828 169.646C234.123 169.646 233.54 169.723 233.08 169.876C232.62 169.999 232.268 170.213 232.022 170.52C231.777 170.796 231.654 171.103 231.654 171.44C231.654 172.053 232.053 172.513 232.85 172.82C233.648 173.096 235.012 173.449 236.944 173.878C239.275 174.399 241.1 174.997 242.418 175.672C243.737 176.347 244.642 177.129 245.132 178.018C245.654 178.877 245.914 179.935 245.914 181.192C245.914 182.572 245.485 183.814 244.626 184.918C243.798 186.022 242.541 186.911 240.854 187.586C239.198 188.23 237.144 188.552 234.69 188.552ZM262.456 173.694C260.892 173.694 259.604 173.173 258.592 172.13C257.611 171.087 257.12 169.815 257.12 168.312C257.12 166.809 257.611 165.537 258.592 164.494C259.604 163.421 260.892 162.884 262.456 162.884C264.051 162.884 265.339 163.421 266.32 164.494C267.302 165.537 267.792 166.809 267.792 168.312C267.792 169.815 267.302 171.087 266.32 172.13C265.339 173.173 264.051 173.694 262.456 173.694ZM262.456 188.552C260.892 188.552 259.604 188.031 258.592 186.988C257.611 185.945 257.12 184.673 257.12 183.17C257.12 181.667 257.611 180.395 258.592 179.352C259.604 178.279 260.892 177.742 262.456 177.742C264.051 177.742 265.339 178.279 266.32 179.352C267.302 180.395 267.792 181.667 267.792 183.17C267.792 184.673 267.302 185.945 266.32 186.988C265.339 188.031 264.051 188.552 262.456 188.552Z" fill="black"/>
<defs>
<filter id="filter0_d_31_631" x="16" y="240" width="468" height="208" filterUnits="userSpaceOnUse" color-interpolation-filters="sRGB">
<feFlood flood-opacity="0" result="BackgroundImageFix"/>
<feColorMatrix in="SourceAlpha" type="matrix" values="0 0 0 0 0 0 0 0 0 0 0 0 0 0 0 0 0 0 127 0" result="hardAlpha"/>
<feOffset dy="4"/>
<feGaussianBlur stdDeviation="2"/>
<feComposite in2="hardAlpha" operator="out"/>
<feColorMatrix type="matrix" values="0 0 0 0 0 0 0 0 0 0 0 0 0 0 0 0 0 0 0.25 0"/>
<feBlend mode="normal" in2="BackgroundImageFix" result="effect1_dropShadow_31_631"/>
<feBlend mode="normal" in="SourceGraphic" in2="effect1_dropShadow_31_631" result="shape"/>
</filter>
<filter id="filter1_d_31_631" x="16" y="474" width="468" height="208" filterUnits="userSpaceOnUse" color-interpolation-filters="sRGB">
<feFlood flood-opacity="0" result="BackgroundImageFix"/>
<feColorMatrix in="SourceAlpha" type="matrix" values="0 0 0 0 0 0 0 0 0 0 0 0 0 0 0 0 0 0 127 0" result="hardAlpha"/>
<feOffset dy="4"/>
<feGaussianBlur stdDeviation="2"/>
<feComposite in2="hardAlpha" operator="out"/>
<feColorMatrix type="matrix" values="0 0 0 0 0 0 0 0 0 0 0 0 0 0 0 0 0 0 0.25 0"/>
<feBlend mode="normal" in2="BackgroundImageFix" result="effect1_dropShadow_31_631"/>
<feBlend mode="normal" in="SourceGraphic" in2="effect1_dropShadow_31_631" result="shape"/>
</filter>
<filter id="filter2_d_31_631" x="16" y="708" width="468" height="208" filterUnits="userSpaceOnUse" color-interpolation-filters="sRGB">
<feFlood flood-opacity="0" result="BackgroundImageFix"/>
<feColorMatrix in="SourceAlpha" type="matrix" values="0 0 0 0 0 0 0 0 0 0 0 0 0 0 0 0 0 0 127 0" result="hardAlpha"/>
<feOffset dy="4"/>
<feGaussianBlur stdDeviation="2"/>
<feComposite in2="hardAlpha" operator="out"/>
<feColorMatrix type="matrix" values="0 0 0 0 0 0 0 0 0 0 0 0 0 0 0 0 0 0 0.25 0"/>
<feBlend mode="normal" in2="BackgroundImageFix" result="effect1_dropShadow_31_631"/>
<feBlend mode="normal" in="SourceGraphic" in2="effect1_dropShadow_31_631" result="shape"/>
</filter>
</defs>
</svg>
