<svg width="1000" height="569" viewBox="0 0 1000 569" fill="none" xmlns="http://www.w3.org/2000/svg">
<rect y="69" width="1000" height="500" fill="white"/>
<g filter="url(#filter0_d_31_654)">
<rect x="20" y="89" width="300" height="220" rx="6" fill="#FDFDFD"/>
<rect x="20.5" y="89.5" width="299" height="219" rx="5.5" stroke="#D9D9D9"/>
</g>
<path d="M44.8437 287H42.6357L42.0597 279.536C41.8197 276.608 41.6837 274.36 41.6517 272.792L38.0757 285.128H35.9397L32.1717 272.768C32.1717 274.768 32.0677 277.08 31.8597 279.704L31.3077 287H29.1477L30.5157 270.464H33.5877L37.0677 282.488L40.3797 270.464H43.4757L44.8437 287ZM53.6834 287.072C53.1874 288.544 52.4914 289.704 51.5954 290.552C50.7154 291.416 49.4514 291.936 47.8034 292.112L47.5634 290.384C48.3954 290.24 49.0594 290.032 49.5554 289.76C50.0514 289.488 50.4434 289.136 50.7314 288.704C51.0354 288.288 51.3154 287.72 51.5714 287H50.8274L46.5794 274.352H48.9314L52.3154 285.392L55.6274 274.352H57.9074L53.6834 287.072ZM72.5914 274.064C74.2074 274.064 75.3914 274.64 76.1434 275.792C76.8954 276.944 77.2714 278.568 77.2714 280.664C77.2714 282.648 76.8394 284.248 75.9754 285.464C75.1114 286.68 73.8874 287.288 72.3034 287.288C70.8954 287.288 69.7914 286.808 68.9914 285.848V291.848L66.7834 292.112V274.352H68.6794L68.8474 276.056C69.3114 275.416 69.8714 274.928 70.5274 274.592C71.1834 274.24 71.8714 274.064 72.5914 274.064ZM71.7754 285.488C73.8554 285.488 74.8954 283.88 74.8954 280.664C74.8954 277.432 73.9434 275.816 72.0394 275.816C71.4154 275.816 70.8474 276 70.3354 276.368C69.8234 276.736 69.3754 277.208 68.9914 277.784V283.952C69.3114 284.448 69.7114 284.832 70.1914 285.104C70.6714 285.36 71.1994 285.488 71.7754 285.488ZM86.5294 274.064C86.9774 274.064 87.3934 274.112 87.7774 274.208L87.3694 276.368C86.9854 276.272 86.6174 276.224 86.2654 276.224C85.4814 276.224 84.8494 276.512 84.3694 277.088C83.8894 277.664 83.5134 278.56 83.2414 279.776V287H81.0334V274.352H82.9294L83.1454 276.92C83.4814 275.976 83.9374 275.264 84.5134 274.784C85.0894 274.304 85.7614 274.064 86.5294 274.064ZM94.3167 274.064C96.0927 274.064 97.4687 274.656 98.4447 275.84C99.4367 277.024 99.9327 278.632 99.9327 280.664C99.9327 281.976 99.7087 283.136 99.2607 284.144C98.8127 285.136 98.1647 285.912 97.3167 286.472C96.4687 287.016 95.4607 287.288 94.2927 287.288C92.5167 287.288 91.1327 286.696 90.1407 285.512C89.1487 284.328 88.6527 282.72 88.6527 280.688C88.6527 279.376 88.8767 278.224 89.3247 277.232C89.7727 276.224 90.4207 275.448 91.2687 274.904C92.1167 274.344 93.1327 274.064 94.3167 274.064ZM94.3167 275.84C92.1247 275.84 91.0287 277.456 91.0287 280.688C91.0287 283.904 92.1167 285.512 94.2927 285.512C96.4687 285.512 97.5567 283.896 97.5567 280.664C97.5567 277.448 96.4767 275.84 94.3167 275.84ZM105.74 286.232C105.74 287.4 105.596 288.336 105.308 289.04C105.02 289.744 104.596 290.312 104.036 290.744C103.492 291.192 102.724 291.64 101.732 292.088L101.084 290.48C101.708 290.192 102.188 289.904 102.524 289.616C102.86 289.344 103.108 288.952 103.268 288.44C103.444 287.944 103.532 287.256 103.532 286.376V274.352H105.74V286.232ZM104.636 268.28C105.1 268.28 105.476 268.424 105.764 268.712C106.052 269 106.196 269.36 106.196 269.792C106.196 270.224 106.052 270.584 105.764 270.872C105.476 271.144 105.1 271.28 104.636 271.28C104.188 271.28 103.82 271.144 103.532 270.872C103.244 270.584 103.1 270.224 103.1 269.792C103.1 269.36 103.244 269 103.532 268.712C103.82 268.424 104.188 268.28 104.636 268.28ZM119.859 280.304C119.859 280.672 119.843 281.048 119.811 281.432H111.747C111.843 282.824 112.195 283.848 112.803 284.504C113.411 285.16 114.195 285.488 115.155 285.488C115.763 285.488 116.323 285.4 116.835 285.224C117.347 285.048 117.883 284.768 118.443 284.384L119.403 285.704C118.059 286.76 116.587 287.288 114.987 287.288C113.227 287.288 111.851 286.712 110.859 285.56C109.883 284.408 109.395 282.824 109.395 280.808C109.395 279.496 109.603 278.336 110.019 277.328C110.451 276.304 111.059 275.504 111.843 274.928C112.643 274.352 113.579 274.064 114.651 274.064C116.331 274.064 117.619 274.616 118.515 275.72C119.411 276.824 119.859 278.352 119.859 280.304ZM117.675 279.656C117.675 278.408 117.427 277.456 116.931 276.8C116.435 276.144 115.691 275.816 114.699 275.816C112.891 275.816 111.907 277.144 111.747 279.8H117.675V279.656ZM127.993 274.064C128.745 274.064 129.433 274.176 130.057 274.4C130.681 274.608 131.281 274.952 131.857 275.432L130.801 276.824C130.353 276.504 129.913 276.272 129.481 276.128C129.065 275.968 128.601 275.888 128.089 275.888C127.065 275.888 126.265 276.296 125.689 277.112C125.129 277.928 124.849 279.136 124.849 280.736C124.849 282.336 125.129 283.52 125.689 284.288C126.249 285.04 127.049 285.416 128.089 285.416C128.585 285.416 129.041 285.344 129.457 285.2C129.873 285.04 130.337 284.792 130.849 284.456L131.857 285.896C130.705 286.824 129.417 287.288 127.993 287.288C126.281 287.288 124.929 286.712 123.937 285.56C122.961 284.408 122.473 282.816 122.473 280.784C122.473 279.44 122.697 278.264 123.145 277.256C123.593 276.248 124.225 275.464 125.041 274.904C125.873 274.344 126.857 274.064 127.993 274.064ZM141.23 286.424C140.398 287 139.454 287.288 138.398 287.288C137.326 287.288 136.486 286.984 135.878 286.376C135.286 285.752 134.99 284.856 134.99 283.688V276.056H132.782V274.352H134.99V271.496L137.198 271.232V274.352H140.198L139.958 276.056H137.198V283.592C137.198 284.248 137.31 284.728 137.534 285.032C137.774 285.32 138.166 285.464 138.71 285.464C139.206 285.464 139.766 285.296 140.39 284.96L141.23 286.424Z" fill="#262626"/>
<g filter="url(#filter1_d_31_654)">
<rect x="350" y="329" width="300" height="220" rx="6" fill="#FDFDFD"/>
<rect x="350.5" y="329.5" width="299" height="219" rx="5.5" stroke="#D9D9D9"/>
</g>
<path d="M374.844 527H372.636L372.06 519.536C371.82 516.608 371.684 514.36 371.652 512.792L368.076 525.128H365.94L362.172 512.768C362.172 514.768 362.068 517.08 361.86 519.704L361.308 527H359.148L360.516 510.464H363.588L367.068 522.488L370.38 510.464H373.476L374.844 527ZM383.683 527.072C383.187 528.544 382.491 529.704 381.595 530.552C380.715 531.416 379.451 531.936 377.803 532.112L377.563 530.384C378.395 530.24 379.059 530.032 379.555 529.76C380.051 529.488 380.443 529.136 380.731 528.704C381.035 528.288 381.315 527.72 381.571 527H380.827L376.579 514.352H378.931L382.315 525.392L385.627 514.352H387.907L383.683 527.072ZM402.591 514.064C404.207 514.064 405.391 514.64 406.143 515.792C406.895 516.944 407.271 518.568 407.271 520.664C407.271 522.648 406.839 524.248 405.975 525.464C405.111 526.68 403.887 527.288 402.303 527.288C400.895 527.288 399.791 526.808 398.991 525.848V531.848L396.783 532.112V514.352H398.679L398.847 516.056C399.311 515.416 399.871 514.928 400.527 514.592C401.183 514.24 401.871 514.064 402.591 514.064ZM401.775 525.488C403.855 525.488 404.895 523.88 404.895 520.664C404.895 517.432 403.943 515.816 402.039 515.816C401.415 515.816 400.847 516 400.335 516.368C399.823 516.736 399.375 517.208 398.991 517.784V523.952C399.311 524.448 399.711 524.832 400.191 525.104C400.671 525.36 401.199 525.488 401.775 525.488ZM416.529 514.064C416.977 514.064 417.393 514.112 417.777 514.208L417.369 516.368C416.985 516.272 416.617 516.224 416.265 516.224C415.481 516.224 414.849 516.512 414.369 517.088C413.889 517.664 413.513 518.56 413.241 519.776V527H411.033V514.352H412.929L413.145 516.92C413.481 515.976 413.937 515.264 414.513 514.784C415.089 514.304 415.761 514.064 416.529 514.064ZM424.317 514.064C426.093 514.064 427.469 514.656 428.445 515.84C429.437 517.024 429.933 518.632 429.933 520.664C429.933 521.976 429.709 523.136 429.261 524.144C428.813 525.136 428.165 525.912 427.317 526.472C426.469 527.016 425.461 527.288 424.293 527.288C422.517 527.288 421.133 526.696 420.141 525.512C419.149 524.328 418.653 522.72 418.653 520.688C418.653 519.376 418.877 518.224 419.325 517.232C419.773 516.224 420.421 515.448 421.269 514.904C422.117 514.344 423.133 514.064 424.317 514.064ZM424.317 515.84C422.125 515.84 421.029 517.456 421.029 520.688C421.029 523.904 422.117 525.512 424.293 525.512C426.469 525.512 427.557 523.896 427.557 520.664C427.557 517.448 426.477 515.84 424.317 515.84ZM435.74 526.232C435.74 527.4 435.596 528.336 435.308 529.04C435.02 529.744 434.596 530.312 434.036 530.744C433.492 531.192 432.724 531.64 431.732 532.088L431.084 530.48C431.708 530.192 432.188 529.904 432.524 529.616C432.86 529.344 433.108 528.952 433.268 528.44C433.444 527.944 433.532 527.256 433.532 526.376V514.352H435.74V526.232ZM434.636 508.28C435.1 508.28 435.476 508.424 435.764 508.712C436.052 509 436.196 509.36 436.196 509.792C436.196 510.224 436.052 510.584 435.764 510.872C435.476 511.144 435.1 511.28 434.636 511.28C434.188 511.28 433.82 511.144 433.532 510.872C433.244 510.584 433.1 510.224 433.1 509.792C433.1 509.36 433.244 509 433.532 508.712C433.82 508.424 434.188 508.28 434.636 508.28ZM449.859 520.304C449.859 520.672 449.843 521.048 449.811 521.432H441.747C441.843 522.824 442.195 523.848 442.803 524.504C443.411 525.16 444.195 525.488 445.155 525.488C445.763 525.488 446.323 525.4 446.835 525.224C447.347 525.048 447.883 524.768 448.443 524.384L449.403 525.704C448.059 526.76 446.587 527.288 444.987 527.288C443.227 527.288 441.851 526.712 440.859 525.56C439.883 524.408 439.395 522.824 439.395 520.808C439.395 519.496 439.603 518.336 440.019 517.328C440.451 516.304 441.059 515.504 441.843 514.928C442.643 514.352 443.579 514.064 444.651 514.064C446.331 514.064 447.619 514.616 448.515 515.72C449.411 516.824 449.859 518.352 449.859 520.304ZM447.675 519.656C447.675 518.408 447.427 517.456 446.931 516.8C446.435 516.144 445.691 515.816 444.699 515.816C442.891 515.816 441.907 517.144 441.747 519.8H447.675V519.656ZM457.993 514.064C458.745 514.064 459.433 514.176 460.057 514.4C460.681 514.608 461.281 514.952 461.857 515.432L460.801 516.824C460.353 516.504 459.913 516.272 459.481 516.128C459.065 515.968 458.601 515.888 458.089 515.888C457.065 515.888 456.265 516.296 455.689 517.112C455.129 517.928 454.849 519.136 454.849 520.736C454.849 522.336 455.129 523.52 455.689 524.288C456.249 525.04 457.049 525.416 458.089 525.416C458.585 525.416 459.041 525.344 459.457 525.2C459.873 525.04 460.337 524.792 460.849 524.456L461.857 525.896C460.705 526.824 459.417 527.288 457.993 527.288C456.281 527.288 454.929 526.712 453.937 525.56C452.961 524.408 452.473 522.816 452.473 520.784C452.473 519.44 452.697 518.264 453.145 517.256C453.593 516.248 454.225 515.464 455.041 514.904C455.873 514.344 456.857 514.064 457.993 514.064ZM471.23 526.424C470.398 527 469.454 527.288 468.398 527.288C467.326 527.288 466.486 526.984 465.878 526.376C465.286 525.752 464.99 524.856 464.99 523.688V516.056H462.782V514.352H464.99V511.496L467.198 511.232V514.352H470.198L469.958 516.056H467.198V523.592C467.198 524.248 467.31 524.728 467.534 525.032C467.774 525.32 468.166 525.464 468.71 525.464C469.206 525.464 469.766 525.296 470.39 524.96L471.23 526.424Z" fill="#262626"/>
<g filter="url(#filter2_d_31_654)">
<rect x="20" y="329" width="300" height="220" rx="6" fill="#FDFDFD"/>
<rect x="20.5" y="329.5" width="299" height="219" rx="5.5" stroke="#D9D9D9"/>
</g>
<path d="M44.8437 527H42.6357L42.0597 519.536C41.8197 516.608 41.6837 514.36 41.6517 512.792L38.0757 525.128H35.9397L32.1717 512.768C32.1717 514.768 32.0677 517.08 31.8597 519.704L31.3077 527H29.1477L30.5157 510.464H33.5877L37.0677 522.488L40.3797 510.464H43.4757L44.8437 527ZM53.6834 527.072C53.1874 528.544 52.4914 529.704 51.5954 530.552C50.7154 531.416 49.4514 531.936 47.8034 532.112L47.5634 530.384C48.3954 530.24 49.0594 530.032 49.5554 529.76C50.0514 529.488 50.4434 529.136 50.7314 528.704C51.0354 528.288 51.3154 527.72 51.5714 527H50.8274L46.5794 514.352H48.9314L52.3154 525.392L55.6274 514.352H57.9074L53.6834 527.072ZM72.5914 514.064C74.2074 514.064 75.3914 514.64 76.1434 515.792C76.8954 516.944 77.2714 518.568 77.2714 520.664C77.2714 522.648 76.8394 524.248 75.9754 525.464C75.1114 526.68 73.8874 527.288 72.3034 527.288C70.8954 527.288 69.7914 526.808 68.9914 525.848V531.848L66.7834 532.112V514.352H68.6794L68.8474 516.056C69.3114 515.416 69.8714 514.928 70.5274 514.592C71.1834 514.24 71.8714 514.064 72.5914 514.064ZM71.7754 525.488C73.8554 525.488 74.8954 523.88 74.8954 520.664C74.8954 517.432 73.9434 515.816 72.0394 515.816C71.4154 515.816 70.8474 516 70.3354 516.368C69.8234 516.736 69.3754 517.208 68.9914 517.784V523.952C69.3114 524.448 69.7114 524.832 70.1914 525.104C70.6714 525.36 71.1994 525.488 71.7754 525.488ZM86.5294 514.064C86.9774 514.064 87.3934 514.112 87.7774 514.208L87.3694 516.368C86.9854 516.272 86.6174 516.224 86.2654 516.224C85.4814 516.224 84.8494 516.512 84.3694 517.088C83.8894 517.664 83.5134 518.56 83.2414 519.776V527H81.0334V514.352H82.9294L83.1454 516.92C83.4814 515.976 83.9374 515.264 84.5134 514.784C85.0894 514.304 85.7614 514.064 86.5294 514.064ZM94.3167 514.064C96.0927 514.064 97.4687 514.656 98.4447 515.84C99.4367 517.024 99.9327 518.632 99.9327 520.664C99.9327 521.976 99.7087 523.136 99.2607 524.144C98.8127 525.136 98.1647 525.912 97.3167 526.472C96.4687 527.016 95.4607 527.288 94.2927 527.288C92.5167 527.288 91.1327 526.696 90.1407 525.512C89.1487 524.328 88.6527 522.72 88.6527 520.688C88.6527 519.376 88.8767 518.224 89.3247 517.232C89.7727 516.224 90.4207 515.448 91.2687 514.904C92.1167 514.344 93.1327 514.064 94.3167 514.064ZM94.3167 515.84C92.1247 515.84 91.0287 517.456 91.0287 520.688C91.0287 523.904 92.1167 525.512 94.2927 525.512C96.4687 525.512 97.5567 523.896 97.5567 520.664C97.5567 517.448 96.4767 515.84 94.3167 515.84ZM105.74 526.232C105.74 527.4 105.596 528.336 105.308 529.04C105.02 529.744 104.596 530.312 104.036 530.744C103.492 531.192 102.724 531.64 101.732 532.088L101.084 530.48C101.708 530.192 102.188 529.904 102.524 529.616C102.86 529.344 103.108 528.952 103.268 528.44C103.444 527.944 103.532 527.256 103.532 526.376V514.352H105.74V526.232ZM104.636 508.28C105.1 508.28 105.476 508.424 105.764 508.712C106.052 509 106.196 509.36 106.196 509.792C106.196 510.224 106.052 510.584 105.764 510.872C105.476 511.144 105.1 511.28 104.636 511.28C104.188 511.28 103.82 511.144 103.532 510.872C103.244 510.584 103.1 510.224 103.1 509.792C103.1 509.36 103.244 509 103.532 508.712C103.82 508.424 104.188 508.28 104.636 508.28ZM119.859 520.304C119.859 520.672 119.843 521.048 119.811 521.432H111.747C111.843 522.824 112.195 523.848 112.803 524.504C113.411 525.16 114.195 525.488 115.155 525.488C115.763 525.488 116.323 525.4 116.835 525.224C117.347 525.048 117.883 524.768 118.443 524.384L119.403 525.704C118.059 526.76 116.587 527.288 114.987 527.288C113.227 527.288 111.851 526.712 110.859 525.56C109.883 524.408 109.395 522.824 109.395 520.808C109.395 519.496 109.603 518.336 110.019 517.328C110.451 516.304 111.059 515.504 111.843 514.928C112.643 514.352 113.579 514.064 114.651 514.064C116.331 514.064 117.619 514.616 118.515 515.72C119.411 516.824 119.859 518.352 119.859 520.304ZM117.675 519.656C117.675 518.408 117.427 517.456 116.931 516.8C116.435 516.144 115.691 515.816 114.699 515.816C112.891 515.816 111.907 517.144 111.747 519.8H117.675V519.656ZM127.993 514.064C128.745 514.064 129.433 514.176 130.057 514.4C130.681 514.608 131.281 514.952 131.857 515.432L130.801 516.824C130.353 516.504 129.913 516.272 129.481 516.128C129.065 515.968 128.601 515.888 128.089 515.888C127.065 515.888 126.265 516.296 125.689 517.112C125.129 517.928 124.849 519.136 124.849 520.736C124.849 522.336 125.129 523.52 125.689 524.288C126.249 525.04 127.049 525.416 128.089 525.416C128.585 525.416 129.041 525.344 129.457 525.2C129.873 525.04 130.337 524.792 130.849 524.456L131.857 525.896C130.705 526.824 129.417 527.288 127.993 527.288C126.281 527.288 124.929 526.712 123.937 525.56C122.961 524.408 122.473 522.816 122.473 520.784C122.473 519.44 122.697 518.264 123.145 517.256C123.593 516.248 124.225 515.464 125.041 514.904C125.873 514.344 126.857 514.064 127.993 514.064ZM141.23 526.424C140.398 527 139.454 527.288 138.398 527.288C137.326 527.288 136.486 526.984 135.878 526.376C135.286 525.752 134.99 524.856 134.99 523.688V516.056H132.782V514.352H134.99V511.496L137.198 511.232V514.352H140.198L139.958 516.056H137.198V523.592C137.198 524.248 137.31 524.728 137.534 525.032C137.774 525.32 138.166 525.464 138.71 525.464C139.206 525.464 139.766 525.296 140.39 524.96L141.23 526.424Z" fill="#262626"/>
<g filter="url(#filter3_d_31_654)">
<rect x="350" y="89" width="300" height="220" rx="6" fill="#FDFDFD"/>
<rect x="350.5" y="89.5" width="299" height="219" rx="5.5" stroke="#D9D9D9"/>
</g>
<path d="M374.844 287H372.636L372.06 279.536C371.82 276.608 371.684 274.36 371.652 272.792L368.076 285.128H365.94L362.172 272.768C362.172 274.768 362.068 277.08 361.86 279.704L361.308 287H359.148L360.516 270.464H363.588L367.068 282.488L370.38 270.464H373.476L374.844 287ZM383.683 287.072C383.187 288.544 382.491 289.704 381.595 290.552C380.715 291.416 379.451 291.936 377.803 292.112L377.563 290.384C378.395 290.24 379.059 290.032 379.555 289.76C380.051 289.488 380.443 289.136 380.731 288.704C381.035 288.288 381.315 287.72 381.571 287H380.827L376.579 274.352H378.931L382.315 285.392L385.627 274.352H387.907L383.683 287.072ZM402.591 274.064C404.207 274.064 405.391 274.64 406.143 275.792C406.895 276.944 407.271 278.568 407.271 280.664C407.271 282.648 406.839 284.248 405.975 285.464C405.111 286.68 403.887 287.288 402.303 287.288C400.895 287.288 399.791 286.808 398.991 285.848V291.848L396.783 292.112V274.352H398.679L398.847 276.056C399.311 275.416 399.871 274.928 400.527 274.592C401.183 274.24 401.871 274.064 402.591 274.064ZM401.775 285.488C403.855 285.488 404.895 283.88 404.895 280.664C404.895 277.432 403.943 275.816 402.039 275.816C401.415 275.816 400.847 276 400.335 276.368C399.823 276.736 399.375 277.208 398.991 277.784V283.952C399.311 284.448 399.711 284.832 400.191 285.104C400.671 285.36 401.199 285.488 401.775 285.488ZM416.529 274.064C416.977 274.064 417.393 274.112 417.777 274.208L417.369 276.368C416.985 276.272 416.617 276.224 416.265 276.224C415.481 276.224 414.849 276.512 414.369 277.088C413.889 277.664 413.513 278.56 413.241 279.776V287H411.033V274.352H412.929L413.145 276.92C413.481 275.976 413.937 275.264 414.513 274.784C415.089 274.304 415.761 274.064 416.529 274.064ZM424.317 274.064C426.093 274.064 427.469 274.656 428.445 275.84C429.437 277.024 429.933 278.632 429.933 280.664C429.933 281.976 429.709 283.136 429.261 284.144C428.813 285.136 428.165 285.912 427.317 286.472C426.469 287.016 425.461 287.288 424.293 287.288C422.517 287.288 421.133 286.696 420.141 285.512C419.149 284.328 418.653 282.72 418.653 280.688C418.653 279.376 418.877 278.224 419.325 277.232C419.773 276.224 420.421 275.448 421.269 274.904C422.117 274.344 423.133 274.064 424.317 274.064ZM424.317 275.84C422.125 275.84 421.029 277.456 421.029 280.688C421.029 283.904 422.117 285.512 424.293 285.512C426.469 285.512 427.557 283.896 427.557 280.664C427.557 277.448 426.477 275.84 424.317 275.84ZM435.74 286.232C435.74 287.4 435.596 288.336 435.308 289.04C435.02 289.744 434.596 290.312 434.036 290.744C433.492 291.192 432.724 291.64 431.732 292.088L431.084 290.48C431.708 290.192 432.188 289.904 432.524 289.616C432.86 289.344 433.108 288.952 433.268 288.44C433.444 287.944 433.532 287.256 433.532 286.376V274.352H435.74V286.232ZM434.636 268.28C435.1 268.28 435.476 268.424 435.764 268.712C436.052 269 436.196 269.36 436.196 269.792C436.196 270.224 436.052 270.584 435.764 270.872C435.476 271.144 435.1 271.28 434.636 271.28C434.188 271.28 433.82 271.144 433.532 270.872C433.244 270.584 433.1 270.224 433.1 269.792C433.1 269.36 433.244 269 433.532 268.712C433.82 268.424 434.188 268.28 434.636 268.28ZM449.859 280.304C449.859 280.672 449.843 281.048 449.811 281.432H441.747C441.843 282.824 442.195 283.848 442.803 284.504C443.411 285.16 444.195 285.488 445.155 285.488C445.763 285.488 446.323 285.4 446.835 285.224C447.347 285.048 447.883 284.768 448.443 284.384L449.403 285.704C448.059 286.76 446.587 287.288 444.987 287.288C443.227 287.288 441.851 286.712 440.859 285.56C439.883 284.408 439.395 282.824 439.395 280.808C439.395 279.496 439.603 278.336 440.019 277.328C440.451 276.304 441.059 275.504 441.843 274.928C442.643 274.352 443.579 274.064 444.651 274.064C446.331 274.064 447.619 274.616 448.515 275.72C449.411 276.824 449.859 278.352 449.859 280.304ZM447.675 279.656C447.675 278.408 447.427 277.456 446.931 276.8C446.435 276.144 445.691 275.816 444.699 275.816C442.891 275.816 441.907 277.144 441.747 279.8H447.675V279.656ZM457.993 274.064C458.745 274.064 459.433 274.176 460.057 274.4C460.681 274.608 461.281 274.952 461.857 275.432L460.801 276.824C460.353 276.504 459.913 276.272 459.481 276.128C459.065 275.968 458.601 275.888 458.089 275.888C457.065 275.888 456.265 276.296 455.689 277.112C455.129 277.928 454.849 279.136 454.849 280.736C454.849 282.336 455.129 283.52 455.689 284.288C456.249 285.04 457.049 285.416 458.089 285.416C458.585 285.416 459.041 285.344 459.457 285.2C459.873 285.04 460.337 284.792 460.849 284.456L461.857 285.896C460.705 286.824 459.417 287.288 457.993 287.288C456.281 287.288 454.929 286.712 453.937 285.56C452.961 284.408 452.473 282.816 452.473 280.784C452.473 279.44 452.697 278.264 453.145 277.256C453.593 276.248 454.225 275.464 455.041 274.904C455.873 274.344 456.857 274.064 457.993 274.064ZM471.23 286.424C470.398 287 469.454 287.288 468.398 287.288C467.326 287.288 466.486 286.984 465.878 286.376C465.286 285.752 464.99 284.856 464.99 283.688V276.056H462.782V274.352H464.99V271.496L467.198 271.232V274.352H470.198L469.958 276.056H467.198V283.592C467.198 284.248 467.31 284.728 467.534 285.032C467.774 285.32 468.166 285.464 468.71 285.464C469.206 285.464 469.766 285.296 470.39 284.96L471.23 286.424Z" fill="#262626"/>
<g filter="url(#filter4_d_31_654)">
<rect x="680" y="329" width="300" height="220" rx="6" fill="#FDFDFD"/>
<rect x="680.5" y="329.5" width="299" height="219" rx="5.5" stroke="#D9D9D9"/>
</g>
<path d="M704.844 527H702.636L702.06 519.536C701.82 516.608 701.684 514.36 701.652 512.792L698.076 525.128H695.94L692.172 512.768C692.172 514.768 692.068 517.08 691.86 519.704L691.308 527H689.148L690.516 510.464H693.588L697.068 522.488L700.38 510.464H703.476L704.844 527ZM713.683 527.072C713.187 528.544 712.491 529.704 711.595 530.552C710.715 531.416 709.451 531.936 707.803 532.112L707.563 530.384C708.395 530.24 709.059 530.032 709.555 529.76C710.051 529.488 710.443 529.136 710.731 528.704C711.035 528.288 711.315 527.72 711.571 527H710.827L706.579 514.352H708.931L712.315 525.392L715.627 514.352H717.907L713.683 527.072ZM732.591 514.064C734.207 514.064 735.391 514.64 736.143 515.792C736.895 516.944 737.271 518.568 737.271 520.664C737.271 522.648 736.839 524.248 735.975 525.464C735.111 526.68 733.887 527.288 732.303 527.288C730.895 527.288 729.791 526.808 728.991 525.848V531.848L726.783 532.112V514.352H728.679L728.847 516.056C729.311 515.416 729.871 514.928 730.527 514.592C731.183 514.24 731.871 514.064 732.591 514.064ZM731.775 525.488C733.855 525.488 734.895 523.88 734.895 520.664C734.895 517.432 733.943 515.816 732.039 515.816C731.415 515.816 730.847 516 730.335 516.368C729.823 516.736 729.375 517.208 728.991 517.784V523.952C729.311 524.448 729.711 524.832 730.191 525.104C730.671 525.36 731.199 525.488 731.775 525.488ZM746.529 514.064C746.977 514.064 747.393 514.112 747.777 514.208L747.369 516.368C746.985 516.272 746.617 516.224 746.265 516.224C745.481 516.224 744.849 516.512 744.369 517.088C743.889 517.664 743.513 518.56 743.241 519.776V527H741.033V514.352H742.929L743.145 516.92C743.481 515.976 743.937 515.264 744.513 514.784C745.089 514.304 745.761 514.064 746.529 514.064ZM754.317 514.064C756.093 514.064 757.469 514.656 758.445 515.84C759.437 517.024 759.933 518.632 759.933 520.664C759.933 521.976 759.709 523.136 759.261 524.144C758.813 525.136 758.165 525.912 757.317 526.472C756.469 527.016 755.461 527.288 754.293 527.288C752.517 527.288 751.133 526.696 750.141 525.512C749.149 524.328 748.653 522.72 748.653 520.688C748.653 519.376 748.877 518.224 749.325 517.232C749.773 516.224 750.421 515.448 751.269 514.904C752.117 514.344 753.133 514.064 754.317 514.064ZM754.317 515.84C752.125 515.84 751.029 517.456 751.029 520.688C751.029 523.904 752.117 525.512 754.293 525.512C756.469 525.512 757.557 523.896 757.557 520.664C757.557 517.448 756.477 515.84 754.317 515.84ZM765.74 526.232C765.74 527.4 765.596 528.336 765.308 529.04C765.02 529.744 764.596 530.312 764.036 530.744C763.492 531.192 762.724 531.64 761.732 532.088L761.084 530.48C761.708 530.192 762.188 529.904 762.524 529.616C762.86 529.344 763.108 528.952 763.268 528.44C763.444 527.944 763.532 527.256 763.532 526.376V514.352H765.74V526.232ZM764.636 508.28C765.1 508.28 765.476 508.424 765.764 508.712C766.052 509 766.196 509.36 766.196 509.792C766.196 510.224 766.052 510.584 765.764 510.872C765.476 511.144 765.1 511.28 764.636 511.28C764.188 511.28 763.82 511.144 763.532 510.872C763.244 510.584 763.1 510.224 763.1 509.792C763.1 509.36 763.244 509 763.532 508.712C763.82 508.424 764.188 508.28 764.636 508.28ZM779.859 520.304C779.859 520.672 779.843 521.048 779.811 521.432H771.747C771.843 522.824 772.195 523.848 772.803 524.504C773.411 525.16 774.195 525.488 775.155 525.488C775.763 525.488 776.323 525.4 776.835 525.224C777.347 525.048 777.883 524.768 778.443 524.384L779.403 525.704C778.059 526.76 776.587 527.288 774.987 527.288C773.227 527.288 771.851 526.712 770.859 525.56C769.883 524.408 769.395 522.824 769.395 520.808C769.395 519.496 769.603 518.336 770.019 517.328C770.451 516.304 771.059 515.504 771.843 514.928C772.643 514.352 773.579 514.064 774.651 514.064C776.331 514.064 777.619 514.616 778.515 515.72C779.411 516.824 779.859 518.352 779.859 520.304ZM777.675 519.656C777.675 518.408 777.427 517.456 776.931 516.8C776.435 516.144 775.691 515.816 774.699 515.816C772.891 515.816 771.907 517.144 771.747 519.8H777.675V519.656ZM787.993 514.064C788.745 514.064 789.433 514.176 790.057 514.4C790.681 514.608 791.281 514.952 791.857 515.432L790.801 516.824C790.353 516.504 789.913 516.272 789.481 516.128C789.065 515.968 788.601 515.888 788.089 515.888C787.065 515.888 786.265 516.296 785.689 517.112C785.129 517.928 784.849 519.136 784.849 520.736C784.849 522.336 785.129 523.52 785.689 524.288C786.249 525.04 787.049 525.416 788.089 525.416C788.585 525.416 789.041 525.344 789.457 525.2C789.873 525.04 790.337 524.792 790.849 524.456L791.857 525.896C790.705 526.824 789.417 527.288 787.993 527.288C786.281 527.288 784.929 526.712 783.937 525.56C782.961 524.408 782.473 522.816 782.473 520.784C782.473 519.44 782.697 518.264 783.145 517.256C783.593 516.248 784.225 515.464 785.041 514.904C785.873 514.344 786.857 514.064 787.993 514.064ZM801.23 526.424C800.398 527 799.454 527.288 798.398 527.288C797.326 527.288 796.486 526.984 795.878 526.376C795.286 525.752 794.99 524.856 794.99 523.688V516.056H792.782V514.352H794.99V511.496L797.198 511.232V514.352H800.198L799.958 516.056H797.198V523.592C797.198 524.248 797.31 524.728 797.534 525.032C797.774 525.32 798.166 525.464 798.71 525.464C799.206 525.464 799.766 525.296 800.39 524.96L801.23 526.424Z" fill="#262626"/>
<g filter="url(#filter5_d_31_654)">
<rect x="680" y="89" width="300" height="220" rx="6" fill="#FDFDFD"/>
<rect x="680.5" y="89.5" width="299" height="219" rx="5.5" stroke="#D9D9D9"/>
</g>
<path d="M704.844 287H702.636L702.06 279.536C701.82 276.608 701.684 274.36 701.652 272.792L698.076 285.128H695.94L692.172 272.768C692.172 274.768 692.068 277.08 691.86 279.704L691.308 287H689.148L690.516 270.464H693.588L697.068 282.488L700.38 270.464H703.476L704.844 287ZM713.683 287.072C713.187 288.544 712.491 289.704 711.595 290.552C710.715 291.416 709.451 291.936 707.803 292.112L707.563 290.384C708.395 290.24 709.059 290.032 709.555 289.76C710.051 289.488 710.443 289.136 710.731 288.704C711.035 288.288 711.315 287.72 711.571 287H710.827L706.579 274.352H708.931L712.315 285.392L715.627 274.352H717.907L713.683 287.072ZM732.591 274.064C734.207 274.064 735.391 274.64 736.143 275.792C736.895 276.944 737.271 278.568 737.271 280.664C737.271 282.648 736.839 284.248 735.975 285.464C735.111 286.68 733.887 287.288 732.303 287.288C730.895 287.288 729.791 286.808 728.991 285.848V291.848L726.783 292.112V274.352H728.679L728.847 276.056C729.311 275.416 729.871 274.928 730.527 274.592C731.183 274.24 731.871 274.064 732.591 274.064ZM731.775 285.488C733.855 285.488 734.895 283.88 734.895 280.664C734.895 277.432 733.943 275.816 732.039 275.816C731.415 275.816 730.847 276 730.335 276.368C729.823 276.736 729.375 277.208 728.991 277.784V283.952C729.311 284.448 729.711 284.832 730.191 285.104C730.671 285.36 731.199 285.488 731.775 285.488ZM746.529 274.064C746.977 274.064 747.393 274.112 747.777 274.208L747.369 276.368C746.985 276.272 746.617 276.224 746.265 276.224C745.481 276.224 744.849 276.512 744.369 277.088C743.889 277.664 743.513 278.56 743.241 279.776V287H741.033V274.352H742.929L743.145 276.92C743.481 275.976 743.937 275.264 744.513 274.784C745.089 274.304 745.761 274.064 746.529 274.064ZM754.317 274.064C756.093 274.064 757.469 274.656 758.445 275.84C759.437 277.024 759.933 278.632 759.933 280.664C759.933 281.976 759.709 283.136 759.261 284.144C758.813 285.136 758.165 285.912 757.317 286.472C756.469 287.016 755.461 287.288 754.293 287.288C752.517 287.288 751.133 286.696 750.141 285.512C749.149 284.328 748.653 282.72 748.653 280.688C748.653 279.376 748.877 278.224 749.325 277.232C749.773 276.224 750.421 275.448 751.269 274.904C752.117 274.344 753.133 274.064 754.317 274.064ZM754.317 275.84C752.125 275.84 751.029 277.456 751.029 280.688C751.029 283.904 752.117 285.512 754.293 285.512C756.469 285.512 757.557 283.896 757.557 280.664C757.557 277.448 756.477 275.84 754.317 275.84ZM765.74 286.232C765.74 287.4 765.596 288.336 765.308 289.04C765.02 289.744 764.596 290.312 764.036 290.744C763.492 291.192 762.724 291.64 761.732 292.088L761.084 290.48C761.708 290.192 762.188 289.904 762.524 289.616C762.86 289.344 763.108 288.952 763.268 288.44C763.444 287.944 763.532 287.256 763.532 286.376V274.352H765.74V286.232ZM764.636 268.28C765.1 268.28 765.476 268.424 765.764 268.712C766.052 269 766.196 269.36 766.196 269.792C766.196 270.224 766.052 270.584 765.764 270.872C765.476 271.144 765.1 271.28 764.636 271.28C764.188 271.28 763.82 271.144 763.532 270.872C763.244 270.584 763.1 270.224 763.1 269.792C763.1 269.36 763.244 269 763.532 268.712C763.82 268.424 764.188 268.28 764.636 268.28ZM779.859 280.304C779.859 280.672 779.843 281.048 779.811 281.432H771.747C771.843 282.824 772.195 283.848 772.803 284.504C773.411 285.16 774.195 285.488 775.155 285.488C775.763 285.488 776.323 285.4 776.835 285.224C777.347 285.048 777.883 284.768 778.443 284.384L779.403 285.704C778.059 286.76 776.587 287.288 774.987 287.288C773.227 287.288 771.851 286.712 770.859 285.56C769.883 284.408 769.395 282.824 769.395 280.808C769.395 279.496 769.603 278.336 770.019 277.328C770.451 276.304 771.059 275.504 771.843 274.928C772.643 274.352 773.579 274.064 774.651 274.064C776.331 274.064 777.619 274.616 778.515 275.72C779.411 276.824 779.859 278.352 779.859 280.304ZM777.675 279.656C777.675 278.408 777.427 277.456 776.931 276.8C776.435 276.144 775.691 275.816 774.699 275.816C772.891 275.816 771.907 277.144 771.747 279.8H777.675V279.656ZM787.993 274.064C788.745 274.064 789.433 274.176 790.057 274.4C790.681 274.608 791.281 274.952 791.857 275.432L790.801 276.824C790.353 276.504 789.913 276.272 789.481 276.128C789.065 275.968 788.601 275.888 788.089 275.888C787.065 275.888 786.265 276.296 785.689 277.112C785.129 277.928 784.849 279.136 784.849 280.736C784.849 282.336 785.129 283.52 785.689 284.288C786.249 285.04 787.049 285.416 788.089 285.416C788.585 285.416 789.041 285.344 789.457 285.2C789.873 285.04 790.337 284.792 790.849 284.456L791.857 285.896C790.705 286.824 789.417 287.288 787.993 287.288C786.281 287.288 784.929 286.712 783.937 285.56C782.961 284.408 782.473 282.816 782.473 280.784C782.473 279.44 782.697 278.264 783.145 277.256C783.593 276.248 784.225 275.464 785.041 274.904C785.873 274.344 786.857 274.064 787.993 274.064ZM801.23 286.424C800.398 287 799.454 287.288 798.398 287.288C797.326 287.288 796.486 286.984 795.878 286.376C795.286 285.752 794.99 284.856 794.99 283.688V276.056H792.782V274.352H794.99V271.496L797.198 271.232V274.352H800.198L799.958 276.056H797.198V283.592C797.198 284.248 797.31 284.728 797.534 285.032C797.774 285.32 798.166 285.464 798.71 285.464C799.206 285.464 799.766 285.296 800.39 284.96L801.23 286.424Z" fill="#262626"/>
<rect width="1000" height="69" fill="white"/>
<path d="M24.922 59V29.008H31.684V53.296H45.024V59H24.922ZM60.37 59V41.474H51.17V36.184H67.132V59H60.37ZM63.452 32.596C62.164 32.596 61.0907 32.228 60.232 31.492C59.3734 30.7253 58.944 29.7287 58.944 28.502C58.944 27.2447 59.3734 26.2327 60.232 25.466C61.0907 24.6687 62.164 24.27 63.452 24.27C64.7707 24.27 65.844 24.6687 66.672 25.466C67.5307 26.2327 67.96 27.2447 67.96 28.502C67.96 29.7287 67.5307 30.7253 66.672 31.492C65.844 32.228 64.7707 32.596 63.452 32.596ZM88.7801 59.552C86.7561 59.552 84.7474 59.2147 82.7541 58.54C80.7607 57.8347 79.0434 57.0067 77.6021 56.056L80.5001 51.824C81.8801 52.7133 83.3367 53.388 84.8701 53.848C86.4341 54.308 88.0441 54.538 89.7001 54.538C90.9574 54.538 91.8774 54.354 92.4601 53.986C93.0427 53.5873 93.3341 53.1273 93.3341 52.606C93.3341 52.2687 93.2421 51.9927 93.0581 51.778C92.9047 51.5327 92.6134 51.318 92.1841 51.134C91.7854 50.9193 91.2181 50.72 90.4821 50.536C89.7767 50.352 88.8567 50.1373 87.7221 49.892C84.6247 49.2173 82.4014 48.2973 81.0521 47.132C79.7027 45.9667 79.0281 44.51 79.0281 42.762C79.0281 40.6153 79.9634 38.898 81.8341 37.61C83.7047 36.2913 86.2654 35.632 89.5161 35.632C91.5707 35.632 93.4261 35.9693 95.0821 36.644C96.7687 37.288 98.2101 37.9933 99.4061 38.76L96.3701 42.808C95.2354 42.1027 94.0241 41.566 92.7361 41.198C91.4481 40.83 90.1754 40.646 88.9181 40.646C88.2127 40.646 87.6301 40.7227 87.1701 40.876C86.7101 40.9987 86.3574 41.2133 86.1121 41.52C85.8667 41.796 85.7441 42.1027 85.7441 42.44C85.7441 43.0533 86.1427 43.5133 86.9401 43.82C87.7374 44.096 89.1021 44.4487 91.0341 44.878C93.3647 45.3993 95.1894 45.9973 96.5081 46.672C97.8267 47.3467 98.7314 48.1287 99.2221 49.018C99.7434 49.8767 100.004 50.9347 100.004 52.192C100.004 53.572 99.5747 54.814 98.7161 55.918C97.8881 57.022 96.6307 57.9113 94.9441 58.586C93.2881 59.23 91.2334 59.552 88.7801 59.552ZM120.594 59.552C118.171 59.552 116.239 59.138 114.798 58.31C113.387 57.4513 112.36 56.2707 111.716 54.768C111.072 53.2653 110.75 51.5173 110.75 49.524V41.474H105.046V36.46L111.072 36.184L111.946 29.192H117.512V36.184H127.172V41.474H117.512V49.478C117.512 50.6127 117.681 51.5327 118.018 52.238C118.355 52.9433 118.877 53.4647 119.582 53.802C120.287 54.1087 121.192 54.262 122.296 54.262C123.185 54.262 123.998 54.1853 124.734 54.032C125.47 53.8787 126.175 53.6793 126.85 53.434L128.046 58.31C127.034 58.6167 125.915 58.8927 124.688 59.138C123.492 59.414 122.127 59.552 120.594 59.552ZM171.71 59.552C169.717 59.552 167.831 59.092 166.052 58.172C164.273 57.2213 162.832 55.8567 161.728 54.078C160.624 52.2687 160.072 50.1067 160.072 47.592C160.072 45.0773 160.624 42.9307 161.728 41.152C162.832 39.3427 164.273 37.978 166.052 37.058C167.831 36.1073 169.717 35.632 171.71 35.632C173.703 35.632 175.589 36.1073 177.368 37.058C179.147 37.978 180.588 39.3427 181.692 41.152C182.796 42.9307 183.348 45.0773 183.348 47.592C183.348 50.1067 182.796 52.2687 181.692 54.078C180.588 55.8567 179.147 57.2213 177.368 58.172C175.589 59.092 173.703 59.552 171.71 59.552ZM171.71 54.078C172.753 54.078 173.611 53.8173 174.286 53.296C174.991 52.7747 175.513 52.0233 175.85 51.042C176.218 50.0607 176.402 48.9107 176.402 47.592C176.402 46.2733 176.218 45.1233 175.85 44.142C175.513 43.1607 174.991 42.4093 174.286 41.888C173.611 41.3667 172.753 41.106 171.71 41.106C170.667 41.106 169.793 41.3667 169.088 41.888C168.413 42.4093 167.892 43.1607 167.524 44.142C167.187 45.1233 167.018 46.2733 167.018 47.592C167.018 48.9107 167.187 50.0607 167.524 51.042C167.892 52.0233 168.413 52.7747 169.088 53.296C169.793 53.8173 170.667 54.078 171.71 54.078ZM195.29 59V35.586C195.29 33.838 195.643 32.2587 196.348 30.848C197.084 29.4067 198.188 28.272 199.66 27.444C201.163 26.616 203.11 26.202 205.502 26.202C206.821 26.202 208.063 26.34 209.228 26.616C210.394 26.8613 211.452 27.1373 212.402 27.444L211.114 32.412C210.378 32.136 209.612 31.9213 208.814 31.768C208.048 31.6147 207.22 31.538 206.33 31.538C204.889 31.538 203.816 31.86 203.11 32.504C202.405 33.148 202.052 34.16 202.052 35.54V59H195.29ZM189.264 41.474V36.46L195.52 36.184H209.918V41.474H189.264ZM254.272 59.552C252.248 59.552 250.24 59.2147 248.246 58.54C246.253 57.8347 244.536 57.0067 243.094 56.056L245.992 51.824C247.372 52.7133 248.829 53.388 250.362 53.848C251.926 54.308 253.536 54.538 255.192 54.538C256.45 54.538 257.37 54.354 257.952 53.986C258.535 53.5873 258.826 53.1273 258.826 52.606C258.826 52.2687 258.734 51.9927 258.55 51.778C258.397 51.5327 258.106 51.318 257.676 51.134C257.278 50.9193 256.71 50.72 255.974 50.536C255.269 50.352 254.349 50.1373 253.214 49.892C250.117 49.2173 247.894 48.2973 246.544 47.132C245.195 45.9667 244.52 44.51 244.52 42.762C244.52 40.6153 245.456 38.898 247.326 37.61C249.197 36.2913 251.758 35.632 255.008 35.632C257.063 35.632 258.918 35.9693 260.574 36.644C262.261 37.288 263.702 37.9933 264.898 38.76L261.862 42.808C260.728 42.1027 259.516 41.566 258.228 41.198C256.94 40.83 255.668 40.646 254.41 40.646C253.705 40.646 253.122 40.7227 252.662 40.876C252.202 40.9987 251.85 41.2133 251.604 41.52C251.359 41.796 251.236 42.1027 251.236 42.44C251.236 43.0533 251.635 43.5133 252.432 43.82C253.23 44.096 254.594 44.4487 256.526 44.878C258.857 45.3993 260.682 45.9973 262 46.672C263.319 47.3467 264.224 48.1287 264.714 49.018C265.236 49.8767 265.496 50.9347 265.496 52.192C265.496 53.572 265.067 54.814 264.208 55.918C263.38 57.022 262.123 57.9113 260.436 58.586C258.78 59.23 256.726 59.552 254.272 59.552ZM282.038 59.552C280.045 59.552 278.159 59.092 276.38 58.172C274.602 57.2213 273.16 55.8567 272.056 54.078C270.952 52.2687 270.4 50.1067 270.4 47.592C270.4 45.0773 270.952 42.9307 272.056 41.152C273.16 39.3427 274.602 37.978 276.38 37.058C278.159 36.1073 280.045 35.632 282.038 35.632C284.032 35.632 285.918 36.1073 287.696 37.058C289.475 37.978 290.916 39.3427 292.02 41.152C293.124 42.9307 293.676 45.0773 293.676 47.592C293.676 50.1067 293.124 52.2687 292.02 54.078C290.916 55.8567 289.475 57.2213 287.696 58.172C285.918 59.092 284.032 59.552 282.038 59.552ZM282.038 54.078C283.081 54.078 283.94 53.8173 284.614 53.296C285.32 52.7747 285.841 52.0233 286.178 51.042C286.546 50.0607 286.73 48.9107 286.73 47.592C286.73 46.2733 286.546 45.1233 286.178 44.142C285.841 43.1607 285.32 42.4093 284.614 41.888C283.94 41.3667 283.081 41.106 282.038 41.106C280.996 41.106 280.122 41.3667 279.416 41.888C278.742 42.4093 278.22 43.1607 277.852 44.142C277.515 45.1233 277.346 46.2733 277.346 47.592C277.346 48.9107 277.515 50.0607 277.852 51.042C278.22 52.0233 278.742 52.7747 279.416 53.296C280.122 53.8173 280.996 54.078 282.038 54.078ZM297.43 59V36.184H302.536L302.996 38.99H303.18C303.61 38.07 304.208 37.288 304.974 36.644C305.741 35.9693 306.784 35.632 308.102 35.632C309.084 35.632 309.927 35.954 310.632 36.598C311.338 37.2113 311.813 38.1313 312.058 39.358C312.488 38.3153 313.101 37.4413 313.898 36.736C314.726 36 315.8 35.632 317.118 35.632C318.744 35.632 320.001 36.2913 320.89 37.61C321.78 38.9287 322.224 40.7227 322.224 42.992V59H315.784V43.452C315.784 42.072 315.37 41.382 314.542 41.382C314.113 41.382 313.73 41.566 313.392 41.934C313.086 42.2713 312.779 42.8233 312.472 43.59V59H307.182V43.452C307.182 42.7467 307.075 42.2253 306.86 41.888C306.646 41.5507 306.324 41.382 305.894 41.382C305.465 41.382 305.097 41.566 304.79 41.934C304.484 42.2713 304.177 42.8233 303.87 43.59V59H297.43ZM338.582 59.552C336.221 59.552 334.074 59.092 332.142 58.172C330.241 57.2213 328.723 55.8567 327.588 54.078C326.484 52.2687 325.932 50.1067 325.932 47.592C325.932 45.108 326.5 42.9767 327.634 41.198C328.769 39.3887 330.241 38.0087 332.05 37.058C333.86 36.1073 335.776 35.632 337.8 35.632C340.162 35.632 342.14 36.1227 343.734 37.104C345.329 38.0547 346.525 39.358 347.322 41.014C348.15 42.6393 348.564 44.4947 348.564 46.58C348.564 47.1933 348.518 47.7913 348.426 48.374C348.365 48.926 348.304 49.34 348.242 49.616H330.946V45.062H343.688L342.63 46.35C342.63 44.51 342.232 43.13 341.434 42.21C340.668 41.2593 339.533 40.784 338.03 40.784C336.926 40.784 335.96 41.0293 335.132 41.52C334.304 42.0107 333.66 42.762 333.2 43.774C332.74 44.786 332.51 46.0587 332.51 47.592C332.51 49.156 332.786 50.444 333.338 51.456C333.89 52.4373 334.688 53.1733 335.73 53.664C336.773 54.1547 338.03 54.4 339.502 54.4C340.545 54.4 341.526 54.262 342.446 53.986C343.397 53.71 344.378 53.3113 345.39 52.79L347.644 56.884C346.326 57.712 344.869 58.3713 343.274 58.862C341.68 59.322 340.116 59.552 338.582 59.552ZM392.366 59.552C390.373 59.552 388.487 59.092 386.708 58.172C384.93 57.2213 383.488 55.8567 382.384 54.078C381.28 52.2687 380.728 50.1067 380.728 47.592C380.728 45.0773 381.28 42.9307 382.384 41.152C383.488 39.3427 384.93 37.978 386.708 37.058C388.487 36.1073 390.373 35.632 392.366 35.632C394.36 35.632 396.246 36.1073 398.024 37.058C399.803 37.978 401.244 39.3427 402.348 41.152C403.452 42.9307 404.004 45.0773 404.004 47.592C404.004 50.1067 403.452 52.2687 402.348 54.078C401.244 55.8567 399.803 57.2213 398.024 58.172C396.246 59.092 394.36 59.552 392.366 59.552ZM392.366 54.078C393.409 54.078 394.268 53.8173 394.942 53.296C395.648 52.7747 396.169 52.0233 396.506 51.042C396.874 50.0607 397.058 48.9107 397.058 47.592C397.058 46.2733 396.874 45.1233 396.506 44.142C396.169 43.1607 395.648 42.4093 394.942 41.888C394.268 41.3667 393.409 41.106 392.366 41.106C391.324 41.106 390.45 41.3667 389.744 41.888C389.07 42.4093 388.548 43.1607 388.18 44.142C387.843 45.1233 387.674 46.2733 387.674 47.592C387.674 48.9107 387.843 50.0607 388.18 51.042C388.548 52.0233 389.07 52.7747 389.744 53.296C390.45 53.8173 391.324 54.078 392.366 54.078ZM415.946 59V35.586C415.946 33.838 416.299 32.2587 417.004 30.848C417.74 29.4067 418.844 28.272 420.316 27.444C421.819 26.616 423.766 26.202 426.158 26.202C427.477 26.202 428.719 26.34 429.884 26.616C431.05 26.8613 432.108 27.1373 433.058 27.444L431.77 32.412C431.034 32.136 430.268 31.9213 429.47 31.768C428.704 31.6147 427.876 31.538 426.986 31.538C425.545 31.538 424.472 31.86 423.766 32.504C423.061 33.148 422.708 34.16 422.708 35.54V59H415.946ZM409.92 41.474V36.46L416.176 36.184H430.574V41.474H409.92ZM462.923 59V36.184H468.029L468.489 38.99H468.673C469.102 38.07 469.7 37.288 470.467 36.644C471.233 35.9693 472.276 35.632 473.595 35.632C474.576 35.632 475.419 35.954 476.125 36.598C476.83 37.2113 477.305 38.1313 477.551 39.358C477.98 38.3153 478.593 37.4413 479.391 36.736C480.219 36 481.292 35.632 482.611 35.632C484.236 35.632 485.493 36.2913 486.383 37.61C487.272 38.9287 487.717 40.7227 487.717 42.992V59H481.277V43.452C481.277 42.072 480.863 41.382 480.035 41.382C479.605 41.382 479.222 41.566 478.885 41.934C478.578 42.2713 478.271 42.8233 477.965 43.59V59H472.675V43.452C472.675 42.7467 472.567 42.2253 472.353 41.888C472.138 41.5507 471.816 41.382 471.387 41.382C470.957 41.382 470.589 41.566 470.283 41.934C469.976 42.2713 469.669 42.8233 469.363 43.59V59H462.923ZM495.473 67.924C494.798 67.924 494.169 67.878 493.587 67.786C493.004 67.694 492.467 67.5867 491.977 67.464L493.173 62.312C493.479 62.404 493.786 62.4653 494.093 62.496C494.399 62.5573 494.691 62.588 494.967 62.588C496.285 62.588 497.313 62.2967 498.049 61.714C498.815 61.162 499.383 60.4567 499.751 59.598L500.211 58.402L490.321 36.184H497.037L500.855 45.982C501.284 47.0553 501.683 48.1747 502.051 49.34C502.419 50.4747 502.787 51.64 503.155 52.836H503.339C503.645 51.7013 503.983 50.5513 504.351 49.386C504.719 48.2207 505.071 47.086 505.409 45.982L508.767 36.184H515.161L506.145 59.23C505.439 61.1313 504.611 62.726 503.661 64.014C502.741 65.302 501.621 66.268 500.303 66.912C499.015 67.5867 497.405 67.924 495.473 67.924ZM547.371 67.464V36.184H552.891L553.397 38.484H553.535C554.485 37.656 555.543 36.9813 556.709 36.46C557.905 35.908 559.116 35.632 560.343 35.632C562.244 35.632 563.869 36.1073 565.219 37.058C566.599 38.0087 567.657 39.358 568.393 41.106C569.129 42.854 569.497 44.8933 569.497 47.224C569.497 49.8307 569.021 52.054 568.071 53.894C567.151 55.734 565.939 57.1447 564.437 58.126C562.934 59.0767 561.324 59.552 559.607 59.552C558.595 59.552 557.598 59.3373 556.617 58.908C555.666 58.4787 554.792 57.8653 553.995 57.068H553.811L554.133 60.794V67.464H547.371ZM558.043 54.032C558.901 54.032 559.668 53.802 560.343 53.342C561.017 52.882 561.554 52.1613 561.953 51.18C562.351 50.168 562.551 48.88 562.551 47.316C562.551 45.936 562.397 44.8013 562.091 43.912C561.784 42.992 561.324 42.302 560.711 41.842C560.128 41.382 559.346 41.152 558.365 41.152C557.629 41.152 556.908 41.3207 556.203 41.658C555.528 41.9647 554.838 42.5013 554.133 43.268V52.514C554.777 53.0353 555.436 53.4187 556.111 53.664C556.816 53.9093 557.46 54.032 558.043 54.032ZM576.977 59V36.184H582.497L583.049 41.152H583.187C584.321 39.2813 585.686 37.9013 587.281 37.012C588.906 36.092 590.623 35.632 592.433 35.632C593.445 35.632 594.257 35.7087 594.871 35.862C595.515 36.0153 596.174 36.2453 596.849 36.552L595.469 42.21C594.763 41.9953 594.119 41.842 593.537 41.75C592.985 41.6273 592.279 41.566 591.421 41.566C590.01 41.566 588.615 41.98 587.235 42.808C585.885 43.636 584.72 45.0773 583.739 47.132V59H576.977ZM613.023 59.552C611.029 59.552 609.143 59.092 607.365 58.172C605.586 57.2213 604.145 55.8567 603.041 54.078C601.937 52.2687 601.385 50.1067 601.385 47.592C601.385 45.0773 601.937 42.9307 603.041 41.152C604.145 39.3427 605.586 37.978 607.365 37.058C609.143 36.1073 611.029 35.632 613.023 35.632C615.016 35.632 616.902 36.1073 618.681 37.058C620.459 37.978 621.901 39.3427 623.005 41.152C624.109 42.9307 624.661 45.0773 624.661 47.592C624.661 50.1067 624.109 52.2687 623.005 54.078C621.901 55.8567 620.459 57.2213 618.681 58.172C616.902 59.092 615.016 59.552 613.023 59.552ZM613.023 54.078C614.065 54.078 614.924 53.8173 615.599 53.296C616.304 52.7747 616.825 52.0233 617.163 51.042C617.531 50.0607 617.715 48.9107 617.715 47.592C617.715 46.2733 617.531 45.1233 617.163 44.142C616.825 43.1607 616.304 42.4093 615.599 41.888C614.924 41.3667 614.065 41.106 613.023 41.106C611.98 41.106 611.106 41.3667 610.401 41.888C609.726 42.4093 609.205 43.1607 608.837 44.142C608.499 45.1233 608.331 46.2733 608.331 47.592C608.331 48.9107 608.499 50.0607 608.837 51.042C609.205 52.0233 609.726 52.7747 610.401 53.296C611.106 53.8173 611.98 54.078 613.023 54.078ZM635.775 68.016C634.364 68.016 633.076 67.8627 631.911 67.556C630.776 67.28 629.718 66.912 628.737 66.452L630.715 61.622C631.635 62.0207 632.463 62.2967 633.199 62.45C633.965 62.634 634.686 62.726 635.361 62.726C636.465 62.726 637.323 62.542 637.937 62.174C638.55 61.8367 638.979 61.3153 639.225 60.61C639.47 59.9047 639.593 59 639.593 57.896V41.474H630.393V36.184H646.355V57.62C646.355 59.0307 646.186 60.3493 645.849 61.576C645.511 62.8333 644.944 63.9373 644.147 64.888C643.349 65.8693 642.261 66.636 640.881 67.188C639.531 67.74 637.829 68.016 635.775 68.016ZM642.675 32.596C641.387 32.596 640.313 32.228 639.455 31.492C638.596 30.7253 638.167 29.7287 638.167 28.502C638.167 27.2447 638.596 26.2327 639.455 25.466C640.313 24.6687 641.387 24.27 642.675 24.27C643.993 24.27 645.067 24.6687 645.895 25.466C646.753 26.2327 647.183 27.2447 647.183 28.502C647.183 29.7287 646.753 30.7253 645.895 31.492C645.067 32.228 643.993 32.596 642.675 32.596ZM669.567 59.552C667.205 59.552 665.059 59.092 663.127 58.172C661.225 57.2213 659.707 55.8567 658.573 54.078C657.469 52.2687 656.917 50.1067 656.917 47.592C656.917 45.108 657.484 42.9767 658.619 41.198C659.753 39.3887 661.225 38.0087 663.035 37.058C664.844 36.1073 666.761 35.632 668.785 35.632C671.146 35.632 673.124 36.1227 674.719 37.104C676.313 38.0547 677.509 39.358 678.307 41.014C679.135 42.6393 679.549 44.4947 679.549 46.58C679.549 47.1933 679.503 47.7913 679.411 48.374C679.349 48.926 679.288 49.34 679.227 49.616H661.931V45.062H674.673L673.615 46.35C673.615 44.51 673.216 43.13 672.419 42.21C671.652 41.2593 670.517 40.784 669.015 40.784C667.911 40.784 666.945 41.0293 666.117 41.52C665.289 42.0107 664.645 42.762 664.185 43.774C663.725 44.786 663.495 46.0587 663.495 47.592C663.495 49.156 663.771 50.444 664.323 51.456C664.875 52.4373 665.672 53.1733 666.715 53.664C667.757 54.1547 669.015 54.4 670.487 54.4C671.529 54.4 672.511 54.262 673.431 53.986C674.381 53.71 675.363 53.3113 676.375 52.79L678.629 56.884C677.31 57.712 675.853 58.3713 674.259 58.862C672.664 59.322 671.1 59.552 669.567 59.552ZM697.747 59.552C695.355 59.552 693.193 59.092 691.261 58.172C689.359 57.2213 687.841 55.8567 686.707 54.078C685.603 52.2687 685.051 50.1067 685.051 47.592C685.051 45.0773 685.664 42.9307 686.891 41.152C688.117 39.3427 689.727 37.978 691.721 37.058C693.745 36.1073 695.922 35.632 698.253 35.632C700.062 35.632 701.703 35.9233 703.175 36.506C704.647 37.058 705.858 37.794 706.809 38.714L703.681 42.9C702.791 42.2867 701.933 41.842 701.105 41.566C700.307 41.2593 699.479 41.106 698.621 41.106C697.333 41.106 696.183 41.3667 695.171 41.888C694.159 42.4093 693.377 43.1607 692.825 44.142C692.273 45.1233 691.997 46.2733 691.997 47.592C691.997 48.9107 692.257 50.0607 692.779 51.042C693.331 52.0233 694.082 52.7747 695.033 53.296C696.014 53.8173 697.133 54.078 698.391 54.078C699.587 54.078 700.675 53.8633 701.657 53.434C702.669 53.0047 703.589 52.4987 704.417 51.916L707.131 56.194C705.781 57.3287 704.263 58.172 702.577 58.724C700.921 59.276 699.311 59.552 697.747 59.552ZM727.399 59.552C724.976 59.552 723.044 59.138 721.603 58.31C720.192 57.4513 719.165 56.2707 718.521 54.768C717.877 53.2653 717.555 51.5173 717.555 49.524V41.474H711.851V36.46L717.877 36.184L718.751 29.192H724.317V36.184H733.977V41.474H724.317V49.478C724.317 50.6127 724.485 51.5327 724.823 52.238C725.16 52.9433 725.681 53.4647 726.387 53.802C727.092 54.1087 727.997 54.262 729.101 54.262C729.99 54.262 730.803 54.1853 731.539 54.032C732.275 53.8787 732.98 53.6793 733.655 53.434L734.851 58.31C733.839 58.6167 732.719 58.8927 731.493 59.138C730.297 59.414 728.932 59.552 727.399 59.552ZM750.749 59.552C748.725 59.552 746.716 59.2147 744.723 58.54C742.729 57.8347 741.012 57.0067 739.571 56.056L742.469 51.824C743.849 52.7133 745.305 53.388 746.839 53.848C748.403 54.308 750.013 54.538 751.669 54.538C752.926 54.538 753.846 54.354 754.429 53.986C755.011 53.5873 755.303 53.1273 755.303 52.606C755.303 52.2687 755.211 51.9927 755.027 51.778C754.873 51.5327 754.582 51.318 754.153 51.134C753.754 50.9193 753.187 50.72 752.451 50.536C751.745 50.352 750.825 50.1373 749.691 49.892C746.593 49.2173 744.37 48.2973 743.021 47.132C741.671 45.9667 740.997 44.51 740.997 42.762C740.997 40.6153 741.932 38.898 743.803 37.61C745.673 36.2913 748.234 35.632 751.485 35.632C753.539 35.632 755.395 35.9693 757.051 36.644C758.737 37.288 760.179 37.9933 761.375 38.76L758.339 42.808C757.204 42.1027 755.993 41.566 754.705 41.198C753.417 40.83 752.144 40.646 750.887 40.646C750.181 40.646 749.599 40.7227 749.139 40.876C748.679 40.9987 748.326 41.2133 748.081 41.52C747.835 41.796 747.713 42.1027 747.713 42.44C747.713 43.0533 748.111 43.5133 748.909 43.82C749.706 44.096 751.071 44.4487 753.003 44.878C755.333 45.3993 757.158 45.9973 758.477 46.672C759.795 47.3467 760.7 48.1287 761.191 49.018C761.712 49.8767 761.973 50.9347 761.973 52.192C761.973 53.572 761.543 54.814 760.685 55.918C759.857 57.022 758.599 57.9113 756.913 58.586C755.257 59.23 753.202 59.552 750.749 59.552ZM778.515 44.694C776.951 44.694 775.663 44.1727 774.651 43.13C773.67 42.0873 773.179 40.8147 773.179 39.312C773.179 37.8093 773.67 36.5367 774.651 35.494C775.663 34.4207 776.951 33.884 778.515 33.884C780.11 33.884 781.398 34.4207 782.379 35.494C783.36 36.5367 783.851 37.8093 783.851 39.312C783.851 40.8147 783.36 42.0873 782.379 43.13C781.398 44.1727 780.11 44.694 778.515 44.694ZM778.515 59.552C776.951 59.552 775.663 59.0307 774.651 57.988C773.67 56.9453 773.179 55.6727 773.179 54.17C773.179 52.6673 773.67 51.3947 774.651 50.352C775.663 49.2787 776.951 48.742 778.515 48.742C780.11 48.742 781.398 49.2787 782.379 50.352C783.36 51.3947 783.851 52.6673 783.851 54.17C783.851 55.6727 783.36 56.9453 782.379 57.988C781.398 59.0307 780.11 59.552 778.515 59.552Z" fill="black"/>
<defs>
<filter id="filter0_d_31_654" x="16" y="89" width="308" height="228" filterUnits="userSpaceOnUse" color-interpolation-filters="sRGB">
<feFlood flood-opacity="0" result="BackgroundImageFix"/>
<feColorMatrix in="SourceAlpha" type="matrix" values="0 0 0 0 0 0 0 0 0 0 0 0 0 0 0 0 0 0 127 0" result="hardAlpha"/>
<feOffset dy="4"/>
<feGaussianBlur stdDeviation="2"/>
<feComposite in2="hardAlpha" operator="out"/>
<feColorMatrix type="matrix" values="0 0 0 0 0 0 0 0 0 0 0 0 0 0 0 0 0 0 0.25 0"/>
<feBlend mode="normal" in2="BackgroundImageFix" result="effect1_dropShadow_31_654"/>
<feBlend mode="normal" in="SourceGraphic" in2="effect1_dropShadow_31_654" result="shape"/>
</filter>
<filter id="filter1_d_31_654" x="346" y="329" width="308" height="228" filterUnits="userSpaceOnUse" color-interpolation-filters="sRGB">
<feFlood flood-opacity="0" result="BackgroundImageFix"/>
<feColorMatrix in="SourceAlpha" type="matrix" values="0 0 0 0 0 0 0 0 0 0 0 0 0 0 0 0 0 0 127 0" result="hardAlpha"/>
<feOffset dy="4"/>
<feGaussianBlur stdDeviation="2"/>
<feComposite in2="hardAlpha" operator="out"/>
<feColorMatrix type="matrix" values="0 0 0 0 0 0 0 0 0 0 0 0 0 0 0 0 0 0 0.25 0"/>
<feBlend mode="normal" in2="BackgroundImageFix" result="effect1_dropShadow_31_654"/>
<feBlend mode="normal" in="SourceGraphic" in2="effect1_dropShadow_31_654" result="shape"/>
</filter>
<filter id="filter2_d_31_654" x="16" y="329" width="308" height="228" filterUnits="userSpaceOnUse" color-interpolation-filters="sRGB">
<feFlood flood-opacity="0" result="BackgroundImageFix"/>
<feColorMatrix in="SourceAlpha" type="matrix" values="0 0 0 0 0 0 0 0 0 0 0 0 0 0 0 0 0 0 127 0" result="hardAlpha"/>
<feOffset dy="4"/>
<feGaussianBlur stdDeviation="2"/>
<feComposite in2="hardAlpha" operator="out"/>
<feColorMatrix type="matrix" values="0 0 0 0 0 0 0 0 0 0 0 0 0 0 0 0 0 0 0.25 0"/>
<feBlend mode="normal" in2="BackgroundImageFix" result="effect1_dropShadow_31_654"/>
<feBlend mode="normal" in="SourceGraphic" in2="effect1_dropShadow_31_654" result="shape"/>
</filter>
<filter id="filter3_d_31_654" x="346" y="89" width="308" height="228" filterUnits="userSpaceOnUse" color-interpolation-filters="sRGB">
<feFlood flood-opacity="0" result="BackgroundImageFix"/>
<feColorMatrix in="SourceAlpha" type="matrix" values="0 0 0 0 0 0 0 0 0 0 0 0 0 0 0 0 0 0 127 0" result="hardAlpha"/>
<feOffset dy="4"/>
<feGaussianBlur stdDeviation="2"/>
<feComposite in2="hardAlpha" operator="out"/>
<feColorMatrix type="matrix" values="0 0 0 0 0 0 0 0 0 0 0 0 0 0 0 0 0 0 0.25 0"/>
<feBlend mode="normal" in2="BackgroundImageFix" result="effect1_dropShadow_31_654"/>
<feBlend mode="normal" in="SourceGraphic" in2="effect1_dropShadow_31_654" result="shape"/>
</filter>
<filter id="filter4_d_31_654" x="676" y="329" width="308" height="228" filterUnits="userSpaceOnUse" color-interpolation-filters="sRGB">
<feFlood flood-opacity="0" result="BackgroundImageFix"/>
<feColorMatrix in="SourceAlpha" type="matrix" values="0 0 0 0 0 0 0 0 0 0 0 0 0 0 0 0 0 0 127 0" result="hardAlpha"/>
<feOffset dy="4"/>
<feGaussianBlur stdDeviation="2"/>
<feComposite in2="hardAlpha" operator="out"/>
<feColorMatrix type="matrix" values="0 0 0 0 0 0 0 0 0 0 0 0 0 0 0 0 0 0 0.25 0"/>
<feBlend mode="normal" in2="BackgroundImageFix" result="effect1_dropShadow_31_654"/>
<feBlend mode="normal" in="SourceGraphic" in2="effect1_dropShadow_31_654" result="shape"/>
</filter>
<filter id="filter5_d_31_654" x="676" y="89" width="308" height="228" filterUnits="userSpaceOnUse" color-interpolation-filters="sRGB">
<feFlood flood-opacity="0" result="BackgroundImageFix"/>
<feColorMatrix in="SourceAlpha" type="matrix" values="0 0 0 0 0 0 0 0 0 0 0 0 0 0 0 0 0 0 127 0" result="hardAlpha"/>
<feOffset dy="4"/>
<feGaussianBlur stdDeviation="2"/>
<feComposite in2="hardAlpha" operator="out"/>
<feColorMatrix type="matrix" values="0 0 0 0 0 0 0 0 0 0 0 0 0 0 0 0 0 0 0.25 0"/>
<feBlend mode="normal" in2="BackgroundImageFix" result="effect1_dropShadow_31_654"/>
<feBlend mode="normal" in="SourceGraphic" in2="effect1_dropShadow_31_654" result="shape"/>
</filter>
</defs>
</svg>
