<svg width="1000" height="500" viewBox="0 0 1000 500" fill="none" xmlns="http://www.w3.org/2000/svg">
<rect width="1000" height="500" fill="white"/>
<rect y="94" width="50" height="344" fill="#FFE797"/>
<line x1="550" y1="151.5" x2="904" y2="151.5" stroke="black" stroke-width="3"/>
<path d="M558.592 121.212C559.672 121.212 560.576 121.348 561.304 121.62C562.032 121.892 562.724 122.292 563.38 122.82L562.216 124.176C561.696 123.736 561.144 123.424 560.56 123.24C559.984 123.048 559.38 122.952 558.748 122.952C557.844 122.952 557.008 123.168 556.24 123.6C555.472 124.024 554.852 124.732 554.38 125.724C553.916 126.708 553.684 128.044 553.684 129.732C553.684 131.372 553.904 132.688 554.344 133.68C554.792 134.672 555.396 135.388 556.156 135.828C556.916 136.268 557.764 136.488 558.7 136.488C559.628 136.488 560.388 136.348 560.98 136.068C561.58 135.788 562.1 135.468 562.54 135.108L563.62 136.476C563.116 136.964 562.46 137.388 561.652 137.748C560.844 138.1 559.852 138.276 558.676 138.276C557.34 138.276 556.128 137.948 555.04 137.292C553.96 136.636 553.104 135.676 552.472 134.412C551.84 133.14 551.524 131.58 551.524 129.732C551.524 127.876 551.844 126.316 552.484 125.052C553.132 123.788 553.992 122.832 555.064 122.184C556.144 121.536 557.32 121.212 558.592 121.212ZM577.267 133.428C577.267 134.372 577.031 135.212 576.559 135.948C576.087 136.676 575.403 137.248 574.507 137.664C573.611 138.072 572.519 138.276 571.231 138.276C570.023 138.276 568.927 138.092 567.943 137.724C566.967 137.356 566.131 136.836 565.435 136.164L566.671 134.772C567.247 135.308 567.907 135.736 568.651 136.056C569.395 136.368 570.267 136.524 571.267 136.524C571.939 136.524 572.567 136.416 573.151 136.2C573.735 135.976 574.207 135.64 574.567 135.192C574.927 134.736 575.107 134.16 575.107 133.464C575.107 132.928 575.003 132.472 574.795 132.096C574.587 131.72 574.219 131.388 573.691 131.1C573.163 130.804 572.427 130.516 571.483 130.236C570.395 129.916 569.451 129.556 568.651 129.156C567.859 128.748 567.243 128.248 566.803 127.656C566.371 127.064 566.155 126.332 566.155 125.46C566.155 124.636 566.383 123.904 566.839 123.264C567.295 122.624 567.923 122.124 568.723 121.764C569.531 121.396 570.459 121.212 571.507 121.212C572.651 121.212 573.643 121.376 574.483 121.704C575.331 122.024 576.099 122.488 576.787 123.096L575.563 124.452C574.971 123.924 574.335 123.544 573.655 123.312C572.975 123.072 572.283 122.952 571.579 122.952C570.979 122.952 570.427 123.044 569.923 123.228C569.427 123.404 569.027 123.672 568.723 124.032C568.427 124.384 568.279 124.836 568.279 125.388C568.279 125.86 568.407 126.268 568.663 126.612C568.919 126.956 569.351 127.272 569.959 127.56C570.567 127.84 571.395 128.136 572.443 128.448C573.299 128.696 574.091 129.008 574.819 129.384C575.555 129.752 576.147 130.256 576.595 130.896C577.043 131.528 577.267 132.372 577.267 133.428ZM591.657 133.428C591.657 134.372 591.421 135.212 590.949 135.948C590.477 136.676 589.793 137.248 588.897 137.664C588.001 138.072 586.909 138.276 585.621 138.276C584.413 138.276 583.317 138.092 582.333 137.724C581.357 137.356 580.521 136.836 579.825 136.164L581.061 134.772C581.637 135.308 582.297 135.736 583.041 136.056C583.785 136.368 584.657 136.524 585.657 136.524C586.329 136.524 586.957 136.416 587.541 136.2C588.125 135.976 588.597 135.64 588.957 135.192C589.317 134.736 589.497 134.16 589.497 133.464C589.497 132.928 589.393 132.472 589.185 132.096C588.977 131.72 588.609 131.388 588.081 131.1C587.553 130.804 586.817 130.516 585.873 130.236C584.785 129.916 583.841 129.556 583.041 129.156C582.249 128.748 581.633 128.248 581.193 127.656C580.761 127.064 580.545 126.332 580.545 125.46C580.545 124.636 580.773 123.904 581.229 123.264C581.685 122.624 582.313 122.124 583.113 121.764C583.921 121.396 584.849 121.212 585.897 121.212C587.041 121.212 588.033 121.376 588.873 121.704C589.721 122.024 590.489 122.488 591.177 123.096L589.953 124.452C589.361 123.924 588.725 123.544 588.045 123.312C587.365 123.072 586.673 122.952 585.969 122.952C585.369 122.952 584.817 123.044 584.313 123.228C583.817 123.404 583.417 123.672 583.113 124.032C582.817 124.384 582.669 124.836 582.669 125.388C582.669 125.86 582.797 126.268 583.053 126.612C583.309 126.956 583.741 127.272 584.349 127.56C584.957 127.84 585.785 128.136 586.833 128.448C587.689 128.696 588.481 129.008 589.209 129.384C589.945 129.752 590.537 130.256 590.985 130.896C591.433 131.528 591.657 132.372 591.657 133.428Z" fill="black"/>
<line x1="550" y1="391.5" x2="904" y2="391.5" stroke="black" stroke-width="3"/>
<path d="M553.252 378V361.476H555.34V376.14H562.876L562.636 378H553.252ZM568.387 372.396C568.427 373.372 568.615 374.172 568.951 374.796C569.287 375.412 569.731 375.868 570.283 376.164C570.835 376.452 571.435 376.596 572.083 376.596C572.731 376.596 573.315 376.5 573.835 376.308C574.363 376.116 574.903 375.832 575.455 375.456L576.403 376.788C575.811 377.252 575.135 377.616 574.375 377.88C573.623 378.144 572.851 378.276 572.059 378.276C570.835 378.276 569.791 378 568.927 377.448C568.063 376.896 567.403 376.128 566.947 375.144C566.499 374.152 566.275 373.004 566.275 371.7C566.275 370.42 566.503 369.284 566.959 368.292C567.415 367.3 568.055 366.52 568.879 365.952C569.703 365.384 570.675 365.1 571.795 365.1C572.859 365.1 573.775 365.352 574.543 365.856C575.311 366.352 575.899 367.064 576.307 367.992C576.723 368.912 576.931 370.012 576.931 371.292C576.931 371.508 576.927 371.712 576.919 371.904C576.911 372.088 576.899 372.252 576.883 372.396H568.387ZM571.819 366.756C570.883 366.756 570.099 367.088 569.467 367.752C568.843 368.416 568.487 369.444 568.399 370.836H574.987C574.963 369.484 574.667 368.468 574.099 367.788C573.531 367.1 572.771 366.756 571.819 366.756ZM601.236 365.1C602.356 365.1 603.248 365.372 603.912 365.916C604.584 366.46 605.068 367.228 605.364 368.22C605.66 369.204 605.808 370.356 605.808 371.676C605.808 372.948 605.628 374.084 605.268 375.084C604.916 376.076 604.38 376.856 603.66 377.424C602.94 377.992 602.032 378.276 600.936 378.276C599.552 378.276 598.44 377.788 597.6 376.812V382.836L595.584 383.088V365.364H597.3L597.468 367.128C597.932 366.48 598.484 365.98 599.124 365.628C599.772 365.276 600.476 365.1 601.236 365.1ZM600.756 366.72C600.06 366.72 599.444 366.932 598.908 367.356C598.38 367.772 597.944 368.236 597.6 368.748V375.012C597.928 375.5 598.34 375.888 598.836 376.176C599.34 376.456 599.892 376.596 600.492 376.596C601.54 376.596 602.328 376.196 602.856 375.396C603.384 374.596 603.648 373.352 603.648 371.664C603.648 370.56 603.544 369.644 603.336 368.916C603.128 368.18 602.812 367.632 602.388 367.272C601.964 366.904 601.42 366.72 600.756 366.72ZM614.895 360.276V374.88C614.895 375.504 615.087 375.948 615.471 376.212C615.863 376.468 616.367 376.596 616.983 376.596C617.367 376.596 617.731 376.556 618.075 376.476C618.419 376.396 618.763 376.288 619.107 376.152L619.647 377.628C619.303 377.796 618.875 377.944 618.363 378.072C617.859 378.208 617.287 378.276 616.647 378.276C615.527 378.276 614.619 377.968 613.923 377.352C613.227 376.728 612.879 375.868 612.879 374.772V361.872H609.003V360.276H614.895ZM626.381 365.364V374.316C626.381 375.148 626.553 375.748 626.897 376.116C627.241 376.484 627.777 376.668 628.505 376.668C629.201 376.668 629.857 376.472 630.473 376.08C631.097 375.68 631.581 375.208 631.925 374.664V365.364H633.941V378H632.225L632.057 376.296C631.561 376.936 630.949 377.428 630.221 377.772C629.493 378.108 628.757 378.276 628.013 378.276C626.789 378.276 625.873 377.952 625.265 377.304C624.665 376.648 624.365 375.732 624.365 374.556V365.364H626.381ZM643.052 376.608C644.02 376.608 644.784 376.428 645.344 376.068C645.912 375.7 646.196 375.212 646.196 374.604C646.196 374.22 646.124 373.888 645.98 373.608C645.844 373.328 645.56 373.076 645.128 372.852C644.696 372.628 644.032 372.404 643.136 372.18C642.264 371.964 641.504 371.716 640.856 371.436C640.216 371.148 639.716 370.776 639.356 370.32C639.004 369.864 638.828 369.272 638.828 368.544C638.828 367.832 639.028 367.22 639.428 366.708C639.836 366.188 640.4 365.792 641.12 365.52C641.84 365.24 642.676 365.1 643.628 365.1C644.644 365.1 645.528 365.236 646.28 365.508C647.04 365.772 647.684 366.1 648.212 366.492L647.324 367.86C646.844 367.532 646.316 367.264 645.74 367.056C645.164 366.84 644.468 366.732 643.652 366.732C642.66 366.732 641.956 366.888 641.54 367.2C641.124 367.504 640.916 367.9 640.916 368.388C640.916 368.756 641.016 369.064 641.216 369.312C641.424 369.552 641.772 369.772 642.26 369.972C642.748 370.164 643.42 370.376 644.276 370.608C645.1 370.824 645.816 371.084 646.424 371.388C647.04 371.692 647.52 372.092 647.864 372.588C648.208 373.084 648.38 373.724 648.38 374.508C648.38 375.404 648.124 376.132 647.612 376.692C647.1 377.244 646.436 377.648 645.62 377.904C644.812 378.152 643.956 378.276 643.052 378.276C641.908 378.276 640.932 378.112 640.124 377.784C639.324 377.448 638.652 377.044 638.108 376.572L639.26 375.24C639.756 375.648 640.324 375.98 640.964 376.236C641.612 376.484 642.308 376.608 643.052 376.608ZM675.001 360.024C675.681 360.024 676.297 360.084 676.849 360.204C677.401 360.324 677.925 360.492 678.421 360.708L677.773 362.208C677.365 362.032 676.933 361.9 676.477 361.812C676.021 361.724 675.549 361.68 675.061 361.68C674.181 361.68 673.517 361.852 673.069 362.196C672.629 362.54 672.409 363.068 672.409 363.78V366.348H676.693L676.477 367.932H672.409V378H670.393V367.932H667.381V366.348H670.393V363.828C670.393 363.044 670.593 362.368 670.993 361.8C671.401 361.232 671.953 360.796 672.649 360.492C673.345 360.18 674.129 360.024 675.001 360.024ZM686.74 365.1C687.932 365.1 688.928 365.372 689.728 365.916C690.536 366.452 691.14 367.212 691.54 368.196C691.948 369.18 692.152 370.34 692.152 371.676C692.152 372.964 691.944 374.104 691.528 375.096C691.112 376.088 690.5 376.868 689.692 377.436C688.892 377.996 687.9 378.276 686.716 378.276C685.532 378.276 684.536 378.004 683.728 377.46C682.92 376.916 682.308 376.152 681.892 375.168C681.484 374.176 681.28 373.02 681.28 371.7C681.28 370.396 681.488 369.248 681.904 368.256C682.32 367.264 682.932 366.492 683.74 365.94C684.556 365.38 685.556 365.1 686.74 365.1ZM686.74 366.744C685.652 366.744 684.828 367.148 684.268 367.956C683.716 368.756 683.44 370.004 683.44 371.7C683.44 373.364 683.712 374.6 684.256 375.408C684.808 376.216 685.628 376.62 686.716 376.62C687.804 376.62 688.62 376.216 689.164 375.408C689.716 374.6 689.992 373.356 689.992 371.676C689.992 369.996 689.72 368.756 689.176 367.956C688.632 367.148 687.82 366.744 686.74 366.744ZM696.438 378V376.452H698.406V366.912H696.438V365.364H699.942L700.314 368.352C700.802 367.312 701.394 366.508 702.09 365.94C702.786 365.372 703.706 365.088 704.85 365.088C705.202 365.088 705.514 365.116 705.786 365.172C706.066 365.22 706.35 365.284 706.638 365.364L706.05 367.164C705.786 367.092 705.546 367.04 705.33 367.008C705.114 366.968 704.866 366.948 704.586 366.948C703.618 366.948 702.786 367.292 702.09 367.98C701.394 368.668 700.838 369.708 700.422 371.1V376.452H702.99V378H696.438ZM704.694 369.636V366.888L704.898 365.364H706.638L706.35 369.636H704.694ZM720.741 377.364C720.309 377.652 719.785 377.876 719.169 378.036C718.553 378.196 717.949 378.276 717.357 378.276C715.997 378.276 714.949 377.92 714.213 377.208C713.477 376.496 713.109 375.58 713.109 374.46V366.924H710.205V365.364H713.109V362.496L715.125 362.256V365.364H719.493L719.253 366.924H715.125V374.436C715.125 375.14 715.309 375.676 715.677 376.044C716.053 376.412 716.673 376.596 717.537 376.596C718.009 376.596 718.445 376.54 718.845 376.428C719.245 376.316 719.617 376.172 719.961 375.996L720.741 377.364Z" fill="black"/>
<line x1="550" y1="311.5" x2="904" y2="311.5" stroke="black" stroke-width="3"/>
<path d="M553.252 298V281.476H555.34V296.14H562.876L562.636 298H553.252ZM568.387 292.396C568.427 293.372 568.615 294.172 568.951 294.796C569.287 295.412 569.731 295.868 570.283 296.164C570.835 296.452 571.435 296.596 572.083 296.596C572.731 296.596 573.315 296.5 573.835 296.308C574.363 296.116 574.903 295.832 575.455 295.456L576.403 296.788C575.811 297.252 575.135 297.616 574.375 297.88C573.623 298.144 572.851 298.276 572.059 298.276C570.835 298.276 569.791 298 568.927 297.448C568.063 296.896 567.403 296.128 566.947 295.144C566.499 294.152 566.275 293.004 566.275 291.7C566.275 290.42 566.503 289.284 566.959 288.292C567.415 287.3 568.055 286.52 568.879 285.952C569.703 285.384 570.675 285.1 571.795 285.1C572.859 285.1 573.775 285.352 574.543 285.856C575.311 286.352 575.899 287.064 576.307 287.992C576.723 288.912 576.931 290.012 576.931 291.292C576.931 291.508 576.927 291.712 576.919 291.904C576.911 292.088 576.899 292.252 576.883 292.396H568.387ZM571.819 286.756C570.883 286.756 570.099 287.088 569.467 287.752C568.843 288.416 568.487 289.444 568.399 290.836H574.987C574.963 289.484 574.667 288.468 574.099 287.788C573.531 287.1 572.771 286.756 571.819 286.756ZM601.236 285.1C602.356 285.1 603.248 285.372 603.912 285.916C604.584 286.46 605.068 287.228 605.364 288.22C605.66 289.204 605.808 290.356 605.808 291.676C605.808 292.948 605.628 294.084 605.268 295.084C604.916 296.076 604.38 296.856 603.66 297.424C602.94 297.992 602.032 298.276 600.936 298.276C599.552 298.276 598.44 297.788 597.6 296.812V302.836L595.584 303.088V285.364H597.3L597.468 287.128C597.932 286.48 598.484 285.98 599.124 285.628C599.772 285.276 600.476 285.1 601.236 285.1ZM600.756 286.72C600.06 286.72 599.444 286.932 598.908 287.356C598.38 287.772 597.944 288.236 597.6 288.748V295.012C597.928 295.5 598.34 295.888 598.836 296.176C599.34 296.456 599.892 296.596 600.492 296.596C601.54 296.596 602.328 296.196 602.856 295.396C603.384 294.596 603.648 293.352 603.648 291.664C603.648 290.56 603.544 289.644 603.336 288.916C603.128 288.18 602.812 287.632 602.388 287.272C601.964 286.904 601.42 286.72 600.756 286.72ZM614.895 280.276V294.88C614.895 295.504 615.087 295.948 615.471 296.212C615.863 296.468 616.367 296.596 616.983 296.596C617.367 296.596 617.731 296.556 618.075 296.476C618.419 296.396 618.763 296.288 619.107 296.152L619.647 297.628C619.303 297.796 618.875 297.944 618.363 298.072C617.859 298.208 617.287 298.276 616.647 298.276C615.527 298.276 614.619 297.968 613.923 297.352C613.227 296.728 612.879 295.868 612.879 294.772V281.872H609.003V280.276H614.895ZM626.381 285.364V294.316C626.381 295.148 626.553 295.748 626.897 296.116C627.241 296.484 627.777 296.668 628.505 296.668C629.201 296.668 629.857 296.472 630.473 296.08C631.097 295.68 631.581 295.208 631.925 294.664V285.364H633.941V298H632.225L632.057 296.296C631.561 296.936 630.949 297.428 630.221 297.772C629.493 298.108 628.757 298.276 628.013 298.276C626.789 298.276 625.873 297.952 625.265 297.304C624.665 296.648 624.365 295.732 624.365 294.556V285.364H626.381ZM643.052 296.608C644.02 296.608 644.784 296.428 645.344 296.068C645.912 295.7 646.196 295.212 646.196 294.604C646.196 294.22 646.124 293.888 645.98 293.608C645.844 293.328 645.56 293.076 645.128 292.852C644.696 292.628 644.032 292.404 643.136 292.18C642.264 291.964 641.504 291.716 640.856 291.436C640.216 291.148 639.716 290.776 639.356 290.32C639.004 289.864 638.828 289.272 638.828 288.544C638.828 287.832 639.028 287.22 639.428 286.708C639.836 286.188 640.4 285.792 641.12 285.52C641.84 285.24 642.676 285.1 643.628 285.1C644.644 285.1 645.528 285.236 646.28 285.508C647.04 285.772 647.684 286.1 648.212 286.492L647.324 287.86C646.844 287.532 646.316 287.264 645.74 287.056C645.164 286.84 644.468 286.732 643.652 286.732C642.66 286.732 641.956 286.888 641.54 287.2C641.124 287.504 640.916 287.9 640.916 288.388C640.916 288.756 641.016 289.064 641.216 289.312C641.424 289.552 641.772 289.772 642.26 289.972C642.748 290.164 643.42 290.376 644.276 290.608C645.1 290.824 645.816 291.084 646.424 291.388C647.04 291.692 647.52 292.092 647.864 292.588C648.208 293.084 648.38 293.724 648.38 294.508C648.38 295.404 648.124 296.132 647.612 296.692C647.1 297.244 646.436 297.648 645.62 297.904C644.812 298.152 643.956 298.276 643.052 298.276C641.908 298.276 640.932 298.112 640.124 297.784C639.324 297.448 638.652 297.044 638.108 296.572L639.26 295.24C639.756 295.648 640.324 295.98 640.964 296.236C641.612 296.484 642.308 296.608 643.052 296.608ZM669.553 287.008C670.017 286.4 670.549 285.932 671.149 285.604C671.757 285.268 672.425 285.1 673.153 285.1C674.281 285.1 675.193 285.372 675.889 285.916C676.585 286.46 677.093 287.228 677.413 288.22C677.733 289.204 677.893 290.356 677.893 291.676C677.893 292.948 677.701 294.084 677.317 295.084C676.933 296.076 676.369 296.856 675.625 297.424C674.889 297.992 673.977 298.276 672.889 298.276C671.425 298.276 670.277 297.748 669.445 296.692L669.301 298H667.537V280.276L669.553 280.024V287.008ZM672.409 296.644C673.465 296.644 674.277 296.236 674.845 295.42C675.413 294.604 675.697 293.352 675.697 291.664C675.697 290.56 675.585 289.644 675.361 288.916C675.137 288.18 674.801 287.632 674.353 287.272C673.913 286.904 673.369 286.72 672.721 286.72C672.017 286.72 671.397 286.932 670.861 287.356C670.333 287.772 669.897 288.236 669.553 288.748V295.012C669.881 295.508 670.293 295.904 670.789 296.2C671.293 296.496 671.833 296.644 672.409 296.644ZM683.512 292.396C683.552 293.372 683.74 294.172 684.076 294.796C684.412 295.412 684.856 295.868 685.408 296.164C685.96 296.452 686.56 296.596 687.208 296.596C687.856 296.596 688.44 296.5 688.96 296.308C689.488 296.116 690.028 295.832 690.58 295.456L691.528 296.788C690.936 297.252 690.26 297.616 689.5 297.88C688.748 298.144 687.976 298.276 687.184 298.276C685.96 298.276 684.916 298 684.052 297.448C683.188 296.896 682.528 296.128 682.072 295.144C681.624 294.152 681.4 293.004 681.4 291.7C681.4 290.42 681.628 289.284 682.084 288.292C682.54 287.3 683.18 286.52 684.004 285.952C684.828 285.384 685.8 285.1 686.92 285.1C687.984 285.1 688.9 285.352 689.668 285.856C690.436 286.352 691.024 287.064 691.432 287.992C691.848 288.912 692.056 290.012 692.056 291.292C692.056 291.508 692.052 291.712 692.044 291.904C692.036 292.088 692.024 292.252 692.008 292.396H683.512ZM686.944 286.756C686.008 286.756 685.224 287.088 684.592 287.752C683.968 288.416 683.612 289.444 683.524 290.836H690.112C690.088 289.484 689.792 288.468 689.224 287.788C688.656 287.1 687.896 286.756 686.944 286.756ZM705.366 295.24C705.366 295.744 705.45 296.112 705.618 296.344C705.786 296.576 706.046 296.748 706.398 296.86L705.906 298.276C705.362 298.204 704.886 298.032 704.478 297.76C704.07 297.48 703.774 297.06 703.59 296.5C703.134 297.084 702.566 297.528 701.886 297.832C701.206 298.128 700.454 298.276 699.63 298.276C698.366 298.276 697.37 297.92 696.642 297.208C695.914 296.496 695.55 295.552 695.55 294.376C695.55 293.072 696.058 292.072 697.074 291.376C698.09 290.68 699.558 290.332 701.478 290.332H703.338V289.276C703.338 288.364 703.07 287.72 702.534 287.344C702.006 286.96 701.27 286.768 700.326 286.768C699.91 286.768 699.422 286.82 698.862 286.924C698.302 287.02 697.694 287.184 697.038 287.416L696.51 285.892C697.286 285.604 698.014 285.4 698.694 285.28C699.374 285.16 700.022 285.1 700.638 285.1C702.214 285.1 703.394 285.468 704.178 286.204C704.97 286.932 705.366 287.924 705.366 289.18V295.24ZM700.146 296.74C700.77 296.74 701.366 296.584 701.934 296.272C702.502 295.952 702.97 295.512 703.338 294.952V291.7H701.514C700.122 291.7 699.138 291.94 698.562 292.42C697.994 292.9 697.71 293.544 697.71 294.352C697.71 295.136 697.91 295.732 698.31 296.14C698.718 296.54 699.33 296.74 700.146 296.74ZM712.725 285.364V294.316C712.725 295.148 712.897 295.748 713.241 296.116C713.585 296.484 714.121 296.668 714.849 296.668C715.545 296.668 716.201 296.472 716.817 296.08C717.441 295.68 717.925 295.208 718.269 294.664V285.364H720.285V298H718.569L718.401 296.296C717.905 296.936 717.293 297.428 716.565 297.772C715.837 298.108 715.101 298.276 714.357 298.276C713.133 298.276 712.217 297.952 711.609 297.304C711.009 296.648 710.709 295.732 710.709 294.556V285.364H712.725Z" fill="black"/>
<line x1="550" y1="231.5" x2="904" y2="231.5" stroke="black" stroke-width="3"/>
<path d="M561.136 206.576C561.136 205.72 560.968 205.044 560.632 204.548C560.296 204.044 559.836 203.684 559.252 203.468C558.668 203.244 558 203.132 557.248 203.132H554.86V210.188H557.164C557.94 210.188 558.624 210.084 559.216 209.876C559.808 209.66 560.276 209.292 560.62 208.772C560.964 208.244 561.136 207.512 561.136 206.576ZM563.368 206.552C563.368 207.84 563.092 208.872 562.54 209.648C561.996 210.424 561.244 210.988 560.284 211.34C559.324 211.692 558.22 211.868 556.972 211.868H554.86V218H552.772V201.476H556.996C558.964 201.476 560.516 201.892 561.652 202.724C562.796 203.548 563.368 204.824 563.368 206.552ZM577.315 205.364L572.875 218.084C572.579 218.94 572.203 219.724 571.747 220.436C571.299 221.148 570.711 221.736 569.983 222.2C569.263 222.672 568.347 222.964 567.235 223.076L566.923 221.468C567.795 221.324 568.483 221.104 568.987 220.808C569.491 220.512 569.887 220.132 570.175 219.668C570.471 219.204 570.731 218.648 570.955 218H570.283L565.867 205.364H568.027L571.651 216.464L575.227 205.364H577.315ZM591.225 217.364C590.793 217.652 590.269 217.876 589.653 218.036C589.037 218.196 588.433 218.276 587.841 218.276C586.481 218.276 585.433 217.92 584.697 217.208C583.961 216.496 583.593 215.58 583.593 214.46V206.924H580.689V205.364H583.593V202.496L585.609 202.256V205.364H589.977L589.737 206.924H585.609V214.436C585.609 215.14 585.793 215.676 586.161 216.044C586.537 216.412 587.157 216.596 588.021 216.596C588.493 216.596 588.929 216.54 589.329 216.428C589.729 216.316 590.101 216.172 590.445 215.996L591.225 217.364ZM597.6 200.084V207.092C598.096 206.428 598.704 205.932 599.424 205.604C600.152 205.268 600.888 205.1 601.632 205.1C602.864 205.1 603.764 205.428 604.332 206.084C604.9 206.74 605.184 207.652 605.184 208.82V218H603.168V208.868C603.168 208.108 602.992 207.556 602.64 207.212C602.288 206.86 601.736 206.684 600.984 206.684C600.504 206.684 600.048 206.792 599.616 207.008C599.184 207.224 598.796 207.492 598.452 207.812C598.108 208.132 597.824 208.46 597.6 208.796V218H595.584V200.3L597.6 200.084ZM614.787 205.1C615.979 205.1 616.975 205.372 617.775 205.916C618.583 206.452 619.187 207.212 619.587 208.196C619.995 209.18 620.199 210.34 620.199 211.676C620.199 212.964 619.991 214.104 619.575 215.096C619.159 216.088 618.547 216.868 617.739 217.436C616.939 217.996 615.947 218.276 614.763 218.276C613.579 218.276 612.583 218.004 611.775 217.46C610.967 216.916 610.355 216.152 609.939 215.168C609.531 214.176 609.326 213.02 609.326 211.7C609.326 210.396 609.535 209.248 609.951 208.256C610.367 207.264 610.979 206.492 611.787 205.94C612.603 205.38 613.603 205.1 614.787 205.1ZM614.787 206.744C613.699 206.744 612.875 207.148 612.315 207.956C611.763 208.756 611.487 210.004 611.487 211.7C611.487 213.364 611.759 214.6 612.303 215.408C612.855 216.216 613.675 216.62 614.763 216.62C615.851 216.62 616.667 216.216 617.211 215.408C617.763 214.6 618.039 213.356 618.039 211.676C618.039 209.996 617.767 208.756 617.223 207.956C616.679 207.148 615.867 206.744 614.787 206.744ZM624.365 218V205.364H626.081L626.237 207.116C626.749 206.468 627.389 205.972 628.157 205.628C628.933 205.276 629.685 205.1 630.413 205.1C631.653 205.1 632.553 205.428 633.113 206.084C633.681 206.74 633.965 207.652 633.965 208.82V218H631.949V210.308C631.949 209.444 631.901 208.748 631.805 208.22C631.709 207.684 631.509 207.296 631.205 207.056C630.901 206.808 630.429 206.684 629.789 206.684C629.293 206.684 628.825 206.792 628.385 207.008C627.953 207.224 627.565 207.496 627.221 207.824C626.885 208.144 626.605 208.468 626.381 208.796V218H624.365Z" fill="black"/>
<line x1="154" y1="151.5" x2="508" y2="151.5" stroke="black" stroke-width="3"/>
<path d="M162.592 121.212C163.672 121.212 164.576 121.348 165.304 121.62C166.032 121.892 166.724 122.292 167.38 122.82L166.216 124.176C165.696 123.736 165.144 123.424 164.56 123.24C163.984 123.048 163.38 122.952 162.748 122.952C161.844 122.952 161.008 123.168 160.24 123.6C159.472 124.024 158.852 124.732 158.38 125.724C157.916 126.708 157.684 128.044 157.684 129.732C157.684 131.372 157.904 132.688 158.344 133.68C158.792 134.672 159.396 135.388 160.156 135.828C160.916 136.268 161.764 136.488 162.7 136.488C163.628 136.488 164.388 136.348 164.98 136.068C165.58 135.788 166.1 135.468 166.54 135.108L167.62 136.476C167.116 136.964 166.46 137.388 165.652 137.748C164.844 138.1 163.852 138.276 162.676 138.276C161.34 138.276 160.128 137.948 159.04 137.292C157.96 136.636 157.104 135.676 156.472 134.412C155.84 133.14 155.524 131.58 155.524 129.732C155.524 127.876 155.844 126.316 156.484 125.052C157.132 123.788 157.992 122.832 159.064 122.184C160.144 121.536 161.32 121.212 162.592 121.212ZM177.693 131.388V136.14H175.809V131.388H171.153V129.696H175.809V124.908H177.693V129.696H187.809V124.908H189.693V129.696H194.409V131.388H189.693V136.14H187.809V131.388H177.693Z" fill="black"/>
<line x1="154" y1="391.5" x2="508" y2="391.5" stroke="black" stroke-width="3"/>
<path d="M164.32 378V370.164H158.08V378H156.004V361.476H158.08V368.46H164.32V361.476H166.396V378H164.32ZM176.587 363.264V378H174.511V363.264H169.351V361.476H181.819L181.603 363.264H176.587ZM195.513 361.476L196.449 378H194.445L193.929 369.372C193.905 368.788 193.881 368.196 193.857 367.596C193.833 366.996 193.817 366.42 193.809 365.868C193.801 365.316 193.797 364.824 193.797 364.392C193.797 363.96 193.797 363.624 193.797 363.384L191.013 375.036H188.925L185.937 363.384C185.945 363.616 185.953 363.96 185.961 364.416C185.969 364.864 185.973 365.372 185.973 365.94C185.981 366.508 185.977 367.092 185.961 367.692C185.953 368.284 185.937 368.836 185.913 369.348L185.469 378H183.513L184.449 361.476H187.353L190.029 372.792L192.585 361.476H195.513ZM200.424 378V361.476H202.512V376.14H210.048L209.808 378H200.424Z" fill="black"/>
<line x1="154" y1="311.5" x2="508" y2="311.5" stroke="black" stroke-width="3"/>
<path d="M165.916 281.476V292.516C165.916 293.204 165.824 293.892 165.64 294.58C165.464 295.26 165.16 295.88 164.728 296.44C164.304 296.992 163.728 297.436 163 297.772C162.272 298.108 161.364 298.276 160.276 298.276C159.468 298.276 158.672 298.148 157.888 297.892C157.112 297.636 156.396 297.264 155.74 296.776L156.664 295.396C157.384 295.844 158.04 296.148 158.632 296.308C159.224 296.46 159.764 296.536 160.252 296.536C161.404 296.536 162.288 296.168 162.904 295.432C163.528 294.696 163.84 293.684 163.84 292.396V283.18H158.944V281.476H165.916ZM181.267 293.428C181.267 294.372 181.031 295.212 180.559 295.948C180.087 296.676 179.403 297.248 178.507 297.664C177.611 298.072 176.519 298.276 175.231 298.276C174.023 298.276 172.927 298.092 171.943 297.724C170.967 297.356 170.131 296.836 169.435 296.164L170.671 294.772C171.247 295.308 171.907 295.736 172.651 296.056C173.395 296.368 174.267 296.524 175.267 296.524C175.939 296.524 176.567 296.416 177.151 296.2C177.735 295.976 178.207 295.64 178.567 295.192C178.927 294.736 179.107 294.16 179.107 293.464C179.107 292.928 179.003 292.472 178.795 292.096C178.587 291.72 178.219 291.388 177.691 291.1C177.163 290.804 176.427 290.516 175.483 290.236C174.395 289.916 173.451 289.556 172.651 289.156C171.859 288.748 171.243 288.248 170.803 287.656C170.371 287.064 170.155 286.332 170.155 285.46C170.155 284.636 170.383 283.904 170.839 283.264C171.295 282.624 171.923 282.124 172.723 281.764C173.531 281.396 174.459 281.212 175.507 281.212C176.651 281.212 177.643 281.376 178.483 281.704C179.331 282.024 180.099 282.488 180.787 283.096L179.563 284.452C178.971 283.924 178.335 283.544 177.655 283.312C176.975 283.072 176.283 282.952 175.579 282.952C174.979 282.952 174.427 283.044 173.923 283.228C173.427 283.404 173.027 283.672 172.723 284.032C172.427 284.384 172.279 284.836 172.279 285.388C172.279 285.86 172.407 286.268 172.663 286.612C172.919 286.956 173.351 287.272 173.959 287.56C174.567 287.84 175.395 288.136 176.443 288.448C177.299 288.696 178.091 289.008 178.819 289.384C179.555 289.752 180.147 290.256 180.595 290.896C181.043 291.528 181.267 292.372 181.267 293.428Z" fill="black"/>
<line x1="154" y1="231.5" x2="508" y2="231.5" stroke="black" stroke-width="3"/>
<path d="M162.592 201.212C163.672 201.212 164.576 201.348 165.304 201.62C166.032 201.892 166.724 202.292 167.38 202.82L166.216 204.176C165.696 203.736 165.144 203.424 164.56 203.24C163.984 203.048 163.38 202.952 162.748 202.952C161.844 202.952 161.008 203.168 160.24 203.6C159.472 204.024 158.852 204.732 158.38 205.724C157.916 206.708 157.684 208.044 157.684 209.732C157.684 211.372 157.904 212.688 158.344 213.68C158.792 214.672 159.396 215.388 160.156 215.828C160.916 216.268 161.764 216.488 162.7 216.488C163.628 216.488 164.388 216.348 164.98 216.068C165.58 215.788 166.1 215.468 166.54 215.108L167.62 216.476C167.116 216.964 166.46 217.388 165.652 217.748C164.844 218.1 163.852 218.276 162.676 218.276C161.34 218.276 160.128 217.948 159.04 217.292C157.96 216.636 157.104 215.676 156.472 214.412C155.84 213.14 155.524 211.58 155.524 209.732C155.524 207.876 155.844 206.316 156.484 205.052C157.132 203.788 157.992 202.832 159.064 202.184C160.144 201.536 161.32 201.212 162.592 201.212Z" fill="black"/>
<path d="M27.668 61V31.008H34.752L37.696 41.634L38.708 45.774H38.892L39.904 41.634L42.848 31.008H49.932V61H44.228V51.708C44.228 50.88 44.2587 49.8527 44.32 48.626C44.3813 47.3687 44.458 46.0653 44.55 44.716C44.642 43.3667 44.734 42.0787 44.826 40.852C44.9487 39.6253 45.0407 38.6133 45.102 37.816H44.964L42.664 45.82L40.364 53.042H37.052L34.706 45.82L32.544 37.816H32.406C32.4673 38.6133 32.544 39.6253 32.636 40.852C32.7587 42.0787 32.866 43.3667 32.958 44.716C33.05 46.0653 33.1267 47.3687 33.188 48.626C33.2493 49.8527 33.28 50.88 33.28 51.708V61H27.668ZM67.762 61.552C65.4007 61.552 63.254 61.092 61.322 60.172C59.4207 59.2213 57.9027 57.8567 56.768 56.078C55.664 54.2687 55.112 52.1067 55.112 49.592C55.112 47.108 55.6794 44.9767 56.814 43.198C57.9487 41.3887 59.4207 40.0087 61.23 39.058C63.0394 38.1073 64.956 37.632 66.98 37.632C69.3414 37.632 71.3194 38.1227 72.914 39.104C74.5087 40.0547 75.7047 41.358 76.502 43.014C77.33 44.6393 77.744 46.4947 77.744 48.58C77.744 49.1933 77.698 49.7913 77.606 50.374C77.5447 50.926 77.4834 51.34 77.422 51.616H60.126V47.062H72.868L71.81 48.35C71.81 46.51 71.4114 45.13 70.614 44.21C69.8474 43.2593 68.7127 42.784 67.21 42.784C66.106 42.784 65.14 43.0293 64.312 43.52C63.484 44.0107 62.84 44.762 62.38 45.774C61.92 46.786 61.69 48.0587 61.69 49.592C61.69 51.156 61.966 52.444 62.518 53.456C63.07 54.4373 63.8674 55.1733 64.91 55.664C65.9527 56.1547 67.21 56.4 68.682 56.4C69.7247 56.4 70.706 56.262 71.626 55.986C72.5767 55.71 73.558 55.3113 74.57 54.79L76.824 58.884C75.5054 59.712 74.0487 60.3713 72.454 60.862C70.8594 61.322 69.2954 61.552 67.762 61.552ZM93.7801 61.552C91.7561 61.552 89.7474 61.2147 87.7541 60.54C85.7607 59.8347 84.0434 59.0067 82.6021 58.056L85.5001 53.824C86.8801 54.7133 88.3367 55.388 89.8701 55.848C91.4341 56.308 93.0441 56.538 94.7001 56.538C95.9574 56.538 96.8774 56.354 97.4601 55.986C98.0427 55.5873 98.3341 55.1273 98.3341 54.606C98.3341 54.2687 98.2421 53.9927 98.0581 53.778C97.9047 53.5327 97.6134 53.318 97.1841 53.134C96.7854 52.9193 96.2181 52.72 95.4821 52.536C94.7767 52.352 93.8567 52.1373 92.7221 51.892C89.6247 51.2173 87.4014 50.2973 86.0521 49.132C84.7027 47.9667 84.0281 46.51 84.0281 44.762C84.0281 42.6153 84.9634 40.898 86.8341 39.61C88.7047 38.2913 91.2654 37.632 94.5161 37.632C96.5707 37.632 98.4261 37.9693 100.082 38.644C101.769 39.288 103.21 39.9933 104.406 40.76L101.37 44.808C100.235 44.1027 99.0241 43.566 97.7361 43.198C96.4481 42.83 95.1754 42.646 93.9181 42.646C93.2127 42.646 92.6301 42.7227 92.1701 42.876C91.7101 42.9987 91.3574 43.2133 91.1121 43.52C90.8667 43.796 90.7441 44.1027 90.7441 44.44C90.7441 45.0533 91.1427 45.5133 91.9401 45.82C92.7374 46.096 94.1021 46.4487 96.0341 46.878C98.3647 47.3993 100.189 47.9973 101.508 48.672C102.827 49.3467 103.731 50.1287 104.222 51.018C104.743 51.8767 105.004 52.9347 105.004 54.192C105.004 55.572 104.575 56.814 103.716 57.918C102.888 59.022 101.631 59.9113 99.9441 60.586C98.2881 61.23 96.2334 61.552 93.7801 61.552ZM148.944 61.552C146.92 61.552 144.911 61.2147 142.918 60.54C140.925 59.8347 139.207 59.0067 137.766 58.056L140.664 53.824C142.044 54.7133 143.501 55.388 145.034 55.848C146.598 56.308 148.208 56.538 149.864 56.538C151.121 56.538 152.041 56.354 152.624 55.986C153.207 55.5873 153.498 55.1273 153.498 54.606C153.498 54.2687 153.406 53.9927 153.222 53.778C153.069 53.5327 152.777 53.318 152.348 53.134C151.949 52.9193 151.382 52.72 150.646 52.536C149.941 52.352 149.021 52.1373 147.886 51.892C144.789 51.2173 142.565 50.2973 141.216 49.132C139.867 47.9667 139.192 46.51 139.192 44.762C139.192 42.6153 140.127 40.898 141.998 39.61C143.869 38.2913 146.429 37.632 149.68 37.632C151.735 37.632 153.59 37.9693 155.246 38.644C156.933 39.288 158.374 39.9933 159.57 40.76L156.534 44.808C155.399 44.1027 154.188 43.566 152.9 43.198C151.612 42.83 150.339 42.646 149.082 42.646C148.377 42.646 147.794 42.7227 147.334 42.876C146.874 42.9987 146.521 43.2133 146.276 43.52C146.031 43.796 145.908 44.1027 145.908 44.44C145.908 45.0533 146.307 45.5133 147.104 45.82C147.901 46.096 149.266 46.4487 151.198 46.878C153.529 47.3993 155.353 47.9973 156.672 48.672C157.991 49.3467 158.895 50.1287 159.386 51.018C159.907 51.8767 160.168 52.9347 160.168 54.192C160.168 55.572 159.739 56.814 158.88 57.918C158.052 59.022 156.795 59.9113 155.108 60.586C153.452 61.23 151.397 61.552 148.944 61.552ZM166.406 61V28.754H173.168V47.384H173.352L181.724 38.184H189.13L173.168 55.25V61H166.406ZM182.506 61L175.882 50.65L179.746 46.464L189.82 61H182.506ZM203.28 61V43.474H194.08V38.184H210.042V61H203.28ZM206.362 34.596C205.074 34.596 204.001 34.228 203.142 33.492C202.284 32.7253 201.854 31.7287 201.854 30.502C201.854 29.2447 202.284 28.2327 203.142 27.466C204.001 26.6687 205.074 26.27 206.362 26.27C207.681 26.27 208.754 26.6687 209.582 27.466C210.441 28.2327 210.87 29.2447 210.87 30.502C210.87 31.7287 210.441 32.7253 209.582 33.492C208.754 34.228 207.681 34.596 206.362 34.596ZM236.244 61.552C233.392 61.552 231.23 60.6933 229.758 58.976C228.286 57.2587 227.55 54.9587 227.55 52.076V34.09H220.42V28.8H234.312V52.352C234.312 53.7627 234.696 54.744 235.462 55.296C236.229 55.8173 237.072 56.078 237.992 56.078C238.544 56.078 239.096 56.0167 239.648 55.894C240.231 55.7713 240.875 55.5873 241.58 55.342L243.052 60.31C241.887 60.678 240.814 60.9693 239.832 61.184C238.882 61.4293 237.686 61.552 236.244 61.552ZM263.826 61.552C260.974 61.552 258.812 60.6933 257.34 58.976C255.868 57.2587 255.132 54.9587 255.132 52.076V34.09H248.002V28.8H261.894V52.352C261.894 53.7627 262.278 54.744 263.044 55.296C263.811 55.8173 264.654 56.078 265.574 56.078C266.126 56.078 266.678 56.0167 267.23 55.894C267.813 55.7713 268.457 55.5873 269.162 55.342L270.634 60.31C269.469 60.678 268.396 60.9693 267.414 61.184C266.464 61.4293 265.268 61.552 263.826 61.552ZM286.854 61.552C284.83 61.552 282.822 61.2147 280.828 60.54C278.835 59.8347 277.118 59.0067 275.676 58.056L278.574 53.824C279.954 54.7133 281.411 55.388 282.944 55.848C284.508 56.308 286.118 56.538 287.774 56.538C289.032 56.538 289.952 56.354 290.534 55.986C291.117 55.5873 291.408 55.1273 291.408 54.606C291.408 54.2687 291.316 53.9927 291.132 53.778C290.979 53.5327 290.688 53.318 290.258 53.134C289.86 52.9193 289.292 52.72 288.556 52.536C287.851 52.352 286.931 52.1373 285.796 51.892C282.699 51.2173 280.476 50.2973 279.126 49.132C277.777 47.9667 277.102 46.51 277.102 44.762C277.102 42.6153 278.038 40.898 279.908 39.61C281.779 38.2913 284.34 37.632 287.59 37.632C289.645 37.632 291.5 37.9693 293.156 38.644C294.843 39.288 296.284 39.9933 297.48 40.76L294.444 44.808C293.31 44.1027 292.098 43.566 290.81 43.198C289.522 42.83 288.25 42.646 286.992 42.646C286.287 42.646 285.704 42.7227 285.244 42.876C284.784 42.9987 284.432 43.2133 284.186 43.52C283.941 43.796 283.818 44.1027 283.818 44.44C283.818 45.0533 284.217 45.5133 285.014 45.82C285.812 46.096 287.176 46.4487 289.108 46.878C291.439 47.3993 293.264 47.9973 294.582 48.672C295.901 49.3467 296.806 50.1287 297.296 51.018C297.818 51.8767 298.078 52.9347 298.078 54.192C298.078 55.572 297.649 56.814 296.79 57.918C295.962 59.022 294.705 59.9113 293.018 60.586C291.362 61.23 289.308 61.552 286.854 61.552Z" fill="black"/>
</svg>
