<svg width="500" height="1000" viewBox="0 0 500 1000" fill="none" xmlns="http://www.w3.org/2000/svg">
<rect width="500" height="1000" fill="white"/>
<path d="M50.5513 351V349.864H53.1593V341.624H50.5513V340.504H57.1112V341.624H54.5033V349.864H57.1112V351H50.5513ZM65.121 351.192C64.2997 351.192 63.6703 350.957 63.233 350.488C62.7957 350.008 62.577 349.309 62.577 348.392V340.68H59.921V339.608H63.889V348.488C63.889 349.053 64.0277 349.464 64.305 349.72C64.5823 349.976 64.9503 350.104 65.409 350.104C65.633 350.104 65.8623 350.077 66.097 350.024C66.3317 349.96 66.593 349.864 66.881 349.736L67.217 350.728C66.865 350.856 66.5343 350.963 66.225 351.048C65.9157 351.144 65.5477 351.192 65.121 351.192ZM82.7725 351.192C82.0152 351.192 81.3058 351.069 80.6445 350.824C79.9832 350.579 79.4178 350.296 78.9485 349.976L79.5565 349.112C80.0045 349.432 80.5005 349.688 81.0445 349.88C81.5885 350.072 82.2178 350.168 82.9325 350.168C83.5938 350.168 84.0845 350.045 84.4045 349.8C84.7352 349.555 84.9005 349.272 84.9005 348.952C84.9005 348.803 84.8685 348.664 84.8045 348.536C84.7512 348.408 84.6392 348.285 84.4685 348.168C84.3085 348.051 84.0685 347.939 83.7485 347.832C83.4285 347.725 83.0018 347.619 82.4685 347.512C81.4552 347.299 80.6925 347.011 80.1805 346.648C79.6792 346.285 79.4285 345.816 79.4285 345.24C79.4285 344.611 79.7005 344.088 80.2445 343.672C80.7885 343.245 81.5938 343.032 82.6605 343.032C83.2578 343.032 83.8338 343.133 84.3885 343.336C84.9432 343.528 85.4125 343.757 85.7965 344.024L85.1565 344.872C84.8045 344.616 84.4045 344.419 83.9565 344.28C83.5085 344.131 83.0392 344.056 82.5485 344.056C82.1005 344.056 81.7432 344.109 81.4765 344.216C81.2205 344.312 81.0338 344.445 80.9165 344.616C80.8098 344.787 80.7565 344.973 80.7565 345.176C80.7565 345.507 80.9325 345.768 81.2845 345.96C81.6472 346.141 82.2232 346.312 83.0125 346.472C83.8765 346.653 84.5378 346.856 84.9965 347.08C85.4658 347.304 85.7858 347.56 85.9565 347.848C86.1378 348.136 86.2285 348.477 86.2285 348.872C86.2285 349.299 86.0952 349.688 85.8285 350.04C85.5618 350.381 85.1725 350.659 84.6605 350.872C84.1485 351.085 83.5192 351.192 82.7725 351.192ZM92.6863 351.192C91.9076 351.192 91.1983 351.032 90.5583 350.712C89.9289 350.392 89.4276 349.928 89.0543 349.32C88.6809 348.701 88.4943 347.96 88.4943 347.096C88.4943 346.253 88.6809 345.528 89.0543 344.92C89.4276 344.312 89.9129 343.848 90.5103 343.528C91.1183 343.197 91.7689 343.032 92.4623 343.032C93.2089 343.032 93.8436 343.187 94.3663 343.496C94.8996 343.795 95.3049 344.216 95.5823 344.76C95.8703 345.304 96.0143 345.944 96.0143 346.68C96.0143 346.829 96.0089 346.973 95.9983 347.112C95.9876 347.251 95.9716 347.373 95.9503 347.48H89.3743V346.456H95.1663L94.8303 346.824C94.8303 345.907 94.6169 345.219 94.1903 344.76C93.7743 344.301 93.2089 344.072 92.4943 344.072C92.0143 344.072 91.5663 344.189 91.1503 344.424C90.7449 344.659 90.4196 345 90.1743 345.448C89.9289 345.896 89.8063 346.445 89.8063 347.096C89.8063 347.768 89.9396 348.328 90.2063 348.776C90.4729 349.224 90.8356 349.565 91.2943 349.8C91.7529 350.024 92.2703 350.136 92.8463 350.136C93.3156 350.136 93.7369 350.072 94.1103 349.944C94.4943 349.805 94.8623 349.624 95.2143 349.4L95.6943 350.264C95.3103 350.52 94.8676 350.739 94.3663 350.92C93.8756 351.101 93.3156 351.192 92.6863 351.192ZM97.928 351V343.224H98.984L99.096 344.248H99.128C99.3307 343.885 99.5653 343.592 99.832 343.368C100.099 343.144 100.456 343.032 100.904 343.032C101.288 343.032 101.603 343.144 101.848 343.368C102.093 343.592 102.269 343.928 102.376 344.376C102.6 343.96 102.845 343.635 103.112 343.4C103.389 343.155 103.752 343.032 104.2 343.032C104.744 343.032 105.165 343.24 105.464 343.656C105.773 344.061 105.928 344.653 105.928 345.432V351H104.616V345.528C104.616 344.621 104.339 344.168 103.784 344.168C103.517 344.168 103.293 344.269 103.112 344.472C102.941 344.664 102.749 344.963 102.536 345.368V351H101.32V345.528C101.32 345.08 101.256 344.744 101.128 344.52C101.011 344.285 100.808 344.168 100.52 344.168C100.253 344.168 100.019 344.269 99.816 344.472C99.624 344.664 99.432 344.963 99.24 345.368V351H97.928ZM111.714 351.192C111.33 351.192 110.919 351.101 110.482 350.92C110.055 350.728 109.66 350.467 109.298 350.136H109.25L109.138 351H108.082V339.608H109.394V342.712L109.346 344.216H109.394C109.746 343.853 110.151 343.565 110.61 343.352C111.079 343.139 111.543 343.032 112.002 343.032C112.706 343.032 113.298 343.197 113.778 343.528C114.258 343.848 114.62 344.307 114.866 344.904C115.111 345.491 115.234 346.184 115.234 346.984C115.234 347.869 115.068 348.627 114.738 349.256C114.418 349.885 113.991 350.365 113.458 350.696C112.924 351.027 112.343 351.192 111.714 351.192ZM111.506 350.088C111.954 350.088 112.354 349.965 112.706 349.72C113.068 349.475 113.351 349.123 113.554 348.664C113.767 348.195 113.874 347.64 113.874 347C113.874 346.435 113.799 345.939 113.65 345.512C113.5 345.075 113.266 344.739 112.946 344.504C112.626 344.259 112.204 344.136 111.682 344.136C111.33 344.136 110.956 344.232 110.562 344.424C110.178 344.605 109.788 344.899 109.394 345.304V349.176C109.767 349.507 110.14 349.741 110.514 349.88C110.898 350.019 111.228 350.088 111.506 350.088ZM122.684 351.192C121.862 351.192 121.233 350.957 120.796 350.488C120.358 350.008 120.14 349.309 120.14 348.392V340.68H117.484V339.608H121.452V348.488C121.452 349.053 121.59 349.464 121.868 349.72C122.145 349.976 122.513 350.104 122.972 350.104C123.196 350.104 123.425 350.077 123.66 350.024C123.894 349.96 124.156 349.864 124.444 349.736L124.78 350.728C124.428 350.856 124.097 350.963 123.788 351.048C123.478 351.144 123.11 351.192 122.684 351.192ZM131.061 351.192C130.283 351.192 129.573 351.032 128.933 350.712C128.304 350.392 127.803 349.928 127.429 349.32C127.056 348.701 126.869 347.96 126.869 347.096C126.869 346.253 127.056 345.528 127.429 344.92C127.803 344.312 128.288 343.848 128.885 343.528C129.493 343.197 130.144 343.032 130.837 343.032C131.584 343.032 132.219 343.187 132.741 343.496C133.275 343.795 133.68 344.216 133.957 344.76C134.245 345.304 134.389 345.944 134.389 346.68C134.389 346.829 134.384 346.973 134.373 347.112C134.363 347.251 134.347 347.373 134.325 347.48H127.749V346.456H133.541L133.205 346.824C133.205 345.907 132.992 345.219 132.565 344.76C132.149 344.301 131.584 344.072 130.869 344.072C130.389 344.072 129.941 344.189 129.525 344.424C129.12 344.659 128.795 345 128.549 345.448C128.304 345.896 128.181 346.445 128.181 347.096C128.181 347.768 128.315 348.328 128.581 348.776C128.848 349.224 129.211 349.565 129.669 349.8C130.128 350.024 130.645 350.136 131.221 350.136C131.691 350.136 132.112 350.072 132.485 349.944C132.869 349.805 133.237 349.624 133.589 349.4L134.069 350.264C133.685 350.52 133.243 350.739 132.741 350.92C132.251 351.101 131.691 351.192 131.061 351.192ZM137.711 351V343.224H138.799L138.911 345.064H138.959C139.364 344.435 139.866 343.939 140.463 343.576C141.06 343.213 141.716 343.032 142.431 343.032C142.719 343.032 142.986 343.059 143.231 343.112C143.487 343.155 143.732 343.235 143.967 343.352L143.663 344.488C143.396 344.392 143.167 344.323 142.975 344.28C142.783 344.237 142.532 344.216 142.223 344.216C141.636 344.216 141.071 344.387 140.527 344.728C139.994 345.059 139.492 345.629 139.023 346.44V351H137.711ZM148.905 351.192C148.425 351.192 147.982 351.107 147.577 350.936C147.171 350.755 146.851 350.499 146.617 350.168C146.382 349.837 146.265 349.443 146.265 348.984C146.265 348.109 146.702 347.448 147.577 347C148.451 346.541 149.891 346.232 151.897 346.072C151.886 345.72 151.811 345.395 151.673 345.096C151.545 344.797 151.331 344.563 151.033 344.392C150.734 344.211 150.334 344.12 149.833 344.12C149.502 344.12 149.171 344.168 148.841 344.264C148.521 344.349 148.211 344.467 147.913 344.616C147.625 344.755 147.358 344.899 147.113 345.048L146.601 344.152C146.857 343.981 147.166 343.811 147.529 343.64C147.902 343.459 148.302 343.315 148.729 343.208C149.155 343.091 149.598 343.032 150.057 343.032C150.771 343.032 151.358 343.165 151.817 343.432C152.286 343.699 152.633 344.072 152.857 344.552C153.091 345.021 153.209 345.581 153.209 346.232V351H152.137L152.025 349.944H151.977C151.55 350.285 151.07 350.579 150.537 350.824C150.003 351.069 149.459 351.192 148.905 351.192ZM149.257 350.136C149.705 350.136 150.147 350.035 150.585 349.832C151.022 349.629 151.459 349.347 151.897 348.984V346.936C150.787 347.032 149.913 347.165 149.273 347.336C148.643 347.507 148.195 347.725 147.929 347.992C147.673 348.248 147.545 348.547 147.545 348.888C147.545 349.176 147.625 349.416 147.785 349.608C147.945 349.789 148.153 349.923 148.409 350.008C148.675 350.093 148.958 350.136 149.257 350.136ZM159.619 351V344.296H156.003V343.224H160.931V351H159.619ZM160.131 341.592C159.832 341.592 159.581 341.501 159.379 341.32C159.176 341.128 159.075 340.877 159.075 340.568C159.075 340.259 159.176 340.013 159.379 339.832C159.581 339.64 159.832 339.544 160.131 339.544C160.429 339.544 160.68 339.64 160.883 339.832C161.085 340.013 161.187 340.259 161.187 340.568C161.187 340.877 161.085 341.128 160.883 341.32C160.68 341.501 160.429 341.592 160.131 341.592ZM170.46 351.192C169.703 351.192 169.106 351.059 168.668 350.792C168.231 350.515 167.916 350.136 167.724 349.656C167.543 349.176 167.452 348.616 167.452 347.976V344.296H165.26V343.304L167.5 343.224L167.676 340.728H168.764V343.224H172.588V344.296H168.764V347.992C168.764 348.451 168.823 348.84 168.94 349.16C169.058 349.48 169.26 349.72 169.548 349.88C169.836 350.04 170.231 350.12 170.732 350.12C171.106 350.12 171.442 350.088 171.74 350.024C172.039 349.96 172.327 349.875 172.604 349.768L172.892 350.728C172.54 350.856 172.167 350.963 171.772 351.048C171.388 351.144 170.951 351.192 170.46 351.192ZM190.144 354.28V351.448L190.208 350.008H190.16C189.85 350.339 189.477 350.621 189.04 350.856C188.602 351.08 188.144 351.192 187.664 351.192C186.661 351.192 185.85 350.84 185.232 350.136C184.613 349.421 184.304 348.419 184.304 347.128C184.304 346.285 184.469 345.56 184.8 344.952C185.141 344.333 185.578 343.859 186.112 343.528C186.656 343.197 187.232 343.032 187.84 343.032C188.309 343.032 188.736 343.123 189.12 343.304C189.504 343.475 189.877 343.736 190.24 344.088H190.288L190.4 343.224H191.456V354.28H190.144ZM187.952 350.088C188.336 350.088 188.709 349.992 189.072 349.8C189.434 349.597 189.792 349.304 190.144 348.92V345.048C189.792 344.717 189.445 344.483 189.104 344.344C188.773 344.205 188.437 344.136 188.096 344.136C187.648 344.136 187.237 344.264 186.864 344.52C186.501 344.765 186.208 345.112 185.984 345.56C185.77 345.997 185.664 346.515 185.664 347.112C185.664 348.04 185.866 348.771 186.272 349.304C186.677 349.827 187.237 350.088 187.952 350.088ZM196.874 351.192C195.946 351.192 195.263 350.925 194.826 350.392C194.388 349.859 194.17 349.08 194.17 348.056V343.224H195.498V347.88C195.498 348.616 195.631 349.165 195.898 349.528C196.175 349.88 196.639 350.056 197.29 350.056C197.738 350.056 198.143 349.944 198.506 349.72C198.879 349.485 199.279 349.117 199.706 348.616V343.224H201.017V351H199.946L199.834 349.64H199.77C199.375 350.088 198.943 350.461 198.474 350.76C198.004 351.048 197.471 351.192 196.874 351.192ZM206.451 345.4L206.003 344.632C206.537 344.323 206.947 343.939 207.235 343.48C207.534 343.011 207.683 342.472 207.683 341.864L207.363 340.616L208.243 341.688C208.105 341.837 207.95 341.96 207.779 342.056C207.609 342.152 207.433 342.2 207.251 342.2C206.921 342.2 206.649 342.093 206.435 341.88C206.222 341.667 206.115 341.395 206.115 341.064C206.115 340.691 206.227 340.392 206.451 340.168C206.675 339.933 206.958 339.816 207.299 339.816C207.715 339.816 208.057 339.987 208.323 340.328C208.601 340.669 208.739 341.144 208.739 341.752C208.739 342.552 208.537 343.272 208.131 343.912C207.726 344.541 207.166 345.037 206.451 345.4ZM216.061 351.192C215.133 351.192 214.45 350.925 214.013 350.392C213.576 349.859 213.357 349.08 213.357 348.056V343.224H214.685V347.88C214.685 348.616 214.818 349.165 215.085 349.528C215.362 349.88 215.826 350.056 216.477 350.056C216.925 350.056 217.33 349.944 217.693 349.72C218.066 349.485 218.466 349.117 218.893 348.616V343.224H220.205V351H219.133L219.021 349.64H218.957C218.562 350.088 218.13 350.461 217.661 350.76C217.192 351.048 216.658 351.192 216.061 351.192ZM223.207 351V343.224H224.295L224.407 344.552H224.471C224.876 344.115 225.313 343.752 225.783 343.464C226.252 343.176 226.791 343.032 227.399 343.032C228.316 343.032 228.993 343.299 229.431 343.832C229.868 344.365 230.087 345.144 230.087 346.168V351H228.775V346.344C228.775 345.608 228.636 345.064 228.359 344.712C228.081 344.349 227.623 344.168 226.983 344.168C226.524 344.168 226.113 344.285 225.751 344.52C225.388 344.755 224.977 345.107 224.519 345.576V351H223.207ZM236.593 351.192C235.814 351.192 235.105 351.032 234.465 350.712C233.835 350.392 233.334 349.928 232.961 349.32C232.587 348.701 232.401 347.96 232.401 347.096C232.401 346.253 232.587 345.528 232.961 344.92C233.334 344.312 233.819 343.848 234.417 343.528C235.025 343.197 235.675 343.032 236.369 343.032C237.115 343.032 237.75 343.187 238.273 343.496C238.806 343.795 239.211 344.216 239.489 344.76C239.777 345.304 239.921 345.944 239.921 346.68C239.921 346.829 239.915 346.973 239.905 347.112C239.894 347.251 239.878 347.373 239.857 347.48H233.281V346.456H239.073L238.737 346.824C238.737 345.907 238.523 345.219 238.097 344.76C237.681 344.301 237.115 344.072 236.401 344.072C235.921 344.072 235.473 344.189 235.057 344.424C234.651 344.659 234.326 345 234.081 345.448C233.835 345.896 233.713 346.445 233.713 347.096C233.713 347.768 233.846 348.328 234.113 348.776C234.379 349.224 234.742 349.565 235.201 349.8C235.659 350.024 236.177 350.136 236.753 350.136C237.222 350.136 237.643 350.072 238.017 349.944C238.401 349.805 238.769 349.624 239.121 349.4L239.601 350.264C239.217 350.52 238.774 350.739 238.273 350.92C237.782 351.101 237.222 351.192 236.593 351.192ZM255.78 351.192C255.001 351.192 254.292 351.032 253.652 350.712C253.023 350.392 252.521 349.928 252.148 349.32C251.775 348.701 251.588 347.96 251.588 347.096C251.588 346.253 251.775 345.528 252.148 344.92C252.521 344.312 253.007 343.848 253.604 343.528C254.212 343.197 254.863 343.032 255.556 343.032C256.303 343.032 256.937 343.187 257.46 343.496C257.993 343.795 258.399 344.216 258.676 344.76C258.964 345.304 259.108 345.944 259.108 346.68C259.108 346.829 259.103 346.973 259.092 347.112C259.081 347.251 259.065 347.373 259.044 347.48H252.468V346.456H258.26L257.924 346.824C257.924 345.907 257.711 345.219 257.284 344.76C256.868 344.301 256.303 344.072 255.588 344.072C255.108 344.072 254.66 344.189 254.244 344.424C253.839 344.659 253.513 345 253.268 345.448C253.023 345.896 252.9 346.445 252.9 347.096C252.9 347.768 253.033 348.328 253.3 348.776C253.567 349.224 253.929 349.565 254.388 349.8C254.847 350.024 255.364 350.136 255.94 350.136C256.409 350.136 256.831 350.072 257.204 349.944C257.588 349.805 257.956 349.624 258.308 349.4L258.788 350.264C258.404 350.52 257.961 350.739 257.46 350.92C256.969 351.101 256.409 351.192 255.78 351.192ZM262.43 351V343.224H263.518L263.63 345.064H263.678C264.083 344.435 264.584 343.939 265.182 343.576C265.779 343.213 266.435 343.032 267.15 343.032C267.438 343.032 267.704 343.059 267.95 343.112C268.206 343.155 268.451 343.235 268.686 343.352L268.382 344.488C268.115 344.392 267.886 344.323 267.694 344.28C267.502 344.237 267.251 344.216 266.942 344.216C266.355 344.216 265.79 344.387 265.246 344.728C264.712 345.059 264.211 345.629 263.742 346.44V351H262.43ZM272.024 351V343.224H273.112L273.224 345.064H273.272C273.677 344.435 274.178 343.939 274.776 343.576C275.373 343.213 276.029 343.032 276.744 343.032C277.032 343.032 277.298 343.059 277.544 343.112C277.8 343.155 278.045 343.235 278.28 343.352L277.976 344.488C277.709 344.392 277.48 344.323 277.288 344.28C277.096 344.237 276.845 344.216 276.536 344.216C275.949 344.216 275.384 344.387 274.84 344.728C274.306 345.059 273.805 345.629 273.336 346.44V351H272.024ZM284.561 351.192C283.783 351.192 283.073 351.032 282.433 350.712C281.804 350.392 281.303 349.928 280.929 349.32C280.556 348.701 280.369 347.96 280.369 347.096C280.369 346.253 280.556 345.528 280.929 344.92C281.303 344.312 281.788 343.848 282.385 343.528C282.993 343.197 283.644 343.032 284.337 343.032C285.084 343.032 285.719 343.187 286.241 343.496C286.775 343.795 287.18 344.216 287.457 344.76C287.745 345.304 287.889 345.944 287.889 346.68C287.889 346.829 287.884 346.973 287.873 347.112C287.863 347.251 287.847 347.373 287.825 347.48H281.249V346.456H287.041L286.705 346.824C286.705 345.907 286.492 345.219 286.065 344.76C285.649 344.301 285.084 344.072 284.369 344.072C283.889 344.072 283.441 344.189 283.025 344.424C282.62 344.659 282.295 345 282.049 345.448C281.804 345.896 281.681 346.445 281.681 347.096C281.681 347.768 281.815 348.328 282.081 348.776C282.348 349.224 282.711 349.565 283.169 349.8C283.628 350.024 284.145 350.136 284.721 350.136C285.191 350.136 285.612 350.072 285.985 349.944C286.369 349.805 286.737 349.624 287.089 349.4L287.569 350.264C287.185 350.52 286.743 350.739 286.241 350.92C285.751 351.101 285.191 351.192 284.561 351.192ZM292.811 351.192C291.883 351.192 291.2 350.925 290.763 350.392C290.326 349.859 290.107 349.08 290.107 348.056V343.224H291.435V347.88C291.435 348.616 291.568 349.165 291.835 349.528C292.112 349.88 292.576 350.056 293.227 350.056C293.675 350.056 294.08 349.944 294.443 349.72C294.816 349.485 295.216 349.117 295.643 348.616V343.224H296.955V351H295.883L295.771 349.64H295.707C295.312 350.088 294.88 350.461 294.411 350.76C293.942 351.048 293.408 351.192 292.811 351.192ZM300.805 351V343.224H301.893L302.005 345.064H302.053C302.458 344.435 302.959 343.939 303.557 343.576C304.154 343.213 304.81 343.032 305.525 343.032C305.813 343.032 306.079 343.059 306.325 343.112C306.581 343.155 306.826 343.235 307.061 343.352L306.757 344.488C306.49 344.392 306.261 344.323 306.069 344.28C305.877 344.237 305.626 344.216 305.317 344.216C304.73 344.216 304.165 344.387 303.621 344.728C303.087 345.059 302.586 345.629 302.117 346.44V351H300.805ZM322.616 351.192C321.859 351.192 321.15 351.069 320.488 350.824C319.827 350.579 319.262 350.296 318.792 349.976L319.4 349.112C319.848 349.432 320.344 349.688 320.888 349.88C321.432 350.072 322.062 350.168 322.776 350.168C323.438 350.168 323.928 350.045 324.248 349.8C324.579 349.555 324.744 349.272 324.744 348.952C324.744 348.803 324.712 348.664 324.648 348.536C324.595 348.408 324.483 348.285 324.312 348.168C324.152 348.051 323.912 347.939 323.592 347.832C323.272 347.725 322.846 347.619 322.312 347.512C321.299 347.299 320.536 347.011 320.024 346.648C319.523 346.285 319.272 345.816 319.272 345.24C319.272 344.611 319.544 344.088 320.088 343.672C320.632 343.245 321.438 343.032 322.504 343.032C323.102 343.032 323.678 343.133 324.232 343.336C324.787 343.528 325.256 343.757 325.64 344.024L325 344.872C324.648 344.616 324.248 344.419 323.8 344.28C323.352 344.131 322.883 344.056 322.392 344.056C321.944 344.056 321.587 344.109 321.32 344.216C321.064 344.312 320.878 344.445 320.76 344.616C320.654 344.787 320.6 344.973 320.6 345.176C320.6 345.507 320.776 345.768 321.128 345.96C321.491 346.141 322.067 346.312 322.856 346.472C323.72 346.653 324.382 346.856 324.84 347.08C325.31 347.304 325.63 347.56 325.8 347.848C325.982 348.136 326.072 348.477 326.072 348.872C326.072 349.299 325.939 349.688 325.672 350.04C325.406 350.381 325.016 350.659 324.504 350.872C323.992 351.085 323.363 351.192 322.616 351.192ZM332.05 351.192C331.367 351.192 330.733 351.032 330.146 350.712C329.57 350.392 329.101 349.928 328.738 349.32C328.386 348.712 328.21 347.981 328.21 347.128C328.21 346.253 328.386 345.512 328.738 344.904C329.101 344.296 329.57 343.832 330.146 343.512C330.733 343.192 331.367 343.032 332.05 343.032C332.733 343.032 333.362 343.192 333.938 343.512C334.525 343.832 334.994 344.296 335.346 344.904C335.709 345.512 335.89 346.253 335.89 347.128C335.89 347.981 335.709 348.712 335.346 349.32C334.994 349.928 334.525 350.392 333.938 350.712C333.362 351.032 332.733 351.192 332.05 351.192ZM332.05 350.104C332.551 350.104 332.989 349.981 333.362 349.736C333.735 349.48 334.023 349.128 334.226 348.68C334.429 348.232 334.53 347.715 334.53 347.128C334.53 346.531 334.429 346.008 334.226 345.56C334.023 345.101 333.735 344.749 333.362 344.504C332.989 344.248 332.551 344.12 332.05 344.12C331.549 344.12 331.111 344.248 330.738 344.504C330.375 344.749 330.087 345.101 329.874 345.56C329.671 346.008 329.57 346.531 329.57 347.128C329.57 347.715 329.671 348.232 329.874 348.68C330.087 349.128 330.375 349.48 330.738 349.736C331.111 349.981 331.549 350.104 332.05 350.104ZM341.9 351V344.296H338.284V343.224H343.212V351H341.9ZM342.412 341.592C342.113 341.592 341.862 341.501 341.66 341.32C341.457 341.128 341.356 340.877 341.356 340.568C341.356 340.259 341.457 340.013 341.66 339.832C341.862 339.64 342.113 339.544 342.412 339.544C342.71 339.544 342.961 339.64 343.164 339.832C343.366 340.013 343.468 340.259 343.468 340.568C343.468 340.877 343.366 341.128 343.164 341.32C342.961 341.501 342.71 341.592 342.412 341.592ZM352.742 351.192C351.984 351.192 351.387 351.059 350.95 350.792C350.512 350.515 350.198 350.136 350.006 349.656C349.824 349.176 349.734 348.616 349.734 347.976V344.296H347.542V343.304L349.782 343.224L349.958 340.728H351.046V343.224H354.87V344.296H351.046V347.992C351.046 348.451 351.104 348.84 351.222 349.16C351.339 349.48 351.542 349.72 351.83 349.88C352.118 350.04 352.512 350.12 353.014 350.12C353.387 350.12 353.723 350.088 354.022 350.024C354.32 349.96 354.608 349.875 354.885 349.768L355.174 350.728C354.822 350.856 354.448 350.963 354.054 351.048C353.67 351.144 353.232 351.192 352.742 351.192ZM370.585 351.192C369.828 351.192 369.118 351.069 368.457 350.824C367.796 350.579 367.23 350.296 366.761 349.976L367.369 349.112C367.817 349.432 368.313 349.688 368.857 349.88C369.401 350.072 370.03 350.168 370.745 350.168C371.406 350.168 371.897 350.045 372.217 349.8C372.548 349.555 372.713 349.272 372.713 348.952C372.713 348.803 372.681 348.664 372.617 348.536C372.564 348.408 372.452 348.285 372.281 348.168C372.121 348.051 371.881 347.939 371.561 347.832C371.241 347.725 370.814 347.619 370.281 347.512C369.268 347.299 368.505 347.011 367.993 346.648C367.492 346.285 367.241 345.816 367.241 345.24C367.241 344.611 367.513 344.088 368.057 343.672C368.601 343.245 369.406 343.032 370.473 343.032C371.07 343.032 371.646 343.133 372.201 343.336C372.756 343.528 373.225 343.757 373.609 344.024L372.969 344.872C372.617 344.616 372.217 344.419 371.769 344.28C371.321 344.131 370.852 344.056 370.361 344.056C369.913 344.056 369.556 344.109 369.289 344.216C369.033 344.312 368.846 344.445 368.729 344.616C368.622 344.787 368.569 344.973 368.569 345.176C368.569 345.507 368.745 345.768 369.097 345.96C369.46 346.141 370.036 346.312 370.825 346.472C371.689 346.653 372.35 346.856 372.809 347.08C373.278 347.304 373.598 347.56 373.769 347.848C373.95 348.136 374.041 348.477 374.041 348.872C374.041 349.299 373.908 349.688 373.641 350.04C373.374 350.381 372.985 350.659 372.473 350.872C371.961 351.085 371.332 351.192 370.585 351.192ZM379.155 351.192C378.227 351.192 377.544 350.925 377.107 350.392C376.669 349.859 376.451 349.08 376.451 348.056V343.224H377.779V347.88C377.779 348.616 377.912 349.165 378.179 349.528C378.456 349.88 378.92 350.056 379.571 350.056C380.019 350.056 380.424 349.944 380.787 349.72C381.16 349.485 381.56 349.117 381.987 348.616V343.224H383.299V351H382.227L382.115 349.64H382.051C381.656 350.088 381.224 350.461 380.755 350.76C380.285 351.048 379.752 351.192 379.155 351.192ZM387.149 351V343.224H388.237L388.349 345.064H388.397C388.802 344.435 389.303 343.939 389.901 343.576C390.498 343.213 391.154 343.032 391.869 343.032C392.157 343.032 392.423 343.059 392.669 343.112C392.925 343.155 393.17 343.235 393.405 343.352L393.101 344.488C392.834 344.392 392.605 344.323 392.413 344.28C392.221 344.237 391.97 344.216 391.661 344.216C391.074 344.216 390.509 344.387 389.965 344.728C389.431 345.059 388.93 345.629 388.461 346.44V351H387.149ZM398.502 351L395.222 343.224H396.55L398.342 347.64C398.502 348.024 398.652 348.408 398.79 348.792C398.94 349.176 399.084 349.555 399.222 349.928H399.286C399.425 349.555 399.564 349.176 399.702 348.792C399.841 348.408 399.985 348.024 400.134 347.64L401.926 343.224H403.19L399.974 351H398.502ZM409.28 351.192C408.501 351.192 407.792 351.032 407.152 350.712C406.523 350.392 406.021 349.928 405.648 349.32C405.275 348.701 405.088 347.96 405.088 347.096C405.088 346.253 405.275 345.528 405.648 344.92C406.021 344.312 406.507 343.848 407.104 343.528C407.712 343.197 408.363 343.032 409.056 343.032C409.803 343.032 410.437 343.187 410.96 343.496C411.493 343.795 411.899 344.216 412.176 344.76C412.464 345.304 412.608 345.944 412.608 346.68C412.608 346.829 412.603 346.973 412.592 347.112C412.581 347.251 412.565 347.373 412.544 347.48H405.968V346.456H411.76L411.424 346.824C411.424 345.907 411.211 345.219 410.784 344.76C410.368 344.301 409.803 344.072 409.088 344.072C408.608 344.072 408.16 344.189 407.744 344.424C407.339 344.659 407.013 345 406.768 345.448C406.523 345.896 406.4 346.445 406.4 347.096C406.4 347.768 406.533 348.328 406.8 348.776C407.067 349.224 407.429 349.565 407.888 349.8C408.347 350.024 408.864 350.136 409.44 350.136C409.909 350.136 410.331 350.072 410.704 349.944C411.088 349.805 411.456 349.624 411.808 349.4L412.288 350.264C411.904 350.52 411.461 350.739 410.96 350.92C410.469 351.101 409.909 351.192 409.28 351.192ZM415.082 351V343.224H416.17L416.282 344.552H416.346C416.751 344.115 417.188 343.752 417.658 343.464C418.127 343.176 418.666 343.032 419.274 343.032C420.191 343.032 420.868 343.299 421.306 343.832C421.743 344.365 421.962 345.144 421.962 346.168V351H420.65V346.344C420.65 345.608 420.511 345.064 420.234 344.712C419.956 344.349 419.498 344.168 418.858 344.168C418.399 344.168 417.988 344.285 417.626 344.52C417.263 344.755 416.852 345.107 416.394 345.576V351H415.082ZM427.124 351.192C426.196 351.192 425.513 350.925 425.076 350.392C424.638 349.859 424.42 349.08 424.42 348.056V343.224H425.748V347.88C425.748 348.616 425.881 349.165 426.148 349.528C426.425 349.88 426.889 350.056 427.54 350.056C427.988 350.056 428.393 349.944 428.756 349.72C429.129 349.485 429.529 349.117 429.956 348.616V343.224H431.267V351H430.196L430.084 349.64H430.02C429.625 350.088 429.193 350.461 428.724 350.76C428.254 351.048 427.721 351.192 427.124 351.192ZM438.061 351.192C437.283 351.192 436.573 351.032 435.933 350.712C435.304 350.392 434.803 349.928 434.429 349.32C434.056 348.701 433.869 347.96 433.869 347.096C433.869 346.253 434.056 345.528 434.429 344.92C434.803 344.312 435.288 343.848 435.885 343.528C436.493 343.197 437.144 343.032 437.837 343.032C438.584 343.032 439.219 343.187 439.741 343.496C440.275 343.795 440.68 344.216 440.957 344.76C441.245 345.304 441.389 345.944 441.389 346.68C441.389 346.829 441.384 346.973 441.373 347.112C441.363 347.251 441.347 347.373 441.325 347.48H434.749V346.456H440.541L440.205 346.824C440.205 345.907 439.992 345.219 439.565 344.76C439.149 344.301 438.584 344.072 437.869 344.072C437.389 344.072 436.941 344.189 436.525 344.424C436.12 344.659 435.795 345 435.549 345.448C435.304 345.896 435.181 346.445 435.181 347.096C435.181 347.768 435.315 348.328 435.581 348.776C435.848 349.224 436.211 349.565 436.669 349.8C437.128 350.024 437.645 350.136 438.221 350.136C438.691 350.136 439.112 350.072 439.485 349.944C439.869 349.805 440.237 349.624 440.589 349.4L441.069 350.264C440.685 350.52 440.243 350.739 439.741 350.92C439.251 351.101 438.691 351.192 438.061 351.192ZM447.175 351.192C446.823 351.192 446.519 351.069 446.263 350.824C446.007 350.568 445.879 350.243 445.879 349.848C445.879 349.443 446.007 349.117 446.263 348.872C446.519 348.616 446.823 348.488 447.175 348.488C447.538 348.488 447.842 348.616 448.087 348.872C448.343 349.117 448.471 349.443 448.471 349.848C448.471 350.243 448.343 350.568 448.087 350.824C447.842 351.069 447.538 351.192 447.175 351.192Z" fill="black"/>
<path d="M288.761 167H211.239C197.3 167 186 178.3 186 192.239V269.761C186 283.7 197.3 295 211.239 295H288.761C302.7 295 314 283.7 314 269.761V192.239C314 178.3 302.7 167 288.761 167Z" fill="#FFE797" stroke="#D9D9D9" stroke-width="2"/>
<path d="M270.161 227.618C260.163 227.618 252.332 232.904 252.332 239.652C252.332 246.401 260.163 251.687 270.161 251.687C280.159 251.687 287.99 246.401 287.99 239.652C287.99 232.904 280.159 227.618 270.161 227.618Z" fill="#414141"/>
<path d="M264.768 259.61L256.706 239.455C257.636 237.928 258.172 236.135 258.172 234.22C258.172 228.649 253.639 224.117 248.068 224.117C242.498 224.117 237.965 228.649 237.965 234.22C237.965 235.814 238.338 237.322 238.998 238.665L237.163 243.253L229.437 239.39L221.349 259.61H215.231V264.363H224.567L231.932 245.952L239.658 249.815L242.521 242.657C244.114 243.709 246.021 244.323 248.068 244.323C249.865 244.323 251.551 243.85 253.014 243.024L261.55 264.363H270.523V259.61H264.768Z" fill="#414141"/>
<path d="M264.768 259.61L256.706 239.455C257.636 237.928 258.172 236.135 258.172 234.22C258.172 228.649 253.639 224.117 248.068 224.117C248.068 230.281 248.068 238.362 248.068 244.323C249.865 244.323 251.551 243.85 253.015 243.024L261.55 264.363H270.523V259.61H264.768Z" fill="black"/>
<path d="M234.441 211.056L229.339 202.552H209.437V197.799H232.03L238.517 208.611L234.441 211.056Z" fill="black"/>
<path d="M247.265 210.731C245.194 208.238 241.917 206.974 237.525 206.974C233.762 206.974 229.214 208.778 224.007 212.338C220.277 214.887 217.58 217.412 217.467 217.518L215.624 219.25L217.467 220.981C217.58 221.088 220.277 223.612 224.007 226.161C229.214 229.721 233.762 231.526 237.525 231.526C241.917 231.526 245.194 230.261 247.265 227.768C248.971 225.712 249.801 222.926 249.801 219.249C249.801 215.573 248.972 212.787 247.265 210.731Z" fill="#666666"/>
<path d="M237.852 216.187H233.098V220.94H237.852V216.187Z" fill="black"/>
<path d="M284.452 259.61L271.883 227.889L264.152 238.314L267.772 241.412L270.612 237.584L281.222 264.363H290.563V259.61H284.452Z" fill="black"/>
</svg>
