<svg width="1000" height="500" viewBox="0 0 1000 500" fill="none" xmlns="http://www.w3.org/2000/svg">
<rect width="1000" height="500" fill="white"/>
<rect x="950" width="50" height="500" fill="#FFE797"/>
<line x1="437" y1="151.5" x2="791" y2="151.5" stroke="black" stroke-width="3"/>
<path d="M445.592 121.212C446.672 121.212 447.576 121.348 448.304 121.62C449.032 121.892 449.724 122.292 450.38 122.82L449.216 124.176C448.696 123.736 448.144 123.424 447.56 123.24C446.984 123.048 446.38 122.952 445.748 122.952C444.844 122.952 444.008 123.168 443.24 123.6C442.472 124.024 441.852 124.732 441.38 125.724C440.916 126.708 440.684 128.044 440.684 129.732C440.684 131.372 440.904 132.688 441.344 133.68C441.792 134.672 442.396 135.388 443.156 135.828C443.916 136.268 444.764 136.488 445.7 136.488C446.628 136.488 447.388 136.348 447.98 136.068C448.58 135.788 449.1 135.468 449.54 135.108L450.62 136.476C450.116 136.964 449.46 137.388 448.652 137.748C447.844 138.1 446.852 138.276 445.676 138.276C444.34 138.276 443.128 137.948 442.04 137.292C440.96 136.636 440.104 135.676 439.472 134.412C438.84 133.14 438.524 131.58 438.524 129.732C438.524 127.876 438.844 126.316 439.484 125.052C440.132 123.788 440.992 122.832 442.064 122.184C443.144 121.536 444.32 121.212 445.592 121.212ZM464.267 133.428C464.267 134.372 464.031 135.212 463.559 135.948C463.087 136.676 462.403 137.248 461.507 137.664C460.611 138.072 459.519 138.276 458.231 138.276C457.023 138.276 455.927 138.092 454.943 137.724C453.967 137.356 453.131 136.836 452.435 136.164L453.671 134.772C454.247 135.308 454.907 135.736 455.651 136.056C456.395 136.368 457.267 136.524 458.267 136.524C458.939 136.524 459.567 136.416 460.151 136.2C460.735 135.976 461.207 135.64 461.567 135.192C461.927 134.736 462.107 134.16 462.107 133.464C462.107 132.928 462.003 132.472 461.795 132.096C461.587 131.72 461.219 131.388 460.691 131.1C460.163 130.804 459.427 130.516 458.483 130.236C457.395 129.916 456.451 129.556 455.651 129.156C454.859 128.748 454.243 128.248 453.803 127.656C453.371 127.064 453.155 126.332 453.155 125.46C453.155 124.636 453.383 123.904 453.839 123.264C454.295 122.624 454.923 122.124 455.723 121.764C456.531 121.396 457.459 121.212 458.507 121.212C459.651 121.212 460.643 121.376 461.483 121.704C462.331 122.024 463.099 122.488 463.787 123.096L462.563 124.452C461.971 123.924 461.335 123.544 460.655 123.312C459.975 123.072 459.283 122.952 458.579 122.952C457.979 122.952 457.427 123.044 456.923 123.228C456.427 123.404 456.027 123.672 455.723 124.032C455.427 124.384 455.279 124.836 455.279 125.388C455.279 125.86 455.407 126.268 455.663 126.612C455.919 126.956 456.351 127.272 456.959 127.56C457.567 127.84 458.395 128.136 459.443 128.448C460.299 128.696 461.091 129.008 461.819 129.384C462.555 129.752 463.147 130.256 463.595 130.896C464.043 131.528 464.267 132.372 464.267 133.428ZM478.657 133.428C478.657 134.372 478.421 135.212 477.949 135.948C477.477 136.676 476.793 137.248 475.897 137.664C475.001 138.072 473.909 138.276 472.621 138.276C471.413 138.276 470.317 138.092 469.333 137.724C468.357 137.356 467.521 136.836 466.825 136.164L468.061 134.772C468.637 135.308 469.297 135.736 470.041 136.056C470.785 136.368 471.657 136.524 472.657 136.524C473.329 136.524 473.957 136.416 474.541 136.2C475.125 135.976 475.597 135.64 475.957 135.192C476.317 134.736 476.497 134.16 476.497 133.464C476.497 132.928 476.393 132.472 476.185 132.096C475.977 131.72 475.609 131.388 475.081 131.1C474.553 130.804 473.817 130.516 472.873 130.236C471.785 129.916 470.841 129.556 470.041 129.156C469.249 128.748 468.633 128.248 468.193 127.656C467.761 127.064 467.545 126.332 467.545 125.46C467.545 124.636 467.773 123.904 468.229 123.264C468.685 122.624 469.313 122.124 470.113 121.764C470.921 121.396 471.849 121.212 472.897 121.212C474.041 121.212 475.033 121.376 475.873 121.704C476.721 122.024 477.489 122.488 478.177 123.096L476.953 124.452C476.361 123.924 475.725 123.544 475.045 123.312C474.365 123.072 473.673 122.952 472.969 122.952C472.369 122.952 471.817 123.044 471.313 123.228C470.817 123.404 470.417 123.672 470.113 124.032C469.817 124.384 469.669 124.836 469.669 125.388C469.669 125.86 469.797 126.268 470.053 126.612C470.309 126.956 470.741 127.272 471.349 127.56C471.957 127.84 472.785 128.136 473.833 128.448C474.689 128.696 475.481 129.008 476.209 129.384C476.945 129.752 477.537 130.256 477.985 130.896C478.433 131.528 478.657 132.372 478.657 133.428Z" fill="black"/>
<line x1="437" y1="391.5" x2="791" y2="391.5" stroke="black" stroke-width="3"/>
<path d="M440.252 378V361.476H442.34V376.14H449.876L449.636 378H440.252ZM455.387 372.396C455.427 373.372 455.615 374.172 455.951 374.796C456.287 375.412 456.731 375.868 457.283 376.164C457.835 376.452 458.435 376.596 459.083 376.596C459.731 376.596 460.315 376.5 460.835 376.308C461.363 376.116 461.903 375.832 462.455 375.456L463.403 376.788C462.811 377.252 462.135 377.616 461.375 377.88C460.623 378.144 459.851 378.276 459.059 378.276C457.835 378.276 456.791 378 455.927 377.448C455.063 376.896 454.403 376.128 453.947 375.144C453.499 374.152 453.275 373.004 453.275 371.7C453.275 370.42 453.503 369.284 453.959 368.292C454.415 367.3 455.055 366.52 455.879 365.952C456.703 365.384 457.675 365.1 458.795 365.1C459.859 365.1 460.775 365.352 461.543 365.856C462.311 366.352 462.899 367.064 463.307 367.992C463.723 368.912 463.931 370.012 463.931 371.292C463.931 371.508 463.927 371.712 463.919 371.904C463.911 372.088 463.899 372.252 463.883 372.396H455.387ZM458.819 366.756C457.883 366.756 457.099 367.088 456.467 367.752C455.843 368.416 455.487 369.444 455.399 370.836H461.987C461.963 369.484 461.667 368.468 461.099 367.788C460.531 367.1 459.771 366.756 458.819 366.756ZM488.236 365.1C489.356 365.1 490.248 365.372 490.912 365.916C491.584 366.46 492.068 367.228 492.364 368.22C492.66 369.204 492.808 370.356 492.808 371.676C492.808 372.948 492.628 374.084 492.268 375.084C491.916 376.076 491.38 376.856 490.66 377.424C489.94 377.992 489.032 378.276 487.936 378.276C486.552 378.276 485.44 377.788 484.6 376.812V382.836L482.584 383.088V365.364H484.3L484.468 367.128C484.932 366.48 485.484 365.98 486.124 365.628C486.772 365.276 487.476 365.1 488.236 365.1ZM487.756 366.72C487.06 366.72 486.444 366.932 485.908 367.356C485.38 367.772 484.944 368.236 484.6 368.748V375.012C484.928 375.5 485.34 375.888 485.836 376.176C486.34 376.456 486.892 376.596 487.492 376.596C488.54 376.596 489.328 376.196 489.856 375.396C490.384 374.596 490.648 373.352 490.648 371.664C490.648 370.56 490.544 369.644 490.336 368.916C490.128 368.18 489.812 367.632 489.388 367.272C488.964 366.904 488.42 366.72 487.756 366.72ZM501.895 360.276V374.88C501.895 375.504 502.087 375.948 502.471 376.212C502.863 376.468 503.367 376.596 503.983 376.596C504.367 376.596 504.731 376.556 505.075 376.476C505.419 376.396 505.763 376.288 506.107 376.152L506.647 377.628C506.303 377.796 505.875 377.944 505.363 378.072C504.859 378.208 504.287 378.276 503.647 378.276C502.527 378.276 501.619 377.968 500.923 377.352C500.227 376.728 499.879 375.868 499.879 374.772V361.872H496.003V360.276H501.895ZM513.381 365.364V374.316C513.381 375.148 513.553 375.748 513.897 376.116C514.241 376.484 514.777 376.668 515.505 376.668C516.201 376.668 516.857 376.472 517.473 376.08C518.097 375.68 518.581 375.208 518.925 374.664V365.364H520.941V378H519.225L519.057 376.296C518.561 376.936 517.949 377.428 517.221 377.772C516.493 378.108 515.757 378.276 515.013 378.276C513.789 378.276 512.873 377.952 512.265 377.304C511.665 376.648 511.365 375.732 511.365 374.556V365.364H513.381ZM530.052 376.608C531.02 376.608 531.784 376.428 532.344 376.068C532.912 375.7 533.196 375.212 533.196 374.604C533.196 374.22 533.124 373.888 532.98 373.608C532.844 373.328 532.56 373.076 532.128 372.852C531.696 372.628 531.032 372.404 530.136 372.18C529.264 371.964 528.504 371.716 527.856 371.436C527.216 371.148 526.716 370.776 526.356 370.32C526.004 369.864 525.828 369.272 525.828 368.544C525.828 367.832 526.028 367.22 526.428 366.708C526.836 366.188 527.4 365.792 528.12 365.52C528.84 365.24 529.676 365.1 530.628 365.1C531.644 365.1 532.528 365.236 533.28 365.508C534.04 365.772 534.684 366.1 535.212 366.492L534.324 367.86C533.844 367.532 533.316 367.264 532.74 367.056C532.164 366.84 531.468 366.732 530.652 366.732C529.66 366.732 528.956 366.888 528.54 367.2C528.124 367.504 527.916 367.9 527.916 368.388C527.916 368.756 528.016 369.064 528.216 369.312C528.424 369.552 528.772 369.772 529.26 369.972C529.748 370.164 530.42 370.376 531.276 370.608C532.1 370.824 532.816 371.084 533.424 371.388C534.04 371.692 534.52 372.092 534.864 372.588C535.208 373.084 535.38 373.724 535.38 374.508C535.38 375.404 535.124 376.132 534.612 376.692C534.1 377.244 533.436 377.648 532.62 377.904C531.812 378.152 530.956 378.276 530.052 378.276C528.908 378.276 527.932 378.112 527.124 377.784C526.324 377.448 525.652 377.044 525.108 376.572L526.26 375.24C526.756 375.648 527.324 375.98 527.964 376.236C528.612 376.484 529.308 376.608 530.052 376.608ZM562.001 360.024C562.681 360.024 563.297 360.084 563.849 360.204C564.401 360.324 564.925 360.492 565.421 360.708L564.773 362.208C564.365 362.032 563.933 361.9 563.477 361.812C563.021 361.724 562.549 361.68 562.061 361.68C561.181 361.68 560.517 361.852 560.069 362.196C559.629 362.54 559.409 363.068 559.409 363.78V366.348H563.693L563.477 367.932H559.409V378H557.393V367.932H554.381V366.348H557.393V363.828C557.393 363.044 557.593 362.368 557.993 361.8C558.401 361.232 558.953 360.796 559.649 360.492C560.345 360.18 561.129 360.024 562.001 360.024ZM573.74 365.1C574.932 365.1 575.928 365.372 576.728 365.916C577.536 366.452 578.14 367.212 578.54 368.196C578.948 369.18 579.152 370.34 579.152 371.676C579.152 372.964 578.944 374.104 578.528 375.096C578.112 376.088 577.5 376.868 576.692 377.436C575.892 377.996 574.9 378.276 573.716 378.276C572.532 378.276 571.536 378.004 570.728 377.46C569.92 376.916 569.308 376.152 568.892 375.168C568.484 374.176 568.28 373.02 568.28 371.7C568.28 370.396 568.488 369.248 568.904 368.256C569.32 367.264 569.932 366.492 570.74 365.94C571.556 365.38 572.556 365.1 573.74 365.1ZM573.74 366.744C572.652 366.744 571.828 367.148 571.268 367.956C570.716 368.756 570.44 370.004 570.44 371.7C570.44 373.364 570.712 374.6 571.256 375.408C571.808 376.216 572.628 376.62 573.716 376.62C574.804 376.62 575.62 376.216 576.164 375.408C576.716 374.6 576.992 373.356 576.992 371.676C576.992 369.996 576.72 368.756 576.176 367.956C575.632 367.148 574.82 366.744 573.74 366.744ZM583.438 378V376.452H585.406V366.912H583.438V365.364H586.942L587.314 368.352C587.802 367.312 588.394 366.508 589.09 365.94C589.786 365.372 590.706 365.088 591.85 365.088C592.202 365.088 592.514 365.116 592.786 365.172C593.066 365.22 593.35 365.284 593.638 365.364L593.05 367.164C592.786 367.092 592.546 367.04 592.33 367.008C592.114 366.968 591.866 366.948 591.586 366.948C590.618 366.948 589.786 367.292 589.09 367.98C588.394 368.668 587.838 369.708 587.422 371.1V376.452H589.99V378H583.438ZM591.694 369.636V366.888L591.898 365.364H593.638L593.35 369.636H591.694ZM607.741 377.364C607.309 377.652 606.785 377.876 606.169 378.036C605.553 378.196 604.949 378.276 604.357 378.276C602.997 378.276 601.949 377.92 601.213 377.208C600.477 376.496 600.109 375.58 600.109 374.46V366.924H597.205V365.364H600.109V362.496L602.125 362.256V365.364H606.493L606.253 366.924H602.125V374.436C602.125 375.14 602.309 375.676 602.677 376.044C603.053 376.412 603.673 376.596 604.537 376.596C605.009 376.596 605.445 376.54 605.845 376.428C606.245 376.316 606.617 376.172 606.961 375.996L607.741 377.364Z" fill="black"/>
<line x1="437" y1="311.5" x2="791" y2="311.5" stroke="black" stroke-width="3"/>
<path d="M440.252 298V281.476H442.34V296.14H449.876L449.636 298H440.252ZM455.387 292.396C455.427 293.372 455.615 294.172 455.951 294.796C456.287 295.412 456.731 295.868 457.283 296.164C457.835 296.452 458.435 296.596 459.083 296.596C459.731 296.596 460.315 296.5 460.835 296.308C461.363 296.116 461.903 295.832 462.455 295.456L463.403 296.788C462.811 297.252 462.135 297.616 461.375 297.88C460.623 298.144 459.851 298.276 459.059 298.276C457.835 298.276 456.791 298 455.927 297.448C455.063 296.896 454.403 296.128 453.947 295.144C453.499 294.152 453.275 293.004 453.275 291.7C453.275 290.42 453.503 289.284 453.959 288.292C454.415 287.3 455.055 286.52 455.879 285.952C456.703 285.384 457.675 285.1 458.795 285.1C459.859 285.1 460.775 285.352 461.543 285.856C462.311 286.352 462.899 287.064 463.307 287.992C463.723 288.912 463.931 290.012 463.931 291.292C463.931 291.508 463.927 291.712 463.919 291.904C463.911 292.088 463.899 292.252 463.883 292.396H455.387ZM458.819 286.756C457.883 286.756 457.099 287.088 456.467 287.752C455.843 288.416 455.487 289.444 455.399 290.836H461.987C461.963 289.484 461.667 288.468 461.099 287.788C460.531 287.1 459.771 286.756 458.819 286.756ZM488.236 285.1C489.356 285.1 490.248 285.372 490.912 285.916C491.584 286.46 492.068 287.228 492.364 288.22C492.66 289.204 492.808 290.356 492.808 291.676C492.808 292.948 492.628 294.084 492.268 295.084C491.916 296.076 491.38 296.856 490.66 297.424C489.94 297.992 489.032 298.276 487.936 298.276C486.552 298.276 485.44 297.788 484.6 296.812V302.836L482.584 303.088V285.364H484.3L484.468 287.128C484.932 286.48 485.484 285.98 486.124 285.628C486.772 285.276 487.476 285.1 488.236 285.1ZM487.756 286.72C487.06 286.72 486.444 286.932 485.908 287.356C485.38 287.772 484.944 288.236 484.6 288.748V295.012C484.928 295.5 485.34 295.888 485.836 296.176C486.34 296.456 486.892 296.596 487.492 296.596C488.54 296.596 489.328 296.196 489.856 295.396C490.384 294.596 490.648 293.352 490.648 291.664C490.648 290.56 490.544 289.644 490.336 288.916C490.128 288.18 489.812 287.632 489.388 287.272C488.964 286.904 488.42 286.72 487.756 286.72ZM501.895 280.276V294.88C501.895 295.504 502.087 295.948 502.471 296.212C502.863 296.468 503.367 296.596 503.983 296.596C504.367 296.596 504.731 296.556 505.075 296.476C505.419 296.396 505.763 296.288 506.107 296.152L506.647 297.628C506.303 297.796 505.875 297.944 505.363 298.072C504.859 298.208 504.287 298.276 503.647 298.276C502.527 298.276 501.619 297.968 500.923 297.352C500.227 296.728 499.879 295.868 499.879 294.772V281.872H496.003V280.276H501.895ZM513.381 285.364V294.316C513.381 295.148 513.553 295.748 513.897 296.116C514.241 296.484 514.777 296.668 515.505 296.668C516.201 296.668 516.857 296.472 517.473 296.08C518.097 295.68 518.581 295.208 518.925 294.664V285.364H520.941V298H519.225L519.057 296.296C518.561 296.936 517.949 297.428 517.221 297.772C516.493 298.108 515.757 298.276 515.013 298.276C513.789 298.276 512.873 297.952 512.265 297.304C511.665 296.648 511.365 295.732 511.365 294.556V285.364H513.381ZM530.052 296.608C531.02 296.608 531.784 296.428 532.344 296.068C532.912 295.7 533.196 295.212 533.196 294.604C533.196 294.22 533.124 293.888 532.98 293.608C532.844 293.328 532.56 293.076 532.128 292.852C531.696 292.628 531.032 292.404 530.136 292.18C529.264 291.964 528.504 291.716 527.856 291.436C527.216 291.148 526.716 290.776 526.356 290.32C526.004 289.864 525.828 289.272 525.828 288.544C525.828 287.832 526.028 287.22 526.428 286.708C526.836 286.188 527.4 285.792 528.12 285.52C528.84 285.24 529.676 285.1 530.628 285.1C531.644 285.1 532.528 285.236 533.28 285.508C534.04 285.772 534.684 286.1 535.212 286.492L534.324 287.86C533.844 287.532 533.316 287.264 532.74 287.056C532.164 286.84 531.468 286.732 530.652 286.732C529.66 286.732 528.956 286.888 528.54 287.2C528.124 287.504 527.916 287.9 527.916 288.388C527.916 288.756 528.016 289.064 528.216 289.312C528.424 289.552 528.772 289.772 529.26 289.972C529.748 290.164 530.42 290.376 531.276 290.608C532.1 290.824 532.816 291.084 533.424 291.388C534.04 291.692 534.52 292.092 534.864 292.588C535.208 293.084 535.38 293.724 535.38 294.508C535.38 295.404 535.124 296.132 534.612 296.692C534.1 297.244 533.436 297.648 532.62 297.904C531.812 298.152 530.956 298.276 530.052 298.276C528.908 298.276 527.932 298.112 527.124 297.784C526.324 297.448 525.652 297.044 525.108 296.572L526.26 295.24C526.756 295.648 527.324 295.98 527.964 296.236C528.612 296.484 529.308 296.608 530.052 296.608ZM556.553 287.008C557.017 286.4 557.549 285.932 558.149 285.604C558.757 285.268 559.425 285.1 560.153 285.1C561.281 285.1 562.193 285.372 562.889 285.916C563.585 286.46 564.093 287.228 564.413 288.22C564.733 289.204 564.893 290.356 564.893 291.676C564.893 292.948 564.701 294.084 564.317 295.084C563.933 296.076 563.369 296.856 562.625 297.424C561.889 297.992 560.977 298.276 559.889 298.276C558.425 298.276 557.277 297.748 556.445 296.692L556.301 298H554.537V280.276L556.553 280.024V287.008ZM559.409 296.644C560.465 296.644 561.277 296.236 561.845 295.42C562.413 294.604 562.697 293.352 562.697 291.664C562.697 290.56 562.585 289.644 562.361 288.916C562.137 288.18 561.801 287.632 561.353 287.272C560.913 286.904 560.369 286.72 559.721 286.72C559.017 286.72 558.397 286.932 557.861 287.356C557.333 287.772 556.897 288.236 556.553 288.748V295.012C556.881 295.508 557.293 295.904 557.789 296.2C558.293 296.496 558.833 296.644 559.409 296.644ZM570.512 292.396C570.552 293.372 570.74 294.172 571.076 294.796C571.412 295.412 571.856 295.868 572.408 296.164C572.96 296.452 573.56 296.596 574.208 296.596C574.856 296.596 575.44 296.5 575.96 296.308C576.488 296.116 577.028 295.832 577.58 295.456L578.528 296.788C577.936 297.252 577.26 297.616 576.5 297.88C575.748 298.144 574.976 298.276 574.184 298.276C572.96 298.276 571.916 298 571.052 297.448C570.188 296.896 569.528 296.128 569.072 295.144C568.624 294.152 568.4 293.004 568.4 291.7C568.4 290.42 568.628 289.284 569.084 288.292C569.54 287.3 570.18 286.52 571.004 285.952C571.828 285.384 572.8 285.1 573.92 285.1C574.984 285.1 575.9 285.352 576.668 285.856C577.436 286.352 578.024 287.064 578.432 287.992C578.848 288.912 579.056 290.012 579.056 291.292C579.056 291.508 579.052 291.712 579.044 291.904C579.036 292.088 579.024 292.252 579.008 292.396H570.512ZM573.944 286.756C573.008 286.756 572.224 287.088 571.592 287.752C570.968 288.416 570.612 289.444 570.524 290.836H577.112C577.088 289.484 576.792 288.468 576.224 287.788C575.656 287.1 574.896 286.756 573.944 286.756ZM592.366 295.24C592.366 295.744 592.45 296.112 592.618 296.344C592.786 296.576 593.046 296.748 593.398 296.86L592.906 298.276C592.362 298.204 591.886 298.032 591.478 297.76C591.07 297.48 590.774 297.06 590.59 296.5C590.134 297.084 589.566 297.528 588.886 297.832C588.206 298.128 587.454 298.276 586.63 298.276C585.366 298.276 584.37 297.92 583.642 297.208C582.914 296.496 582.55 295.552 582.55 294.376C582.55 293.072 583.058 292.072 584.074 291.376C585.09 290.68 586.558 290.332 588.478 290.332H590.338V289.276C590.338 288.364 590.07 287.72 589.534 287.344C589.006 286.96 588.27 286.768 587.326 286.768C586.91 286.768 586.422 286.82 585.862 286.924C585.302 287.02 584.694 287.184 584.038 287.416L583.51 285.892C584.286 285.604 585.014 285.4 585.694 285.28C586.374 285.16 587.022 285.1 587.638 285.1C589.214 285.1 590.394 285.468 591.178 286.204C591.97 286.932 592.366 287.924 592.366 289.18V295.24ZM587.146 296.74C587.77 296.74 588.366 296.584 588.934 296.272C589.502 295.952 589.97 295.512 590.338 294.952V291.7H588.514C587.122 291.7 586.138 291.94 585.562 292.42C584.994 292.9 584.71 293.544 584.71 294.352C584.71 295.136 584.91 295.732 585.31 296.14C585.718 296.54 586.33 296.74 587.146 296.74ZM599.725 285.364V294.316C599.725 295.148 599.897 295.748 600.241 296.116C600.585 296.484 601.121 296.668 601.849 296.668C602.545 296.668 603.201 296.472 603.817 296.08C604.441 295.68 604.925 295.208 605.269 294.664V285.364H607.285V298H605.569L605.401 296.296C604.905 296.936 604.293 297.428 603.565 297.772C602.837 298.108 602.101 298.276 601.357 298.276C600.133 298.276 599.217 297.952 598.609 297.304C598.009 296.648 597.709 295.732 597.709 294.556V285.364H599.725Z" fill="black"/>
<line x1="437" y1="231.5" x2="791" y2="231.5" stroke="black" stroke-width="3"/>
<path d="M448.136 206.576C448.136 205.72 447.968 205.044 447.632 204.548C447.296 204.044 446.836 203.684 446.252 203.468C445.668 203.244 445 203.132 444.248 203.132H441.86V210.188H444.164C444.94 210.188 445.624 210.084 446.216 209.876C446.808 209.66 447.276 209.292 447.62 208.772C447.964 208.244 448.136 207.512 448.136 206.576ZM450.368 206.552C450.368 207.84 450.092 208.872 449.54 209.648C448.996 210.424 448.244 210.988 447.284 211.34C446.324 211.692 445.22 211.868 443.972 211.868H441.86V218H439.772V201.476H443.996C445.964 201.476 447.516 201.892 448.652 202.724C449.796 203.548 450.368 204.824 450.368 206.552ZM464.315 205.364L459.875 218.084C459.579 218.94 459.203 219.724 458.747 220.436C458.299 221.148 457.711 221.736 456.983 222.2C456.263 222.672 455.347 222.964 454.235 223.076L453.923 221.468C454.795 221.324 455.483 221.104 455.987 220.808C456.491 220.512 456.887 220.132 457.175 219.668C457.471 219.204 457.731 218.648 457.955 218H457.283L452.867 205.364H455.027L458.651 216.464L462.227 205.364H464.315ZM478.225 217.364C477.793 217.652 477.269 217.876 476.653 218.036C476.037 218.196 475.433 218.276 474.841 218.276C473.481 218.276 472.433 217.92 471.697 217.208C470.961 216.496 470.593 215.58 470.593 214.46V206.924H467.689V205.364H470.593V202.496L472.609 202.256V205.364H476.977L476.737 206.924H472.609V214.436C472.609 215.14 472.793 215.676 473.161 216.044C473.537 216.412 474.157 216.596 475.021 216.596C475.493 216.596 475.929 216.54 476.329 216.428C476.729 216.316 477.101 216.172 477.445 215.996L478.225 217.364ZM484.6 200.084V207.092C485.096 206.428 485.704 205.932 486.424 205.604C487.152 205.268 487.888 205.1 488.632 205.1C489.864 205.1 490.764 205.428 491.332 206.084C491.9 206.74 492.184 207.652 492.184 208.82V218H490.168V208.868C490.168 208.108 489.992 207.556 489.64 207.212C489.288 206.86 488.736 206.684 487.984 206.684C487.504 206.684 487.048 206.792 486.616 207.008C486.184 207.224 485.796 207.492 485.452 207.812C485.108 208.132 484.824 208.46 484.6 208.796V218H482.584V200.3L484.6 200.084ZM501.787 205.1C502.979 205.1 503.975 205.372 504.775 205.916C505.583 206.452 506.187 207.212 506.587 208.196C506.995 209.18 507.199 210.34 507.199 211.676C507.199 212.964 506.991 214.104 506.575 215.096C506.159 216.088 505.547 216.868 504.739 217.436C503.939 217.996 502.947 218.276 501.763 218.276C500.579 218.276 499.583 218.004 498.775 217.46C497.967 216.916 497.355 216.152 496.939 215.168C496.531 214.176 496.326 213.02 496.326 211.7C496.326 210.396 496.535 209.248 496.951 208.256C497.367 207.264 497.979 206.492 498.787 205.94C499.603 205.38 500.603 205.1 501.787 205.1ZM501.787 206.744C500.699 206.744 499.875 207.148 499.315 207.956C498.763 208.756 498.487 210.004 498.487 211.7C498.487 213.364 498.759 214.6 499.303 215.408C499.855 216.216 500.675 216.62 501.763 216.62C502.851 216.62 503.667 216.216 504.211 215.408C504.763 214.6 505.039 213.356 505.039 211.676C505.039 209.996 504.767 208.756 504.223 207.956C503.679 207.148 502.867 206.744 501.787 206.744ZM511.365 218V205.364H513.081L513.237 207.116C513.749 206.468 514.389 205.972 515.157 205.628C515.933 205.276 516.685 205.1 517.413 205.1C518.653 205.1 519.553 205.428 520.113 206.084C520.681 206.74 520.965 207.652 520.965 208.82V218H518.949V210.308C518.949 209.444 518.901 208.748 518.805 208.22C518.709 207.684 518.509 207.296 518.205 207.056C517.901 206.808 517.429 206.684 516.789 206.684C516.293 206.684 515.825 206.792 515.385 207.008C514.953 207.224 514.565 207.496 514.221 207.824C513.885 208.144 513.605 208.468 513.381 208.796V218H511.365Z" fill="black"/>
<line x1="41" y1="151.5" x2="395" y2="151.5" stroke="black" stroke-width="3"/>
<path d="M49.592 121.212C50.672 121.212 51.576 121.348 52.304 121.62C53.032 121.892 53.724 122.292 54.38 122.82L53.216 124.176C52.696 123.736 52.144 123.424 51.56 123.24C50.984 123.048 50.38 122.952 49.748 122.952C48.844 122.952 48.008 123.168 47.24 123.6C46.472 124.024 45.852 124.732 45.38 125.724C44.916 126.708 44.684 128.044 44.684 129.732C44.684 131.372 44.904 132.688 45.344 133.68C45.792 134.672 46.396 135.388 47.156 135.828C47.916 136.268 48.764 136.488 49.7 136.488C50.628 136.488 51.388 136.348 51.98 136.068C52.58 135.788 53.1 135.468 53.54 135.108L54.62 136.476C54.116 136.964 53.46 137.388 52.652 137.748C51.844 138.1 50.852 138.276 49.676 138.276C48.34 138.276 47.128 137.948 46.04 137.292C44.96 136.636 44.104 135.676 43.472 134.412C42.84 133.14 42.524 131.58 42.524 129.732C42.524 127.876 42.844 126.316 43.484 125.052C44.132 123.788 44.992 122.832 46.064 122.184C47.144 121.536 48.32 121.212 49.592 121.212ZM64.6932 131.388V136.14H62.8092V131.388H58.1532V129.696H62.8092V124.908H64.6932V129.696H74.8093V124.908H76.6933V129.696H81.4093V131.388H76.6933V136.14H74.8093V131.388H64.6932Z" fill="black"/>
<line x1="41" y1="391.5" x2="395" y2="391.5" stroke="black" stroke-width="3"/>
<path d="M51.32 378V370.164H45.08V378H43.004V361.476H45.08V368.46H51.32V361.476H53.396V378H51.32ZM63.5866 363.264V378H61.5106V363.264H56.3506V361.476H68.8186L68.6026 363.264H63.5866ZM82.5133 361.476L83.4493 378H81.4453L80.9293 369.372C80.9053 368.788 80.8813 368.196 80.8573 367.596C80.8333 366.996 80.8173 366.42 80.8093 365.868C80.8013 365.316 80.7973 364.824 80.7973 364.392C80.7973 363.96 80.7973 363.624 80.7973 363.384L78.0133 375.036H75.9253L72.9373 363.384C72.9453 363.616 72.9533 363.96 72.9613 364.416C72.9693 364.864 72.9733 365.372 72.9733 365.94C72.9813 366.508 72.9773 367.092 72.9613 367.692C72.9533 368.284 72.9373 368.836 72.9133 369.348L72.4693 378H70.5133L71.4493 361.476H74.3533L77.0293 372.792L79.5853 361.476H82.5133ZM87.4239 378V361.476H89.5119V376.14H97.0479L96.8079 378H87.4239Z" fill="black"/>
<line x1="41" y1="311.5" x2="395" y2="311.5" stroke="black" stroke-width="3"/>
<path d="M52.916 281.476V292.516C52.916 293.204 52.824 293.892 52.64 294.58C52.464 295.26 52.16 295.88 51.728 296.44C51.304 296.992 50.728 297.436 50 297.772C49.272 298.108 48.364 298.276 47.276 298.276C46.468 298.276 45.672 298.148 44.888 297.892C44.112 297.636 43.396 297.264 42.74 296.776L43.664 295.396C44.384 295.844 45.04 296.148 45.632 296.308C46.224 296.46 46.764 296.536 47.252 296.536C48.404 296.536 49.288 296.168 49.904 295.432C50.528 294.696 50.84 293.684 50.84 292.396V283.18H45.944V281.476H52.916ZM68.2666 293.428C68.2666 294.372 68.0306 295.212 67.5586 295.948C67.0866 296.676 66.4026 297.248 65.5066 297.664C64.6106 298.072 63.5186 298.276 62.2306 298.276C61.0226 298.276 59.9266 298.092 58.9426 297.724C57.9666 297.356 57.1306 296.836 56.4346 296.164L57.6706 294.772C58.2466 295.308 58.9066 295.736 59.6506 296.056C60.3946 296.368 61.2666 296.524 62.2666 296.524C62.9386 296.524 63.5666 296.416 64.1506 296.2C64.7346 295.976 65.2066 295.64 65.5666 295.192C65.9266 294.736 66.1066 294.16 66.1066 293.464C66.1066 292.928 66.0026 292.472 65.7946 292.096C65.5866 291.72 65.2186 291.388 64.6906 291.1C64.1626 290.804 63.4266 290.516 62.4826 290.236C61.3946 289.916 60.4506 289.556 59.6506 289.156C58.8586 288.748 58.2426 288.248 57.8026 287.656C57.3706 287.064 57.1546 286.332 57.1546 285.46C57.1546 284.636 57.3826 283.904 57.8386 283.264C58.2946 282.624 58.9226 282.124 59.7226 281.764C60.5306 281.396 61.4586 281.212 62.5066 281.212C63.6506 281.212 64.6426 281.376 65.4826 281.704C66.3306 282.024 67.0986 282.488 67.7866 283.096L66.5626 284.452C65.9706 283.924 65.3346 283.544 64.6546 283.312C63.9746 283.072 63.2826 282.952 62.5786 282.952C61.9786 282.952 61.4266 283.044 60.9226 283.228C60.4266 283.404 60.0266 283.672 59.7226 284.032C59.4266 284.384 59.2786 284.836 59.2786 285.388C59.2786 285.86 59.4066 286.268 59.6626 286.612C59.9186 286.956 60.3506 287.272 60.9586 287.56C61.5666 287.84 62.3946 288.136 63.4426 288.448C64.2986 288.696 65.0906 289.008 65.8186 289.384C66.5546 289.752 67.1466 290.256 67.5946 290.896C68.0426 291.528 68.2666 292.372 68.2666 293.428Z" fill="black"/>
<line x1="41" y1="231.5" x2="395" y2="231.5" stroke="black" stroke-width="3"/>
<path d="M49.592 201.212C50.672 201.212 51.576 201.348 52.304 201.62C53.032 201.892 53.724 202.292 54.38 202.82L53.216 204.176C52.696 203.736 52.144 203.424 51.56 203.24C50.984 203.048 50.38 202.952 49.748 202.952C48.844 202.952 48.008 203.168 47.24 203.6C46.472 204.024 45.852 204.732 45.38 205.724C44.916 206.708 44.684 208.044 44.684 209.732C44.684 211.372 44.904 212.688 45.344 213.68C45.792 214.672 46.396 215.388 47.156 215.828C47.916 216.268 48.764 216.488 49.7 216.488C50.628 216.488 51.388 216.348 51.98 216.068C52.58 215.788 53.1 215.468 53.54 215.108L54.62 216.476C54.116 216.964 53.46 217.388 52.652 217.748C51.844 218.1 50.852 218.276 49.676 218.276C48.34 218.276 47.128 217.948 46.04 217.292C44.96 216.636 44.104 215.676 43.472 214.412C42.84 213.14 42.524 211.58 42.524 209.732C42.524 207.876 42.844 206.316 43.484 205.052C44.132 203.788 44.992 202.832 46.064 202.184C47.144 201.536 48.32 201.212 49.592 201.212Z" fill="black"/>
<path d="M27.668 61V31.008H34.752L37.696 41.634L38.708 45.774H38.892L39.904 41.634L42.848 31.008H49.932V61H44.228V51.708C44.228 50.88 44.2587 49.8527 44.32 48.626C44.3813 47.3687 44.458 46.0653 44.55 44.716C44.642 43.3667 44.734 42.0787 44.826 40.852C44.9487 39.6253 45.0407 38.6133 45.102 37.816H44.964L42.664 45.82L40.364 53.042H37.052L34.706 45.82L32.544 37.816H32.406C32.4673 38.6133 32.544 39.6253 32.636 40.852C32.7587 42.0787 32.866 43.3667 32.958 44.716C33.05 46.0653 33.1267 47.3687 33.188 48.626C33.2493 49.8527 33.28 50.88 33.28 51.708V61H27.668ZM67.762 61.552C65.4007 61.552 63.254 61.092 61.322 60.172C59.4207 59.2213 57.9027 57.8567 56.768 56.078C55.664 54.2687 55.112 52.1067 55.112 49.592C55.112 47.108 55.6794 44.9767 56.814 43.198C57.9487 41.3887 59.4207 40.0087 61.23 39.058C63.0394 38.1073 64.956 37.632 66.98 37.632C69.3414 37.632 71.3194 38.1227 72.914 39.104C74.5087 40.0547 75.7047 41.358 76.502 43.014C77.33 44.6393 77.744 46.4947 77.744 48.58C77.744 49.1933 77.698 49.7913 77.606 50.374C77.5447 50.926 77.4834 51.34 77.422 51.616H60.126V47.062H72.868L71.81 48.35C71.81 46.51 71.4114 45.13 70.614 44.21C69.8474 43.2593 68.7127 42.784 67.21 42.784C66.106 42.784 65.14 43.0293 64.312 43.52C63.484 44.0107 62.84 44.762 62.38 45.774C61.92 46.786 61.69 48.0587 61.69 49.592C61.69 51.156 61.966 52.444 62.518 53.456C63.07 54.4373 63.8674 55.1733 64.91 55.664C65.9527 56.1547 67.21 56.4 68.682 56.4C69.7247 56.4 70.706 56.262 71.626 55.986C72.5767 55.71 73.558 55.3113 74.57 54.79L76.824 58.884C75.5054 59.712 74.0487 60.3713 72.454 60.862C70.8594 61.322 69.2954 61.552 67.762 61.552ZM93.7801 61.552C91.7561 61.552 89.7474 61.2147 87.7541 60.54C85.7607 59.8347 84.0434 59.0067 82.6021 58.056L85.5001 53.824C86.8801 54.7133 88.3367 55.388 89.8701 55.848C91.4341 56.308 93.0441 56.538 94.7001 56.538C95.9574 56.538 96.8774 56.354 97.4601 55.986C98.0427 55.5873 98.3341 55.1273 98.3341 54.606C98.3341 54.2687 98.2421 53.9927 98.0581 53.778C97.9047 53.5327 97.6134 53.318 97.1841 53.134C96.7854 52.9193 96.2181 52.72 95.4821 52.536C94.7767 52.352 93.8567 52.1373 92.7221 51.892C89.6247 51.2173 87.4014 50.2973 86.0521 49.132C84.7027 47.9667 84.0281 46.51 84.0281 44.762C84.0281 42.6153 84.9634 40.898 86.8341 39.61C88.7047 38.2913 91.2654 37.632 94.5161 37.632C96.5707 37.632 98.4261 37.9693 100.082 38.644C101.769 39.288 103.21 39.9933 104.406 40.76L101.37 44.808C100.235 44.1027 99.0241 43.566 97.7361 43.198C96.4481 42.83 95.1754 42.646 93.9181 42.646C93.2127 42.646 92.6301 42.7227 92.1701 42.876C91.7101 42.9987 91.3574 43.2133 91.1121 43.52C90.8667 43.796 90.7441 44.1027 90.7441 44.44C90.7441 45.0533 91.1427 45.5133 91.9401 45.82C92.7374 46.096 94.1021 46.4487 96.0341 46.878C98.3647 47.3993 100.189 47.9973 101.508 48.672C102.827 49.3467 103.731 50.1287 104.222 51.018C104.743 51.8767 105.004 52.9347 105.004 54.192C105.004 55.572 104.575 56.814 103.716 57.918C102.888 59.022 101.631 59.9113 99.9441 60.586C98.2881 61.23 96.2334 61.552 93.7801 61.552ZM148.944 61.552C146.92 61.552 144.911 61.2147 142.918 60.54C140.925 59.8347 139.207 59.0067 137.766 58.056L140.664 53.824C142.044 54.7133 143.501 55.388 145.034 55.848C146.598 56.308 148.208 56.538 149.864 56.538C151.121 56.538 152.041 56.354 152.624 55.986C153.207 55.5873 153.498 55.1273 153.498 54.606C153.498 54.2687 153.406 53.9927 153.222 53.778C153.069 53.5327 152.777 53.318 152.348 53.134C151.949 52.9193 151.382 52.72 150.646 52.536C149.941 52.352 149.021 52.1373 147.886 51.892C144.789 51.2173 142.565 50.2973 141.216 49.132C139.867 47.9667 139.192 46.51 139.192 44.762C139.192 42.6153 140.127 40.898 141.998 39.61C143.869 38.2913 146.429 37.632 149.68 37.632C151.735 37.632 153.59 37.9693 155.246 38.644C156.933 39.288 158.374 39.9933 159.57 40.76L156.534 44.808C155.399 44.1027 154.188 43.566 152.9 43.198C151.612 42.83 150.339 42.646 149.082 42.646C148.377 42.646 147.794 42.7227 147.334 42.876C146.874 42.9987 146.521 43.2133 146.276 43.52C146.031 43.796 145.908 44.1027 145.908 44.44C145.908 45.0533 146.307 45.5133 147.104 45.82C147.901 46.096 149.266 46.4487 151.198 46.878C153.529 47.3993 155.353 47.9973 156.672 48.672C157.991 49.3467 158.895 50.1287 159.386 51.018C159.907 51.8767 160.168 52.9347 160.168 54.192C160.168 55.572 159.739 56.814 158.88 57.918C158.052 59.022 156.795 59.9113 155.108 60.586C153.452 61.23 151.397 61.552 148.944 61.552ZM166.406 61V28.754H173.168V47.384H173.352L181.724 38.184H189.13L173.168 55.25V61H166.406ZM182.506 61L175.882 50.65L179.746 46.464L189.82 61H182.506ZM203.28 61V43.474H194.08V38.184H210.042V61H203.28ZM206.362 34.596C205.074 34.596 204.001 34.228 203.142 33.492C202.284 32.7253 201.854 31.7287 201.854 30.502C201.854 29.2447 202.284 28.2327 203.142 27.466C204.001 26.6687 205.074 26.27 206.362 26.27C207.681 26.27 208.754 26.6687 209.582 27.466C210.441 28.2327 210.87 29.2447 210.87 30.502C210.87 31.7287 210.441 32.7253 209.582 33.492C208.754 34.228 207.681 34.596 206.362 34.596ZM236.244 61.552C233.392 61.552 231.23 60.6933 229.758 58.976C228.286 57.2587 227.55 54.9587 227.55 52.076V34.09H220.42V28.8H234.312V52.352C234.312 53.7627 234.696 54.744 235.462 55.296C236.229 55.8173 237.072 56.078 237.992 56.078C238.544 56.078 239.096 56.0167 239.648 55.894C240.231 55.7713 240.875 55.5873 241.58 55.342L243.052 60.31C241.887 60.678 240.814 60.9693 239.832 61.184C238.882 61.4293 237.686 61.552 236.244 61.552ZM263.826 61.552C260.974 61.552 258.812 60.6933 257.34 58.976C255.868 57.2587 255.132 54.9587 255.132 52.076V34.09H248.002V28.8H261.894V52.352C261.894 53.7627 262.278 54.744 263.044 55.296C263.811 55.8173 264.654 56.078 265.574 56.078C266.126 56.078 266.678 56.0167 267.23 55.894C267.813 55.7713 268.457 55.5873 269.162 55.342L270.634 60.31C269.469 60.678 268.396 60.9693 267.414 61.184C266.464 61.4293 265.268 61.552 263.826 61.552ZM286.854 61.552C284.83 61.552 282.822 61.2147 280.828 60.54C278.835 59.8347 277.118 59.0067 275.676 58.056L278.574 53.824C279.954 54.7133 281.411 55.388 282.944 55.848C284.508 56.308 286.118 56.538 287.774 56.538C289.032 56.538 289.952 56.354 290.534 55.986C291.117 55.5873 291.408 55.1273 291.408 54.606C291.408 54.2687 291.316 53.9927 291.132 53.778C290.979 53.5327 290.688 53.318 290.258 53.134C289.86 52.9193 289.292 52.72 288.556 52.536C287.851 52.352 286.931 52.1373 285.796 51.892C282.699 51.2173 280.476 50.2973 279.126 49.132C277.777 47.9667 277.102 46.51 277.102 44.762C277.102 42.6153 278.038 40.898 279.908 39.61C281.779 38.2913 284.34 37.632 287.59 37.632C289.645 37.632 291.5 37.9693 293.156 38.644C294.843 39.288 296.284 39.9933 297.48 40.76L294.444 44.808C293.31 44.1027 292.098 43.566 290.81 43.198C289.522 42.83 288.25 42.646 286.992 42.646C286.287 42.646 285.704 42.7227 285.244 42.876C284.784 42.9987 284.432 43.2133 284.186 43.52C283.941 43.796 283.818 44.1027 283.818 44.44C283.818 45.0533 284.217 45.5133 285.014 45.82C285.812 46.096 287.176 46.4487 289.108 46.878C291.439 47.3993 293.264 47.9973 294.582 48.672C295.901 49.3467 296.806 50.1287 297.296 51.018C297.818 51.8767 298.078 52.9347 298.078 54.192C298.078 55.572 297.649 56.814 296.79 57.918C295.962 59.022 294.705 59.9113 293.018 60.586C291.362 61.23 289.308 61.552 286.854 61.552Z" fill="black"/>
</svg>
