<svg width="1000" height="500" viewBox="0 0 1000 500" fill="none" xmlns="http://www.w3.org/2000/svg">
<rect width="1000" height="500" fill="white"/>
<path d="M303.348 305V303.864H305.956V295.624H303.348V294.504H309.908V295.624H307.3V303.864H309.908V305H303.348ZM317.918 305.192C317.097 305.192 316.467 304.957 316.03 304.488C315.593 304.008 315.374 303.309 315.374 302.392V294.68H312.718V293.608H316.686V302.488C316.686 303.053 316.825 303.464 317.102 303.72C317.379 303.976 317.747 304.104 318.206 304.104C318.43 304.104 318.659 304.077 318.894 304.024C319.129 303.96 319.39 303.864 319.678 303.736L320.014 304.728C319.662 304.856 319.331 304.963 319.022 305.048C318.713 305.144 318.345 305.192 317.918 305.192ZM335.569 305.192C334.812 305.192 334.103 305.069 333.441 304.824C332.78 304.579 332.215 304.296 331.745 303.976L332.353 303.112C332.801 303.432 333.297 303.688 333.841 303.88C334.385 304.072 335.015 304.168 335.729 304.168C336.391 304.168 336.881 304.045 337.201 303.8C337.532 303.555 337.697 303.272 337.697 302.952C337.697 302.803 337.665 302.664 337.601 302.536C337.548 302.408 337.436 302.285 337.265 302.168C337.105 302.051 336.865 301.939 336.545 301.832C336.225 301.725 335.799 301.619 335.265 301.512C334.252 301.299 333.489 301.011 332.977 300.648C332.476 300.285 332.225 299.816 332.225 299.24C332.225 298.611 332.497 298.088 333.041 297.672C333.585 297.245 334.391 297.032 335.457 297.032C336.055 297.032 336.631 297.133 337.185 297.336C337.74 297.528 338.209 297.757 338.593 298.024L337.953 298.872C337.601 298.616 337.201 298.419 336.753 298.28C336.305 298.131 335.836 298.056 335.345 298.056C334.897 298.056 334.54 298.109 334.273 298.216C334.017 298.312 333.831 298.445 333.713 298.616C333.607 298.787 333.553 298.973 333.553 299.176C333.553 299.507 333.729 299.768 334.081 299.96C334.444 300.141 335.02 300.312 335.809 300.472C336.673 300.653 337.335 300.856 337.793 301.08C338.263 301.304 338.583 301.56 338.753 301.848C338.935 302.136 339.025 302.477 339.025 302.872C339.025 303.299 338.892 303.688 338.625 304.04C338.359 304.381 337.969 304.659 337.457 304.872C336.945 305.085 336.316 305.192 335.569 305.192ZM345.483 305.192C344.704 305.192 343.995 305.032 343.355 304.712C342.726 304.392 342.224 303.928 341.851 303.32C341.478 302.701 341.291 301.96 341.291 301.096C341.291 300.253 341.478 299.528 341.851 298.92C342.224 298.312 342.71 297.848 343.307 297.528C343.915 297.197 344.566 297.032 345.259 297.032C346.006 297.032 346.64 297.187 347.163 297.496C347.696 297.795 348.102 298.216 348.379 298.76C348.667 299.304 348.811 299.944 348.811 300.68C348.811 300.829 348.806 300.973 348.795 301.112C348.784 301.251 348.768 301.373 348.747 301.48H342.171V300.456H347.963L347.627 300.824C347.627 299.907 347.414 299.219 346.987 298.76C346.571 298.301 346.006 298.072 345.291 298.072C344.811 298.072 344.363 298.189 343.947 298.424C343.542 298.659 343.216 299 342.971 299.448C342.726 299.896 342.603 300.445 342.603 301.096C342.603 301.768 342.736 302.328 343.003 302.776C343.27 303.224 343.632 303.565 344.091 303.8C344.55 304.024 345.067 304.136 345.643 304.136C346.112 304.136 346.534 304.072 346.907 303.944C347.291 303.805 347.659 303.624 348.011 303.4L348.491 304.264C348.107 304.52 347.664 304.739 347.163 304.92C346.672 305.101 346.112 305.192 345.483 305.192ZM350.725 305V297.224H351.781L351.893 298.248H351.925C352.128 297.885 352.362 297.592 352.629 297.368C352.896 297.144 353.253 297.032 353.701 297.032C354.085 297.032 354.4 297.144 354.645 297.368C354.89 297.592 355.066 297.928 355.173 298.376C355.397 297.96 355.642 297.635 355.909 297.4C356.186 297.155 356.549 297.032 356.997 297.032C357.541 297.032 357.962 297.24 358.261 297.656C358.57 298.061 358.725 298.653 358.725 299.432V305H357.413V299.528C357.413 298.621 357.136 298.168 356.581 298.168C356.314 298.168 356.09 298.269 355.909 298.472C355.738 298.664 355.546 298.963 355.333 299.368V305H354.117V299.528C354.117 299.08 354.053 298.744 353.925 298.52C353.808 298.285 353.605 298.168 353.317 298.168C353.05 298.168 352.816 298.269 352.613 298.472C352.421 298.664 352.229 298.963 352.037 299.368V305H350.725ZM364.511 305.192C364.127 305.192 363.716 305.101 363.279 304.92C362.852 304.728 362.457 304.467 362.095 304.136H362.047L361.935 305H360.879V293.608H362.191V296.712L362.143 298.216H362.191C362.543 297.853 362.948 297.565 363.407 297.352C363.876 297.139 364.34 297.032 364.799 297.032C365.503 297.032 366.095 297.197 366.575 297.528C367.055 297.848 367.417 298.307 367.663 298.904C367.908 299.491 368.031 300.184 368.031 300.984C368.031 301.869 367.865 302.627 367.535 303.256C367.215 303.885 366.788 304.365 366.255 304.696C365.721 305.027 365.14 305.192 364.511 305.192ZM364.303 304.088C364.751 304.088 365.151 303.965 365.503 303.72C365.865 303.475 366.148 303.123 366.351 302.664C366.564 302.195 366.671 301.64 366.671 301C366.671 300.435 366.596 299.939 366.447 299.512C366.297 299.075 366.063 298.739 365.743 298.504C365.423 298.259 365.001 298.136 364.479 298.136C364.127 298.136 363.753 298.232 363.359 298.424C362.975 298.605 362.585 298.899 362.191 299.304V303.176C362.564 303.507 362.937 303.741 363.311 303.88C363.695 304.019 364.025 304.088 364.303 304.088ZM375.48 305.192C374.659 305.192 374.03 304.957 373.592 304.488C373.155 304.008 372.936 303.309 372.936 302.392V294.68H370.28V293.608H374.248V302.488C374.248 303.053 374.387 303.464 374.664 303.72C374.942 303.976 375.31 304.104 375.768 304.104C375.992 304.104 376.222 304.077 376.456 304.024C376.691 303.96 376.952 303.864 377.24 303.736L377.576 304.728C377.224 304.856 376.894 304.963 376.584 305.048C376.275 305.144 375.907 305.192 375.48 305.192ZM383.858 305.192C383.079 305.192 382.37 305.032 381.73 304.712C381.101 304.392 380.599 303.928 380.226 303.32C379.853 302.701 379.666 301.96 379.666 301.096C379.666 300.253 379.853 299.528 380.226 298.92C380.599 298.312 381.085 297.848 381.682 297.528C382.29 297.197 382.941 297.032 383.634 297.032C384.381 297.032 385.015 297.187 385.538 297.496C386.071 297.795 386.477 298.216 386.754 298.76C387.042 299.304 387.186 299.944 387.186 300.68C387.186 300.829 387.181 300.973 387.17 301.112C387.159 301.251 387.143 301.373 387.122 301.48H380.546V300.456H386.338L386.002 300.824C386.002 299.907 385.789 299.219 385.362 298.76C384.946 298.301 384.381 298.072 383.666 298.072C383.186 298.072 382.738 298.189 382.322 298.424C381.917 298.659 381.591 299 381.346 299.448C381.101 299.896 380.978 300.445 380.978 301.096C380.978 301.768 381.111 302.328 381.378 302.776C381.645 303.224 382.007 303.565 382.466 303.8C382.925 304.024 383.442 304.136 384.018 304.136C384.487 304.136 384.909 304.072 385.282 303.944C385.666 303.805 386.034 303.624 386.386 303.4L386.866 304.264C386.482 304.52 386.039 304.739 385.538 304.92C385.047 305.101 384.487 305.192 383.858 305.192ZM390.508 305V297.224H391.596L391.708 299.064H391.756C392.161 298.435 392.663 297.939 393.26 297.576C393.857 297.213 394.513 297.032 395.228 297.032C395.516 297.032 395.783 297.059 396.028 297.112C396.284 297.155 396.529 297.235 396.764 297.352L396.46 298.488C396.193 298.392 395.964 298.323 395.772 298.28C395.58 298.237 395.329 298.216 395.02 298.216C394.433 298.216 393.868 298.387 393.324 298.728C392.791 299.059 392.289 299.629 391.82 300.44V305H390.508ZM401.702 305.192C401.222 305.192 400.779 305.107 400.374 304.936C399.968 304.755 399.648 304.499 399.414 304.168C399.179 303.837 399.062 303.443 399.062 302.984C399.062 302.109 399.499 301.448 400.374 301C401.248 300.541 402.688 300.232 404.694 300.072C404.683 299.72 404.608 299.395 404.47 299.096C404.342 298.797 404.128 298.563 403.83 298.392C403.531 298.211 403.131 298.12 402.63 298.12C402.299 298.12 401.968 298.168 401.638 298.264C401.318 298.349 401.008 298.467 400.71 298.616C400.422 298.755 400.155 298.899 399.91 299.048L399.398 298.152C399.654 297.981 399.963 297.811 400.326 297.64C400.699 297.459 401.099 297.315 401.526 297.208C401.952 297.091 402.395 297.032 402.854 297.032C403.568 297.032 404.155 297.165 404.614 297.432C405.083 297.699 405.43 298.072 405.654 298.552C405.888 299.021 406.006 299.581 406.006 300.232V305H404.934L404.822 303.944H404.774C404.347 304.285 403.867 304.579 403.334 304.824C402.8 305.069 402.256 305.192 401.702 305.192ZM402.054 304.136C402.502 304.136 402.944 304.035 403.382 303.832C403.819 303.629 404.256 303.347 404.694 302.984V300.936C403.584 301.032 402.71 301.165 402.07 301.336C401.44 301.507 400.992 301.725 400.726 301.992C400.47 302.248 400.342 302.547 400.342 302.888C400.342 303.176 400.422 303.416 400.582 303.608C400.742 303.789 400.95 303.923 401.206 304.008C401.472 304.093 401.755 304.136 402.054 304.136ZM412.415 305V298.296H408.799V297.224H413.727V305H412.415ZM412.927 295.592C412.629 295.592 412.378 295.501 412.175 295.32C411.973 295.128 411.871 294.877 411.871 294.568C411.871 294.259 411.973 294.013 412.175 293.832C412.378 293.64 412.629 293.544 412.927 293.544C413.226 293.544 413.477 293.64 413.679 293.832C413.882 294.013 413.983 294.259 413.983 294.568C413.983 294.877 413.882 295.128 413.679 295.32C413.477 295.501 413.226 295.592 412.927 295.592ZM423.257 305.192C422.5 305.192 421.902 305.059 421.465 304.792C421.028 304.515 420.713 304.136 420.521 303.656C420.34 303.176 420.249 302.616 420.249 301.976V298.296H418.057V297.304L420.297 297.224L420.473 294.728H421.561V297.224H425.385V298.296H421.561V301.992C421.561 302.451 421.62 302.84 421.737 303.16C421.854 303.48 422.057 303.72 422.345 303.88C422.633 304.04 423.028 304.12 423.529 304.12C423.902 304.12 424.238 304.088 424.537 304.024C424.836 303.96 425.124 303.875 425.401 303.768L425.689 304.728C425.337 304.856 424.964 304.963 424.569 305.048C424.185 305.144 423.748 305.192 423.257 305.192ZM442.941 308.28V305.448L443.005 304.008H442.957C442.647 304.339 442.274 304.621 441.837 304.856C441.399 305.08 440.941 305.192 440.461 305.192C439.458 305.192 438.647 304.84 438.029 304.136C437.41 303.421 437.101 302.419 437.101 301.128C437.101 300.285 437.266 299.56 437.597 298.952C437.938 298.333 438.375 297.859 438.909 297.528C439.453 297.197 440.029 297.032 440.637 297.032C441.106 297.032 441.533 297.123 441.917 297.304C442.301 297.475 442.674 297.736 443.037 298.088H443.085L443.197 297.224H444.253V308.28H442.941ZM440.749 304.088C441.133 304.088 441.506 303.992 441.869 303.8C442.231 303.597 442.589 303.304 442.941 302.92V299.048C442.589 298.717 442.242 298.483 441.901 298.344C441.57 298.205 441.234 298.136 440.893 298.136C440.445 298.136 440.034 298.264 439.661 298.52C439.298 298.765 439.005 299.112 438.781 299.56C438.567 299.997 438.461 300.515 438.461 301.112C438.461 302.04 438.663 302.771 439.069 303.304C439.474 303.827 440.034 304.088 440.749 304.088ZM449.67 305.192C448.742 305.192 448.06 304.925 447.622 304.392C447.185 303.859 446.966 303.08 446.966 302.056V297.224H448.294V301.88C448.294 302.616 448.428 303.165 448.694 303.528C448.972 303.88 449.436 304.056 450.086 304.056C450.534 304.056 450.94 303.944 451.302 303.72C451.676 303.485 452.076 303.117 452.502 302.616V297.224H453.814V305H452.742L452.63 303.64H452.566C452.172 304.088 451.74 304.461 451.27 304.76C450.801 305.048 450.268 305.192 449.67 305.192ZM459.248 299.4L458.8 298.632C459.333 298.323 459.744 297.939 460.032 297.48C460.331 297.011 460.48 296.472 460.48 295.864L460.16 294.616L461.04 295.688C460.901 295.837 460.747 295.96 460.576 296.056C460.405 296.152 460.229 296.2 460.048 296.2C459.717 296.2 459.445 296.093 459.232 295.88C459.019 295.667 458.912 295.395 458.912 295.064C458.912 294.691 459.024 294.392 459.248 294.168C459.472 293.933 459.755 293.816 460.096 293.816C460.512 293.816 460.853 293.987 461.12 294.328C461.397 294.669 461.536 295.144 461.536 295.752C461.536 296.552 461.333 297.272 460.928 297.912C460.523 298.541 459.963 299.037 459.248 299.4ZM468.858 305.192C467.93 305.192 467.247 304.925 466.81 304.392C466.373 303.859 466.154 303.08 466.154 302.056V297.224H467.482V301.88C467.482 302.616 467.615 303.165 467.882 303.528C468.159 303.88 468.623 304.056 469.274 304.056C469.722 304.056 470.127 303.944 470.49 303.72C470.863 303.485 471.263 303.117 471.69 302.616V297.224H473.002V305H471.93L471.818 303.64H471.754C471.359 304.088 470.927 304.461 470.458 304.76C469.989 305.048 469.455 305.192 468.858 305.192ZM476.004 305V297.224H477.092L477.204 298.552H477.268C477.673 298.115 478.11 297.752 478.58 297.464C479.049 297.176 479.588 297.032 480.196 297.032C481.113 297.032 481.79 297.299 482.228 297.832C482.665 298.365 482.884 299.144 482.884 300.168V305H481.572V300.344C481.572 299.608 481.433 299.064 481.156 298.712C480.878 298.349 480.42 298.168 479.78 298.168C479.321 298.168 478.91 298.285 478.548 298.52C478.185 298.755 477.774 299.107 477.316 299.576V305H476.004ZM489.389 305.192C488.611 305.192 487.901 305.032 487.261 304.712C486.632 304.392 486.131 303.928 485.757 303.32C485.384 302.701 485.197 301.96 485.197 301.096C485.197 300.253 485.384 299.528 485.757 298.92C486.131 298.312 486.616 297.848 487.213 297.528C487.821 297.197 488.472 297.032 489.165 297.032C489.912 297.032 490.547 297.187 491.069 297.496C491.603 297.795 492.008 298.216 492.285 298.76C492.573 299.304 492.717 299.944 492.717 300.68C492.717 300.829 492.712 300.973 492.701 301.112C492.691 301.251 492.675 301.373 492.653 301.48H486.077V300.456H491.869L491.533 300.824C491.533 299.907 491.32 299.219 490.893 298.76C490.477 298.301 489.912 298.072 489.197 298.072C488.717 298.072 488.269 298.189 487.853 298.424C487.448 298.659 487.123 299 486.877 299.448C486.632 299.896 486.509 300.445 486.509 301.096C486.509 301.768 486.643 302.328 486.909 302.776C487.176 303.224 487.539 303.565 487.997 303.8C488.456 304.024 488.973 304.136 489.549 304.136C490.019 304.136 490.44 304.072 490.813 303.944C491.197 303.805 491.565 303.624 491.917 303.4L492.397 304.264C492.013 304.52 491.571 304.739 491.069 304.92C490.579 305.101 490.019 305.192 489.389 305.192ZM508.577 305.192C507.798 305.192 507.089 305.032 506.449 304.712C505.82 304.392 505.318 303.928 504.945 303.32C504.572 302.701 504.385 301.96 504.385 301.096C504.385 300.253 504.572 299.528 504.945 298.92C505.318 298.312 505.804 297.848 506.401 297.528C507.009 297.197 507.66 297.032 508.353 297.032C509.1 297.032 509.734 297.187 510.257 297.496C510.79 297.795 511.196 298.216 511.473 298.76C511.761 299.304 511.905 299.944 511.905 300.68C511.905 300.829 511.9 300.973 511.889 301.112C511.878 301.251 511.862 301.373 511.841 301.48H505.265V300.456H511.057L510.721 300.824C510.721 299.907 510.508 299.219 510.081 298.76C509.665 298.301 509.1 298.072 508.385 298.072C507.905 298.072 507.457 298.189 507.041 298.424C506.636 298.659 506.31 299 506.065 299.448C505.82 299.896 505.697 300.445 505.697 301.096C505.697 301.768 505.83 302.328 506.097 302.776C506.364 303.224 506.726 303.565 507.185 303.8C507.644 304.024 508.161 304.136 508.737 304.136C509.206 304.136 509.628 304.072 510.001 303.944C510.385 303.805 510.753 303.624 511.105 303.4L511.585 304.264C511.201 304.52 510.758 304.739 510.257 304.92C509.766 305.101 509.206 305.192 508.577 305.192ZM515.227 305V297.224H516.315L516.427 299.064H516.475C516.88 298.435 517.381 297.939 517.979 297.576C518.576 297.213 519.232 297.032 519.947 297.032C520.235 297.032 520.501 297.059 520.747 297.112C521.003 297.155 521.248 297.235 521.483 297.352L521.179 298.488C520.912 298.392 520.683 298.323 520.491 298.28C520.299 298.237 520.048 298.216 519.739 298.216C519.152 298.216 518.587 298.387 518.043 298.728C517.509 299.059 517.008 299.629 516.539 300.44V305H515.227ZM524.82 305V297.224H525.908L526.02 299.064H526.068C526.474 298.435 526.975 297.939 527.572 297.576C528.17 297.213 528.826 297.032 529.54 297.032C529.828 297.032 530.095 297.059 530.34 297.112C530.596 297.155 530.842 297.235 531.076 297.352L530.772 298.488C530.506 298.392 530.276 298.323 530.084 298.28C529.892 298.237 529.642 298.216 529.332 298.216C528.746 298.216 528.18 298.387 527.636 298.728C527.103 299.059 526.602 299.629 526.132 300.44V305H524.82ZM537.358 305.192C536.579 305.192 535.87 305.032 535.23 304.712C534.601 304.392 534.099 303.928 533.726 303.32C533.353 302.701 533.166 301.96 533.166 301.096C533.166 300.253 533.353 299.528 533.726 298.92C534.099 298.312 534.585 297.848 535.182 297.528C535.79 297.197 536.441 297.032 537.134 297.032C537.881 297.032 538.515 297.187 539.038 297.496C539.571 297.795 539.977 298.216 540.254 298.76C540.542 299.304 540.686 299.944 540.686 300.68C540.686 300.829 540.681 300.973 540.67 301.112C540.659 301.251 540.643 301.373 540.622 301.48H534.046V300.456H539.838L539.502 300.824C539.502 299.907 539.289 299.219 538.862 298.76C538.446 298.301 537.881 298.072 537.166 298.072C536.686 298.072 536.238 298.189 535.822 298.424C535.417 298.659 535.091 299 534.846 299.448C534.601 299.896 534.478 300.445 534.478 301.096C534.478 301.768 534.611 302.328 534.878 302.776C535.145 303.224 535.507 303.565 535.966 303.8C536.425 304.024 536.942 304.136 537.518 304.136C537.987 304.136 538.409 304.072 538.782 303.944C539.166 303.805 539.534 303.624 539.886 303.4L540.366 304.264C539.982 304.52 539.539 304.739 539.038 304.92C538.547 305.101 537.987 305.192 537.358 305.192ZM545.608 305.192C544.68 305.192 543.997 304.925 543.56 304.392C543.123 303.859 542.904 303.08 542.904 302.056V297.224H544.232V301.88C544.232 302.616 544.365 303.165 544.632 303.528C544.909 303.88 545.373 304.056 546.024 304.056C546.472 304.056 546.877 303.944 547.24 303.72C547.613 303.485 548.013 303.117 548.44 302.616V297.224H549.752V305H548.68L548.568 303.64H548.504C548.109 304.088 547.677 304.461 547.208 304.76C546.739 305.048 546.205 305.192 545.608 305.192ZM553.602 305V297.224H554.69L554.802 299.064H554.85C555.255 298.435 555.756 297.939 556.354 297.576C556.951 297.213 557.607 297.032 558.322 297.032C558.61 297.032 558.876 297.059 559.122 297.112C559.378 297.155 559.623 297.235 559.858 297.352L559.554 298.488C559.287 298.392 559.058 298.323 558.866 298.28C558.674 298.237 558.423 298.216 558.114 298.216C557.527 298.216 556.962 298.387 556.418 298.728C555.884 299.059 555.383 299.629 554.914 300.44V305H553.602ZM575.733 305.192C574.954 305.192 574.245 305.032 573.605 304.712C572.976 304.392 572.474 303.928 572.101 303.32C571.728 302.701 571.541 301.96 571.541 301.096C571.541 300.253 571.728 299.528 572.101 298.92C572.474 298.312 572.96 297.848 573.557 297.528C574.165 297.197 574.816 297.032 575.509 297.032C576.256 297.032 576.89 297.187 577.413 297.496C577.946 297.795 578.352 298.216 578.629 298.76C578.917 299.304 579.061 299.944 579.061 300.68C579.061 300.829 579.056 300.973 579.045 301.112C579.034 301.251 579.018 301.373 578.997 301.48H572.421V300.456H578.213L577.877 300.824C577.877 299.907 577.664 299.219 577.237 298.76C576.821 298.301 576.256 298.072 575.541 298.072C575.061 298.072 574.613 298.189 574.197 298.424C573.792 298.659 573.466 299 573.221 299.448C572.976 299.896 572.853 300.445 572.853 301.096C572.853 301.768 572.986 302.328 573.253 302.776C573.52 303.224 573.882 303.565 574.341 303.8C574.8 304.024 575.317 304.136 575.893 304.136C576.362 304.136 576.784 304.072 577.157 303.944C577.541 303.805 577.909 303.624 578.261 303.4L578.741 304.264C578.357 304.52 577.914 304.739 577.413 304.92C576.922 305.101 576.362 305.192 575.733 305.192ZM585.007 305.192C584.25 305.192 583.54 305.069 582.879 304.824C582.218 304.579 581.652 304.296 581.183 303.976L581.791 303.112C582.239 303.432 582.735 303.688 583.279 303.88C583.823 304.072 584.452 304.168 585.167 304.168C585.828 304.168 586.319 304.045 586.639 303.8C586.97 303.555 587.135 303.272 587.135 302.952C587.135 302.803 587.103 302.664 587.039 302.536C586.986 302.408 586.874 302.285 586.703 302.168C586.543 302.051 586.303 301.939 585.983 301.832C585.663 301.725 585.236 301.619 584.703 301.512C583.69 301.299 582.927 301.011 582.415 300.648C581.914 300.285 581.663 299.816 581.663 299.24C581.663 298.611 581.935 298.088 582.479 297.672C583.023 297.245 583.828 297.032 584.895 297.032C585.492 297.032 586.068 297.133 586.623 297.336C587.178 297.528 587.647 297.757 588.031 298.024L587.391 298.872C587.039 298.616 586.639 298.419 586.191 298.28C585.743 298.131 585.274 298.056 584.783 298.056C584.335 298.056 583.978 298.109 583.711 298.216C583.455 298.312 583.268 298.445 583.151 298.616C583.044 298.787 582.991 298.973 582.991 299.176C582.991 299.507 583.167 299.768 583.519 299.96C583.882 300.141 584.458 300.312 585.247 300.472C586.111 300.653 586.772 300.856 587.231 301.08C587.7 301.304 588.02 301.56 588.191 301.848C588.372 302.136 588.463 302.477 588.463 302.872C588.463 303.299 588.33 303.688 588.063 304.04C587.796 304.381 587.407 304.659 586.895 304.872C586.383 305.085 585.754 305.192 585.007 305.192ZM595.945 305.192C595.187 305.192 594.59 305.059 594.153 304.792C593.715 304.515 593.401 304.136 593.209 303.656C593.027 303.176 592.937 302.616 592.937 301.976V298.296H590.745V297.304L592.985 297.224L593.161 294.728H594.249V297.224H598.073V298.296H594.249V301.992C594.249 302.451 594.307 302.84 594.425 303.16C594.542 303.48 594.745 303.72 595.033 303.88C595.321 304.04 595.715 304.12 596.217 304.12C596.59 304.12 596.926 304.088 597.225 304.024C597.523 303.96 597.811 303.875 598.089 303.768L598.377 304.728C598.025 304.856 597.651 304.963 597.257 305.048C596.873 305.144 596.435 305.192 595.945 305.192ZM613.788 305.192C613.031 305.192 612.321 305.069 611.66 304.824C610.999 304.579 610.433 304.296 609.964 303.976L610.572 303.112C611.02 303.432 611.516 303.688 612.06 303.88C612.604 304.072 613.233 304.168 613.948 304.168C614.609 304.168 615.1 304.045 615.42 303.8C615.751 303.555 615.916 303.272 615.916 302.952C615.916 302.803 615.884 302.664 615.82 302.536C615.767 302.408 615.655 302.285 615.484 302.168C615.324 302.051 615.084 301.939 614.764 301.832C614.444 301.725 614.017 301.619 613.484 301.512C612.471 301.299 611.708 301.011 611.196 300.648C610.695 300.285 610.444 299.816 610.444 299.24C610.444 298.611 610.716 298.088 611.26 297.672C611.804 297.245 612.609 297.032 613.676 297.032C614.273 297.032 614.849 297.133 615.404 297.336C615.959 297.528 616.428 297.757 616.812 298.024L616.172 298.872C615.82 298.616 615.42 298.419 614.972 298.28C614.524 298.131 614.055 298.056 613.564 298.056C613.116 298.056 612.759 298.109 612.492 298.216C612.236 298.312 612.049 298.445 611.932 298.616C611.825 298.787 611.772 298.973 611.772 299.176C611.772 299.507 611.948 299.768 612.3 299.96C612.663 300.141 613.239 300.312 614.028 300.472C614.892 300.653 615.553 300.856 616.012 301.08C616.481 301.304 616.801 301.56 616.972 301.848C617.153 302.136 617.244 302.477 617.244 302.872C617.244 303.299 617.111 303.688 616.844 304.04C616.577 304.381 616.188 304.659 615.676 304.872C615.164 305.085 614.535 305.192 613.788 305.192ZM622.358 305.192C621.43 305.192 620.747 304.925 620.31 304.392C619.873 303.859 619.654 303.08 619.654 302.056V297.224H620.982V301.88C620.982 302.616 621.115 303.165 621.382 303.528C621.659 303.88 622.123 304.056 622.774 304.056C623.222 304.056 623.627 303.944 623.99 303.72C624.363 303.485 624.763 303.117 625.19 302.616V297.224H626.502V305H625.43L625.318 303.64H625.254C624.859 304.088 624.427 304.461 623.958 304.76C623.489 305.048 622.955 305.192 622.358 305.192ZM630.352 305V297.224H631.44L631.552 299.064H631.6C632.005 298.435 632.506 297.939 633.104 297.576C633.701 297.213 634.357 297.032 635.072 297.032C635.36 297.032 635.626 297.059 635.872 297.112C636.128 297.155 636.373 297.235 636.608 297.352L636.304 298.488C636.037 298.392 635.808 298.323 635.616 298.28C635.424 298.237 635.173 298.216 634.864 298.216C634.277 298.216 633.712 298.387 633.168 298.728C632.634 299.059 632.133 299.629 631.664 300.44V305H630.352ZM641.705 305L638.425 297.224H639.753L641.545 301.64C641.705 302.024 641.855 302.408 641.993 302.792C642.143 303.176 642.287 303.555 642.425 303.928H642.489C642.628 303.555 642.767 303.176 642.905 302.792C643.044 302.408 643.188 302.024 643.337 301.64L645.129 297.224H646.393L643.177 305H641.705ZM652.483 305.192C651.704 305.192 650.995 305.032 650.355 304.712C649.726 304.392 649.224 303.928 648.851 303.32C648.478 302.701 648.291 301.96 648.291 301.096C648.291 300.253 648.478 299.528 648.851 298.92C649.224 298.312 649.71 297.848 650.307 297.528C650.915 297.197 651.566 297.032 652.259 297.032C653.006 297.032 653.64 297.187 654.163 297.496C654.696 297.795 655.102 298.216 655.379 298.76C655.667 299.304 655.811 299.944 655.811 300.68C655.811 300.829 655.806 300.973 655.795 301.112C655.784 301.251 655.768 301.373 655.747 301.48H649.171V300.456H654.963L654.627 300.824C654.627 299.907 654.414 299.219 653.987 298.76C653.571 298.301 653.006 298.072 652.291 298.072C651.811 298.072 651.363 298.189 650.947 298.424C650.542 298.659 650.216 299 649.971 299.448C649.726 299.896 649.603 300.445 649.603 301.096C649.603 301.768 649.736 302.328 650.003 302.776C650.27 303.224 650.632 303.565 651.091 303.8C651.55 304.024 652.067 304.136 652.643 304.136C653.112 304.136 653.534 304.072 653.907 303.944C654.291 303.805 654.659 303.624 655.011 303.4L655.491 304.264C655.107 304.52 654.664 304.739 654.163 304.92C653.672 305.101 653.112 305.192 652.483 305.192ZM658.285 305V297.224H659.373L659.485 298.552H659.549C659.954 298.115 660.392 297.752 660.861 297.464C661.33 297.176 661.869 297.032 662.477 297.032C663.394 297.032 664.072 297.299 664.509 297.832C664.946 298.365 665.165 299.144 665.165 300.168V305H663.853V300.344C663.853 299.608 663.714 299.064 663.437 298.712C663.16 298.349 662.701 298.168 662.061 298.168C661.602 298.168 661.192 298.285 660.829 298.52C660.466 298.755 660.056 299.107 659.597 299.576V305H658.285ZM670.327 305.192C669.399 305.192 668.716 304.925 668.279 304.392C667.841 303.859 667.623 303.08 667.623 302.056V297.224H668.951V301.88C668.951 302.616 669.084 303.165 669.351 303.528C669.628 303.88 670.092 304.056 670.743 304.056C671.191 304.056 671.596 303.944 671.959 303.72C672.332 303.485 672.732 303.117 673.159 302.616V297.224H674.471V305H673.399L673.287 303.64H673.223C672.828 304.088 672.396 304.461 671.927 304.76C671.457 305.048 670.924 305.192 670.327 305.192ZM681.264 305.192C680.486 305.192 679.776 305.032 679.136 304.712C678.507 304.392 678.006 303.928 677.632 303.32C677.259 302.701 677.072 301.96 677.072 301.096C677.072 300.253 677.259 299.528 677.632 298.92C678.006 298.312 678.491 297.848 679.088 297.528C679.696 297.197 680.347 297.032 681.04 297.032C681.787 297.032 682.422 297.187 682.944 297.496C683.478 297.795 683.883 298.216 684.16 298.76C684.448 299.304 684.592 299.944 684.592 300.68C684.592 300.829 684.587 300.973 684.576 301.112C684.566 301.251 684.55 301.373 684.528 301.48H677.952V300.456H683.744L683.408 300.824C683.408 299.907 683.195 299.219 682.768 298.76C682.352 298.301 681.787 298.072 681.072 298.072C680.592 298.072 680.144 298.189 679.728 298.424C679.323 298.659 678.998 299 678.752 299.448C678.507 299.896 678.384 300.445 678.384 301.096C678.384 301.768 678.518 302.328 678.784 302.776C679.051 303.224 679.414 303.565 679.872 303.8C680.331 304.024 680.848 304.136 681.424 304.136C681.894 304.136 682.315 304.072 682.688 303.944C683.072 303.805 683.44 303.624 683.792 303.4L684.272 304.264C683.888 304.52 683.446 304.739 682.944 304.92C682.454 305.101 681.894 305.192 681.264 305.192ZM690.378 305.192C690.026 305.192 689.722 305.069 689.466 304.824C689.21 304.568 689.082 304.243 689.082 303.848C689.082 303.443 689.21 303.117 689.466 302.872C689.722 302.616 690.026 302.488 690.378 302.488C690.741 302.488 691.045 302.616 691.29 302.872C691.546 303.117 691.674 303.443 691.674 303.848C691.674 304.243 691.546 304.568 691.29 304.824C691.045 305.069 690.741 305.192 690.378 305.192Z" fill="black"/>
<path d="M537.761 122H460.239C446.3 122 435 133.3 435 147.239V224.761C435 238.7 446.3 250 460.239 250H537.761C551.7 250 563 238.7 563 224.761V147.239C563 133.3 551.7 122 537.761 122Z" fill="#FFE797" stroke="#D9D9D9" stroke-width="2"/>
<path d="M519.161 182.618C509.163 182.618 501.332 187.904 501.332 194.652C501.332 201.401 509.163 206.687 519.161 206.687C529.159 206.687 536.99 201.401 536.99 194.652C536.99 187.904 529.159 182.618 519.161 182.618Z" fill="#414141"/>
<path d="M513.768 214.61L505.706 194.455C506.636 192.928 507.172 191.135 507.172 189.22C507.172 183.649 502.639 179.117 497.069 179.117C491.498 179.117 486.965 183.649 486.965 189.22C486.965 190.814 487.338 192.322 487.998 193.665L486.163 198.253L478.437 194.39L470.349 214.61H464.232V219.363H473.567L480.932 200.952L488.658 204.815L491.521 197.657C493.114 198.709 495.021 199.323 497.068 199.323C498.865 199.323 500.551 198.85 502.014 198.024L510.55 219.363H519.523V214.61H513.768Z" fill="#414141"/>
<path d="M513.768 214.61L505.706 194.455C506.636 192.928 507.172 191.135 507.172 189.22C507.172 183.649 502.639 179.117 497.069 179.117C497.069 185.281 497.069 193.362 497.069 199.323C498.865 199.323 500.551 198.85 502.015 198.024L510.55 219.363H519.523V214.61H513.768Z" fill="black"/>
<path d="M483.441 166.056L478.339 157.552H458.437V152.799H481.03L487.517 163.611L483.441 166.056Z" fill="black"/>
<path d="M496.265 165.731C494.194 163.238 490.917 161.974 486.525 161.974C482.762 161.974 478.214 163.778 473.007 167.338C469.278 169.887 466.58 172.412 466.467 172.518L464.624 174.25L466.467 175.981C466.58 176.088 469.278 178.612 473.007 181.161C478.214 184.721 482.762 186.526 486.525 186.526C490.917 186.526 494.194 185.261 496.265 182.768C497.972 180.712 498.801 177.926 498.801 174.249C498.801 170.573 497.972 167.787 496.265 165.731Z" fill="#666666"/>
<path d="M486.852 171.187H482.098V175.94H486.852V171.187Z" fill="black"/>
<path d="M533.452 214.61L520.883 182.889L513.152 193.314L516.772 196.412L519.612 192.584L530.222 219.363H539.563V214.61H533.452Z" fill="black"/>
</svg>
