<svg width="1000" height="500" viewBox="0 0 1000 500" fill="none" xmlns="http://www.w3.org/2000/svg">
<rect width="1000" height="500" fill="white"/>
<g filter="url(#filter0_d_4_199)">
<rect x="20" y="20" width="300" height="220" rx="6" fill="#FDFDFD"/>
<rect x="20.5" y="20.5" width="299" height="219" rx="5.5" stroke="#D9D9D9"/>
</g>
<path d="M44.8437 218H42.6357L42.0597 210.536C41.8197 207.608 41.6837 205.36 41.6517 203.792L38.0757 216.128H35.9397L32.1717 203.768C32.1717 205.768 32.0677 208.08 31.8597 210.704L31.3077 218H29.1477L30.5157 201.464H33.5877L37.0677 213.488L40.3797 201.464H43.4757L44.8437 218ZM53.6834 218.072C53.1874 219.544 52.4914 220.704 51.5954 221.552C50.7154 222.416 49.4514 222.936 47.8034 223.112L47.5634 221.384C48.3954 221.24 49.0594 221.032 49.5554 220.76C50.0514 220.488 50.4434 220.136 50.7314 219.704C51.0354 219.288 51.3154 218.72 51.5714 218H50.8274L46.5794 205.352H48.9314L52.3154 216.392L55.6274 205.352H57.9074L53.6834 218.072ZM72.5914 205.064C74.2074 205.064 75.3914 205.64 76.1434 206.792C76.8954 207.944 77.2714 209.568 77.2714 211.664C77.2714 213.648 76.8394 215.248 75.9754 216.464C75.1114 217.68 73.8874 218.288 72.3034 218.288C70.8954 218.288 69.7914 217.808 68.9914 216.848V222.848L66.7834 223.112V205.352H68.6794L68.8474 207.056C69.3114 206.416 69.8714 205.928 70.5274 205.592C71.1834 205.24 71.8714 205.064 72.5914 205.064ZM71.7754 216.488C73.8554 216.488 74.8954 214.88 74.8954 211.664C74.8954 208.432 73.9434 206.816 72.0394 206.816C71.4154 206.816 70.8474 207 70.3354 207.368C69.8234 207.736 69.3754 208.208 68.9914 208.784V214.952C69.3114 215.448 69.7114 215.832 70.1914 216.104C70.6714 216.36 71.1994 216.488 71.7754 216.488ZM86.5294 205.064C86.9774 205.064 87.3934 205.112 87.7774 205.208L87.3694 207.368C86.9854 207.272 86.6174 207.224 86.2654 207.224C85.4814 207.224 84.8494 207.512 84.3694 208.088C83.8894 208.664 83.5134 209.56 83.2414 210.776V218H81.0334V205.352H82.9294L83.1454 207.92C83.4814 206.976 83.9374 206.264 84.5134 205.784C85.0894 205.304 85.7614 205.064 86.5294 205.064ZM94.3167 205.064C96.0927 205.064 97.4687 205.656 98.4447 206.84C99.4367 208.024 99.9327 209.632 99.9327 211.664C99.9327 212.976 99.7087 214.136 99.2607 215.144C98.8127 216.136 98.1647 216.912 97.3167 217.472C96.4687 218.016 95.4607 218.288 94.2927 218.288C92.5167 218.288 91.1327 217.696 90.1407 216.512C89.1487 215.328 88.6527 213.72 88.6527 211.688C88.6527 210.376 88.8767 209.224 89.3247 208.232C89.7727 207.224 90.4207 206.448 91.2687 205.904C92.1167 205.344 93.1327 205.064 94.3167 205.064ZM94.3167 206.84C92.1247 206.84 91.0287 208.456 91.0287 211.688C91.0287 214.904 92.1167 216.512 94.2927 216.512C96.4687 216.512 97.5567 214.896 97.5567 211.664C97.5567 208.448 96.4767 206.84 94.3167 206.84ZM105.74 217.232C105.74 218.4 105.596 219.336 105.308 220.04C105.02 220.744 104.596 221.312 104.036 221.744C103.492 222.192 102.724 222.64 101.732 223.088L101.084 221.48C101.708 221.192 102.188 220.904 102.524 220.616C102.86 220.344 103.108 219.952 103.268 219.44C103.444 218.944 103.532 218.256 103.532 217.376V205.352H105.74V217.232ZM104.636 199.28C105.1 199.28 105.476 199.424 105.764 199.712C106.052 200 106.196 200.36 106.196 200.792C106.196 201.224 106.052 201.584 105.764 201.872C105.476 202.144 105.1 202.28 104.636 202.28C104.188 202.28 103.82 202.144 103.532 201.872C103.244 201.584 103.1 201.224 103.1 200.792C103.1 200.36 103.244 200 103.532 199.712C103.82 199.424 104.188 199.28 104.636 199.28ZM119.859 211.304C119.859 211.672 119.843 212.048 119.811 212.432H111.747C111.843 213.824 112.195 214.848 112.803 215.504C113.411 216.16 114.195 216.488 115.155 216.488C115.763 216.488 116.323 216.4 116.835 216.224C117.347 216.048 117.883 215.768 118.443 215.384L119.403 216.704C118.059 217.76 116.587 218.288 114.987 218.288C113.227 218.288 111.851 217.712 110.859 216.56C109.883 215.408 109.395 213.824 109.395 211.808C109.395 210.496 109.603 209.336 110.019 208.328C110.451 207.304 111.059 206.504 111.843 205.928C112.643 205.352 113.579 205.064 114.651 205.064C116.331 205.064 117.619 205.616 118.515 206.72C119.411 207.824 119.859 209.352 119.859 211.304ZM117.675 210.656C117.675 209.408 117.427 208.456 116.931 207.8C116.435 207.144 115.691 206.816 114.699 206.816C112.891 206.816 111.907 208.144 111.747 210.8H117.675V210.656ZM127.993 205.064C128.745 205.064 129.433 205.176 130.057 205.4C130.681 205.608 131.281 205.952 131.857 206.432L130.801 207.824C130.353 207.504 129.913 207.272 129.481 207.128C129.065 206.968 128.601 206.888 128.089 206.888C127.065 206.888 126.265 207.296 125.689 208.112C125.129 208.928 124.849 210.136 124.849 211.736C124.849 213.336 125.129 214.52 125.689 215.288C126.249 216.04 127.049 216.416 128.089 216.416C128.585 216.416 129.041 216.344 129.457 216.2C129.873 216.04 130.337 215.792 130.849 215.456L131.857 216.896C130.705 217.824 129.417 218.288 127.993 218.288C126.281 218.288 124.929 217.712 123.937 216.56C122.961 215.408 122.473 213.816 122.473 211.784C122.473 210.44 122.697 209.264 123.145 208.256C123.593 207.248 124.225 206.464 125.041 205.904C125.873 205.344 126.857 205.064 127.993 205.064ZM141.23 217.424C140.398 218 139.454 218.288 138.398 218.288C137.326 218.288 136.486 217.984 135.878 217.376C135.286 216.752 134.99 215.856 134.99 214.688V207.056H132.782V205.352H134.99V202.496L137.198 202.232V205.352H140.198L139.958 207.056H137.198V214.592C137.198 215.248 137.31 215.728 137.534 216.032C137.774 216.32 138.166 216.464 138.71 216.464C139.206 216.464 139.766 216.296 140.39 215.96L141.23 217.424Z" fill="#262626"/>
<g filter="url(#filter1_d_4_199)">
<rect x="350" y="260" width="300" height="220" rx="6" fill="#FDFDFD"/>
<rect x="350.5" y="260.5" width="299" height="219" rx="5.5" stroke="#D9D9D9"/>
</g>
<path d="M374.844 458H372.636L372.06 450.536C371.82 447.608 371.684 445.36 371.652 443.792L368.076 456.128H365.94L362.172 443.768C362.172 445.768 362.068 448.08 361.86 450.704L361.308 458H359.148L360.516 441.464H363.588L367.068 453.488L370.38 441.464H373.476L374.844 458ZM383.683 458.072C383.187 459.544 382.491 460.704 381.595 461.552C380.715 462.416 379.451 462.936 377.803 463.112L377.563 461.384C378.395 461.24 379.059 461.032 379.555 460.76C380.051 460.488 380.443 460.136 380.731 459.704C381.035 459.288 381.315 458.72 381.571 458H380.827L376.579 445.352H378.931L382.315 456.392L385.627 445.352H387.907L383.683 458.072ZM402.591 445.064C404.207 445.064 405.391 445.64 406.143 446.792C406.895 447.944 407.271 449.568 407.271 451.664C407.271 453.648 406.839 455.248 405.975 456.464C405.111 457.68 403.887 458.288 402.303 458.288C400.895 458.288 399.791 457.808 398.991 456.848V462.848L396.783 463.112V445.352H398.679L398.847 447.056C399.311 446.416 399.871 445.928 400.527 445.592C401.183 445.24 401.871 445.064 402.591 445.064ZM401.775 456.488C403.855 456.488 404.895 454.88 404.895 451.664C404.895 448.432 403.943 446.816 402.039 446.816C401.415 446.816 400.847 447 400.335 447.368C399.823 447.736 399.375 448.208 398.991 448.784V454.952C399.311 455.448 399.711 455.832 400.191 456.104C400.671 456.36 401.199 456.488 401.775 456.488ZM416.529 445.064C416.977 445.064 417.393 445.112 417.777 445.208L417.369 447.368C416.985 447.272 416.617 447.224 416.265 447.224C415.481 447.224 414.849 447.512 414.369 448.088C413.889 448.664 413.513 449.56 413.241 450.776V458H411.033V445.352H412.929L413.145 447.92C413.481 446.976 413.937 446.264 414.513 445.784C415.089 445.304 415.761 445.064 416.529 445.064ZM424.317 445.064C426.093 445.064 427.469 445.656 428.445 446.84C429.437 448.024 429.933 449.632 429.933 451.664C429.933 452.976 429.709 454.136 429.261 455.144C428.813 456.136 428.165 456.912 427.317 457.472C426.469 458.016 425.461 458.288 424.293 458.288C422.517 458.288 421.133 457.696 420.141 456.512C419.149 455.328 418.653 453.72 418.653 451.688C418.653 450.376 418.877 449.224 419.325 448.232C419.773 447.224 420.421 446.448 421.269 445.904C422.117 445.344 423.133 445.064 424.317 445.064ZM424.317 446.84C422.125 446.84 421.029 448.456 421.029 451.688C421.029 454.904 422.117 456.512 424.293 456.512C426.469 456.512 427.557 454.896 427.557 451.664C427.557 448.448 426.477 446.84 424.317 446.84ZM435.74 457.232C435.74 458.4 435.596 459.336 435.308 460.04C435.02 460.744 434.596 461.312 434.036 461.744C433.492 462.192 432.724 462.64 431.732 463.088L431.084 461.48C431.708 461.192 432.188 460.904 432.524 460.616C432.86 460.344 433.108 459.952 433.268 459.44C433.444 458.944 433.532 458.256 433.532 457.376V445.352H435.74V457.232ZM434.636 439.28C435.1 439.28 435.476 439.424 435.764 439.712C436.052 440 436.196 440.36 436.196 440.792C436.196 441.224 436.052 441.584 435.764 441.872C435.476 442.144 435.1 442.28 434.636 442.28C434.188 442.28 433.82 442.144 433.532 441.872C433.244 441.584 433.1 441.224 433.1 440.792C433.1 440.36 433.244 440 433.532 439.712C433.82 439.424 434.188 439.28 434.636 439.28ZM449.859 451.304C449.859 451.672 449.843 452.048 449.811 452.432H441.747C441.843 453.824 442.195 454.848 442.803 455.504C443.411 456.16 444.195 456.488 445.155 456.488C445.763 456.488 446.323 456.4 446.835 456.224C447.347 456.048 447.883 455.768 448.443 455.384L449.403 456.704C448.059 457.76 446.587 458.288 444.987 458.288C443.227 458.288 441.851 457.712 440.859 456.56C439.883 455.408 439.395 453.824 439.395 451.808C439.395 450.496 439.603 449.336 440.019 448.328C440.451 447.304 441.059 446.504 441.843 445.928C442.643 445.352 443.579 445.064 444.651 445.064C446.331 445.064 447.619 445.616 448.515 446.72C449.411 447.824 449.859 449.352 449.859 451.304ZM447.675 450.656C447.675 449.408 447.427 448.456 446.931 447.8C446.435 447.144 445.691 446.816 444.699 446.816C442.891 446.816 441.907 448.144 441.747 450.8H447.675V450.656ZM457.993 445.064C458.745 445.064 459.433 445.176 460.057 445.4C460.681 445.608 461.281 445.952 461.857 446.432L460.801 447.824C460.353 447.504 459.913 447.272 459.481 447.128C459.065 446.968 458.601 446.888 458.089 446.888C457.065 446.888 456.265 447.296 455.689 448.112C455.129 448.928 454.849 450.136 454.849 451.736C454.849 453.336 455.129 454.52 455.689 455.288C456.249 456.04 457.049 456.416 458.089 456.416C458.585 456.416 459.041 456.344 459.457 456.2C459.873 456.04 460.337 455.792 460.849 455.456L461.857 456.896C460.705 457.824 459.417 458.288 457.993 458.288C456.281 458.288 454.929 457.712 453.937 456.56C452.961 455.408 452.473 453.816 452.473 451.784C452.473 450.44 452.697 449.264 453.145 448.256C453.593 447.248 454.225 446.464 455.041 445.904C455.873 445.344 456.857 445.064 457.993 445.064ZM471.23 457.424C470.398 458 469.454 458.288 468.398 458.288C467.326 458.288 466.486 457.984 465.878 457.376C465.286 456.752 464.99 455.856 464.99 454.688V447.056H462.782V445.352H464.99V442.496L467.198 442.232V445.352H470.198L469.958 447.056H467.198V454.592C467.198 455.248 467.31 455.728 467.534 456.032C467.774 456.32 468.166 456.464 468.71 456.464C469.206 456.464 469.766 456.296 470.39 455.96L471.23 457.424Z" fill="#262626"/>
<g filter="url(#filter2_d_4_199)">
<rect x="20" y="260" width="300" height="220" rx="6" fill="#FDFDFD"/>
<rect x="20.5" y="260.5" width="299" height="219" rx="5.5" stroke="#D9D9D9"/>
</g>
<path d="M44.8437 458H42.6357L42.0597 450.536C41.8197 447.608 41.6837 445.36 41.6517 443.792L38.0757 456.128H35.9397L32.1717 443.768C32.1717 445.768 32.0677 448.08 31.8597 450.704L31.3077 458H29.1477L30.5157 441.464H33.5877L37.0677 453.488L40.3797 441.464H43.4757L44.8437 458ZM53.6834 458.072C53.1874 459.544 52.4914 460.704 51.5954 461.552C50.7154 462.416 49.4514 462.936 47.8034 463.112L47.5634 461.384C48.3954 461.24 49.0594 461.032 49.5554 460.76C50.0514 460.488 50.4434 460.136 50.7314 459.704C51.0354 459.288 51.3154 458.72 51.5714 458H50.8274L46.5794 445.352H48.9314L52.3154 456.392L55.6274 445.352H57.9074L53.6834 458.072ZM72.5914 445.064C74.2074 445.064 75.3914 445.64 76.1434 446.792C76.8954 447.944 77.2714 449.568 77.2714 451.664C77.2714 453.648 76.8394 455.248 75.9754 456.464C75.1114 457.68 73.8874 458.288 72.3034 458.288C70.8954 458.288 69.7914 457.808 68.9914 456.848V462.848L66.7834 463.112V445.352H68.6794L68.8474 447.056C69.3114 446.416 69.8714 445.928 70.5274 445.592C71.1834 445.24 71.8714 445.064 72.5914 445.064ZM71.7754 456.488C73.8554 456.488 74.8954 454.88 74.8954 451.664C74.8954 448.432 73.9434 446.816 72.0394 446.816C71.4154 446.816 70.8474 447 70.3354 447.368C69.8234 447.736 69.3754 448.208 68.9914 448.784V454.952C69.3114 455.448 69.7114 455.832 70.1914 456.104C70.6714 456.36 71.1994 456.488 71.7754 456.488ZM86.5294 445.064C86.9774 445.064 87.3934 445.112 87.7774 445.208L87.3694 447.368C86.9854 447.272 86.6174 447.224 86.2654 447.224C85.4814 447.224 84.8494 447.512 84.3694 448.088C83.8894 448.664 83.5134 449.56 83.2414 450.776V458H81.0334V445.352H82.9294L83.1454 447.92C83.4814 446.976 83.9374 446.264 84.5134 445.784C85.0894 445.304 85.7614 445.064 86.5294 445.064ZM94.3167 445.064C96.0927 445.064 97.4687 445.656 98.4447 446.84C99.4367 448.024 99.9327 449.632 99.9327 451.664C99.9327 452.976 99.7087 454.136 99.2607 455.144C98.8127 456.136 98.1647 456.912 97.3167 457.472C96.4687 458.016 95.4607 458.288 94.2927 458.288C92.5167 458.288 91.1327 457.696 90.1407 456.512C89.1487 455.328 88.6527 453.72 88.6527 451.688C88.6527 450.376 88.8767 449.224 89.3247 448.232C89.7727 447.224 90.4207 446.448 91.2687 445.904C92.1167 445.344 93.1327 445.064 94.3167 445.064ZM94.3167 446.84C92.1247 446.84 91.0287 448.456 91.0287 451.688C91.0287 454.904 92.1167 456.512 94.2927 456.512C96.4687 456.512 97.5567 454.896 97.5567 451.664C97.5567 448.448 96.4767 446.84 94.3167 446.84ZM105.74 457.232C105.74 458.4 105.596 459.336 105.308 460.04C105.02 460.744 104.596 461.312 104.036 461.744C103.492 462.192 102.724 462.64 101.732 463.088L101.084 461.48C101.708 461.192 102.188 460.904 102.524 460.616C102.86 460.344 103.108 459.952 103.268 459.44C103.444 458.944 103.532 458.256 103.532 457.376V445.352H105.74V457.232ZM104.636 439.28C105.1 439.28 105.476 439.424 105.764 439.712C106.052 440 106.196 440.36 106.196 440.792C106.196 441.224 106.052 441.584 105.764 441.872C105.476 442.144 105.1 442.28 104.636 442.28C104.188 442.28 103.82 442.144 103.532 441.872C103.244 441.584 103.1 441.224 103.1 440.792C103.1 440.36 103.244 440 103.532 439.712C103.82 439.424 104.188 439.28 104.636 439.28ZM119.859 451.304C119.859 451.672 119.843 452.048 119.811 452.432H111.747C111.843 453.824 112.195 454.848 112.803 455.504C113.411 456.16 114.195 456.488 115.155 456.488C115.763 456.488 116.323 456.4 116.835 456.224C117.347 456.048 117.883 455.768 118.443 455.384L119.403 456.704C118.059 457.76 116.587 458.288 114.987 458.288C113.227 458.288 111.851 457.712 110.859 456.56C109.883 455.408 109.395 453.824 109.395 451.808C109.395 450.496 109.603 449.336 110.019 448.328C110.451 447.304 111.059 446.504 111.843 445.928C112.643 445.352 113.579 445.064 114.651 445.064C116.331 445.064 117.619 445.616 118.515 446.72C119.411 447.824 119.859 449.352 119.859 451.304ZM117.675 450.656C117.675 449.408 117.427 448.456 116.931 447.8C116.435 447.144 115.691 446.816 114.699 446.816C112.891 446.816 111.907 448.144 111.747 450.8H117.675V450.656ZM127.993 445.064C128.745 445.064 129.433 445.176 130.057 445.4C130.681 445.608 131.281 445.952 131.857 446.432L130.801 447.824C130.353 447.504 129.913 447.272 129.481 447.128C129.065 446.968 128.601 446.888 128.089 446.888C127.065 446.888 126.265 447.296 125.689 448.112C125.129 448.928 124.849 450.136 124.849 451.736C124.849 453.336 125.129 454.52 125.689 455.288C126.249 456.04 127.049 456.416 128.089 456.416C128.585 456.416 129.041 456.344 129.457 456.2C129.873 456.04 130.337 455.792 130.849 455.456L131.857 456.896C130.705 457.824 129.417 458.288 127.993 458.288C126.281 458.288 124.929 457.712 123.937 456.56C122.961 455.408 122.473 453.816 122.473 451.784C122.473 450.44 122.697 449.264 123.145 448.256C123.593 447.248 124.225 446.464 125.041 445.904C125.873 445.344 126.857 445.064 127.993 445.064ZM141.23 457.424C140.398 458 139.454 458.288 138.398 458.288C137.326 458.288 136.486 457.984 135.878 457.376C135.286 456.752 134.99 455.856 134.99 454.688V447.056H132.782V445.352H134.99V442.496L137.198 442.232V445.352H140.198L139.958 447.056H137.198V454.592C137.198 455.248 137.31 455.728 137.534 456.032C137.774 456.32 138.166 456.464 138.71 456.464C139.206 456.464 139.766 456.296 140.39 455.96L141.23 457.424Z" fill="#262626"/>
<g filter="url(#filter3_d_4_199)">
<rect x="350" y="20" width="300" height="220" rx="6" fill="#FDFDFD"/>
<rect x="350.5" y="20.5" width="299" height="219" rx="5.5" stroke="#D9D9D9"/>
</g>
<path d="M374.844 218H372.636L372.06 210.536C371.82 207.608 371.684 205.36 371.652 203.792L368.076 216.128H365.94L362.172 203.768C362.172 205.768 362.068 208.08 361.86 210.704L361.308 218H359.148L360.516 201.464H363.588L367.068 213.488L370.38 201.464H373.476L374.844 218ZM383.683 218.072C383.187 219.544 382.491 220.704 381.595 221.552C380.715 222.416 379.451 222.936 377.803 223.112L377.563 221.384C378.395 221.24 379.059 221.032 379.555 220.76C380.051 220.488 380.443 220.136 380.731 219.704C381.035 219.288 381.315 218.72 381.571 218H380.827L376.579 205.352H378.931L382.315 216.392L385.627 205.352H387.907L383.683 218.072ZM402.591 205.064C404.207 205.064 405.391 205.64 406.143 206.792C406.895 207.944 407.271 209.568 407.271 211.664C407.271 213.648 406.839 215.248 405.975 216.464C405.111 217.68 403.887 218.288 402.303 218.288C400.895 218.288 399.791 217.808 398.991 216.848V222.848L396.783 223.112V205.352H398.679L398.847 207.056C399.311 206.416 399.871 205.928 400.527 205.592C401.183 205.24 401.871 205.064 402.591 205.064ZM401.775 216.488C403.855 216.488 404.895 214.88 404.895 211.664C404.895 208.432 403.943 206.816 402.039 206.816C401.415 206.816 400.847 207 400.335 207.368C399.823 207.736 399.375 208.208 398.991 208.784V214.952C399.311 215.448 399.711 215.832 400.191 216.104C400.671 216.36 401.199 216.488 401.775 216.488ZM416.529 205.064C416.977 205.064 417.393 205.112 417.777 205.208L417.369 207.368C416.985 207.272 416.617 207.224 416.265 207.224C415.481 207.224 414.849 207.512 414.369 208.088C413.889 208.664 413.513 209.56 413.241 210.776V218H411.033V205.352H412.929L413.145 207.92C413.481 206.976 413.937 206.264 414.513 205.784C415.089 205.304 415.761 205.064 416.529 205.064ZM424.317 205.064C426.093 205.064 427.469 205.656 428.445 206.84C429.437 208.024 429.933 209.632 429.933 211.664C429.933 212.976 429.709 214.136 429.261 215.144C428.813 216.136 428.165 216.912 427.317 217.472C426.469 218.016 425.461 218.288 424.293 218.288C422.517 218.288 421.133 217.696 420.141 216.512C419.149 215.328 418.653 213.72 418.653 211.688C418.653 210.376 418.877 209.224 419.325 208.232C419.773 207.224 420.421 206.448 421.269 205.904C422.117 205.344 423.133 205.064 424.317 205.064ZM424.317 206.84C422.125 206.84 421.029 208.456 421.029 211.688C421.029 214.904 422.117 216.512 424.293 216.512C426.469 216.512 427.557 214.896 427.557 211.664C427.557 208.448 426.477 206.84 424.317 206.84ZM435.74 217.232C435.74 218.4 435.596 219.336 435.308 220.04C435.02 220.744 434.596 221.312 434.036 221.744C433.492 222.192 432.724 222.64 431.732 223.088L431.084 221.48C431.708 221.192 432.188 220.904 432.524 220.616C432.86 220.344 433.108 219.952 433.268 219.44C433.444 218.944 433.532 218.256 433.532 217.376V205.352H435.74V217.232ZM434.636 199.28C435.1 199.28 435.476 199.424 435.764 199.712C436.052 200 436.196 200.36 436.196 200.792C436.196 201.224 436.052 201.584 435.764 201.872C435.476 202.144 435.1 202.28 434.636 202.28C434.188 202.28 433.82 202.144 433.532 201.872C433.244 201.584 433.1 201.224 433.1 200.792C433.1 200.36 433.244 200 433.532 199.712C433.82 199.424 434.188 199.28 434.636 199.28ZM449.859 211.304C449.859 211.672 449.843 212.048 449.811 212.432H441.747C441.843 213.824 442.195 214.848 442.803 215.504C443.411 216.16 444.195 216.488 445.155 216.488C445.763 216.488 446.323 216.4 446.835 216.224C447.347 216.048 447.883 215.768 448.443 215.384L449.403 216.704C448.059 217.76 446.587 218.288 444.987 218.288C443.227 218.288 441.851 217.712 440.859 216.56C439.883 215.408 439.395 213.824 439.395 211.808C439.395 210.496 439.603 209.336 440.019 208.328C440.451 207.304 441.059 206.504 441.843 205.928C442.643 205.352 443.579 205.064 444.651 205.064C446.331 205.064 447.619 205.616 448.515 206.72C449.411 207.824 449.859 209.352 449.859 211.304ZM447.675 210.656C447.675 209.408 447.427 208.456 446.931 207.8C446.435 207.144 445.691 206.816 444.699 206.816C442.891 206.816 441.907 208.144 441.747 210.8H447.675V210.656ZM457.993 205.064C458.745 205.064 459.433 205.176 460.057 205.4C460.681 205.608 461.281 205.952 461.857 206.432L460.801 207.824C460.353 207.504 459.913 207.272 459.481 207.128C459.065 206.968 458.601 206.888 458.089 206.888C457.065 206.888 456.265 207.296 455.689 208.112C455.129 208.928 454.849 210.136 454.849 211.736C454.849 213.336 455.129 214.52 455.689 215.288C456.249 216.04 457.049 216.416 458.089 216.416C458.585 216.416 459.041 216.344 459.457 216.2C459.873 216.04 460.337 215.792 460.849 215.456L461.857 216.896C460.705 217.824 459.417 218.288 457.993 218.288C456.281 218.288 454.929 217.712 453.937 216.56C452.961 215.408 452.473 213.816 452.473 211.784C452.473 210.44 452.697 209.264 453.145 208.256C453.593 207.248 454.225 206.464 455.041 205.904C455.873 205.344 456.857 205.064 457.993 205.064ZM471.23 217.424C470.398 218 469.454 218.288 468.398 218.288C467.326 218.288 466.486 217.984 465.878 217.376C465.286 216.752 464.99 215.856 464.99 214.688V207.056H462.782V205.352H464.99V202.496L467.198 202.232V205.352H470.198L469.958 207.056H467.198V214.592C467.198 215.248 467.31 215.728 467.534 216.032C467.774 216.32 468.166 216.464 468.71 216.464C469.206 216.464 469.766 216.296 470.39 215.96L471.23 217.424Z" fill="#262626"/>
<g filter="url(#filter4_d_4_199)">
<rect x="680" y="260" width="300" height="220" rx="6" fill="#FDFDFD"/>
<rect x="680.5" y="260.5" width="299" height="219" rx="5.5" stroke="#D9D9D9"/>
</g>
<path d="M704.844 458H702.636L702.06 450.536C701.82 447.608 701.684 445.36 701.652 443.792L698.076 456.128H695.94L692.172 443.768C692.172 445.768 692.068 448.08 691.86 450.704L691.308 458H689.148L690.516 441.464H693.588L697.068 453.488L700.38 441.464H703.476L704.844 458ZM713.683 458.072C713.187 459.544 712.491 460.704 711.595 461.552C710.715 462.416 709.451 462.936 707.803 463.112L707.563 461.384C708.395 461.24 709.059 461.032 709.555 460.76C710.051 460.488 710.443 460.136 710.731 459.704C711.035 459.288 711.315 458.72 711.571 458H710.827L706.579 445.352H708.931L712.315 456.392L715.627 445.352H717.907L713.683 458.072ZM732.591 445.064C734.207 445.064 735.391 445.64 736.143 446.792C736.895 447.944 737.271 449.568 737.271 451.664C737.271 453.648 736.839 455.248 735.975 456.464C735.111 457.68 733.887 458.288 732.303 458.288C730.895 458.288 729.791 457.808 728.991 456.848V462.848L726.783 463.112V445.352H728.679L728.847 447.056C729.311 446.416 729.871 445.928 730.527 445.592C731.183 445.24 731.871 445.064 732.591 445.064ZM731.775 456.488C733.855 456.488 734.895 454.88 734.895 451.664C734.895 448.432 733.943 446.816 732.039 446.816C731.415 446.816 730.847 447 730.335 447.368C729.823 447.736 729.375 448.208 728.991 448.784V454.952C729.311 455.448 729.711 455.832 730.191 456.104C730.671 456.36 731.199 456.488 731.775 456.488ZM746.529 445.064C746.977 445.064 747.393 445.112 747.777 445.208L747.369 447.368C746.985 447.272 746.617 447.224 746.265 447.224C745.481 447.224 744.849 447.512 744.369 448.088C743.889 448.664 743.513 449.56 743.241 450.776V458H741.033V445.352H742.929L743.145 447.92C743.481 446.976 743.937 446.264 744.513 445.784C745.089 445.304 745.761 445.064 746.529 445.064ZM754.317 445.064C756.093 445.064 757.469 445.656 758.445 446.84C759.437 448.024 759.933 449.632 759.933 451.664C759.933 452.976 759.709 454.136 759.261 455.144C758.813 456.136 758.165 456.912 757.317 457.472C756.469 458.016 755.461 458.288 754.293 458.288C752.517 458.288 751.133 457.696 750.141 456.512C749.149 455.328 748.653 453.72 748.653 451.688C748.653 450.376 748.877 449.224 749.325 448.232C749.773 447.224 750.421 446.448 751.269 445.904C752.117 445.344 753.133 445.064 754.317 445.064ZM754.317 446.84C752.125 446.84 751.029 448.456 751.029 451.688C751.029 454.904 752.117 456.512 754.293 456.512C756.469 456.512 757.557 454.896 757.557 451.664C757.557 448.448 756.477 446.84 754.317 446.84ZM765.74 457.232C765.74 458.4 765.596 459.336 765.308 460.04C765.02 460.744 764.596 461.312 764.036 461.744C763.492 462.192 762.724 462.64 761.732 463.088L761.084 461.48C761.708 461.192 762.188 460.904 762.524 460.616C762.86 460.344 763.108 459.952 763.268 459.44C763.444 458.944 763.532 458.256 763.532 457.376V445.352H765.74V457.232ZM764.636 439.28C765.1 439.28 765.476 439.424 765.764 439.712C766.052 440 766.196 440.36 766.196 440.792C766.196 441.224 766.052 441.584 765.764 441.872C765.476 442.144 765.1 442.28 764.636 442.28C764.188 442.28 763.82 442.144 763.532 441.872C763.244 441.584 763.1 441.224 763.1 440.792C763.1 440.36 763.244 440 763.532 439.712C763.82 439.424 764.188 439.28 764.636 439.28ZM779.859 451.304C779.859 451.672 779.843 452.048 779.811 452.432H771.747C771.843 453.824 772.195 454.848 772.803 455.504C773.411 456.16 774.195 456.488 775.155 456.488C775.763 456.488 776.323 456.4 776.835 456.224C777.347 456.048 777.883 455.768 778.443 455.384L779.403 456.704C778.059 457.76 776.587 458.288 774.987 458.288C773.227 458.288 771.851 457.712 770.859 456.56C769.883 455.408 769.395 453.824 769.395 451.808C769.395 450.496 769.603 449.336 770.019 448.328C770.451 447.304 771.059 446.504 771.843 445.928C772.643 445.352 773.579 445.064 774.651 445.064C776.331 445.064 777.619 445.616 778.515 446.72C779.411 447.824 779.859 449.352 779.859 451.304ZM777.675 450.656C777.675 449.408 777.427 448.456 776.931 447.8C776.435 447.144 775.691 446.816 774.699 446.816C772.891 446.816 771.907 448.144 771.747 450.8H777.675V450.656ZM787.993 445.064C788.745 445.064 789.433 445.176 790.057 445.4C790.681 445.608 791.281 445.952 791.857 446.432L790.801 447.824C790.353 447.504 789.913 447.272 789.481 447.128C789.065 446.968 788.601 446.888 788.089 446.888C787.065 446.888 786.265 447.296 785.689 448.112C785.129 448.928 784.849 450.136 784.849 451.736C784.849 453.336 785.129 454.52 785.689 455.288C786.249 456.04 787.049 456.416 788.089 456.416C788.585 456.416 789.041 456.344 789.457 456.2C789.873 456.04 790.337 455.792 790.849 455.456L791.857 456.896C790.705 457.824 789.417 458.288 787.993 458.288C786.281 458.288 784.929 457.712 783.937 456.56C782.961 455.408 782.473 453.816 782.473 451.784C782.473 450.44 782.697 449.264 783.145 448.256C783.593 447.248 784.225 446.464 785.041 445.904C785.873 445.344 786.857 445.064 787.993 445.064ZM801.23 457.424C800.398 458 799.454 458.288 798.398 458.288C797.326 458.288 796.486 457.984 795.878 457.376C795.286 456.752 794.99 455.856 794.99 454.688V447.056H792.782V445.352H794.99V442.496L797.198 442.232V445.352H800.198L799.958 447.056H797.198V454.592C797.198 455.248 797.31 455.728 797.534 456.032C797.774 456.32 798.166 456.464 798.71 456.464C799.206 456.464 799.766 456.296 800.39 455.96L801.23 457.424Z" fill="#262626"/>
<g filter="url(#filter5_d_4_199)">
<rect x="680" y="20" width="300" height="220" rx="6" fill="#FDFDFD"/>
<rect x="680.5" y="20.5" width="299" height="219" rx="5.5" stroke="#D9D9D9"/>
</g>
<path d="M704.844 218H702.636L702.06 210.536C701.82 207.608 701.684 205.36 701.652 203.792L698.076 216.128H695.94L692.172 203.768C692.172 205.768 692.068 208.08 691.86 210.704L691.308 218H689.148L690.516 201.464H693.588L697.068 213.488L700.38 201.464H703.476L704.844 218ZM713.683 218.072C713.187 219.544 712.491 220.704 711.595 221.552C710.715 222.416 709.451 222.936 707.803 223.112L707.563 221.384C708.395 221.24 709.059 221.032 709.555 220.76C710.051 220.488 710.443 220.136 710.731 219.704C711.035 219.288 711.315 218.72 711.571 218H710.827L706.579 205.352H708.931L712.315 216.392L715.627 205.352H717.907L713.683 218.072ZM732.591 205.064C734.207 205.064 735.391 205.64 736.143 206.792C736.895 207.944 737.271 209.568 737.271 211.664C737.271 213.648 736.839 215.248 735.975 216.464C735.111 217.68 733.887 218.288 732.303 218.288C730.895 218.288 729.791 217.808 728.991 216.848V222.848L726.783 223.112V205.352H728.679L728.847 207.056C729.311 206.416 729.871 205.928 730.527 205.592C731.183 205.24 731.871 205.064 732.591 205.064ZM731.775 216.488C733.855 216.488 734.895 214.88 734.895 211.664C734.895 208.432 733.943 206.816 732.039 206.816C731.415 206.816 730.847 207 730.335 207.368C729.823 207.736 729.375 208.208 728.991 208.784V214.952C729.311 215.448 729.711 215.832 730.191 216.104C730.671 216.36 731.199 216.488 731.775 216.488ZM746.529 205.064C746.977 205.064 747.393 205.112 747.777 205.208L747.369 207.368C746.985 207.272 746.617 207.224 746.265 207.224C745.481 207.224 744.849 207.512 744.369 208.088C743.889 208.664 743.513 209.56 743.241 210.776V218H741.033V205.352H742.929L743.145 207.92C743.481 206.976 743.937 206.264 744.513 205.784C745.089 205.304 745.761 205.064 746.529 205.064ZM754.317 205.064C756.093 205.064 757.469 205.656 758.445 206.84C759.437 208.024 759.933 209.632 759.933 211.664C759.933 212.976 759.709 214.136 759.261 215.144C758.813 216.136 758.165 216.912 757.317 217.472C756.469 218.016 755.461 218.288 754.293 218.288C752.517 218.288 751.133 217.696 750.141 216.512C749.149 215.328 748.653 213.72 748.653 211.688C748.653 210.376 748.877 209.224 749.325 208.232C749.773 207.224 750.421 206.448 751.269 205.904C752.117 205.344 753.133 205.064 754.317 205.064ZM754.317 206.84C752.125 206.84 751.029 208.456 751.029 211.688C751.029 214.904 752.117 216.512 754.293 216.512C756.469 216.512 757.557 214.896 757.557 211.664C757.557 208.448 756.477 206.84 754.317 206.84ZM765.74 217.232C765.74 218.4 765.596 219.336 765.308 220.04C765.02 220.744 764.596 221.312 764.036 221.744C763.492 222.192 762.724 222.64 761.732 223.088L761.084 221.48C761.708 221.192 762.188 220.904 762.524 220.616C762.86 220.344 763.108 219.952 763.268 219.44C763.444 218.944 763.532 218.256 763.532 217.376V205.352H765.74V217.232ZM764.636 199.28C765.1 199.28 765.476 199.424 765.764 199.712C766.052 200 766.196 200.36 766.196 200.792C766.196 201.224 766.052 201.584 765.764 201.872C765.476 202.144 765.1 202.28 764.636 202.28C764.188 202.28 763.82 202.144 763.532 201.872C763.244 201.584 763.1 201.224 763.1 200.792C763.1 200.36 763.244 200 763.532 199.712C763.82 199.424 764.188 199.28 764.636 199.28ZM779.859 211.304C779.859 211.672 779.843 212.048 779.811 212.432H771.747C771.843 213.824 772.195 214.848 772.803 215.504C773.411 216.16 774.195 216.488 775.155 216.488C775.763 216.488 776.323 216.4 776.835 216.224C777.347 216.048 777.883 215.768 778.443 215.384L779.403 216.704C778.059 217.76 776.587 218.288 774.987 218.288C773.227 218.288 771.851 217.712 770.859 216.56C769.883 215.408 769.395 213.824 769.395 211.808C769.395 210.496 769.603 209.336 770.019 208.328C770.451 207.304 771.059 206.504 771.843 205.928C772.643 205.352 773.579 205.064 774.651 205.064C776.331 205.064 777.619 205.616 778.515 206.72C779.411 207.824 779.859 209.352 779.859 211.304ZM777.675 210.656C777.675 209.408 777.427 208.456 776.931 207.8C776.435 207.144 775.691 206.816 774.699 206.816C772.891 206.816 771.907 208.144 771.747 210.8H777.675V210.656ZM787.993 205.064C788.745 205.064 789.433 205.176 790.057 205.4C790.681 205.608 791.281 205.952 791.857 206.432L790.801 207.824C790.353 207.504 789.913 207.272 789.481 207.128C789.065 206.968 788.601 206.888 788.089 206.888C787.065 206.888 786.265 207.296 785.689 208.112C785.129 208.928 784.849 210.136 784.849 211.736C784.849 213.336 785.129 214.52 785.689 215.288C786.249 216.04 787.049 216.416 788.089 216.416C788.585 216.416 789.041 216.344 789.457 216.2C789.873 216.04 790.337 215.792 790.849 215.456L791.857 216.896C790.705 217.824 789.417 218.288 787.993 218.288C786.281 218.288 784.929 217.712 783.937 216.56C782.961 215.408 782.473 213.816 782.473 211.784C782.473 210.44 782.697 209.264 783.145 208.256C783.593 207.248 784.225 206.464 785.041 205.904C785.873 205.344 786.857 205.064 787.993 205.064ZM801.23 217.424C800.398 218 799.454 218.288 798.398 218.288C797.326 218.288 796.486 217.984 795.878 217.376C795.286 216.752 794.99 215.856 794.99 214.688V207.056H792.782V205.352H794.99V202.496L797.198 202.232V205.352H800.198L799.958 207.056H797.198V214.592C797.198 215.248 797.31 215.728 797.534 216.032C797.774 216.32 798.166 216.464 798.71 216.464C799.206 216.464 799.766 216.296 800.39 215.96L801.23 217.424Z" fill="#262626"/>
<defs>
<filter id="filter0_d_4_199" x="16" y="20" width="308" height="228" filterUnits="userSpaceOnUse" color-interpolation-filters="sRGB">
<feFlood flood-opacity="0" result="BackgroundImageFix"/>
<feColorMatrix in="SourceAlpha" type="matrix" values="0 0 0 0 0 0 0 0 0 0 0 0 0 0 0 0 0 0 127 0" result="hardAlpha"/>
<feOffset dy="4"/>
<feGaussianBlur stdDeviation="2"/>
<feComposite in2="hardAlpha" operator="out"/>
<feColorMatrix type="matrix" values="0 0 0 0 0 0 0 0 0 0 0 0 0 0 0 0 0 0 0.25 0"/>
<feBlend mode="normal" in2="BackgroundImageFix" result="effect1_dropShadow_4_199"/>
<feBlend mode="normal" in="SourceGraphic" in2="effect1_dropShadow_4_199" result="shape"/>
</filter>
<filter id="filter1_d_4_199" x="346" y="260" width="308" height="228" filterUnits="userSpaceOnUse" color-interpolation-filters="sRGB">
<feFlood flood-opacity="0" result="BackgroundImageFix"/>
<feColorMatrix in="SourceAlpha" type="matrix" values="0 0 0 0 0 0 0 0 0 0 0 0 0 0 0 0 0 0 127 0" result="hardAlpha"/>
<feOffset dy="4"/>
<feGaussianBlur stdDeviation="2"/>
<feComposite in2="hardAlpha" operator="out"/>
<feColorMatrix type="matrix" values="0 0 0 0 0 0 0 0 0 0 0 0 0 0 0 0 0 0 0.25 0"/>
<feBlend mode="normal" in2="BackgroundImageFix" result="effect1_dropShadow_4_199"/>
<feBlend mode="normal" in="SourceGraphic" in2="effect1_dropShadow_4_199" result="shape"/>
</filter>
<filter id="filter2_d_4_199" x="16" y="260" width="308" height="228" filterUnits="userSpaceOnUse" color-interpolation-filters="sRGB">
<feFlood flood-opacity="0" result="BackgroundImageFix"/>
<feColorMatrix in="SourceAlpha" type="matrix" values="0 0 0 0 0 0 0 0 0 0 0 0 0 0 0 0 0 0 127 0" result="hardAlpha"/>
<feOffset dy="4"/>
<feGaussianBlur stdDeviation="2"/>
<feComposite in2="hardAlpha" operator="out"/>
<feColorMatrix type="matrix" values="0 0 0 0 0 0 0 0 0 0 0 0 0 0 0 0 0 0 0.25 0"/>
<feBlend mode="normal" in2="BackgroundImageFix" result="effect1_dropShadow_4_199"/>
<feBlend mode="normal" in="SourceGraphic" in2="effect1_dropShadow_4_199" result="shape"/>
</filter>
<filter id="filter3_d_4_199" x="346" y="20" width="308" height="228" filterUnits="userSpaceOnUse" color-interpolation-filters="sRGB">
<feFlood flood-opacity="0" result="BackgroundImageFix"/>
<feColorMatrix in="SourceAlpha" type="matrix" values="0 0 0 0 0 0 0 0 0 0 0 0 0 0 0 0 0 0 127 0" result="hardAlpha"/>
<feOffset dy="4"/>
<feGaussianBlur stdDeviation="2"/>
<feComposite in2="hardAlpha" operator="out"/>
<feColorMatrix type="matrix" values="0 0 0 0 0 0 0 0 0 0 0 0 0 0 0 0 0 0 0.25 0"/>
<feBlend mode="normal" in2="BackgroundImageFix" result="effect1_dropShadow_4_199"/>
<feBlend mode="normal" in="SourceGraphic" in2="effect1_dropShadow_4_199" result="shape"/>
</filter>
<filter id="filter4_d_4_199" x="676" y="260" width="308" height="228" filterUnits="userSpaceOnUse" color-interpolation-filters="sRGB">
<feFlood flood-opacity="0" result="BackgroundImageFix"/>
<feColorMatrix in="SourceAlpha" type="matrix" values="0 0 0 0 0 0 0 0 0 0 0 0 0 0 0 0 0 0 127 0" result="hardAlpha"/>
<feOffset dy="4"/>
<feGaussianBlur stdDeviation="2"/>
<feComposite in2="hardAlpha" operator="out"/>
<feColorMatrix type="matrix" values="0 0 0 0 0 0 0 0 0 0 0 0 0 0 0 0 0 0 0.25 0"/>
<feBlend mode="normal" in2="BackgroundImageFix" result="effect1_dropShadow_4_199"/>
<feBlend mode="normal" in="SourceGraphic" in2="effect1_dropShadow_4_199" result="shape"/>
</filter>
<filter id="filter5_d_4_199" x="676" y="20" width="308" height="228" filterUnits="userSpaceOnUse" color-interpolation-filters="sRGB">
<feFlood flood-opacity="0" result="BackgroundImageFix"/>
<feColorMatrix in="SourceAlpha" type="matrix" values="0 0 0 0 0 0 0 0 0 0 0 0 0 0 0 0 0 0 127 0" result="hardAlpha"/>
<feOffset dy="4"/>
<feGaussianBlur stdDeviation="2"/>
<feComposite in2="hardAlpha" operator="out"/>
<feColorMatrix type="matrix" values="0 0 0 0 0 0 0 0 0 0 0 0 0 0 0 0 0 0 0.25 0"/>
<feBlend mode="normal" in2="BackgroundImageFix" result="effect1_dropShadow_4_199"/>
<feBlend mode="normal" in="SourceGraphic" in2="effect1_dropShadow_4_199" result="shape"/>
</filter>
</defs>
</svg>
