<svg width="968" height="468" viewBox="0 0 968 468" fill="none" xmlns="http://www.w3.org/2000/svg">
<g filter="url(#filter0_d_2_174)">
<rect x="4" width="300" height="220" rx="6" fill="#FDFDFD"/>
<rect x="4.5" y="0.5" width="299" height="219" rx="5.5" stroke="#D9D9D9"/>
</g>
<path d="M28.8437 198H26.6357L26.0597 190.536C25.8197 187.608 25.6837 185.36 25.6517 183.792L22.0757 196.128H19.9397L16.1717 183.768C16.1717 185.768 16.0677 188.08 15.8597 190.704L15.3077 198H13.1477L14.5157 181.464H17.5877L21.0677 193.488L24.3797 181.464H27.4757L28.8437 198ZM37.6834 198.072C37.1874 199.544 36.4914 200.704 35.5954 201.552C34.7154 202.416 33.4514 202.936 31.8034 203.112L31.5634 201.384C32.3954 201.24 33.0594 201.032 33.5554 200.76C34.0514 200.488 34.4434 200.136 34.7314 199.704C35.0354 199.288 35.3154 198.72 35.5714 198H34.8274L30.5794 185.352H32.9314L36.3154 196.392L39.6274 185.352H41.9074L37.6834 198.072ZM56.5914 185.064C58.2074 185.064 59.3914 185.64 60.1434 186.792C60.8954 187.944 61.2714 189.568 61.2714 191.664C61.2714 193.648 60.8394 195.248 59.9754 196.464C59.1114 197.68 57.8874 198.288 56.3034 198.288C54.8954 198.288 53.7914 197.808 52.9914 196.848V202.848L50.7834 203.112V185.352H52.6794L52.8474 187.056C53.3114 186.416 53.8714 185.928 54.5274 185.592C55.1834 185.24 55.8714 185.064 56.5914 185.064ZM55.7754 196.488C57.8554 196.488 58.8954 194.88 58.8954 191.664C58.8954 188.432 57.9434 186.816 56.0394 186.816C55.4154 186.816 54.8474 187 54.3354 187.368C53.8234 187.736 53.3754 188.208 52.9914 188.784V194.952C53.3114 195.448 53.7114 195.832 54.1914 196.104C54.6714 196.36 55.1994 196.488 55.7754 196.488ZM70.5294 185.064C70.9774 185.064 71.3934 185.112 71.7774 185.208L71.3694 187.368C70.9854 187.272 70.6174 187.224 70.2654 187.224C69.4814 187.224 68.8494 187.512 68.3694 188.088C67.8894 188.664 67.5134 189.56 67.2414 190.776V198H65.0334V185.352H66.9294L67.1454 187.92C67.4814 186.976 67.9374 186.264 68.5134 185.784C69.0894 185.304 69.7614 185.064 70.5294 185.064ZM78.3167 185.064C80.0927 185.064 81.4687 185.656 82.4447 186.84C83.4367 188.024 83.9327 189.632 83.9327 191.664C83.9327 192.976 83.7087 194.136 83.2607 195.144C82.8127 196.136 82.1647 196.912 81.3167 197.472C80.4687 198.016 79.4607 198.288 78.2927 198.288C76.5167 198.288 75.1327 197.696 74.1407 196.512C73.1487 195.328 72.6527 193.72 72.6527 191.688C72.6527 190.376 72.8767 189.224 73.3247 188.232C73.7727 187.224 74.4207 186.448 75.2687 185.904C76.1167 185.344 77.1327 185.064 78.3167 185.064ZM78.3167 186.84C76.1247 186.84 75.0287 188.456 75.0287 191.688C75.0287 194.904 76.1167 196.512 78.2927 196.512C80.4687 196.512 81.5567 194.896 81.5567 191.664C81.5567 188.448 80.4767 186.84 78.3167 186.84ZM89.7403 197.232C89.7403 198.4 89.5963 199.336 89.3083 200.04C89.0203 200.744 88.5963 201.312 88.0363 201.744C87.4923 202.192 86.7243 202.64 85.7323 203.088L85.0843 201.48C85.7083 201.192 86.1883 200.904 86.5243 200.616C86.8603 200.344 87.1083 199.952 87.2683 199.44C87.4443 198.944 87.5323 198.256 87.5323 197.376V185.352H89.7403V197.232ZM88.6363 179.28C89.1003 179.28 89.4763 179.424 89.7643 179.712C90.0523 180 90.1963 180.36 90.1963 180.792C90.1963 181.224 90.0523 181.584 89.7643 181.872C89.4763 182.144 89.1003 182.28 88.6363 182.28C88.1883 182.28 87.8203 182.144 87.5323 181.872C87.2443 181.584 87.1003 181.224 87.1003 180.792C87.1003 180.36 87.2443 180 87.5323 179.712C87.8203 179.424 88.1883 179.28 88.6363 179.28ZM103.859 191.304C103.859 191.672 103.843 192.048 103.811 192.432H95.7469C95.8429 193.824 96.1949 194.848 96.8029 195.504C97.4109 196.16 98.1949 196.488 99.1549 196.488C99.7629 196.488 100.323 196.4 100.835 196.224C101.347 196.048 101.883 195.768 102.443 195.384L103.403 196.704C102.059 197.76 100.587 198.288 98.9869 198.288C97.2269 198.288 95.8509 197.712 94.8589 196.56C93.8829 195.408 93.3949 193.824 93.3949 191.808C93.3949 190.496 93.6029 189.336 94.0189 188.328C94.4509 187.304 95.0589 186.504 95.8429 185.928C96.6429 185.352 97.5789 185.064 98.6509 185.064C100.331 185.064 101.619 185.616 102.515 186.72C103.411 187.824 103.859 189.352 103.859 191.304ZM101.675 190.656C101.675 189.408 101.427 188.456 100.931 187.8C100.435 187.144 99.6909 186.816 98.6989 186.816C96.8909 186.816 95.9069 188.144 95.7469 190.8H101.675V190.656ZM111.993 185.064C112.745 185.064 113.433 185.176 114.057 185.4C114.681 185.608 115.281 185.952 115.857 186.432L114.801 187.824C114.353 187.504 113.913 187.272 113.481 187.128C113.065 186.968 112.601 186.888 112.089 186.888C111.065 186.888 110.265 187.296 109.689 188.112C109.129 188.928 108.849 190.136 108.849 191.736C108.849 193.336 109.129 194.52 109.689 195.288C110.249 196.04 111.049 196.416 112.089 196.416C112.585 196.416 113.041 196.344 113.457 196.2C113.873 196.04 114.337 195.792 114.849 195.456L115.857 196.896C114.705 197.824 113.417 198.288 111.993 198.288C110.281 198.288 108.929 197.712 107.937 196.56C106.961 195.408 106.473 193.816 106.473 191.784C106.473 190.44 106.697 189.264 107.145 188.256C107.593 187.248 108.225 186.464 109.041 185.904C109.873 185.344 110.857 185.064 111.993 185.064ZM125.23 197.424C124.398 198 123.454 198.288 122.398 198.288C121.326 198.288 120.486 197.984 119.878 197.376C119.286 196.752 118.99 195.856 118.99 194.688V187.056H116.782V185.352H118.99V182.496L121.198 182.232V185.352H124.198L123.958 187.056H121.198V194.592C121.198 195.248 121.31 195.728 121.534 196.032C121.774 196.32 122.166 196.464 122.71 196.464C123.206 196.464 123.766 196.296 124.39 195.96L125.23 197.424Z" fill="#262626"/>
<g filter="url(#filter1_d_2_174)">
<rect x="334" y="240" width="300" height="220" rx="6" fill="#FDFDFD"/>
<rect x="334.5" y="240.5" width="299" height="219" rx="5.5" stroke="#D9D9D9"/>
</g>
<path d="M358.844 438H356.636L356.06 430.536C355.82 427.608 355.684 425.36 355.652 423.792L352.076 436.128H349.94L346.172 423.768C346.172 425.768 346.068 428.08 345.86 430.704L345.308 438H343.148L344.516 421.464H347.588L351.068 433.488L354.38 421.464H357.476L358.844 438ZM367.683 438.072C367.187 439.544 366.491 440.704 365.595 441.552C364.715 442.416 363.451 442.936 361.803 443.112L361.563 441.384C362.395 441.24 363.059 441.032 363.555 440.76C364.051 440.488 364.443 440.136 364.731 439.704C365.035 439.288 365.315 438.72 365.571 438H364.827L360.579 425.352H362.931L366.315 436.392L369.627 425.352H371.907L367.683 438.072ZM386.591 425.064C388.207 425.064 389.391 425.64 390.143 426.792C390.895 427.944 391.271 429.568 391.271 431.664C391.271 433.648 390.839 435.248 389.975 436.464C389.111 437.68 387.887 438.288 386.303 438.288C384.895 438.288 383.791 437.808 382.991 436.848V442.848L380.783 443.112V425.352H382.679L382.847 427.056C383.311 426.416 383.871 425.928 384.527 425.592C385.183 425.24 385.871 425.064 386.591 425.064ZM385.775 436.488C387.855 436.488 388.895 434.88 388.895 431.664C388.895 428.432 387.943 426.816 386.039 426.816C385.415 426.816 384.847 427 384.335 427.368C383.823 427.736 383.375 428.208 382.991 428.784V434.952C383.311 435.448 383.711 435.832 384.191 436.104C384.671 436.36 385.199 436.488 385.775 436.488ZM400.529 425.064C400.977 425.064 401.393 425.112 401.777 425.208L401.369 427.368C400.985 427.272 400.617 427.224 400.265 427.224C399.481 427.224 398.849 427.512 398.369 428.088C397.889 428.664 397.513 429.56 397.241 430.776V438H395.033V425.352H396.929L397.145 427.92C397.481 426.976 397.937 426.264 398.513 425.784C399.089 425.304 399.761 425.064 400.529 425.064ZM408.317 425.064C410.093 425.064 411.469 425.656 412.445 426.84C413.437 428.024 413.933 429.632 413.933 431.664C413.933 432.976 413.709 434.136 413.261 435.144C412.813 436.136 412.165 436.912 411.317 437.472C410.469 438.016 409.461 438.288 408.293 438.288C406.517 438.288 405.133 437.696 404.141 436.512C403.149 435.328 402.653 433.72 402.653 431.688C402.653 430.376 402.877 429.224 403.325 428.232C403.773 427.224 404.421 426.448 405.269 425.904C406.117 425.344 407.133 425.064 408.317 425.064ZM408.317 426.84C406.125 426.84 405.029 428.456 405.029 431.688C405.029 434.904 406.117 436.512 408.293 436.512C410.469 436.512 411.557 434.896 411.557 431.664C411.557 428.448 410.477 426.84 408.317 426.84ZM419.74 437.232C419.74 438.4 419.596 439.336 419.308 440.04C419.02 440.744 418.596 441.312 418.036 441.744C417.492 442.192 416.724 442.64 415.732 443.088L415.084 441.48C415.708 441.192 416.188 440.904 416.524 440.616C416.86 440.344 417.108 439.952 417.268 439.44C417.444 438.944 417.532 438.256 417.532 437.376V425.352H419.74V437.232ZM418.636 419.28C419.1 419.28 419.476 419.424 419.764 419.712C420.052 420 420.196 420.36 420.196 420.792C420.196 421.224 420.052 421.584 419.764 421.872C419.476 422.144 419.1 422.28 418.636 422.28C418.188 422.28 417.82 422.144 417.532 421.872C417.244 421.584 417.1 421.224 417.1 420.792C417.1 420.36 417.244 420 417.532 419.712C417.82 419.424 418.188 419.28 418.636 419.28ZM433.859 431.304C433.859 431.672 433.843 432.048 433.811 432.432H425.747C425.843 433.824 426.195 434.848 426.803 435.504C427.411 436.16 428.195 436.488 429.155 436.488C429.763 436.488 430.323 436.4 430.835 436.224C431.347 436.048 431.883 435.768 432.443 435.384L433.403 436.704C432.059 437.76 430.587 438.288 428.987 438.288C427.227 438.288 425.851 437.712 424.859 436.56C423.883 435.408 423.395 433.824 423.395 431.808C423.395 430.496 423.603 429.336 424.019 428.328C424.451 427.304 425.059 426.504 425.843 425.928C426.643 425.352 427.579 425.064 428.651 425.064C430.331 425.064 431.619 425.616 432.515 426.72C433.411 427.824 433.859 429.352 433.859 431.304ZM431.675 430.656C431.675 429.408 431.427 428.456 430.931 427.8C430.435 427.144 429.691 426.816 428.699 426.816C426.891 426.816 425.907 428.144 425.747 430.8H431.675V430.656ZM441.993 425.064C442.745 425.064 443.433 425.176 444.057 425.4C444.681 425.608 445.281 425.952 445.857 426.432L444.801 427.824C444.353 427.504 443.913 427.272 443.481 427.128C443.065 426.968 442.601 426.888 442.089 426.888C441.065 426.888 440.265 427.296 439.689 428.112C439.129 428.928 438.849 430.136 438.849 431.736C438.849 433.336 439.129 434.52 439.689 435.288C440.249 436.04 441.049 436.416 442.089 436.416C442.585 436.416 443.041 436.344 443.457 436.2C443.873 436.04 444.337 435.792 444.849 435.456L445.857 436.896C444.705 437.824 443.417 438.288 441.993 438.288C440.281 438.288 438.929 437.712 437.937 436.56C436.961 435.408 436.473 433.816 436.473 431.784C436.473 430.44 436.697 429.264 437.145 428.256C437.593 427.248 438.225 426.464 439.041 425.904C439.873 425.344 440.857 425.064 441.993 425.064ZM455.23 437.424C454.398 438 453.454 438.288 452.398 438.288C451.326 438.288 450.486 437.984 449.878 437.376C449.286 436.752 448.99 435.856 448.99 434.688V427.056H446.782V425.352H448.99V422.496L451.198 422.232V425.352H454.198L453.958 427.056H451.198V434.592C451.198 435.248 451.31 435.728 451.534 436.032C451.774 436.32 452.166 436.464 452.71 436.464C453.206 436.464 453.766 436.296 454.39 435.96L455.23 437.424Z" fill="#262626"/>
<g filter="url(#filter2_d_2_174)">
<rect x="4" y="240" width="300" height="220" rx="6" fill="#FDFDFD"/>
<rect x="4.5" y="240.5" width="299" height="219" rx="5.5" stroke="#D9D9D9"/>
</g>
<path d="M28.8437 438H26.6357L26.0597 430.536C25.8197 427.608 25.6837 425.36 25.6517 423.792L22.0757 436.128H19.9397L16.1717 423.768C16.1717 425.768 16.0677 428.08 15.8597 430.704L15.3077 438H13.1477L14.5157 421.464H17.5877L21.0677 433.488L24.3797 421.464H27.4757L28.8437 438ZM37.6834 438.072C37.1874 439.544 36.4914 440.704 35.5954 441.552C34.7154 442.416 33.4514 442.936 31.8034 443.112L31.5634 441.384C32.3954 441.24 33.0594 441.032 33.5554 440.76C34.0514 440.488 34.4434 440.136 34.7314 439.704C35.0354 439.288 35.3154 438.72 35.5714 438H34.8274L30.5794 425.352H32.9314L36.3154 436.392L39.6274 425.352H41.9074L37.6834 438.072ZM56.5914 425.064C58.2074 425.064 59.3914 425.64 60.1434 426.792C60.8954 427.944 61.2714 429.568 61.2714 431.664C61.2714 433.648 60.8394 435.248 59.9754 436.464C59.1114 437.68 57.8874 438.288 56.3034 438.288C54.8954 438.288 53.7914 437.808 52.9914 436.848V442.848L50.7834 443.112V425.352H52.6794L52.8474 427.056C53.3114 426.416 53.8714 425.928 54.5274 425.592C55.1834 425.24 55.8714 425.064 56.5914 425.064ZM55.7754 436.488C57.8554 436.488 58.8954 434.88 58.8954 431.664C58.8954 428.432 57.9434 426.816 56.0394 426.816C55.4154 426.816 54.8474 427 54.3354 427.368C53.8234 427.736 53.3754 428.208 52.9914 428.784V434.952C53.3114 435.448 53.7114 435.832 54.1914 436.104C54.6714 436.36 55.1994 436.488 55.7754 436.488ZM70.5294 425.064C70.9774 425.064 71.3934 425.112 71.7774 425.208L71.3694 427.368C70.9854 427.272 70.6174 427.224 70.2654 427.224C69.4814 427.224 68.8494 427.512 68.3694 428.088C67.8894 428.664 67.5134 429.56 67.2414 430.776V438H65.0334V425.352H66.9294L67.1454 427.92C67.4814 426.976 67.9374 426.264 68.5134 425.784C69.0894 425.304 69.7614 425.064 70.5294 425.064ZM78.3167 425.064C80.0927 425.064 81.4687 425.656 82.4447 426.84C83.4367 428.024 83.9327 429.632 83.9327 431.664C83.9327 432.976 83.7087 434.136 83.2607 435.144C82.8127 436.136 82.1647 436.912 81.3167 437.472C80.4687 438.016 79.4607 438.288 78.2927 438.288C76.5167 438.288 75.1327 437.696 74.1407 436.512C73.1487 435.328 72.6527 433.72 72.6527 431.688C72.6527 430.376 72.8767 429.224 73.3247 428.232C73.7727 427.224 74.4207 426.448 75.2687 425.904C76.1167 425.344 77.1327 425.064 78.3167 425.064ZM78.3167 426.84C76.1247 426.84 75.0287 428.456 75.0287 431.688C75.0287 434.904 76.1167 436.512 78.2927 436.512C80.4687 436.512 81.5567 434.896 81.5567 431.664C81.5567 428.448 80.4767 426.84 78.3167 426.84ZM89.7403 437.232C89.7403 438.4 89.5963 439.336 89.3083 440.04C89.0203 440.744 88.5963 441.312 88.0363 441.744C87.4923 442.192 86.7243 442.64 85.7323 443.088L85.0843 441.48C85.7083 441.192 86.1883 440.904 86.5243 440.616C86.8603 440.344 87.1083 439.952 87.2683 439.44C87.4443 438.944 87.5323 438.256 87.5323 437.376V425.352H89.7403V437.232ZM88.6363 419.28C89.1003 419.28 89.4763 419.424 89.7643 419.712C90.0523 420 90.1963 420.36 90.1963 420.792C90.1963 421.224 90.0523 421.584 89.7643 421.872C89.4763 422.144 89.1003 422.28 88.6363 422.28C88.1883 422.28 87.8203 422.144 87.5323 421.872C87.2443 421.584 87.1003 421.224 87.1003 420.792C87.1003 420.36 87.2443 420 87.5323 419.712C87.8203 419.424 88.1883 419.28 88.6363 419.28ZM103.859 431.304C103.859 431.672 103.843 432.048 103.811 432.432H95.7469C95.8429 433.824 96.1949 434.848 96.8029 435.504C97.4109 436.16 98.1949 436.488 99.1549 436.488C99.7629 436.488 100.323 436.4 100.835 436.224C101.347 436.048 101.883 435.768 102.443 435.384L103.403 436.704C102.059 437.76 100.587 438.288 98.9869 438.288C97.2269 438.288 95.8509 437.712 94.8589 436.56C93.8829 435.408 93.3949 433.824 93.3949 431.808C93.3949 430.496 93.6029 429.336 94.0189 428.328C94.4509 427.304 95.0589 426.504 95.8429 425.928C96.6429 425.352 97.5789 425.064 98.6509 425.064C100.331 425.064 101.619 425.616 102.515 426.72C103.411 427.824 103.859 429.352 103.859 431.304ZM101.675 430.656C101.675 429.408 101.427 428.456 100.931 427.8C100.435 427.144 99.6909 426.816 98.6989 426.816C96.8909 426.816 95.9069 428.144 95.7469 430.8H101.675V430.656ZM111.993 425.064C112.745 425.064 113.433 425.176 114.057 425.4C114.681 425.608 115.281 425.952 115.857 426.432L114.801 427.824C114.353 427.504 113.913 427.272 113.481 427.128C113.065 426.968 112.601 426.888 112.089 426.888C111.065 426.888 110.265 427.296 109.689 428.112C109.129 428.928 108.849 430.136 108.849 431.736C108.849 433.336 109.129 434.52 109.689 435.288C110.249 436.04 111.049 436.416 112.089 436.416C112.585 436.416 113.041 436.344 113.457 436.2C113.873 436.04 114.337 435.792 114.849 435.456L115.857 436.896C114.705 437.824 113.417 438.288 111.993 438.288C110.281 438.288 108.929 437.712 107.937 436.56C106.961 435.408 106.473 433.816 106.473 431.784C106.473 430.44 106.697 429.264 107.145 428.256C107.593 427.248 108.225 426.464 109.041 425.904C109.873 425.344 110.857 425.064 111.993 425.064ZM125.23 437.424C124.398 438 123.454 438.288 122.398 438.288C121.326 438.288 120.486 437.984 119.878 437.376C119.286 436.752 118.99 435.856 118.99 434.688V427.056H116.782V425.352H118.99V422.496L121.198 422.232V425.352H124.198L123.958 427.056H121.198V434.592C121.198 435.248 121.31 435.728 121.534 436.032C121.774 436.32 122.166 436.464 122.71 436.464C123.206 436.464 123.766 436.296 124.39 435.96L125.23 437.424Z" fill="#262626"/>
<g filter="url(#filter3_d_2_174)">
<rect x="334" width="300" height="220" rx="6" fill="#FDFDFD"/>
<rect x="334.5" y="0.5" width="299" height="219" rx="5.5" stroke="#D9D9D9"/>
</g>
<path d="M358.844 198H356.636L356.06 190.536C355.82 187.608 355.684 185.36 355.652 183.792L352.076 196.128H349.94L346.172 183.768C346.172 185.768 346.068 188.08 345.86 190.704L345.308 198H343.148L344.516 181.464H347.588L351.068 193.488L354.38 181.464H357.476L358.844 198ZM367.683 198.072C367.187 199.544 366.491 200.704 365.595 201.552C364.715 202.416 363.451 202.936 361.803 203.112L361.563 201.384C362.395 201.24 363.059 201.032 363.555 200.76C364.051 200.488 364.443 200.136 364.731 199.704C365.035 199.288 365.315 198.72 365.571 198H364.827L360.579 185.352H362.931L366.315 196.392L369.627 185.352H371.907L367.683 198.072ZM386.591 185.064C388.207 185.064 389.391 185.64 390.143 186.792C390.895 187.944 391.271 189.568 391.271 191.664C391.271 193.648 390.839 195.248 389.975 196.464C389.111 197.68 387.887 198.288 386.303 198.288C384.895 198.288 383.791 197.808 382.991 196.848V202.848L380.783 203.112V185.352H382.679L382.847 187.056C383.311 186.416 383.871 185.928 384.527 185.592C385.183 185.24 385.871 185.064 386.591 185.064ZM385.775 196.488C387.855 196.488 388.895 194.88 388.895 191.664C388.895 188.432 387.943 186.816 386.039 186.816C385.415 186.816 384.847 187 384.335 187.368C383.823 187.736 383.375 188.208 382.991 188.784V194.952C383.311 195.448 383.711 195.832 384.191 196.104C384.671 196.36 385.199 196.488 385.775 196.488ZM400.529 185.064C400.977 185.064 401.393 185.112 401.777 185.208L401.369 187.368C400.985 187.272 400.617 187.224 400.265 187.224C399.481 187.224 398.849 187.512 398.369 188.088C397.889 188.664 397.513 189.56 397.241 190.776V198H395.033V185.352H396.929L397.145 187.92C397.481 186.976 397.937 186.264 398.513 185.784C399.089 185.304 399.761 185.064 400.529 185.064ZM408.317 185.064C410.093 185.064 411.469 185.656 412.445 186.84C413.437 188.024 413.933 189.632 413.933 191.664C413.933 192.976 413.709 194.136 413.261 195.144C412.813 196.136 412.165 196.912 411.317 197.472C410.469 198.016 409.461 198.288 408.293 198.288C406.517 198.288 405.133 197.696 404.141 196.512C403.149 195.328 402.653 193.72 402.653 191.688C402.653 190.376 402.877 189.224 403.325 188.232C403.773 187.224 404.421 186.448 405.269 185.904C406.117 185.344 407.133 185.064 408.317 185.064ZM408.317 186.84C406.125 186.84 405.029 188.456 405.029 191.688C405.029 194.904 406.117 196.512 408.293 196.512C410.469 196.512 411.557 194.896 411.557 191.664C411.557 188.448 410.477 186.84 408.317 186.84ZM419.74 197.232C419.74 198.4 419.596 199.336 419.308 200.04C419.02 200.744 418.596 201.312 418.036 201.744C417.492 202.192 416.724 202.64 415.732 203.088L415.084 201.48C415.708 201.192 416.188 200.904 416.524 200.616C416.86 200.344 417.108 199.952 417.268 199.44C417.444 198.944 417.532 198.256 417.532 197.376V185.352H419.74V197.232ZM418.636 179.28C419.1 179.28 419.476 179.424 419.764 179.712C420.052 180 420.196 180.36 420.196 180.792C420.196 181.224 420.052 181.584 419.764 181.872C419.476 182.144 419.1 182.28 418.636 182.28C418.188 182.28 417.82 182.144 417.532 181.872C417.244 181.584 417.1 181.224 417.1 180.792C417.1 180.36 417.244 180 417.532 179.712C417.82 179.424 418.188 179.28 418.636 179.28ZM433.859 191.304C433.859 191.672 433.843 192.048 433.811 192.432H425.747C425.843 193.824 426.195 194.848 426.803 195.504C427.411 196.16 428.195 196.488 429.155 196.488C429.763 196.488 430.323 196.4 430.835 196.224C431.347 196.048 431.883 195.768 432.443 195.384L433.403 196.704C432.059 197.76 430.587 198.288 428.987 198.288C427.227 198.288 425.851 197.712 424.859 196.56C423.883 195.408 423.395 193.824 423.395 191.808C423.395 190.496 423.603 189.336 424.019 188.328C424.451 187.304 425.059 186.504 425.843 185.928C426.643 185.352 427.579 185.064 428.651 185.064C430.331 185.064 431.619 185.616 432.515 186.72C433.411 187.824 433.859 189.352 433.859 191.304ZM431.675 190.656C431.675 189.408 431.427 188.456 430.931 187.8C430.435 187.144 429.691 186.816 428.699 186.816C426.891 186.816 425.907 188.144 425.747 190.8H431.675V190.656ZM441.993 185.064C442.745 185.064 443.433 185.176 444.057 185.4C444.681 185.608 445.281 185.952 445.857 186.432L444.801 187.824C444.353 187.504 443.913 187.272 443.481 187.128C443.065 186.968 442.601 186.888 442.089 186.888C441.065 186.888 440.265 187.296 439.689 188.112C439.129 188.928 438.849 190.136 438.849 191.736C438.849 193.336 439.129 194.52 439.689 195.288C440.249 196.04 441.049 196.416 442.089 196.416C442.585 196.416 443.041 196.344 443.457 196.2C443.873 196.04 444.337 195.792 444.849 195.456L445.857 196.896C444.705 197.824 443.417 198.288 441.993 198.288C440.281 198.288 438.929 197.712 437.937 196.56C436.961 195.408 436.473 193.816 436.473 191.784C436.473 190.44 436.697 189.264 437.145 188.256C437.593 187.248 438.225 186.464 439.041 185.904C439.873 185.344 440.857 185.064 441.993 185.064ZM455.23 197.424C454.398 198 453.454 198.288 452.398 198.288C451.326 198.288 450.486 197.984 449.878 197.376C449.286 196.752 448.99 195.856 448.99 194.688V187.056H446.782V185.352H448.99V182.496L451.198 182.232V185.352H454.198L453.958 187.056H451.198V194.592C451.198 195.248 451.31 195.728 451.534 196.032C451.774 196.32 452.166 196.464 452.71 196.464C453.206 196.464 453.766 196.296 454.39 195.96L455.23 197.424Z" fill="#262626"/>
<g filter="url(#filter4_d_2_174)">
<rect x="664" y="240" width="300" height="220" rx="6" fill="#FDFDFD"/>
<rect x="664.5" y="240.5" width="299" height="219" rx="5.5" stroke="#D9D9D9"/>
</g>
<path d="M688.844 438H686.636L686.06 430.536C685.82 427.608 685.684 425.36 685.652 423.792L682.076 436.128H679.94L676.172 423.768C676.172 425.768 676.068 428.08 675.86 430.704L675.308 438H673.148L674.516 421.464H677.588L681.068 433.488L684.38 421.464H687.476L688.844 438ZM697.683 438.072C697.187 439.544 696.491 440.704 695.595 441.552C694.715 442.416 693.451 442.936 691.803 443.112L691.563 441.384C692.395 441.24 693.059 441.032 693.555 440.76C694.051 440.488 694.443 440.136 694.731 439.704C695.035 439.288 695.315 438.72 695.571 438H694.827L690.579 425.352H692.931L696.315 436.392L699.627 425.352H701.907L697.683 438.072ZM716.591 425.064C718.207 425.064 719.391 425.64 720.143 426.792C720.895 427.944 721.271 429.568 721.271 431.664C721.271 433.648 720.839 435.248 719.975 436.464C719.111 437.68 717.887 438.288 716.303 438.288C714.895 438.288 713.791 437.808 712.991 436.848V442.848L710.783 443.112V425.352H712.679L712.847 427.056C713.311 426.416 713.871 425.928 714.527 425.592C715.183 425.24 715.871 425.064 716.591 425.064ZM715.775 436.488C717.855 436.488 718.895 434.88 718.895 431.664C718.895 428.432 717.943 426.816 716.039 426.816C715.415 426.816 714.847 427 714.335 427.368C713.823 427.736 713.375 428.208 712.991 428.784V434.952C713.311 435.448 713.711 435.832 714.191 436.104C714.671 436.36 715.199 436.488 715.775 436.488ZM730.529 425.064C730.977 425.064 731.393 425.112 731.777 425.208L731.369 427.368C730.985 427.272 730.617 427.224 730.265 427.224C729.481 427.224 728.849 427.512 728.369 428.088C727.889 428.664 727.513 429.56 727.241 430.776V438H725.033V425.352H726.929L727.145 427.92C727.481 426.976 727.937 426.264 728.513 425.784C729.089 425.304 729.761 425.064 730.529 425.064ZM738.317 425.064C740.093 425.064 741.469 425.656 742.445 426.84C743.437 428.024 743.933 429.632 743.933 431.664C743.933 432.976 743.709 434.136 743.261 435.144C742.813 436.136 742.165 436.912 741.317 437.472C740.469 438.016 739.461 438.288 738.293 438.288C736.517 438.288 735.133 437.696 734.141 436.512C733.149 435.328 732.653 433.72 732.653 431.688C732.653 430.376 732.877 429.224 733.325 428.232C733.773 427.224 734.421 426.448 735.269 425.904C736.117 425.344 737.133 425.064 738.317 425.064ZM738.317 426.84C736.125 426.84 735.029 428.456 735.029 431.688C735.029 434.904 736.117 436.512 738.293 436.512C740.469 436.512 741.557 434.896 741.557 431.664C741.557 428.448 740.477 426.84 738.317 426.84ZM749.74 437.232C749.74 438.4 749.596 439.336 749.308 440.04C749.02 440.744 748.596 441.312 748.036 441.744C747.492 442.192 746.724 442.64 745.732 443.088L745.084 441.48C745.708 441.192 746.188 440.904 746.524 440.616C746.86 440.344 747.108 439.952 747.268 439.44C747.444 438.944 747.532 438.256 747.532 437.376V425.352H749.74V437.232ZM748.636 419.28C749.1 419.28 749.476 419.424 749.764 419.712C750.052 420 750.196 420.36 750.196 420.792C750.196 421.224 750.052 421.584 749.764 421.872C749.476 422.144 749.1 422.28 748.636 422.28C748.188 422.28 747.82 422.144 747.532 421.872C747.244 421.584 747.1 421.224 747.1 420.792C747.1 420.36 747.244 420 747.532 419.712C747.82 419.424 748.188 419.28 748.636 419.28ZM763.859 431.304C763.859 431.672 763.843 432.048 763.811 432.432H755.747C755.843 433.824 756.195 434.848 756.803 435.504C757.411 436.16 758.195 436.488 759.155 436.488C759.763 436.488 760.323 436.4 760.835 436.224C761.347 436.048 761.883 435.768 762.443 435.384L763.403 436.704C762.059 437.76 760.587 438.288 758.987 438.288C757.227 438.288 755.851 437.712 754.859 436.56C753.883 435.408 753.395 433.824 753.395 431.808C753.395 430.496 753.603 429.336 754.019 428.328C754.451 427.304 755.059 426.504 755.843 425.928C756.643 425.352 757.579 425.064 758.651 425.064C760.331 425.064 761.619 425.616 762.515 426.72C763.411 427.824 763.859 429.352 763.859 431.304ZM761.675 430.656C761.675 429.408 761.427 428.456 760.931 427.8C760.435 427.144 759.691 426.816 758.699 426.816C756.891 426.816 755.907 428.144 755.747 430.8H761.675V430.656ZM771.993 425.064C772.745 425.064 773.433 425.176 774.057 425.4C774.681 425.608 775.281 425.952 775.857 426.432L774.801 427.824C774.353 427.504 773.913 427.272 773.481 427.128C773.065 426.968 772.601 426.888 772.089 426.888C771.065 426.888 770.265 427.296 769.689 428.112C769.129 428.928 768.849 430.136 768.849 431.736C768.849 433.336 769.129 434.52 769.689 435.288C770.249 436.04 771.049 436.416 772.089 436.416C772.585 436.416 773.041 436.344 773.457 436.2C773.873 436.04 774.337 435.792 774.849 435.456L775.857 436.896C774.705 437.824 773.417 438.288 771.993 438.288C770.281 438.288 768.929 437.712 767.937 436.56C766.961 435.408 766.473 433.816 766.473 431.784C766.473 430.44 766.697 429.264 767.145 428.256C767.593 427.248 768.225 426.464 769.041 425.904C769.873 425.344 770.857 425.064 771.993 425.064ZM785.23 437.424C784.398 438 783.454 438.288 782.398 438.288C781.326 438.288 780.486 437.984 779.878 437.376C779.286 436.752 778.99 435.856 778.99 434.688V427.056H776.782V425.352H778.99V422.496L781.198 422.232V425.352H784.198L783.958 427.056H781.198V434.592C781.198 435.248 781.31 435.728 781.534 436.032C781.774 436.32 782.166 436.464 782.71 436.464C783.206 436.464 783.766 436.296 784.39 435.96L785.23 437.424Z" fill="#262626"/>
<g filter="url(#filter5_d_2_174)">
<rect x="664" width="300" height="220" rx="6" fill="#FDFDFD"/>
<rect x="664.5" y="0.5" width="299" height="219" rx="5.5" stroke="#D9D9D9"/>
</g>
<path d="M688.844 198H686.636L686.06 190.536C685.82 187.608 685.684 185.36 685.652 183.792L682.076 196.128H679.94L676.172 183.768C676.172 185.768 676.068 188.08 675.86 190.704L675.308 198H673.148L674.516 181.464H677.588L681.068 193.488L684.38 181.464H687.476L688.844 198ZM697.683 198.072C697.187 199.544 696.491 200.704 695.595 201.552C694.715 202.416 693.451 202.936 691.803 203.112L691.563 201.384C692.395 201.24 693.059 201.032 693.555 200.76C694.051 200.488 694.443 200.136 694.731 199.704C695.035 199.288 695.315 198.72 695.571 198H694.827L690.579 185.352H692.931L696.315 196.392L699.627 185.352H701.907L697.683 198.072ZM716.591 185.064C718.207 185.064 719.391 185.64 720.143 186.792C720.895 187.944 721.271 189.568 721.271 191.664C721.271 193.648 720.839 195.248 719.975 196.464C719.111 197.68 717.887 198.288 716.303 198.288C714.895 198.288 713.791 197.808 712.991 196.848V202.848L710.783 203.112V185.352H712.679L712.847 187.056C713.311 186.416 713.871 185.928 714.527 185.592C715.183 185.24 715.871 185.064 716.591 185.064ZM715.775 196.488C717.855 196.488 718.895 194.88 718.895 191.664C718.895 188.432 717.943 186.816 716.039 186.816C715.415 186.816 714.847 187 714.335 187.368C713.823 187.736 713.375 188.208 712.991 188.784V194.952C713.311 195.448 713.711 195.832 714.191 196.104C714.671 196.36 715.199 196.488 715.775 196.488ZM730.529 185.064C730.977 185.064 731.393 185.112 731.777 185.208L731.369 187.368C730.985 187.272 730.617 187.224 730.265 187.224C729.481 187.224 728.849 187.512 728.369 188.088C727.889 188.664 727.513 189.56 727.241 190.776V198H725.033V185.352H726.929L727.145 187.92C727.481 186.976 727.937 186.264 728.513 185.784C729.089 185.304 729.761 185.064 730.529 185.064ZM738.317 185.064C740.093 185.064 741.469 185.656 742.445 186.84C743.437 188.024 743.933 189.632 743.933 191.664C743.933 192.976 743.709 194.136 743.261 195.144C742.813 196.136 742.165 196.912 741.317 197.472C740.469 198.016 739.461 198.288 738.293 198.288C736.517 198.288 735.133 197.696 734.141 196.512C733.149 195.328 732.653 193.72 732.653 191.688C732.653 190.376 732.877 189.224 733.325 188.232C733.773 187.224 734.421 186.448 735.269 185.904C736.117 185.344 737.133 185.064 738.317 185.064ZM738.317 186.84C736.125 186.84 735.029 188.456 735.029 191.688C735.029 194.904 736.117 196.512 738.293 196.512C740.469 196.512 741.557 194.896 741.557 191.664C741.557 188.448 740.477 186.84 738.317 186.84ZM749.74 197.232C749.74 198.4 749.596 199.336 749.308 200.04C749.02 200.744 748.596 201.312 748.036 201.744C747.492 202.192 746.724 202.64 745.732 203.088L745.084 201.48C745.708 201.192 746.188 200.904 746.524 200.616C746.86 200.344 747.108 199.952 747.268 199.44C747.444 198.944 747.532 198.256 747.532 197.376V185.352H749.74V197.232ZM748.636 179.28C749.1 179.28 749.476 179.424 749.764 179.712C750.052 180 750.196 180.36 750.196 180.792C750.196 181.224 750.052 181.584 749.764 181.872C749.476 182.144 749.1 182.28 748.636 182.28C748.188 182.28 747.82 182.144 747.532 181.872C747.244 181.584 747.1 181.224 747.1 180.792C747.1 180.36 747.244 180 747.532 179.712C747.82 179.424 748.188 179.28 748.636 179.28ZM763.859 191.304C763.859 191.672 763.843 192.048 763.811 192.432H755.747C755.843 193.824 756.195 194.848 756.803 195.504C757.411 196.16 758.195 196.488 759.155 196.488C759.763 196.488 760.323 196.4 760.835 196.224C761.347 196.048 761.883 195.768 762.443 195.384L763.403 196.704C762.059 197.76 760.587 198.288 758.987 198.288C757.227 198.288 755.851 197.712 754.859 196.56C753.883 195.408 753.395 193.824 753.395 191.808C753.395 190.496 753.603 189.336 754.019 188.328C754.451 187.304 755.059 186.504 755.843 185.928C756.643 185.352 757.579 185.064 758.651 185.064C760.331 185.064 761.619 185.616 762.515 186.72C763.411 187.824 763.859 189.352 763.859 191.304ZM761.675 190.656C761.675 189.408 761.427 188.456 760.931 187.8C760.435 187.144 759.691 186.816 758.699 186.816C756.891 186.816 755.907 188.144 755.747 190.8H761.675V190.656ZM771.993 185.064C772.745 185.064 773.433 185.176 774.057 185.4C774.681 185.608 775.281 185.952 775.857 186.432L774.801 187.824C774.353 187.504 773.913 187.272 773.481 187.128C773.065 186.968 772.601 186.888 772.089 186.888C771.065 186.888 770.265 187.296 769.689 188.112C769.129 188.928 768.849 190.136 768.849 191.736C768.849 193.336 769.129 194.52 769.689 195.288C770.249 196.04 771.049 196.416 772.089 196.416C772.585 196.416 773.041 196.344 773.457 196.2C773.873 196.04 774.337 195.792 774.849 195.456L775.857 196.896C774.705 197.824 773.417 198.288 771.993 198.288C770.281 198.288 768.929 197.712 767.937 196.56C766.961 195.408 766.473 193.816 766.473 191.784C766.473 190.44 766.697 189.264 767.145 188.256C767.593 187.248 768.225 186.464 769.041 185.904C769.873 185.344 770.857 185.064 771.993 185.064ZM785.23 197.424C784.398 198 783.454 198.288 782.398 198.288C781.326 198.288 780.486 197.984 779.878 197.376C779.286 196.752 778.99 195.856 778.99 194.688V187.056H776.782V185.352H778.99V182.496L781.198 182.232V185.352H784.198L783.958 187.056H781.198V194.592C781.198 195.248 781.31 195.728 781.534 196.032C781.774 196.32 782.166 196.464 782.71 196.464C783.206 196.464 783.766 196.296 784.39 195.96L785.23 197.424Z" fill="#262626"/>
<defs>
<filter id="filter0_d_2_174" x="0" y="0" width="308" height="228" filterUnits="userSpaceOnUse" color-interpolation-filters="sRGB">
<feFlood flood-opacity="0" result="BackgroundImageFix"/>
<feColorMatrix in="SourceAlpha" type="matrix" values="0 0 0 0 0 0 0 0 0 0 0 0 0 0 0 0 0 0 127 0" result="hardAlpha"/>
<feOffset dy="4"/>
<feGaussianBlur stdDeviation="2"/>
<feComposite in2="hardAlpha" operator="out"/>
<feColorMatrix type="matrix" values="0 0 0 0 0 0 0 0 0 0 0 0 0 0 0 0 0 0 0.25 0"/>
<feBlend mode="normal" in2="BackgroundImageFix" result="effect1_dropShadow_2_174"/>
<feBlend mode="normal" in="SourceGraphic" in2="effect1_dropShadow_2_174" result="shape"/>
</filter>
<filter id="filter1_d_2_174" x="330" y="240" width="308" height="228" filterUnits="userSpaceOnUse" color-interpolation-filters="sRGB">
<feFlood flood-opacity="0" result="BackgroundImageFix"/>
<feColorMatrix in="SourceAlpha" type="matrix" values="0 0 0 0 0 0 0 0 0 0 0 0 0 0 0 0 0 0 127 0" result="hardAlpha"/>
<feOffset dy="4"/>
<feGaussianBlur stdDeviation="2"/>
<feComposite in2="hardAlpha" operator="out"/>
<feColorMatrix type="matrix" values="0 0 0 0 0 0 0 0 0 0 0 0 0 0 0 0 0 0 0.25 0"/>
<feBlend mode="normal" in2="BackgroundImageFix" result="effect1_dropShadow_2_174"/>
<feBlend mode="normal" in="SourceGraphic" in2="effect1_dropShadow_2_174" result="shape"/>
</filter>
<filter id="filter2_d_2_174" x="0" y="240" width="308" height="228" filterUnits="userSpaceOnUse" color-interpolation-filters="sRGB">
<feFlood flood-opacity="0" result="BackgroundImageFix"/>
<feColorMatrix in="SourceAlpha" type="matrix" values="0 0 0 0 0 0 0 0 0 0 0 0 0 0 0 0 0 0 127 0" result="hardAlpha"/>
<feOffset dy="4"/>
<feGaussianBlur stdDeviation="2"/>
<feComposite in2="hardAlpha" operator="out"/>
<feColorMatrix type="matrix" values="0 0 0 0 0 0 0 0 0 0 0 0 0 0 0 0 0 0 0.25 0"/>
<feBlend mode="normal" in2="BackgroundImageFix" result="effect1_dropShadow_2_174"/>
<feBlend mode="normal" in="SourceGraphic" in2="effect1_dropShadow_2_174" result="shape"/>
</filter>
<filter id="filter3_d_2_174" x="330" y="0" width="308" height="228" filterUnits="userSpaceOnUse" color-interpolation-filters="sRGB">
<feFlood flood-opacity="0" result="BackgroundImageFix"/>
<feColorMatrix in="SourceAlpha" type="matrix" values="0 0 0 0 0 0 0 0 0 0 0 0 0 0 0 0 0 0 127 0" result="hardAlpha"/>
<feOffset dy="4"/>
<feGaussianBlur stdDeviation="2"/>
<feComposite in2="hardAlpha" operator="out"/>
<feColorMatrix type="matrix" values="0 0 0 0 0 0 0 0 0 0 0 0 0 0 0 0 0 0 0.25 0"/>
<feBlend mode="normal" in2="BackgroundImageFix" result="effect1_dropShadow_2_174"/>
<feBlend mode="normal" in="SourceGraphic" in2="effect1_dropShadow_2_174" result="shape"/>
</filter>
<filter id="filter4_d_2_174" x="660" y="240" width="308" height="228" filterUnits="userSpaceOnUse" color-interpolation-filters="sRGB">
<feFlood flood-opacity="0" result="BackgroundImageFix"/>
<feColorMatrix in="SourceAlpha" type="matrix" values="0 0 0 0 0 0 0 0 0 0 0 0 0 0 0 0 0 0 127 0" result="hardAlpha"/>
<feOffset dy="4"/>
<feGaussianBlur stdDeviation="2"/>
<feComposite in2="hardAlpha" operator="out"/>
<feColorMatrix type="matrix" values="0 0 0 0 0 0 0 0 0 0 0 0 0 0 0 0 0 0 0.25 0"/>
<feBlend mode="normal" in2="BackgroundImageFix" result="effect1_dropShadow_2_174"/>
<feBlend mode="normal" in="SourceGraphic" in2="effect1_dropShadow_2_174" result="shape"/>
</filter>
<filter id="filter5_d_2_174" x="660" y="0" width="308" height="228" filterUnits="userSpaceOnUse" color-interpolation-filters="sRGB">
<feFlood flood-opacity="0" result="BackgroundImageFix"/>
<feColorMatrix in="SourceAlpha" type="matrix" values="0 0 0 0 0 0 0 0 0 0 0 0 0 0 0 0 0 0 127 0" result="hardAlpha"/>
<feOffset dy="4"/>
<feGaussianBlur stdDeviation="2"/>
<feComposite in2="hardAlpha" operator="out"/>
<feColorMatrix type="matrix" values="0 0 0 0 0 0 0 0 0 0 0 0 0 0 0 0 0 0 0.25 0"/>
<feBlend mode="normal" in2="BackgroundImageFix" result="effect1_dropShadow_2_174"/>
<feBlend mode="normal" in="SourceGraphic" in2="effect1_dropShadow_2_174" result="shape"/>
</filter>
</defs>
</svg>
