<svg width="500" height="1000" viewBox="0 0 500 1000" fill="none" xmlns="http://www.w3.org/2000/svg">
<rect width="500" height="1000" fill="white"/>
<g filter="url(#filter0_d_4_184)">
<rect x="20" y="240" width="460" height="200" rx="6" fill="#FDFDFD"/>
<rect x="20.5" y="240.5" width="459" height="199" rx="5.5" stroke="#D9D9D9"/>
</g>
<path d="M60.184 419H57.976L57.4 411.536C57.16 408.608 57.024 406.36 56.992 404.792L53.416 417.128H51.28L47.512 404.768C47.512 406.768 47.408 409.08 47.2 411.704L46.648 419H44.488L45.856 402.464H48.928L52.408 414.488L55.72 402.464H58.816L60.184 419ZM69.0237 419.072C68.5277 420.544 67.8317 421.704 66.9357 422.552C66.0557 423.416 64.7917 423.936 63.1437 424.112L62.9037 422.384C63.7357 422.24 64.3997 422.032 64.8957 421.76C65.3917 421.488 65.7837 421.136 66.0717 420.704C66.3757 420.288 66.6557 419.72 66.9117 419H66.1677L61.9197 406.352H64.2717L67.6557 417.392L70.9677 406.352H73.2477L69.0237 419.072ZM87.9318 406.064C89.5478 406.064 90.7318 406.64 91.4838 407.792C92.2358 408.944 92.6118 410.568 92.6118 412.664C92.6118 414.648 92.1798 416.248 91.3158 417.464C90.4518 418.68 89.2278 419.288 87.6438 419.288C86.2358 419.288 85.1318 418.808 84.3318 417.848V423.848L82.1238 424.112V406.352H84.0198L84.1878 408.056C84.6518 407.416 85.2118 406.928 85.8678 406.592C86.5238 406.24 87.2118 406.064 87.9318 406.064ZM87.1158 417.488C89.1958 417.488 90.2358 415.88 90.2358 412.664C90.2358 409.432 89.2838 407.816 87.3798 407.816C86.7558 407.816 86.1878 408 85.6758 408.368C85.1638 408.736 84.7158 409.208 84.3318 409.784V415.952C84.6518 416.448 85.0518 416.832 85.5318 417.104C86.0118 417.36 86.5398 417.488 87.1158 417.488ZM101.87 406.064C102.318 406.064 102.734 406.112 103.118 406.208L102.71 408.368C102.326 408.272 101.958 408.224 101.606 408.224C100.822 408.224 100.19 408.512 99.7098 409.088C99.2298 409.664 98.8538 410.56 98.5818 411.776V419H96.3738V406.352H98.2698L98.4858 408.92C98.8218 407.976 99.2778 407.264 99.8538 406.784C100.43 406.304 101.102 406.064 101.87 406.064ZM109.657 406.064C111.433 406.064 112.809 406.656 113.785 407.84C114.777 409.024 115.273 410.632 115.273 412.664C115.273 413.976 115.049 415.136 114.601 416.144C114.153 417.136 113.505 417.912 112.657 418.472C111.809 419.016 110.801 419.288 109.633 419.288C107.857 419.288 106.473 418.696 105.481 417.512C104.489 416.328 103.993 414.72 103.993 412.688C103.993 411.376 104.217 410.224 104.665 409.232C105.113 408.224 105.761 407.448 106.609 406.904C107.457 406.344 108.473 406.064 109.657 406.064ZM109.657 407.84C107.465 407.84 106.369 409.456 106.369 412.688C106.369 415.904 107.457 417.512 109.633 417.512C111.809 417.512 112.897 415.896 112.897 412.664C112.897 409.448 111.817 407.84 109.657 407.84ZM121.081 418.232C121.081 419.4 120.937 420.336 120.649 421.04C120.361 421.744 119.937 422.312 119.377 422.744C118.833 423.192 118.065 423.64 117.073 424.088L116.425 422.48C117.049 422.192 117.529 421.904 117.865 421.616C118.201 421.344 118.449 420.952 118.609 420.44C118.785 419.944 118.873 419.256 118.873 418.376V406.352H121.081V418.232ZM119.977 400.28C120.441 400.28 120.817 400.424 121.105 400.712C121.393 401 121.537 401.36 121.537 401.792C121.537 402.224 121.393 402.584 121.105 402.872C120.817 403.144 120.441 403.28 119.977 403.28C119.529 403.28 119.161 403.144 118.873 402.872C118.585 402.584 118.441 402.224 118.441 401.792C118.441 401.36 118.585 401 118.873 400.712C119.161 400.424 119.529 400.28 119.977 400.28ZM135.199 412.304C135.199 412.672 135.183 413.048 135.151 413.432H127.087C127.183 414.824 127.535 415.848 128.143 416.504C128.751 417.16 129.535 417.488 130.495 417.488C131.103 417.488 131.663 417.4 132.175 417.224C132.687 417.048 133.223 416.768 133.783 416.384L134.743 417.704C133.399 418.76 131.927 419.288 130.327 419.288C128.567 419.288 127.191 418.712 126.199 417.56C125.223 416.408 124.735 414.824 124.735 412.808C124.735 411.496 124.943 410.336 125.359 409.328C125.791 408.304 126.399 407.504 127.183 406.928C127.983 406.352 128.919 406.064 129.991 406.064C131.671 406.064 132.959 406.616 133.855 407.72C134.751 408.824 135.199 410.352 135.199 412.304ZM133.015 411.656C133.015 410.408 132.767 409.456 132.271 408.8C131.775 408.144 131.031 407.816 130.039 407.816C128.231 407.816 127.247 409.144 127.087 411.8H133.015V411.656ZM143.333 406.064C144.085 406.064 144.773 406.176 145.397 406.4C146.021 406.608 146.621 406.952 147.197 407.432L146.141 408.824C145.693 408.504 145.253 408.272 144.821 408.128C144.405 407.968 143.941 407.888 143.429 407.888C142.405 407.888 141.605 408.296 141.029 409.112C140.469 409.928 140.189 411.136 140.189 412.736C140.189 414.336 140.469 415.52 141.029 416.288C141.589 417.04 142.389 417.416 143.429 417.416C143.925 417.416 144.381 417.344 144.797 417.2C145.213 417.04 145.677 416.792 146.189 416.456L147.197 417.896C146.045 418.824 144.757 419.288 143.333 419.288C141.621 419.288 140.269 418.712 139.277 417.56C138.301 416.408 137.813 414.816 137.813 412.784C137.813 411.44 138.037 410.264 138.485 409.256C138.933 408.248 139.565 407.464 140.381 406.904C141.213 406.344 142.197 406.064 143.333 406.064ZM156.57 418.424C155.738 419 154.794 419.288 153.738 419.288C152.666 419.288 151.826 418.984 151.218 418.376C150.626 417.752 150.33 416.856 150.33 415.688V408.056H148.122V406.352H150.33V403.496L152.538 403.232V406.352H155.538L155.298 408.056H152.538V415.592C152.538 416.248 152.65 416.728 152.874 417.032C153.114 417.32 153.506 417.464 154.05 417.464C154.546 417.464 155.106 417.296 155.73 416.96L156.57 418.424Z" fill="#262626"/>
<g filter="url(#filter1_d_4_184)">
<rect x="20" y="474" width="460" height="200" rx="6" fill="#FDFDFD"/>
<rect x="20.5" y="474.5" width="459" height="199" rx="5.5" stroke="#D9D9D9"/>
</g>
<path d="M60.184 653H57.976L57.4 645.536C57.16 642.608 57.024 640.36 56.992 638.792L53.416 651.128H51.28L47.512 638.768C47.512 640.768 47.408 643.08 47.2 645.704L46.648 653H44.488L45.856 636.464H48.928L52.408 648.488L55.72 636.464H58.816L60.184 653ZM69.0237 653.072C68.5277 654.544 67.8317 655.704 66.9357 656.552C66.0557 657.416 64.7917 657.936 63.1437 658.112L62.9037 656.384C63.7357 656.24 64.3997 656.032 64.8957 655.76C65.3917 655.488 65.7837 655.136 66.0717 654.704C66.3757 654.288 66.6557 653.72 66.9117 653H66.1677L61.9197 640.352H64.2717L67.6557 651.392L70.9677 640.352H73.2477L69.0237 653.072ZM87.9318 640.064C89.5478 640.064 90.7318 640.64 91.4838 641.792C92.2358 642.944 92.6118 644.568 92.6118 646.664C92.6118 648.648 92.1798 650.248 91.3158 651.464C90.4518 652.68 89.2278 653.288 87.6438 653.288C86.2358 653.288 85.1318 652.808 84.3318 651.848V657.848L82.1238 658.112V640.352H84.0198L84.1878 642.056C84.6518 641.416 85.2118 640.928 85.8678 640.592C86.5238 640.24 87.2118 640.064 87.9318 640.064ZM87.1158 651.488C89.1958 651.488 90.2358 649.88 90.2358 646.664C90.2358 643.432 89.2838 641.816 87.3798 641.816C86.7558 641.816 86.1878 642 85.6758 642.368C85.1638 642.736 84.7158 643.208 84.3318 643.784V649.952C84.6518 650.448 85.0518 650.832 85.5318 651.104C86.0118 651.36 86.5398 651.488 87.1158 651.488ZM101.87 640.064C102.318 640.064 102.734 640.112 103.118 640.208L102.71 642.368C102.326 642.272 101.958 642.224 101.606 642.224C100.822 642.224 100.19 642.512 99.7098 643.088C99.2298 643.664 98.8538 644.56 98.5818 645.776V653H96.3738V640.352H98.2698L98.4858 642.92C98.8218 641.976 99.2778 641.264 99.8538 640.784C100.43 640.304 101.102 640.064 101.87 640.064ZM109.657 640.064C111.433 640.064 112.809 640.656 113.785 641.84C114.777 643.024 115.273 644.632 115.273 646.664C115.273 647.976 115.049 649.136 114.601 650.144C114.153 651.136 113.505 651.912 112.657 652.472C111.809 653.016 110.801 653.288 109.633 653.288C107.857 653.288 106.473 652.696 105.481 651.512C104.489 650.328 103.993 648.72 103.993 646.688C103.993 645.376 104.217 644.224 104.665 643.232C105.113 642.224 105.761 641.448 106.609 640.904C107.457 640.344 108.473 640.064 109.657 640.064ZM109.657 641.84C107.465 641.84 106.369 643.456 106.369 646.688C106.369 649.904 107.457 651.512 109.633 651.512C111.809 651.512 112.897 649.896 112.897 646.664C112.897 643.448 111.817 641.84 109.657 641.84ZM121.081 652.232C121.081 653.4 120.937 654.336 120.649 655.04C120.361 655.744 119.937 656.312 119.377 656.744C118.833 657.192 118.065 657.64 117.073 658.088L116.425 656.48C117.049 656.192 117.529 655.904 117.865 655.616C118.201 655.344 118.449 654.952 118.609 654.44C118.785 653.944 118.873 653.256 118.873 652.376V640.352H121.081V652.232ZM119.977 634.28C120.441 634.28 120.817 634.424 121.105 634.712C121.393 635 121.537 635.36 121.537 635.792C121.537 636.224 121.393 636.584 121.105 636.872C120.817 637.144 120.441 637.28 119.977 637.28C119.529 637.28 119.161 637.144 118.873 636.872C118.585 636.584 118.441 636.224 118.441 635.792C118.441 635.36 118.585 635 118.873 634.712C119.161 634.424 119.529 634.28 119.977 634.28ZM135.199 646.304C135.199 646.672 135.183 647.048 135.151 647.432H127.087C127.183 648.824 127.535 649.848 128.143 650.504C128.751 651.16 129.535 651.488 130.495 651.488C131.103 651.488 131.663 651.4 132.175 651.224C132.687 651.048 133.223 650.768 133.783 650.384L134.743 651.704C133.399 652.76 131.927 653.288 130.327 653.288C128.567 653.288 127.191 652.712 126.199 651.56C125.223 650.408 124.735 648.824 124.735 646.808C124.735 645.496 124.943 644.336 125.359 643.328C125.791 642.304 126.399 641.504 127.183 640.928C127.983 640.352 128.919 640.064 129.991 640.064C131.671 640.064 132.959 640.616 133.855 641.72C134.751 642.824 135.199 644.352 135.199 646.304ZM133.015 645.656C133.015 644.408 132.767 643.456 132.271 642.8C131.775 642.144 131.031 641.816 130.039 641.816C128.231 641.816 127.247 643.144 127.087 645.8H133.015V645.656ZM143.333 640.064C144.085 640.064 144.773 640.176 145.397 640.4C146.021 640.608 146.621 640.952 147.197 641.432L146.141 642.824C145.693 642.504 145.253 642.272 144.821 642.128C144.405 641.968 143.941 641.888 143.429 641.888C142.405 641.888 141.605 642.296 141.029 643.112C140.469 643.928 140.189 645.136 140.189 646.736C140.189 648.336 140.469 649.52 141.029 650.288C141.589 651.04 142.389 651.416 143.429 651.416C143.925 651.416 144.381 651.344 144.797 651.2C145.213 651.04 145.677 650.792 146.189 650.456L147.197 651.896C146.045 652.824 144.757 653.288 143.333 653.288C141.621 653.288 140.269 652.712 139.277 651.56C138.301 650.408 137.813 648.816 137.813 646.784C137.813 645.44 138.037 644.264 138.485 643.256C138.933 642.248 139.565 641.464 140.381 640.904C141.213 640.344 142.197 640.064 143.333 640.064ZM156.57 652.424C155.738 653 154.794 653.288 153.738 653.288C152.666 653.288 151.826 652.984 151.218 652.376C150.626 651.752 150.33 650.856 150.33 649.688V642.056H148.122V640.352H150.33V637.496L152.538 637.232V640.352H155.538L155.298 642.056H152.538V649.592C152.538 650.248 152.65 650.728 152.874 651.032C153.114 651.32 153.506 651.464 154.05 651.464C154.546 651.464 155.106 651.296 155.73 650.96L156.57 652.424Z" fill="#262626"/>
<g filter="url(#filter2_d_4_184)">
<rect x="20" y="708" width="460" height="200" rx="6" fill="#FDFDFD"/>
<rect x="20.5" y="708.5" width="459" height="199" rx="5.5" stroke="#D9D9D9"/>
</g>
<path d="M60.184 887H57.976L57.4 879.536C57.16 876.608 57.024 874.36 56.992 872.792L53.416 885.128H51.28L47.512 872.768C47.512 874.768 47.408 877.08 47.2 879.704L46.648 887H44.488L45.856 870.464H48.928L52.408 882.488L55.72 870.464H58.816L60.184 887ZM69.0237 887.072C68.5277 888.544 67.8317 889.704 66.9357 890.552C66.0557 891.416 64.7917 891.936 63.1437 892.112L62.9037 890.384C63.7357 890.24 64.3997 890.032 64.8957 889.76C65.3917 889.488 65.7837 889.136 66.0717 888.704C66.3757 888.288 66.6557 887.72 66.9117 887H66.1677L61.9197 874.352H64.2717L67.6557 885.392L70.9677 874.352H73.2477L69.0237 887.072ZM87.9318 874.064C89.5478 874.064 90.7318 874.64 91.4838 875.792C92.2358 876.944 92.6118 878.568 92.6118 880.664C92.6118 882.648 92.1798 884.248 91.3158 885.464C90.4518 886.68 89.2278 887.288 87.6438 887.288C86.2358 887.288 85.1318 886.808 84.3318 885.848V891.848L82.1238 892.112V874.352H84.0198L84.1878 876.056C84.6518 875.416 85.2118 874.928 85.8678 874.592C86.5238 874.24 87.2118 874.064 87.9318 874.064ZM87.1158 885.488C89.1958 885.488 90.2358 883.88 90.2358 880.664C90.2358 877.432 89.2838 875.816 87.3798 875.816C86.7558 875.816 86.1878 876 85.6758 876.368C85.1638 876.736 84.7158 877.208 84.3318 877.784V883.952C84.6518 884.448 85.0518 884.832 85.5318 885.104C86.0118 885.36 86.5398 885.488 87.1158 885.488ZM101.87 874.064C102.318 874.064 102.734 874.112 103.118 874.208L102.71 876.368C102.326 876.272 101.958 876.224 101.606 876.224C100.822 876.224 100.19 876.512 99.7098 877.088C99.2298 877.664 98.8538 878.56 98.5818 879.776V887H96.3738V874.352H98.2698L98.4858 876.92C98.8218 875.976 99.2778 875.264 99.8538 874.784C100.43 874.304 101.102 874.064 101.87 874.064ZM109.657 874.064C111.433 874.064 112.809 874.656 113.785 875.84C114.777 877.024 115.273 878.632 115.273 880.664C115.273 881.976 115.049 883.136 114.601 884.144C114.153 885.136 113.505 885.912 112.657 886.472C111.809 887.016 110.801 887.288 109.633 887.288C107.857 887.288 106.473 886.696 105.481 885.512C104.489 884.328 103.993 882.72 103.993 880.688C103.993 879.376 104.217 878.224 104.665 877.232C105.113 876.224 105.761 875.448 106.609 874.904C107.457 874.344 108.473 874.064 109.657 874.064ZM109.657 875.84C107.465 875.84 106.369 877.456 106.369 880.688C106.369 883.904 107.457 885.512 109.633 885.512C111.809 885.512 112.897 883.896 112.897 880.664C112.897 877.448 111.817 875.84 109.657 875.84ZM121.081 886.232C121.081 887.4 120.937 888.336 120.649 889.04C120.361 889.744 119.937 890.312 119.377 890.744C118.833 891.192 118.065 891.64 117.073 892.088L116.425 890.48C117.049 890.192 117.529 889.904 117.865 889.616C118.201 889.344 118.449 888.952 118.609 888.44C118.785 887.944 118.873 887.256 118.873 886.376V874.352H121.081V886.232ZM119.977 868.28C120.441 868.28 120.817 868.424 121.105 868.712C121.393 869 121.537 869.36 121.537 869.792C121.537 870.224 121.393 870.584 121.105 870.872C120.817 871.144 120.441 871.28 119.977 871.28C119.529 871.28 119.161 871.144 118.873 870.872C118.585 870.584 118.441 870.224 118.441 869.792C118.441 869.36 118.585 869 118.873 868.712C119.161 868.424 119.529 868.28 119.977 868.28ZM135.199 880.304C135.199 880.672 135.183 881.048 135.151 881.432H127.087C127.183 882.824 127.535 883.848 128.143 884.504C128.751 885.16 129.535 885.488 130.495 885.488C131.103 885.488 131.663 885.4 132.175 885.224C132.687 885.048 133.223 884.768 133.783 884.384L134.743 885.704C133.399 886.76 131.927 887.288 130.327 887.288C128.567 887.288 127.191 886.712 126.199 885.56C125.223 884.408 124.735 882.824 124.735 880.808C124.735 879.496 124.943 878.336 125.359 877.328C125.791 876.304 126.399 875.504 127.183 874.928C127.983 874.352 128.919 874.064 129.991 874.064C131.671 874.064 132.959 874.616 133.855 875.72C134.751 876.824 135.199 878.352 135.199 880.304ZM133.015 879.656C133.015 878.408 132.767 877.456 132.271 876.8C131.775 876.144 131.031 875.816 130.039 875.816C128.231 875.816 127.247 877.144 127.087 879.8H133.015V879.656ZM143.333 874.064C144.085 874.064 144.773 874.176 145.397 874.4C146.021 874.608 146.621 874.952 147.197 875.432L146.141 876.824C145.693 876.504 145.253 876.272 144.821 876.128C144.405 875.968 143.941 875.888 143.429 875.888C142.405 875.888 141.605 876.296 141.029 877.112C140.469 877.928 140.189 879.136 140.189 880.736C140.189 882.336 140.469 883.52 141.029 884.288C141.589 885.04 142.389 885.416 143.429 885.416C143.925 885.416 144.381 885.344 144.797 885.2C145.213 885.04 145.677 884.792 146.189 884.456L147.197 885.896C146.045 886.824 144.757 887.288 143.333 887.288C141.621 887.288 140.269 886.712 139.277 885.56C138.301 884.408 137.813 882.816 137.813 880.784C137.813 879.44 138.037 878.264 138.485 877.256C138.933 876.248 139.565 875.464 140.381 874.904C141.213 874.344 142.197 874.064 143.333 874.064ZM156.57 886.424C155.738 887 154.794 887.288 153.738 887.288C152.666 887.288 151.826 886.984 151.218 886.376C150.626 885.752 150.33 884.856 150.33 883.688V876.056H148.122V874.352H150.33V871.496L152.538 871.232V874.352H155.538L155.298 876.056H152.538V883.592C152.538 884.248 152.65 884.728 152.874 885.032C153.114 885.32 153.506 885.464 154.05 885.464C154.546 885.464 155.106 885.296 155.73 884.96L156.57 886.424Z" fill="#262626"/>
<path d="M41.708 72.552C39.684 72.552 37.6753 72.184 35.682 71.448C33.7193 70.712 31.9253 69.6387 30.3 68.228L34.21 63.582C35.3447 64.502 36.5867 65.2533 37.936 65.836C39.316 66.4187 40.7267 66.71 42.168 66.71C43.6093 66.71 44.6673 66.4647 45.342 65.974C46.0473 65.4833 46.4 64.8547 46.4 64.088C46.4 63.3827 46.216 62.8307 45.848 62.432C45.48 62.0027 44.9433 61.6347 44.238 61.328C43.5327 60.9907 42.7047 60.6227 41.754 60.224L37.89 58.568C36.786 58.1387 35.7433 57.5713 34.762 56.866C33.7807 56.13 32.9833 55.2407 32.37 54.198C31.7873 53.1247 31.496 51.852 31.496 50.38C31.496 48.724 31.956 47.2367 32.876 45.918C33.8267 44.5687 35.1147 43.4953 36.74 42.698C38.396 41.87 40.3127 41.456 42.49 41.456C44.2993 41.456 46.078 41.7933 47.826 42.468C49.574 43.1427 51.1227 44.124 52.472 45.412L49.022 49.69C47.9793 48.9233 46.9367 48.3407 45.894 47.942C44.8513 47.5127 43.594 47.298 42.122 47.298C41.018 47.298 40.1133 47.528 39.408 47.988C38.7027 48.448 38.35 49.1227 38.35 50.012C38.35 50.5947 38.5647 51.0853 38.994 51.484C39.4233 51.8827 40.006 52.2353 40.742 52.542C41.478 52.8487 42.3213 53.186 43.272 53.554L46.906 55.118C48.2553 55.6087 49.4053 56.222 50.356 56.958C51.3067 57.6633 52.0427 58.5373 52.564 59.58C53.0853 60.6227 53.346 61.8493 53.346 63.26C53.346 64.916 52.886 66.4493 51.966 67.86C51.0767 69.2707 49.758 70.4053 48.01 71.264C46.2927 72.1227 44.192 72.552 41.708 72.552ZM69.382 72.552C67.3887 72.552 65.5027 72.092 63.724 71.172C61.9454 70.2213 60.504 68.8567 59.4 67.078C58.296 65.2687 57.744 63.1067 57.744 60.592C57.744 58.0773 58.296 55.9307 59.4 54.152C60.504 52.3427 61.9454 50.978 63.724 50.058C65.5027 49.1073 67.3887 48.632 69.382 48.632C71.3754 48.632 73.2614 49.1073 75.04 50.058C76.8187 50.978 78.26 52.3427 79.364 54.152C80.468 55.9307 81.02 58.0773 81.02 60.592C81.02 63.1067 80.468 65.2687 79.364 67.078C78.26 68.8567 76.8187 70.2213 75.04 71.172C73.2614 72.092 71.3754 72.552 69.382 72.552ZM69.382 67.078C70.4247 67.078 71.2834 66.8173 71.958 66.296C72.6634 65.7747 73.1847 65.0233 73.522 64.042C73.89 63.0607 74.074 61.9107 74.074 60.592C74.074 59.2733 73.89 58.1233 73.522 57.142C73.1847 56.1607 72.6634 55.4093 71.958 54.888C71.2834 54.3667 70.4247 54.106 69.382 54.106C68.3394 54.106 67.4654 54.3667 66.76 54.888C66.0854 55.4093 65.564 56.1607 65.196 57.142C64.8587 58.1233 64.69 59.2733 64.69 60.592C64.69 61.9107 64.8587 63.0607 65.196 64.042C65.564 65.0233 66.0854 65.7747 66.76 66.296C67.4654 66.8173 68.3394 67.078 69.382 67.078ZM84.7741 72V49.184H89.8801L90.3401 51.99H90.5241C90.9534 51.07 91.5514 50.288 92.3181 49.644C93.0847 48.9693 94.1274 48.632 95.4461 48.632C96.4274 48.632 97.2707 48.954 97.9761 49.598C98.6814 50.2113 99.1567 51.1313 99.4021 52.358C99.8314 51.3153 100.445 50.4413 101.242 49.736C102.07 49 103.143 48.632 104.462 48.632C106.087 48.632 107.345 49.2913 108.234 50.61C109.123 51.9287 109.568 53.7227 109.568 55.992V72H103.128V56.452C103.128 55.072 102.714 54.382 101.886 54.382C101.457 54.382 101.073 54.566 100.736 54.934C100.429 55.2713 100.123 55.8233 99.8161 56.59V72H94.5261V56.452C94.5261 55.7467 94.4187 55.2253 94.2041 54.888C93.9894 54.5507 93.6674 54.382 93.2381 54.382C92.8087 54.382 92.4407 54.566 92.1341 54.934C91.8274 55.2713 91.5207 55.8233 91.2141 56.59V72H84.7741ZM125.926 72.552C123.565 72.552 121.418 72.092 119.486 71.172C117.585 70.2213 116.067 68.8567 114.932 67.078C113.828 65.2687 113.276 63.1067 113.276 60.592C113.276 58.108 113.843 55.9767 114.978 54.198C116.113 52.3887 117.585 51.0087 119.394 50.058C121.203 49.1073 123.12 48.632 125.144 48.632C127.505 48.632 129.483 49.1227 131.078 50.104C132.673 51.0547 133.869 52.358 134.666 54.014C135.494 55.6393 135.908 57.4947 135.908 59.58C135.908 60.1933 135.862 60.7913 135.77 61.374C135.709 61.926 135.647 62.34 135.586 62.616H118.29V58.062H131.032L129.974 59.35C129.974 57.51 129.575 56.13 128.778 55.21C128.011 54.2593 126.877 53.784 125.374 53.784C124.27 53.784 123.304 54.0293 122.476 54.52C121.648 55.0107 121.004 55.762 120.544 56.774C120.084 57.786 119.854 59.0587 119.854 60.592C119.854 62.156 120.13 63.444 120.682 64.456C121.234 65.4373 122.031 66.1733 123.074 66.664C124.117 67.1547 125.374 67.4 126.846 67.4C127.889 67.4 128.87 67.262 129.79 66.986C130.741 66.71 131.722 66.3113 132.734 65.79L134.988 69.884C133.669 70.712 132.213 71.3713 130.618 71.862C129.023 72.322 127.459 72.552 125.926 72.552ZM169.222 80.464V49.184H174.742L175.248 51.484H175.386C176.337 50.656 177.395 49.9813 178.56 49.46C179.756 48.908 180.967 48.632 182.194 48.632C184.095 48.632 185.721 49.1073 187.07 50.058C188.45 51.0087 189.508 52.358 190.244 54.106C190.98 55.854 191.348 57.8933 191.348 60.224C191.348 62.8307 190.873 65.054 189.922 66.894C189.002 68.734 187.791 70.1447 186.288 71.126C184.785 72.0767 183.175 72.552 181.458 72.552C180.446 72.552 179.449 72.3373 178.468 71.908C177.517 71.4787 176.643 70.8653 175.846 70.068H175.662L175.984 73.794V80.464H169.222ZM179.894 67.032C180.753 67.032 181.519 66.802 182.194 66.342C182.869 65.882 183.405 65.1613 183.804 64.18C184.203 63.168 184.402 61.88 184.402 60.316C184.402 58.936 184.249 57.8013 183.942 56.912C183.635 55.992 183.175 55.302 182.562 54.842C181.979 54.382 181.197 54.152 180.216 54.152C179.48 54.152 178.759 54.3207 178.054 54.658C177.379 54.9647 176.689 55.5013 175.984 56.268V65.514C176.628 66.0353 177.287 66.4187 177.962 66.664C178.667 66.9093 179.311 67.032 179.894 67.032ZM198.828 72V49.184H204.348L204.9 54.152H205.038C206.173 52.2813 207.538 50.9013 209.132 50.012C210.758 49.092 212.475 48.632 214.284 48.632C215.296 48.632 216.109 48.7087 216.722 48.862C217.366 49.0153 218.026 49.2453 218.7 49.552L217.32 55.21C216.615 54.9953 215.971 54.842 215.388 54.75C214.836 54.6273 214.131 54.566 213.272 54.566C211.862 54.566 210.466 54.98 209.086 55.808C207.737 56.636 206.572 58.0773 205.59 60.132V72H198.828ZM234.874 72.552C232.881 72.552 230.995 72.092 229.216 71.172C227.438 70.2213 225.996 68.8567 224.892 67.078C223.788 65.2687 223.236 63.1067 223.236 60.592C223.236 58.0773 223.788 55.9307 224.892 54.152C225.996 52.3427 227.438 50.978 229.216 50.058C230.995 49.1073 232.881 48.632 234.874 48.632C236.868 48.632 238.754 49.1073 240.532 50.058C242.311 50.978 243.752 52.3427 244.856 54.152C245.96 55.9307 246.512 58.0773 246.512 60.592C246.512 63.1067 245.96 65.2687 244.856 67.078C243.752 68.8567 242.311 70.2213 240.532 71.172C238.754 72.092 236.868 72.552 234.874 72.552ZM234.874 67.078C235.917 67.078 236.776 66.8173 237.45 66.296C238.156 65.7747 238.677 65.0233 239.014 64.042C239.382 63.0607 239.566 61.9107 239.566 60.592C239.566 59.2733 239.382 58.1233 239.014 57.142C238.677 56.1607 238.156 55.4093 237.45 54.888C236.776 54.3667 235.917 54.106 234.874 54.106C233.832 54.106 232.958 54.3667 232.252 54.888C231.578 55.4093 231.056 56.1607 230.688 57.142C230.351 58.1233 230.182 59.2733 230.182 60.592C230.182 61.9107 230.351 63.0607 230.688 64.042C231.056 65.0233 231.578 65.7747 232.252 66.296C232.958 66.8173 233.832 67.078 234.874 67.078ZM257.626 81.016C256.216 81.016 254.928 80.8627 253.762 80.556C252.628 80.28 251.57 79.912 250.588 79.452L252.566 74.622C253.486 75.0207 254.314 75.2967 255.05 75.45C255.817 75.634 256.538 75.726 257.212 75.726C258.316 75.726 259.175 75.542 259.788 75.174C260.402 74.8367 260.831 74.3153 261.076 73.61C261.322 72.9047 261.444 72 261.444 70.896V54.474H252.244V49.184H268.206V70.62C268.206 72.0307 268.038 73.3493 267.7 74.576C267.363 75.8333 266.796 76.9373 265.998 77.888C265.201 78.8693 264.112 79.636 262.732 80.188C261.383 80.74 259.681 81.016 257.626 81.016ZM264.526 45.596C263.238 45.596 262.165 45.228 261.306 44.492C260.448 43.7253 260.018 42.7287 260.018 41.502C260.018 40.2447 260.448 39.2327 261.306 38.466C262.165 37.6687 263.238 37.27 264.526 37.27C265.845 37.27 266.918 37.6687 267.746 38.466C268.605 39.2327 269.034 40.2447 269.034 41.502C269.034 42.7287 268.605 43.7253 267.746 44.492C266.918 45.228 265.845 45.596 264.526 45.596ZM291.418 72.552C289.057 72.552 286.91 72.092 284.978 71.172C283.077 70.2213 281.559 68.8567 280.424 67.078C279.32 65.2687 278.768 63.1067 278.768 60.592C278.768 58.108 279.336 55.9767 280.47 54.198C281.605 52.3887 283.077 51.0087 284.886 50.058C286.696 49.1073 288.612 48.632 290.636 48.632C292.998 48.632 294.976 49.1227 296.57 50.104C298.165 51.0547 299.361 52.358 300.158 54.014C300.986 55.6393 301.4 57.4947 301.4 59.58C301.4 60.1933 301.354 60.7913 301.262 61.374C301.201 61.926 301.14 62.34 301.078 62.616H283.782V58.062H296.524L295.466 59.35C295.466 57.51 295.068 56.13 294.27 55.21C293.504 54.2593 292.369 53.784 290.866 53.784C289.762 53.784 288.796 54.0293 287.968 54.52C287.14 55.0107 286.496 55.762 286.036 56.774C285.576 57.786 285.346 59.0587 285.346 60.592C285.346 62.156 285.622 63.444 286.174 64.456C286.726 65.4373 287.524 66.1733 288.566 66.664C289.609 67.1547 290.866 67.4 292.338 67.4C293.381 67.4 294.362 67.262 295.282 66.986C296.233 66.71 297.214 66.3113 298.226 65.79L300.48 69.884C299.162 70.712 297.705 71.3713 296.11 71.862C294.516 72.322 292.952 72.552 291.418 72.552ZM319.598 72.552C317.206 72.552 315.044 72.092 313.112 71.172C311.211 70.2213 309.693 68.8567 308.558 67.078C307.454 65.2687 306.902 63.1067 306.902 60.592C306.902 58.0773 307.516 55.9307 308.742 54.152C309.969 52.3427 311.579 50.978 313.572 50.058C315.596 49.1073 317.774 48.632 320.104 48.632C321.914 48.632 323.554 48.9233 325.026 49.506C326.498 50.058 327.71 50.794 328.66 51.714L325.532 55.9C324.643 55.2867 323.784 54.842 322.956 54.566C322.159 54.2593 321.331 54.106 320.472 54.106C319.184 54.106 318.034 54.3667 317.022 54.888C316.01 55.4093 315.228 56.1607 314.676 57.142C314.124 58.1233 313.848 59.2733 313.848 60.592C313.848 61.9107 314.109 63.0607 314.63 64.042C315.182 65.0233 315.934 65.7747 316.884 66.296C317.866 66.8173 318.985 67.078 320.242 67.078C321.438 67.078 322.527 66.8633 323.508 66.434C324.52 66.0047 325.44 65.4987 326.268 64.916L328.982 69.194C327.633 70.3287 326.115 71.172 324.428 71.724C322.772 72.276 321.162 72.552 319.598 72.552ZM349.25 72.552C346.828 72.552 344.896 72.138 343.454 71.31C342.044 70.4513 341.016 69.2707 340.372 67.768C339.728 66.2653 339.406 64.5173 339.406 62.524V54.474H333.702V49.46L339.728 49.184L340.602 42.192H346.168V49.184H355.828V54.474H346.168V62.478C346.168 63.6127 346.337 64.5327 346.674 65.238C347.012 65.9433 347.533 66.4647 348.238 66.802C348.944 67.1087 349.848 67.262 350.952 67.262C351.842 67.262 352.654 67.1853 353.39 67.032C354.126 66.8787 354.832 66.6793 355.506 66.434L356.702 71.31C355.69 71.6167 354.571 71.8927 353.344 72.138C352.148 72.414 350.784 72.552 349.25 72.552ZM372.6 72.552C370.576 72.552 368.568 72.2147 366.574 71.54C364.581 70.8347 362.864 70.0067 361.422 69.056L364.32 64.824C365.7 65.7133 367.157 66.388 368.69 66.848C370.254 67.308 371.864 67.538 373.52 67.538C374.778 67.538 375.698 67.354 376.28 66.986C376.863 66.5873 377.154 66.1273 377.154 65.606C377.154 65.2687 377.062 64.9927 376.878 64.778C376.725 64.5327 376.434 64.318 376.004 64.134C375.606 63.9193 375.038 63.72 374.302 63.536C373.597 63.352 372.677 63.1373 371.542 62.892C368.445 62.2173 366.222 61.2973 364.872 60.132C363.523 58.9667 362.848 57.51 362.848 55.762C362.848 53.6153 363.784 51.898 365.654 50.61C367.525 49.2913 370.086 48.632 373.336 48.632C375.391 48.632 377.246 48.9693 378.902 49.644C380.589 50.288 382.03 50.9933 383.226 51.76L380.19 55.808C379.056 55.1027 377.844 54.566 376.556 54.198C375.268 53.83 373.996 53.646 372.738 53.646C372.033 53.646 371.45 53.7227 370.99 53.876C370.53 53.9987 370.178 54.2133 369.932 54.52C369.687 54.796 369.564 55.1027 369.564 55.44C369.564 56.0533 369.963 56.5133 370.76 56.82C371.558 57.096 372.922 57.4487 374.854 57.878C377.185 58.3993 379.01 58.9973 380.328 59.672C381.647 60.3467 382.552 61.1287 383.042 62.018C383.564 62.8767 383.824 63.9347 383.824 65.192C383.824 66.572 383.395 67.814 382.536 68.918C381.708 70.022 380.451 70.9113 378.764 71.586C377.108 72.23 375.054 72.552 372.6 72.552Z" fill="black"/>
<defs>
<filter id="filter0_d_4_184" x="16" y="240" width="468" height="208" filterUnits="userSpaceOnUse" color-interpolation-filters="sRGB">
<feFlood flood-opacity="0" result="BackgroundImageFix"/>
<feColorMatrix in="SourceAlpha" type="matrix" values="0 0 0 0 0 0 0 0 0 0 0 0 0 0 0 0 0 0 127 0" result="hardAlpha"/>
<feOffset dy="4"/>
<feGaussianBlur stdDeviation="2"/>
<feComposite in2="hardAlpha" operator="out"/>
<feColorMatrix type="matrix" values="0 0 0 0 0 0 0 0 0 0 0 0 0 0 0 0 0 0 0.25 0"/>
<feBlend mode="normal" in2="BackgroundImageFix" result="effect1_dropShadow_4_184"/>
<feBlend mode="normal" in="SourceGraphic" in2="effect1_dropShadow_4_184" result="shape"/>
</filter>
<filter id="filter1_d_4_184" x="16" y="474" width="468" height="208" filterUnits="userSpaceOnUse" color-interpolation-filters="sRGB">
<feFlood flood-opacity="0" result="BackgroundImageFix"/>
<feColorMatrix in="SourceAlpha" type="matrix" values="0 0 0 0 0 0 0 0 0 0 0 0 0 0 0 0 0 0 127 0" result="hardAlpha"/>
<feOffset dy="4"/>
<feGaussianBlur stdDeviation="2"/>
<feComposite in2="hardAlpha" operator="out"/>
<feColorMatrix type="matrix" values="0 0 0 0 0 0 0 0 0 0 0 0 0 0 0 0 0 0 0.25 0"/>
<feBlend mode="normal" in2="BackgroundImageFix" result="effect1_dropShadow_4_184"/>
<feBlend mode="normal" in="SourceGraphic" in2="effect1_dropShadow_4_184" result="shape"/>
</filter>
<filter id="filter2_d_4_184" x="16" y="708" width="468" height="208" filterUnits="userSpaceOnUse" color-interpolation-filters="sRGB">
<feFlood flood-opacity="0" result="BackgroundImageFix"/>
<feColorMatrix in="SourceAlpha" type="matrix" values="0 0 0 0 0 0 0 0 0 0 0 0 0 0 0 0 0 0 127 0" result="hardAlpha"/>
<feOffset dy="4"/>
<feGaussianBlur stdDeviation="2"/>
<feComposite in2="hardAlpha" operator="out"/>
<feColorMatrix type="matrix" values="0 0 0 0 0 0 0 0 0 0 0 0 0 0 0 0 0 0 0.25 0"/>
<feBlend mode="normal" in2="BackgroundImageFix" result="effect1_dropShadow_4_184"/>
<feBlend mode="normal" in="SourceGraphic" in2="effect1_dropShadow_4_184" result="shape"/>
</filter>
</defs>
</svg>
