<svg width="468" height="208" viewBox="0 0 468 208" fill="none" xmlns="http://www.w3.org/2000/svg">
<g filter="url(#filter0_d_2_120)">
<rect x="4" width="460" height="200" rx="6" fill="#FDFDFD"/>
<rect x="4.5" y="0.5" width="459" height="199" rx="5.5" stroke="#D9D9D9"/>
</g>
<path d="M44.184 179H41.976L41.4 171.536C41.16 168.608 41.024 166.36 40.992 164.792L37.416 177.128H35.28L31.512 164.768C31.512 166.768 31.408 169.08 31.2 171.704L30.648 179H28.488L29.856 162.464H32.928L36.408 174.488L39.72 162.464H42.816L44.184 179ZM53.0237 179.072C52.5277 180.544 51.8317 181.704 50.9357 182.552C50.0557 183.416 48.7917 183.936 47.1437 184.112L46.9037 182.384C47.7357 182.24 48.3997 182.032 48.8957 181.76C49.3917 181.488 49.7837 181.136 50.0717 180.704C50.3757 180.288 50.6557 179.72 50.9117 179H50.1677L45.9197 166.352H48.2717L51.6557 177.392L54.9677 166.352H57.2477L53.0237 179.072ZM71.9318 166.064C73.5478 166.064 74.7318 166.64 75.4838 167.792C76.2358 168.944 76.6118 170.568 76.6118 172.664C76.6118 174.648 76.1798 176.248 75.3158 177.464C74.4518 178.68 73.2278 179.288 71.6438 179.288C70.2358 179.288 69.1318 178.808 68.3318 177.848V183.848L66.1238 184.112V166.352H68.0198L68.1878 168.056C68.6518 167.416 69.2118 166.928 69.8678 166.592C70.5238 166.24 71.2118 166.064 71.9318 166.064ZM71.1158 177.488C73.1958 177.488 74.2358 175.88 74.2358 172.664C74.2358 169.432 73.2838 167.816 71.3798 167.816C70.7558 167.816 70.1878 168 69.6758 168.368C69.1638 168.736 68.7158 169.208 68.3318 169.784V175.952C68.6518 176.448 69.0518 176.832 69.5318 177.104C70.0118 177.36 70.5398 177.488 71.1158 177.488ZM85.8698 166.064C86.3178 166.064 86.7338 166.112 87.1178 166.208L86.7098 168.368C86.3258 168.272 85.9578 168.224 85.6058 168.224C84.8218 168.224 84.1898 168.512 83.7098 169.088C83.2298 169.664 82.8538 170.56 82.5818 171.776V179H80.3738V166.352H82.2698L82.4858 168.92C82.8218 167.976 83.2778 167.264 83.8538 166.784C84.4298 166.304 85.1018 166.064 85.8698 166.064ZM93.657 166.064C95.433 166.064 96.809 166.656 97.785 167.84C98.777 169.024 99.273 170.632 99.273 172.664C99.273 173.976 99.049 175.136 98.601 176.144C98.153 177.136 97.505 177.912 96.657 178.472C95.809 179.016 94.801 179.288 93.633 179.288C91.857 179.288 90.473 178.696 89.481 177.512C88.489 176.328 87.993 174.72 87.993 172.688C87.993 171.376 88.217 170.224 88.665 169.232C89.113 168.224 89.761 167.448 90.609 166.904C91.457 166.344 92.473 166.064 93.657 166.064ZM93.657 167.84C91.465 167.84 90.369 169.456 90.369 172.688C90.369 175.904 91.457 177.512 93.633 177.512C95.809 177.512 96.897 175.896 96.897 172.664C96.897 169.448 95.817 167.84 93.657 167.84ZM105.081 178.232C105.081 179.4 104.937 180.336 104.649 181.04C104.361 181.744 103.937 182.312 103.377 182.744C102.833 183.192 102.065 183.64 101.073 184.088L100.425 182.48C101.049 182.192 101.529 181.904 101.865 181.616C102.201 181.344 102.449 180.952 102.609 180.44C102.785 179.944 102.873 179.256 102.873 178.376V166.352H105.081V178.232ZM103.977 160.28C104.441 160.28 104.817 160.424 105.105 160.712C105.393 161 105.537 161.36 105.537 161.792C105.537 162.224 105.393 162.584 105.105 162.872C104.817 163.144 104.441 163.28 103.977 163.28C103.529 163.28 103.161 163.144 102.873 162.872C102.585 162.584 102.441 162.224 102.441 161.792C102.441 161.36 102.585 161 102.873 160.712C103.161 160.424 103.529 160.28 103.977 160.28ZM119.199 172.304C119.199 172.672 119.183 173.048 119.151 173.432H111.087C111.183 174.824 111.535 175.848 112.143 176.504C112.751 177.16 113.535 177.488 114.495 177.488C115.103 177.488 115.663 177.4 116.175 177.224C116.687 177.048 117.223 176.768 117.783 176.384L118.743 177.704C117.399 178.76 115.927 179.288 114.327 179.288C112.567 179.288 111.191 178.712 110.199 177.56C109.223 176.408 108.735 174.824 108.735 172.808C108.735 171.496 108.943 170.336 109.359 169.328C109.791 168.304 110.399 167.504 111.183 166.928C111.983 166.352 112.919 166.064 113.991 166.064C115.671 166.064 116.959 166.616 117.855 167.72C118.751 168.824 119.199 170.352 119.199 172.304ZM117.015 171.656C117.015 170.408 116.767 169.456 116.271 168.8C115.775 168.144 115.031 167.816 114.039 167.816C112.231 167.816 111.247 169.144 111.087 171.8H117.015V171.656ZM127.333 166.064C128.085 166.064 128.773 166.176 129.397 166.4C130.021 166.608 130.621 166.952 131.197 167.432L130.141 168.824C129.693 168.504 129.253 168.272 128.821 168.128C128.405 167.968 127.941 167.888 127.429 167.888C126.405 167.888 125.605 168.296 125.029 169.112C124.469 169.928 124.189 171.136 124.189 172.736C124.189 174.336 124.469 175.52 125.029 176.288C125.589 177.04 126.389 177.416 127.429 177.416C127.925 177.416 128.381 177.344 128.797 177.2C129.213 177.04 129.677 176.792 130.189 176.456L131.197 177.896C130.045 178.824 128.757 179.288 127.333 179.288C125.621 179.288 124.269 178.712 123.277 177.56C122.301 176.408 121.813 174.816 121.813 172.784C121.813 171.44 122.037 170.264 122.485 169.256C122.933 168.248 123.565 167.464 124.381 166.904C125.213 166.344 126.197 166.064 127.333 166.064ZM140.57 178.424C139.738 179 138.794 179.288 137.738 179.288C136.666 179.288 135.826 178.984 135.218 178.376C134.626 177.752 134.33 176.856 134.33 175.688V168.056H132.122V166.352H134.33V163.496L136.538 163.232V166.352H139.538L139.298 168.056H136.538V175.592C136.538 176.248 136.65 176.728 136.874 177.032C137.114 177.32 137.506 177.464 138.05 177.464C138.546 177.464 139.106 177.296 139.73 176.96L140.57 178.424Z" fill="#262626"/>
<defs>
<filter id="filter0_d_2_120" x="0" y="0" width="468" height="208" filterUnits="userSpaceOnUse" color-interpolation-filters="sRGB">
<feFlood flood-opacity="0" result="BackgroundImageFix"/>
<feColorMatrix in="SourceAlpha" type="matrix" values="0 0 0 0 0 0 0 0 0 0 0 0 0 0 0 0 0 0 127 0" result="hardAlpha"/>
<feOffset dy="4"/>
<feGaussianBlur stdDeviation="2"/>
<feComposite in2="hardAlpha" operator="out"/>
<feColorMatrix type="matrix" values="0 0 0 0 0 0 0 0 0 0 0 0 0 0 0 0 0 0 0.25 0"/>
<feBlend mode="normal" in2="BackgroundImageFix" result="effect1_dropShadow_2_120"/>
<feBlend mode="normal" in="SourceGraphic" in2="effect1_dropShadow_2_120" result="shape"/>
</filter>
</defs>
</svg>
