<svg width="308" height="228" viewBox="0 0 308 228" fill="none" xmlns="http://www.w3.org/2000/svg">
<g filter="url(#filter0_d_2_148)">
<rect x="4" width="300" height="220" rx="6" fill="#FDFDFD"/>
<rect x="4.5" y="0.5" width="299" height="219" rx="5.5" stroke="#D9D9D9"/>
</g>
<path d="M28.8437 198H26.6357L26.0597 190.536C25.8197 187.608 25.6837 185.36 25.6517 183.792L22.0757 196.128H19.9397L16.1717 183.768C16.1717 185.768 16.0677 188.08 15.8597 190.704L15.3077 198H13.1477L14.5157 181.464H17.5877L21.0677 193.488L24.3797 181.464H27.4757L28.8437 198ZM37.6834 198.072C37.1874 199.544 36.4914 200.704 35.5954 201.552C34.7154 202.416 33.4514 202.936 31.8034 203.112L31.5634 201.384C32.3954 201.24 33.0594 201.032 33.5554 200.76C34.0514 200.488 34.4434 200.136 34.7314 199.704C35.0354 199.288 35.3154 198.72 35.5714 198H34.8274L30.5794 185.352H32.9314L36.3154 196.392L39.6274 185.352H41.9074L37.6834 198.072ZM56.5914 185.064C58.2074 185.064 59.3914 185.64 60.1434 186.792C60.8954 187.944 61.2714 189.568 61.2714 191.664C61.2714 193.648 60.8394 195.248 59.9754 196.464C59.1114 197.68 57.8874 198.288 56.3034 198.288C54.8954 198.288 53.7914 197.808 52.9914 196.848V202.848L50.7834 203.112V185.352H52.6794L52.8474 187.056C53.3114 186.416 53.8714 185.928 54.5274 185.592C55.1834 185.24 55.8714 185.064 56.5914 185.064ZM55.7754 196.488C57.8554 196.488 58.8954 194.88 58.8954 191.664C58.8954 188.432 57.9434 186.816 56.0394 186.816C55.4154 186.816 54.8474 187 54.3354 187.368C53.8234 187.736 53.3754 188.208 52.9914 188.784V194.952C53.3114 195.448 53.7114 195.832 54.1914 196.104C54.6714 196.36 55.1994 196.488 55.7754 196.488ZM70.5294 185.064C70.9774 185.064 71.3934 185.112 71.7774 185.208L71.3694 187.368C70.9854 187.272 70.6174 187.224 70.2654 187.224C69.4814 187.224 68.8494 187.512 68.3694 188.088C67.8894 188.664 67.5134 189.56 67.2414 190.776V198H65.0334V185.352H66.9294L67.1454 187.92C67.4814 186.976 67.9374 186.264 68.5134 185.784C69.0894 185.304 69.7614 185.064 70.5294 185.064ZM78.3167 185.064C80.0927 185.064 81.4687 185.656 82.4447 186.84C83.4367 188.024 83.9327 189.632 83.9327 191.664C83.9327 192.976 83.7087 194.136 83.2607 195.144C82.8127 196.136 82.1647 196.912 81.3167 197.472C80.4687 198.016 79.4607 198.288 78.2927 198.288C76.5167 198.288 75.1327 197.696 74.1407 196.512C73.1487 195.328 72.6527 193.72 72.6527 191.688C72.6527 190.376 72.8767 189.224 73.3247 188.232C73.7727 187.224 74.4207 186.448 75.2687 185.904C76.1167 185.344 77.1327 185.064 78.3167 185.064ZM78.3167 186.84C76.1247 186.84 75.0287 188.456 75.0287 191.688C75.0287 194.904 76.1167 196.512 78.2927 196.512C80.4687 196.512 81.5567 194.896 81.5567 191.664C81.5567 188.448 80.4767 186.84 78.3167 186.84ZM89.7403 197.232C89.7403 198.4 89.5963 199.336 89.3083 200.04C89.0203 200.744 88.5963 201.312 88.0363 201.744C87.4923 202.192 86.7243 202.64 85.7323 203.088L85.0843 201.48C85.7083 201.192 86.1883 200.904 86.5243 200.616C86.8603 200.344 87.1083 199.952 87.2683 199.44C87.4443 198.944 87.5323 198.256 87.5323 197.376V185.352H89.7403V197.232ZM88.6363 179.28C89.1003 179.28 89.4763 179.424 89.7643 179.712C90.0523 180 90.1963 180.36 90.1963 180.792C90.1963 181.224 90.0523 181.584 89.7643 181.872C89.4763 182.144 89.1003 182.28 88.6363 182.28C88.1883 182.28 87.8203 182.144 87.5323 181.872C87.2443 181.584 87.1003 181.224 87.1003 180.792C87.1003 180.36 87.2443 180 87.5323 179.712C87.8203 179.424 88.1883 179.28 88.6363 179.28ZM103.859 191.304C103.859 191.672 103.843 192.048 103.811 192.432H95.7469C95.8429 193.824 96.1949 194.848 96.8029 195.504C97.4109 196.16 98.1949 196.488 99.1549 196.488C99.7629 196.488 100.323 196.4 100.835 196.224C101.347 196.048 101.883 195.768 102.443 195.384L103.403 196.704C102.059 197.76 100.587 198.288 98.9869 198.288C97.2269 198.288 95.8509 197.712 94.8589 196.56C93.8829 195.408 93.3949 193.824 93.3949 191.808C93.3949 190.496 93.6029 189.336 94.0189 188.328C94.4509 187.304 95.0589 186.504 95.8429 185.928C96.6429 185.352 97.5789 185.064 98.6509 185.064C100.331 185.064 101.619 185.616 102.515 186.72C103.411 187.824 103.859 189.352 103.859 191.304ZM101.675 190.656C101.675 189.408 101.427 188.456 100.931 187.8C100.435 187.144 99.6909 186.816 98.6989 186.816C96.8909 186.816 95.9069 188.144 95.7469 190.8H101.675V190.656ZM111.993 185.064C112.745 185.064 113.433 185.176 114.057 185.4C114.681 185.608 115.281 185.952 115.857 186.432L114.801 187.824C114.353 187.504 113.913 187.272 113.481 187.128C113.065 186.968 112.601 186.888 112.089 186.888C111.065 186.888 110.265 187.296 109.689 188.112C109.129 188.928 108.849 190.136 108.849 191.736C108.849 193.336 109.129 194.52 109.689 195.288C110.249 196.04 111.049 196.416 112.089 196.416C112.585 196.416 113.041 196.344 113.457 196.2C113.873 196.04 114.337 195.792 114.849 195.456L115.857 196.896C114.705 197.824 113.417 198.288 111.993 198.288C110.281 198.288 108.929 197.712 107.937 196.56C106.961 195.408 106.473 193.816 106.473 191.784C106.473 190.44 106.697 189.264 107.145 188.256C107.593 187.248 108.225 186.464 109.041 185.904C109.873 185.344 110.857 185.064 111.993 185.064ZM125.23 197.424C124.398 198 123.454 198.288 122.398 198.288C121.326 198.288 120.486 197.984 119.878 197.376C119.286 196.752 118.99 195.856 118.99 194.688V187.056H116.782V185.352H118.99V182.496L121.198 182.232V185.352H124.198L123.958 187.056H121.198V194.592C121.198 195.248 121.31 195.728 121.534 196.032C121.774 196.32 122.166 196.464 122.71 196.464C123.206 196.464 123.766 196.296 124.39 195.96L125.23 197.424Z" fill="#262626"/>
<defs>
<filter id="filter0_d_2_148" x="0" y="0" width="308" height="228" filterUnits="userSpaceOnUse" color-interpolation-filters="sRGB">
<feFlood flood-opacity="0" result="BackgroundImageFix"/>
<feColorMatrix in="SourceAlpha" type="matrix" values="0 0 0 0 0 0 0 0 0 0 0 0 0 0 0 0 0 0 127 0" result="hardAlpha"/>
<feOffset dy="4"/>
<feGaussianBlur stdDeviation="2"/>
<feComposite in2="hardAlpha" operator="out"/>
<feColorMatrix type="matrix" values="0 0 0 0 0 0 0 0 0 0 0 0 0 0 0 0 0 0 0.25 0"/>
<feBlend mode="normal" in2="BackgroundImageFix" result="effect1_dropShadow_2_148"/>
<feBlend mode="normal" in="SourceGraphic" in2="effect1_dropShadow_2_148" result="shape"/>
</filter>
</defs>
</svg>
