<svg width="644" height="1002" viewBox="0 0 644 1002" fill="none" xmlns="http://www.w3.org/2000/svg">
<rect x="144.5" y="2.5" width="499" height="999" fill="white" stroke="black"/>
<rect x="144.5" y="952.5" width="499" height="49" fill="#F5F5F5" stroke="black"/>
<rect x="207" y="962.5" width="374" height="29" fill="#D9D9D9" stroke="black"/>
<rect x="144.5" y="0.5" width="499" height="59" fill="#F5F5F5" stroke="black"/>
<rect x="202.5" y="15.5" width="89" height="29" fill="#D9D9D9" stroke="black"/>
<rect x="152.5" y="10.5" width="39" height="39" fill="#D9D9D9" stroke="black"/>
<rect x="593.5" y="10.5" width="39" height="39" fill="#D9D9D9" stroke="black"/>
<rect x="0.5" y="10.5" width="39" height="39" fill="#D9D9D9" stroke="black"/>
<rect x="195.5" y="379.5" width="429" height="76" fill="#FDFDFD" stroke="black"/>
<rect x="192.5" y="588.5" width="249" height="49" fill="#F5F5F5" stroke="black"/>
<rect x="202.5" y="598.5" width="29" height="29" fill="#D9D9D9" stroke="black"/>
<rect x="242.5" y="598.5" width="29" height="29" fill="#D9D9D9" stroke="black"/>
<rect x="282.5" y="598.5" width="29" height="29" fill="#D9D9D9" stroke="black"/>
<rect x="322.5" y="598.5" width="29" height="29" fill="#D9D9D9" stroke="black"/>
<rect x="362.5" y="598.5" width="29" height="29" fill="#D9D9D9" stroke="black"/>
<rect x="402.5" y="598.5" width="29" height="29" fill="#D9D9D9" stroke="black"/>
<path d="M322.5 286C322.5 321.07 294.07 349.5 259 349.5C223.93 349.5 195.5 321.07 195.5 286C195.5 250.93 223.93 222.5 259 222.5C294.07 222.5 322.5 250.93 322.5 286Z" fill="#F5F5F5" stroke="black"/>
<rect x="195.5" y="502.5" width="130.27" height="39" rx="19.5" fill="#D9D9D9" stroke="black"/>
<rect x="374.23" y="502.5" width="130.27" height="39" rx="19.5" fill="#D9D9D9" stroke="black"/>
</svg>
