<svg width="1000" height="500" viewBox="0 0 1000 500" fill="none" xmlns="http://www.w3.org/2000/svg">
<rect x="0.5" y="0.5" width="999" height="499" fill="white" stroke="black"/>
<rect x="0.5" y="0.5" width="999" height="49" fill="#F5F5F5" stroke="black"/>
<rect x="894.5" y="10.5" width="89" height="29" fill="#D9D9D9" stroke="black"/>
<rect x="794.5" y="10.5" width="89" height="29" fill="#D9D9D9" stroke="black"/>
<rect x="694.5" y="10.5" width="89" height="29" fill="#D9D9D9" stroke="black"/>
<rect x="594.5" y="10.5" width="89" height="29" fill="#D9D9D9" stroke="black"/>
<rect x="56.5" y="10.5" width="89" height="29" fill="#D9D9D9" stroke="black"/>
<rect x="6.5" y="5.5" width="39" height="39" fill="#D9D9D9" stroke="black"/>
<rect x="0.5" y="450.5" width="999" height="49" fill="#F5F5F5" stroke="black"/>
<rect x="125.5" y="460.5" width="749" height="29" fill="#D9D9D9" stroke="black"/>
<path d="M563.5 186C563.5 221.07 535.07 249.5 500 249.5C464.93 249.5 436.5 221.07 436.5 186C436.5 150.93 464.93 122.5 500 122.5C535.07 122.5 563.5 150.93 563.5 186Z" fill="#F5F5F5" stroke="black"/>
<rect width="411" height="129" transform="translate(294 289)" fill="black" fill-opacity="0.2"/>
<rect x="294.5" y="289.5" width="410" height="128" fill="#D9D9D9" stroke="black"/>
</svg>
