<svg width="644" height="1002" viewBox="0 0 644 1002" fill="none" xmlns="http://www.w3.org/2000/svg">
<rect x="144.5" y="2.5" width="499" height="999" fill="white" stroke="black"/>
<rect x="144.5" y="952.5" width="499" height="49" fill="#F5F5F5" stroke="black"/>
<rect x="207" y="962.5" width="374" height="29" fill="#D9D9D9" stroke="black"/>
<rect x="144.5" y="0.5" width="499" height="59" fill="#F5F5F5" stroke="black"/>
<rect x="202.5" y="15.5" width="89" height="29" fill="#D9D9D9" stroke="black"/>
<rect x="152.5" y="10.5" width="39" height="39" fill="#D9D9D9" stroke="black"/>
<rect x="593.5" y="10.5" width="39" height="39" fill="#D9D9D9" stroke="black"/>
<rect x="0.5" y="10.5" width="39" height="39" fill="#D9D9D9" stroke="black"/>
<path d="M457.5 233C457.5 268.07 429.07 296.5 394 296.5C358.93 296.5 330.5 268.07 330.5 233C330.5 197.93 358.93 169.5 394 169.5C429.07 169.5 457.5 197.93 457.5 233Z" fill="#F5F5F5" stroke="black"/>
<rect width="411" height="129" transform="translate(188 336)" fill="black" fill-opacity="0.2"/>
<rect x="188.5" y="336.5" width="410" height="128" fill="#D9D9D9" stroke="black"/>
</svg>
