<?xml version="1.0" encoding="UTF-8" standalone="no"?>
<!-- Generator: Gravit.io -->
<svg xmlns="http://www.w3.org/2000/svg" xmlns:xlink="http://www.w3.org/1999/xlink" style="isolation:isolate" viewBox="0 0 256 256" width="256pt" height="256pt"><defs><clipPath id="_clipPath_VTFazaCZj7xeLzidSFePKtVXUiuApJRE"><rect width="256" height="256"/></clipPath></defs><g clip-path="url(#_clipPath_VTFazaCZj7xeLzidSFePKtVXUiuApJRE)"><linearGradient id="_lgradient_0" x1="0.14644660940672632" y1="0.14644660940672616" x2="0.8535533905932737" y2="0.8535533905932738" gradientTransform="matrix(256,0,0,256,0,0)" gradientUnits="userSpaceOnUse"><stop offset="1.25%" stop-opacity="1" style="stop-color:rgb(0,255,195)"/><stop offset="100%" stop-opacity="1" style="stop-color:rgb(0,38,255)"/></linearGradient><path d=" M 195.946 256 L 0 37.904 L 0 20 C 0 8.962 8.962 0 20 0 L 60.054 0 L 256 218.096 L 256 236 C 256 247.038 247.038 256 236 256 L 195.946 256 Z " fill-rule="evenodd" fill="url(#_lgradient_0)"/><linearGradient id="_lgradient_1" x1="0.5" y1="1" x2="0.5000000000000001" y2="0" gradientTransform="matrix(60,0,0,256,196,0)" gradientUnits="userSpaceOnUse"><stop offset="0%" stop-opacity="1" style="stop-color:rgb(42,0,181)"/><stop offset="97.5%" stop-opacity="1" style="stop-color:rgb(255,0,247)"/></linearGradient><path d=" M 196 0 L 196 256 L 236 256 C 247.038 256 256 247.038 256 236 L 256 20 C 256 8.962 247.038 0 236 0 L 196 0 Z " fill-rule="evenodd" fill="url(#_lgradient_1)"/><linearGradient id="_lgradient_2" x1="0.5" y1="0" x2="0.49999999999999983" y2="1" gradientTransform="matrix(60,0,0,256,0,0)" gradientUnits="userSpaceOnUse"><stop offset="0%" stop-opacity="1" style="stop-color:rgb(4,255,96)"/><stop offset="98.33333333333333%" stop-opacity="1" style="stop-color:rgb(0,70,36)"/></linearGradient><path d=" M 60 256 L 60 0 L 20 0 C 8.962 0 0 8.962 0 20 L 0 236 C 0 247.038 8.962 256 20 256 L 60 256 Z " fill-rule="evenodd" fill="url(#_lgradient_2)"/></g></svg>