<?xml version="1.0" encoding="UTF-8" standalone="no"?>
<!-- Generator: Gravit.io -->
<svg xmlns="http://www.w3.org/2000/svg" xmlns:xlink="http://www.w3.org/1999/xlink" style="isolation:isolate" viewBox="0 0 257.8 257.8" width="257.8pt" height="257.8pt"><defs><clipPath id="_clipPath_0nvsgMJQCipPzqIh18l1pRMRR3uGcwFy"><rect width="257.8" height="257.8"/></clipPath></defs><g clip-path="url(#_clipPath_0nvsgMJQCipPzqIh18l1pRMRR3uGcwFy)"><g><g><g><path d=" M 113.301 25.501 C 112.964 35.794 111.251 54.459 104.047 74.185 C 105.619 74.079 107.219 73.901 108.846 73.633 C 117.13 72.269 118.295 69.936 127.143 67.36 C 130.308 66.438 139.025 63.909 149.268 63.899 C 144.683 48.118 143.366 33.905 143.03 25.402 L 143.573 25.4 C 144.879 25.396 145.945 24.323 145.94 23.017 C 145.936 21.711 144.863 20.646 143.557 20.65 L 142.925 20.652 C 142.918 18.402 142.982 17.152 142.982 17.152 C 143.033 14.958 129.711 15.277 128.131 15.323 C 126.55 15.288 113.226 15.059 113.293 17.253 C 113.293 17.253 113.365 18.503 113.374 20.753 L 113.305 20.753 C 111.998 20.757 110.934 21.83 110.938 23.136 C 110.942 24.436 112.004 25.495 113.301 25.501 Z " fill="rgb(220,241,253)"/></g><path d=" M 165.739 240.588 C 167.836 232.33 162.404 215.473 158.991 204.234 C 156.309 195.403 159.18 185.396 160.534 181.513 C 160.986 180.216 161.338 178.898 161.565 177.543 C 163.5 166.022 171.131 114.11 157.087 84.609 C 153.766 77.633 151.231 70.627 149.276 63.9 C 139.029 63.908 130.309 66.439 127.143 67.361 C 118.295 69.937 117.13 72.27 108.846 73.634 C 107.213 73.903 105.606 74.082 104.029 74.187 C 102.743 77.707 101.304 81.257 99.646 84.803 C 85.802 114.398 93.783 166.258 95.796 177.765 C 96.033 179.118 96.393 180.434 96.854 181.728 C 98.234 185.602 101.172 195.59 98.55 204.438 C 95.213 215.7 89.896 232.594 92.049 240.837 C 94.185 249.016 115.604 247.163 128.761 247.822 L 128.761 247.838 C 128.812 247.835 128.866 247.833 128.917 247.83 C 128.968 247.833 129.022 247.834 129.073 247.837 L 129.073 247.822 C 142.226 247.073 163.658 248.781 165.739 240.588 Z " fill="rgb(107,53,25)"/><g opacity="0.2"><path d=" M 137.057 176.002 C 136.827 177.229 136.485 178.419 136.052 179.589 C 134.755 183.092 131.974 192.131 134.256 200.197 C 137.161 210.464 141.8 225.868 139.753 233.331 C 138.609 237.5 131.949 238.712 124.213 239.056 C 125.802 239.084 127.332 239.126 128.762 239.197 L 128.762 239.213 C 128.813 239.21 128.867 239.208 128.918 239.205 C 128.969 239.208 129.023 239.209 129.074 239.212 L 129.074 239.196 C 136.528 238.772 146.638 239.135 154.381 238.039 C 156.151 237.195 157.378 236.045 157.81 234.468 C 159.858 227.005 155.218 211.601 152.313 201.335 C 150.031 193.268 152.812 184.23 154.109 180.727 C 154.542 179.557 154.884 178.366 155.114 177.14 C 157.072 166.711 164.904 119.697 152.662 92.661 C 149.767 86.267 147.586 79.861 145.928 73.718 C 138.905 73.589 132.651 74.78 128.76 75.708 C 130.29 80.883 132.198 86.207 134.604 91.523 C 146.846 118.559 139.015 165.573 137.057 176.002 Z " fill="rgb(255,255,255)"/></g><g style="opacity:0.15;"><g opacity="0.15"><path d=" M 165.739 231.963 C 163.659 240.156 142.226 238.448 129.074 239.197 L 129.074 239.213 C 129.023 239.21 128.969 239.208 128.918 239.206 C 128.867 239.209 128.813 239.211 128.762 239.214 L 128.762 239.198 C 115.604 238.538 94.185 240.391 92.05 232.212 C 91.983 231.954 91.944 231.664 91.891 231.39 C 91.439 235.063 91.4 238.348 92.05 240.837 C 94.186 249.016 115.605 247.163 128.762 247.822 L 128.762 247.838 C 128.813 247.835 128.867 247.833 128.918 247.83 C 128.969 247.833 129.023 247.834 129.074 247.837 L 129.074 247.822 C 142.226 247.073 163.659 248.782 165.739 240.588 C 166.36 238.139 166.309 234.924 165.856 231.334 C 165.815 231.541 165.789 231.765 165.739 231.963 Z " fill="rgb(0,0,0)"/></g></g><g><path d=" M 118.831 17.524 C 119.695 17.521 120.417 18.108 120.634 18.903 L 120.777 18.902 C 120.989 18.105 121.707 17.514 122.571 17.511 C 123.435 17.508 124.157 18.095 124.375 18.89 L 124.518 18.889 C 124.73 18.092 125.448 17.501 126.312 17.498 C 127.176 17.495 127.898 18.082 128.115 18.877 L 128.258 18.876 C 128.47 18.079 129.188 17.488 130.052 17.485 C 130.916 17.482 131.638 18.069 131.856 18.864 L 131.999 18.864 C 132.211 18.067 132.929 17.476 133.793 17.473 C 134.657 17.47 135.379 18.057 135.597 18.852 L 135.74 18.852 C 135.952 18.055 136.67 17.464 137.534 17.461 C 138.398 17.458 139.12 18.045 139.338 18.84 L 139.481 18.84 C 139.693 18.043 140.411 17.452 141.275 17.449 C 142.027 17.447 142.672 17.89 142.971 18.528 C 144.115 17.654 144.858 16.279 144.853 14.737 C 144.844 12.123 142.698 9.991 140.084 10 L 115.762 10.082 C 113.148 10.091 111.016 12.237 111.025 14.851 C 111.031 16.556 111.948 18.051 113.309 18.885 C 113.535 18.11 114.242 17.539 115.09 17.536 C 115.954 17.533 116.676 18.12 116.894 18.915 L 117.037 18.915 C 117.249 18.119 117.967 17.527 118.831 17.524 Z " fill="rgb(236,64,70)"/></g><path d=" M 122.701 10.059 L 115.762 10.082 C 113.148 10.091 111.016 12.237 111.025 14.851 C 111.031 16.556 111.948 18.051 113.309 18.885 C 113.535 18.11 114.242 17.539 115.09 17.536 C 115.954 17.533 116.676 18.12 116.893 18.915 L 117.036 18.915 C 117.248 18.118 117.966 17.527 118.83 17.524 C 119.694 17.521 120.416 18.108 120.633 18.903 L 120.776 18.902 C 120.988 18.105 121.706 17.514 122.57 17.511 C 122.623 17.511 122.673 17.52 122.724 17.524 L 122.701 10.059 Z " fill="rgb(209,25,32)"/><path d=" M 94.048 166.159 L 163.206 166.159 C 165.211 149.925 167.287 122.24 162.169 99.771 L 94.719 99.771 C 89.711 122.206 91.935 149.852 94.048 166.159 Z " fill="rgb(236,64,70)"/><g opacity="0.15"><path d=" M 93.034 109.389 C 91.014 124.555 91.562 140.923 92.729 154.087 C 103.52 149.839 117.558 143.349 139.874 143.565 C 149.712 143.66 158.018 145.029 164.989 146.25 C 165.272 141.09 165.421 135.615 165.349 130.038 C 162.42 131.557 159.259 132.92 155.838 133.848 C 132.726 140.114 110.777 122.991 93.034 109.389 Z " fill="rgb(0,0,0)"/></g><g opacity="0.15"><path d=" M 164.019 158.948 C 166.039 143.782 165.491 127.414 164.324 114.25 C 153.533 118.498 139.495 124.988 117.179 124.772 C 107.341 124.677 99.035 123.308 92.064 122.087 C 91.781 127.247 91.632 132.722 91.703 138.299 C 94.632 136.78 97.794 135.417 101.214 134.489 C 124.328 128.224 146.277 145.346 164.019 158.948 Z " fill="rgb(0,0,0)"/></g><path d=" M 140.964 15.541 L 133.135 15.541 C 132.647 15.541 132.247 15.141 132.247 14.653 L 132.247 13.644 C 132.247 13.156 132.647 12.756 133.135 12.756 L 140.964 12.756 C 141.452 12.756 141.852 13.156 141.852 13.644 L 141.852 14.653 C 141.853 15.142 141.453 15.541 140.964 15.541 Z " fill="rgb(255,255,255)"/><g style="opacity:0.15;"><g opacity="0.15"><path d=" M 122.512 29.129 L 143.22 29.059 C 143.136 27.752 143.075 26.533 143.03 25.414 L 122.676 25.482 C 122.676 25.478 122.676 25.473 122.676 25.469 C 122.764 24.908 122.749 20.721 122.749 20.721 C 122.743 19.001 122.699 17.868 122.679 17.428 C 122.644 17.426 122.611 17.42 122.575 17.42 C 121.711 17.423 120.993 18.014 120.781 18.811 L 120.638 18.811 C 120.421 18.016 119.699 17.429 118.834 17.432 C 117.97 17.435 117.252 18.026 117.04 18.823 L 116.897 18.823 C 116.68 18.028 115.958 17.441 115.094 17.444 C 114.279 17.447 113.599 17.976 113.346 18.705 C 113.359 19.247 113.371 19.932 113.374 20.752 L 113.349 20.752 C 112.251 20.756 111.259 21.488 111.006 22.556 C 110.639 24.105 111.816 25.493 113.302 25.5 C 113.302 25.504 113.302 25.508 113.302 25.513 L 113.302 25.513 C 113.301 25.528 113.301 25.544 113.3 25.559 C 113.29 25.873 113.277 26.196 113.264 26.525 C 113.259 26.655 113.253 26.788 113.248 26.92 C 113.239 27.145 113.228 27.373 113.217 27.605 C 113.21 27.764 113.202 27.923 113.194 28.085 C 113.182 28.336 113.168 28.593 113.153 28.852 C 113.147 28.956 113.142 29.056 113.136 29.161 L 113.136 29.161 C 112.403 42.027 109.586 63.553 99.646 84.804 C 86.407 113.105 93.127 161.765 95.5 176.03 C 95.862 178.204 96.392 180.342 97.097 182.43 C 98.543 186.709 101.026 196.082 98.55 204.439 C 95.213 215.701 89.896 232.595 92.048 240.838 C 94.184 249.017 115.604 247.164 128.761 247.823 L 128.761 247.839 C 128.812 247.836 128.866 247.834 128.917 247.831 C 128.968 247.834 129.022 247.835 129.073 247.838 L 129.073 247.822 C 130.497 247.741 132.021 247.69 133.604 247.65 C 120.564 247.416 103.328 248.099 101.423 240.806 C 99.271 232.563 104.588 215.669 107.925 204.407 C 110.401 196.05 107.918 186.678 106.472 182.398 C 105.767 180.31 105.236 178.172 104.875 175.998 C 102.501 161.733 95.782 113.073 109.021 84.772 C 118.962 63.521 121.778 41.995 122.512 29.129 Z " fill="rgb(0,0,0)"/></g></g><g opacity="0.15"><circle vector-effect="non-scaling-stroke" cx="144.85504573609504" cy="218.69502839001422" r="7.5800000000000125" fill="rgb(0,0,0)"/></g><g opacity="0.15"><path d=" M 140.636 207.521 C 140.636 208.584 139.774 209.447 138.711 209.447 C 137.648 209.447 136.785 208.585 136.785 207.521 C 136.785 206.457 137.647 205.595 138.711 205.595 C 139.775 205.595 140.636 206.458 140.636 207.521 Z " fill="rgb(0,0,0)"/></g><g opacity="0.15"><path d=" M 145.735 188.763 C 145.735 189.538 145.107 190.166 144.332 190.166 C 143.557 190.166 142.929 189.538 142.929 188.763 C 142.929 187.988 143.557 187.36 144.332 187.36 C 145.107 187.36 145.735 187.988 145.735 188.763 Z " fill="rgb(0,0,0)"/></g><g opacity="0.15"><path d=" M 118.788 90.869 C 118.788 91.644 118.16 92.272 117.385 92.272 C 116.61 92.272 115.982 91.644 115.982 90.869 C 115.982 90.094 116.61 89.466 117.385 89.466 C 118.16 89.466 118.788 90.094 118.788 90.869 Z " fill="rgb(0,0,0)"/></g><g opacity="0.15"><circle vector-effect="non-scaling-stroke" cx="150.86504573609506" cy="175.98402839001417" r="1.4029999999999916" fill="rgb(0,0,0)"/></g><g opacity="0.15"><circle vector-effect="non-scaling-stroke" cx="144.33204573609504" cy="81.9020283900142" r="1.4029999999999916" fill="rgb(0,0,0)"/></g><g opacity="0.15"><path d=" M 137.05 78.339 C 137.05 79.114 136.422 79.742 135.647 79.742 C 134.872 79.742 134.244 79.114 134.244 78.339 C 134.244 77.564 134.872 76.936 135.647 76.936 C 136.422 76.936 137.05 77.564 137.05 78.339 Z " fill="rgb(0,0,0)"/></g><g opacity="0.15"><path d=" M 125.971 205.596 C 125.971 206.659 125.109 207.522 124.045 207.522 C 122.981 207.522 122.12 206.66 122.12 205.596 C 122.12 204.532 122.982 203.67 124.045 203.67 C 125.108 203.67 125.971 204.532 125.971 205.596 Z " fill="rgb(0,0,0)"/></g><g opacity="0.15"><path d=" M 124.046 186.918 C 124.046 189.289 122.124 191.211 119.753 191.211 C 117.382 191.211 115.46 189.289 115.46 186.918 C 115.46 184.547 117.382 182.625 119.753 182.625 C 122.124 182.625 124.046 184.547 124.046 186.918 Z " fill="rgb(0,0,0)"/></g><g opacity="0.15"><path d=" M 130.264 231.94 C 130.264 234.311 128.342 236.233 125.971 236.233 C 123.6 236.233 121.678 234.311 121.678 231.94 C 121.678 229.569 123.6 227.647 125.971 227.647 C 128.342 227.647 130.264 229.569 130.264 231.94 Z " fill="rgb(0,0,0)"/></g><g opacity="0.15"><path d=" M 136.574 177.644 C 136.574 179.336 135.202 180.707 133.511 180.707 C 131.819 180.707 130.448 179.335 130.448 177.644 C 130.448 175.952 131.82 174.581 133.511 174.581 C 135.202 174.581 136.574 175.952 136.574 177.644 Z " fill="rgb(0,0,0)"/></g><g opacity="0.15"><circle vector-effect="non-scaling-stroke" cx="138.71004573609503" cy="90.86902839001418" r="3.062999999999988" fill="rgb(0,0,0)"/></g><g opacity="0.15"><circle vector-effect="non-scaling-stroke" cx="118.52304573609504" cy="213.32102839001413" r="3.0630000000000024" fill="rgb(0,0,0)"/></g><g style="opacity:0.15;"><g opacity="0.15"><path d=" M 165.739 231.963 C 163.659 240.156 142.226 238.448 129.074 239.197 L 129.074 239.213 C 129.023 239.21 128.969 239.208 128.918 239.206 C 128.867 239.209 128.813 239.211 128.762 239.214 L 128.762 239.198 C 115.604 238.538 94.185 240.391 92.05 232.212 C 91.983 231.954 91.944 231.664 91.891 231.39 C 91.439 235.063 91.4 238.348 92.05 240.837 C 94.186 249.016 115.605 247.163 128.762 247.822 L 128.762 247.838 C 128.813 247.835 128.867 247.833 128.918 247.83 C 128.969 247.833 129.023 247.834 129.074 247.837 L 129.074 247.822 C 142.226 247.073 163.659 248.782 165.739 240.588 C 166.36 238.139 166.309 234.924 165.856 231.334 C 165.815 231.541 165.789 231.765 165.739 231.963 Z " fill="rgb(0,0,0)"/></g></g></g></g></g></svg>