<?xml version="1.0" encoding="UTF-8" standalone="no"?>
<!-- Generator: Gravit.io -->
<svg xmlns="http://www.w3.org/2000/svg" xmlns:xlink="http://www.w3.org/1999/xlink" style="isolation:isolate" viewBox="0 0 64 64" width="64pt" height="64pt"><defs><clipPath id="_clipPath_nL9HIJj0sHE1BgSgYb0x6J2COWsxkSie"><rect width="64" height="64"/></clipPath></defs><g clip-path="url(#_clipPath_nL9HIJj0sHE1BgSgYb0x6J2COWsxkSie)"><rect width="64" height="64" style="fill:rgb(50,122,255)"/><rect x="3.5" y="29.5" width="57" height="5" transform="matrix(1,0,0,1,0,0)" fill="rgb(0,0,0)"/><path d=" M 60.5 4 L 60.5 26 L 39.475 26 L 17.8 10.501 L 17.435 10.501 L 17.435 10.501 Q 18.206 14.157 18.206 16.083 L 18.206 16.083 L 18.206 26 L 4 26 L 4 4 L 24.944 4 L 46.537 19.289 L 46.781 19.289 L 46.781 19.289 Q 46.213 15.963 46.213 13.947 L 46.213 13.947 L 46.213 4 L 60.5 4 Z " fill="rgb(255,255,255)"/><path d=" M 30.529 42.408 L 30.529 50.183 L 30.529 50.183 Q 30.529 52.718 28.541 54.155 L 28.541 54.155 L 28.541 54.155 Q 26.553 55.592 23.044 55.592 L 23.044 55.592 L 12.285 55.592 L 12.285 55.592 Q 8.776 55.592 6.788 54.155 L 6.788 54.155 L 6.788 54.155 Q 4.8 52.718 4.8 50.183 L 4.8 50.183 L 4.8 42.408 L 4.8 42.408 Q 4.8 39.873 6.788 38.437 L 6.788 38.437 L 6.788 38.437 Q 8.776 37 12.285 37 L 12.285 37 L 23.044 37 L 23.044 37 Q 26.553 37 28.541 38.437 L 28.541 38.437 L 28.541 38.437 Q 30.529 39.873 30.529 42.408 L 30.529 42.408 Z  M 22.342 49.676 L 22.342 42.915 L 22.342 42.915 Q 22.342 41.563 20.471 41.563 L 20.471 41.563 L 14.858 41.563 L 14.858 41.563 Q 12.986 41.563 12.986 42.915 L 12.986 42.915 L 12.986 49.676 L 12.986 49.676 Q 12.986 51.028 14.858 51.028 L 14.858 51.028 L 20.471 51.028 L 20.471 51.028 Q 22.342 51.028 22.342 49.676 L 22.342 49.676 Z  M 50.176 41.901 L 48.539 41.901 L 48.539 41.901 Q 46.06 41.901 42.925 42.577 L 42.925 42.577 L 42.925 50.69 L 49.942 50.69 L 49.942 50.69 Q 51.814 50.69 51.814 49.338 L 51.814 49.338 L 51.814 43.085 L 51.814 43.085 Q 51.814 42.577 51.346 42.239 L 51.346 42.239 L 51.346 42.239 Q 50.878 41.901 50.176 41.901 L 50.176 41.901 Z  M 52.515 55.254 L 42.925 55.254 L 42.925 61 L 34.739 61 L 34.739 37.338 L 41.99 37.338 L 42.458 39.028 L 42.458 39.028 Q 44.656 37.98 46.972 37.49 L 46.972 37.49 L 46.972 37.49 Q 49.287 37 50.878 37 L 50.878 37 L 52.983 37 L 52.983 37 Q 56.164 37 58.082 38.386 L 58.082 38.386 L 58.082 38.386 Q 60 39.772 60 42.07 L 60 42.07 L 60 49.845 L 60 49.845 Q 60 52.38 58.012 53.817 L 58.012 53.817 L 58.012 53.817 Q 56.024 55.254 52.515 55.254 L 52.515 55.254 Z " fill="rgb(255,255,255)"/></g></svg>