<svg width="500" height="1002" viewBox="0 0 500 1002" fill="none" xmlns="http://www.w3.org/2000/svg">
<rect x="0.5" y="2.5" width="499" height="999" fill="white" stroke="black"/>
<rect x="0.5" y="952.5" width="499" height="49" fill="#F5F5F5" stroke="black"/>
<rect x="63" y="962.5" width="374" height="29" fill="#D9D9D9" stroke="black"/>
<rect x="0.5" y="0.5" width="499" height="59" fill="#F5F5F5" stroke="black"/>
<rect x="58.5" y="15.5" width="89" height="29" fill="#D9D9D9" stroke="black"/>
<rect x="8.5" y="10.5" width="39" height="39" fill="#D9D9D9" stroke="black"/>
<rect x="449.5" y="10.5" width="39" height="39" fill="#D9D9D9" stroke="black"/>
<rect x="231.5" y="883.5" width="249" height="49" fill="#F5F5F5" stroke="black"/>
<rect x="241.5" y="893.5" width="29" height="29" fill="#D9D9D9" stroke="black"/>
<rect x="281.5" y="893.5" width="29" height="29" fill="#D9D9D9" stroke="black"/>
<rect x="321.5" y="893.5" width="29" height="29" fill="#D9D9D9" stroke="black"/>
<rect x="361.5" y="893.5" width="29" height="29" fill="#D9D9D9" stroke="black"/>
<rect x="401.5" y="893.5" width="29" height="29" fill="#D9D9D9" stroke="black"/>
<rect x="441.5" y="893.5" width="29" height="29" fill="#D9D9D9" stroke="black"/>
<rect x="345.5" y="644.5" width="129" height="39" rx="19.5" fill="#D9D9D9" stroke="black"/>
<rect x="25.5" y="252.5" width="449" height="349" fill="#F5F5F5" stroke="black"/>
<rect x="25.5" y="120.5" width="299" height="59" fill="#F5F5F5" stroke="black"/>
</svg>
