<svg width="500" height="1002" viewBox="0 0 500 1002" fill="none" xmlns="http://www.w3.org/2000/svg">
<rect x="0.5" y="2.5" width="499" height="999" fill="white" stroke="black"/>
<rect x="0.5" y="952.5" width="499" height="49" fill="#F5F5F5" stroke="black"/>
<rect x="63" y="962.5" width="374" height="29" fill="#D9D9D9" stroke="black"/>
<rect x="0.5" y="0.5" width="499" height="59" fill="#F5F5F5" stroke="black"/>
<rect x="58.5" y="15.5" width="89" height="29" fill="#D9D9D9" stroke="black"/>
<rect x="8.5" y="10.5" width="39" height="39" fill="#D9D9D9" stroke="black"/>
<rect x="449.5" y="10.5" width="39" height="39" fill="#D9D9D9" stroke="black"/>
<rect x="51.5" y="379.5" width="429" height="76" fill="#FDFDFD" stroke="black"/>
<rect x="230.5" y="877.5" width="249" height="49" fill="#F5F5F5" stroke="black"/>
<rect x="240.5" y="887.5" width="29" height="29" fill="#D9D9D9" stroke="black"/>
<rect x="280.5" y="887.5" width="29" height="29" fill="#D9D9D9" stroke="black"/>
<rect x="320.5" y="887.5" width="29" height="29" fill="#D9D9D9" stroke="black"/>
<rect x="360.5" y="887.5" width="29" height="29" fill="#D9D9D9" stroke="black"/>
<rect x="400.5" y="887.5" width="29" height="29" fill="#D9D9D9" stroke="black"/>
<rect x="440.5" y="887.5" width="29" height="29" fill="#D9D9D9" stroke="black"/>
<path d="M178.5 286C178.5 321.07 150.07 349.5 115 349.5C79.9299 349.5 51.5 321.07 51.5 286C51.5 250.93 79.9299 222.5 115 222.5C150.07 222.5 178.5 250.93 178.5 286Z" fill="#F5F5F5" stroke="black"/>
<rect x="51.5" y="502.5" width="130.27" height="39" rx="19.5" fill="#D9D9D9" stroke="black"/>
<rect x="230.23" y="502.5" width="130.27" height="39" rx="19.5" fill="#D9D9D9" stroke="black"/>
</svg>
